%TF.GenerationSoftware,KiCad,Pcbnew,8.0.7*%
%TF.CreationDate,2025-01-08T02:27:13-05:00*%
%TF.ProjectId,active-drag-system,61637469-7665-42d6-9472-61672d737973,rev?*%
%TF.SameCoordinates,Original*%
%TF.FileFunction,Legend,Top*%
%TF.FilePolarity,Positive*%
%FSLAX46Y46*%
G04 Gerber Fmt 4.6, Leading zero omitted, Abs format (unit mm)*
G04 Created by KiCad (PCBNEW 8.0.7) date 2025-01-08 02:27:13*
%MOMM*%
%LPD*%
G01*
G04 APERTURE LIST*
%ADD10C,0.150000*%
%ADD11C,0.127000*%
%ADD12C,0.120000*%
%ADD13C,0.152400*%
%ADD14C,0.100000*%
%ADD15C,0.000000*%
%ADD16C,0.250000*%
%ADD17C,0.200000*%
%ADD18C,0.508000*%
%ADD19C,0.400000*%
G04 APERTURE END LIST*
D10*
X156566666Y-147154819D02*
X156566666Y-147869104D01*
X156566666Y-147869104D02*
X156519047Y-148011961D01*
X156519047Y-148011961D02*
X156423809Y-148107200D01*
X156423809Y-148107200D02*
X156280952Y-148154819D01*
X156280952Y-148154819D02*
X156185714Y-148154819D01*
X156947619Y-147154819D02*
X157614285Y-147154819D01*
X157614285Y-147154819D02*
X157185714Y-148154819D01*
X136238095Y-87804819D02*
X136238095Y-88614342D01*
X136238095Y-88614342D02*
X136285714Y-88709580D01*
X136285714Y-88709580D02*
X136333333Y-88757200D01*
X136333333Y-88757200D02*
X136428571Y-88804819D01*
X136428571Y-88804819D02*
X136619047Y-88804819D01*
X136619047Y-88804819D02*
X136714285Y-88757200D01*
X136714285Y-88757200D02*
X136761904Y-88709580D01*
X136761904Y-88709580D02*
X136809523Y-88614342D01*
X136809523Y-88614342D02*
X136809523Y-87804819D01*
X137714285Y-87804819D02*
X137523809Y-87804819D01*
X137523809Y-87804819D02*
X137428571Y-87852438D01*
X137428571Y-87852438D02*
X137380952Y-87900057D01*
X137380952Y-87900057D02*
X137285714Y-88042914D01*
X137285714Y-88042914D02*
X137238095Y-88233390D01*
X137238095Y-88233390D02*
X137238095Y-88614342D01*
X137238095Y-88614342D02*
X137285714Y-88709580D01*
X137285714Y-88709580D02*
X137333333Y-88757200D01*
X137333333Y-88757200D02*
X137428571Y-88804819D01*
X137428571Y-88804819D02*
X137619047Y-88804819D01*
X137619047Y-88804819D02*
X137714285Y-88757200D01*
X137714285Y-88757200D02*
X137761904Y-88709580D01*
X137761904Y-88709580D02*
X137809523Y-88614342D01*
X137809523Y-88614342D02*
X137809523Y-88376247D01*
X137809523Y-88376247D02*
X137761904Y-88281009D01*
X137761904Y-88281009D02*
X137714285Y-88233390D01*
X137714285Y-88233390D02*
X137619047Y-88185771D01*
X137619047Y-88185771D02*
X137428571Y-88185771D01*
X137428571Y-88185771D02*
X137333333Y-88233390D01*
X137333333Y-88233390D02*
X137285714Y-88281009D01*
X137285714Y-88281009D02*
X137238095Y-88376247D01*
X132738095Y-73754819D02*
X132738095Y-74564342D01*
X132738095Y-74564342D02*
X132785714Y-74659580D01*
X132785714Y-74659580D02*
X132833333Y-74707200D01*
X132833333Y-74707200D02*
X132928571Y-74754819D01*
X132928571Y-74754819D02*
X133119047Y-74754819D01*
X133119047Y-74754819D02*
X133214285Y-74707200D01*
X133214285Y-74707200D02*
X133261904Y-74659580D01*
X133261904Y-74659580D02*
X133309523Y-74564342D01*
X133309523Y-74564342D02*
X133309523Y-73754819D01*
X133738095Y-73850057D02*
X133785714Y-73802438D01*
X133785714Y-73802438D02*
X133880952Y-73754819D01*
X133880952Y-73754819D02*
X134119047Y-73754819D01*
X134119047Y-73754819D02*
X134214285Y-73802438D01*
X134214285Y-73802438D02*
X134261904Y-73850057D01*
X134261904Y-73850057D02*
X134309523Y-73945295D01*
X134309523Y-73945295D02*
X134309523Y-74040533D01*
X134309523Y-74040533D02*
X134261904Y-74183390D01*
X134261904Y-74183390D02*
X133690476Y-74754819D01*
X133690476Y-74754819D02*
X134309523Y-74754819D01*
X148833333Y-115159580D02*
X148785714Y-115207200D01*
X148785714Y-115207200D02*
X148642857Y-115254819D01*
X148642857Y-115254819D02*
X148547619Y-115254819D01*
X148547619Y-115254819D02*
X148404762Y-115207200D01*
X148404762Y-115207200D02*
X148309524Y-115111961D01*
X148309524Y-115111961D02*
X148261905Y-115016723D01*
X148261905Y-115016723D02*
X148214286Y-114826247D01*
X148214286Y-114826247D02*
X148214286Y-114683390D01*
X148214286Y-114683390D02*
X148261905Y-114492914D01*
X148261905Y-114492914D02*
X148309524Y-114397676D01*
X148309524Y-114397676D02*
X148404762Y-114302438D01*
X148404762Y-114302438D02*
X148547619Y-114254819D01*
X148547619Y-114254819D02*
X148642857Y-114254819D01*
X148642857Y-114254819D02*
X148785714Y-114302438D01*
X148785714Y-114302438D02*
X148833333Y-114350057D01*
X149833333Y-115254819D02*
X149500000Y-114778628D01*
X149261905Y-115254819D02*
X149261905Y-114254819D01*
X149261905Y-114254819D02*
X149642857Y-114254819D01*
X149642857Y-114254819D02*
X149738095Y-114302438D01*
X149738095Y-114302438D02*
X149785714Y-114350057D01*
X149785714Y-114350057D02*
X149833333Y-114445295D01*
X149833333Y-114445295D02*
X149833333Y-114588152D01*
X149833333Y-114588152D02*
X149785714Y-114683390D01*
X149785714Y-114683390D02*
X149738095Y-114731009D01*
X149738095Y-114731009D02*
X149642857Y-114778628D01*
X149642857Y-114778628D02*
X149261905Y-114778628D01*
X150214286Y-114350057D02*
X150261905Y-114302438D01*
X150261905Y-114302438D02*
X150357143Y-114254819D01*
X150357143Y-114254819D02*
X150595238Y-114254819D01*
X150595238Y-114254819D02*
X150690476Y-114302438D01*
X150690476Y-114302438D02*
X150738095Y-114350057D01*
X150738095Y-114350057D02*
X150785714Y-114445295D01*
X150785714Y-114445295D02*
X150785714Y-114540533D01*
X150785714Y-114540533D02*
X150738095Y-114683390D01*
X150738095Y-114683390D02*
X150166667Y-115254819D01*
X150166667Y-115254819D02*
X150785714Y-115254819D01*
X162088095Y-91504819D02*
X162088095Y-92314342D01*
X162088095Y-92314342D02*
X162135714Y-92409580D01*
X162135714Y-92409580D02*
X162183333Y-92457200D01*
X162183333Y-92457200D02*
X162278571Y-92504819D01*
X162278571Y-92504819D02*
X162469047Y-92504819D01*
X162469047Y-92504819D02*
X162564285Y-92457200D01*
X162564285Y-92457200D02*
X162611904Y-92409580D01*
X162611904Y-92409580D02*
X162659523Y-92314342D01*
X162659523Y-92314342D02*
X162659523Y-91504819D01*
X163040476Y-91504819D02*
X163707142Y-91504819D01*
X163707142Y-91504819D02*
X163278571Y-92504819D01*
X162100000Y-97554819D02*
X162100000Y-97792914D01*
X161861905Y-97697676D02*
X162100000Y-97792914D01*
X162100000Y-97792914D02*
X162338095Y-97697676D01*
X161957143Y-97983390D02*
X162100000Y-97792914D01*
X162100000Y-97792914D02*
X162242857Y-97983390D01*
X153588095Y-127554819D02*
X154159523Y-127554819D01*
X153873809Y-128554819D02*
X153873809Y-127554819D01*
X154492857Y-128554819D02*
X154492857Y-127554819D01*
X154492857Y-127554819D02*
X154873809Y-127554819D01*
X154873809Y-127554819D02*
X154969047Y-127602438D01*
X154969047Y-127602438D02*
X155016666Y-127650057D01*
X155016666Y-127650057D02*
X155064285Y-127745295D01*
X155064285Y-127745295D02*
X155064285Y-127888152D01*
X155064285Y-127888152D02*
X155016666Y-127983390D01*
X155016666Y-127983390D02*
X154969047Y-128031009D01*
X154969047Y-128031009D02*
X154873809Y-128078628D01*
X154873809Y-128078628D02*
X154492857Y-128078628D01*
X155397619Y-127554819D02*
X156064285Y-127554819D01*
X156064285Y-127554819D02*
X155635714Y-128554819D01*
X160185895Y-116254819D02*
X160757323Y-116254819D01*
X160471609Y-117254819D02*
X160471609Y-116254819D01*
X161090657Y-117254819D02*
X161090657Y-116254819D01*
X161090657Y-116254819D02*
X161471609Y-116254819D01*
X161471609Y-116254819D02*
X161566847Y-116302438D01*
X161566847Y-116302438D02*
X161614466Y-116350057D01*
X161614466Y-116350057D02*
X161662085Y-116445295D01*
X161662085Y-116445295D02*
X161662085Y-116588152D01*
X161662085Y-116588152D02*
X161614466Y-116683390D01*
X161614466Y-116683390D02*
X161566847Y-116731009D01*
X161566847Y-116731009D02*
X161471609Y-116778628D01*
X161471609Y-116778628D02*
X161090657Y-116778628D01*
X162519228Y-116254819D02*
X162328752Y-116254819D01*
X162328752Y-116254819D02*
X162233514Y-116302438D01*
X162233514Y-116302438D02*
X162185895Y-116350057D01*
X162185895Y-116350057D02*
X162090657Y-116492914D01*
X162090657Y-116492914D02*
X162043038Y-116683390D01*
X162043038Y-116683390D02*
X162043038Y-117064342D01*
X162043038Y-117064342D02*
X162090657Y-117159580D01*
X162090657Y-117159580D02*
X162138276Y-117207200D01*
X162138276Y-117207200D02*
X162233514Y-117254819D01*
X162233514Y-117254819D02*
X162423990Y-117254819D01*
X162423990Y-117254819D02*
X162519228Y-117207200D01*
X162519228Y-117207200D02*
X162566847Y-117159580D01*
X162566847Y-117159580D02*
X162614466Y-117064342D01*
X162614466Y-117064342D02*
X162614466Y-116826247D01*
X162614466Y-116826247D02*
X162566847Y-116731009D01*
X162566847Y-116731009D02*
X162519228Y-116683390D01*
X162519228Y-116683390D02*
X162423990Y-116635771D01*
X162423990Y-116635771D02*
X162233514Y-116635771D01*
X162233514Y-116635771D02*
X162138276Y-116683390D01*
X162138276Y-116683390D02*
X162090657Y-116731009D01*
X162090657Y-116731009D02*
X162043038Y-116826247D01*
X135416666Y-97954819D02*
X135416666Y-98669104D01*
X135416666Y-98669104D02*
X135369047Y-98811961D01*
X135369047Y-98811961D02*
X135273809Y-98907200D01*
X135273809Y-98907200D02*
X135130952Y-98954819D01*
X135130952Y-98954819D02*
X135035714Y-98954819D01*
X136369047Y-97954819D02*
X135892857Y-97954819D01*
X135892857Y-97954819D02*
X135845238Y-98431009D01*
X135845238Y-98431009D02*
X135892857Y-98383390D01*
X135892857Y-98383390D02*
X135988095Y-98335771D01*
X135988095Y-98335771D02*
X136226190Y-98335771D01*
X136226190Y-98335771D02*
X136321428Y-98383390D01*
X136321428Y-98383390D02*
X136369047Y-98431009D01*
X136369047Y-98431009D02*
X136416666Y-98526247D01*
X136416666Y-98526247D02*
X136416666Y-98764342D01*
X136416666Y-98764342D02*
X136369047Y-98859580D01*
X136369047Y-98859580D02*
X136321428Y-98907200D01*
X136321428Y-98907200D02*
X136226190Y-98954819D01*
X136226190Y-98954819D02*
X135988095Y-98954819D01*
X135988095Y-98954819D02*
X135892857Y-98907200D01*
X135892857Y-98907200D02*
X135845238Y-98859580D01*
X134416666Y-135704819D02*
X134416666Y-136419104D01*
X134416666Y-136419104D02*
X134369047Y-136561961D01*
X134369047Y-136561961D02*
X134273809Y-136657200D01*
X134273809Y-136657200D02*
X134130952Y-136704819D01*
X134130952Y-136704819D02*
X134035714Y-136704819D01*
X134845238Y-135800057D02*
X134892857Y-135752438D01*
X134892857Y-135752438D02*
X134988095Y-135704819D01*
X134988095Y-135704819D02*
X135226190Y-135704819D01*
X135226190Y-135704819D02*
X135321428Y-135752438D01*
X135321428Y-135752438D02*
X135369047Y-135800057D01*
X135369047Y-135800057D02*
X135416666Y-135895295D01*
X135416666Y-135895295D02*
X135416666Y-135990533D01*
X135416666Y-135990533D02*
X135369047Y-136133390D01*
X135369047Y-136133390D02*
X134797619Y-136704819D01*
X134797619Y-136704819D02*
X135416666Y-136704819D01*
X151638095Y-132454819D02*
X151638095Y-133264342D01*
X151638095Y-133264342D02*
X151685714Y-133359580D01*
X151685714Y-133359580D02*
X151733333Y-133407200D01*
X151733333Y-133407200D02*
X151828571Y-133454819D01*
X151828571Y-133454819D02*
X152019047Y-133454819D01*
X152019047Y-133454819D02*
X152114285Y-133407200D01*
X152114285Y-133407200D02*
X152161904Y-133359580D01*
X152161904Y-133359580D02*
X152209523Y-133264342D01*
X152209523Y-133264342D02*
X152209523Y-132454819D01*
X152733333Y-133454819D02*
X152923809Y-133454819D01*
X152923809Y-133454819D02*
X153019047Y-133407200D01*
X153019047Y-133407200D02*
X153066666Y-133359580D01*
X153066666Y-133359580D02*
X153161904Y-133216723D01*
X153161904Y-133216723D02*
X153209523Y-133026247D01*
X153209523Y-133026247D02*
X153209523Y-132645295D01*
X153209523Y-132645295D02*
X153161904Y-132550057D01*
X153161904Y-132550057D02*
X153114285Y-132502438D01*
X153114285Y-132502438D02*
X153019047Y-132454819D01*
X153019047Y-132454819D02*
X152828571Y-132454819D01*
X152828571Y-132454819D02*
X152733333Y-132502438D01*
X152733333Y-132502438D02*
X152685714Y-132550057D01*
X152685714Y-132550057D02*
X152638095Y-132645295D01*
X152638095Y-132645295D02*
X152638095Y-132883390D01*
X152638095Y-132883390D02*
X152685714Y-132978628D01*
X152685714Y-132978628D02*
X152733333Y-133026247D01*
X152733333Y-133026247D02*
X152828571Y-133073866D01*
X152828571Y-133073866D02*
X153019047Y-133073866D01*
X153019047Y-133073866D02*
X153114285Y-133026247D01*
X153114285Y-133026247D02*
X153161904Y-132978628D01*
X153161904Y-132978628D02*
X153209523Y-132883390D01*
X135566666Y-104304819D02*
X135566666Y-105019104D01*
X135566666Y-105019104D02*
X135519047Y-105161961D01*
X135519047Y-105161961D02*
X135423809Y-105257200D01*
X135423809Y-105257200D02*
X135280952Y-105304819D01*
X135280952Y-105304819D02*
X135185714Y-105304819D01*
X136471428Y-104304819D02*
X136280952Y-104304819D01*
X136280952Y-104304819D02*
X136185714Y-104352438D01*
X136185714Y-104352438D02*
X136138095Y-104400057D01*
X136138095Y-104400057D02*
X136042857Y-104542914D01*
X136042857Y-104542914D02*
X135995238Y-104733390D01*
X135995238Y-104733390D02*
X135995238Y-105114342D01*
X135995238Y-105114342D02*
X136042857Y-105209580D01*
X136042857Y-105209580D02*
X136090476Y-105257200D01*
X136090476Y-105257200D02*
X136185714Y-105304819D01*
X136185714Y-105304819D02*
X136376190Y-105304819D01*
X136376190Y-105304819D02*
X136471428Y-105257200D01*
X136471428Y-105257200D02*
X136519047Y-105209580D01*
X136519047Y-105209580D02*
X136566666Y-105114342D01*
X136566666Y-105114342D02*
X136566666Y-104876247D01*
X136566666Y-104876247D02*
X136519047Y-104781009D01*
X136519047Y-104781009D02*
X136471428Y-104733390D01*
X136471428Y-104733390D02*
X136376190Y-104685771D01*
X136376190Y-104685771D02*
X136185714Y-104685771D01*
X136185714Y-104685771D02*
X136090476Y-104733390D01*
X136090476Y-104733390D02*
X136042857Y-104781009D01*
X136042857Y-104781009D02*
X135995238Y-104876247D01*
X158035895Y-120454819D02*
X158607323Y-120454819D01*
X158321609Y-121454819D02*
X158321609Y-120454819D01*
X158940657Y-121454819D02*
X158940657Y-120454819D01*
X158940657Y-120454819D02*
X159321609Y-120454819D01*
X159321609Y-120454819D02*
X159416847Y-120502438D01*
X159416847Y-120502438D02*
X159464466Y-120550057D01*
X159464466Y-120550057D02*
X159512085Y-120645295D01*
X159512085Y-120645295D02*
X159512085Y-120788152D01*
X159512085Y-120788152D02*
X159464466Y-120883390D01*
X159464466Y-120883390D02*
X159416847Y-120931009D01*
X159416847Y-120931009D02*
X159321609Y-120978628D01*
X159321609Y-120978628D02*
X158940657Y-120978628D01*
X160369228Y-120788152D02*
X160369228Y-121454819D01*
X160131133Y-120407200D02*
X159893038Y-121121485D01*
X159893038Y-121121485D02*
X160512085Y-121121485D01*
X156935895Y-111004819D02*
X156935895Y-111814342D01*
X156935895Y-111814342D02*
X156983514Y-111909580D01*
X156983514Y-111909580D02*
X157031133Y-111957200D01*
X157031133Y-111957200D02*
X157126371Y-112004819D01*
X157126371Y-112004819D02*
X157316847Y-112004819D01*
X157316847Y-112004819D02*
X157412085Y-111957200D01*
X157412085Y-111957200D02*
X157459704Y-111909580D01*
X157459704Y-111909580D02*
X157507323Y-111814342D01*
X157507323Y-111814342D02*
X157507323Y-111004819D01*
X158412085Y-111338152D02*
X158412085Y-112004819D01*
X158173990Y-110957200D02*
X157935895Y-111671485D01*
X157935895Y-111671485D02*
X158554942Y-111671485D01*
X155061905Y-65854819D02*
X155061905Y-64854819D01*
X155061905Y-64854819D02*
X155300000Y-64854819D01*
X155300000Y-64854819D02*
X155442857Y-64902438D01*
X155442857Y-64902438D02*
X155538095Y-64997676D01*
X155538095Y-64997676D02*
X155585714Y-65092914D01*
X155585714Y-65092914D02*
X155633333Y-65283390D01*
X155633333Y-65283390D02*
X155633333Y-65426247D01*
X155633333Y-65426247D02*
X155585714Y-65616723D01*
X155585714Y-65616723D02*
X155538095Y-65711961D01*
X155538095Y-65711961D02*
X155442857Y-65807200D01*
X155442857Y-65807200D02*
X155300000Y-65854819D01*
X155300000Y-65854819D02*
X155061905Y-65854819D01*
X156585714Y-65854819D02*
X156014286Y-65854819D01*
X156300000Y-65854819D02*
X156300000Y-64854819D01*
X156300000Y-64854819D02*
X156204762Y-64997676D01*
X156204762Y-64997676D02*
X156109524Y-65092914D01*
X156109524Y-65092914D02*
X156014286Y-65140533D01*
D11*
X160990476Y-83763491D02*
X160990476Y-84411110D01*
X160990476Y-84411110D02*
X161028571Y-84487300D01*
X161028571Y-84487300D02*
X161066666Y-84525396D01*
X161066666Y-84525396D02*
X161142857Y-84563491D01*
X161142857Y-84563491D02*
X161295238Y-84563491D01*
X161295238Y-84563491D02*
X161371428Y-84525396D01*
X161371428Y-84525396D02*
X161409523Y-84487300D01*
X161409523Y-84487300D02*
X161447619Y-84411110D01*
X161447619Y-84411110D02*
X161447619Y-83763491D01*
X161942856Y-84106348D02*
X161866666Y-84068253D01*
X161866666Y-84068253D02*
X161828571Y-84030157D01*
X161828571Y-84030157D02*
X161790475Y-83953967D01*
X161790475Y-83953967D02*
X161790475Y-83915872D01*
X161790475Y-83915872D02*
X161828571Y-83839681D01*
X161828571Y-83839681D02*
X161866666Y-83801586D01*
X161866666Y-83801586D02*
X161942856Y-83763491D01*
X161942856Y-83763491D02*
X162095237Y-83763491D01*
X162095237Y-83763491D02*
X162171428Y-83801586D01*
X162171428Y-83801586D02*
X162209523Y-83839681D01*
X162209523Y-83839681D02*
X162247618Y-83915872D01*
X162247618Y-83915872D02*
X162247618Y-83953967D01*
X162247618Y-83953967D02*
X162209523Y-84030157D01*
X162209523Y-84030157D02*
X162171428Y-84068253D01*
X162171428Y-84068253D02*
X162095237Y-84106348D01*
X162095237Y-84106348D02*
X161942856Y-84106348D01*
X161942856Y-84106348D02*
X161866666Y-84144443D01*
X161866666Y-84144443D02*
X161828571Y-84182538D01*
X161828571Y-84182538D02*
X161790475Y-84258729D01*
X161790475Y-84258729D02*
X161790475Y-84411110D01*
X161790475Y-84411110D02*
X161828571Y-84487300D01*
X161828571Y-84487300D02*
X161866666Y-84525396D01*
X161866666Y-84525396D02*
X161942856Y-84563491D01*
X161942856Y-84563491D02*
X162095237Y-84563491D01*
X162095237Y-84563491D02*
X162171428Y-84525396D01*
X162171428Y-84525396D02*
X162209523Y-84487300D01*
X162209523Y-84487300D02*
X162247618Y-84411110D01*
X162247618Y-84411110D02*
X162247618Y-84258729D01*
X162247618Y-84258729D02*
X162209523Y-84182538D01*
X162209523Y-84182538D02*
X162171428Y-84144443D01*
X162171428Y-84144443D02*
X162095237Y-84106348D01*
D10*
X141340476Y-102204819D02*
X142007142Y-103204819D01*
X142007142Y-102204819D02*
X141340476Y-103204819D01*
X142911904Y-103204819D02*
X142340476Y-103204819D01*
X142626190Y-103204819D02*
X142626190Y-102204819D01*
X142626190Y-102204819D02*
X142530952Y-102347676D01*
X142530952Y-102347676D02*
X142435714Y-102442914D01*
X142435714Y-102442914D02*
X142340476Y-102490533D01*
X135038095Y-121354819D02*
X135038095Y-122164342D01*
X135038095Y-122164342D02*
X135085714Y-122259580D01*
X135085714Y-122259580D02*
X135133333Y-122307200D01*
X135133333Y-122307200D02*
X135228571Y-122354819D01*
X135228571Y-122354819D02*
X135419047Y-122354819D01*
X135419047Y-122354819D02*
X135514285Y-122307200D01*
X135514285Y-122307200D02*
X135561904Y-122259580D01*
X135561904Y-122259580D02*
X135609523Y-122164342D01*
X135609523Y-122164342D02*
X135609523Y-121354819D01*
X135990476Y-121354819D02*
X136609523Y-121354819D01*
X136609523Y-121354819D02*
X136276190Y-121735771D01*
X136276190Y-121735771D02*
X136419047Y-121735771D01*
X136419047Y-121735771D02*
X136514285Y-121783390D01*
X136514285Y-121783390D02*
X136561904Y-121831009D01*
X136561904Y-121831009D02*
X136609523Y-121926247D01*
X136609523Y-121926247D02*
X136609523Y-122164342D01*
X136609523Y-122164342D02*
X136561904Y-122259580D01*
X136561904Y-122259580D02*
X136514285Y-122307200D01*
X136514285Y-122307200D02*
X136419047Y-122354819D01*
X136419047Y-122354819D02*
X136133333Y-122354819D01*
X136133333Y-122354819D02*
X136038095Y-122307200D01*
X136038095Y-122307200D02*
X135990476Y-122259580D01*
X138066667Y-68307200D02*
X138209524Y-68354819D01*
X138209524Y-68354819D02*
X138447619Y-68354819D01*
X138447619Y-68354819D02*
X138542857Y-68307200D01*
X138542857Y-68307200D02*
X138590476Y-68259580D01*
X138590476Y-68259580D02*
X138638095Y-68164342D01*
X138638095Y-68164342D02*
X138638095Y-68069104D01*
X138638095Y-68069104D02*
X138590476Y-67973866D01*
X138590476Y-67973866D02*
X138542857Y-67926247D01*
X138542857Y-67926247D02*
X138447619Y-67878628D01*
X138447619Y-67878628D02*
X138257143Y-67831009D01*
X138257143Y-67831009D02*
X138161905Y-67783390D01*
X138161905Y-67783390D02*
X138114286Y-67735771D01*
X138114286Y-67735771D02*
X138066667Y-67640533D01*
X138066667Y-67640533D02*
X138066667Y-67545295D01*
X138066667Y-67545295D02*
X138114286Y-67450057D01*
X138114286Y-67450057D02*
X138161905Y-67402438D01*
X138161905Y-67402438D02*
X138257143Y-67354819D01*
X138257143Y-67354819D02*
X138495238Y-67354819D01*
X138495238Y-67354819D02*
X138638095Y-67402438D01*
X138971429Y-67354819D02*
X139209524Y-68354819D01*
X139209524Y-68354819D02*
X139400000Y-67640533D01*
X139400000Y-67640533D02*
X139590476Y-68354819D01*
X139590476Y-68354819D02*
X139828572Y-67354819D01*
X140733333Y-68354819D02*
X140161905Y-68354819D01*
X140447619Y-68354819D02*
X140447619Y-67354819D01*
X140447619Y-67354819D02*
X140352381Y-67497676D01*
X140352381Y-67497676D02*
X140257143Y-67592914D01*
X140257143Y-67592914D02*
X140161905Y-67640533D01*
X161666666Y-126954819D02*
X161666666Y-127669104D01*
X161666666Y-127669104D02*
X161619047Y-127811961D01*
X161619047Y-127811961D02*
X161523809Y-127907200D01*
X161523809Y-127907200D02*
X161380952Y-127954819D01*
X161380952Y-127954819D02*
X161285714Y-127954819D01*
X162571428Y-127288152D02*
X162571428Y-127954819D01*
X162333333Y-126907200D02*
X162095238Y-127621485D01*
X162095238Y-127621485D02*
X162714285Y-127621485D01*
X143738095Y-81504819D02*
X143738095Y-82314342D01*
X143738095Y-82314342D02*
X143785714Y-82409580D01*
X143785714Y-82409580D02*
X143833333Y-82457200D01*
X143833333Y-82457200D02*
X143928571Y-82504819D01*
X143928571Y-82504819D02*
X144119047Y-82504819D01*
X144119047Y-82504819D02*
X144214285Y-82457200D01*
X144214285Y-82457200D02*
X144261904Y-82409580D01*
X144261904Y-82409580D02*
X144309523Y-82314342D01*
X144309523Y-82314342D02*
X144309523Y-81504819D01*
X145309523Y-82504819D02*
X144738095Y-82504819D01*
X145023809Y-82504819D02*
X145023809Y-81504819D01*
X145023809Y-81504819D02*
X144928571Y-81647676D01*
X144928571Y-81647676D02*
X144833333Y-81742914D01*
X144833333Y-81742914D02*
X144738095Y-81790533D01*
X145931133Y-123904819D02*
X145454943Y-123904819D01*
X145454943Y-123904819D02*
X145454943Y-122904819D01*
X146788276Y-123904819D02*
X146216848Y-123904819D01*
X146502562Y-123904819D02*
X146502562Y-122904819D01*
X146502562Y-122904819D02*
X146407324Y-123047676D01*
X146407324Y-123047676D02*
X146312086Y-123142914D01*
X146312086Y-123142914D02*
X146216848Y-123190533D01*
X162266666Y-123254819D02*
X162266666Y-123969104D01*
X162266666Y-123969104D02*
X162219047Y-124111961D01*
X162219047Y-124111961D02*
X162123809Y-124207200D01*
X162123809Y-124207200D02*
X161980952Y-124254819D01*
X161980952Y-124254819D02*
X161885714Y-124254819D01*
X163266666Y-124254819D02*
X162695238Y-124254819D01*
X162980952Y-124254819D02*
X162980952Y-123254819D01*
X162980952Y-123254819D02*
X162885714Y-123397676D01*
X162885714Y-123397676D02*
X162790476Y-123492914D01*
X162790476Y-123492914D02*
X162695238Y-123540533D01*
X159266666Y-99134819D02*
X159266666Y-99849104D01*
X159266666Y-99849104D02*
X159219047Y-99991961D01*
X159219047Y-99991961D02*
X159123809Y-100087200D01*
X159123809Y-100087200D02*
X158980952Y-100134819D01*
X158980952Y-100134819D02*
X158885714Y-100134819D01*
X159885714Y-99563390D02*
X159790476Y-99515771D01*
X159790476Y-99515771D02*
X159742857Y-99468152D01*
X159742857Y-99468152D02*
X159695238Y-99372914D01*
X159695238Y-99372914D02*
X159695238Y-99325295D01*
X159695238Y-99325295D02*
X159742857Y-99230057D01*
X159742857Y-99230057D02*
X159790476Y-99182438D01*
X159790476Y-99182438D02*
X159885714Y-99134819D01*
X159885714Y-99134819D02*
X160076190Y-99134819D01*
X160076190Y-99134819D02*
X160171428Y-99182438D01*
X160171428Y-99182438D02*
X160219047Y-99230057D01*
X160219047Y-99230057D02*
X160266666Y-99325295D01*
X160266666Y-99325295D02*
X160266666Y-99372914D01*
X160266666Y-99372914D02*
X160219047Y-99468152D01*
X160219047Y-99468152D02*
X160171428Y-99515771D01*
X160171428Y-99515771D02*
X160076190Y-99563390D01*
X160076190Y-99563390D02*
X159885714Y-99563390D01*
X159885714Y-99563390D02*
X159790476Y-99611009D01*
X159790476Y-99611009D02*
X159742857Y-99658628D01*
X159742857Y-99658628D02*
X159695238Y-99753866D01*
X159695238Y-99753866D02*
X159695238Y-99944342D01*
X159695238Y-99944342D02*
X159742857Y-100039580D01*
X159742857Y-100039580D02*
X159790476Y-100087200D01*
X159790476Y-100087200D02*
X159885714Y-100134819D01*
X159885714Y-100134819D02*
X160076190Y-100134819D01*
X160076190Y-100134819D02*
X160171428Y-100087200D01*
X160171428Y-100087200D02*
X160219047Y-100039580D01*
X160219047Y-100039580D02*
X160266666Y-99944342D01*
X160266666Y-99944342D02*
X160266666Y-99753866D01*
X160266666Y-99753866D02*
X160219047Y-99658628D01*
X160219047Y-99658628D02*
X160171428Y-99611009D01*
X160171428Y-99611009D02*
X160076190Y-99563390D01*
X152988095Y-105256819D02*
X153559523Y-105256819D01*
X153273809Y-106256819D02*
X153273809Y-105256819D01*
X153892857Y-106256819D02*
X153892857Y-105256819D01*
X153892857Y-105256819D02*
X154273809Y-105256819D01*
X154273809Y-105256819D02*
X154369047Y-105304438D01*
X154369047Y-105304438D02*
X154416666Y-105352057D01*
X154416666Y-105352057D02*
X154464285Y-105447295D01*
X154464285Y-105447295D02*
X154464285Y-105590152D01*
X154464285Y-105590152D02*
X154416666Y-105685390D01*
X154416666Y-105685390D02*
X154369047Y-105733009D01*
X154369047Y-105733009D02*
X154273809Y-105780628D01*
X154273809Y-105780628D02*
X153892857Y-105780628D01*
X155369047Y-105256819D02*
X154892857Y-105256819D01*
X154892857Y-105256819D02*
X154845238Y-105733009D01*
X154845238Y-105733009D02*
X154892857Y-105685390D01*
X154892857Y-105685390D02*
X154988095Y-105637771D01*
X154988095Y-105637771D02*
X155226190Y-105637771D01*
X155226190Y-105637771D02*
X155321428Y-105685390D01*
X155321428Y-105685390D02*
X155369047Y-105733009D01*
X155369047Y-105733009D02*
X155416666Y-105828247D01*
X155416666Y-105828247D02*
X155416666Y-106066342D01*
X155416666Y-106066342D02*
X155369047Y-106161580D01*
X155369047Y-106161580D02*
X155321428Y-106209200D01*
X155321428Y-106209200D02*
X155226190Y-106256819D01*
X155226190Y-106256819D02*
X154988095Y-106256819D01*
X154988095Y-106256819D02*
X154892857Y-106209200D01*
X154892857Y-106209200D02*
X154845238Y-106161580D01*
X152966666Y-61654819D02*
X152966666Y-62369104D01*
X152966666Y-62369104D02*
X152919047Y-62511961D01*
X152919047Y-62511961D02*
X152823809Y-62607200D01*
X152823809Y-62607200D02*
X152680952Y-62654819D01*
X152680952Y-62654819D02*
X152585714Y-62654819D01*
X153347619Y-61654819D02*
X153966666Y-61654819D01*
X153966666Y-61654819D02*
X153633333Y-62035771D01*
X153633333Y-62035771D02*
X153776190Y-62035771D01*
X153776190Y-62035771D02*
X153871428Y-62083390D01*
X153871428Y-62083390D02*
X153919047Y-62131009D01*
X153919047Y-62131009D02*
X153966666Y-62226247D01*
X153966666Y-62226247D02*
X153966666Y-62464342D01*
X153966666Y-62464342D02*
X153919047Y-62559580D01*
X153919047Y-62559580D02*
X153871428Y-62607200D01*
X153871428Y-62607200D02*
X153776190Y-62654819D01*
X153776190Y-62654819D02*
X153490476Y-62654819D01*
X153490476Y-62654819D02*
X153395238Y-62607200D01*
X153395238Y-62607200D02*
X153347619Y-62559580D01*
X153924819Y-69966666D02*
X153448628Y-70299999D01*
X153924819Y-70538094D02*
X152924819Y-70538094D01*
X152924819Y-70538094D02*
X152924819Y-70157142D01*
X152924819Y-70157142D02*
X152972438Y-70061904D01*
X152972438Y-70061904D02*
X153020057Y-70014285D01*
X153020057Y-70014285D02*
X153115295Y-69966666D01*
X153115295Y-69966666D02*
X153258152Y-69966666D01*
X153258152Y-69966666D02*
X153353390Y-70014285D01*
X153353390Y-70014285D02*
X153401009Y-70061904D01*
X153401009Y-70061904D02*
X153448628Y-70157142D01*
X153448628Y-70157142D02*
X153448628Y-70538094D01*
X153924819Y-69014285D02*
X153924819Y-69585713D01*
X153924819Y-69299999D02*
X152924819Y-69299999D01*
X152924819Y-69299999D02*
X153067676Y-69395237D01*
X153067676Y-69395237D02*
X153162914Y-69490475D01*
X153162914Y-69490475D02*
X153210533Y-69585713D01*
X155731133Y-120559580D02*
X155683514Y-120607200D01*
X155683514Y-120607200D02*
X155540657Y-120654819D01*
X155540657Y-120654819D02*
X155445419Y-120654819D01*
X155445419Y-120654819D02*
X155302562Y-120607200D01*
X155302562Y-120607200D02*
X155207324Y-120511961D01*
X155207324Y-120511961D02*
X155159705Y-120416723D01*
X155159705Y-120416723D02*
X155112086Y-120226247D01*
X155112086Y-120226247D02*
X155112086Y-120083390D01*
X155112086Y-120083390D02*
X155159705Y-119892914D01*
X155159705Y-119892914D02*
X155207324Y-119797676D01*
X155207324Y-119797676D02*
X155302562Y-119702438D01*
X155302562Y-119702438D02*
X155445419Y-119654819D01*
X155445419Y-119654819D02*
X155540657Y-119654819D01*
X155540657Y-119654819D02*
X155683514Y-119702438D01*
X155683514Y-119702438D02*
X155731133Y-119750057D01*
X156731133Y-120654819D02*
X156397800Y-120178628D01*
X156159705Y-120654819D02*
X156159705Y-119654819D01*
X156159705Y-119654819D02*
X156540657Y-119654819D01*
X156540657Y-119654819D02*
X156635895Y-119702438D01*
X156635895Y-119702438D02*
X156683514Y-119750057D01*
X156683514Y-119750057D02*
X156731133Y-119845295D01*
X156731133Y-119845295D02*
X156731133Y-119988152D01*
X156731133Y-119988152D02*
X156683514Y-120083390D01*
X156683514Y-120083390D02*
X156635895Y-120131009D01*
X156635895Y-120131009D02*
X156540657Y-120178628D01*
X156540657Y-120178628D02*
X156159705Y-120178628D01*
X157683514Y-120654819D02*
X157112086Y-120654819D01*
X157397800Y-120654819D02*
X157397800Y-119654819D01*
X157397800Y-119654819D02*
X157302562Y-119797676D01*
X157302562Y-119797676D02*
X157207324Y-119892914D01*
X157207324Y-119892914D02*
X157112086Y-119940533D01*
X159038095Y-71604819D02*
X159038095Y-72414342D01*
X159038095Y-72414342D02*
X159085714Y-72509580D01*
X159085714Y-72509580D02*
X159133333Y-72557200D01*
X159133333Y-72557200D02*
X159228571Y-72604819D01*
X159228571Y-72604819D02*
X159419047Y-72604819D01*
X159419047Y-72604819D02*
X159514285Y-72557200D01*
X159514285Y-72557200D02*
X159561904Y-72509580D01*
X159561904Y-72509580D02*
X159609523Y-72414342D01*
X159609523Y-72414342D02*
X159609523Y-71604819D01*
X160561904Y-71604819D02*
X160085714Y-71604819D01*
X160085714Y-71604819D02*
X160038095Y-72081009D01*
X160038095Y-72081009D02*
X160085714Y-72033390D01*
X160085714Y-72033390D02*
X160180952Y-71985771D01*
X160180952Y-71985771D02*
X160419047Y-71985771D01*
X160419047Y-71985771D02*
X160514285Y-72033390D01*
X160514285Y-72033390D02*
X160561904Y-72081009D01*
X160561904Y-72081009D02*
X160609523Y-72176247D01*
X160609523Y-72176247D02*
X160609523Y-72414342D01*
X160609523Y-72414342D02*
X160561904Y-72509580D01*
X160561904Y-72509580D02*
X160514285Y-72557200D01*
X160514285Y-72557200D02*
X160419047Y-72604819D01*
X160419047Y-72604819D02*
X160180952Y-72604819D01*
X160180952Y-72604819D02*
X160085714Y-72557200D01*
X160085714Y-72557200D02*
X160038095Y-72509580D01*
X160838599Y-77545180D02*
X160838599Y-77307085D01*
X161076694Y-77402323D02*
X160838599Y-77307085D01*
X160838599Y-77307085D02*
X160600504Y-77402323D01*
X160981456Y-77116609D02*
X160838599Y-77307085D01*
X160838599Y-77307085D02*
X160695742Y-77116609D01*
D12*
%TO.C,C29*%
X161065000Y-75911252D02*
X161065000Y-75388748D01*
X162535000Y-75911252D02*
X162535000Y-75388748D01*
D13*
%TO.C,U6*%
X133720400Y-81417100D02*
X133720400Y-81883148D01*
X133720400Y-86716852D02*
X133720400Y-87182900D01*
X133720400Y-87182900D02*
X137479600Y-87182900D01*
X137479600Y-81417100D02*
X133720400Y-81417100D01*
X137479600Y-81883148D02*
X137479600Y-81417100D01*
X137479600Y-87182900D02*
X137479600Y-86716852D01*
X133303500Y-82425000D02*
G75*
G02*
X133151100Y-82425000I-76200J0D01*
G01*
X133151100Y-82425000D02*
G75*
G02*
X133303500Y-82425000I76200J0D01*
G01*
D12*
%TO.C,C32*%
X162540000Y-96190580D02*
X162540000Y-95909420D01*
X163560000Y-96190580D02*
X163560000Y-95909420D01*
%TO.C,R8*%
X145977500Y-94487742D02*
X145977500Y-94962258D01*
X147022500Y-94487742D02*
X147022500Y-94962258D01*
D13*
%TO.C,U2*%
X136406000Y-74106000D02*
X136406000Y-74407656D01*
X136406000Y-79392344D02*
X136406000Y-79694000D01*
X136406000Y-79694000D02*
X141994000Y-79694000D01*
X141994000Y-74106000D02*
X136406000Y-74106000D01*
X141994000Y-74407656D02*
X141994000Y-74106000D01*
X141994000Y-79694000D02*
X141994000Y-79392344D01*
%TO.C,CR2*%
X147729100Y-113326800D02*
X147729100Y-113514760D01*
X147729100Y-116085240D02*
X147729100Y-116273200D01*
X147729100Y-116273200D02*
X151970900Y-116273200D01*
D14*
X151100000Y-116050000D02*
X151100000Y-113550000D01*
D13*
X151970900Y-113326800D02*
X147729100Y-113326800D01*
X151970900Y-113514760D02*
X151970900Y-113326800D01*
X151970900Y-116273200D02*
X151970900Y-116085240D01*
%TO.C,U7*%
X158323000Y-97558502D02*
X161577000Y-97558502D01*
X161577000Y-92304502D02*
X158323000Y-92304502D01*
D15*
G36*
X157918599Y-94722003D02*
G01*
X157664599Y-94722003D01*
X157664599Y-94341003D01*
X157918599Y-94341003D01*
X157918599Y-94722003D01*
G37*
D12*
%TO.C,C13*%
X144665000Y-72961252D02*
X144665000Y-72438748D01*
X146135000Y-72961252D02*
X146135000Y-72438748D01*
%TO.C,R12*%
X140027037Y-112565126D02*
X140481165Y-112565126D01*
X140027037Y-114035126D02*
X140481165Y-114035126D01*
%TO.C,C19*%
X137444101Y-117859546D02*
X137444101Y-118140706D01*
X138464101Y-117859546D02*
X138464101Y-118140706D01*
%TO.C,R9*%
X134777500Y-72162742D02*
X134777500Y-72637258D01*
X135822500Y-72162742D02*
X135822500Y-72637258D01*
%TO.C,TP7*%
X151800000Y-127300000D02*
X153200000Y-127300000D01*
X151800000Y-128700000D02*
X151800000Y-127300000D01*
X153200000Y-127300000D02*
X153200000Y-128700000D01*
X153200000Y-128700000D02*
X151800000Y-128700000D01*
%TO.C,R11*%
X141416843Y-122577626D02*
X141891359Y-122577626D01*
X141416843Y-123622626D02*
X141891359Y-123622626D01*
%TO.C,C31*%
X162184420Y-82290000D02*
X162465580Y-82290000D01*
X162184420Y-83310000D02*
X162465580Y-83310000D01*
%TO.C,TP6*%
X158497800Y-116250000D02*
X159897800Y-116250000D01*
X158497800Y-117650000D02*
X158497800Y-116250000D01*
X159897800Y-116250000D02*
X159897800Y-117650000D01*
X159897800Y-117650000D02*
X158497800Y-117650000D01*
%TO.C,C38*%
X141590000Y-138890580D02*
X141590000Y-138609420D01*
X142610000Y-138890580D02*
X142610000Y-138609420D01*
%TO.C,R20*%
X143477500Y-135487258D02*
X143477500Y-135012742D01*
X144522500Y-135487258D02*
X144522500Y-135012742D01*
%TO.C,R18*%
X146114564Y-128415000D02*
X145660436Y-128415000D01*
X146114564Y-129885000D02*
X145660436Y-129885000D01*
%TO.C,C22*%
X151440887Y-123188748D02*
X151440887Y-123711252D01*
X152910887Y-123188748D02*
X152910887Y-123711252D01*
%TO.C,C20*%
X149240887Y-120061252D02*
X149240887Y-119538748D01*
X150710887Y-120061252D02*
X150710887Y-119538748D01*
%TO.C,J5*%
X132270000Y-98445000D02*
X133600000Y-98445000D01*
X132270000Y-99775000D02*
X132270000Y-98445000D01*
X132270000Y-101045000D02*
X132270000Y-103645000D01*
X132270000Y-101045000D02*
X134930000Y-101045000D01*
X132270000Y-103645000D02*
X134930000Y-103645000D01*
X134930000Y-101045000D02*
X134930000Y-103645000D01*
%TO.C,R6*%
X160212258Y-87777500D02*
X159737742Y-87777500D01*
X160212258Y-88822500D02*
X159737742Y-88822500D01*
%TO.C,R3*%
X147377500Y-74862742D02*
X147377500Y-75337258D01*
X148422500Y-74862742D02*
X148422500Y-75337258D01*
%TO.C,C10*%
X143690580Y-97790000D02*
X143409420Y-97790000D01*
X143690580Y-98810000D02*
X143409420Y-98810000D01*
%TO.C,C16*%
X142344101Y-118159546D02*
X142344101Y-118440706D01*
X143364101Y-118159546D02*
X143364101Y-118440706D01*
D10*
%TO.C,U9*%
X145450000Y-133449999D02*
X145749999Y-133449999D01*
X145450000Y-133749999D02*
X145450000Y-133449999D01*
X145450000Y-140550001D02*
X145450000Y-140250001D01*
X145450000Y-140550001D02*
X145749999Y-140550001D01*
X150250001Y-133449999D02*
X150550000Y-133449999D01*
X150250001Y-140550001D02*
X150550000Y-140550001D01*
X150550000Y-133749999D02*
X150550000Y-133449999D01*
X150550000Y-140550001D02*
X150550000Y-140250001D01*
D16*
X144850001Y-134250000D02*
G75*
G02*
X144599999Y-134250000I-125001J0D01*
G01*
X144599999Y-134250000D02*
G75*
G02*
X144850001Y-134250000I125001J0D01*
G01*
D12*
%TO.C,R13*%
X143081165Y-114765126D02*
X142627037Y-114765126D01*
X143081165Y-116235126D02*
X142627037Y-116235126D01*
%TO.C,C30*%
X154915000Y-74938748D02*
X154915000Y-75461252D01*
X156385000Y-74938748D02*
X156385000Y-75461252D01*
%TO.C,J6*%
X132270000Y-107255000D02*
X132270000Y-104655000D01*
X134930000Y-104655000D02*
X132270000Y-104655000D01*
X134930000Y-107255000D02*
X132270000Y-107255000D01*
X134930000Y-107255000D02*
X134930000Y-104655000D01*
X134930000Y-108525000D02*
X134930000Y-109855000D01*
X134930000Y-109855000D02*
X133600000Y-109855000D01*
%TO.C,C33*%
X158859420Y-82290000D02*
X159140580Y-82290000D01*
X158859420Y-83310000D02*
X159140580Y-83310000D01*
%TO.C,R21*%
X154137258Y-138527500D02*
X153662742Y-138527500D01*
X154137258Y-139572500D02*
X153662742Y-139572500D01*
%TO.C,C26*%
X155314400Y-114061252D02*
X155314400Y-113538748D01*
X156784400Y-114061252D02*
X156784400Y-113538748D01*
%TO.C,R19*%
X142962742Y-132327500D02*
X143437258Y-132327500D01*
X142962742Y-133372500D02*
X143437258Y-133372500D01*
%TO.C,C5*%
X155465000Y-80261252D02*
X155465000Y-79738748D01*
X156935000Y-80261252D02*
X156935000Y-79738748D01*
%TO.C,C9*%
X154359420Y-87490000D02*
X154640580Y-87490000D01*
X154359420Y-88510000D02*
X154640580Y-88510000D01*
%TO.C,TP4*%
X158547800Y-118500000D02*
X159947800Y-118500000D01*
X158547800Y-119900000D02*
X158547800Y-118500000D01*
X159947800Y-118500000D02*
X159947800Y-119900000D01*
X159947800Y-119900000D02*
X158547800Y-119900000D01*
%TO.C,C24*%
X141513521Y-120990126D02*
X141794681Y-120990126D01*
X141513521Y-122010126D02*
X141794681Y-122010126D01*
%TO.C,C8*%
X140565580Y-87590000D02*
X140284420Y-87590000D01*
X140565580Y-88610000D02*
X140284420Y-88610000D01*
D13*
%TO.C,U4*%
X157573600Y-115676400D02*
X160926400Y-115676400D01*
X160926400Y-112323600D02*
X157573600Y-112323600D01*
X161757000Y-114950000D02*
G75*
G02*
X161604600Y-114950000I-76200J0D01*
G01*
X161604600Y-114950000D02*
G75*
G02*
X161757000Y-114950000I76200J0D01*
G01*
D12*
%TO.C,C39*%
X143365000Y-139761252D02*
X143365000Y-139238748D01*
X144835000Y-139761252D02*
X144835000Y-139238748D01*
D14*
%TO.C,D1*%
X155590000Y-66950000D02*
X155830000Y-67100000D01*
X155590000Y-67240000D02*
X155590000Y-66950000D01*
D17*
X155600000Y-66600000D02*
X155800000Y-66600000D01*
X155800000Y-67600000D02*
X155600000Y-67600000D01*
D14*
X155830000Y-67100000D02*
X155590000Y-67240000D01*
D12*
%TO.C,R5*%
X155577500Y-90637258D02*
X155577500Y-90162742D01*
X156622500Y-90637258D02*
X156622500Y-90162742D01*
D11*
%TO.C,U8*%
X157500000Y-84540000D02*
X158010000Y-84540000D01*
X158010000Y-87040000D02*
X157500000Y-87040000D01*
X160500000Y-84540000D02*
X159990000Y-84540000D01*
X160500000Y-87040000D02*
X159990000Y-87040000D01*
D17*
X161100000Y-86590000D02*
G75*
G02*
X160900000Y-86590000I-100000J0D01*
G01*
X160900000Y-86590000D02*
G75*
G02*
X161100000Y-86590000I100000J0D01*
G01*
D12*
%TO.C,C15*%
X149390000Y-94309420D02*
X149390000Y-94590580D01*
X150410000Y-94309420D02*
X150410000Y-94590580D01*
%TO.C,R14*%
X138791359Y-122777626D02*
X138316843Y-122777626D01*
X138791359Y-123822626D02*
X138316843Y-123822626D01*
%TO.C,C3*%
X149165000Y-80211252D02*
X149165000Y-79688748D01*
X150635000Y-80211252D02*
X150635000Y-79688748D01*
%TO.C,C2*%
X145490000Y-79640580D02*
X145490000Y-79359420D01*
X146510000Y-79640580D02*
X146510000Y-79359420D01*
%TO.C,C21*%
X149240887Y-123188748D02*
X149240887Y-123711252D01*
X150710887Y-123188748D02*
X150710887Y-123711252D01*
%TO.C,C41*%
X154261252Y-136515000D02*
X153738748Y-136515000D01*
X154261252Y-137985000D02*
X153738748Y-137985000D01*
%TO.C,C18*%
X133265000Y-117988748D02*
X133265000Y-118511252D01*
X134735000Y-117988748D02*
X134735000Y-118511252D01*
D11*
%TO.C,X1*%
X145070000Y-100250000D02*
X145230000Y-100250000D01*
X145070000Y-102750000D02*
X145230000Y-102750000D01*
D17*
X144150000Y-103650000D02*
G75*
G02*
X143950000Y-103650000I-100000J0D01*
G01*
X143950000Y-103650000D02*
G75*
G02*
X144150000Y-103650000I100000J0D01*
G01*
D12*
%TO.C,C6*%
X141740580Y-83090000D02*
X141459420Y-83090000D01*
X141740580Y-84110000D02*
X141459420Y-84110000D01*
%TO.C,C35*%
X160640580Y-90640000D02*
X160359420Y-90640000D01*
X160640580Y-91660000D02*
X160359420Y-91660000D01*
D13*
%TO.C,U3*%
X141735201Y-119059866D02*
X141735201Y-119559849D01*
D12*
%TO.C,C4*%
X151265000Y-80261252D02*
X151265000Y-79738748D01*
X152735000Y-80261252D02*
X152735000Y-79738748D01*
D13*
%TO.C,SW1*%
X136975900Y-70213341D02*
X136975900Y-70986659D01*
X136975900Y-72428800D02*
X141624100Y-72428800D01*
X141624100Y-68771200D02*
X136975900Y-68771200D01*
X141624100Y-70986659D02*
X141624100Y-70213341D01*
D18*
X135578900Y-69525000D02*
G75*
G02*
X134816900Y-69525000I-381000J0D01*
G01*
X134816900Y-69525000D02*
G75*
G02*
X135578900Y-69525000I381000J0D01*
G01*
D12*
%TO.C,J4*%
X160670000Y-138730000D02*
X160670000Y-128510000D01*
X163330000Y-128510000D02*
X160670000Y-128510000D01*
X163330000Y-138730000D02*
X160670000Y-138730000D01*
X163330000Y-138730000D02*
X163330000Y-128510000D01*
X163330000Y-140000000D02*
X163330000Y-141330000D01*
X163330000Y-141330000D02*
X162000000Y-141330000D01*
%TO.C,U1*%
X143852500Y-84040000D02*
X143852500Y-83630000D01*
X143852500Y-90610000D02*
X143852500Y-89960000D01*
X144502500Y-83390000D02*
X144152500Y-83390000D01*
X144502500Y-90610000D02*
X143852500Y-90610000D01*
X150422500Y-83390000D02*
X151072500Y-83390000D01*
X150422500Y-90610000D02*
X151072500Y-90610000D01*
X151072500Y-83390000D02*
X151072500Y-84040000D01*
X151072500Y-90610000D02*
X151072500Y-89960000D01*
X143852500Y-83390000D02*
X143612500Y-83060000D01*
X144092500Y-83060000D01*
X143852500Y-83390000D01*
G36*
X143852500Y-83390000D02*
G01*
X143612500Y-83060000D01*
X144092500Y-83060000D01*
X143852500Y-83390000D01*
G37*
%TO.C,C23*%
X151440887Y-120011252D02*
X151440887Y-119488748D01*
X152910887Y-120011252D02*
X152910887Y-119488748D01*
D17*
%TO.C,L1*%
X143947800Y-118200000D02*
X148247800Y-118200000D01*
X143947800Y-122500000D02*
X143947800Y-118200000D01*
X148247800Y-118200000D02*
X148247800Y-122500000D01*
X148247800Y-122500000D02*
X143947800Y-122500000D01*
D19*
X148197800Y-117550000D02*
G75*
G02*
X147997800Y-117550000I-100000J0D01*
G01*
X147997800Y-117550000D02*
G75*
G02*
X148197800Y-117550000I100000J0D01*
G01*
D12*
%TO.C,R17*%
X149272936Y-128415000D02*
X149727064Y-128415000D01*
X149272936Y-129885000D02*
X149727064Y-129885000D01*
%TO.C,C1*%
X147090000Y-79640580D02*
X147090000Y-79359420D01*
X148110000Y-79640580D02*
X148110000Y-79359420D01*
%TO.C,C17*%
X135265000Y-117988748D02*
X135265000Y-118511252D01*
X136735000Y-117988748D02*
X136735000Y-118511252D01*
%TO.C,J1*%
X161170000Y-117830000D02*
X162500000Y-117830000D01*
X161170000Y-119160000D02*
X161170000Y-117830000D01*
X161170000Y-120430000D02*
X161170000Y-123030000D01*
X161170000Y-120430000D02*
X163830000Y-120430000D01*
X161170000Y-123030000D02*
X163830000Y-123030000D01*
X163830000Y-120430000D02*
X163830000Y-123030000D01*
%TO.C,J8*%
X160670000Y-103810000D02*
X160670000Y-98670000D01*
X163330000Y-98670000D02*
X160670000Y-98670000D01*
X163330000Y-103810000D02*
X160670000Y-103810000D01*
X163330000Y-103810000D02*
X163330000Y-98670000D01*
X163330000Y-105080000D02*
X163330000Y-106410000D01*
X163330000Y-106410000D02*
X162000000Y-106410000D01*
%TO.C,C37*%
X137865000Y-139261252D02*
X137865000Y-138738748D01*
X139335000Y-139261252D02*
X139335000Y-138738748D01*
%TO.C,TP5*%
X153550000Y-106550000D02*
X154950000Y-106550000D01*
X153550000Y-107950000D02*
X153550000Y-106550000D01*
X154950000Y-106550000D02*
X154950000Y-107950000D01*
X154950000Y-107950000D02*
X153550000Y-107950000D01*
%TO.C,R16*%
X153314400Y-115227064D02*
X153314400Y-114772936D01*
X154784400Y-115227064D02*
X154784400Y-114772936D01*
D11*
%TO.C,J3*%
X144650000Y-60650000D02*
X144650000Y-60880000D01*
X152250000Y-60650000D02*
X144650000Y-60650000D01*
X152250000Y-60650000D02*
X152250000Y-60880000D01*
D17*
X149850000Y-66150000D02*
G75*
G02*
X149650000Y-66150000I-100000J0D01*
G01*
X149650000Y-66150000D02*
G75*
G02*
X149850000Y-66150000I100000J0D01*
G01*
D12*
%TO.C,C28*%
X132290000Y-83859420D02*
X132290000Y-84140580D01*
X133310000Y-83859420D02*
X133310000Y-84140580D01*
%TO.C,R7*%
X153365000Y-79772936D02*
X153365000Y-80227064D01*
X154835000Y-79772936D02*
X154835000Y-80227064D01*
%TO.C,C34*%
X158938748Y-79865000D02*
X159461252Y-79865000D01*
X158938748Y-81335000D02*
X159461252Y-81335000D01*
%TO.C,C11*%
X147159420Y-98290000D02*
X147440580Y-98290000D01*
X147159420Y-99310000D02*
X147440580Y-99310000D01*
%TO.C,R2*%
X152672936Y-75215000D02*
X153127064Y-75215000D01*
X152672936Y-76685000D02*
X153127064Y-76685000D01*
%TO.C,R1*%
X154377500Y-70054724D02*
X154377500Y-69545276D01*
X155422500Y-70054724D02*
X155422500Y-69545276D01*
%TO.C,R4*%
X148977500Y-74862742D02*
X148977500Y-75337258D01*
X150022500Y-74862742D02*
X150022500Y-75337258D01*
D15*
%TO.C,G\u002A\u002A\u002A*%
G36*
X158100520Y-71430476D02*
G01*
X158105244Y-71443081D01*
X158098214Y-71469486D01*
X158078452Y-71514107D01*
X158055591Y-71560396D01*
X158024031Y-71630626D01*
X158007837Y-71688459D01*
X158003815Y-71737545D01*
X158002273Y-71782045D01*
X157995721Y-71804292D01*
X157981272Y-71811542D01*
X157974228Y-71811881D01*
X157956516Y-71808007D01*
X157947662Y-71791546D01*
X157944776Y-71755243D01*
X157944642Y-71737545D01*
X157939375Y-71681777D01*
X157921491Y-71623015D01*
X157892865Y-71560396D01*
X157863256Y-71499793D01*
X157847086Y-71460611D01*
X157843379Y-71438434D01*
X157851159Y-71428845D01*
X157863439Y-71427256D01*
X157881435Y-71439665D01*
X157905389Y-71472034D01*
X157925694Y-71508619D01*
X157947932Y-71551324D01*
X157965746Y-71580788D01*
X157974228Y-71589982D01*
X157984736Y-71577792D01*
X158003416Y-71546077D01*
X158022762Y-71508619D01*
X158047434Y-71465263D01*
X158070750Y-71435854D01*
X158085017Y-71427256D01*
X158100520Y-71430476D01*
G37*
G36*
X158526141Y-68044566D02*
G01*
X158534696Y-68064622D01*
X158536371Y-68098776D01*
X158537913Y-68136659D01*
X158547633Y-68153494D01*
X158573177Y-68157814D01*
X158589380Y-68157949D01*
X158626013Y-68163505D01*
X158636855Y-68176229D01*
X158622649Y-68190201D01*
X158584151Y-68199505D01*
X158552943Y-68206051D01*
X158538753Y-68223699D01*
X158533514Y-68257535D01*
X158524475Y-68298760D01*
X158508178Y-68318045D01*
X158487872Y-68311616D01*
X158487369Y-68311121D01*
X158480329Y-68290540D01*
X158477207Y-68254623D01*
X158477198Y-68252577D01*
X158473874Y-68218826D01*
X158457885Y-68204245D01*
X158430260Y-68199568D01*
X158391482Y-68190324D01*
X158376758Y-68176439D01*
X158386935Y-68163715D01*
X158422859Y-68157954D01*
X158424189Y-68157949D01*
X158458126Y-68156229D01*
X158473207Y-68145378D01*
X158477077Y-68116864D01*
X158477198Y-68098776D01*
X158479679Y-68060063D01*
X158489708Y-68042954D01*
X158506785Y-68039603D01*
X158526141Y-68044566D01*
G37*
G36*
X160859282Y-70125053D02*
G01*
X160869413Y-70161412D01*
X160870899Y-70174672D01*
X160876228Y-70210551D01*
X160889930Y-70225705D01*
X160921043Y-70228987D01*
X160926373Y-70229004D01*
X160964313Y-70233992D01*
X160977214Y-70249819D01*
X160977257Y-70251193D01*
X160966029Y-70267605D01*
X160930196Y-70273343D01*
X160925480Y-70273383D01*
X160892330Y-70275175D01*
X160877597Y-70286236D01*
X160873820Y-70315096D01*
X160873704Y-70332556D01*
X160867944Y-70376091D01*
X160854541Y-70393757D01*
X160839307Y-70385099D01*
X160828054Y-70349661D01*
X160826519Y-70336255D01*
X160820755Y-70299236D01*
X160805751Y-70281744D01*
X160772488Y-70273721D01*
X160770151Y-70273383D01*
X160730964Y-70263077D01*
X160720274Y-70250034D01*
X160737738Y-70238117D01*
X160773849Y-70231809D01*
X160809322Y-70227080D01*
X160825120Y-70214706D01*
X160829195Y-70185501D01*
X160829324Y-70167705D01*
X160834299Y-70127371D01*
X160845931Y-70113430D01*
X160859282Y-70125053D01*
G37*
G36*
X157686396Y-71510994D02*
G01*
X157692754Y-71543384D01*
X157693156Y-71560396D01*
X157694724Y-71598282D01*
X157704402Y-71615119D01*
X157729655Y-71619436D01*
X157744933Y-71619569D01*
X157783227Y-71624380D01*
X157796616Y-71639737D01*
X157796709Y-71641758D01*
X157785481Y-71658170D01*
X157749648Y-71663908D01*
X157744933Y-71663948D01*
X157711782Y-71665740D01*
X157697050Y-71676800D01*
X157693272Y-71705661D01*
X157693156Y-71723121D01*
X157689492Y-71764266D01*
X157677346Y-71781220D01*
X157670967Y-71782294D01*
X157655429Y-71772372D01*
X157649124Y-71739603D01*
X157648777Y-71724014D01*
X157646996Y-71686325D01*
X157636184Y-71668912D01*
X157608135Y-71662476D01*
X157593302Y-71661143D01*
X157557617Y-71654700D01*
X157538727Y-71644486D01*
X157537827Y-71641758D01*
X157550913Y-71631159D01*
X157583353Y-71623437D01*
X157593302Y-71622374D01*
X157629037Y-71617546D01*
X157644760Y-71604885D01*
X157648677Y-71575094D01*
X157648777Y-71559503D01*
X157652555Y-71518695D01*
X157665031Y-71502136D01*
X157670967Y-71501223D01*
X157686396Y-71510994D01*
G37*
G36*
X161298246Y-70039685D02*
G01*
X161302708Y-70043295D01*
X161295777Y-70058390D01*
X161277553Y-70091847D01*
X161251886Y-70136611D01*
X161250223Y-70139452D01*
X161197738Y-70229004D01*
X161251023Y-70319921D01*
X161279593Y-70372381D01*
X161291898Y-70405802D01*
X161289494Y-70424761D01*
X161287435Y-70427172D01*
X161273949Y-70433248D01*
X161257590Y-70423863D01*
X161235183Y-70395660D01*
X161203554Y-70345284D01*
X161192890Y-70327221D01*
X161159447Y-70270110D01*
X161112605Y-70353110D01*
X161083233Y-70397779D01*
X161055719Y-70427239D01*
X161034138Y-70438511D01*
X161022567Y-70428619D01*
X161021636Y-70419553D01*
X161028874Y-70399244D01*
X161047824Y-70362090D01*
X161073702Y-70317286D01*
X161125768Y-70231577D01*
X161073702Y-70142740D01*
X161043800Y-70090991D01*
X161027934Y-70059591D01*
X161025014Y-70043461D01*
X161033948Y-70037521D01*
X161050922Y-70036691D01*
X161079969Y-70050865D01*
X161109057Y-70091289D01*
X161109523Y-70092166D01*
X161136773Y-70142418D01*
X161155328Y-70167669D01*
X161170451Y-70169006D01*
X161187406Y-70147513D01*
X161207089Y-70112294D01*
X161239079Y-70062752D01*
X161266696Y-70038677D01*
X161275473Y-70036691D01*
X161298246Y-70039685D01*
G37*
G36*
X158860553Y-67959034D02*
G01*
X158894054Y-67962523D01*
X158910785Y-67970369D01*
X158917146Y-67984238D01*
X158917730Y-67987827D01*
X158911646Y-68012086D01*
X158891809Y-68054506D01*
X158861342Y-68108946D01*
X158832669Y-68155092D01*
X158796836Y-68210959D01*
X158767875Y-68257170D01*
X158749056Y-68288436D01*
X158743477Y-68299326D01*
X158756974Y-68302665D01*
X158792287Y-68305026D01*
X158839633Y-68305882D01*
X158893568Y-68307363D01*
X158923546Y-68312657D01*
X158935085Y-68323036D01*
X158935789Y-68328072D01*
X158930421Y-68339165D01*
X158910879Y-68345955D01*
X158872010Y-68349351D01*
X158810046Y-68350262D01*
X158748946Y-68349730D01*
X158711629Y-68347208D01*
X158692298Y-68341307D01*
X158685156Y-68330640D01*
X158684304Y-68320144D01*
X158691967Y-68295896D01*
X158712722Y-68253451D01*
X158743220Y-68199209D01*
X158773063Y-68150553D01*
X158808620Y-68094012D01*
X158837391Y-68046990D01*
X158856152Y-68014843D01*
X158861823Y-68003151D01*
X158848370Y-67998995D01*
X158813365Y-67996124D01*
X158771830Y-67995224D01*
X158719334Y-67993349D01*
X158692665Y-67987202D01*
X158688002Y-67976732D01*
X158705540Y-67965702D01*
X158749970Y-67959646D01*
X158803882Y-67958241D01*
X158860553Y-67959034D01*
G37*
G36*
X158795161Y-68533033D02*
G01*
X158807759Y-68569012D01*
X158826179Y-68624418D01*
X158849024Y-68694815D01*
X158874896Y-68775765D01*
X158902396Y-68862830D01*
X158930127Y-68951574D01*
X158956690Y-69037558D01*
X158980686Y-69116345D01*
X159000718Y-69183498D01*
X159015388Y-69234579D01*
X159019865Y-69251132D01*
X159022027Y-69269399D01*
X159011713Y-69278653D01*
X158982377Y-69281908D01*
X158952308Y-69282236D01*
X158876616Y-69282236D01*
X158876616Y-69703843D01*
X158876616Y-70125451D01*
X159364087Y-70125451D01*
X159851558Y-70125451D01*
X159855962Y-70038516D01*
X159860367Y-69951581D01*
X160226081Y-70078876D01*
X160323294Y-70113170D01*
X160409984Y-70144632D01*
X160482624Y-70171909D01*
X160537685Y-70193648D01*
X160571641Y-70208498D01*
X160581119Y-70215009D01*
X160564407Y-70221268D01*
X160523223Y-70234091D01*
X160461649Y-70252285D01*
X160383764Y-70274657D01*
X160293649Y-70300014D01*
X160230198Y-70317601D01*
X160133783Y-70344227D01*
X160046416Y-70368468D01*
X159972294Y-70389149D01*
X159915617Y-70405096D01*
X159880585Y-70415136D01*
X159871462Y-70417918D01*
X159859273Y-70412043D01*
X159853618Y-70381328D01*
X159852970Y-70356329D01*
X159852970Y-70288177D01*
X159344414Y-70288177D01*
X159199936Y-70288432D01*
X159082703Y-70289253D01*
X158990376Y-70290722D01*
X158920620Y-70292921D01*
X158871095Y-70295935D01*
X158839465Y-70299844D01*
X158823391Y-70304731D01*
X158821024Y-70306668D01*
X158808444Y-70325230D01*
X158783534Y-70364222D01*
X158749343Y-70418797D01*
X158708917Y-70484109D01*
X158685882Y-70521620D01*
X158565575Y-70718081D01*
X158631829Y-70758312D01*
X158668428Y-70782495D01*
X158691050Y-70801259D01*
X158694891Y-70807915D01*
X158682990Y-70818947D01*
X158651438Y-70845171D01*
X158603959Y-70883639D01*
X158544277Y-70931402D01*
X158476115Y-70985514D01*
X158403196Y-71043025D01*
X158329243Y-71100989D01*
X158257980Y-71156456D01*
X158193130Y-71206480D01*
X158149020Y-71240106D01*
X158094517Y-71281354D01*
X158152996Y-71062138D01*
X158177559Y-70969541D01*
X158203292Y-70871648D01*
X158227417Y-70779090D01*
X158247151Y-70702494D01*
X158250115Y-70690859D01*
X158288755Y-70538794D01*
X158323804Y-70561418D01*
X158361780Y-70586725D01*
X158389650Y-70603781D01*
X158411343Y-70610148D01*
X158430786Y-70603385D01*
X158451907Y-70581053D01*
X158478632Y-70540713D01*
X158514890Y-70479927D01*
X158549705Y-70421124D01*
X158591746Y-70352381D01*
X158629228Y-70294317D01*
X158659373Y-70250985D01*
X158679400Y-70226439D01*
X158685847Y-70222561D01*
X158692910Y-70219112D01*
X158690522Y-70209078D01*
X158691711Y-70184834D01*
X158698088Y-70177851D01*
X158703336Y-70160302D01*
X158707516Y-70114599D01*
X158710638Y-70040429D01*
X158712714Y-69937478D01*
X158713755Y-69805432D01*
X158713890Y-69725898D01*
X158713890Y-69283712D01*
X158634140Y-69279276D01*
X158554390Y-69274839D01*
X158668989Y-68900979D01*
X158699780Y-68801036D01*
X158727910Y-68710704D01*
X158752179Y-68633754D01*
X158771390Y-68573953D01*
X158784345Y-68535070D01*
X158789785Y-68520921D01*
X158795161Y-68533033D01*
G37*
D12*
%TO.C,C40*%
X146240580Y-130340000D02*
X145959420Y-130340000D01*
X146240580Y-131360000D02*
X145959420Y-131360000D01*
D13*
%TO.C,CR1*%
X154924600Y-117679100D02*
X154924600Y-121920900D01*
X154924600Y-121920900D02*
X155112560Y-121920900D01*
X155112560Y-117679100D02*
X154924600Y-117679100D01*
D14*
X157647800Y-118550000D02*
X155147800Y-118550000D01*
D13*
X157683040Y-121920900D02*
X157871000Y-121920900D01*
X157871000Y-117679100D02*
X157683040Y-117679100D01*
X157871000Y-121920900D02*
X157871000Y-117679100D01*
D12*
%TO.C,C14*%
X147640000Y-94559420D02*
X147640000Y-94840580D01*
X148660000Y-94559420D02*
X148660000Y-94840580D01*
%TO.C,C25*%
X143592849Y-112565126D02*
X144115353Y-112565126D01*
X143592849Y-114035126D02*
X144115353Y-114035126D01*
%TO.C,R15*%
X137631601Y-121237384D02*
X137631601Y-120762868D01*
X138676601Y-121237384D02*
X138676601Y-120762868D01*
D13*
%TO.C,U5*%
X156820400Y-72945401D02*
X156820400Y-76704601D01*
X156820400Y-76704601D02*
X160579600Y-76704601D01*
X160579600Y-72945401D02*
X156820400Y-72945401D01*
X160579600Y-76704601D02*
X160579600Y-72945401D01*
D15*
G36*
X156942401Y-74765502D02*
G01*
X156688401Y-74765502D01*
X156688401Y-74384501D01*
X156942401Y-74384501D01*
X156942401Y-74765502D01*
G37*
D12*
%TO.C,C27*%
X162009052Y-110265000D02*
X161486548Y-110265000D01*
X162009052Y-111735000D02*
X161486548Y-111735000D01*
%TO.C,C12*%
X142690000Y-72765580D02*
X142690000Y-72484420D01*
X143710000Y-72765580D02*
X143710000Y-72484420D01*
%TO.C,C7*%
X154059420Y-83090000D02*
X154340580Y-83090000D01*
X154059420Y-84110000D02*
X154340580Y-84110000D01*
%TO.C,C42*%
X141365000Y-135188748D02*
X141365000Y-135711252D01*
X142835000Y-135188748D02*
X142835000Y-135711252D01*
%TO.C,C36*%
X139990000Y-138890580D02*
X139990000Y-138609420D01*
X141010000Y-138890580D02*
X141010000Y-138609420D01*
%TO.C,R10*%
X138439537Y-114765126D02*
X138893665Y-114765126D01*
X138439537Y-116235126D02*
X138893665Y-116235126D01*
%TD*%
M02*
