%TF.GenerationSoftware,KiCad,Pcbnew,8.0.7*%
%TF.CreationDate,2025-01-08T02:27:13-05:00*%
%TF.ProjectId,active-drag-system,61637469-7665-42d6-9472-61672d737973,rev?*%
%TF.SameCoordinates,Original*%
%TF.FileFunction,Copper,L4,Bot*%
%TF.FilePolarity,Positive*%
%FSLAX46Y46*%
G04 Gerber Fmt 4.6, Leading zero omitted, Abs format (unit mm)*
G04 Created by KiCad (PCBNEW 8.0.7) date 2025-01-08 02:27:13*
%MOMM*%
%LPD*%
G01*
G04 APERTURE LIST*
G04 Aperture macros list*
%AMRoundRect*
0 Rectangle with rounded corners*
0 $1 Rounding radius*
0 $2 $3 $4 $5 $6 $7 $8 $9 X,Y pos of 4 corners*
0 Add a 4 corners polygon primitive as box body*
4,1,4,$2,$3,$4,$5,$6,$7,$8,$9,$2,$3,0*
0 Add four circle primitives for the rounded corners*
1,1,$1+$1,$2,$3*
1,1,$1+$1,$4,$5*
1,1,$1+$1,$6,$7*
1,1,$1+$1,$8,$9*
0 Add four rect primitives between the rounded corners*
20,1,$1+$1,$2,$3,$4,$5,0*
20,1,$1+$1,$4,$5,$6,$7,0*
20,1,$1+$1,$6,$7,$8,$9,0*
20,1,$1+$1,$8,$9,$2,$3,0*%
G04 Aperture macros list end*
%TA.AperFunction,ComponentPad*%
%ADD10RoundRect,0.250002X-1.699998X-1.699998X1.699998X-1.699998X1.699998X1.699998X-1.699998X1.699998X0*%
%TD*%
%TA.AperFunction,ComponentPad*%
%ADD11C,3.900000*%
%TD*%
%TA.AperFunction,ComponentPad*%
%ADD12R,1.700000X1.700000*%
%TD*%
%TA.AperFunction,ComponentPad*%
%ADD13O,1.700000X1.700000*%
%TD*%
%TA.AperFunction,ComponentPad*%
%ADD14RoundRect,0.250002X-1.699998X1.699998X-1.699998X-1.699998X1.699998X-1.699998X1.699998X1.699998X0*%
%TD*%
%TA.AperFunction,HeatsinkPad*%
%ADD15C,0.457200*%
%TD*%
%TA.AperFunction,HeatsinkPad*%
%ADD16R,3.200000X3.200000*%
%TD*%
%TA.AperFunction,ComponentPad*%
%ADD17O,0.900000X1.800000*%
%TD*%
%TA.AperFunction,SMDPad,CuDef*%
%ADD18R,1.000000X1.000000*%
%TD*%
%TA.AperFunction,ComponentPad*%
%ADD19R,2.000000X2.000000*%
%TD*%
%TA.AperFunction,ComponentPad*%
%ADD20C,2.000000*%
%TD*%
%TA.AperFunction,ViaPad*%
%ADD21C,0.457200*%
%TD*%
%TA.AperFunction,Conductor*%
%ADD22C,0.150000*%
%TD*%
%TA.AperFunction,Conductor*%
%ADD23C,0.127000*%
%TD*%
%TA.AperFunction,Conductor*%
%ADD24C,0.400000*%
%TD*%
%TA.AperFunction,Conductor*%
%ADD25C,0.200000*%
%TD*%
G04 APERTURE END LIST*
D10*
%TO.P,J7,1,Pin_1*%
%TO.N,/Motor Driver/PHASE_A*%
X142500000Y-147500000D03*
D11*
%TO.P,J7,2,Pin_2*%
%TO.N,/Motor Driver/PHASE_B*%
X148000000Y-147500000D03*
%TO.P,J7,3,Pin_3*%
%TO.N,/Motor Driver/PHASE_C*%
X153500000Y-147500000D03*
%TD*%
D12*
%TO.P,J5,1,Pin_1*%
%TO.N,/MCU_RP2040/UART0_TX*%
X133600000Y-99775000D03*
D13*
%TO.P,J5,2,Pin_2*%
%TO.N,/MCU_RP2040/UART0_RX*%
X133600000Y-102315000D03*
%TD*%
D14*
%TO.P,J2,1,Pin_1*%
%TO.N,/VBAT*%
X134750000Y-132350000D03*
D11*
%TO.P,J2,2,Pin_2*%
%TO.N,GND*%
X134750000Y-140150000D03*
%TD*%
D15*
%TO.P,U9,41,ThermalPad*%
%TO.N,GND*%
X146750000Y-135750000D03*
X146750000Y-137000000D03*
X146750000Y-138500000D03*
X147250000Y-134500000D03*
X147250000Y-139500000D03*
X148000000Y-135750000D03*
X148000000Y-137000000D03*
X148000000Y-138500000D03*
X148750000Y-134500000D03*
X148750000Y-139500000D03*
X149250000Y-135750000D03*
X149250000Y-137000000D03*
X149250000Y-138500000D03*
%TD*%
D12*
%TO.P,J6,1,Pin_1*%
%TO.N,/MCU_RP2040/I2C1_SCL*%
X133600000Y-108525000D03*
D13*
%TO.P,J6,2,Pin_2*%
%TO.N,/MCU_RP2040/I2C1_SDA*%
X133600000Y-105985000D03*
%TD*%
D12*
%TO.P,J4,1,Pin_1*%
%TO.N,/+3V3*%
X162000000Y-140000000D03*
D13*
%TO.P,J4,2,Pin_2*%
%TO.N,GND*%
X162000000Y-137460000D03*
%TO.P,J4,3,Pin_3*%
%TO.N,/Motor Driver/HALL_SENSE_A*%
X162000000Y-134920000D03*
%TO.P,J4,4,Pin_4*%
%TO.N,/Motor Driver/HALL_SENSE_B*%
X162000000Y-132380000D03*
%TO.P,J4,5,Pin_5*%
%TO.N,/Motor Driver/HALL_SENSE_C*%
X162000000Y-129840000D03*
%TD*%
D15*
%TO.P,U1,57,GND*%
%TO.N,GND*%
X146212500Y-85750000D03*
X146212500Y-87000000D03*
X146212500Y-88250000D03*
X147462500Y-85750000D03*
X147462500Y-87000000D03*
D16*
X147462500Y-87000000D03*
D15*
X147462500Y-88250000D03*
X148712500Y-85750000D03*
X148712500Y-87000000D03*
X148712500Y-88250000D03*
%TD*%
D12*
%TO.P,J1,1,Pin_1*%
%TO.N,/+5V*%
X162500000Y-119160000D03*
D13*
%TO.P,J1,2,Pin_2*%
%TO.N,GND*%
X162500000Y-121700000D03*
%TD*%
D12*
%TO.P,J8,1,Pin_1*%
%TO.N,/MCU_RP2040/SWCLK*%
X162000000Y-105080000D03*
D13*
%TO.P,J8,2,Pin_2*%
%TO.N,GND*%
X162000000Y-102540000D03*
%TO.P,J8,3,Pin_3*%
%TO.N,/MCU_RP2040/SWDIO*%
X162000000Y-100000000D03*
%TD*%
D17*
%TO.P,J3,S5,SHIELD__4*%
%TO.N,GND*%
X151750000Y-62100000D03*
%TO.P,J3,S6,SHIELD__5*%
X145150000Y-62100000D03*
%TD*%
D18*
%TO.P,TP3,1,1*%
%TO.N,/MCU_RP2040/I2C0_SDA*%
X153550000Y-95650000D03*
%TD*%
%TO.P,TP2,1,1*%
%TO.N,/MCU_RP2040/I2C0_SCL*%
X160050000Y-93650000D03*
%TD*%
%TO.P,TP1,1,1*%
%TO.N,+1V1*%
X147350000Y-83550000D03*
%TD*%
%TO.P,TP8,1,1*%
%TO.N,/MCU_RP2040/MOTOR_PWM*%
X144700000Y-135000000D03*
%TD*%
D19*
%TO.P,BZ1,1,+*%
%TO.N,/MCU_RP2040/BUZZ_OUT*%
X133450000Y-88700000D03*
D20*
%TO.P,BZ1,2,-*%
%TO.N,GND*%
X133450000Y-96300000D03*
%TD*%
D21*
%TO.N,GND*%
X161750000Y-77750000D03*
X156250000Y-107250000D03*
X146000000Y-77300000D03*
X140800000Y-136350000D03*
X146462500Y-89562500D03*
X159750000Y-133750000D03*
X160200000Y-79000000D03*
X156100000Y-137550000D03*
X137000000Y-120500000D03*
X137200000Y-78800000D03*
X154975000Y-82625000D03*
X159247800Y-111800000D03*
X163050000Y-94150000D03*
X135750000Y-87550000D03*
X138750000Y-85650000D03*
X153150000Y-64550000D03*
X155700000Y-77150000D03*
X136350000Y-102550000D03*
X148997800Y-117600000D03*
X152169586Y-117549874D03*
X138600000Y-88100000D03*
X140300000Y-103050000D03*
X140300000Y-98050000D03*
X159500000Y-107000000D03*
X143850000Y-64550000D03*
X140500000Y-137000000D03*
X143650000Y-91100000D03*
X151250000Y-95300000D03*
X157250000Y-95050000D03*
X144600000Y-127950000D03*
X155250000Y-71950000D03*
X152000000Y-77600000D03*
X150800000Y-103050000D03*
X151750000Y-134500000D03*
X152000000Y-135750000D03*
X160797800Y-109500000D03*
X161400000Y-86300000D03*
X150800000Y-98050000D03*
X149969586Y-117649874D03*
X153519460Y-118800000D03*
X138600000Y-136800000D03*
X135450000Y-99400000D03*
X158450000Y-91200000D03*
X149900000Y-77600000D03*
X156200000Y-77800000D03*
X159450000Y-77800000D03*
X149949688Y-125543699D03*
X157425001Y-72575001D03*
X136700000Y-107250000D03*
X156500000Y-68250000D03*
X154597800Y-112850000D03*
X134000000Y-120250000D03*
X138850000Y-81900000D03*
X163100000Y-81600000D03*
X157550000Y-93300000D03*
X153719460Y-124400000D03*
X156600000Y-88300000D03*
X143600000Y-70100000D03*
X159647800Y-110950000D03*
X140700000Y-82600000D03*
X142850000Y-94400000D03*
X144353651Y-130996349D03*
X145000000Y-114500000D03*
X144847800Y-111900000D03*
X152143387Y-125650000D03*
X136000000Y-120250000D03*
X159500000Y-131000000D03*
X147600000Y-77400000D03*
X140804164Y-115450000D03*
X152050000Y-90650000D03*
X152713094Y-86613094D03*
X132850000Y-86200000D03*
X144500000Y-91850000D03*
X162550000Y-93700000D03*
%TO.N,/MCU_RP2040/BUZZ_OUT*%
X139350000Y-83900000D03*
%TO.N,+1V1*%
X147262500Y-81937500D03*
X148187500Y-92200000D03*
X148200000Y-84949998D03*
X147900000Y-89200000D03*
%TO.N,/Motor Driver/PHASE_A*%
X146000000Y-142700000D03*
X140700000Y-144800000D03*
X143400000Y-142700000D03*
X140700000Y-143600000D03*
X142600000Y-144800000D03*
X141600000Y-142700000D03*
X142600000Y-143600000D03*
X144200000Y-144800000D03*
X146000000Y-141500000D03*
X144800000Y-142700000D03*
X144200000Y-143600000D03*
%TO.N,/Motor Driver/PHASE_B*%
X147500000Y-141500000D03*
X148500000Y-144500000D03*
X147500000Y-143500000D03*
X148500000Y-141500000D03*
X150000000Y-145250000D03*
X147500000Y-142500000D03*
X148500000Y-142500000D03*
X146000000Y-145250000D03*
X148500000Y-143500000D03*
X147500000Y-144500000D03*
%TO.N,/Motor Driver/PHASE_C*%
X150000000Y-141300000D03*
X151800000Y-144800000D03*
X150000000Y-142700000D03*
X153300000Y-143600000D03*
X154900000Y-143600000D03*
X151800000Y-143600000D03*
X154000000Y-142700000D03*
X154900000Y-144800000D03*
X151200000Y-142700000D03*
X153300000Y-144800000D03*
X152600000Y-142700000D03*
%TO.N,/MCU_RP2040/I2C0_SCL*%
X159950000Y-95531502D03*
X160400000Y-76200000D03*
X138050000Y-82400000D03*
X154200000Y-89700000D03*
%TO.N,/MCU_RP2040/I2C0_SDA*%
X138000000Y-83600000D03*
X157450000Y-96900000D03*
X152323231Y-89576769D03*
X159850000Y-76950000D03*
%TO.N,Net-(U3-PG)*%
X139547800Y-120900000D03*
X145047800Y-115500000D03*
%TO.N,/MCU_RP2040/nFAULT*%
X142700000Y-89400000D03*
X151600000Y-139250001D03*
%TO.N,/MCU_RP2040/FGOUT*%
X138200000Y-86500000D03*
X145200000Y-132850000D03*
%TO.N,/MCU_RP2040/LED_OUT*%
X154350000Y-71950000D03*
X152300000Y-86200000D03*
%TO.N,/MCU_RP2040/MOTOR_PWM*%
X146400000Y-132450000D03*
X139000000Y-87000000D03*
%TO.N,/MCU_RP2040/DRVOFF*%
X152300000Y-139850000D03*
X143100000Y-90000000D03*
%TO.N,/MG*%
X161200000Y-85600000D03*
X152300000Y-87800000D03*
%TO.N,/MCU_RP2040/BRAKE*%
X147200000Y-132150000D03*
X139000000Y-89100000D03*
%TO.N,/MCU_RP2040/nSLEEP*%
X141996349Y-89296349D03*
X151200000Y-138350000D03*
%TO.N,/MCU_RP2040/SPI0_RX*%
X143000000Y-86300000D03*
X150800000Y-132350000D03*
%TO.N,/MCU_RP2040/SPI0_TX*%
X141600000Y-85700000D03*
X149700000Y-132050000D03*
%TO.N,/MCU_RP2040/SPI0_CSn0*%
X139800000Y-84900000D03*
X148200000Y-132150000D03*
%TO.N,/MCU_RP2040/SPI0_SCK*%
X141000000Y-85400000D03*
X148800000Y-131550000D03*
%TO.N,/+3V3*%
X159000000Y-139500000D03*
X152150000Y-85300000D03*
X156150000Y-92300000D03*
X156250000Y-139500000D03*
X162697800Y-108300000D03*
X162000000Y-142500000D03*
X159000000Y-142500000D03*
X154750000Y-140500000D03*
X162197800Y-114800000D03*
X162847800Y-114200000D03*
%TO.N,/VBUS*%
X150650000Y-66150000D03*
X147997800Y-112450000D03*
X147297800Y-112450000D03*
X151400000Y-66150000D03*
%TO.N,/MAG*%
X158304481Y-77145519D03*
X150550000Y-91550000D03*
%TD*%
D22*
%TO.N,GND*%
X155250000Y-71950000D02*
X155000000Y-72200000D01*
X155000000Y-72200000D02*
X155000000Y-84300000D01*
X138750000Y-85250000D02*
X140700000Y-83300000D01*
X152713094Y-86586906D02*
X152713094Y-86613094D01*
X155000000Y-84300000D02*
X152713094Y-86586906D01*
X138750000Y-85650000D02*
X138750000Y-85250000D01*
X140700000Y-83300000D02*
X140700000Y-82600000D01*
%TO.N,/MCU_RP2040/BUZZ_OUT*%
X138650000Y-84600000D02*
X137800000Y-84600000D01*
X139350000Y-83900000D02*
X138650000Y-84600000D01*
X137800000Y-84600000D02*
X133800000Y-88600000D01*
D23*
X133800000Y-88600000D02*
X133800000Y-88700000D01*
D24*
%TO.N,+1V1*%
X147262500Y-84012498D02*
X148200000Y-84949998D01*
X147900000Y-89200000D02*
X147900000Y-91912500D01*
X147262500Y-83300000D02*
X147262500Y-84012498D01*
X147900000Y-91912500D02*
X148187500Y-92200000D01*
X147262500Y-81937500D02*
X147262500Y-83300000D01*
D22*
%TO.N,/MCU_RP2040/I2C0_SCL*%
X162500000Y-86550000D02*
X162500000Y-81950000D01*
X154200000Y-89700000D02*
X153550000Y-89700000D01*
X160050000Y-89000000D02*
X162500000Y-86550000D01*
X154650000Y-90150000D02*
X154650000Y-92100000D01*
X158568498Y-94150000D02*
X159950000Y-95531502D01*
X158568498Y-94150000D02*
X159068498Y-93650000D01*
X153550000Y-89700000D02*
X151550000Y-87700000D01*
X151550000Y-87700000D02*
X151550000Y-82900000D01*
X160050000Y-93650000D02*
X160050000Y-89000000D01*
X154650000Y-92100000D02*
X156700000Y-94150000D01*
X157750000Y-76100000D02*
X158500000Y-75350000D01*
X159068498Y-93650000D02*
X160050000Y-93650000D01*
X151550000Y-82900000D02*
X148800000Y-80150000D01*
X157750000Y-77200000D02*
X157750000Y-76100000D01*
X158500000Y-75350000D02*
X159550000Y-75350000D01*
X156700000Y-94150000D02*
X158568498Y-94150000D01*
X154200000Y-89700000D02*
X154650000Y-90150000D01*
X162500000Y-81950000D02*
X157750000Y-77200000D01*
X148800000Y-80150000D02*
X139750000Y-80150000D01*
X139750000Y-80150000D02*
X138100000Y-81800000D01*
X138100000Y-81800000D02*
X138100000Y-82350000D01*
X159550000Y-75350000D02*
X160400000Y-76200000D01*
%TO.N,/MCU_RP2040/I2C0_SDA*%
X154625000Y-94725000D02*
X153700000Y-95650000D01*
X163800000Y-80900000D02*
X159850000Y-76950000D01*
X138150000Y-83600000D02*
X138000000Y-83600000D01*
X157450000Y-96900000D02*
X156800000Y-96900000D01*
X152800000Y-90053538D02*
X152323231Y-89576769D01*
X149850000Y-83400000D02*
X147700000Y-81250000D01*
X159850000Y-96900000D02*
X161700000Y-95050000D01*
X156800000Y-96900000D02*
X154625000Y-94725000D01*
X152800000Y-92900000D02*
X152800000Y-90053538D01*
X152323231Y-89576769D02*
X151676769Y-89576769D01*
X149850000Y-87750000D02*
X149850000Y-83400000D01*
X163800000Y-90150000D02*
X163800000Y-80900000D01*
X161700000Y-92250000D02*
X163800000Y-90150000D01*
X154625000Y-94725000D02*
X152800000Y-92900000D01*
X161700000Y-95050000D02*
X161700000Y-92250000D01*
X153700000Y-95650000D02*
X153550000Y-95650000D01*
X157450000Y-96900000D02*
X159850000Y-96900000D01*
X140500000Y-81250000D02*
X138150000Y-83600000D01*
X151676769Y-89576769D02*
X149850000Y-87750000D01*
X147700000Y-81250000D02*
X140500000Y-81250000D01*
D25*
%TO.N,Net-(U3-PG)*%
X139647800Y-120900000D02*
X145047800Y-115500000D01*
X139547800Y-120900000D02*
X139647800Y-120900000D01*
D22*
%TO.N,/MCU_RP2040/nFAULT*%
X142669400Y-89430600D02*
X142669400Y-92178361D01*
X146800000Y-96308961D02*
X146800000Y-101200000D01*
X142669400Y-92178361D02*
X146800000Y-96308961D01*
X146800000Y-101200000D02*
X154167200Y-108567200D01*
X142700000Y-89400000D02*
X142669400Y-89430600D01*
X154167200Y-136682801D02*
X151600000Y-139250001D01*
X154167200Y-108567200D02*
X154167200Y-136682801D01*
%TO.N,/MCU_RP2040/FGOUT*%
X138200000Y-86500000D02*
X136900000Y-87800000D01*
X136900000Y-105150000D02*
X135500000Y-106550000D01*
X145200000Y-132451659D02*
X145200000Y-132850000D01*
X136900000Y-87800000D02*
X136900000Y-105150000D01*
X135500000Y-122751659D02*
X145200000Y-132451659D01*
X135500000Y-106550000D02*
X135500000Y-122751659D01*
%TO.N,/MCU_RP2040/LED_OUT*%
X152308961Y-86200000D02*
X152300000Y-86200000D01*
X153600000Y-72700000D02*
X153600000Y-84908961D01*
X154350000Y-71950000D02*
X153600000Y-72700000D01*
X153600000Y-84908961D02*
X152308961Y-86200000D01*
%TO.N,/MCU_RP2040/MOTOR_PWM*%
X146400000Y-132450000D02*
X145500000Y-131550000D01*
D23*
X146400000Y-132450000D02*
X146400000Y-133200000D01*
X144700000Y-134900000D02*
X144700000Y-135000000D01*
D22*
X137600000Y-122400000D02*
X137600000Y-88100000D01*
X145500000Y-130300000D02*
X137600000Y-122400000D01*
X145500000Y-131550000D02*
X145500000Y-130300000D01*
D23*
X146400000Y-133200000D02*
X144700000Y-134900000D01*
X139000000Y-87000000D02*
X138700000Y-87000000D01*
D22*
X137600000Y-88100000D02*
X138700000Y-87000000D01*
%TO.N,/MCU_RP2040/DRVOFF*%
X143100000Y-90000000D02*
X143900000Y-90000000D01*
X143900000Y-90000000D02*
X155750000Y-101850000D01*
X155750000Y-101850000D02*
X155750000Y-136400000D01*
X155750000Y-136400000D02*
X152300000Y-139850000D01*
%TO.N,/MG*%
X158300000Y-85600000D02*
X161200000Y-85600000D01*
X156100000Y-87800000D02*
X158300000Y-85600000D01*
X152300000Y-87800000D02*
X156100000Y-87800000D01*
%TO.N,/MCU_RP2040/BRAKE*%
X146250000Y-131200000D02*
X147200000Y-132150000D01*
D23*
X139000000Y-89100000D02*
X138900000Y-89100000D01*
D22*
X138500000Y-104100000D02*
X146250000Y-111850000D01*
X138500000Y-89500000D02*
X138500000Y-104100000D01*
X146250000Y-111850000D02*
X146250000Y-131200000D01*
X138900000Y-89100000D02*
X138500000Y-89500000D01*
%TO.N,/MCU_RP2040/nSLEEP*%
X142200000Y-89500000D02*
X142200000Y-100100000D01*
X142200000Y-100100000D02*
X153000000Y-110900000D01*
X153000000Y-136550000D02*
X151200000Y-138350000D01*
X153000000Y-110900000D02*
X153000000Y-136550000D01*
X141996349Y-89296349D02*
X142200000Y-89500000D01*
%TO.N,/MCU_RP2040/SPI0_RX*%
X141450000Y-102250000D02*
X151000000Y-111800000D01*
X141450000Y-87850000D02*
X141450000Y-102250000D01*
X151000000Y-132150000D02*
X150800000Y-132350000D01*
X151000000Y-111800000D02*
X151000000Y-132150000D01*
X143000000Y-86300000D02*
X141450000Y-87850000D01*
%TO.N,/MCU_RP2040/SPI0_TX*%
X149500000Y-111500000D02*
X149500000Y-131850000D01*
X140800000Y-86500000D02*
X140800000Y-102800000D01*
X140800000Y-102800000D02*
X149500000Y-111500000D01*
X141600000Y-85700000D02*
X140800000Y-86500000D01*
X149500000Y-131850000D02*
X149700000Y-132050000D01*
%TO.N,/MCU_RP2040/SPI0_CSn0*%
X139800000Y-84900000D02*
X139800000Y-89500000D01*
X147750000Y-131700000D02*
X148200000Y-132150000D01*
X146800000Y-111500000D02*
X146800000Y-124550000D01*
X139200000Y-103900000D02*
X146800000Y-111500000D01*
X139200000Y-90100000D02*
X139200000Y-103900000D01*
X139800000Y-89500000D02*
X139200000Y-90100000D01*
X146800000Y-124550000D02*
X147750000Y-125500000D01*
X147750000Y-125500000D02*
X147750000Y-131700000D01*
%TO.N,/MCU_RP2040/SPI0_SCK*%
X140250000Y-86150000D02*
X140250000Y-96850000D01*
X140250000Y-96850000D02*
X139700000Y-97400000D01*
X139700000Y-103058961D02*
X148500000Y-111858961D01*
X141000000Y-85400000D02*
X140250000Y-86150000D01*
X148500000Y-131250000D02*
X148800000Y-131550000D01*
X139700000Y-97400000D02*
X139700000Y-103058961D01*
X148500000Y-111858961D02*
X148500000Y-131250000D01*
%TO.N,/+3V3*%
X150650000Y-72350000D02*
X150700000Y-72300000D01*
X152000000Y-86550000D02*
X151869400Y-86419400D01*
X152350000Y-91350000D02*
X152480600Y-91219400D01*
X151869400Y-86419400D02*
X151869400Y-85580600D01*
X152480600Y-91219400D02*
X152480600Y-90330600D01*
X152480600Y-90330600D02*
X152450000Y-90300000D01*
X151869400Y-85580600D02*
X152100000Y-85350000D01*
%TD*%
%TA.AperFunction,Conductor*%
%TO.N,/+3V3*%
G36*
X163977826Y-60922174D02*
G01*
X163999500Y-60974500D01*
X163999500Y-80601943D01*
X163977826Y-80654269D01*
X163925500Y-80675943D01*
X163873174Y-80654269D01*
X160968905Y-77750000D01*
X161366174Y-77750000D01*
X161384960Y-77868609D01*
X161384961Y-77868614D01*
X161439476Y-77975605D01*
X161524394Y-78060523D01*
X161631385Y-78115038D01*
X161631388Y-78115038D01*
X161631391Y-78115040D01*
X161750000Y-78133826D01*
X161868609Y-78115040D01*
X161868612Y-78115038D01*
X161868614Y-78115038D01*
X161975605Y-78060523D01*
X161975604Y-78060523D01*
X161975607Y-78060522D01*
X162060522Y-77975607D01*
X162065907Y-77965038D01*
X162115038Y-77868614D01*
X162115038Y-77868612D01*
X162115040Y-77868609D01*
X162133826Y-77750000D01*
X162115040Y-77631391D01*
X162115038Y-77631388D01*
X162115038Y-77631385D01*
X162060523Y-77524394D01*
X161975605Y-77439476D01*
X161868614Y-77384961D01*
X161868609Y-77384960D01*
X161750000Y-77366174D01*
X161631390Y-77384960D01*
X161631385Y-77384961D01*
X161524394Y-77439476D01*
X161439476Y-77524394D01*
X161384961Y-77631385D01*
X161384960Y-77631390D01*
X161366174Y-77750000D01*
X160968905Y-77750000D01*
X160251610Y-77032705D01*
X160229936Y-76980379D01*
X160230845Y-76968815D01*
X160233826Y-76950000D01*
X160215040Y-76831391D01*
X160215038Y-76831388D01*
X160215038Y-76831385D01*
X160160523Y-76724394D01*
X160075605Y-76639476D01*
X159968614Y-76584961D01*
X159968609Y-76584960D01*
X159850000Y-76566174D01*
X159731390Y-76584960D01*
X159731385Y-76584961D01*
X159624394Y-76639476D01*
X159539476Y-76724394D01*
X159484961Y-76831385D01*
X159484960Y-76831390D01*
X159466174Y-76950000D01*
X159484960Y-77068609D01*
X159484961Y-77068614D01*
X159539476Y-77175605D01*
X159624394Y-77260523D01*
X159731385Y-77315038D01*
X159731388Y-77315038D01*
X159731391Y-77315040D01*
X159850000Y-77333826D01*
X159868803Y-77330847D01*
X159923873Y-77344067D01*
X159932705Y-77351610D01*
X163552826Y-80971731D01*
X163574500Y-81024057D01*
X163574500Y-81387985D01*
X163552826Y-81440311D01*
X163500500Y-81461985D01*
X163448174Y-81440311D01*
X163434566Y-81421580D01*
X163410523Y-81374395D01*
X163410523Y-81374394D01*
X163325605Y-81289476D01*
X163218614Y-81234961D01*
X163218609Y-81234960D01*
X163100000Y-81216174D01*
X162981390Y-81234960D01*
X162981385Y-81234961D01*
X162874394Y-81289476D01*
X162789476Y-81374394D01*
X162734961Y-81481385D01*
X162734960Y-81481390D01*
X162716174Y-81600000D01*
X162716174Y-81600001D01*
X162727079Y-81668857D01*
X162713857Y-81723929D01*
X162665565Y-81753521D01*
X162610493Y-81740299D01*
X162601664Y-81732758D01*
X160334543Y-79465638D01*
X160312869Y-79413312D01*
X160334543Y-79360986D01*
X160353272Y-79347378D01*
X160425607Y-79310522D01*
X160510522Y-79225607D01*
X160512355Y-79222008D01*
X160565038Y-79118614D01*
X160565038Y-79118612D01*
X160565040Y-79118609D01*
X160583826Y-79000000D01*
X160565040Y-78881391D01*
X160565038Y-78881388D01*
X160565038Y-78881385D01*
X160510523Y-78774394D01*
X160425605Y-78689476D01*
X160318614Y-78634961D01*
X160318609Y-78634960D01*
X160200000Y-78616174D01*
X160081390Y-78634960D01*
X160081385Y-78634961D01*
X159974394Y-78689476D01*
X159889478Y-78774392D01*
X159852623Y-78846726D01*
X159809556Y-78883509D01*
X159753093Y-78879066D01*
X159734362Y-78865457D01*
X158668906Y-77800000D01*
X159066174Y-77800000D01*
X159084960Y-77918609D01*
X159084961Y-77918614D01*
X159139476Y-78025605D01*
X159224394Y-78110523D01*
X159331385Y-78165038D01*
X159331388Y-78165038D01*
X159331391Y-78165040D01*
X159450000Y-78183826D01*
X159568609Y-78165040D01*
X159568612Y-78165038D01*
X159568614Y-78165038D01*
X159675605Y-78110523D01*
X159675604Y-78110523D01*
X159675607Y-78110522D01*
X159760522Y-78025607D01*
X159762355Y-78022008D01*
X159815038Y-77918614D01*
X159815038Y-77918612D01*
X159815040Y-77918609D01*
X159833826Y-77800000D01*
X159815040Y-77681391D01*
X159815038Y-77681388D01*
X159815038Y-77681385D01*
X159760523Y-77574394D01*
X159675605Y-77489476D01*
X159568614Y-77434961D01*
X159568609Y-77434960D01*
X159450000Y-77416174D01*
X159331390Y-77434960D01*
X159331385Y-77434961D01*
X159224394Y-77489476D01*
X159139476Y-77574394D01*
X159084961Y-77681385D01*
X159084960Y-77681390D01*
X159066174Y-77800000D01*
X158668906Y-77800000D01*
X158466210Y-77597304D01*
X158444536Y-77544978D01*
X158466210Y-77492652D01*
X158484937Y-77479046D01*
X158530088Y-77456041D01*
X158615003Y-77371126D01*
X158646307Y-77309688D01*
X158669519Y-77264133D01*
X158669519Y-77264131D01*
X158669521Y-77264128D01*
X158688307Y-77145519D01*
X158669521Y-77026910D01*
X158669519Y-77026907D01*
X158669519Y-77026904D01*
X158615004Y-76919913D01*
X158530086Y-76834995D01*
X158423095Y-76780480D01*
X158423090Y-76780479D01*
X158304481Y-76761693D01*
X158185871Y-76780478D01*
X158083095Y-76832846D01*
X158026633Y-76837289D01*
X157983565Y-76800506D01*
X157975500Y-76766911D01*
X157975500Y-76224057D01*
X157997174Y-76171731D01*
X158571731Y-75597174D01*
X158624057Y-75575500D01*
X159425943Y-75575500D01*
X159478269Y-75597174D01*
X159998389Y-76117294D01*
X160020063Y-76169620D01*
X160019152Y-76181195D01*
X160016174Y-76199999D01*
X160034960Y-76318609D01*
X160034961Y-76318614D01*
X160089476Y-76425605D01*
X160174394Y-76510523D01*
X160281385Y-76565038D01*
X160281388Y-76565038D01*
X160281391Y-76565040D01*
X160400000Y-76583826D01*
X160518609Y-76565040D01*
X160518612Y-76565038D01*
X160518614Y-76565038D01*
X160625605Y-76510523D01*
X160625604Y-76510523D01*
X160625607Y-76510522D01*
X160710522Y-76425607D01*
X160712355Y-76422008D01*
X160765038Y-76318614D01*
X160765038Y-76318612D01*
X160765040Y-76318609D01*
X160783826Y-76200000D01*
X160765040Y-76081391D01*
X160765038Y-76081388D01*
X160765038Y-76081385D01*
X160710523Y-75974394D01*
X160625605Y-75889476D01*
X160518614Y-75834961D01*
X160518609Y-75834960D01*
X160400000Y-75816174D01*
X160381195Y-75819152D01*
X160326123Y-75805929D01*
X160317294Y-75798389D01*
X159751578Y-75232673D01*
X159751578Y-75232672D01*
X159677738Y-75158832D01*
X159677737Y-75158831D01*
X159677736Y-75158830D01*
X159677732Y-75158828D01*
X159653458Y-75148773D01*
X159653458Y-75148772D01*
X159594855Y-75124499D01*
X159505145Y-75124499D01*
X159496533Y-75124499D01*
X159496525Y-75124500D01*
X158455145Y-75124500D01*
X158372266Y-75158828D01*
X158372263Y-75158831D01*
X157558830Y-75972263D01*
X157548774Y-75996536D01*
X157548775Y-75996537D01*
X157524499Y-76055146D01*
X157524499Y-76153466D01*
X157524500Y-76153475D01*
X157524500Y-77149173D01*
X157524499Y-77149187D01*
X157524499Y-77244856D01*
X157548773Y-77303458D01*
X157558829Y-77327734D01*
X157558832Y-77327738D01*
X157632671Y-77401577D01*
X157632673Y-77401578D01*
X162252826Y-82021731D01*
X162274500Y-82074057D01*
X162274500Y-86425942D01*
X162252826Y-86478268D01*
X159858830Y-88872263D01*
X159851700Y-88889478D01*
X159824499Y-88955144D01*
X159824499Y-89053466D01*
X159824500Y-89053475D01*
X159824500Y-92925500D01*
X159802826Y-92977826D01*
X159750500Y-92999500D01*
X159535180Y-92999500D01*
X159513229Y-93003866D01*
X159491277Y-93008233D01*
X159441496Y-93041495D01*
X159441495Y-93041496D01*
X159408233Y-93091277D01*
X159399500Y-93135180D01*
X159399500Y-93350500D01*
X159377826Y-93402826D01*
X159325500Y-93424500D01*
X159121973Y-93424500D01*
X159121965Y-93424499D01*
X159113353Y-93424499D01*
X159023644Y-93424499D01*
X158975092Y-93444608D01*
X158975093Y-93444609D01*
X158940765Y-93458828D01*
X158940763Y-93458829D01*
X158877327Y-93522265D01*
X158496767Y-93902826D01*
X158444441Y-93924500D01*
X156824057Y-93924500D01*
X156771731Y-93902826D01*
X156168905Y-93300000D01*
X157166174Y-93300000D01*
X157184960Y-93418609D01*
X157184961Y-93418614D01*
X157239476Y-93525605D01*
X157324394Y-93610523D01*
X157431385Y-93665038D01*
X157431388Y-93665038D01*
X157431391Y-93665040D01*
X157550000Y-93683826D01*
X157668609Y-93665040D01*
X157668612Y-93665038D01*
X157668614Y-93665038D01*
X157775605Y-93610523D01*
X157775604Y-93610523D01*
X157775607Y-93610522D01*
X157860522Y-93525607D01*
X157886617Y-93474393D01*
X157915038Y-93418614D01*
X157915038Y-93418612D01*
X157915040Y-93418609D01*
X157933826Y-93300000D01*
X157915040Y-93181391D01*
X157915038Y-93181388D01*
X157915038Y-93181385D01*
X157860523Y-93074394D01*
X157775605Y-92989476D01*
X157668614Y-92934961D01*
X157668609Y-92934960D01*
X157550000Y-92916174D01*
X157431390Y-92934960D01*
X157431385Y-92934961D01*
X157324394Y-92989476D01*
X157239476Y-93074394D01*
X157184961Y-93181385D01*
X157184960Y-93181390D01*
X157166174Y-93300000D01*
X156168905Y-93300000D01*
X154897174Y-92028269D01*
X154875500Y-91975943D01*
X154875500Y-91200000D01*
X158066174Y-91200000D01*
X158084960Y-91318609D01*
X158084961Y-91318614D01*
X158139476Y-91425605D01*
X158224394Y-91510523D01*
X158331385Y-91565038D01*
X158331388Y-91565038D01*
X158331391Y-91565040D01*
X158450000Y-91583826D01*
X158568609Y-91565040D01*
X158568612Y-91565038D01*
X158568614Y-91565038D01*
X158675605Y-91510523D01*
X158675604Y-91510523D01*
X158675607Y-91510522D01*
X158760522Y-91425607D01*
X158768208Y-91410522D01*
X158815038Y-91318614D01*
X158815038Y-91318612D01*
X158815040Y-91318609D01*
X158833826Y-91200000D01*
X158815040Y-91081391D01*
X158815038Y-91081388D01*
X158815038Y-91081385D01*
X158760523Y-90974394D01*
X158675605Y-90889476D01*
X158568614Y-90834961D01*
X158568609Y-90834960D01*
X158450000Y-90816174D01*
X158331390Y-90834960D01*
X158331385Y-90834961D01*
X158224394Y-90889476D01*
X158139476Y-90974394D01*
X158084961Y-91081385D01*
X158084960Y-91081390D01*
X158066174Y-91200000D01*
X154875500Y-91200000D01*
X154875500Y-90203475D01*
X154875501Y-90203466D01*
X154875501Y-90105144D01*
X154842293Y-90024976D01*
X154842293Y-90024975D01*
X154841170Y-90022264D01*
X154773521Y-89954615D01*
X154773514Y-89954609D01*
X154601610Y-89782705D01*
X154579936Y-89730379D01*
X154580845Y-89718815D01*
X154583826Y-89700000D01*
X154565040Y-89581391D01*
X154565038Y-89581388D01*
X154565038Y-89581385D01*
X154510523Y-89474394D01*
X154425605Y-89389476D01*
X154318614Y-89334961D01*
X154318609Y-89334960D01*
X154200000Y-89316174D01*
X154081390Y-89334960D01*
X154081385Y-89334961D01*
X153974394Y-89389476D01*
X153911045Y-89452826D01*
X153858719Y-89474500D01*
X153674057Y-89474500D01*
X153621731Y-89452826D01*
X152434543Y-88265638D01*
X152412869Y-88213312D01*
X152434543Y-88160986D01*
X152453272Y-88147378D01*
X152525607Y-88110522D01*
X152588955Y-88047174D01*
X152641281Y-88025500D01*
X156046525Y-88025500D01*
X156046533Y-88025501D01*
X156055145Y-88025501D01*
X156144854Y-88025501D01*
X156144855Y-88025501D01*
X156174423Y-88013252D01*
X156231060Y-88013251D01*
X156271109Y-88053298D01*
X156271111Y-88109936D01*
X156268678Y-88115214D01*
X156234960Y-88181390D01*
X156216174Y-88300000D01*
X156234960Y-88418609D01*
X156234961Y-88418614D01*
X156289476Y-88525605D01*
X156374394Y-88610523D01*
X156481385Y-88665038D01*
X156481388Y-88665038D01*
X156481391Y-88665040D01*
X156600000Y-88683826D01*
X156718609Y-88665040D01*
X156718612Y-88665038D01*
X156718614Y-88665038D01*
X156825605Y-88610523D01*
X156825604Y-88610523D01*
X156825607Y-88610522D01*
X156910522Y-88525607D01*
X156912355Y-88522008D01*
X156965038Y-88418614D01*
X156965038Y-88418612D01*
X156965040Y-88418609D01*
X156983826Y-88300000D01*
X156965040Y-88181391D01*
X156965038Y-88181388D01*
X156965038Y-88181385D01*
X156910523Y-88074394D01*
X156825605Y-87989476D01*
X156718614Y-87934961D01*
X156718609Y-87934960D01*
X156600000Y-87916174D01*
X156475639Y-87935871D01*
X156475377Y-87934220D01*
X156425583Y-87930292D01*
X156388809Y-87887218D01*
X156393263Y-87830756D01*
X156406862Y-87812041D01*
X158371731Y-85847174D01*
X158424057Y-85825500D01*
X160858719Y-85825500D01*
X160911045Y-85847174D01*
X160974393Y-85910522D01*
X161035309Y-85941560D01*
X161068438Y-85958440D01*
X161105221Y-86001508D01*
X161100778Y-86057970D01*
X161092488Y-86069381D01*
X161092901Y-86069681D01*
X161089476Y-86074394D01*
X161034961Y-86181385D01*
X161034960Y-86181390D01*
X161016174Y-86300000D01*
X161034960Y-86418609D01*
X161034961Y-86418614D01*
X161089476Y-86525605D01*
X161174394Y-86610523D01*
X161281385Y-86665038D01*
X161281388Y-86665038D01*
X161281391Y-86665040D01*
X161400000Y-86683826D01*
X161518609Y-86665040D01*
X161518612Y-86665038D01*
X161518614Y-86665038D01*
X161625605Y-86610523D01*
X161625604Y-86610523D01*
X161625607Y-86610522D01*
X161710522Y-86525607D01*
X161723570Y-86499999D01*
X161765038Y-86418614D01*
X161765038Y-86418612D01*
X161765040Y-86418609D01*
X161783826Y-86300000D01*
X161765040Y-86181391D01*
X161765038Y-86181388D01*
X161765038Y-86181385D01*
X161710523Y-86074394D01*
X161625607Y-85989478D01*
X161611072Y-85982072D01*
X161531558Y-85941557D01*
X161494777Y-85898493D01*
X161499220Y-85842030D01*
X161507513Y-85830619D01*
X161507099Y-85830319D01*
X161510523Y-85825605D01*
X161565038Y-85718614D01*
X161565038Y-85718612D01*
X161565040Y-85718609D01*
X161583826Y-85600000D01*
X161565040Y-85481391D01*
X161565038Y-85481388D01*
X161565038Y-85481385D01*
X161510523Y-85374394D01*
X161425605Y-85289476D01*
X161318614Y-85234961D01*
X161318609Y-85234960D01*
X161200000Y-85216174D01*
X161081390Y-85234960D01*
X161081385Y-85234961D01*
X160974394Y-85289476D01*
X160911045Y-85352826D01*
X160858719Y-85374500D01*
X158353475Y-85374500D01*
X158353467Y-85374499D01*
X158344855Y-85374499D01*
X158255146Y-85374499D01*
X158218983Y-85389477D01*
X158218984Y-85389478D01*
X158172264Y-85408829D01*
X158172263Y-85408831D01*
X158108830Y-85472264D01*
X158108829Y-85472265D01*
X157062293Y-86518802D01*
X156028269Y-87552826D01*
X155975943Y-87574500D01*
X152641281Y-87574500D01*
X152588955Y-87552826D01*
X152525605Y-87489476D01*
X152418614Y-87434961D01*
X152418609Y-87434960D01*
X152300000Y-87416174D01*
X152181390Y-87434960D01*
X152181385Y-87434961D01*
X152074394Y-87489476D01*
X151989478Y-87574392D01*
X151952623Y-87646726D01*
X151909556Y-87683509D01*
X151853093Y-87679066D01*
X151834362Y-87665457D01*
X151797174Y-87628269D01*
X151775500Y-87575943D01*
X151775500Y-86252078D01*
X151797174Y-86199752D01*
X151800290Y-86198461D01*
X151898711Y-86198461D01*
X151901826Y-86199752D01*
X151922589Y-86240502D01*
X151934960Y-86318609D01*
X151934961Y-86318614D01*
X151989476Y-86425605D01*
X152074394Y-86510523D01*
X152181385Y-86565038D01*
X152181388Y-86565038D01*
X152181391Y-86565040D01*
X152265218Y-86578317D01*
X152272163Y-86579417D01*
X152320454Y-86609010D01*
X152333676Y-86640929D01*
X152348054Y-86731704D01*
X152348055Y-86731708D01*
X152402570Y-86838699D01*
X152487488Y-86923617D01*
X152594479Y-86978132D01*
X152594482Y-86978132D01*
X152594485Y-86978134D01*
X152713094Y-86996920D01*
X152831703Y-86978134D01*
X152831706Y-86978132D01*
X152831708Y-86978132D01*
X152938699Y-86923617D01*
X152938698Y-86923617D01*
X152938701Y-86923616D01*
X153023616Y-86838701D01*
X153050088Y-86786747D01*
X153078132Y-86731708D01*
X153078133Y-86731704D01*
X153078134Y-86731703D01*
X153096920Y-86613094D01*
X153090360Y-86571681D01*
X153103581Y-86516611D01*
X153111117Y-86507787D01*
X155191170Y-84427736D01*
X155225500Y-84344855D01*
X155225500Y-84255146D01*
X155225500Y-82941281D01*
X155247174Y-82888955D01*
X155258303Y-82877826D01*
X155285522Y-82850607D01*
X155298315Y-82825500D01*
X155340038Y-82743614D01*
X155340038Y-82743612D01*
X155340040Y-82743609D01*
X155358826Y-82625000D01*
X155340040Y-82506391D01*
X155340038Y-82506388D01*
X155340038Y-82506385D01*
X155285523Y-82399394D01*
X155247174Y-82361045D01*
X155225500Y-82308719D01*
X155225500Y-77362014D01*
X155247174Y-77309688D01*
X155299500Y-77288014D01*
X155351826Y-77309688D01*
X155365435Y-77328419D01*
X155389478Y-77375607D01*
X155474394Y-77460523D01*
X155581385Y-77515038D01*
X155581388Y-77515038D01*
X155581391Y-77515040D01*
X155700000Y-77533826D01*
X155785150Y-77520339D01*
X155840222Y-77533560D01*
X155869815Y-77581851D01*
X155862661Y-77627023D01*
X155834960Y-77681390D01*
X155816174Y-77800000D01*
X155834960Y-77918609D01*
X155834961Y-77918614D01*
X155889476Y-78025605D01*
X155974394Y-78110523D01*
X156081385Y-78165038D01*
X156081388Y-78165038D01*
X156081391Y-78165040D01*
X156200000Y-78183826D01*
X156318609Y-78165040D01*
X156318612Y-78165038D01*
X156318614Y-78165038D01*
X156425605Y-78110523D01*
X156425604Y-78110523D01*
X156425607Y-78110522D01*
X156510522Y-78025607D01*
X156512355Y-78022008D01*
X156565038Y-77918614D01*
X156565038Y-77918612D01*
X156565040Y-77918609D01*
X156583826Y-77800000D01*
X156565040Y-77681391D01*
X156565038Y-77681388D01*
X156565038Y-77681385D01*
X156510523Y-77574394D01*
X156425605Y-77489476D01*
X156318614Y-77434961D01*
X156318609Y-77434960D01*
X156200000Y-77416174D01*
X156114849Y-77429660D01*
X156059776Y-77416438D01*
X156030184Y-77368147D01*
X156037339Y-77322975D01*
X156044109Y-77309688D01*
X156065040Y-77268609D01*
X156083826Y-77150000D01*
X156065040Y-77031391D01*
X156065038Y-77031388D01*
X156065038Y-77031385D01*
X156010523Y-76924394D01*
X155925605Y-76839476D01*
X155818614Y-76784961D01*
X155818609Y-76784960D01*
X155700000Y-76766174D01*
X155581390Y-76784960D01*
X155581385Y-76784961D01*
X155474394Y-76839476D01*
X155389476Y-76924394D01*
X155389476Y-76924395D01*
X155365434Y-76971580D01*
X155322367Y-77008363D01*
X155265905Y-77003919D01*
X155229122Y-76960852D01*
X155225500Y-76937985D01*
X155225500Y-72575001D01*
X157041175Y-72575001D01*
X157059961Y-72693610D01*
X157059962Y-72693615D01*
X157114477Y-72800606D01*
X157199395Y-72885524D01*
X157306386Y-72940039D01*
X157306389Y-72940039D01*
X157306392Y-72940041D01*
X157425001Y-72958827D01*
X157543610Y-72940041D01*
X157543613Y-72940039D01*
X157543615Y-72940039D01*
X157650606Y-72885524D01*
X157650605Y-72885524D01*
X157650608Y-72885523D01*
X157735523Y-72800608D01*
X157750237Y-72771730D01*
X157790039Y-72693615D01*
X157790039Y-72693613D01*
X157790041Y-72693610D01*
X157808827Y-72575001D01*
X157790041Y-72456392D01*
X157790039Y-72456389D01*
X157790039Y-72456386D01*
X157735524Y-72349395D01*
X157650606Y-72264477D01*
X157543615Y-72209962D01*
X157543610Y-72209961D01*
X157425001Y-72191175D01*
X157306391Y-72209961D01*
X157306386Y-72209962D01*
X157199395Y-72264477D01*
X157114477Y-72349395D01*
X157059962Y-72456386D01*
X157059961Y-72456391D01*
X157041175Y-72575001D01*
X155225500Y-72575001D01*
X155225500Y-72400908D01*
X155247174Y-72348582D01*
X155287922Y-72327819D01*
X155368609Y-72315040D01*
X155368612Y-72315038D01*
X155368614Y-72315038D01*
X155475605Y-72260523D01*
X155475604Y-72260523D01*
X155475607Y-72260522D01*
X155560522Y-72175607D01*
X155613178Y-72072264D01*
X155615038Y-72068614D01*
X155615038Y-72068612D01*
X155615040Y-72068609D01*
X155633826Y-71950000D01*
X155615040Y-71831391D01*
X155615038Y-71831388D01*
X155615038Y-71831385D01*
X155560523Y-71724394D01*
X155475605Y-71639476D01*
X155368614Y-71584961D01*
X155368609Y-71584960D01*
X155250000Y-71566174D01*
X155131390Y-71584960D01*
X155131385Y-71584961D01*
X155024394Y-71639476D01*
X154939476Y-71724394D01*
X154884961Y-71831385D01*
X154884960Y-71831390D01*
X154873089Y-71906340D01*
X154843496Y-71954631D01*
X154788424Y-71967853D01*
X154740133Y-71938260D01*
X154726911Y-71906340D01*
X154725313Y-71896252D01*
X154715040Y-71831391D01*
X154715038Y-71831388D01*
X154715038Y-71831385D01*
X154660523Y-71724394D01*
X154575605Y-71639476D01*
X154468614Y-71584961D01*
X154468609Y-71584960D01*
X154350000Y-71566174D01*
X154231390Y-71584960D01*
X154231385Y-71584961D01*
X154124394Y-71639476D01*
X154039476Y-71724394D01*
X153984961Y-71831385D01*
X153984960Y-71831390D01*
X153984960Y-71831391D01*
X153966174Y-71950000D01*
X153969001Y-71967853D01*
X153969152Y-71968802D01*
X153955930Y-72023874D01*
X153948389Y-72032704D01*
X153472265Y-72508829D01*
X153408830Y-72572263D01*
X153398774Y-72596536D01*
X153398775Y-72596537D01*
X153374499Y-72655146D01*
X153374499Y-72753466D01*
X153374500Y-72753475D01*
X153374500Y-84784903D01*
X153352826Y-84837229D01*
X152390440Y-85799614D01*
X152338114Y-85821288D01*
X152326539Y-85820377D01*
X152300000Y-85816174D01*
X152181390Y-85834960D01*
X152181385Y-85834961D01*
X152074394Y-85889476D01*
X151989476Y-85974394D01*
X151934961Y-86081385D01*
X151934960Y-86081390D01*
X151922589Y-86159497D01*
X151898711Y-86198461D01*
X151800290Y-86198461D01*
X151800790Y-86198254D01*
X151789633Y-86191417D01*
X151775500Y-86147921D01*
X151775500Y-82855145D01*
X151775499Y-82855143D01*
X151741171Y-82772266D01*
X151741169Y-82772263D01*
X151677735Y-82708829D01*
X149001578Y-80032673D01*
X149001578Y-80032672D01*
X148927738Y-79958832D01*
X148927736Y-79958830D01*
X148927732Y-79958828D01*
X148903458Y-79948773D01*
X148903458Y-79948772D01*
X148844855Y-79924499D01*
X148755145Y-79924499D01*
X148746533Y-79924499D01*
X148746525Y-79924500D01*
X139705145Y-79924500D01*
X139622266Y-79958828D01*
X137908829Y-81672265D01*
X137908827Y-81672268D01*
X137900046Y-81693469D01*
X137900046Y-81693470D01*
X137874499Y-81755145D01*
X137874499Y-81853466D01*
X137874500Y-81853475D01*
X137874500Y-82018600D01*
X137852826Y-82070926D01*
X137834096Y-82084534D01*
X137824392Y-82089478D01*
X137739476Y-82174394D01*
X137684961Y-82281385D01*
X137684960Y-82281390D01*
X137666174Y-82400000D01*
X137684960Y-82518609D01*
X137684961Y-82518614D01*
X137739476Y-82625605D01*
X137824394Y-82710523D01*
X137931385Y-82765038D01*
X137931388Y-82765038D01*
X137931391Y-82765040D01*
X138050000Y-82783826D01*
X138168609Y-82765040D01*
X138168612Y-82765038D01*
X138168614Y-82765038D01*
X138275605Y-82710523D01*
X138275604Y-82710523D01*
X138275607Y-82710522D01*
X138360522Y-82625607D01*
X138373569Y-82600000D01*
X138415038Y-82518614D01*
X138415038Y-82518612D01*
X138415040Y-82518609D01*
X138433826Y-82400000D01*
X138415040Y-82281391D01*
X138415038Y-82281388D01*
X138415038Y-82281385D01*
X138360523Y-82174394D01*
X138347174Y-82161045D01*
X138325500Y-82108719D01*
X138325500Y-81952078D01*
X138347174Y-81899752D01*
X138399500Y-81878078D01*
X138451826Y-81899752D01*
X138472589Y-81940502D01*
X138484960Y-82018609D01*
X138484961Y-82018614D01*
X138539476Y-82125605D01*
X138624394Y-82210523D01*
X138731385Y-82265038D01*
X138731388Y-82265038D01*
X138731391Y-82265040D01*
X138850000Y-82283826D01*
X138968609Y-82265040D01*
X138968609Y-82265039D01*
X138974361Y-82264129D01*
X138974623Y-82265785D01*
X139024397Y-82269700D01*
X139061182Y-82312765D01*
X139056741Y-82369228D01*
X139043131Y-82387962D01*
X138207982Y-83223111D01*
X138155656Y-83244785D01*
X138122062Y-83236719D01*
X138118609Y-83234960D01*
X138118607Y-83234959D01*
X138118605Y-83234959D01*
X138000000Y-83216174D01*
X137881390Y-83234960D01*
X137881385Y-83234961D01*
X137774394Y-83289476D01*
X137689476Y-83374394D01*
X137634961Y-83481385D01*
X137634960Y-83481390D01*
X137616174Y-83600000D01*
X137634960Y-83718609D01*
X137634961Y-83718614D01*
X137689476Y-83825605D01*
X137774394Y-83910523D01*
X137881385Y-83965038D01*
X137881388Y-83965038D01*
X137881391Y-83965040D01*
X138000000Y-83983826D01*
X138118609Y-83965040D01*
X138118612Y-83965038D01*
X138118614Y-83965038D01*
X138225605Y-83910523D01*
X138225604Y-83910523D01*
X138225607Y-83910522D01*
X138310522Y-83825607D01*
X138365040Y-83718609D01*
X138365040Y-83718603D01*
X138366644Y-83713671D01*
X138384696Y-83684207D01*
X140571731Y-81497174D01*
X140624057Y-81475500D01*
X147025953Y-81475500D01*
X147078279Y-81497174D01*
X147099953Y-81549500D01*
X147078279Y-81601826D01*
X147059549Y-81615434D01*
X147051974Y-81619293D01*
X147036892Y-81626978D01*
X146951976Y-81711894D01*
X146897461Y-81818885D01*
X146897460Y-81818890D01*
X146878674Y-81937500D01*
X146897459Y-82056105D01*
X146897461Y-82056111D01*
X146903934Y-82068815D01*
X146912000Y-82102410D01*
X146912000Y-82825500D01*
X146890326Y-82877826D01*
X146838000Y-82899500D01*
X146835180Y-82899500D01*
X146813229Y-82903866D01*
X146791277Y-82908233D01*
X146741496Y-82941495D01*
X146741495Y-82941496D01*
X146708233Y-82991277D01*
X146707810Y-82993405D01*
X146699500Y-83035180D01*
X146699500Y-84064820D01*
X146708233Y-84108722D01*
X146741496Y-84158504D01*
X146791278Y-84191767D01*
X146835180Y-84200500D01*
X146924659Y-84200500D01*
X146976985Y-84222174D01*
X146980479Y-84226158D01*
X146982028Y-84227707D01*
X146982030Y-84227710D01*
X147428713Y-84674393D01*
X147839173Y-85084853D01*
X147852780Y-85103582D01*
X147872307Y-85141905D01*
X147876751Y-85198367D01*
X147839969Y-85241434D01*
X147806373Y-85249500D01*
X145847680Y-85249500D01*
X145825729Y-85253866D01*
X145803777Y-85258233D01*
X145753996Y-85291495D01*
X145753995Y-85291496D01*
X145720733Y-85341277D01*
X145712000Y-85385180D01*
X145712000Y-88614819D01*
X145720733Y-88658722D01*
X145724954Y-88665040D01*
X145753996Y-88708504D01*
X145803778Y-88741767D01*
X145847680Y-88750500D01*
X145847681Y-88750500D01*
X147638920Y-88750500D01*
X147691246Y-88772174D01*
X147712920Y-88824500D01*
X147691246Y-88876826D01*
X147678911Y-88885787D01*
X147679105Y-88886054D01*
X147674394Y-88889476D01*
X147589476Y-88974394D01*
X147534961Y-89081385D01*
X147534960Y-89081390D01*
X147516174Y-89200000D01*
X147534959Y-89318605D01*
X147534961Y-89318611D01*
X147541434Y-89331315D01*
X147549500Y-89364910D01*
X147549500Y-91958646D01*
X147565638Y-92018873D01*
X147565638Y-92018874D01*
X147573384Y-92047783D01*
X147573386Y-92047788D01*
X147619530Y-92127712D01*
X147826672Y-92334854D01*
X147840280Y-92353584D01*
X147876978Y-92425607D01*
X147961894Y-92510523D01*
X148068885Y-92565038D01*
X148068888Y-92565038D01*
X148068891Y-92565040D01*
X148187500Y-92583826D01*
X148306109Y-92565040D01*
X148306112Y-92565038D01*
X148306114Y-92565038D01*
X148413105Y-92510523D01*
X148413104Y-92510523D01*
X148413107Y-92510522D01*
X148498022Y-92425607D01*
X148521291Y-92379939D01*
X148552538Y-92318614D01*
X148552538Y-92318612D01*
X148552540Y-92318609D01*
X148571326Y-92200000D01*
X148552540Y-92081391D01*
X148552538Y-92081388D01*
X148552538Y-92081385D01*
X148498023Y-91974394D01*
X148413107Y-91889478D01*
X148341084Y-91852780D01*
X148322354Y-91839172D01*
X148272174Y-91788992D01*
X148250500Y-91736666D01*
X148250500Y-91550000D01*
X150166174Y-91550000D01*
X150184960Y-91668609D01*
X150184961Y-91668614D01*
X150239476Y-91775605D01*
X150324394Y-91860523D01*
X150431385Y-91915038D01*
X150431388Y-91915038D01*
X150431391Y-91915040D01*
X150550000Y-91933826D01*
X150668609Y-91915040D01*
X150668612Y-91915038D01*
X150668614Y-91915038D01*
X150775605Y-91860523D01*
X150775604Y-91860523D01*
X150775607Y-91860522D01*
X150860522Y-91775607D01*
X150864745Y-91767318D01*
X150915038Y-91668614D01*
X150915038Y-91668612D01*
X150915040Y-91668609D01*
X150933826Y-91550000D01*
X150915040Y-91431391D01*
X150915038Y-91431388D01*
X150915038Y-91431385D01*
X150860523Y-91324394D01*
X150775605Y-91239476D01*
X150668614Y-91184961D01*
X150668609Y-91184960D01*
X150550000Y-91166174D01*
X150431390Y-91184960D01*
X150431385Y-91184961D01*
X150324394Y-91239476D01*
X150239476Y-91324394D01*
X150184961Y-91431385D01*
X150184960Y-91431390D01*
X150166174Y-91550000D01*
X148250500Y-91550000D01*
X148250500Y-90650000D01*
X151666174Y-90650000D01*
X151684960Y-90768609D01*
X151684961Y-90768614D01*
X151739476Y-90875605D01*
X151824394Y-90960523D01*
X151931385Y-91015038D01*
X151931388Y-91015038D01*
X151931391Y-91015040D01*
X152050000Y-91033826D01*
X152168609Y-91015040D01*
X152168612Y-91015038D01*
X152168614Y-91015038D01*
X152275605Y-90960523D01*
X152275604Y-90960523D01*
X152275607Y-90960522D01*
X152360522Y-90875607D01*
X152404408Y-90789476D01*
X152415038Y-90768614D01*
X152415038Y-90768612D01*
X152415040Y-90768609D01*
X152427411Y-90690501D01*
X152451288Y-90651537D01*
X152448174Y-90650247D01*
X152427411Y-90609497D01*
X152425577Y-90597921D01*
X152415040Y-90531391D01*
X152415038Y-90531388D01*
X152415038Y-90531385D01*
X152360523Y-90424394D01*
X152275605Y-90339476D01*
X152168614Y-90284961D01*
X152168609Y-90284960D01*
X152050000Y-90266174D01*
X151931390Y-90284960D01*
X151931385Y-90284961D01*
X151824394Y-90339476D01*
X151739476Y-90424394D01*
X151684961Y-90531385D01*
X151684960Y-90531390D01*
X151666174Y-90650000D01*
X148250500Y-90650000D01*
X148250500Y-89364910D01*
X148258566Y-89331315D01*
X148261475Y-89325605D01*
X148265040Y-89318609D01*
X148283826Y-89200000D01*
X148265040Y-89081391D01*
X148265038Y-89081388D01*
X148265038Y-89081385D01*
X148210523Y-88974394D01*
X148125605Y-88889476D01*
X148120895Y-88886054D01*
X148122204Y-88884252D01*
X148090702Y-88847368D01*
X148095145Y-88790905D01*
X148138212Y-88754122D01*
X148161080Y-88750500D01*
X149077319Y-88750500D01*
X149077320Y-88750500D01*
X149121222Y-88741767D01*
X149171004Y-88708504D01*
X149204267Y-88658722D01*
X149213000Y-88614820D01*
X149213000Y-85385180D01*
X149204267Y-85341278D01*
X149171004Y-85291496D01*
X149155879Y-85281390D01*
X149121222Y-85258233D01*
X149077320Y-85249500D01*
X149077319Y-85249500D01*
X148593628Y-85249500D01*
X148541302Y-85227826D01*
X148519628Y-85175500D01*
X148527693Y-85141905D01*
X148565040Y-85068607D01*
X148583826Y-84949998D01*
X148565040Y-84831389D01*
X148565038Y-84831386D01*
X148565038Y-84831383D01*
X148510523Y-84724392D01*
X148425607Y-84639476D01*
X148353587Y-84602780D01*
X148334856Y-84589172D01*
X147979690Y-84234006D01*
X147958016Y-84181680D01*
X147970487Y-84140569D01*
X147991767Y-84108722D01*
X148000500Y-84064820D01*
X148000500Y-83035180D01*
X147991767Y-82991278D01*
X147958504Y-82941496D01*
X147958182Y-82941281D01*
X147908722Y-82908233D01*
X147864820Y-82899500D01*
X147864819Y-82899500D01*
X147687000Y-82899500D01*
X147634674Y-82877826D01*
X147613000Y-82825500D01*
X147613000Y-82102410D01*
X147621066Y-82068815D01*
X147623546Y-82063947D01*
X147627540Y-82056109D01*
X147646326Y-81937500D01*
X147627540Y-81818891D01*
X147627538Y-81818888D01*
X147627538Y-81818885D01*
X147573023Y-81711894D01*
X147488107Y-81626978D01*
X147465451Y-81615434D01*
X147428669Y-81572368D01*
X147433112Y-81515905D01*
X147476179Y-81479122D01*
X147499047Y-81475500D01*
X147575943Y-81475500D01*
X147628269Y-81497174D01*
X149602826Y-83471731D01*
X149624500Y-83524057D01*
X149624500Y-87699173D01*
X149624499Y-87699187D01*
X149624499Y-87705145D01*
X149624499Y-87794855D01*
X149645210Y-87844855D01*
X149658830Y-87877736D01*
X149722264Y-87941170D01*
X149732671Y-87951577D01*
X149732673Y-87951578D01*
X151549032Y-89767938D01*
X151549035Y-89767940D01*
X151564870Y-89774499D01*
X151631914Y-89802269D01*
X151721623Y-89802269D01*
X151981950Y-89802269D01*
X152034276Y-89823943D01*
X152097625Y-89887292D01*
X152204616Y-89941807D01*
X152204619Y-89941807D01*
X152204622Y-89941809D01*
X152323231Y-89960595D01*
X152342034Y-89957616D01*
X152397104Y-89970836D01*
X152405936Y-89978379D01*
X152552826Y-90125269D01*
X152574500Y-90177595D01*
X152574500Y-90597921D01*
X152552826Y-90650247D01*
X152549209Y-90651744D01*
X152560367Y-90658582D01*
X152574500Y-90702078D01*
X152574500Y-92849173D01*
X152574499Y-92849187D01*
X152574499Y-92944855D01*
X152592983Y-92989478D01*
X152608829Y-93027735D01*
X152682671Y-93101577D01*
X152682673Y-93101578D01*
X154253769Y-94672674D01*
X154275443Y-94725000D01*
X154253769Y-94777326D01*
X154053269Y-94977826D01*
X154000943Y-94999500D01*
X153035180Y-94999500D01*
X153013229Y-95003866D01*
X152991277Y-95008233D01*
X152941496Y-95041495D01*
X152941495Y-95041496D01*
X152908233Y-95091277D01*
X152907521Y-95094855D01*
X152899500Y-95135180D01*
X152899500Y-96164820D01*
X152908233Y-96208722D01*
X152941496Y-96258504D01*
X152991278Y-96291767D01*
X153035180Y-96300500D01*
X153035181Y-96300500D01*
X154064819Y-96300500D01*
X154064820Y-96300500D01*
X154108722Y-96291767D01*
X154158504Y-96258504D01*
X154191767Y-96208722D01*
X154200500Y-96164820D01*
X154200500Y-95499056D01*
X154222173Y-95446731D01*
X154572673Y-95096230D01*
X154624999Y-95074557D01*
X154677325Y-95096231D01*
X156672264Y-97091170D01*
X156755145Y-97125500D01*
X156844854Y-97125500D01*
X157108719Y-97125500D01*
X157161045Y-97147174D01*
X157224394Y-97210523D01*
X157331385Y-97265038D01*
X157331388Y-97265038D01*
X157331391Y-97265040D01*
X157450000Y-97283826D01*
X157568609Y-97265040D01*
X157568612Y-97265038D01*
X157568614Y-97265038D01*
X157675605Y-97210523D01*
X157675604Y-97210523D01*
X157675607Y-97210522D01*
X157738955Y-97147174D01*
X157791281Y-97125500D01*
X159796525Y-97125500D01*
X159796533Y-97125501D01*
X159805145Y-97125501D01*
X159894854Y-97125501D01*
X159894855Y-97125501D01*
X159953460Y-97101225D01*
X159977736Y-97091170D01*
X160041170Y-97027736D01*
X160041170Y-97027735D01*
X160051575Y-97017330D01*
X160051577Y-97017327D01*
X161817327Y-95251577D01*
X161817330Y-95251575D01*
X161827735Y-95241170D01*
X161827736Y-95241170D01*
X161891170Y-95177736D01*
X161915551Y-95118875D01*
X161925501Y-95094855D01*
X161925501Y-95005145D01*
X161925501Y-94999187D01*
X161925500Y-94999173D01*
X161925500Y-93700000D01*
X162166174Y-93700000D01*
X162184960Y-93818609D01*
X162184961Y-93818614D01*
X162239476Y-93925605D01*
X162324394Y-94010523D01*
X162431385Y-94065038D01*
X162431388Y-94065038D01*
X162431391Y-94065040D01*
X162550000Y-94083826D01*
X162580598Y-94078979D01*
X162635669Y-94092200D01*
X162665263Y-94140490D01*
X162665850Y-94147958D01*
X162684960Y-94268609D01*
X162684961Y-94268614D01*
X162739476Y-94375605D01*
X162824394Y-94460523D01*
X162931385Y-94515038D01*
X162931388Y-94515038D01*
X162931391Y-94515040D01*
X163050000Y-94533826D01*
X163168609Y-94515040D01*
X163168612Y-94515038D01*
X163168614Y-94515038D01*
X163275605Y-94460523D01*
X163275604Y-94460523D01*
X163275607Y-94460522D01*
X163360522Y-94375607D01*
X163370824Y-94355388D01*
X163415038Y-94268614D01*
X163415038Y-94268612D01*
X163415040Y-94268609D01*
X163433826Y-94150000D01*
X163415040Y-94031391D01*
X163415038Y-94031388D01*
X163415038Y-94031385D01*
X163360523Y-93924394D01*
X163275605Y-93839476D01*
X163168614Y-93784961D01*
X163168609Y-93784960D01*
X163050000Y-93766174D01*
X163019402Y-93771020D01*
X162964329Y-93757798D01*
X162934737Y-93709507D01*
X162934149Y-93702043D01*
X162933825Y-93700001D01*
X162933826Y-93700000D01*
X162915040Y-93581391D01*
X162915038Y-93581388D01*
X162915038Y-93581385D01*
X162860523Y-93474394D01*
X162775605Y-93389476D01*
X162668614Y-93334961D01*
X162668609Y-93334960D01*
X162550000Y-93316174D01*
X162431390Y-93334960D01*
X162431385Y-93334961D01*
X162324394Y-93389476D01*
X162239476Y-93474394D01*
X162184961Y-93581385D01*
X162184960Y-93581390D01*
X162166174Y-93700000D01*
X161925500Y-93700000D01*
X161925500Y-92374057D01*
X161947174Y-92321731D01*
X162950296Y-91318609D01*
X163873175Y-90395730D01*
X163925500Y-90374057D01*
X163977826Y-90395731D01*
X163999500Y-90448057D01*
X163999500Y-149825500D01*
X163977826Y-149877826D01*
X163925500Y-149899500D01*
X157973072Y-149899500D01*
X157920746Y-149877826D01*
X157899072Y-149825500D01*
X157899825Y-149814969D01*
X157901175Y-149805580D01*
X157905500Y-149775500D01*
X157905500Y-146883716D01*
X159522500Y-146883716D01*
X159522500Y-147116283D01*
X159558880Y-147345979D01*
X159558883Y-147345992D01*
X159630745Y-147567160D01*
X159630747Y-147567164D01*
X159736327Y-147774378D01*
X159736328Y-147774379D01*
X159873026Y-147962527D01*
X160037473Y-148126974D01*
X160037476Y-148126976D01*
X160037477Y-148126977D01*
X160225621Y-148263672D01*
X160432835Y-148369252D01*
X160432839Y-148369254D01*
X160654007Y-148441116D01*
X160654013Y-148441117D01*
X160654018Y-148441119D01*
X160768868Y-148459309D01*
X160883716Y-148477500D01*
X160883718Y-148477500D01*
X161116284Y-148477500D01*
X161208162Y-148462947D01*
X161345982Y-148441119D01*
X161345989Y-148441116D01*
X161345992Y-148441116D01*
X161567160Y-148369254D01*
X161567160Y-148369253D01*
X161567163Y-148369253D01*
X161774379Y-148263672D01*
X161962527Y-148126974D01*
X162126974Y-147962527D01*
X162263672Y-147774379D01*
X162369253Y-147567163D01*
X162441119Y-147345982D01*
X162477500Y-147116282D01*
X162477500Y-146883718D01*
X162441119Y-146654018D01*
X162441117Y-146654013D01*
X162441116Y-146654007D01*
X162369254Y-146432839D01*
X162369252Y-146432835D01*
X162263672Y-146225621D01*
X162126977Y-146037477D01*
X162126976Y-146037476D01*
X162126974Y-146037473D01*
X161962527Y-145873026D01*
X161962524Y-145873023D01*
X161962522Y-145873022D01*
X161774378Y-145736327D01*
X161567164Y-145630747D01*
X161567160Y-145630745D01*
X161345992Y-145558883D01*
X161345979Y-145558880D01*
X161116284Y-145522500D01*
X161116282Y-145522500D01*
X160883718Y-145522500D01*
X160883716Y-145522500D01*
X160654020Y-145558880D01*
X160654007Y-145558883D01*
X160432839Y-145630745D01*
X160432835Y-145630747D01*
X160225621Y-145736327D01*
X160037477Y-145873022D01*
X159873022Y-146037477D01*
X159736327Y-146225621D01*
X159630747Y-146432835D01*
X159630745Y-146432839D01*
X159558883Y-146654007D01*
X159558880Y-146654020D01*
X159522500Y-146883716D01*
X157905500Y-146883716D01*
X157905500Y-141874000D01*
X157901946Y-141840945D01*
X157890740Y-141789434D01*
X157856313Y-141720658D01*
X157828946Y-141689075D01*
X157810562Y-141667858D01*
X157805581Y-141662380D01*
X157805580Y-141662379D01*
X157736850Y-141620484D01*
X157736846Y-141620483D01*
X157736845Y-141620482D01*
X157669812Y-141600799D01*
X157626004Y-141594500D01*
X157626000Y-141594500D01*
X156274817Y-141594500D01*
X156274704Y-141594500D01*
X156273497Y-141594504D01*
X156271097Y-141594526D01*
X156225939Y-141601659D01*
X156159257Y-141622593D01*
X156152269Y-141624971D01*
X156082496Y-141674109D01*
X156081157Y-141672208D01*
X156035192Y-141689075D01*
X155999712Y-141678324D01*
X155986849Y-141670483D01*
X155986845Y-141670482D01*
X155919812Y-141650799D01*
X155876004Y-141644500D01*
X155876000Y-141644500D01*
X151723072Y-141644500D01*
X151670746Y-141622826D01*
X151649072Y-141570500D01*
X151649825Y-141559969D01*
X151655500Y-141520500D01*
X151655500Y-140123999D01*
X151655117Y-140120445D01*
X151651946Y-140090945D01*
X151640740Y-140039434D01*
X151606313Y-139970658D01*
X151576730Y-139936517D01*
X151560562Y-139917858D01*
X151555581Y-139912380D01*
X151555580Y-139912379D01*
X151486850Y-139870484D01*
X151486846Y-139870483D01*
X151486845Y-139870482D01*
X151419812Y-139850799D01*
X151376004Y-139844500D01*
X151376000Y-139844500D01*
X151029500Y-139844500D01*
X151029499Y-139844500D01*
X150996444Y-139848054D01*
X150944935Y-139859259D01*
X150876155Y-139893688D01*
X150875177Y-139894536D01*
X150874598Y-139894728D01*
X150872311Y-139896257D01*
X150871891Y-139895629D01*
X150821436Y-139912415D01*
X150788211Y-139901791D01*
X150736850Y-139870484D01*
X150736846Y-139870483D01*
X150736845Y-139870482D01*
X150669812Y-139850799D01*
X150626004Y-139844500D01*
X150626000Y-139844500D01*
X149224000Y-139844500D01*
X149223999Y-139844500D01*
X149190944Y-139848054D01*
X149139431Y-139859260D01*
X149122179Y-139867896D01*
X149065686Y-139871936D01*
X149022884Y-139834845D01*
X149018844Y-139778352D01*
X149036730Y-139749398D01*
X149060522Y-139725607D01*
X149060525Y-139725602D01*
X149115038Y-139618614D01*
X149115038Y-139618612D01*
X149115040Y-139618609D01*
X149133826Y-139500000D01*
X149115040Y-139381391D01*
X149115038Y-139381388D01*
X149115038Y-139381385D01*
X149060523Y-139274394D01*
X148975605Y-139189476D01*
X148868614Y-139134961D01*
X148868609Y-139134960D01*
X148750000Y-139116174D01*
X148631390Y-139134960D01*
X148631385Y-139134961D01*
X148524394Y-139189476D01*
X148439476Y-139274394D01*
X148384961Y-139381385D01*
X148384960Y-139381390D01*
X148366174Y-139500000D01*
X148384960Y-139618609D01*
X148384961Y-139618614D01*
X148439474Y-139725602D01*
X148440600Y-139727151D01*
X148440899Y-139728398D01*
X148442121Y-139730796D01*
X148441545Y-139731089D01*
X148453823Y-139782223D01*
X148424232Y-139830515D01*
X148378643Y-139843555D01*
X148378643Y-139844500D01*
X148376000Y-139844500D01*
X147624000Y-139844500D01*
X147623998Y-139844500D01*
X147623216Y-139844542D01*
X147623097Y-139844500D01*
X147622018Y-139844500D01*
X147622018Y-139844119D01*
X147569808Y-139825690D01*
X147545372Y-139774596D01*
X147558265Y-139730992D01*
X147557879Y-139730796D01*
X147558938Y-139728716D01*
X147559403Y-139727146D01*
X147560515Y-139725613D01*
X147560522Y-139725607D01*
X147577140Y-139692993D01*
X147615038Y-139618614D01*
X147615038Y-139618612D01*
X147615040Y-139618609D01*
X147633826Y-139500000D01*
X147615040Y-139381391D01*
X147615038Y-139381388D01*
X147615038Y-139381385D01*
X147560523Y-139274394D01*
X147475605Y-139189476D01*
X147368614Y-139134961D01*
X147368609Y-139134960D01*
X147250000Y-139116174D01*
X147131390Y-139134960D01*
X147131385Y-139134961D01*
X147024394Y-139189476D01*
X146939476Y-139274394D01*
X146884961Y-139381385D01*
X146884960Y-139381390D01*
X146866174Y-139500000D01*
X146884960Y-139618609D01*
X146884961Y-139618614D01*
X146939476Y-139725605D01*
X146961442Y-139747571D01*
X146983116Y-139799897D01*
X146961442Y-139852223D01*
X146909116Y-139873897D01*
X146888268Y-139870900D01*
X146819808Y-139850798D01*
X146776004Y-139844500D01*
X146776000Y-139844500D01*
X146473072Y-139844500D01*
X146420746Y-139822826D01*
X146399072Y-139770500D01*
X146399825Y-139759969D01*
X146405500Y-139720500D01*
X146405500Y-138869374D01*
X146427174Y-138817048D01*
X146479500Y-138795374D01*
X146519030Y-138808219D01*
X146519204Y-138807879D01*
X146521352Y-138808973D01*
X146523000Y-138809509D01*
X146524389Y-138810518D01*
X146524393Y-138810522D01*
X146524398Y-138810524D01*
X146524400Y-138810526D01*
X146631385Y-138865038D01*
X146631388Y-138865038D01*
X146631391Y-138865040D01*
X146750000Y-138883826D01*
X146868609Y-138865040D01*
X146868612Y-138865038D01*
X146868614Y-138865038D01*
X146975605Y-138810523D01*
X146975604Y-138810523D01*
X146975607Y-138810522D01*
X147060522Y-138725607D01*
X147093684Y-138660523D01*
X147115038Y-138618614D01*
X147115038Y-138618612D01*
X147115040Y-138618609D01*
X147133826Y-138500000D01*
X147616174Y-138500000D01*
X147634960Y-138618609D01*
X147634961Y-138618614D01*
X147689476Y-138725605D01*
X147774394Y-138810523D01*
X147881385Y-138865038D01*
X147881388Y-138865038D01*
X147881391Y-138865040D01*
X148000000Y-138883826D01*
X148118609Y-138865040D01*
X148118612Y-138865038D01*
X148118614Y-138865038D01*
X148225605Y-138810523D01*
X148225604Y-138810523D01*
X148225607Y-138810522D01*
X148310522Y-138725607D01*
X148343684Y-138660523D01*
X148365038Y-138618614D01*
X148365038Y-138618612D01*
X148365040Y-138618609D01*
X148383826Y-138500000D01*
X148866174Y-138500000D01*
X148884960Y-138618609D01*
X148884961Y-138618614D01*
X148939476Y-138725605D01*
X149024394Y-138810523D01*
X149131385Y-138865038D01*
X149131388Y-138865038D01*
X149131391Y-138865040D01*
X149250000Y-138883826D01*
X149368609Y-138865040D01*
X149368612Y-138865038D01*
X149368614Y-138865038D01*
X149475605Y-138810523D01*
X149475604Y-138810523D01*
X149475607Y-138810522D01*
X149560522Y-138725607D01*
X149593684Y-138660523D01*
X149615038Y-138618614D01*
X149615038Y-138618612D01*
X149615040Y-138618609D01*
X149633826Y-138500000D01*
X149615040Y-138381391D01*
X149615038Y-138381388D01*
X149615038Y-138381385D01*
X149560523Y-138274394D01*
X149475605Y-138189476D01*
X149368614Y-138134961D01*
X149368609Y-138134960D01*
X149250000Y-138116174D01*
X149131390Y-138134960D01*
X149131385Y-138134961D01*
X149024394Y-138189476D01*
X148939476Y-138274394D01*
X148884961Y-138381385D01*
X148884960Y-138381390D01*
X148866174Y-138500000D01*
X148383826Y-138500000D01*
X148365040Y-138381391D01*
X148365038Y-138381388D01*
X148365038Y-138381385D01*
X148310523Y-138274394D01*
X148225605Y-138189476D01*
X148118614Y-138134961D01*
X148118609Y-138134960D01*
X148000000Y-138116174D01*
X147881390Y-138134960D01*
X147881385Y-138134961D01*
X147774394Y-138189476D01*
X147689476Y-138274394D01*
X147634961Y-138381385D01*
X147634960Y-138381390D01*
X147616174Y-138500000D01*
X147133826Y-138500000D01*
X147115040Y-138381391D01*
X147115038Y-138381388D01*
X147115038Y-138381385D01*
X147060523Y-138274394D01*
X146975605Y-138189476D01*
X146868614Y-138134961D01*
X146868609Y-138134960D01*
X146750000Y-138116174D01*
X146631390Y-138134960D01*
X146631385Y-138134961D01*
X146524392Y-138189477D01*
X146522993Y-138190494D01*
X146521866Y-138190764D01*
X146519204Y-138192121D01*
X146518878Y-138191481D01*
X146467920Y-138203713D01*
X146419631Y-138174118D01*
X146405500Y-138130625D01*
X146405500Y-137369374D01*
X146427174Y-137317048D01*
X146479500Y-137295374D01*
X146519030Y-137308219D01*
X146519204Y-137307879D01*
X146521352Y-137308973D01*
X146523000Y-137309509D01*
X146524389Y-137310518D01*
X146524393Y-137310522D01*
X146524398Y-137310524D01*
X146524400Y-137310526D01*
X146631385Y-137365038D01*
X146631388Y-137365038D01*
X146631391Y-137365040D01*
X146750000Y-137383826D01*
X146868609Y-137365040D01*
X146868612Y-137365038D01*
X146868614Y-137365038D01*
X146975605Y-137310523D01*
X146975604Y-137310523D01*
X146975607Y-137310522D01*
X147060522Y-137225607D01*
X147094500Y-137158921D01*
X147115038Y-137118614D01*
X147115038Y-137118612D01*
X147115040Y-137118609D01*
X147133826Y-137000000D01*
X147616174Y-137000000D01*
X147634960Y-137118609D01*
X147634961Y-137118614D01*
X147689476Y-137225605D01*
X147774394Y-137310523D01*
X147881385Y-137365038D01*
X147881388Y-137365038D01*
X147881391Y-137365040D01*
X148000000Y-137383826D01*
X148118609Y-137365040D01*
X148118612Y-137365038D01*
X148118614Y-137365038D01*
X148225605Y-137310523D01*
X148225604Y-137310523D01*
X148225607Y-137310522D01*
X148310522Y-137225607D01*
X148344500Y-137158921D01*
X148365038Y-137118614D01*
X148365038Y-137118612D01*
X148365040Y-137118609D01*
X148383826Y-137000000D01*
X148866174Y-137000000D01*
X148884960Y-137118609D01*
X148884961Y-137118614D01*
X148939476Y-137225605D01*
X149024394Y-137310523D01*
X149131385Y-137365038D01*
X149131388Y-137365038D01*
X149131391Y-137365040D01*
X149250000Y-137383826D01*
X149368609Y-137365040D01*
X149368612Y-137365038D01*
X149368614Y-137365038D01*
X149475605Y-137310523D01*
X149475604Y-137310523D01*
X149475607Y-137310522D01*
X149560522Y-137225607D01*
X149594500Y-137158921D01*
X149615038Y-137118614D01*
X149615038Y-137118612D01*
X149615040Y-137118609D01*
X149633826Y-137000000D01*
X149615040Y-136881391D01*
X149615038Y-136881388D01*
X149615038Y-136881385D01*
X149560523Y-136774394D01*
X149475605Y-136689476D01*
X149368614Y-136634961D01*
X149368609Y-136634960D01*
X149250000Y-136616174D01*
X149131390Y-136634960D01*
X149131385Y-136634961D01*
X149024394Y-136689476D01*
X148939476Y-136774394D01*
X148884961Y-136881385D01*
X148884960Y-136881390D01*
X148866174Y-137000000D01*
X148383826Y-137000000D01*
X148365040Y-136881391D01*
X148365038Y-136881388D01*
X148365038Y-136881385D01*
X148310523Y-136774394D01*
X148225605Y-136689476D01*
X148118614Y-136634961D01*
X148118609Y-136634960D01*
X148000000Y-136616174D01*
X147881390Y-136634960D01*
X147881385Y-136634961D01*
X147774394Y-136689476D01*
X147689476Y-136774394D01*
X147634961Y-136881385D01*
X147634960Y-136881390D01*
X147616174Y-137000000D01*
X147133826Y-137000000D01*
X147115040Y-136881391D01*
X147115038Y-136881388D01*
X147115038Y-136881385D01*
X147060523Y-136774394D01*
X146975605Y-136689476D01*
X146868614Y-136634961D01*
X146868609Y-136634960D01*
X146750000Y-136616174D01*
X146631390Y-136634960D01*
X146631385Y-136634961D01*
X146524392Y-136689477D01*
X146522993Y-136690494D01*
X146521866Y-136690764D01*
X146519204Y-136692121D01*
X146518878Y-136691481D01*
X146467920Y-136703713D01*
X146419631Y-136674118D01*
X146405500Y-136630625D01*
X146405500Y-136623999D01*
X146405018Y-136619516D01*
X146401946Y-136590945D01*
X146390740Y-136539434D01*
X146356313Y-136470658D01*
X146333954Y-136444854D01*
X146310562Y-136417858D01*
X146305581Y-136412380D01*
X146305580Y-136412379D01*
X146236850Y-136370484D01*
X146236846Y-136370483D01*
X146236845Y-136370482D01*
X146169812Y-136350799D01*
X146126004Y-136344500D01*
X146126000Y-136344500D01*
X141246157Y-136344500D01*
X141193831Y-136322826D01*
X141173068Y-136282076D01*
X141171234Y-136270500D01*
X141165040Y-136231391D01*
X141165038Y-136231388D01*
X141165038Y-136231385D01*
X141110523Y-136124394D01*
X141025605Y-136039476D01*
X140918614Y-135984961D01*
X140918609Y-135984960D01*
X140800000Y-135966174D01*
X140681390Y-135984960D01*
X140681385Y-135984961D01*
X140574394Y-136039476D01*
X140489476Y-136124394D01*
X140434961Y-136231385D01*
X140434960Y-136231390D01*
X140418098Y-136337852D01*
X140388505Y-136386143D01*
X140333433Y-136399365D01*
X140306494Y-136389463D01*
X140275357Y-136370483D01*
X140275353Y-136370482D01*
X140208320Y-136350799D01*
X140164512Y-136344500D01*
X140164508Y-136344500D01*
X139279500Y-136344500D01*
X139227174Y-136322826D01*
X139205500Y-136270500D01*
X139205500Y-135750000D01*
X146366174Y-135750000D01*
X146384960Y-135868609D01*
X146384961Y-135868614D01*
X146439476Y-135975605D01*
X146524394Y-136060523D01*
X146631385Y-136115038D01*
X146631388Y-136115038D01*
X146631391Y-136115040D01*
X146750000Y-136133826D01*
X146868609Y-136115040D01*
X146868612Y-136115038D01*
X146868614Y-136115038D01*
X146975605Y-136060523D01*
X146975604Y-136060523D01*
X146975607Y-136060522D01*
X147060522Y-135975607D01*
X147086134Y-135925340D01*
X147115038Y-135868614D01*
X147115038Y-135868612D01*
X147115040Y-135868609D01*
X147133826Y-135750000D01*
X147616174Y-135750000D01*
X147634960Y-135868609D01*
X147634961Y-135868614D01*
X147689476Y-135975605D01*
X147774394Y-136060523D01*
X147881385Y-136115038D01*
X147881388Y-136115038D01*
X147881391Y-136115040D01*
X148000000Y-136133826D01*
X148118609Y-136115040D01*
X148118612Y-136115038D01*
X148118614Y-136115038D01*
X148225605Y-136060523D01*
X148225604Y-136060523D01*
X148225607Y-136060522D01*
X148310522Y-135975607D01*
X148336134Y-135925340D01*
X148365038Y-135868614D01*
X148365038Y-135868612D01*
X148365040Y-135868609D01*
X148383826Y-135750000D01*
X148866174Y-135750000D01*
X148884960Y-135868609D01*
X148884961Y-135868614D01*
X148939476Y-135975605D01*
X149024394Y-136060523D01*
X149131385Y-136115038D01*
X149131388Y-136115038D01*
X149131391Y-136115040D01*
X149250000Y-136133826D01*
X149368609Y-136115040D01*
X149368612Y-136115038D01*
X149368614Y-136115038D01*
X149475605Y-136060523D01*
X149475604Y-136060523D01*
X149475607Y-136060522D01*
X149560522Y-135975607D01*
X149586134Y-135925340D01*
X149615038Y-135868614D01*
X149615038Y-135868612D01*
X149615040Y-135868609D01*
X149633826Y-135750000D01*
X151616174Y-135750000D01*
X151634960Y-135868609D01*
X151634961Y-135868614D01*
X151689476Y-135975605D01*
X151774394Y-136060523D01*
X151881385Y-136115038D01*
X151881388Y-136115038D01*
X151881391Y-136115040D01*
X152000000Y-136133826D01*
X152118609Y-136115040D01*
X152118612Y-136115038D01*
X152118614Y-136115038D01*
X152225605Y-136060523D01*
X152225604Y-136060523D01*
X152225607Y-136060522D01*
X152310522Y-135975607D01*
X152336134Y-135925340D01*
X152365038Y-135868614D01*
X152365038Y-135868612D01*
X152365040Y-135868609D01*
X152383826Y-135750000D01*
X152365040Y-135631391D01*
X152365038Y-135631388D01*
X152365038Y-135631385D01*
X152310523Y-135524394D01*
X152225605Y-135439476D01*
X152118614Y-135384961D01*
X152118609Y-135384960D01*
X152000000Y-135366174D01*
X151881390Y-135384960D01*
X151881385Y-135384961D01*
X151774394Y-135439476D01*
X151689476Y-135524394D01*
X151634961Y-135631385D01*
X151634960Y-135631390D01*
X151616174Y-135750000D01*
X149633826Y-135750000D01*
X149615040Y-135631391D01*
X149615038Y-135631388D01*
X149615038Y-135631385D01*
X149560523Y-135524394D01*
X149475605Y-135439476D01*
X149368614Y-135384961D01*
X149368609Y-135384960D01*
X149250000Y-135366174D01*
X149131390Y-135384960D01*
X149131385Y-135384961D01*
X149024394Y-135439476D01*
X148939476Y-135524394D01*
X148884961Y-135631385D01*
X148884960Y-135631390D01*
X148866174Y-135750000D01*
X148383826Y-135750000D01*
X148365040Y-135631391D01*
X148365038Y-135631388D01*
X148365038Y-135631385D01*
X148310523Y-135524394D01*
X148225605Y-135439476D01*
X148118614Y-135384961D01*
X148118609Y-135384960D01*
X148000000Y-135366174D01*
X147881390Y-135384960D01*
X147881385Y-135384961D01*
X147774394Y-135439476D01*
X147689476Y-135524394D01*
X147634961Y-135631385D01*
X147634960Y-135631390D01*
X147616174Y-135750000D01*
X147133826Y-135750000D01*
X147115040Y-135631391D01*
X147115038Y-135631388D01*
X147115038Y-135631385D01*
X147060523Y-135524394D01*
X146975605Y-135439476D01*
X146868614Y-135384961D01*
X146868609Y-135384960D01*
X146750000Y-135366174D01*
X146631390Y-135384960D01*
X146631385Y-135384961D01*
X146524394Y-135439476D01*
X146439476Y-135524394D01*
X146384961Y-135631385D01*
X146384960Y-135631390D01*
X146366174Y-135750000D01*
X139205500Y-135750000D01*
X139205500Y-127623999D01*
X139205117Y-127620445D01*
X139201946Y-127590945D01*
X139190740Y-127539434D01*
X139156313Y-127470658D01*
X139147162Y-127460097D01*
X139110562Y-127417858D01*
X139105581Y-127412380D01*
X139105580Y-127412379D01*
X139036850Y-127370484D01*
X139036846Y-127370483D01*
X139036845Y-127370482D01*
X138969812Y-127350799D01*
X138926004Y-127344500D01*
X138926000Y-127344500D01*
X132124500Y-127344500D01*
X132124499Y-127344500D01*
X132091440Y-127348054D01*
X132090220Y-127348320D01*
X132090021Y-127348284D01*
X132089486Y-127348371D01*
X132089455Y-127348181D01*
X132034484Y-127338256D01*
X132002189Y-127291729D01*
X132000500Y-127276009D01*
X132000500Y-120250000D01*
X133616174Y-120250000D01*
X133634960Y-120368609D01*
X133634961Y-120368614D01*
X133689476Y-120475605D01*
X133774394Y-120560523D01*
X133881385Y-120615038D01*
X133881388Y-120615038D01*
X133881391Y-120615040D01*
X134000000Y-120633826D01*
X134118609Y-120615040D01*
X134118612Y-120615038D01*
X134118614Y-120615038D01*
X134225605Y-120560523D01*
X134225604Y-120560523D01*
X134225607Y-120560522D01*
X134310522Y-120475607D01*
X134328095Y-120441118D01*
X134365038Y-120368614D01*
X134365038Y-120368612D01*
X134365040Y-120368609D01*
X134383826Y-120250000D01*
X134365040Y-120131391D01*
X134365038Y-120131388D01*
X134365038Y-120131385D01*
X134310523Y-120024394D01*
X134225605Y-119939476D01*
X134118614Y-119884961D01*
X134118609Y-119884960D01*
X134000000Y-119866174D01*
X133881390Y-119884960D01*
X133881385Y-119884961D01*
X133774394Y-119939476D01*
X133689476Y-120024394D01*
X133634961Y-120131385D01*
X133634960Y-120131390D01*
X133616174Y-120250000D01*
X132000500Y-120250000D01*
X132000500Y-107660180D01*
X132599500Y-107660180D01*
X132599500Y-109389820D01*
X132608233Y-109433722D01*
X132641496Y-109483504D01*
X132691278Y-109516767D01*
X132735180Y-109525500D01*
X132735181Y-109525500D01*
X134464819Y-109525500D01*
X134464820Y-109525500D01*
X134508722Y-109516767D01*
X134558504Y-109483504D01*
X134591767Y-109433722D01*
X134600500Y-109389820D01*
X134600500Y-107660180D01*
X134591767Y-107616278D01*
X134558504Y-107566496D01*
X134549563Y-107560522D01*
X134508722Y-107533233D01*
X134464820Y-107524500D01*
X132735180Y-107524500D01*
X132713229Y-107528866D01*
X132691277Y-107533233D01*
X132641496Y-107566495D01*
X132641495Y-107566496D01*
X132608233Y-107616277D01*
X132604742Y-107633826D01*
X132599500Y-107660180D01*
X132000500Y-107660180D01*
X132000500Y-105985000D01*
X132594659Y-105985000D01*
X132613976Y-106181133D01*
X132671187Y-106369731D01*
X132706536Y-106435863D01*
X132764090Y-106543538D01*
X132889117Y-106695883D01*
X133041462Y-106820910D01*
X133083972Y-106843632D01*
X133215268Y-106913812D01*
X133215270Y-106913812D01*
X133215273Y-106913814D01*
X133403868Y-106971024D01*
X133600000Y-106990341D01*
X133796132Y-106971024D01*
X133984727Y-106913814D01*
X134158538Y-106820910D01*
X134310883Y-106695883D01*
X134435910Y-106543538D01*
X134528814Y-106369727D01*
X134586024Y-106181132D01*
X134605341Y-105985000D01*
X134586024Y-105788868D01*
X134528814Y-105600273D01*
X134528812Y-105600270D01*
X134528812Y-105600268D01*
X134477048Y-105503426D01*
X134435910Y-105426462D01*
X134310883Y-105274117D01*
X134158538Y-105149090D01*
X134148597Y-105143776D01*
X133984731Y-105056187D01*
X133796133Y-104998976D01*
X133600000Y-104979659D01*
X133403866Y-104998976D01*
X133215268Y-105056187D01*
X133041463Y-105149089D01*
X132889117Y-105274117D01*
X132764089Y-105426463D01*
X132671187Y-105600268D01*
X132613976Y-105788866D01*
X132594659Y-105985000D01*
X132000500Y-105985000D01*
X132000500Y-102315000D01*
X132594659Y-102315000D01*
X132613976Y-102511133D01*
X132671187Y-102699731D01*
X132737821Y-102824393D01*
X132764090Y-102873538D01*
X132889117Y-103025883D01*
X133041462Y-103150910D01*
X133074584Y-103168614D01*
X133215268Y-103243812D01*
X133215270Y-103243812D01*
X133215273Y-103243814D01*
X133403868Y-103301024D01*
X133600000Y-103320341D01*
X133796132Y-103301024D01*
X133984727Y-103243814D01*
X134158538Y-103150910D01*
X134310883Y-103025883D01*
X134435910Y-102873538D01*
X134528814Y-102699727D01*
X134586024Y-102511132D01*
X134605341Y-102315000D01*
X134586024Y-102118868D01*
X134528814Y-101930273D01*
X134528812Y-101930270D01*
X134528812Y-101930268D01*
X134435910Y-101756462D01*
X134392928Y-101704089D01*
X134310883Y-101604117D01*
X134158538Y-101479090D01*
X134148597Y-101473776D01*
X133984731Y-101386187D01*
X133796133Y-101328976D01*
X133600000Y-101309659D01*
X133403866Y-101328976D01*
X133215268Y-101386187D01*
X133041463Y-101479089D01*
X132889117Y-101604117D01*
X132764090Y-101756462D01*
X132671187Y-101930268D01*
X132613976Y-102118866D01*
X132594659Y-102315000D01*
X132000500Y-102315000D01*
X132000500Y-98910180D01*
X132599500Y-98910180D01*
X132599500Y-100639819D01*
X132608233Y-100683722D01*
X132626380Y-100710882D01*
X132641496Y-100733504D01*
X132691278Y-100766767D01*
X132735180Y-100775500D01*
X132735181Y-100775500D01*
X134464819Y-100775500D01*
X134464820Y-100775500D01*
X134508722Y-100766767D01*
X134558504Y-100733504D01*
X134591767Y-100683722D01*
X134600500Y-100639820D01*
X134600500Y-99400000D01*
X135066174Y-99400000D01*
X135084960Y-99518609D01*
X135084961Y-99518614D01*
X135139476Y-99625605D01*
X135224394Y-99710523D01*
X135331385Y-99765038D01*
X135331388Y-99765038D01*
X135331391Y-99765040D01*
X135450000Y-99783826D01*
X135568609Y-99765040D01*
X135568612Y-99765038D01*
X135568614Y-99765038D01*
X135675605Y-99710523D01*
X135675604Y-99710523D01*
X135675607Y-99710522D01*
X135760522Y-99625607D01*
X135765790Y-99615268D01*
X135815038Y-99518614D01*
X135815038Y-99518612D01*
X135815040Y-99518609D01*
X135833826Y-99400000D01*
X135815040Y-99281391D01*
X135815038Y-99281388D01*
X135815038Y-99281385D01*
X135760523Y-99174394D01*
X135675605Y-99089476D01*
X135568614Y-99034961D01*
X135568609Y-99034960D01*
X135450000Y-99016174D01*
X135331390Y-99034960D01*
X135331385Y-99034961D01*
X135224394Y-99089476D01*
X135139476Y-99174394D01*
X135084961Y-99281385D01*
X135084960Y-99281390D01*
X135066174Y-99400000D01*
X134600500Y-99400000D01*
X134600500Y-98910180D01*
X134591767Y-98866278D01*
X134558504Y-98816496D01*
X134508722Y-98783233D01*
X134464820Y-98774500D01*
X132735180Y-98774500D01*
X132713229Y-98778866D01*
X132691277Y-98783233D01*
X132641496Y-98816495D01*
X132641495Y-98816496D01*
X132608233Y-98866277D01*
X132599500Y-98910180D01*
X132000500Y-98910180D01*
X132000500Y-96299996D01*
X132294571Y-96299996D01*
X132294571Y-96300003D01*
X132314242Y-96512303D01*
X132314243Y-96512309D01*
X132372593Y-96717383D01*
X132372596Y-96717393D01*
X132467632Y-96908252D01*
X132467636Y-96908258D01*
X132512814Y-96968082D01*
X132596128Y-97078407D01*
X132753698Y-97222052D01*
X132934981Y-97334298D01*
X133133802Y-97411321D01*
X133343390Y-97450500D01*
X133556610Y-97450500D01*
X133766198Y-97411321D01*
X133965019Y-97334298D01*
X134146302Y-97222052D01*
X134303872Y-97078407D01*
X134432366Y-96908255D01*
X134527405Y-96717389D01*
X134585756Y-96512310D01*
X134593104Y-96433018D01*
X134605429Y-96300003D01*
X134605429Y-96299996D01*
X134585757Y-96087696D01*
X134585756Y-96087690D01*
X134536714Y-95915328D01*
X134527405Y-95882611D01*
X134507195Y-95842024D01*
X134432367Y-95691747D01*
X134432363Y-95691741D01*
X134371029Y-95610523D01*
X134303872Y-95521593D01*
X134146302Y-95377948D01*
X133965019Y-95265702D01*
X133766198Y-95188679D01*
X133674150Y-95171472D01*
X133556613Y-95149500D01*
X133556610Y-95149500D01*
X133343390Y-95149500D01*
X133343386Y-95149500D01*
X133192336Y-95177737D01*
X133133802Y-95188679D01*
X133133800Y-95188679D01*
X133133798Y-95188680D01*
X132971447Y-95251575D01*
X132934981Y-95265702D01*
X132934976Y-95265704D01*
X132934976Y-95265705D01*
X132753700Y-95377946D01*
X132596130Y-95521590D01*
X132467636Y-95691741D01*
X132467632Y-95691747D01*
X132372596Y-95882606D01*
X132372593Y-95882616D01*
X132314243Y-96087690D01*
X132314242Y-96087696D01*
X132294571Y-96299996D01*
X132000500Y-96299996D01*
X132000500Y-87685180D01*
X132299500Y-87685180D01*
X132299500Y-89714819D01*
X132308233Y-89758722D01*
X132333391Y-89796375D01*
X132341496Y-89808504D01*
X132391278Y-89841767D01*
X132435180Y-89850500D01*
X132435181Y-89850500D01*
X134464819Y-89850500D01*
X134464820Y-89850500D01*
X134508722Y-89841767D01*
X134558504Y-89808504D01*
X134591767Y-89758722D01*
X134600500Y-89714820D01*
X134600500Y-88149057D01*
X134622174Y-88096731D01*
X134929429Y-87789476D01*
X135242256Y-87476648D01*
X135294581Y-87454975D01*
X135346907Y-87476649D01*
X135368581Y-87528975D01*
X135367670Y-87540548D01*
X135366174Y-87549995D01*
X135366174Y-87549999D01*
X135366174Y-87550000D01*
X135383057Y-87656594D01*
X135384960Y-87668609D01*
X135384961Y-87668614D01*
X135439476Y-87775605D01*
X135524394Y-87860523D01*
X135631385Y-87915038D01*
X135631388Y-87915038D01*
X135631391Y-87915040D01*
X135750000Y-87933826D01*
X135868609Y-87915040D01*
X135868612Y-87915038D01*
X135868614Y-87915038D01*
X135975605Y-87860523D01*
X135975604Y-87860523D01*
X135975607Y-87860522D01*
X136060522Y-87775607D01*
X136071288Y-87754478D01*
X136115038Y-87668614D01*
X136115038Y-87668612D01*
X136115040Y-87668609D01*
X136133826Y-87550000D01*
X136115040Y-87431391D01*
X136115038Y-87431388D01*
X136115038Y-87431385D01*
X136060523Y-87324394D01*
X135975605Y-87239476D01*
X135868614Y-87184961D01*
X135868609Y-87184960D01*
X135750000Y-87166174D01*
X135749996Y-87166174D01*
X135740548Y-87167670D01*
X135685477Y-87154447D01*
X135655886Y-87106154D01*
X135669109Y-87051083D01*
X135676643Y-87042261D01*
X137871731Y-84847174D01*
X137924057Y-84825500D01*
X138596525Y-84825500D01*
X138596533Y-84825501D01*
X138676941Y-84825501D01*
X138729267Y-84847175D01*
X138750941Y-84899501D01*
X138729267Y-84951827D01*
X138558829Y-85122264D01*
X138555162Y-85131120D01*
X138555161Y-85131123D01*
X138524499Y-85205144D01*
X138524499Y-85303466D01*
X138524500Y-85303475D01*
X138524500Y-85308719D01*
X138502826Y-85361045D01*
X138439476Y-85424394D01*
X138384961Y-85531385D01*
X138384960Y-85531390D01*
X138366174Y-85650000D01*
X138384960Y-85768609D01*
X138384961Y-85768614D01*
X138439476Y-85875605D01*
X138524394Y-85960523D01*
X138631385Y-86015038D01*
X138631388Y-86015038D01*
X138631391Y-86015040D01*
X138750000Y-86033826D01*
X138868609Y-86015040D01*
X138868612Y-86015038D01*
X138868614Y-86015038D01*
X138975605Y-85960523D01*
X138975604Y-85960523D01*
X138975607Y-85960522D01*
X139060522Y-85875607D01*
X139081233Y-85834960D01*
X139115038Y-85768614D01*
X139115038Y-85768612D01*
X139115040Y-85768609D01*
X139133826Y-85650000D01*
X139115040Y-85531391D01*
X139115038Y-85531388D01*
X139115038Y-85531385D01*
X139060523Y-85424394D01*
X139029842Y-85393713D01*
X139008168Y-85341387D01*
X139029840Y-85289064D01*
X139317485Y-85001418D01*
X139369811Y-84979745D01*
X139422137Y-85001419D01*
X139435743Y-85020146D01*
X139478256Y-85103583D01*
X139489478Y-85125607D01*
X139552826Y-85188955D01*
X139574500Y-85241281D01*
X139574500Y-89375942D01*
X139552826Y-89428268D01*
X139008830Y-89972263D01*
X138998774Y-89996536D01*
X138998775Y-89996537D01*
X138974499Y-90055146D01*
X138974499Y-90153466D01*
X138974500Y-90153475D01*
X138974500Y-103849173D01*
X138974499Y-103849187D01*
X138974499Y-103944855D01*
X138985853Y-103972265D01*
X139008829Y-104027734D01*
X139008831Y-104027737D01*
X139082671Y-104101577D01*
X139082673Y-104101578D01*
X146552826Y-111571731D01*
X146574500Y-111624057D01*
X146574500Y-111677860D01*
X146552826Y-111730186D01*
X146500500Y-111751860D01*
X146448174Y-111730186D01*
X146443968Y-111725062D01*
X146373521Y-111654615D01*
X146373514Y-111654609D01*
X138747174Y-104028269D01*
X138725500Y-103975943D01*
X138725500Y-89624057D01*
X138747174Y-89571731D01*
X138783885Y-89535020D01*
X138830968Y-89487936D01*
X138883293Y-89466263D01*
X138894858Y-89467173D01*
X139000000Y-89483826D01*
X139118609Y-89465040D01*
X139118612Y-89465038D01*
X139118614Y-89465038D01*
X139225605Y-89410523D01*
X139225604Y-89410523D01*
X139225607Y-89410522D01*
X139310522Y-89325607D01*
X139333054Y-89281385D01*
X139365038Y-89218614D01*
X139365038Y-89218612D01*
X139365040Y-89218609D01*
X139383826Y-89100000D01*
X139365040Y-88981391D01*
X139365038Y-88981388D01*
X139365038Y-88981385D01*
X139310523Y-88874394D01*
X139225605Y-88789476D01*
X139118614Y-88734961D01*
X139118609Y-88734960D01*
X139000000Y-88716174D01*
X138881390Y-88734960D01*
X138881385Y-88734961D01*
X138774394Y-88789476D01*
X138689478Y-88874392D01*
X138634959Y-88981393D01*
X138626536Y-89034571D01*
X138605773Y-89075319D01*
X138372265Y-89308829D01*
X138308829Y-89372264D01*
X138308828Y-89372266D01*
X138305161Y-89381121D01*
X138305160Y-89381125D01*
X138274499Y-89455144D01*
X138274499Y-89553466D01*
X138274500Y-89553475D01*
X138274500Y-104049173D01*
X138274499Y-104049187D01*
X138274499Y-104144856D01*
X138298773Y-104203458D01*
X138308829Y-104227734D01*
X138308832Y-104227738D01*
X138382671Y-104301577D01*
X138382673Y-104301578D01*
X146002826Y-111921731D01*
X146024500Y-111974057D01*
X146024500Y-131149173D01*
X146024499Y-131149187D01*
X146024499Y-131155145D01*
X146024499Y-131244855D01*
X146045210Y-131294855D01*
X146058830Y-131327736D01*
X146122264Y-131391170D01*
X146132671Y-131401577D01*
X146132673Y-131401578D01*
X146798389Y-132067294D01*
X146820063Y-132119620D01*
X146819152Y-132131195D01*
X146816174Y-132149999D01*
X146816174Y-132151393D01*
X146815816Y-132152255D01*
X146815263Y-132155752D01*
X146814423Y-132155619D01*
X146794500Y-132203719D01*
X146742174Y-132225393D01*
X146689848Y-132203719D01*
X146625605Y-132139476D01*
X146518614Y-132084961D01*
X146518609Y-132084960D01*
X146400000Y-132066174D01*
X146381195Y-132069152D01*
X146326123Y-132055929D01*
X146317294Y-132048389D01*
X145747174Y-131478269D01*
X145725500Y-131425943D01*
X145725500Y-130255145D01*
X145725499Y-130255143D01*
X145691171Y-130172266D01*
X145691169Y-130172263D01*
X145623521Y-130104615D01*
X145623514Y-130104609D01*
X143468905Y-127950000D01*
X144216174Y-127950000D01*
X144234960Y-128068609D01*
X144234961Y-128068614D01*
X144289476Y-128175605D01*
X144374394Y-128260523D01*
X144481385Y-128315038D01*
X144481388Y-128315038D01*
X144481391Y-128315040D01*
X144600000Y-128333826D01*
X144718609Y-128315040D01*
X144718612Y-128315038D01*
X144718614Y-128315038D01*
X144825605Y-128260523D01*
X144825604Y-128260523D01*
X144825607Y-128260522D01*
X144910522Y-128175607D01*
X144912355Y-128172008D01*
X144965038Y-128068614D01*
X144965038Y-128068612D01*
X144965040Y-128068609D01*
X144983826Y-127950000D01*
X144965040Y-127831391D01*
X144965038Y-127831388D01*
X144965038Y-127831385D01*
X144910523Y-127724394D01*
X144825605Y-127639476D01*
X144718614Y-127584961D01*
X144718609Y-127584960D01*
X144600000Y-127566174D01*
X144481390Y-127584960D01*
X144481385Y-127584961D01*
X144374394Y-127639476D01*
X144289476Y-127724394D01*
X144234961Y-127831385D01*
X144234960Y-127831390D01*
X144216174Y-127950000D01*
X143468905Y-127950000D01*
X137847174Y-122328269D01*
X137825500Y-122275943D01*
X137825500Y-120900000D01*
X139163974Y-120900000D01*
X139182760Y-121018609D01*
X139182761Y-121018614D01*
X139237276Y-121125605D01*
X139322194Y-121210523D01*
X139429185Y-121265038D01*
X139429188Y-121265038D01*
X139429191Y-121265040D01*
X139547800Y-121283826D01*
X139666409Y-121265040D01*
X139666412Y-121265038D01*
X139666414Y-121265038D01*
X139773405Y-121210523D01*
X139773404Y-121210523D01*
X139773407Y-121210522D01*
X139858322Y-121125607D01*
X139860095Y-121122125D01*
X139912837Y-121018616D01*
X139912837Y-121018614D01*
X139912840Y-121018609D01*
X139914608Y-121007439D01*
X139935369Y-120966690D01*
X144996560Y-115905500D01*
X145042333Y-115886540D01*
X145042048Y-115884737D01*
X145047799Y-115883825D01*
X145047800Y-115883826D01*
X145166409Y-115865040D01*
X145166412Y-115865038D01*
X145166414Y-115865038D01*
X145273405Y-115810523D01*
X145273404Y-115810523D01*
X145273407Y-115810522D01*
X145358322Y-115725607D01*
X145383799Y-115675605D01*
X145412838Y-115618614D01*
X145412838Y-115618612D01*
X145412840Y-115618609D01*
X145431626Y-115500000D01*
X145412840Y-115381391D01*
X145412838Y-115381388D01*
X145412838Y-115381385D01*
X145358323Y-115274394D01*
X145273405Y-115189476D01*
X145166414Y-115134961D01*
X145166409Y-115134960D01*
X145047800Y-115116174D01*
X144929190Y-115134960D01*
X144929185Y-115134961D01*
X144822194Y-115189476D01*
X144737276Y-115274394D01*
X144682761Y-115381385D01*
X144682760Y-115381390D01*
X144663063Y-115505752D01*
X144661259Y-115505466D01*
X144642300Y-115551238D01*
X139686310Y-120507227D01*
X139633984Y-120528901D01*
X139622409Y-120527990D01*
X139547801Y-120516174D01*
X139547800Y-120516174D01*
X139429190Y-120534960D01*
X139429185Y-120534961D01*
X139322194Y-120589476D01*
X139237276Y-120674394D01*
X139182761Y-120781385D01*
X139182760Y-120781390D01*
X139163974Y-120900000D01*
X137825500Y-120900000D01*
X137825500Y-115450000D01*
X140420338Y-115450000D01*
X140439124Y-115568609D01*
X140439125Y-115568614D01*
X140493640Y-115675605D01*
X140578558Y-115760523D01*
X140685549Y-115815038D01*
X140685552Y-115815038D01*
X140685555Y-115815040D01*
X140804164Y-115833826D01*
X140922773Y-115815040D01*
X140922776Y-115815038D01*
X140922778Y-115815038D01*
X141029769Y-115760523D01*
X141029768Y-115760523D01*
X141029771Y-115760522D01*
X141114686Y-115675607D01*
X141116519Y-115672008D01*
X141169202Y-115568614D01*
X141169202Y-115568612D01*
X141169204Y-115568609D01*
X141187990Y-115450000D01*
X141169204Y-115331391D01*
X141169202Y-115331388D01*
X141169202Y-115331385D01*
X141114687Y-115224394D01*
X141029769Y-115139476D01*
X140922778Y-115084961D01*
X140922773Y-115084960D01*
X140804164Y-115066174D01*
X140685554Y-115084960D01*
X140685549Y-115084961D01*
X140578558Y-115139476D01*
X140493640Y-115224394D01*
X140439125Y-115331385D01*
X140439124Y-115331390D01*
X140420338Y-115450000D01*
X137825500Y-115450000D01*
X137825500Y-114500000D01*
X144616174Y-114500000D01*
X144634960Y-114618609D01*
X144634961Y-114618614D01*
X144689476Y-114725605D01*
X144774394Y-114810523D01*
X144881385Y-114865038D01*
X144881388Y-114865038D01*
X144881391Y-114865040D01*
X145000000Y-114883826D01*
X145118609Y-114865040D01*
X145118612Y-114865038D01*
X145118614Y-114865038D01*
X145225605Y-114810523D01*
X145225604Y-114810523D01*
X145225607Y-114810522D01*
X145310522Y-114725607D01*
X145312355Y-114722008D01*
X145365038Y-114618614D01*
X145365038Y-114618612D01*
X145365040Y-114618609D01*
X145383826Y-114500000D01*
X145365040Y-114381391D01*
X145365038Y-114381388D01*
X145365038Y-114381385D01*
X145310523Y-114274394D01*
X145225605Y-114189476D01*
X145118614Y-114134961D01*
X145118609Y-114134960D01*
X145000000Y-114116174D01*
X144881390Y-114134960D01*
X144881385Y-114134961D01*
X144774394Y-114189476D01*
X144689476Y-114274394D01*
X144634961Y-114381385D01*
X144634960Y-114381390D01*
X144616174Y-114500000D01*
X137825500Y-114500000D01*
X137825500Y-111900000D01*
X144463974Y-111900000D01*
X144482760Y-112018609D01*
X144482761Y-112018614D01*
X144537276Y-112125605D01*
X144622194Y-112210523D01*
X144729185Y-112265038D01*
X144729188Y-112265038D01*
X144729191Y-112265040D01*
X144847800Y-112283826D01*
X144966409Y-112265040D01*
X144966412Y-112265038D01*
X144966414Y-112265038D01*
X145073405Y-112210523D01*
X145073404Y-112210523D01*
X145073407Y-112210522D01*
X145158322Y-112125607D01*
X145179033Y-112084960D01*
X145212838Y-112018614D01*
X145212838Y-112018612D01*
X145212840Y-112018609D01*
X145231626Y-111900000D01*
X145212840Y-111781391D01*
X145212838Y-111781388D01*
X145212838Y-111781385D01*
X145158323Y-111674394D01*
X145073405Y-111589476D01*
X144966414Y-111534961D01*
X144966409Y-111534960D01*
X144847800Y-111516174D01*
X144729190Y-111534960D01*
X144729185Y-111534961D01*
X144622194Y-111589476D01*
X144537276Y-111674394D01*
X144482761Y-111781385D01*
X144482760Y-111781390D01*
X144463974Y-111900000D01*
X137825500Y-111900000D01*
X137825500Y-88224057D01*
X137847174Y-88171731D01*
X137971731Y-88047174D01*
X138112039Y-87906865D01*
X138164364Y-87885192D01*
X138216690Y-87906866D01*
X138238364Y-87959192D01*
X138235762Y-87975621D01*
X138235871Y-87975639D01*
X138216174Y-88100000D01*
X138234960Y-88218609D01*
X138234961Y-88218614D01*
X138289476Y-88325605D01*
X138374394Y-88410523D01*
X138481385Y-88465038D01*
X138481388Y-88465038D01*
X138481391Y-88465040D01*
X138600000Y-88483826D01*
X138718609Y-88465040D01*
X138718612Y-88465038D01*
X138718614Y-88465038D01*
X138825605Y-88410523D01*
X138825604Y-88410523D01*
X138825607Y-88410522D01*
X138910522Y-88325607D01*
X138941078Y-88265638D01*
X138965038Y-88218614D01*
X138965038Y-88218612D01*
X138965040Y-88218609D01*
X138983826Y-88100000D01*
X138965040Y-87981391D01*
X138965038Y-87981388D01*
X138965038Y-87981385D01*
X138910523Y-87874394D01*
X138825605Y-87789476D01*
X138718614Y-87734961D01*
X138718609Y-87734960D01*
X138600000Y-87716174D01*
X138475639Y-87735871D01*
X138475377Y-87734218D01*
X138425588Y-87730294D01*
X138388811Y-87687222D01*
X138393262Y-87630760D01*
X138406863Y-87612041D01*
X138692647Y-87326257D01*
X138744972Y-87304584D01*
X138778567Y-87312649D01*
X138881390Y-87365040D01*
X138897607Y-87367608D01*
X139000000Y-87383826D01*
X139118609Y-87365040D01*
X139118612Y-87365038D01*
X139118614Y-87365038D01*
X139225605Y-87310523D01*
X139225604Y-87310523D01*
X139225607Y-87310522D01*
X139310522Y-87225607D01*
X139331233Y-87184960D01*
X139365038Y-87118614D01*
X139365038Y-87118612D01*
X139365040Y-87118609D01*
X139383826Y-87000000D01*
X139365040Y-86881391D01*
X139365038Y-86881388D01*
X139365038Y-86881385D01*
X139310523Y-86774394D01*
X139225605Y-86689476D01*
X139118614Y-86634961D01*
X139118609Y-86634960D01*
X139000000Y-86616174D01*
X138881390Y-86634960D01*
X138881385Y-86634961D01*
X138774394Y-86689476D01*
X138711046Y-86752825D01*
X138662282Y-86773023D01*
X138662293Y-86773077D01*
X138662023Y-86773130D01*
X138658720Y-86774499D01*
X138655144Y-86774499D01*
X138625574Y-86786747D01*
X138568937Y-86786747D01*
X138528889Y-86746698D01*
X138528889Y-86690061D01*
X138531322Y-86684784D01*
X138541382Y-86665040D01*
X138565040Y-86618609D01*
X138583826Y-86500000D01*
X138565040Y-86381391D01*
X138565038Y-86381388D01*
X138565038Y-86381385D01*
X138510523Y-86274394D01*
X138425605Y-86189476D01*
X138318614Y-86134961D01*
X138318609Y-86134960D01*
X138200000Y-86116174D01*
X138081390Y-86134960D01*
X138081385Y-86134961D01*
X137974394Y-86189476D01*
X137889476Y-86274394D01*
X137834961Y-86381385D01*
X137834960Y-86381390D01*
X137834960Y-86381391D01*
X137816174Y-86500000D01*
X137817840Y-86510522D01*
X137819152Y-86518802D01*
X137805930Y-86573874D01*
X137798389Y-86582704D01*
X136772265Y-87608829D01*
X136708830Y-87672263D01*
X136704192Y-87683461D01*
X136674499Y-87755144D01*
X136674499Y-87853466D01*
X136674500Y-87853475D01*
X136674500Y-102169109D01*
X136652826Y-102221435D01*
X136600500Y-102243109D01*
X136566905Y-102235044D01*
X136468609Y-102184959D01*
X136350000Y-102166174D01*
X136231390Y-102184960D01*
X136231385Y-102184961D01*
X136124394Y-102239476D01*
X136039476Y-102324394D01*
X135984961Y-102431385D01*
X135984960Y-102431390D01*
X135966174Y-102550000D01*
X135984960Y-102668609D01*
X135984961Y-102668614D01*
X136039476Y-102775605D01*
X136124394Y-102860523D01*
X136231385Y-102915038D01*
X136231388Y-102915038D01*
X136231391Y-102915040D01*
X136350000Y-102933826D01*
X136468609Y-102915040D01*
X136566904Y-102864955D01*
X136623367Y-102860512D01*
X136666434Y-102897294D01*
X136674500Y-102930890D01*
X136674500Y-105025942D01*
X136652826Y-105078268D01*
X135308830Y-106422264D01*
X135303197Y-106435863D01*
X135274499Y-106505144D01*
X135274499Y-106603466D01*
X135274500Y-106603475D01*
X135274500Y-122700832D01*
X135274499Y-122700846D01*
X135274499Y-122796515D01*
X135298773Y-122855117D01*
X135308829Y-122879393D01*
X135308832Y-122879397D01*
X135382671Y-122953236D01*
X135382673Y-122953237D01*
X144919327Y-132489891D01*
X144941001Y-132542217D01*
X144919328Y-132594541D01*
X144889478Y-132624391D01*
X144889474Y-132624397D01*
X144834961Y-132731385D01*
X144834960Y-132731390D01*
X144816174Y-132850000D01*
X144834960Y-132968609D01*
X144834961Y-132968614D01*
X144889476Y-133075605D01*
X144974394Y-133160523D01*
X145081385Y-133215038D01*
X145081388Y-133215038D01*
X145081391Y-133215040D01*
X145200000Y-133233826D01*
X145318609Y-133215040D01*
X145318612Y-133215038D01*
X145318614Y-133215038D01*
X145425605Y-133160523D01*
X145425604Y-133160523D01*
X145425607Y-133160522D01*
X145510522Y-133075607D01*
X145512355Y-133072008D01*
X145565038Y-132968614D01*
X145565038Y-132968612D01*
X145565040Y-132968609D01*
X145583826Y-132850000D01*
X145565040Y-132731391D01*
X145565038Y-132731388D01*
X145565038Y-132731385D01*
X145510523Y-132624394D01*
X145447174Y-132561045D01*
X145425500Y-132508719D01*
X145425500Y-132505134D01*
X145425501Y-132505125D01*
X145425501Y-132406805D01*
X145393181Y-132328778D01*
X145391170Y-132323923D01*
X145327736Y-132260489D01*
X145323521Y-132256274D01*
X145323514Y-132256268D01*
X144515380Y-131448134D01*
X144493706Y-131395808D01*
X144515380Y-131343482D01*
X144534107Y-131329876D01*
X144579258Y-131306871D01*
X144664173Y-131221956D01*
X144675774Y-131199187D01*
X144718689Y-131114963D01*
X144718689Y-131114961D01*
X144718691Y-131114958D01*
X144737477Y-130996349D01*
X144718691Y-130877740D01*
X144718689Y-130877737D01*
X144718689Y-130877734D01*
X144664174Y-130770743D01*
X144579256Y-130685825D01*
X144472265Y-130631310D01*
X144472260Y-130631309D01*
X144353651Y-130612523D01*
X144235041Y-130631309D01*
X144235036Y-130631310D01*
X144128045Y-130685825D01*
X144043127Y-130770743D01*
X144020125Y-130815888D01*
X143977058Y-130852671D01*
X143920596Y-130848227D01*
X143901865Y-130834619D01*
X135747174Y-122679928D01*
X135725500Y-122627602D01*
X135725500Y-120656367D01*
X135747174Y-120604041D01*
X135799500Y-120582367D01*
X135833095Y-120590433D01*
X135881386Y-120615038D01*
X135881388Y-120615038D01*
X135881391Y-120615040D01*
X136000000Y-120633826D01*
X136118609Y-120615040D01*
X136118612Y-120615038D01*
X136118614Y-120615038D01*
X136225605Y-120560523D01*
X136225604Y-120560523D01*
X136225607Y-120560522D01*
X136310522Y-120475607D01*
X136328095Y-120441118D01*
X136365038Y-120368614D01*
X136365038Y-120368612D01*
X136365040Y-120368609D01*
X136383826Y-120250000D01*
X136365040Y-120131391D01*
X136365038Y-120131388D01*
X136365038Y-120131385D01*
X136310523Y-120024394D01*
X136225605Y-119939476D01*
X136118614Y-119884961D01*
X136118609Y-119884960D01*
X136000000Y-119866174D01*
X135881390Y-119884960D01*
X135881388Y-119884960D01*
X135833094Y-119909567D01*
X135776632Y-119914010D01*
X135733565Y-119877226D01*
X135725500Y-119843632D01*
X135725500Y-107250000D01*
X136316174Y-107250000D01*
X136334960Y-107368609D01*
X136334961Y-107368614D01*
X136389476Y-107475605D01*
X136474394Y-107560523D01*
X136581385Y-107615038D01*
X136581388Y-107615038D01*
X136581391Y-107615040D01*
X136700000Y-107633826D01*
X136818609Y-107615040D01*
X136818612Y-107615038D01*
X136818614Y-107615038D01*
X136925605Y-107560523D01*
X136925604Y-107560523D01*
X136925607Y-107560522D01*
X137010522Y-107475607D01*
X137057287Y-107383826D01*
X137065038Y-107368614D01*
X137065038Y-107368612D01*
X137065040Y-107368609D01*
X137083826Y-107250000D01*
X137065040Y-107131391D01*
X137065038Y-107131388D01*
X137065038Y-107131385D01*
X137010523Y-107024394D01*
X136925605Y-106939476D01*
X136818614Y-106884961D01*
X136818609Y-106884960D01*
X136700000Y-106866174D01*
X136581390Y-106884960D01*
X136581385Y-106884961D01*
X136474394Y-106939476D01*
X136389476Y-107024394D01*
X136334961Y-107131385D01*
X136334960Y-107131390D01*
X136316174Y-107250000D01*
X135725500Y-107250000D01*
X135725500Y-106674056D01*
X135747173Y-106621731D01*
X137017327Y-105351576D01*
X137017330Y-105351575D01*
X137027735Y-105341170D01*
X137027736Y-105341170D01*
X137091170Y-105277736D01*
X137101225Y-105253460D01*
X137125501Y-105194855D01*
X137125501Y-105105145D01*
X137125501Y-105099187D01*
X137125500Y-105099173D01*
X137125500Y-87924056D01*
X137147173Y-87871731D01*
X138117294Y-86901609D01*
X138169619Y-86879936D01*
X138181187Y-86880846D01*
X138200000Y-86883826D01*
X138318609Y-86865040D01*
X138318609Y-86865039D01*
X138324361Y-86864129D01*
X138324623Y-86865783D01*
X138374399Y-86869699D01*
X138411185Y-86912764D01*
X138406744Y-86969226D01*
X138393134Y-86987960D01*
X137926119Y-87454975D01*
X137472265Y-87908829D01*
X137408829Y-87972265D01*
X137407493Y-87975492D01*
X137407490Y-87975500D01*
X137374499Y-88055144D01*
X137374499Y-88153466D01*
X137374500Y-88153475D01*
X137374500Y-120159719D01*
X137352826Y-120212045D01*
X137300500Y-120233719D01*
X137248174Y-120212045D01*
X137225605Y-120189476D01*
X137118614Y-120134961D01*
X137118609Y-120134960D01*
X137000000Y-120116174D01*
X136881390Y-120134960D01*
X136881385Y-120134961D01*
X136774394Y-120189476D01*
X136689476Y-120274394D01*
X136634961Y-120381385D01*
X136634960Y-120381390D01*
X136616174Y-120500000D01*
X136634960Y-120618609D01*
X136634961Y-120618614D01*
X136689476Y-120725605D01*
X136774394Y-120810523D01*
X136881385Y-120865038D01*
X136881388Y-120865038D01*
X136881391Y-120865040D01*
X137000000Y-120883826D01*
X137118609Y-120865040D01*
X137118612Y-120865038D01*
X137118614Y-120865038D01*
X137225605Y-120810523D01*
X137225604Y-120810523D01*
X137225607Y-120810522D01*
X137248174Y-120787955D01*
X137300500Y-120766281D01*
X137352826Y-120787955D01*
X137374500Y-120840281D01*
X137374500Y-122349173D01*
X137374499Y-122349187D01*
X137374499Y-122444856D01*
X137398773Y-122503458D01*
X137408829Y-122527734D01*
X137408832Y-122527738D01*
X137482671Y-122601577D01*
X137482673Y-122601578D01*
X145252826Y-130371731D01*
X145274500Y-130424057D01*
X145274500Y-131499173D01*
X145274499Y-131499187D01*
X145274499Y-131594855D01*
X145295840Y-131646375D01*
X145295840Y-131646376D01*
X145308828Y-131677733D01*
X145308831Y-131677737D01*
X145382671Y-131751577D01*
X145382673Y-131751578D01*
X145998389Y-132367294D01*
X146020063Y-132419620D01*
X146019152Y-132431195D01*
X146016174Y-132449999D01*
X146016174Y-132450000D01*
X146025474Y-132508719D01*
X146034960Y-132568609D01*
X146034961Y-132568614D01*
X146089476Y-132675605D01*
X146164326Y-132750455D01*
X146186000Y-132802781D01*
X146186000Y-133080707D01*
X146164326Y-133133033D01*
X144969533Y-134327826D01*
X144917207Y-134349500D01*
X144185180Y-134349500D01*
X144163229Y-134353866D01*
X144141277Y-134358233D01*
X144091496Y-134391495D01*
X144091495Y-134391496D01*
X144058233Y-134441277D01*
X144058233Y-134441278D01*
X144049500Y-134485180D01*
X144049500Y-135514820D01*
X144058233Y-135558722D01*
X144091496Y-135608504D01*
X144141278Y-135641767D01*
X144185180Y-135650500D01*
X144185181Y-135650500D01*
X145214819Y-135650500D01*
X145214820Y-135650500D01*
X145258722Y-135641767D01*
X145308504Y-135608504D01*
X145341767Y-135558722D01*
X145350500Y-135514820D01*
X145350500Y-134582792D01*
X145372173Y-134530467D01*
X145402640Y-134500000D01*
X146866174Y-134500000D01*
X146884960Y-134618609D01*
X146884961Y-134618614D01*
X146939476Y-134725605D01*
X147024394Y-134810523D01*
X147131385Y-134865038D01*
X147131388Y-134865038D01*
X147131391Y-134865040D01*
X147250000Y-134883826D01*
X147368609Y-134865040D01*
X147368612Y-134865038D01*
X147368614Y-134865038D01*
X147475605Y-134810523D01*
X147475604Y-134810523D01*
X147475607Y-134810522D01*
X147560522Y-134725607D01*
X147562355Y-134722008D01*
X147615038Y-134618614D01*
X147615038Y-134618612D01*
X147615040Y-134618609D01*
X147633826Y-134500000D01*
X148366174Y-134500000D01*
X148384960Y-134618609D01*
X148384961Y-134618614D01*
X148439476Y-134725605D01*
X148524394Y-134810523D01*
X148631385Y-134865038D01*
X148631388Y-134865038D01*
X148631391Y-134865040D01*
X148750000Y-134883826D01*
X148868609Y-134865040D01*
X148868612Y-134865038D01*
X148868614Y-134865038D01*
X148975605Y-134810523D01*
X148975604Y-134810523D01*
X148975607Y-134810522D01*
X149060522Y-134725607D01*
X149062355Y-134722008D01*
X149115038Y-134618614D01*
X149115038Y-134618612D01*
X149115040Y-134618609D01*
X149133826Y-134500000D01*
X151366174Y-134500000D01*
X151384960Y-134618609D01*
X151384961Y-134618614D01*
X151439476Y-134725605D01*
X151524394Y-134810523D01*
X151631385Y-134865038D01*
X151631388Y-134865038D01*
X151631391Y-134865040D01*
X151750000Y-134883826D01*
X151868609Y-134865040D01*
X151868612Y-134865038D01*
X151868614Y-134865038D01*
X151975605Y-134810523D01*
X151975604Y-134810523D01*
X151975607Y-134810522D01*
X152060522Y-134725607D01*
X152062355Y-134722008D01*
X152115038Y-134618614D01*
X152115038Y-134618612D01*
X152115040Y-134618609D01*
X152133826Y-134500000D01*
X152115040Y-134381391D01*
X152115038Y-134381388D01*
X152115038Y-134381385D01*
X152060523Y-134274394D01*
X151975605Y-134189476D01*
X151868614Y-134134961D01*
X151868609Y-134134960D01*
X151750000Y-134116174D01*
X151631390Y-134134960D01*
X151631385Y-134134961D01*
X151524394Y-134189476D01*
X151439476Y-134274394D01*
X151384961Y-134381385D01*
X151384960Y-134381390D01*
X151366174Y-134500000D01*
X149133826Y-134500000D01*
X149115040Y-134381391D01*
X149115038Y-134381388D01*
X149115038Y-134381385D01*
X149060523Y-134274394D01*
X148975605Y-134189476D01*
X148868614Y-134134961D01*
X148868609Y-134134960D01*
X148750000Y-134116174D01*
X148631390Y-134134960D01*
X148631385Y-134134961D01*
X148524394Y-134189476D01*
X148439476Y-134274394D01*
X148384961Y-134381385D01*
X148384960Y-134381390D01*
X148366174Y-134500000D01*
X147633826Y-134500000D01*
X147615040Y-134381391D01*
X147615038Y-134381388D01*
X147615038Y-134381385D01*
X147560523Y-134274394D01*
X147475605Y-134189476D01*
X147368614Y-134134961D01*
X147368609Y-134134960D01*
X147250000Y-134116174D01*
X147131390Y-134134960D01*
X147131385Y-134134961D01*
X147024394Y-134189476D01*
X146939476Y-134274394D01*
X146884961Y-134381385D01*
X146884960Y-134381390D01*
X146866174Y-134500000D01*
X145402640Y-134500000D01*
X146514106Y-133388533D01*
X146514114Y-133388528D01*
X146521220Y-133381421D01*
X146521222Y-133381421D01*
X146581421Y-133321222D01*
X146605800Y-133262365D01*
X146614001Y-133242567D01*
X146614001Y-133157433D01*
X146614001Y-133151475D01*
X146614000Y-133151461D01*
X146614000Y-132802781D01*
X146635674Y-132750455D01*
X146671091Y-132715038D01*
X146710522Y-132675607D01*
X146751827Y-132594541D01*
X146765038Y-132568614D01*
X146765038Y-132568612D01*
X146765040Y-132568609D01*
X146783826Y-132450000D01*
X146783826Y-132449999D01*
X146783826Y-132448607D01*
X146784183Y-132447744D01*
X146784737Y-132444248D01*
X146785576Y-132444380D01*
X146805500Y-132396281D01*
X146857826Y-132374607D01*
X146910152Y-132396281D01*
X146974394Y-132460523D01*
X147081385Y-132515038D01*
X147081388Y-132515038D01*
X147081391Y-132515040D01*
X147200000Y-132533826D01*
X147318609Y-132515040D01*
X147318612Y-132515038D01*
X147318614Y-132515038D01*
X147425605Y-132460523D01*
X147425604Y-132460523D01*
X147425607Y-132460522D01*
X147510522Y-132375607D01*
X147534231Y-132329076D01*
X147565038Y-132268614D01*
X147565038Y-132268612D01*
X147565040Y-132268609D01*
X147583826Y-132150000D01*
X147565040Y-132031391D01*
X147565039Y-132031390D01*
X147564129Y-132025639D01*
X147565783Y-132025376D01*
X147569699Y-131975601D01*
X147612764Y-131938815D01*
X147669226Y-131943256D01*
X147687961Y-131956866D01*
X147798389Y-132067294D01*
X147820063Y-132119620D01*
X147819152Y-132131195D01*
X147816174Y-132150000D01*
X147819122Y-132168614D01*
X147834960Y-132268609D01*
X147834961Y-132268614D01*
X147889476Y-132375605D01*
X147974394Y-132460523D01*
X148081385Y-132515038D01*
X148081388Y-132515038D01*
X148081391Y-132515040D01*
X148200000Y-132533826D01*
X148318609Y-132515040D01*
X148318612Y-132515038D01*
X148318614Y-132515038D01*
X148425605Y-132460523D01*
X148425604Y-132460523D01*
X148425607Y-132460522D01*
X148510522Y-132375607D01*
X148534231Y-132329076D01*
X148565038Y-132268614D01*
X148565038Y-132268612D01*
X148565040Y-132268609D01*
X148583826Y-132150000D01*
X148565040Y-132031391D01*
X148547566Y-131997096D01*
X148543122Y-131940633D01*
X148579904Y-131897566D01*
X148636367Y-131893122D01*
X148647097Y-131897566D01*
X148681391Y-131915040D01*
X148800000Y-131933826D01*
X148918609Y-131915040D01*
X148918612Y-131915038D01*
X148918614Y-131915038D01*
X149025605Y-131860523D01*
X149025604Y-131860523D01*
X149025607Y-131860522D01*
X149110522Y-131775607D01*
X149134565Y-131728418D01*
X149177632Y-131691636D01*
X149234095Y-131696079D01*
X149270878Y-131739146D01*
X149274500Y-131762014D01*
X149274500Y-131799173D01*
X149274499Y-131799187D01*
X149274499Y-131894855D01*
X149290640Y-131933824D01*
X149290642Y-131933826D01*
X149305713Y-131970212D01*
X149311619Y-131984469D01*
X149309861Y-131985197D01*
X149319488Y-132029073D01*
X149319121Y-132031390D01*
X149316174Y-132050000D01*
X149320142Y-132075050D01*
X149334960Y-132168609D01*
X149334961Y-132168614D01*
X149389476Y-132275605D01*
X149474394Y-132360523D01*
X149581385Y-132415038D01*
X149581388Y-132415038D01*
X149581391Y-132415040D01*
X149700000Y-132433826D01*
X149818609Y-132415040D01*
X149818612Y-132415038D01*
X149818614Y-132415038D01*
X149925605Y-132360523D01*
X149925604Y-132360523D01*
X149925607Y-132360522D01*
X150010522Y-132275607D01*
X150018225Y-132260489D01*
X150065038Y-132168614D01*
X150065038Y-132168612D01*
X150065040Y-132168609D01*
X150083826Y-132050000D01*
X150065040Y-131931391D01*
X150065038Y-131931388D01*
X150065038Y-131931385D01*
X150010523Y-131824394D01*
X149925607Y-131739478D01*
X149831711Y-131691636D01*
X149818609Y-131684960D01*
X149818607Y-131684959D01*
X149818606Y-131684959D01*
X149787922Y-131680099D01*
X149739632Y-131650505D01*
X149725500Y-131607010D01*
X149725500Y-125975701D01*
X149747174Y-125923375D01*
X149799500Y-125901701D01*
X149825232Y-125907879D01*
X149825538Y-125906939D01*
X149831075Y-125908737D01*
X149831079Y-125908739D01*
X149949688Y-125927525D01*
X150068297Y-125908739D01*
X150068300Y-125908737D01*
X150068302Y-125908737D01*
X150175293Y-125854222D01*
X150175292Y-125854222D01*
X150175295Y-125854221D01*
X150260210Y-125769306D01*
X150262043Y-125765707D01*
X150314726Y-125662313D01*
X150314726Y-125662311D01*
X150314728Y-125662308D01*
X150333514Y-125543699D01*
X150314728Y-125425090D01*
X150314726Y-125425087D01*
X150314726Y-125425084D01*
X150260211Y-125318093D01*
X150175293Y-125233175D01*
X150068302Y-125178660D01*
X150068297Y-125178659D01*
X149949688Y-125159873D01*
X149831078Y-125178659D01*
X149825538Y-125180459D01*
X149824831Y-125178284D01*
X149776620Y-125182070D01*
X149733559Y-125145279D01*
X149725500Y-125111696D01*
X149725500Y-118071737D01*
X149747174Y-118019411D01*
X149799500Y-117997737D01*
X149833094Y-118005802D01*
X149850977Y-118014914D01*
X149969586Y-118033700D01*
X150088195Y-118014914D01*
X150088198Y-118014912D01*
X150088200Y-118014912D01*
X150195191Y-117960397D01*
X150195190Y-117960397D01*
X150195193Y-117960396D01*
X150280108Y-117875481D01*
X150288287Y-117859429D01*
X150334624Y-117768488D01*
X150334624Y-117768486D01*
X150334626Y-117768483D01*
X150353412Y-117649874D01*
X150334626Y-117531265D01*
X150334624Y-117531262D01*
X150334624Y-117531259D01*
X150280109Y-117424268D01*
X150195191Y-117339350D01*
X150088200Y-117284835D01*
X150088195Y-117284834D01*
X149969586Y-117266048D01*
X149850976Y-117284834D01*
X149833095Y-117293945D01*
X149776632Y-117298388D01*
X149733565Y-117261605D01*
X149725500Y-117228010D01*
X149725500Y-111553475D01*
X149725501Y-111553466D01*
X149725501Y-111455144D01*
X149691170Y-111372265D01*
X149691169Y-111372263D01*
X149623521Y-111304615D01*
X149623514Y-111304609D01*
X141047174Y-102728269D01*
X141025500Y-102675943D01*
X141025500Y-87805144D01*
X141224499Y-87805144D01*
X141224499Y-87903466D01*
X141224500Y-87903475D01*
X141224500Y-102199173D01*
X141224499Y-102199187D01*
X141224499Y-102294855D01*
X141247448Y-102350257D01*
X141258830Y-102377736D01*
X141332671Y-102451577D01*
X141332673Y-102451578D01*
X150752826Y-111871731D01*
X150774500Y-111924057D01*
X150774500Y-131907010D01*
X150752826Y-131959336D01*
X150712078Y-131980099D01*
X150681393Y-131984959D01*
X150574392Y-132039478D01*
X150489476Y-132124394D01*
X150434961Y-132231385D01*
X150434960Y-132231390D01*
X150416174Y-132350000D01*
X150434960Y-132468609D01*
X150434961Y-132468614D01*
X150489476Y-132575605D01*
X150574394Y-132660523D01*
X150681385Y-132715038D01*
X150681388Y-132715038D01*
X150681391Y-132715040D01*
X150800000Y-132733826D01*
X150918609Y-132715040D01*
X150918612Y-132715038D01*
X150918614Y-132715038D01*
X151025605Y-132660523D01*
X151025604Y-132660523D01*
X151025607Y-132660522D01*
X151110522Y-132575607D01*
X151128959Y-132539423D01*
X151165038Y-132468614D01*
X151165038Y-132468612D01*
X151165040Y-132468609D01*
X151183826Y-132350000D01*
X151180511Y-132329073D01*
X151190140Y-132285200D01*
X151188380Y-132284471D01*
X151191170Y-132277736D01*
X151208457Y-132236000D01*
X151225501Y-132194854D01*
X151225501Y-132105145D01*
X151225501Y-132099187D01*
X151225500Y-132099173D01*
X151225500Y-125650000D01*
X151759561Y-125650000D01*
X151778347Y-125768609D01*
X151778348Y-125768614D01*
X151832863Y-125875605D01*
X151917781Y-125960523D01*
X152024772Y-126015038D01*
X152024775Y-126015038D01*
X152024778Y-126015040D01*
X152143387Y-126033826D01*
X152261996Y-126015040D01*
X152261999Y-126015038D01*
X152262001Y-126015038D01*
X152368992Y-125960523D01*
X152368991Y-125960523D01*
X152368994Y-125960522D01*
X152453909Y-125875607D01*
X152508073Y-125769304D01*
X152508425Y-125768614D01*
X152508425Y-125768612D01*
X152508427Y-125768609D01*
X152527213Y-125650000D01*
X152508427Y-125531391D01*
X152508425Y-125531388D01*
X152508425Y-125531385D01*
X152453910Y-125424394D01*
X152368992Y-125339476D01*
X152262001Y-125284961D01*
X152261996Y-125284960D01*
X152143387Y-125266174D01*
X152024777Y-125284960D01*
X152024772Y-125284961D01*
X151917781Y-125339476D01*
X151832863Y-125424394D01*
X151778348Y-125531385D01*
X151778347Y-125531390D01*
X151759561Y-125650000D01*
X151225500Y-125650000D01*
X151225500Y-117549874D01*
X151785760Y-117549874D01*
X151804546Y-117668483D01*
X151804547Y-117668488D01*
X151859062Y-117775479D01*
X151943980Y-117860397D01*
X152050971Y-117914912D01*
X152050974Y-117914912D01*
X152050977Y-117914914D01*
X152169586Y-117933700D01*
X152288195Y-117914914D01*
X152288198Y-117914912D01*
X152288200Y-117914912D01*
X152395191Y-117860397D01*
X152395190Y-117860397D01*
X152395193Y-117860396D01*
X152480108Y-117775481D01*
X152483674Y-117768483D01*
X152534624Y-117668488D01*
X152534624Y-117668486D01*
X152534626Y-117668483D01*
X152553412Y-117549874D01*
X152534626Y-117431265D01*
X152534624Y-117431262D01*
X152534624Y-117431259D01*
X152480109Y-117324268D01*
X152395191Y-117239350D01*
X152288200Y-117184835D01*
X152288195Y-117184834D01*
X152169586Y-117166048D01*
X152050976Y-117184834D01*
X152050971Y-117184835D01*
X151943980Y-117239350D01*
X151859062Y-117324268D01*
X151804547Y-117431259D01*
X151804546Y-117431264D01*
X151785760Y-117549874D01*
X151225500Y-117549874D01*
X151225500Y-111853475D01*
X151225501Y-111853466D01*
X151225501Y-111755147D01*
X151225501Y-111755146D01*
X151194950Y-111681391D01*
X151191170Y-111672264D01*
X151127736Y-111608830D01*
X151123521Y-111604615D01*
X151123514Y-111604609D01*
X141697174Y-102178269D01*
X141675500Y-102125943D01*
X141675500Y-89679100D01*
X141697174Y-89626774D01*
X141749500Y-89605100D01*
X141783095Y-89613166D01*
X141877735Y-89661387D01*
X141877738Y-89661388D01*
X141877740Y-89661389D01*
X141912076Y-89666827D01*
X141960367Y-89696419D01*
X141974500Y-89739916D01*
X141974500Y-100049173D01*
X141974499Y-100049187D01*
X141974499Y-100144854D01*
X141993062Y-100189669D01*
X142008829Y-100227734D01*
X142008831Y-100227737D01*
X142082671Y-100301577D01*
X142082673Y-100301578D01*
X152752826Y-110971731D01*
X152774500Y-111024057D01*
X152774500Y-136425942D01*
X152752826Y-136478268D01*
X151282704Y-137948389D01*
X151230378Y-137970063D01*
X151218804Y-137969152D01*
X151200000Y-137966174D01*
X151199999Y-137966174D01*
X151081390Y-137984960D01*
X151081385Y-137984961D01*
X150974394Y-138039476D01*
X150889476Y-138124394D01*
X150834961Y-138231385D01*
X150834960Y-138231390D01*
X150816174Y-138350000D01*
X150834960Y-138468609D01*
X150834961Y-138468614D01*
X150889476Y-138575605D01*
X150974394Y-138660523D01*
X151081385Y-138715038D01*
X151081388Y-138715038D01*
X151081391Y-138715040D01*
X151200000Y-138733826D01*
X151318609Y-138715040D01*
X151318612Y-138715038D01*
X151318614Y-138715038D01*
X151425605Y-138660523D01*
X151425604Y-138660523D01*
X151425607Y-138660522D01*
X151510522Y-138575607D01*
X151549046Y-138500000D01*
X151565038Y-138468614D01*
X151565038Y-138468612D01*
X151565040Y-138468609D01*
X151583826Y-138350000D01*
X151580847Y-138331195D01*
X151594068Y-138276124D01*
X151601603Y-138267300D01*
X153191170Y-136677736D01*
X153225500Y-136594855D01*
X153225500Y-136505146D01*
X153225500Y-124573822D01*
X153247174Y-124521496D01*
X153299500Y-124499822D01*
X153351826Y-124521496D01*
X153365435Y-124540227D01*
X153408938Y-124625607D01*
X153493854Y-124710523D01*
X153600845Y-124765038D01*
X153600848Y-124765038D01*
X153600851Y-124765040D01*
X153719460Y-124783826D01*
X153838069Y-124765040D01*
X153838076Y-124765036D01*
X153843603Y-124763241D01*
X153844579Y-124766244D01*
X153890529Y-124762603D01*
X153933616Y-124799362D01*
X153941700Y-124832993D01*
X153941700Y-136558743D01*
X153920026Y-136611069D01*
X151682704Y-138848390D01*
X151630378Y-138870064D01*
X151618804Y-138869153D01*
X151600000Y-138866175D01*
X151599999Y-138866175D01*
X151481390Y-138884961D01*
X151481385Y-138884962D01*
X151374394Y-138939477D01*
X151289476Y-139024395D01*
X151234961Y-139131386D01*
X151234960Y-139131391D01*
X151216174Y-139250001D01*
X151234960Y-139368610D01*
X151234961Y-139368615D01*
X151289476Y-139475606D01*
X151374394Y-139560524D01*
X151481385Y-139615039D01*
X151481388Y-139615039D01*
X151481391Y-139615041D01*
X151600000Y-139633827D01*
X151718609Y-139615041D01*
X151718612Y-139615039D01*
X151718614Y-139615039D01*
X151825605Y-139560524D01*
X151825604Y-139560524D01*
X151825607Y-139560523D01*
X151910522Y-139475608D01*
X151958528Y-139381391D01*
X151965038Y-139368615D01*
X151965038Y-139368613D01*
X151965040Y-139368610D01*
X151983826Y-139250001D01*
X151980847Y-139231196D01*
X151994068Y-139176125D01*
X152001604Y-139167300D01*
X154284527Y-136884378D01*
X154284530Y-136884376D01*
X154294935Y-136873971D01*
X154294936Y-136873971D01*
X154358370Y-136810537D01*
X154375244Y-136769800D01*
X154392701Y-136727656D01*
X154392701Y-136637946D01*
X154392701Y-136631988D01*
X154392700Y-136631974D01*
X154392700Y-113287984D01*
X154414374Y-113235658D01*
X154466700Y-113213984D01*
X154478276Y-113214895D01*
X154479190Y-113215039D01*
X154479191Y-113215040D01*
X154597800Y-113233826D01*
X154716409Y-113215040D01*
X154716412Y-113215038D01*
X154716414Y-113215038D01*
X154823405Y-113160523D01*
X154823404Y-113160523D01*
X154823407Y-113160522D01*
X154908322Y-113075607D01*
X154910155Y-113072008D01*
X154962838Y-112968614D01*
X154962838Y-112968612D01*
X154962840Y-112968609D01*
X154981626Y-112850000D01*
X154962840Y-112731391D01*
X154962838Y-112731388D01*
X154962838Y-112731385D01*
X154908323Y-112624394D01*
X154823405Y-112539476D01*
X154716414Y-112484961D01*
X154716409Y-112484960D01*
X154597800Y-112466174D01*
X154478276Y-112485104D01*
X154423204Y-112471882D01*
X154393611Y-112423591D01*
X154392700Y-112412015D01*
X154392700Y-108522345D01*
X154392699Y-108522343D01*
X154358371Y-108439466D01*
X154358369Y-108439463D01*
X154290721Y-108371815D01*
X154290714Y-108371809D01*
X148968905Y-103050000D01*
X150416174Y-103050000D01*
X150434960Y-103168609D01*
X150434961Y-103168614D01*
X150489476Y-103275605D01*
X150574394Y-103360523D01*
X150681385Y-103415038D01*
X150681388Y-103415038D01*
X150681391Y-103415040D01*
X150800000Y-103433826D01*
X150918609Y-103415040D01*
X150918612Y-103415038D01*
X150918614Y-103415038D01*
X151025605Y-103360523D01*
X151025604Y-103360523D01*
X151025607Y-103360522D01*
X151110522Y-103275607D01*
X151118200Y-103260538D01*
X151165038Y-103168614D01*
X151165038Y-103168612D01*
X151165040Y-103168609D01*
X151183826Y-103050000D01*
X151165040Y-102931391D01*
X151165038Y-102931388D01*
X151165038Y-102931385D01*
X151110523Y-102824394D01*
X151025605Y-102739476D01*
X150918614Y-102684961D01*
X150918609Y-102684960D01*
X150800000Y-102666174D01*
X150681390Y-102684960D01*
X150681385Y-102684961D01*
X150574394Y-102739476D01*
X150489476Y-102824394D01*
X150434961Y-102931385D01*
X150434960Y-102931390D01*
X150416174Y-103050000D01*
X148968905Y-103050000D01*
X147047174Y-101128269D01*
X147025500Y-101075943D01*
X147025500Y-98050000D01*
X150416174Y-98050000D01*
X150434960Y-98168609D01*
X150434961Y-98168614D01*
X150489476Y-98275605D01*
X150574394Y-98360523D01*
X150681385Y-98415038D01*
X150681388Y-98415038D01*
X150681391Y-98415040D01*
X150800000Y-98433826D01*
X150918609Y-98415040D01*
X150918612Y-98415038D01*
X150918614Y-98415038D01*
X151025605Y-98360523D01*
X151025604Y-98360523D01*
X151025607Y-98360522D01*
X151110522Y-98275607D01*
X151112355Y-98272008D01*
X151165038Y-98168614D01*
X151165038Y-98168612D01*
X151165040Y-98168609D01*
X151183826Y-98050000D01*
X151165040Y-97931391D01*
X151165038Y-97931388D01*
X151165038Y-97931385D01*
X151110523Y-97824394D01*
X151025605Y-97739476D01*
X150918614Y-97684961D01*
X150918609Y-97684960D01*
X150800000Y-97666174D01*
X150681390Y-97684960D01*
X150681385Y-97684961D01*
X150574394Y-97739476D01*
X150489476Y-97824394D01*
X150434961Y-97931385D01*
X150434960Y-97931390D01*
X150416174Y-98050000D01*
X147025500Y-98050000D01*
X147025500Y-96362436D01*
X147025501Y-96362427D01*
X147025501Y-96264107D01*
X146991170Y-96181226D01*
X146991169Y-96181224D01*
X146923521Y-96113576D01*
X146923514Y-96113570D01*
X142916574Y-92106630D01*
X142894900Y-92054304D01*
X142894900Y-91850000D01*
X144116174Y-91850000D01*
X144134960Y-91968609D01*
X144134961Y-91968614D01*
X144189476Y-92075605D01*
X144274394Y-92160523D01*
X144381385Y-92215038D01*
X144381388Y-92215038D01*
X144381391Y-92215040D01*
X144500000Y-92233826D01*
X144618609Y-92215040D01*
X144618612Y-92215038D01*
X144618614Y-92215038D01*
X144725605Y-92160523D01*
X144725604Y-92160523D01*
X144725607Y-92160522D01*
X144810522Y-92075607D01*
X144823991Y-92049173D01*
X144865038Y-91968614D01*
X144865038Y-91968612D01*
X144865040Y-91968609D01*
X144883826Y-91850000D01*
X144865040Y-91731391D01*
X144865038Y-91731388D01*
X144865038Y-91731385D01*
X144810523Y-91624394D01*
X144725605Y-91539476D01*
X144618614Y-91484961D01*
X144618609Y-91484960D01*
X144500000Y-91466174D01*
X144381390Y-91484960D01*
X144381385Y-91484961D01*
X144274394Y-91539476D01*
X144189476Y-91624394D01*
X144134961Y-91731385D01*
X144134960Y-91731390D01*
X144116174Y-91850000D01*
X142894900Y-91850000D01*
X142894900Y-91100000D01*
X143266174Y-91100000D01*
X143284960Y-91218609D01*
X143284961Y-91218614D01*
X143339476Y-91325605D01*
X143424394Y-91410523D01*
X143531385Y-91465038D01*
X143531388Y-91465038D01*
X143531391Y-91465040D01*
X143650000Y-91483826D01*
X143768609Y-91465040D01*
X143768612Y-91465038D01*
X143768614Y-91465038D01*
X143875605Y-91410523D01*
X143875604Y-91410523D01*
X143875607Y-91410522D01*
X143960522Y-91325607D01*
X144004408Y-91239476D01*
X144015038Y-91218614D01*
X144015038Y-91218612D01*
X144015040Y-91218609D01*
X144033826Y-91100000D01*
X144015040Y-90981391D01*
X144015038Y-90981388D01*
X144015038Y-90981385D01*
X143960523Y-90874394D01*
X143875605Y-90789476D01*
X143768614Y-90734961D01*
X143768609Y-90734960D01*
X143650000Y-90716174D01*
X143531390Y-90734960D01*
X143531385Y-90734961D01*
X143424394Y-90789476D01*
X143339476Y-90874394D01*
X143284961Y-90981385D01*
X143284960Y-90981390D01*
X143266174Y-91100000D01*
X142894900Y-91100000D01*
X142894900Y-90437984D01*
X142916574Y-90385658D01*
X142968900Y-90363984D01*
X142980476Y-90364895D01*
X142981390Y-90365039D01*
X142981391Y-90365040D01*
X143100000Y-90383826D01*
X143218609Y-90365040D01*
X143218612Y-90365038D01*
X143218614Y-90365038D01*
X143325605Y-90310523D01*
X143325604Y-90310523D01*
X143325607Y-90310522D01*
X143388955Y-90247174D01*
X143441281Y-90225500D01*
X143775943Y-90225500D01*
X143828269Y-90247174D01*
X155502826Y-101921731D01*
X155524500Y-101974057D01*
X155524500Y-136275942D01*
X155502826Y-136328268D01*
X152382704Y-139448389D01*
X152330378Y-139470063D01*
X152318804Y-139469152D01*
X152300000Y-139466174D01*
X152299999Y-139466174D01*
X152181390Y-139484960D01*
X152181385Y-139484961D01*
X152074394Y-139539476D01*
X151989476Y-139624394D01*
X151934961Y-139731385D01*
X151934960Y-139731390D01*
X151916174Y-139850000D01*
X151934960Y-139968609D01*
X151934961Y-139968614D01*
X151989476Y-140075605D01*
X152074394Y-140160523D01*
X152181385Y-140215038D01*
X152181388Y-140215038D01*
X152181391Y-140215040D01*
X152300000Y-140233826D01*
X152418609Y-140215040D01*
X152418612Y-140215038D01*
X152418614Y-140215038D01*
X152525605Y-140160523D01*
X152525604Y-140160523D01*
X152525607Y-140160522D01*
X152610522Y-140075607D01*
X152615506Y-140065826D01*
X152665038Y-139968614D01*
X152665038Y-139968612D01*
X152665040Y-139968609D01*
X152683826Y-139850000D01*
X152680847Y-139831195D01*
X152694068Y-139776124D01*
X152701604Y-139767299D01*
X153350385Y-139118518D01*
X160750000Y-139118518D01*
X160750000Y-139750000D01*
X161566988Y-139750000D01*
X161534075Y-139807007D01*
X161500000Y-139934174D01*
X161500000Y-140065826D01*
X161534075Y-140192993D01*
X161566988Y-140250000D01*
X160750001Y-140250000D01*
X160750001Y-140881482D01*
X160764834Y-140975148D01*
X160764835Y-140975149D01*
X160822360Y-141088046D01*
X160911953Y-141177639D01*
X161024850Y-141235164D01*
X161118518Y-141249999D01*
X161750000Y-141249999D01*
X161750000Y-140433012D01*
X161807007Y-140465925D01*
X161934174Y-140500000D01*
X162065826Y-140500000D01*
X162192993Y-140465925D01*
X162250000Y-140433012D01*
X162250000Y-141249999D01*
X162881481Y-141249999D01*
X162975148Y-141235165D01*
X162975149Y-141235164D01*
X163088046Y-141177639D01*
X163177639Y-141088046D01*
X163235164Y-140975149D01*
X163235164Y-140975148D01*
X163250000Y-140881481D01*
X163250000Y-140250000D01*
X162433012Y-140250000D01*
X162465925Y-140192993D01*
X162500000Y-140065826D01*
X162500000Y-139934174D01*
X162465925Y-139807007D01*
X162433012Y-139750000D01*
X163249999Y-139750000D01*
X163249999Y-139118517D01*
X163235165Y-139024851D01*
X163235164Y-139024850D01*
X163177639Y-138911953D01*
X163088046Y-138822360D01*
X162975149Y-138764835D01*
X162881482Y-138750000D01*
X162250000Y-138750000D01*
X162250000Y-139566988D01*
X162192993Y-139534075D01*
X162065826Y-139500000D01*
X161934174Y-139500000D01*
X161807007Y-139534075D01*
X161750000Y-139566988D01*
X161750000Y-138750000D01*
X161118518Y-138750000D01*
X161024851Y-138764834D01*
X161024850Y-138764835D01*
X160911953Y-138822360D01*
X160822360Y-138911953D01*
X160764835Y-139024850D01*
X160764835Y-139024851D01*
X160750000Y-139118518D01*
X153350385Y-139118518D01*
X154918904Y-137550000D01*
X155716174Y-137550000D01*
X155734960Y-137668609D01*
X155734961Y-137668614D01*
X155789476Y-137775605D01*
X155874394Y-137860523D01*
X155981385Y-137915038D01*
X155981388Y-137915038D01*
X155981391Y-137915040D01*
X156100000Y-137933826D01*
X156218609Y-137915040D01*
X156218612Y-137915038D01*
X156218614Y-137915038D01*
X156325605Y-137860523D01*
X156325604Y-137860523D01*
X156325607Y-137860522D01*
X156410522Y-137775607D01*
X156412355Y-137772008D01*
X156465038Y-137668614D01*
X156465038Y-137668612D01*
X156465040Y-137668609D01*
X156483826Y-137550000D01*
X156469571Y-137460000D01*
X160994659Y-137460000D01*
X161013976Y-137656133D01*
X161071187Y-137844731D01*
X161140845Y-137975050D01*
X161164090Y-138018538D01*
X161289117Y-138170883D01*
X161441462Y-138295910D01*
X161507479Y-138331197D01*
X161615268Y-138388812D01*
X161615270Y-138388812D01*
X161615273Y-138388814D01*
X161803868Y-138446024D01*
X162000000Y-138465341D01*
X162196132Y-138446024D01*
X162384727Y-138388814D01*
X162398615Y-138381391D01*
X162404608Y-138378187D01*
X162558538Y-138295910D01*
X162710883Y-138170883D01*
X162835910Y-138018538D01*
X162928814Y-137844727D01*
X162986024Y-137656132D01*
X163005341Y-137460000D01*
X162986024Y-137263868D01*
X162928814Y-137075273D01*
X162928812Y-137075270D01*
X162928812Y-137075268D01*
X162877048Y-136978426D01*
X162835910Y-136901462D01*
X162710883Y-136749117D01*
X162558538Y-136624090D01*
X162543728Y-136616174D01*
X162384731Y-136531187D01*
X162196133Y-136473976D01*
X162000000Y-136454659D01*
X161803866Y-136473976D01*
X161615268Y-136531187D01*
X161441463Y-136624089D01*
X161289117Y-136749117D01*
X161164089Y-136901463D01*
X161071187Y-137075268D01*
X161013976Y-137263866D01*
X160994659Y-137460000D01*
X156469571Y-137460000D01*
X156465040Y-137431391D01*
X156465038Y-137431388D01*
X156465038Y-137431385D01*
X156410523Y-137324394D01*
X156325605Y-137239476D01*
X156218614Y-137184961D01*
X156218609Y-137184960D01*
X156100000Y-137166174D01*
X155981390Y-137184960D01*
X155981385Y-137184961D01*
X155874394Y-137239476D01*
X155789476Y-137324394D01*
X155734961Y-137431385D01*
X155734960Y-137431390D01*
X155716174Y-137550000D01*
X154918904Y-137550000D01*
X155867327Y-136601577D01*
X155867330Y-136601575D01*
X155877735Y-136591170D01*
X155877736Y-136591170D01*
X155941170Y-136527736D01*
X155968843Y-136460927D01*
X155975501Y-136444854D01*
X155975501Y-136355145D01*
X155975501Y-136349187D01*
X155975500Y-136349173D01*
X155975500Y-134920000D01*
X160994659Y-134920000D01*
X161013976Y-135116133D01*
X161071187Y-135304731D01*
X161143211Y-135439476D01*
X161164090Y-135478538D01*
X161289117Y-135630883D01*
X161441462Y-135755910D01*
X161518426Y-135797048D01*
X161615268Y-135848812D01*
X161615270Y-135848812D01*
X161615273Y-135848814D01*
X161803868Y-135906024D01*
X162000000Y-135925341D01*
X162196132Y-135906024D01*
X162384727Y-135848814D01*
X162558538Y-135755910D01*
X162710883Y-135630883D01*
X162835910Y-135478538D01*
X162928814Y-135304727D01*
X162986024Y-135116132D01*
X163005341Y-134920000D01*
X162986024Y-134723868D01*
X162928814Y-134535273D01*
X162928812Y-134535270D01*
X162928812Y-134535268D01*
X162877048Y-134438426D01*
X162835910Y-134361462D01*
X162710883Y-134209117D01*
X162558538Y-134084090D01*
X162548597Y-134078776D01*
X162384731Y-133991187D01*
X162196133Y-133933976D01*
X162000000Y-133914659D01*
X161803866Y-133933976D01*
X161615268Y-133991187D01*
X161441463Y-134084089D01*
X161289117Y-134209117D01*
X161164089Y-134361463D01*
X161071187Y-134535268D01*
X161013976Y-134723866D01*
X160994659Y-134920000D01*
X155975500Y-134920000D01*
X155975500Y-133750000D01*
X159366174Y-133750000D01*
X159384960Y-133868609D01*
X159384961Y-133868614D01*
X159439476Y-133975605D01*
X159524394Y-134060523D01*
X159631385Y-134115038D01*
X159631388Y-134115038D01*
X159631391Y-134115040D01*
X159750000Y-134133826D01*
X159868609Y-134115040D01*
X159868612Y-134115038D01*
X159868614Y-134115038D01*
X159975605Y-134060523D01*
X159975604Y-134060523D01*
X159975607Y-134060522D01*
X160060522Y-133975607D01*
X160081734Y-133933976D01*
X160115038Y-133868614D01*
X160115038Y-133868612D01*
X160115040Y-133868609D01*
X160133826Y-133750000D01*
X160115040Y-133631391D01*
X160115038Y-133631388D01*
X160115038Y-133631385D01*
X160060523Y-133524394D01*
X159975605Y-133439476D01*
X159868614Y-133384961D01*
X159868609Y-133384960D01*
X159750000Y-133366174D01*
X159631390Y-133384960D01*
X159631385Y-133384961D01*
X159524394Y-133439476D01*
X159439476Y-133524394D01*
X159384961Y-133631385D01*
X159384960Y-133631390D01*
X159366174Y-133750000D01*
X155975500Y-133750000D01*
X155975500Y-132380000D01*
X160994659Y-132380000D01*
X161013976Y-132576133D01*
X161071187Y-132764731D01*
X161116765Y-132850000D01*
X161164090Y-132938538D01*
X161289117Y-133090883D01*
X161441462Y-133215910D01*
X161491334Y-133242567D01*
X161615268Y-133308812D01*
X161615270Y-133308812D01*
X161615273Y-133308814D01*
X161803868Y-133366024D01*
X162000000Y-133385341D01*
X162196132Y-133366024D01*
X162384727Y-133308814D01*
X162558538Y-133215910D01*
X162710883Y-133090883D01*
X162835910Y-132938538D01*
X162928814Y-132764727D01*
X162986024Y-132576132D01*
X163005341Y-132380000D01*
X162986024Y-132183868D01*
X162928814Y-131995273D01*
X162928812Y-131995270D01*
X162928812Y-131995268D01*
X162873170Y-131891170D01*
X162835910Y-131821462D01*
X162710883Y-131669117D01*
X162558538Y-131544090D01*
X162512758Y-131519620D01*
X162384731Y-131451187D01*
X162196133Y-131393976D01*
X162000000Y-131374659D01*
X161803866Y-131393976D01*
X161615268Y-131451187D01*
X161441463Y-131544089D01*
X161289117Y-131669117D01*
X161164089Y-131821463D01*
X161071187Y-131995268D01*
X161013976Y-132183866D01*
X160994659Y-132380000D01*
X155975500Y-132380000D01*
X155975500Y-131000000D01*
X159116174Y-131000000D01*
X159134960Y-131118609D01*
X159134961Y-131118614D01*
X159189476Y-131225605D01*
X159274394Y-131310523D01*
X159381385Y-131365038D01*
X159381388Y-131365038D01*
X159381391Y-131365040D01*
X159500000Y-131383826D01*
X159618609Y-131365040D01*
X159618612Y-131365038D01*
X159618614Y-131365038D01*
X159725605Y-131310523D01*
X159725604Y-131310523D01*
X159725607Y-131310522D01*
X159810522Y-131225607D01*
X159840805Y-131166174D01*
X159865038Y-131118614D01*
X159865038Y-131118612D01*
X159865040Y-131118609D01*
X159883826Y-131000000D01*
X159865040Y-130881391D01*
X159865038Y-130881388D01*
X159865038Y-130881385D01*
X159810523Y-130774394D01*
X159725605Y-130689476D01*
X159618614Y-130634961D01*
X159618609Y-130634960D01*
X159500000Y-130616174D01*
X159381390Y-130634960D01*
X159381385Y-130634961D01*
X159274394Y-130689476D01*
X159189476Y-130774394D01*
X159134961Y-130881385D01*
X159134960Y-130881390D01*
X159116174Y-131000000D01*
X155975500Y-131000000D01*
X155975500Y-129840000D01*
X160994659Y-129840000D01*
X161013976Y-130036133D01*
X161071187Y-130224731D01*
X161149761Y-130371731D01*
X161164090Y-130398538D01*
X161289117Y-130550883D01*
X161441462Y-130675910D01*
X161518426Y-130717048D01*
X161615268Y-130768812D01*
X161615270Y-130768812D01*
X161615273Y-130768814D01*
X161803868Y-130826024D01*
X162000000Y-130845341D01*
X162196132Y-130826024D01*
X162384727Y-130768814D01*
X162558538Y-130675910D01*
X162710883Y-130550883D01*
X162835910Y-130398538D01*
X162928814Y-130224727D01*
X162986024Y-130036132D01*
X163005341Y-129840000D01*
X162986024Y-129643868D01*
X162928814Y-129455273D01*
X162928812Y-129455270D01*
X162928812Y-129455268D01*
X162877048Y-129358426D01*
X162835910Y-129281462D01*
X162710883Y-129129117D01*
X162558538Y-129004090D01*
X162548597Y-128998776D01*
X162384731Y-128911187D01*
X162196133Y-128853976D01*
X162000000Y-128834659D01*
X161803866Y-128853976D01*
X161615268Y-128911187D01*
X161441463Y-129004089D01*
X161289117Y-129129117D01*
X161164089Y-129281463D01*
X161071187Y-129455268D01*
X161013976Y-129643866D01*
X160994659Y-129840000D01*
X155975500Y-129840000D01*
X155975500Y-121700000D01*
X161494659Y-121700000D01*
X161513976Y-121896133D01*
X161571187Y-122084731D01*
X161658776Y-122248597D01*
X161664090Y-122258538D01*
X161789117Y-122410883D01*
X161941462Y-122535910D01*
X162018426Y-122577048D01*
X162115268Y-122628812D01*
X162115270Y-122628812D01*
X162115273Y-122628814D01*
X162303868Y-122686024D01*
X162500000Y-122705341D01*
X162696132Y-122686024D01*
X162884727Y-122628814D01*
X162886995Y-122627602D01*
X162935682Y-122601578D01*
X163058538Y-122535910D01*
X163210883Y-122410883D01*
X163335910Y-122258538D01*
X163428814Y-122084727D01*
X163486024Y-121896132D01*
X163505341Y-121700000D01*
X163486024Y-121503868D01*
X163428814Y-121315273D01*
X163428812Y-121315270D01*
X163428812Y-121315268D01*
X163372823Y-121210522D01*
X163335910Y-121141462D01*
X163210883Y-120989117D01*
X163058538Y-120864090D01*
X163013995Y-120840281D01*
X162884731Y-120771187D01*
X162696133Y-120713976D01*
X162500000Y-120694659D01*
X162303866Y-120713976D01*
X162115268Y-120771187D01*
X161941463Y-120864089D01*
X161789117Y-120989117D01*
X161664089Y-121141463D01*
X161571187Y-121315268D01*
X161513976Y-121503866D01*
X161494659Y-121700000D01*
X155975500Y-121700000D01*
X155975500Y-118295180D01*
X161499500Y-118295180D01*
X161499500Y-120024820D01*
X161508233Y-120068722D01*
X161541496Y-120118504D01*
X161591278Y-120151767D01*
X161635180Y-120160500D01*
X161635181Y-120160500D01*
X163364819Y-120160500D01*
X163364820Y-120160500D01*
X163408722Y-120151767D01*
X163458504Y-120118504D01*
X163491767Y-120068722D01*
X163500500Y-120024820D01*
X163500500Y-118295180D01*
X163491767Y-118251278D01*
X163458504Y-118201496D01*
X163408722Y-118168233D01*
X163364820Y-118159500D01*
X161635180Y-118159500D01*
X161613229Y-118163866D01*
X161591277Y-118168233D01*
X161541496Y-118201495D01*
X161541495Y-118201496D01*
X161508233Y-118251277D01*
X161508233Y-118251278D01*
X161499500Y-118295180D01*
X155975500Y-118295180D01*
X155975500Y-111800000D01*
X158863974Y-111800000D01*
X158882760Y-111918609D01*
X158882761Y-111918614D01*
X158937276Y-112025605D01*
X159022194Y-112110523D01*
X159129185Y-112165038D01*
X159129188Y-112165038D01*
X159129191Y-112165040D01*
X159247800Y-112183826D01*
X159366409Y-112165040D01*
X159366412Y-112165038D01*
X159366414Y-112165038D01*
X159473405Y-112110523D01*
X159473404Y-112110523D01*
X159473407Y-112110522D01*
X159558322Y-112025607D01*
X159600206Y-111943405D01*
X159612838Y-111918614D01*
X159612838Y-111918612D01*
X159612840Y-111918609D01*
X159631626Y-111800000D01*
X159612840Y-111681391D01*
X159612838Y-111681388D01*
X159612838Y-111681385D01*
X159558323Y-111574394D01*
X159473405Y-111489476D01*
X159366414Y-111434961D01*
X159366409Y-111434960D01*
X159247800Y-111416174D01*
X159129190Y-111434960D01*
X159129185Y-111434961D01*
X159022194Y-111489476D01*
X158937276Y-111574394D01*
X158882761Y-111681385D01*
X158882760Y-111681390D01*
X158863974Y-111800000D01*
X155975500Y-111800000D01*
X155975500Y-110950000D01*
X159263974Y-110950000D01*
X159282760Y-111068609D01*
X159282761Y-111068614D01*
X159337276Y-111175605D01*
X159422194Y-111260523D01*
X159529185Y-111315038D01*
X159529188Y-111315038D01*
X159529191Y-111315040D01*
X159647800Y-111333826D01*
X159766409Y-111315040D01*
X159766412Y-111315038D01*
X159766414Y-111315038D01*
X159873405Y-111260523D01*
X159873404Y-111260523D01*
X159873407Y-111260522D01*
X159958322Y-111175607D01*
X159960155Y-111172008D01*
X160012838Y-111068614D01*
X160012838Y-111068612D01*
X160012840Y-111068609D01*
X160031626Y-110950000D01*
X160012840Y-110831391D01*
X160012838Y-110831388D01*
X160012838Y-110831385D01*
X159958323Y-110724394D01*
X159873405Y-110639476D01*
X159766414Y-110584961D01*
X159766409Y-110584960D01*
X159647800Y-110566174D01*
X159529190Y-110584960D01*
X159529185Y-110584961D01*
X159422194Y-110639476D01*
X159337276Y-110724394D01*
X159282761Y-110831385D01*
X159282760Y-110831390D01*
X159263974Y-110950000D01*
X155975500Y-110950000D01*
X155975500Y-109500000D01*
X160413974Y-109500000D01*
X160432760Y-109618609D01*
X160432761Y-109618614D01*
X160487276Y-109725605D01*
X160572194Y-109810523D01*
X160679185Y-109865038D01*
X160679188Y-109865038D01*
X160679191Y-109865040D01*
X160797800Y-109883826D01*
X160916409Y-109865040D01*
X160916412Y-109865038D01*
X160916414Y-109865038D01*
X161023405Y-109810523D01*
X161023404Y-109810523D01*
X161023407Y-109810522D01*
X161108322Y-109725607D01*
X161110155Y-109722008D01*
X161162838Y-109618614D01*
X161162838Y-109618612D01*
X161162840Y-109618609D01*
X161181626Y-109500000D01*
X161162840Y-109381391D01*
X161162838Y-109381388D01*
X161162838Y-109381385D01*
X161108323Y-109274394D01*
X161023405Y-109189476D01*
X160916414Y-109134961D01*
X160916409Y-109134960D01*
X160797800Y-109116174D01*
X160679190Y-109134960D01*
X160679185Y-109134961D01*
X160572194Y-109189476D01*
X160487276Y-109274394D01*
X160432761Y-109381385D01*
X160432760Y-109381390D01*
X160413974Y-109500000D01*
X155975500Y-109500000D01*
X155975500Y-107656367D01*
X155997174Y-107604041D01*
X156049500Y-107582367D01*
X156083095Y-107590433D01*
X156131386Y-107615038D01*
X156131388Y-107615038D01*
X156131391Y-107615040D01*
X156250000Y-107633826D01*
X156368609Y-107615040D01*
X156368612Y-107615038D01*
X156368614Y-107615038D01*
X156475605Y-107560523D01*
X156475604Y-107560523D01*
X156475607Y-107560522D01*
X156560522Y-107475607D01*
X156607287Y-107383826D01*
X156615038Y-107368614D01*
X156615038Y-107368612D01*
X156615040Y-107368609D01*
X156633826Y-107250000D01*
X156615040Y-107131391D01*
X156615038Y-107131388D01*
X156615038Y-107131385D01*
X156560523Y-107024394D01*
X156536129Y-107000000D01*
X159116174Y-107000000D01*
X159134960Y-107118609D01*
X159134961Y-107118614D01*
X159189476Y-107225605D01*
X159274394Y-107310523D01*
X159381385Y-107365038D01*
X159381388Y-107365038D01*
X159381391Y-107365040D01*
X159500000Y-107383826D01*
X159618609Y-107365040D01*
X159618612Y-107365038D01*
X159618614Y-107365038D01*
X159725605Y-107310523D01*
X159725604Y-107310523D01*
X159725607Y-107310522D01*
X159810522Y-107225607D01*
X159812355Y-107222008D01*
X159865038Y-107118614D01*
X159865038Y-107118612D01*
X159865040Y-107118609D01*
X159883826Y-107000000D01*
X159865040Y-106881391D01*
X159865038Y-106881388D01*
X159865038Y-106881385D01*
X159810523Y-106774394D01*
X159725605Y-106689476D01*
X159618614Y-106634961D01*
X159618609Y-106634960D01*
X159500000Y-106616174D01*
X159381390Y-106634960D01*
X159381385Y-106634961D01*
X159274394Y-106689476D01*
X159189476Y-106774394D01*
X159134961Y-106881385D01*
X159134960Y-106881390D01*
X159116174Y-107000000D01*
X156536129Y-107000000D01*
X156475605Y-106939476D01*
X156368614Y-106884961D01*
X156368609Y-106884960D01*
X156250000Y-106866174D01*
X156131390Y-106884960D01*
X156131388Y-106884960D01*
X156083094Y-106909567D01*
X156026632Y-106914010D01*
X155983565Y-106877226D01*
X155975500Y-106843632D01*
X155975500Y-104215180D01*
X160999500Y-104215180D01*
X160999500Y-105944820D01*
X161008233Y-105988722D01*
X161041496Y-106038504D01*
X161091278Y-106071767D01*
X161135180Y-106080500D01*
X161135181Y-106080500D01*
X162864819Y-106080500D01*
X162864820Y-106080500D01*
X162908722Y-106071767D01*
X162958504Y-106038504D01*
X162991767Y-105988722D01*
X163000500Y-105944820D01*
X163000500Y-104215180D01*
X162991767Y-104171278D01*
X162958504Y-104121496D01*
X162928694Y-104101578D01*
X162908722Y-104088233D01*
X162864820Y-104079500D01*
X161135180Y-104079500D01*
X161113229Y-104083866D01*
X161091277Y-104088233D01*
X161041496Y-104121495D01*
X161041495Y-104121496D01*
X161008233Y-104171277D01*
X161008233Y-104171278D01*
X160999500Y-104215180D01*
X155975500Y-104215180D01*
X155975500Y-102540000D01*
X160994659Y-102540000D01*
X161013976Y-102736133D01*
X161071187Y-102924731D01*
X161125255Y-103025883D01*
X161164090Y-103098538D01*
X161289117Y-103250883D01*
X161441462Y-103375910D01*
X161514665Y-103415038D01*
X161615268Y-103468812D01*
X161615270Y-103468812D01*
X161615273Y-103468814D01*
X161803868Y-103526024D01*
X162000000Y-103545341D01*
X162196132Y-103526024D01*
X162384727Y-103468814D01*
X162558538Y-103375910D01*
X162710883Y-103250883D01*
X162835910Y-103098538D01*
X162918187Y-102944608D01*
X162928812Y-102924731D01*
X162928812Y-102924730D01*
X162928814Y-102924727D01*
X162986024Y-102736132D01*
X163005341Y-102540000D01*
X162986024Y-102343868D01*
X162928814Y-102155273D01*
X162928812Y-102155270D01*
X162928812Y-102155268D01*
X162877048Y-102058426D01*
X162835910Y-101981462D01*
X162710883Y-101829117D01*
X162558538Y-101704090D01*
X162548597Y-101698776D01*
X162384731Y-101611187D01*
X162196133Y-101553976D01*
X162000000Y-101534659D01*
X161803866Y-101553976D01*
X161615268Y-101611187D01*
X161441463Y-101704089D01*
X161289117Y-101829117D01*
X161164089Y-101981463D01*
X161071187Y-102155268D01*
X161013976Y-102343866D01*
X160994659Y-102540000D01*
X155975500Y-102540000D01*
X155975500Y-101903475D01*
X155975501Y-101903466D01*
X155975501Y-101805147D01*
X155975501Y-101805146D01*
X155955335Y-101756462D01*
X155941170Y-101722264D01*
X155877736Y-101658830D01*
X155873521Y-101654615D01*
X155873514Y-101654609D01*
X154218905Y-100000000D01*
X160994659Y-100000000D01*
X161013976Y-100196133D01*
X161071187Y-100384731D01*
X161158776Y-100548597D01*
X161164090Y-100558538D01*
X161289117Y-100710883D01*
X161441462Y-100835910D01*
X161518426Y-100877048D01*
X161615268Y-100928812D01*
X161615270Y-100928812D01*
X161615273Y-100928814D01*
X161803868Y-100986024D01*
X162000000Y-101005341D01*
X162196132Y-100986024D01*
X162384727Y-100928814D01*
X162558538Y-100835910D01*
X162710883Y-100710883D01*
X162835910Y-100558538D01*
X162928814Y-100384727D01*
X162986024Y-100196132D01*
X163005341Y-100000000D01*
X162986024Y-99803868D01*
X162928814Y-99615273D01*
X162928812Y-99615270D01*
X162928812Y-99615268D01*
X162877048Y-99518426D01*
X162835910Y-99441462D01*
X162710883Y-99289117D01*
X162558538Y-99164090D01*
X162548597Y-99158776D01*
X162384731Y-99071187D01*
X162196133Y-99013976D01*
X162000000Y-98994659D01*
X161803866Y-99013976D01*
X161615268Y-99071187D01*
X161441463Y-99164089D01*
X161289117Y-99289117D01*
X161164089Y-99441463D01*
X161071187Y-99615268D01*
X161013976Y-99803866D01*
X160994659Y-100000000D01*
X154218905Y-100000000D01*
X149518905Y-95300000D01*
X150866174Y-95300000D01*
X150884960Y-95418609D01*
X150884961Y-95418614D01*
X150939476Y-95525605D01*
X151024394Y-95610523D01*
X151131385Y-95665038D01*
X151131388Y-95665038D01*
X151131391Y-95665040D01*
X151250000Y-95683826D01*
X151368609Y-95665040D01*
X151368612Y-95665038D01*
X151368614Y-95665038D01*
X151475605Y-95610523D01*
X151475604Y-95610523D01*
X151475607Y-95610522D01*
X151560522Y-95525607D01*
X151607287Y-95433826D01*
X151615038Y-95418614D01*
X151615038Y-95418612D01*
X151615040Y-95418609D01*
X151633826Y-95300000D01*
X151615040Y-95181391D01*
X151615038Y-95181388D01*
X151615038Y-95181385D01*
X151560523Y-95074394D01*
X151475605Y-94989476D01*
X151368614Y-94934961D01*
X151368609Y-94934960D01*
X151250000Y-94916174D01*
X151131390Y-94934960D01*
X151131385Y-94934961D01*
X151024394Y-94989476D01*
X150939476Y-95074394D01*
X150884961Y-95181385D01*
X150884960Y-95181390D01*
X150866174Y-95300000D01*
X149518905Y-95300000D01*
X144101578Y-89882673D01*
X144101578Y-89882672D01*
X144027735Y-89808829D01*
X143997667Y-89796375D01*
X143944855Y-89774499D01*
X143855145Y-89774499D01*
X143846533Y-89774499D01*
X143846525Y-89774500D01*
X143441281Y-89774500D01*
X143388955Y-89752826D01*
X143325605Y-89689476D01*
X143218614Y-89634961D01*
X143218610Y-89634960D01*
X143122177Y-89619686D01*
X143073886Y-89590093D01*
X143067262Y-89562500D01*
X146078674Y-89562500D01*
X146097460Y-89681109D01*
X146097461Y-89681114D01*
X146151976Y-89788105D01*
X146236894Y-89873023D01*
X146343885Y-89927538D01*
X146343888Y-89927538D01*
X146343891Y-89927540D01*
X146462500Y-89946326D01*
X146581109Y-89927540D01*
X146581112Y-89927538D01*
X146581114Y-89927538D01*
X146688105Y-89873023D01*
X146688104Y-89873023D01*
X146688107Y-89873022D01*
X146773022Y-89788107D01*
X146790999Y-89752826D01*
X146827538Y-89681114D01*
X146827538Y-89681112D01*
X146827540Y-89681109D01*
X146846326Y-89562500D01*
X146827540Y-89443891D01*
X146827538Y-89443888D01*
X146827538Y-89443885D01*
X146773023Y-89336894D01*
X146688105Y-89251976D01*
X146581114Y-89197461D01*
X146581109Y-89197460D01*
X146462500Y-89178674D01*
X146343890Y-89197460D01*
X146343885Y-89197461D01*
X146236894Y-89251976D01*
X146151976Y-89336894D01*
X146097461Y-89443885D01*
X146097460Y-89443890D01*
X146078674Y-89562500D01*
X143067262Y-89562500D01*
X143060665Y-89535020D01*
X143063377Y-89523728D01*
X143065039Y-89518611D01*
X143065039Y-89518610D01*
X143065040Y-89518609D01*
X143083826Y-89400000D01*
X143065040Y-89281391D01*
X143065038Y-89281388D01*
X143065038Y-89281385D01*
X143010523Y-89174394D01*
X142925605Y-89089476D01*
X142818614Y-89034961D01*
X142818609Y-89034960D01*
X142700000Y-89016174D01*
X142581390Y-89034960D01*
X142581385Y-89034961D01*
X142474394Y-89089476D01*
X142441760Y-89122110D01*
X142389434Y-89143783D01*
X142337108Y-89122108D01*
X142323501Y-89103379D01*
X142306871Y-89070742D01*
X142221954Y-88985825D01*
X142114963Y-88931310D01*
X142114958Y-88931309D01*
X141996349Y-88912523D01*
X141877739Y-88931309D01*
X141783095Y-88979532D01*
X141726632Y-88983975D01*
X141683565Y-88947192D01*
X141675500Y-88913597D01*
X141675500Y-87974056D01*
X141697173Y-87921731D01*
X142917294Y-86701609D01*
X142969619Y-86679936D01*
X142981187Y-86680846D01*
X143000000Y-86683826D01*
X143118609Y-86665040D01*
X143118612Y-86665038D01*
X143118614Y-86665038D01*
X143225605Y-86610523D01*
X143225604Y-86610523D01*
X143225607Y-86610522D01*
X143310522Y-86525607D01*
X143323570Y-86499999D01*
X143365038Y-86418614D01*
X143365038Y-86418612D01*
X143365040Y-86418609D01*
X143383826Y-86300000D01*
X143365040Y-86181391D01*
X143365038Y-86181388D01*
X143365038Y-86181385D01*
X143310523Y-86074394D01*
X143225605Y-85989476D01*
X143118614Y-85934961D01*
X143118609Y-85934960D01*
X143000000Y-85916174D01*
X142881390Y-85934960D01*
X142881385Y-85934961D01*
X142774394Y-85989476D01*
X142689476Y-86074394D01*
X142634961Y-86181385D01*
X142634960Y-86181390D01*
X142620230Y-86274394D01*
X142616174Y-86300000D01*
X142617572Y-86308830D01*
X142619152Y-86318802D01*
X142605930Y-86373874D01*
X142598389Y-86382704D01*
X141322265Y-87658829D01*
X141258830Y-87722263D01*
X141254192Y-87733461D01*
X141224499Y-87805144D01*
X141025500Y-87805144D01*
X141025500Y-86624056D01*
X141047173Y-86571731D01*
X141517294Y-86101609D01*
X141569619Y-86079936D01*
X141581187Y-86080846D01*
X141600000Y-86083826D01*
X141718609Y-86065040D01*
X141718612Y-86065038D01*
X141718614Y-86065038D01*
X141825605Y-86010523D01*
X141825604Y-86010523D01*
X141825607Y-86010522D01*
X141910522Y-85925607D01*
X141935999Y-85875605D01*
X141965038Y-85818614D01*
X141965038Y-85818612D01*
X141965040Y-85818609D01*
X141983826Y-85700000D01*
X141965040Y-85581391D01*
X141965038Y-85581388D01*
X141965038Y-85581385D01*
X141910523Y-85474394D01*
X141825605Y-85389476D01*
X141718614Y-85334961D01*
X141718609Y-85334960D01*
X141600000Y-85316174D01*
X141481390Y-85334960D01*
X141481389Y-85334960D01*
X141472328Y-85339577D01*
X141415865Y-85344018D01*
X141372799Y-85307234D01*
X141365646Y-85285217D01*
X141365623Y-85285077D01*
X141365040Y-85281391D01*
X141365038Y-85281388D01*
X141365038Y-85281385D01*
X141310523Y-85174394D01*
X141225605Y-85089476D01*
X141118614Y-85034961D01*
X141118609Y-85034960D01*
X141000000Y-85016174D01*
X140881390Y-85034960D01*
X140881385Y-85034961D01*
X140774394Y-85089476D01*
X140689476Y-85174394D01*
X140634961Y-85281385D01*
X140634960Y-85281390D01*
X140617841Y-85389478D01*
X140616174Y-85400000D01*
X140617572Y-85408830D01*
X140619152Y-85418802D01*
X140605930Y-85473874D01*
X140598389Y-85482704D01*
X140151826Y-85929268D01*
X140099500Y-85950942D01*
X140047174Y-85929268D01*
X140025500Y-85876942D01*
X140025500Y-85241281D01*
X140047174Y-85188955D01*
X140061736Y-85174393D01*
X140110522Y-85125607D01*
X140139565Y-85068607D01*
X140165038Y-85018614D01*
X140165038Y-85018612D01*
X140165040Y-85018609D01*
X140183826Y-84900000D01*
X140165040Y-84781391D01*
X140165038Y-84781388D01*
X140165038Y-84781385D01*
X140110523Y-84674394D01*
X140025607Y-84589478D01*
X140025006Y-84589172D01*
X139920148Y-84535744D01*
X139883367Y-84492679D01*
X139887810Y-84436216D01*
X139901419Y-84417485D01*
X140063758Y-84255146D01*
X140891170Y-83427736D01*
X140925500Y-83344855D01*
X140925500Y-83255146D01*
X140925500Y-82941281D01*
X140947174Y-82888955D01*
X140958303Y-82877826D01*
X141010522Y-82825607D01*
X141012355Y-82822008D01*
X141065038Y-82718614D01*
X141065038Y-82718612D01*
X141065040Y-82718609D01*
X141083826Y-82600000D01*
X141065040Y-82481391D01*
X141065038Y-82481388D01*
X141065038Y-82481385D01*
X141010523Y-82374394D01*
X140925605Y-82289476D01*
X140818614Y-82234961D01*
X140818609Y-82234960D01*
X140700000Y-82216174D01*
X140581390Y-82234960D01*
X140581385Y-82234961D01*
X140474394Y-82289476D01*
X140389476Y-82374394D01*
X140334961Y-82481385D01*
X140334960Y-82481390D01*
X140316174Y-82600000D01*
X140334960Y-82718609D01*
X140334961Y-82718614D01*
X140389476Y-82825605D01*
X140452826Y-82888955D01*
X140474500Y-82941281D01*
X140474500Y-83175942D01*
X140452826Y-83228268D01*
X139842984Y-83838109D01*
X139790658Y-83859783D01*
X139738332Y-83838109D01*
X139717569Y-83797359D01*
X139715040Y-83781391D01*
X139715038Y-83781388D01*
X139715038Y-83781385D01*
X139660523Y-83674394D01*
X139575605Y-83589476D01*
X139468614Y-83534961D01*
X139468609Y-83534960D01*
X139350000Y-83516174D01*
X139231390Y-83534960D01*
X139231385Y-83534961D01*
X139124394Y-83589476D01*
X139039476Y-83674394D01*
X138984961Y-83781385D01*
X138984960Y-83781390D01*
X138966174Y-83900000D01*
X138966174Y-83900004D01*
X138969151Y-83918805D01*
X138955928Y-83973876D01*
X138948388Y-83982704D01*
X138578269Y-84352826D01*
X138525943Y-84374500D01*
X137755145Y-84374500D01*
X137672266Y-84408828D01*
X137608829Y-84472265D01*
X134548483Y-87532610D01*
X134496157Y-87554284D01*
X134481723Y-87552862D01*
X134464820Y-87549500D01*
X132435180Y-87549500D01*
X132418460Y-87552826D01*
X132391277Y-87558233D01*
X132341496Y-87591495D01*
X132341495Y-87591496D01*
X132308233Y-87641277D01*
X132299500Y-87685180D01*
X132000500Y-87685180D01*
X132000500Y-86200000D01*
X132466174Y-86200000D01*
X132484960Y-86318609D01*
X132484961Y-86318614D01*
X132539476Y-86425605D01*
X132624394Y-86510523D01*
X132731385Y-86565038D01*
X132731388Y-86565038D01*
X132731391Y-86565040D01*
X132850000Y-86583826D01*
X132968609Y-86565040D01*
X132968612Y-86565038D01*
X132968614Y-86565038D01*
X133075605Y-86510523D01*
X133075604Y-86510523D01*
X133075607Y-86510522D01*
X133160522Y-86425607D01*
X133173345Y-86400440D01*
X133215038Y-86318614D01*
X133215038Y-86318612D01*
X133215040Y-86318609D01*
X133233826Y-86200000D01*
X133215040Y-86081391D01*
X133215038Y-86081388D01*
X133215038Y-86081385D01*
X133160523Y-85974394D01*
X133075605Y-85889476D01*
X132968614Y-85834961D01*
X132968609Y-85834960D01*
X132850000Y-85816174D01*
X132731390Y-85834960D01*
X132731385Y-85834961D01*
X132624394Y-85889476D01*
X132539476Y-85974394D01*
X132484961Y-86081385D01*
X132484960Y-86081390D01*
X132466174Y-86200000D01*
X132000500Y-86200000D01*
X132000500Y-78800000D01*
X136816174Y-78800000D01*
X136834960Y-78918609D01*
X136834961Y-78918614D01*
X136889476Y-79025605D01*
X136974394Y-79110523D01*
X137081385Y-79165038D01*
X137081388Y-79165038D01*
X137081391Y-79165040D01*
X137200000Y-79183826D01*
X137318609Y-79165040D01*
X137318612Y-79165038D01*
X137318614Y-79165038D01*
X137425605Y-79110523D01*
X137425604Y-79110523D01*
X137425607Y-79110522D01*
X137510522Y-79025607D01*
X137546764Y-78954478D01*
X137565038Y-78918614D01*
X137565038Y-78918612D01*
X137565040Y-78918609D01*
X137583826Y-78800000D01*
X137565040Y-78681391D01*
X137565038Y-78681388D01*
X137565038Y-78681385D01*
X137510523Y-78574394D01*
X137425605Y-78489476D01*
X137318614Y-78434961D01*
X137318609Y-78434960D01*
X137200000Y-78416174D01*
X137081390Y-78434960D01*
X137081385Y-78434961D01*
X136974394Y-78489476D01*
X136889476Y-78574394D01*
X136834961Y-78681385D01*
X136834960Y-78681390D01*
X136816174Y-78800000D01*
X132000500Y-78800000D01*
X132000500Y-77300000D01*
X145616174Y-77300000D01*
X145634960Y-77418609D01*
X145634961Y-77418614D01*
X145689476Y-77525605D01*
X145774394Y-77610523D01*
X145881385Y-77665038D01*
X145881388Y-77665038D01*
X145881391Y-77665040D01*
X146000000Y-77683826D01*
X146118609Y-77665040D01*
X146118612Y-77665038D01*
X146118614Y-77665038D01*
X146225605Y-77610523D01*
X146225604Y-77610523D01*
X146225607Y-77610522D01*
X146310522Y-77525607D01*
X146318189Y-77510559D01*
X146365038Y-77418614D01*
X146365038Y-77418612D01*
X146365040Y-77418609D01*
X146367987Y-77400000D01*
X147216174Y-77400000D01*
X147234960Y-77518609D01*
X147234961Y-77518614D01*
X147289476Y-77625605D01*
X147374394Y-77710523D01*
X147481385Y-77765038D01*
X147481388Y-77765038D01*
X147481391Y-77765040D01*
X147600000Y-77783826D01*
X147718609Y-77765040D01*
X147718612Y-77765038D01*
X147718614Y-77765038D01*
X147825605Y-77710523D01*
X147825604Y-77710523D01*
X147825607Y-77710522D01*
X147910522Y-77625607D01*
X147923570Y-77600000D01*
X149516174Y-77600000D01*
X149534960Y-77718609D01*
X149534961Y-77718614D01*
X149589476Y-77825605D01*
X149674394Y-77910523D01*
X149781385Y-77965038D01*
X149781388Y-77965038D01*
X149781391Y-77965040D01*
X149900000Y-77983826D01*
X150018609Y-77965040D01*
X150018612Y-77965038D01*
X150018614Y-77965038D01*
X150125605Y-77910523D01*
X150125604Y-77910523D01*
X150125607Y-77910522D01*
X150210522Y-77825607D01*
X150223569Y-77800000D01*
X150265038Y-77718614D01*
X150265038Y-77718612D01*
X150265040Y-77718609D01*
X150283826Y-77600000D01*
X151616174Y-77600000D01*
X151634960Y-77718609D01*
X151634961Y-77718614D01*
X151689476Y-77825605D01*
X151774394Y-77910523D01*
X151881385Y-77965038D01*
X151881388Y-77965038D01*
X151881391Y-77965040D01*
X152000000Y-77983826D01*
X152118609Y-77965040D01*
X152118612Y-77965038D01*
X152118614Y-77965038D01*
X152225605Y-77910523D01*
X152225604Y-77910523D01*
X152225607Y-77910522D01*
X152310522Y-77825607D01*
X152323569Y-77800000D01*
X152365038Y-77718614D01*
X152365038Y-77718612D01*
X152365040Y-77718609D01*
X152383826Y-77600000D01*
X152365040Y-77481391D01*
X152365038Y-77481388D01*
X152365038Y-77481385D01*
X152310523Y-77374394D01*
X152225605Y-77289476D01*
X152118614Y-77234961D01*
X152118609Y-77234960D01*
X152000000Y-77216174D01*
X151881390Y-77234960D01*
X151881385Y-77234961D01*
X151774394Y-77289476D01*
X151689476Y-77374394D01*
X151634961Y-77481385D01*
X151634960Y-77481390D01*
X151616174Y-77600000D01*
X150283826Y-77600000D01*
X150265040Y-77481391D01*
X150265038Y-77481388D01*
X150265038Y-77481385D01*
X150210523Y-77374394D01*
X150125605Y-77289476D01*
X150018614Y-77234961D01*
X150018609Y-77234960D01*
X149900000Y-77216174D01*
X149781390Y-77234960D01*
X149781385Y-77234961D01*
X149674394Y-77289476D01*
X149589476Y-77374394D01*
X149534961Y-77481385D01*
X149534960Y-77481390D01*
X149516174Y-77600000D01*
X147923570Y-77600000D01*
X147936617Y-77574393D01*
X147965038Y-77518614D01*
X147965038Y-77518612D01*
X147965040Y-77518609D01*
X147983826Y-77400000D01*
X147965040Y-77281391D01*
X147965038Y-77281388D01*
X147965038Y-77281385D01*
X147910523Y-77174394D01*
X147825605Y-77089476D01*
X147718614Y-77034961D01*
X147718609Y-77034960D01*
X147600000Y-77016174D01*
X147481390Y-77034960D01*
X147481385Y-77034961D01*
X147374394Y-77089476D01*
X147289476Y-77174394D01*
X147234961Y-77281385D01*
X147234960Y-77281390D01*
X147216174Y-77400000D01*
X146367987Y-77400000D01*
X146383826Y-77300000D01*
X146365040Y-77181391D01*
X146365038Y-77181388D01*
X146365038Y-77181385D01*
X146310523Y-77074394D01*
X146225605Y-76989476D01*
X146118614Y-76934961D01*
X146118609Y-76934960D01*
X146000000Y-76916174D01*
X145881390Y-76934960D01*
X145881385Y-76934961D01*
X145774394Y-76989476D01*
X145689476Y-77074394D01*
X145634961Y-77181385D01*
X145634960Y-77181390D01*
X145616174Y-77300000D01*
X132000500Y-77300000D01*
X132000500Y-70100000D01*
X143216174Y-70100000D01*
X143234960Y-70218609D01*
X143234961Y-70218614D01*
X143289476Y-70325605D01*
X143374394Y-70410523D01*
X143481385Y-70465038D01*
X143481388Y-70465038D01*
X143481391Y-70465040D01*
X143600000Y-70483826D01*
X143718609Y-70465040D01*
X143718612Y-70465038D01*
X143718614Y-70465038D01*
X143825605Y-70410523D01*
X143825604Y-70410523D01*
X143825607Y-70410522D01*
X143910522Y-70325607D01*
X143912355Y-70322008D01*
X143965038Y-70218614D01*
X143965038Y-70218612D01*
X143965040Y-70218609D01*
X143983826Y-70100000D01*
X143965040Y-69981391D01*
X143965038Y-69981388D01*
X143965038Y-69981385D01*
X143910523Y-69874394D01*
X143825605Y-69789476D01*
X143718614Y-69734961D01*
X143718609Y-69734960D01*
X143600000Y-69716174D01*
X143481390Y-69734960D01*
X143481385Y-69734961D01*
X143374394Y-69789476D01*
X143289476Y-69874394D01*
X143234961Y-69981385D01*
X143234960Y-69981390D01*
X143216174Y-70100000D01*
X132000500Y-70100000D01*
X132000500Y-68250000D01*
X156116174Y-68250000D01*
X156134960Y-68368609D01*
X156134961Y-68368614D01*
X156189476Y-68475605D01*
X156274394Y-68560523D01*
X156381385Y-68615038D01*
X156381388Y-68615038D01*
X156381391Y-68615040D01*
X156500000Y-68633826D01*
X156618609Y-68615040D01*
X156618612Y-68615038D01*
X156618614Y-68615038D01*
X156725605Y-68560523D01*
X156725604Y-68560523D01*
X156725607Y-68560522D01*
X156810522Y-68475607D01*
X156812355Y-68472008D01*
X156865038Y-68368614D01*
X156865038Y-68368612D01*
X156865040Y-68368609D01*
X156883826Y-68250000D01*
X156865040Y-68131391D01*
X156865038Y-68131388D01*
X156865038Y-68131385D01*
X156810523Y-68024394D01*
X156725605Y-67939476D01*
X156618614Y-67884961D01*
X156618609Y-67884960D01*
X156500000Y-67866174D01*
X156381390Y-67884960D01*
X156381385Y-67884961D01*
X156274394Y-67939476D01*
X156189476Y-68024394D01*
X156134961Y-68131385D01*
X156134960Y-68131390D01*
X156116174Y-68250000D01*
X132000500Y-68250000D01*
X132000500Y-66150000D01*
X150266174Y-66150000D01*
X150284960Y-66268609D01*
X150284961Y-66268614D01*
X150339476Y-66375605D01*
X150424394Y-66460523D01*
X150531385Y-66515038D01*
X150531388Y-66515038D01*
X150531391Y-66515040D01*
X150650000Y-66533826D01*
X150768609Y-66515040D01*
X150768612Y-66515038D01*
X150768614Y-66515038D01*
X150875605Y-66460523D01*
X150875604Y-66460523D01*
X150875607Y-66460522D01*
X150960522Y-66375607D01*
X150960523Y-66375604D01*
X150963946Y-66370895D01*
X150966099Y-66372459D01*
X151002128Y-66341684D01*
X151058591Y-66346124D01*
X151084494Y-66372027D01*
X151086054Y-66370895D01*
X151089476Y-66375605D01*
X151174394Y-66460523D01*
X151281385Y-66515038D01*
X151281388Y-66515038D01*
X151281391Y-66515040D01*
X151400000Y-66533826D01*
X151518609Y-66515040D01*
X151518612Y-66515038D01*
X151518614Y-66515038D01*
X151625605Y-66460523D01*
X151625604Y-66460523D01*
X151625607Y-66460522D01*
X151710522Y-66375607D01*
X151727807Y-66341684D01*
X151765038Y-66268614D01*
X151765038Y-66268612D01*
X151765040Y-66268609D01*
X151783826Y-66150000D01*
X151765040Y-66031391D01*
X151765038Y-66031388D01*
X151765038Y-66031385D01*
X151710523Y-65924394D01*
X151625605Y-65839476D01*
X151518614Y-65784961D01*
X151518609Y-65784960D01*
X151400000Y-65766174D01*
X151281390Y-65784960D01*
X151281385Y-65784961D01*
X151174394Y-65839476D01*
X151089476Y-65924394D01*
X151086054Y-65929105D01*
X151083902Y-65927541D01*
X151047860Y-65958319D01*
X150991398Y-65953869D01*
X150965502Y-65927973D01*
X150963946Y-65929105D01*
X150960523Y-65924394D01*
X150875605Y-65839476D01*
X150768614Y-65784961D01*
X150768609Y-65784960D01*
X150650000Y-65766174D01*
X150531390Y-65784960D01*
X150531385Y-65784961D01*
X150424394Y-65839476D01*
X150339476Y-65924394D01*
X150284961Y-66031385D01*
X150284960Y-66031390D01*
X150266174Y-66150000D01*
X132000500Y-66150000D01*
X132000500Y-63883716D01*
X133522500Y-63883716D01*
X133522500Y-64116283D01*
X133558880Y-64345979D01*
X133558883Y-64345992D01*
X133630745Y-64567160D01*
X133630747Y-64567164D01*
X133736327Y-64774378D01*
X133852172Y-64933825D01*
X133873026Y-64962527D01*
X134037473Y-65126974D01*
X134037476Y-65126976D01*
X134037477Y-65126977D01*
X134225621Y-65263672D01*
X134432835Y-65369252D01*
X134432839Y-65369254D01*
X134654007Y-65441116D01*
X134654013Y-65441117D01*
X134654018Y-65441119D01*
X134768868Y-65459309D01*
X134883716Y-65477500D01*
X134883718Y-65477500D01*
X135116284Y-65477500D01*
X135208162Y-65462947D01*
X135345982Y-65441119D01*
X135345989Y-65441116D01*
X135345992Y-65441116D01*
X135567160Y-65369254D01*
X135567160Y-65369253D01*
X135567163Y-65369253D01*
X135774379Y-65263672D01*
X135962527Y-65126974D01*
X136126974Y-64962527D01*
X136263672Y-64774379D01*
X136369253Y-64567163D01*
X136374830Y-64550000D01*
X143466174Y-64550000D01*
X143484960Y-64668609D01*
X143484961Y-64668614D01*
X143539476Y-64775605D01*
X143624394Y-64860523D01*
X143731385Y-64915038D01*
X143731388Y-64915038D01*
X143731391Y-64915040D01*
X143850000Y-64933826D01*
X143968609Y-64915040D01*
X143968612Y-64915038D01*
X143968614Y-64915038D01*
X144075605Y-64860523D01*
X144075604Y-64860523D01*
X144075607Y-64860522D01*
X144160522Y-64775607D01*
X144162355Y-64772008D01*
X144215038Y-64668614D01*
X144215038Y-64668612D01*
X144215040Y-64668609D01*
X144233826Y-64550000D01*
X152766174Y-64550000D01*
X152784960Y-64668609D01*
X152784961Y-64668614D01*
X152839476Y-64775605D01*
X152924394Y-64860523D01*
X153031385Y-64915038D01*
X153031388Y-64915038D01*
X153031391Y-64915040D01*
X153150000Y-64933826D01*
X153268609Y-64915040D01*
X153268612Y-64915038D01*
X153268614Y-64915038D01*
X153375605Y-64860523D01*
X153375604Y-64860523D01*
X153375607Y-64860522D01*
X153460522Y-64775607D01*
X153462355Y-64772008D01*
X153515038Y-64668614D01*
X153515038Y-64668612D01*
X153515040Y-64668609D01*
X153533826Y-64550000D01*
X153515040Y-64431391D01*
X153515038Y-64431388D01*
X153515038Y-64431385D01*
X153460523Y-64324394D01*
X153375605Y-64239476D01*
X153268614Y-64184961D01*
X153268609Y-64184960D01*
X153150000Y-64166174D01*
X153031390Y-64184960D01*
X153031385Y-64184961D01*
X152924394Y-64239476D01*
X152839476Y-64324394D01*
X152784961Y-64431385D01*
X152784960Y-64431390D01*
X152766174Y-64550000D01*
X144233826Y-64550000D01*
X144215040Y-64431391D01*
X144215038Y-64431388D01*
X144215038Y-64431385D01*
X144160523Y-64324394D01*
X144075605Y-64239476D01*
X143968614Y-64184961D01*
X143968609Y-64184960D01*
X143850000Y-64166174D01*
X143731390Y-64184960D01*
X143731385Y-64184961D01*
X143624394Y-64239476D01*
X143539476Y-64324394D01*
X143484961Y-64431385D01*
X143484960Y-64431390D01*
X143466174Y-64550000D01*
X136374830Y-64550000D01*
X136441119Y-64345982D01*
X136477500Y-64116282D01*
X136477500Y-63883718D01*
X136477500Y-63883716D01*
X159522500Y-63883716D01*
X159522500Y-64116283D01*
X159558880Y-64345979D01*
X159558883Y-64345992D01*
X159630745Y-64567160D01*
X159630747Y-64567164D01*
X159736327Y-64774378D01*
X159852172Y-64933825D01*
X159873026Y-64962527D01*
X160037473Y-65126974D01*
X160037476Y-65126976D01*
X160037477Y-65126977D01*
X160225621Y-65263672D01*
X160432835Y-65369252D01*
X160432839Y-65369254D01*
X160654007Y-65441116D01*
X160654013Y-65441117D01*
X160654018Y-65441119D01*
X160768868Y-65459309D01*
X160883716Y-65477500D01*
X160883718Y-65477500D01*
X161116284Y-65477500D01*
X161208162Y-65462947D01*
X161345982Y-65441119D01*
X161345989Y-65441116D01*
X161345992Y-65441116D01*
X161567160Y-65369254D01*
X161567160Y-65369253D01*
X161567163Y-65369253D01*
X161774379Y-65263672D01*
X161962527Y-65126974D01*
X162126974Y-64962527D01*
X162263672Y-64774379D01*
X162369253Y-64567163D01*
X162441119Y-64345982D01*
X162477500Y-64116282D01*
X162477500Y-63883718D01*
X162441119Y-63654018D01*
X162441117Y-63654013D01*
X162441116Y-63654007D01*
X162369254Y-63432839D01*
X162369252Y-63432835D01*
X162263672Y-63225621D01*
X162126977Y-63037477D01*
X162126976Y-63037476D01*
X162126974Y-63037473D01*
X161962527Y-62873026D01*
X161962524Y-62873023D01*
X161962522Y-62873022D01*
X161774378Y-62736327D01*
X161567164Y-62630747D01*
X161567160Y-62630745D01*
X161345992Y-62558883D01*
X161345979Y-62558880D01*
X161116284Y-62522500D01*
X161116282Y-62522500D01*
X160883718Y-62522500D01*
X160883716Y-62522500D01*
X160654020Y-62558880D01*
X160654007Y-62558883D01*
X160432839Y-62630745D01*
X160432835Y-62630747D01*
X160225621Y-62736327D01*
X160037477Y-62873022D01*
X159873022Y-63037477D01*
X159736327Y-63225621D01*
X159630747Y-63432835D01*
X159630745Y-63432839D01*
X159558883Y-63654007D01*
X159558880Y-63654020D01*
X159522500Y-63883716D01*
X136477500Y-63883716D01*
X136441119Y-63654018D01*
X136441117Y-63654013D01*
X136441116Y-63654007D01*
X136369254Y-63432839D01*
X136369252Y-63432835D01*
X136263672Y-63225621D01*
X136126977Y-63037477D01*
X136126976Y-63037476D01*
X136126974Y-63037473D01*
X135962527Y-62873026D01*
X135962524Y-62873023D01*
X135962522Y-62873022D01*
X135774378Y-62736327D01*
X135567164Y-62630747D01*
X135567160Y-62630745D01*
X135345992Y-62558883D01*
X135345979Y-62558880D01*
X135116284Y-62522500D01*
X135116282Y-62522500D01*
X134883718Y-62522500D01*
X134883716Y-62522500D01*
X134654020Y-62558880D01*
X134654007Y-62558883D01*
X134432839Y-62630745D01*
X134432835Y-62630747D01*
X134225621Y-62736327D01*
X134037477Y-62873022D01*
X133873022Y-63037477D01*
X133736327Y-63225621D01*
X133630747Y-63432835D01*
X133630745Y-63432839D01*
X133558883Y-63654007D01*
X133558880Y-63654020D01*
X133522500Y-63883716D01*
X132000500Y-63883716D01*
X132000500Y-61570940D01*
X144549500Y-61570940D01*
X144549500Y-62629059D01*
X144590421Y-62781779D01*
X144590422Y-62781781D01*
X144590423Y-62781784D01*
X144669480Y-62918716D01*
X144781284Y-63030520D01*
X144918216Y-63109577D01*
X145070940Y-63150499D01*
X145070941Y-63150500D01*
X145070943Y-63150500D01*
X145229059Y-63150500D01*
X145229059Y-63150499D01*
X145381784Y-63109577D01*
X145518716Y-63030520D01*
X145630520Y-62918716D01*
X145709577Y-62781784D01*
X145750499Y-62629059D01*
X145750500Y-62629059D01*
X145750500Y-61570941D01*
X145750499Y-61570940D01*
X151149500Y-61570940D01*
X151149500Y-62629059D01*
X151190421Y-62781779D01*
X151190422Y-62781781D01*
X151190423Y-62781784D01*
X151269480Y-62918716D01*
X151381284Y-63030520D01*
X151518216Y-63109577D01*
X151670940Y-63150499D01*
X151670941Y-63150500D01*
X151670943Y-63150500D01*
X151829059Y-63150500D01*
X151829059Y-63150499D01*
X151981784Y-63109577D01*
X152118716Y-63030520D01*
X152230520Y-62918716D01*
X152309577Y-62781784D01*
X152350499Y-62629059D01*
X152350500Y-62629059D01*
X152350500Y-61570941D01*
X152350499Y-61570940D01*
X152309578Y-61418220D01*
X152309577Y-61418216D01*
X152230520Y-61281284D01*
X152118716Y-61169480D01*
X151981784Y-61090423D01*
X151981781Y-61090422D01*
X151981779Y-61090421D01*
X151829059Y-61049500D01*
X151829057Y-61049500D01*
X151670943Y-61049500D01*
X151670941Y-61049500D01*
X151518220Y-61090421D01*
X151518214Y-61090424D01*
X151381283Y-61169480D01*
X151269480Y-61281283D01*
X151190424Y-61418214D01*
X151190421Y-61418220D01*
X151149500Y-61570940D01*
X145750499Y-61570940D01*
X145709578Y-61418220D01*
X145709577Y-61418216D01*
X145630520Y-61281284D01*
X145518716Y-61169480D01*
X145381784Y-61090423D01*
X145381781Y-61090422D01*
X145381779Y-61090421D01*
X145229059Y-61049500D01*
X145229057Y-61049500D01*
X145070943Y-61049500D01*
X145070941Y-61049500D01*
X144918220Y-61090421D01*
X144918214Y-61090424D01*
X144781283Y-61169480D01*
X144669480Y-61281283D01*
X144590424Y-61418214D01*
X144590421Y-61418220D01*
X144549500Y-61570940D01*
X132000500Y-61570940D01*
X132000500Y-60974500D01*
X132022174Y-60922174D01*
X132074500Y-60900500D01*
X163925500Y-60900500D01*
X163977826Y-60922174D01*
G37*
%TD.AperFunction*%
%TD*%
%TA.AperFunction,Conductor*%
%TO.N,/Motor Driver/PHASE_B*%
G36*
X148443039Y-140019685D02*
G01*
X148488794Y-140072489D01*
X148500000Y-140124000D01*
X148500000Y-141000000D01*
X148726000Y-141000000D01*
X148793039Y-141019685D01*
X148838794Y-141072489D01*
X148850000Y-141124000D01*
X148850000Y-143750000D01*
X150976000Y-143750000D01*
X151043039Y-143769685D01*
X151088794Y-143822489D01*
X151100000Y-143874000D01*
X151100000Y-149775500D01*
X151080315Y-149842539D01*
X151027511Y-149888294D01*
X150976000Y-149899500D01*
X145024000Y-149899500D01*
X144956961Y-149879815D01*
X144911206Y-149827011D01*
X144900000Y-149775500D01*
X144900000Y-143874000D01*
X144919685Y-143806961D01*
X144972489Y-143761206D01*
X145024000Y-143750000D01*
X147150000Y-143750000D01*
X147150000Y-141124000D01*
X147169685Y-141056961D01*
X147222489Y-141011206D01*
X147274000Y-141000000D01*
X147500000Y-141000000D01*
X147500000Y-140124000D01*
X147519685Y-140056961D01*
X147572489Y-140011206D01*
X147624000Y-140000000D01*
X148376000Y-140000000D01*
X148443039Y-140019685D01*
G37*
%TD.AperFunction*%
%TD*%
%TA.AperFunction,Conductor*%
%TO.N,/VBAT*%
G36*
X138993039Y-127519685D02*
G01*
X139038794Y-127572489D01*
X139050000Y-127624000D01*
X139050000Y-136414508D01*
X139030315Y-136481547D01*
X138977511Y-136527302D01*
X138908353Y-136537246D01*
X138844797Y-136508221D01*
X138838319Y-136502189D01*
X138825612Y-136489482D01*
X138825608Y-136489479D01*
X138825607Y-136489478D01*
X138718609Y-136434960D01*
X138718607Y-136434959D01*
X138718604Y-136434958D01*
X138600002Y-136416174D01*
X138599998Y-136416174D01*
X138481395Y-136434958D01*
X138374391Y-136489479D01*
X138374387Y-136489482D01*
X138289482Y-136574387D01*
X138289479Y-136574391D01*
X138234958Y-136681395D01*
X138216174Y-136799997D01*
X138216174Y-136800002D01*
X138234958Y-136918604D01*
X138234959Y-136918607D01*
X138234960Y-136918609D01*
X138276431Y-137000000D01*
X138289479Y-137025608D01*
X138289482Y-137025612D01*
X138374387Y-137110517D01*
X138374391Y-137110520D01*
X138374393Y-137110522D01*
X138481391Y-137165040D01*
X138481393Y-137165040D01*
X138481395Y-137165041D01*
X138599998Y-137183826D01*
X138600000Y-137183826D01*
X138600002Y-137183826D01*
X138718604Y-137165041D01*
X138718604Y-137165040D01*
X138718609Y-137165040D01*
X138825607Y-137110522D01*
X138910522Y-137025607D01*
X138965040Y-136918609D01*
X138983826Y-136800000D01*
X138979770Y-136774393D01*
X138972368Y-136727656D01*
X138965040Y-136681391D01*
X138964479Y-136680291D01*
X138964201Y-136678810D01*
X138962026Y-136672115D01*
X138962891Y-136671833D01*
X138951585Y-136611623D01*
X138977863Y-136546883D01*
X139034970Y-136506627D01*
X139074966Y-136500000D01*
X140164508Y-136500000D01*
X140231547Y-136519685D01*
X140277302Y-136572489D01*
X140287246Y-136641647D01*
X140258221Y-136705203D01*
X140252189Y-136711681D01*
X140189482Y-136774387D01*
X140189479Y-136774391D01*
X140134958Y-136881395D01*
X140116174Y-136999997D01*
X140116174Y-137000002D01*
X140134958Y-137118604D01*
X140134959Y-137118607D01*
X140134960Y-137118609D01*
X140189478Y-137225607D01*
X140189479Y-137225608D01*
X140189482Y-137225612D01*
X140274387Y-137310517D01*
X140274391Y-137310520D01*
X140274393Y-137310522D01*
X140381391Y-137365040D01*
X140381393Y-137365040D01*
X140381395Y-137365041D01*
X140499998Y-137383826D01*
X140500000Y-137383826D01*
X140500002Y-137383826D01*
X140618604Y-137365041D01*
X140618604Y-137365040D01*
X140618609Y-137365040D01*
X140725607Y-137310522D01*
X140810522Y-137225607D01*
X140865040Y-137118609D01*
X140866322Y-137110517D01*
X140883826Y-137000002D01*
X140883826Y-136999997D01*
X140869736Y-136911043D01*
X140865040Y-136881391D01*
X140865039Y-136881389D01*
X140862026Y-136872115D01*
X140863251Y-136871716D01*
X140852187Y-136812816D01*
X140878461Y-136748075D01*
X140919272Y-136714701D01*
X141025607Y-136660522D01*
X141110522Y-136575607D01*
X141114549Y-136567702D01*
X141162525Y-136516908D01*
X141225033Y-136500000D01*
X146126000Y-136500000D01*
X146193039Y-136519685D01*
X146238794Y-136572489D01*
X146250000Y-136624000D01*
X146250000Y-139720500D01*
X146230315Y-139787539D01*
X146177511Y-139833294D01*
X146126000Y-139844500D01*
X145373991Y-139844500D01*
X145340944Y-139848054D01*
X145289433Y-139859260D01*
X145220657Y-139893686D01*
X145167860Y-139939436D01*
X145162376Y-139944422D01*
X145120486Y-140013145D01*
X145120483Y-140013151D01*
X145100799Y-140080187D01*
X145100797Y-140080197D01*
X145094500Y-140123996D01*
X145094500Y-141520500D01*
X145074815Y-141587539D01*
X145022011Y-141633294D01*
X144970500Y-141644500D01*
X140123991Y-141644500D01*
X140090944Y-141648054D01*
X140039433Y-141659260D01*
X139970657Y-141693686D01*
X139917860Y-141739436D01*
X139912376Y-141744422D01*
X139870486Y-141813145D01*
X139870483Y-141813151D01*
X139850799Y-141880187D01*
X139850797Y-141880197D01*
X139844500Y-141923996D01*
X139844500Y-149626008D01*
X139848054Y-149659055D01*
X139859259Y-149710564D01*
X139863981Y-149719997D01*
X139876385Y-149788756D01*
X139849647Y-149853307D01*
X139792254Y-149893155D01*
X139753096Y-149899500D01*
X132124500Y-149899500D01*
X132057461Y-149879815D01*
X132011706Y-149827011D01*
X132000500Y-149775500D01*
X132000500Y-146883718D01*
X133522500Y-146883718D01*
X133522500Y-147116281D01*
X133558881Y-147345983D01*
X133558881Y-147345986D01*
X133630745Y-147567160D01*
X133630747Y-147567163D01*
X133736328Y-147774379D01*
X133873026Y-147962527D01*
X134037473Y-148126974D01*
X134225621Y-148263672D01*
X134432837Y-148369253D01*
X134432839Y-148369254D01*
X134654014Y-148441118D01*
X134654015Y-148441118D01*
X134654018Y-148441119D01*
X134883718Y-148477500D01*
X134883719Y-148477500D01*
X135116281Y-148477500D01*
X135116282Y-148477500D01*
X135345982Y-148441119D01*
X135345985Y-148441118D01*
X135345986Y-148441118D01*
X135567160Y-148369254D01*
X135567160Y-148369253D01*
X135567163Y-148369253D01*
X135774379Y-148263672D01*
X135962527Y-148126974D01*
X136126974Y-147962527D01*
X136263672Y-147774379D01*
X136369253Y-147567163D01*
X136441119Y-147345982D01*
X136477500Y-147116282D01*
X136477500Y-146883718D01*
X136441119Y-146654018D01*
X136441118Y-146654014D01*
X136441118Y-146654013D01*
X136369254Y-146432839D01*
X136263671Y-146225620D01*
X136126974Y-146037473D01*
X135962527Y-145873026D01*
X135774379Y-145736328D01*
X135567160Y-145630745D01*
X135345985Y-145558881D01*
X135173707Y-145531595D01*
X135116282Y-145522500D01*
X134883718Y-145522500D01*
X134807151Y-145534627D01*
X134654016Y-145558881D01*
X134654013Y-145558881D01*
X134432839Y-145630745D01*
X134225620Y-145736328D01*
X134118275Y-145814319D01*
X134037473Y-145873026D01*
X134037471Y-145873028D01*
X134037470Y-145873028D01*
X133873028Y-146037470D01*
X133873028Y-146037471D01*
X133873026Y-146037473D01*
X133814319Y-146118275D01*
X133736328Y-146225620D01*
X133630745Y-146432839D01*
X133558881Y-146654013D01*
X133558881Y-146654016D01*
X133522500Y-146883718D01*
X132000500Y-146883718D01*
X132000500Y-140150000D01*
X132644592Y-140150000D01*
X132664201Y-140436680D01*
X132722666Y-140718034D01*
X132722667Y-140718037D01*
X132818894Y-140988793D01*
X132818893Y-140988793D01*
X132951098Y-141243935D01*
X133116812Y-141478700D01*
X133155851Y-141520500D01*
X133312947Y-141688708D01*
X133535853Y-141870055D01*
X133624574Y-141924008D01*
X133781382Y-142019365D01*
X133968237Y-142100526D01*
X134044942Y-142133844D01*
X134321642Y-142211371D01*
X134571920Y-142245771D01*
X134606321Y-142250500D01*
X134606322Y-142250500D01*
X134893679Y-142250500D01*
X134924370Y-142246281D01*
X135178358Y-142211371D01*
X135455058Y-142133844D01*
X135568015Y-142084779D01*
X135718617Y-142019365D01*
X135718620Y-142019363D01*
X135718625Y-142019361D01*
X135964147Y-141870055D01*
X136187053Y-141688708D01*
X136383189Y-141478698D01*
X136548901Y-141243936D01*
X136681104Y-140988797D01*
X136777334Y-140718032D01*
X136835798Y-140436686D01*
X136855408Y-140150000D01*
X136835798Y-139863314D01*
X136777334Y-139581968D01*
X136769712Y-139560523D01*
X136681105Y-139311206D01*
X136681106Y-139311206D01*
X136548901Y-139056064D01*
X136383187Y-138821299D01*
X136283947Y-138715040D01*
X136187053Y-138611292D01*
X135964147Y-138429945D01*
X135964146Y-138429944D01*
X135718617Y-138280634D01*
X135455063Y-138166158D01*
X135455061Y-138166157D01*
X135455058Y-138166156D01*
X135306003Y-138124393D01*
X135178364Y-138088630D01*
X135178359Y-138088629D01*
X135178358Y-138088629D01*
X135036018Y-138069064D01*
X134893679Y-138049500D01*
X134893678Y-138049500D01*
X134606322Y-138049500D01*
X134606321Y-138049500D01*
X134321642Y-138088629D01*
X134321635Y-138088630D01*
X134113861Y-138146845D01*
X134044942Y-138166156D01*
X134044939Y-138166156D01*
X134044936Y-138166158D01*
X134044935Y-138166158D01*
X133781382Y-138280634D01*
X133535853Y-138429944D01*
X133312950Y-138611289D01*
X133312947Y-138611291D01*
X133312947Y-138611292D01*
X133293513Y-138632100D01*
X133116812Y-138821299D01*
X132951098Y-139056064D01*
X132818894Y-139311206D01*
X132722667Y-139581962D01*
X132722666Y-139581965D01*
X132664201Y-139863319D01*
X132644592Y-140150000D01*
X132000500Y-140150000D01*
X132000500Y-127624000D01*
X132020185Y-127556961D01*
X132072989Y-127511206D01*
X132124500Y-127500000D01*
X138926000Y-127500000D01*
X138993039Y-127519685D01*
G37*
%TD.AperFunction*%
%TD*%
%TA.AperFunction,Conductor*%
%TO.N,/Motor Driver/PHASE_A*%
G36*
X146843039Y-140019685D02*
G01*
X146888794Y-140072489D01*
X146900000Y-140124000D01*
X146900000Y-143426000D01*
X146880315Y-143493039D01*
X146827511Y-143538794D01*
X146776000Y-143550000D01*
X144600000Y-143550000D01*
X144600000Y-149626000D01*
X144580315Y-149693039D01*
X144527511Y-149738794D01*
X144476000Y-149750000D01*
X140124000Y-149750000D01*
X140056961Y-149730315D01*
X140011206Y-149677511D01*
X140000000Y-149626000D01*
X140000000Y-141924000D01*
X140019685Y-141856961D01*
X140072489Y-141811206D01*
X140124000Y-141800000D01*
X145250000Y-141800000D01*
X145250000Y-140124000D01*
X145269685Y-140056961D01*
X145322489Y-140011206D01*
X145374000Y-140000000D01*
X146776000Y-140000000D01*
X146843039Y-140019685D01*
G37*
%TD.AperFunction*%
%TD*%
%TA.AperFunction,Conductor*%
%TO.N,/Motor Driver/PHASE_C*%
G36*
X150693039Y-140019685D02*
G01*
X150738794Y-140072489D01*
X150750000Y-140124000D01*
X150750000Y-141800000D01*
X155876000Y-141800000D01*
X155943039Y-141819685D01*
X155988794Y-141872489D01*
X156000000Y-141924000D01*
X156000000Y-149626000D01*
X155980315Y-149693039D01*
X155927511Y-149738794D01*
X155876000Y-149750000D01*
X151524000Y-149750000D01*
X151456961Y-149730315D01*
X151411206Y-149677511D01*
X151400000Y-149626000D01*
X151400000Y-143550000D01*
X149224000Y-143550000D01*
X149156961Y-143530315D01*
X149111206Y-143477511D01*
X149100000Y-143426000D01*
X149100000Y-140124000D01*
X149119685Y-140056961D01*
X149172489Y-140011206D01*
X149224000Y-140000000D01*
X150626000Y-140000000D01*
X150693039Y-140019685D01*
G37*
%TD.AperFunction*%
%TD*%
M02*
