%TF.GenerationSoftware,KiCad,Pcbnew,8.0.7*%
%TF.CreationDate,2025-01-08T02:27:13-05:00*%
%TF.ProjectId,active-drag-system,61637469-7665-42d6-9472-61672d737973,rev?*%
%TF.SameCoordinates,Original*%
%TF.FileFunction,Copper,L2,Inr*%
%TF.FilePolarity,Positive*%
%FSLAX46Y46*%
G04 Gerber Fmt 4.6, Leading zero omitted, Abs format (unit mm)*
G04 Created by KiCad (PCBNEW 8.0.7) date 2025-01-08 02:27:13*
%MOMM*%
%LPD*%
G01*
G04 APERTURE LIST*
G04 Aperture macros list*
%AMRoundRect*
0 Rectangle with rounded corners*
0 $1 Rounding radius*
0 $2 $3 $4 $5 $6 $7 $8 $9 X,Y pos of 4 corners*
0 Add a 4 corners polygon primitive as box body*
4,1,4,$2,$3,$4,$5,$6,$7,$8,$9,$2,$3,0*
0 Add four circle primitives for the rounded corners*
1,1,$1+$1,$2,$3*
1,1,$1+$1,$4,$5*
1,1,$1+$1,$6,$7*
1,1,$1+$1,$8,$9*
0 Add four rect primitives between the rounded corners*
20,1,$1+$1,$2,$3,$4,$5,0*
20,1,$1+$1,$4,$5,$6,$7,0*
20,1,$1+$1,$6,$7,$8,$9,0*
20,1,$1+$1,$8,$9,$2,$3,0*%
G04 Aperture macros list end*
%TA.AperFunction,ComponentPad*%
%ADD10RoundRect,0.250002X-1.699998X-1.699998X1.699998X-1.699998X1.699998X1.699998X-1.699998X1.699998X0*%
%TD*%
%TA.AperFunction,ComponentPad*%
%ADD11C,3.900000*%
%TD*%
%TA.AperFunction,ComponentPad*%
%ADD12R,1.700000X1.700000*%
%TD*%
%TA.AperFunction,ComponentPad*%
%ADD13O,1.700000X1.700000*%
%TD*%
%TA.AperFunction,ComponentPad*%
%ADD14RoundRect,0.250002X-1.699998X1.699998X-1.699998X-1.699998X1.699998X-1.699998X1.699998X1.699998X0*%
%TD*%
%TA.AperFunction,HeatsinkPad*%
%ADD15C,0.457200*%
%TD*%
%TA.AperFunction,ComponentPad*%
%ADD16O,0.900000X1.800000*%
%TD*%
%TA.AperFunction,ComponentPad*%
%ADD17R,2.000000X2.000000*%
%TD*%
%TA.AperFunction,ComponentPad*%
%ADD18C,2.000000*%
%TD*%
%TA.AperFunction,ViaPad*%
%ADD19C,0.457200*%
%TD*%
%TA.AperFunction,Conductor*%
%ADD20C,0.400000*%
%TD*%
%TA.AperFunction,Conductor*%
%ADD21C,0.550000*%
%TD*%
G04 APERTURE END LIST*
D10*
%TO.N,/Motor Driver/PHASE_A*%
%TO.C,J7*%
X142500000Y-147500000D03*
D11*
%TO.N,/Motor Driver/PHASE_B*%
X148000000Y-147500000D03*
%TO.N,/Motor Driver/PHASE_C*%
X153500000Y-147500000D03*
%TD*%
D12*
%TO.N,/MCU_RP2040/UART0_TX*%
%TO.C,J5*%
X133600000Y-99775000D03*
D13*
%TO.N,/MCU_RP2040/UART0_RX*%
X133600000Y-102315000D03*
%TD*%
D14*
%TO.N,/VBAT*%
%TO.C,J2*%
X134750000Y-132350000D03*
D11*
%TO.N,GND*%
X134750000Y-140150000D03*
%TD*%
D15*
%TO.N,GND*%
%TO.C,U9*%
X146750000Y-135750000D03*
X146750000Y-137000000D03*
X146750000Y-138500000D03*
X147250000Y-134500000D03*
X147250000Y-139500000D03*
X148000000Y-135750000D03*
X148000000Y-137000000D03*
X148000000Y-138500000D03*
X148750000Y-134500000D03*
X148750000Y-139500000D03*
X149250000Y-135750000D03*
X149250000Y-137000000D03*
X149250000Y-138500000D03*
%TD*%
D12*
%TO.N,/MCU_RP2040/I2C1_SCL*%
%TO.C,J6*%
X133600000Y-108525000D03*
D13*
%TO.N,/MCU_RP2040/I2C1_SDA*%
X133600000Y-105985000D03*
%TD*%
D12*
%TO.N,/+3V3*%
%TO.C,J4*%
X162000000Y-140000000D03*
D13*
%TO.N,GND*%
X162000000Y-137460000D03*
%TO.N,/Motor Driver/HALL_SENSE_A*%
X162000000Y-134920000D03*
%TO.N,/Motor Driver/HALL_SENSE_B*%
X162000000Y-132380000D03*
%TO.N,/Motor Driver/HALL_SENSE_C*%
X162000000Y-129840000D03*
%TD*%
D15*
%TO.N,GND*%
%TO.C,U1*%
X146212500Y-85750000D03*
X146212500Y-87000000D03*
X146212500Y-88250000D03*
X147462500Y-85750000D03*
X147462500Y-87000000D03*
X147462500Y-88250000D03*
X148712500Y-85750000D03*
X148712500Y-87000000D03*
X148712500Y-88250000D03*
%TD*%
D12*
%TO.N,/+5V*%
%TO.C,J1*%
X162500000Y-119160000D03*
D13*
%TO.N,GND*%
X162500000Y-121700000D03*
%TD*%
D12*
%TO.N,/MCU_RP2040/SWCLK*%
%TO.C,J8*%
X162000000Y-105080000D03*
D13*
%TO.N,GND*%
X162000000Y-102540000D03*
%TO.N,/MCU_RP2040/SWDIO*%
X162000000Y-100000000D03*
%TD*%
D16*
%TO.N,GND*%
%TO.C,J3*%
X151750000Y-62100000D03*
X145150000Y-62100000D03*
%TD*%
D17*
%TO.N,/MCU_RP2040/BUZZ_OUT*%
%TO.C,BZ1*%
X133450000Y-88700000D03*
D18*
%TO.N,GND*%
X133450000Y-96300000D03*
%TD*%
D19*
%TO.N,GND*%
X161750000Y-77750000D03*
X156250000Y-107250000D03*
X146000000Y-77300000D03*
X140800000Y-136350000D03*
X146462500Y-89562500D03*
X159750000Y-133750000D03*
X160200000Y-79000000D03*
X156100000Y-137550000D03*
X137000000Y-120500000D03*
X137200000Y-78800000D03*
X154975000Y-82625000D03*
X159247800Y-111800000D03*
X163050000Y-94150000D03*
X135750000Y-87550000D03*
X138750000Y-85650000D03*
X153150000Y-64550000D03*
X155700000Y-77150000D03*
X136350000Y-102550000D03*
X148997800Y-117600000D03*
X152169586Y-117549874D03*
X138600000Y-88100000D03*
X140300000Y-103050000D03*
X140300000Y-98050000D03*
X159500000Y-107000000D03*
X143850000Y-64550000D03*
X140500000Y-137000000D03*
X143650000Y-91100000D03*
X151250000Y-95300000D03*
X157250000Y-95050000D03*
X144600000Y-127950000D03*
X155250000Y-71950000D03*
X152000000Y-77600000D03*
X150800000Y-103050000D03*
X151750000Y-134500000D03*
X152000000Y-135750000D03*
X160797800Y-109500000D03*
X161400000Y-86300000D03*
X150800000Y-98050000D03*
X149969586Y-117649874D03*
X153519460Y-118800000D03*
X138600000Y-136800000D03*
X135450000Y-99400000D03*
X158450000Y-91200000D03*
X149900000Y-77600000D03*
X156200000Y-77800000D03*
X159450000Y-77800000D03*
X149949688Y-125543699D03*
X157425001Y-72575001D03*
X136700000Y-107250000D03*
X156500000Y-68250000D03*
X154597800Y-112850000D03*
X134000000Y-120250000D03*
X138850000Y-81900000D03*
X163100000Y-81600000D03*
X157550000Y-93300000D03*
X153719460Y-124400000D03*
X156600000Y-88300000D03*
X143600000Y-70100000D03*
X159647800Y-110950000D03*
X140700000Y-82600000D03*
X142850000Y-94400000D03*
X144353651Y-130996349D03*
X145000000Y-114500000D03*
X144847800Y-111900000D03*
X152143387Y-125650000D03*
X136000000Y-120250000D03*
X159500000Y-131000000D03*
X147600000Y-77400000D03*
X140804164Y-115450000D03*
X152050000Y-90650000D03*
X152713094Y-86613094D03*
X132850000Y-86200000D03*
X144500000Y-91850000D03*
X162550000Y-93700000D03*
%TO.N,/MCU_RP2040/BUZZ_OUT*%
X139350000Y-83900000D03*
%TO.N,+1V1*%
X147262500Y-81937500D03*
X148187500Y-92200000D03*
X148200000Y-84949998D03*
X147900000Y-89200000D03*
%TO.N,/Motor Driver/PHASE_A*%
X146000000Y-142700000D03*
X140700000Y-144800000D03*
X143400000Y-142700000D03*
X140700000Y-143600000D03*
X142600000Y-144800000D03*
X141600000Y-142700000D03*
X142600000Y-143600000D03*
X144200000Y-144800000D03*
X146000000Y-141500000D03*
X144800000Y-142700000D03*
X144200000Y-143600000D03*
%TO.N,/Motor Driver/PHASE_B*%
X147500000Y-141500000D03*
X148500000Y-144500000D03*
X147500000Y-143500000D03*
X148500000Y-141500000D03*
X150000000Y-145250000D03*
X147500000Y-142500000D03*
X148500000Y-142500000D03*
X146000000Y-145250000D03*
X148500000Y-143500000D03*
X147500000Y-144500000D03*
%TO.N,/Motor Driver/PHASE_C*%
X150000000Y-141300000D03*
X151800000Y-144800000D03*
X150000000Y-142700000D03*
X153300000Y-143600000D03*
X154900000Y-143600000D03*
X151800000Y-143600000D03*
X154000000Y-142700000D03*
X154900000Y-144800000D03*
X151200000Y-142700000D03*
X153300000Y-144800000D03*
X152600000Y-142700000D03*
%TO.N,/MCU_RP2040/I2C0_SCL*%
X159950000Y-95531502D03*
X160400000Y-76200000D03*
X138050000Y-82400000D03*
X154200000Y-89700000D03*
%TO.N,/MCU_RP2040/I2C0_SDA*%
X138000000Y-83600000D03*
X157450000Y-96900000D03*
X152323231Y-89576769D03*
X159850000Y-76950000D03*
%TO.N,Net-(U3-PG)*%
X139547800Y-120900000D03*
X145047800Y-115500000D03*
%TO.N,/MCU_RP2040/nFAULT*%
X142700000Y-89400000D03*
X151600000Y-139250001D03*
%TO.N,/MCU_RP2040/FGOUT*%
X138200000Y-86500000D03*
X145200000Y-132850000D03*
%TO.N,/MCU_RP2040/LED_OUT*%
X154350000Y-71950000D03*
X152300000Y-86200000D03*
%TO.N,/MCU_RP2040/MOTOR_PWM*%
X146400000Y-132450000D03*
X139000000Y-87000000D03*
%TO.N,/MCU_RP2040/DRVOFF*%
X152300000Y-139850000D03*
X143100000Y-90000000D03*
%TO.N,/MG*%
X161200000Y-85600000D03*
X152300000Y-87800000D03*
%TO.N,/MCU_RP2040/BRAKE*%
X147200000Y-132150000D03*
X139000000Y-89100000D03*
%TO.N,/MCU_RP2040/nSLEEP*%
X141996349Y-89296349D03*
X151200000Y-138350000D03*
%TO.N,/MCU_RP2040/SPI0_RX*%
X143000000Y-86300000D03*
X150800000Y-132350000D03*
%TO.N,/MCU_RP2040/SPI0_TX*%
X141600000Y-85700000D03*
X149700000Y-132050000D03*
%TO.N,/MCU_RP2040/SPI0_CSn0*%
X139800000Y-84900000D03*
X148200000Y-132150000D03*
%TO.N,/MCU_RP2040/SPI0_SCK*%
X141000000Y-85400000D03*
X148800000Y-131550000D03*
%TO.N,/+3V3*%
X159000000Y-139500000D03*
X152150000Y-85300000D03*
X156150000Y-92300000D03*
X156250000Y-139500000D03*
X162697800Y-108300000D03*
X162000000Y-142500000D03*
X159000000Y-142500000D03*
X154750000Y-140500000D03*
X162197800Y-114800000D03*
X162847800Y-114200000D03*
%TO.N,/VBUS*%
X150650000Y-66150000D03*
X147997800Y-112450000D03*
X147297800Y-112450000D03*
X151400000Y-66150000D03*
%TO.N,/MAG*%
X158304481Y-77145519D03*
X150550000Y-91550000D03*
%TD*%
D20*
%TO.N,/VBUS*%
X148050000Y-112450000D02*
X147297800Y-112450000D01*
X151400000Y-66150000D02*
X158150000Y-66150000D01*
D21*
X151400000Y-66150000D02*
X151000000Y-66150000D01*
D20*
X151500000Y-109000000D02*
X148050000Y-112450000D01*
D21*
X151000000Y-66150000D02*
X150650000Y-66150000D01*
D20*
X162500000Y-67500000D02*
X163800000Y-68800000D01*
X163800000Y-105700000D02*
X160500000Y-109000000D01*
X163800000Y-68800000D02*
X163800000Y-105700000D01*
X160500000Y-109000000D02*
X151500000Y-109000000D01*
X158150000Y-66150000D02*
X159500000Y-67500000D01*
X159500000Y-67500000D02*
X162500000Y-67500000D01*
%TD*%
%TA.AperFunction,Conductor*%
%TO.N,GND*%
G36*
X163977826Y-60922174D02*
G01*
X163999500Y-60974500D01*
X163999500Y-68325166D01*
X163977826Y-68377492D01*
X163925500Y-68399166D01*
X163873174Y-68377492D01*
X162715212Y-67219530D01*
X162635289Y-67173386D01*
X162635284Y-67173384D01*
X162546146Y-67149500D01*
X162546144Y-67149500D01*
X159675833Y-67149500D01*
X159623507Y-67127826D01*
X158996181Y-66500500D01*
X158365212Y-65869530D01*
X158285289Y-65823386D01*
X158285284Y-65823384D01*
X158196146Y-65799500D01*
X158196144Y-65799500D01*
X151663745Y-65799500D01*
X151626745Y-65789586D01*
X151564240Y-65753499D01*
X151564237Y-65753497D01*
X151564234Y-65753496D01*
X151564232Y-65753495D01*
X151456020Y-65724500D01*
X151456018Y-65724500D01*
X151056018Y-65724500D01*
X150593982Y-65724500D01*
X150593980Y-65724500D01*
X150485767Y-65753495D01*
X150485758Y-65753499D01*
X150388736Y-65809515D01*
X150309515Y-65888736D01*
X150253499Y-65985758D01*
X150253495Y-65985767D01*
X150224500Y-66093979D01*
X150224500Y-66206020D01*
X150253495Y-66314232D01*
X150253496Y-66314235D01*
X150253497Y-66314237D01*
X150309515Y-66411263D01*
X150388737Y-66490485D01*
X150485763Y-66546503D01*
X150593979Y-66575499D01*
X150593980Y-66575500D01*
X150593982Y-66575500D01*
X151456020Y-66575500D01*
X151456020Y-66575499D01*
X151564237Y-66546503D01*
X151626745Y-66510413D01*
X151663745Y-66500500D01*
X157974166Y-66500500D01*
X158026492Y-66522174D01*
X159219531Y-67715212D01*
X159284788Y-67780469D01*
X159364712Y-67826614D01*
X159364713Y-67826614D01*
X159364715Y-67826615D01*
X159409284Y-67838557D01*
X159453853Y-67850499D01*
X159453854Y-67850500D01*
X159453856Y-67850500D01*
X162324166Y-67850500D01*
X162376492Y-67872174D01*
X163427826Y-68923508D01*
X163449500Y-68975834D01*
X163449500Y-105524166D01*
X163427826Y-105576492D01*
X163126826Y-105877492D01*
X163074500Y-105899166D01*
X163022174Y-105877492D01*
X163000500Y-105825166D01*
X163000500Y-104215180D01*
X162991767Y-104171278D01*
X162958504Y-104121496D01*
X162908722Y-104088233D01*
X162864820Y-104079500D01*
X161135180Y-104079500D01*
X161113229Y-104083866D01*
X161091277Y-104088233D01*
X161041496Y-104121495D01*
X161041495Y-104121496D01*
X161008233Y-104171277D01*
X161008233Y-104171278D01*
X160999500Y-104215180D01*
X160999500Y-105944820D01*
X161008233Y-105988722D01*
X161041496Y-106038504D01*
X161091278Y-106071767D01*
X161135180Y-106080500D01*
X161135181Y-106080500D01*
X162745166Y-106080500D01*
X162797492Y-106102174D01*
X162819166Y-106154500D01*
X162797492Y-106206826D01*
X160376492Y-108627826D01*
X160324166Y-108649500D01*
X151453854Y-108649500D01*
X151364715Y-108673384D01*
X151364710Y-108673386D01*
X151284787Y-108719530D01*
X147943918Y-112060398D01*
X147903171Y-112081161D01*
X147879192Y-112084959D01*
X147879187Y-112084961D01*
X147866484Y-112091434D01*
X147832889Y-112099500D01*
X147462710Y-112099500D01*
X147429115Y-112091434D01*
X147416411Y-112084961D01*
X147416410Y-112084960D01*
X147416409Y-112084960D01*
X147416407Y-112084959D01*
X147416405Y-112084959D01*
X147297800Y-112066174D01*
X147179190Y-112084960D01*
X147179185Y-112084961D01*
X147072194Y-112139476D01*
X146987276Y-112224394D01*
X146932761Y-112331385D01*
X146932760Y-112331390D01*
X146913974Y-112450000D01*
X146932760Y-112568609D01*
X146932761Y-112568614D01*
X146987276Y-112675605D01*
X147072194Y-112760523D01*
X147179185Y-112815038D01*
X147179188Y-112815038D01*
X147179191Y-112815040D01*
X147297800Y-112833826D01*
X147416409Y-112815040D01*
X147429115Y-112808566D01*
X147462710Y-112800500D01*
X147832890Y-112800500D01*
X147866485Y-112808566D01*
X147879191Y-112815040D01*
X147997800Y-112833826D01*
X148116409Y-112815040D01*
X148223407Y-112760522D01*
X148230516Y-112753412D01*
X148245840Y-112741653D01*
X148265212Y-112730470D01*
X151623508Y-109372174D01*
X151675834Y-109350500D01*
X160546146Y-109350500D01*
X160546146Y-109350499D01*
X160635288Y-109326614D01*
X160715212Y-109280470D01*
X161695682Y-108300000D01*
X162313974Y-108300000D01*
X162332760Y-108418609D01*
X162332761Y-108418614D01*
X162387276Y-108525605D01*
X162472194Y-108610523D01*
X162579185Y-108665038D01*
X162579188Y-108665038D01*
X162579191Y-108665040D01*
X162697800Y-108683826D01*
X162816409Y-108665040D01*
X162816412Y-108665038D01*
X162816414Y-108665038D01*
X162923405Y-108610523D01*
X162923404Y-108610523D01*
X162923407Y-108610522D01*
X163008322Y-108525607D01*
X163010155Y-108522008D01*
X163062838Y-108418614D01*
X163062838Y-108418612D01*
X163062840Y-108418609D01*
X163081626Y-108300000D01*
X163062840Y-108181391D01*
X163062838Y-108181388D01*
X163062838Y-108181385D01*
X163008323Y-108074394D01*
X162923405Y-107989476D01*
X162816414Y-107934961D01*
X162816409Y-107934960D01*
X162697800Y-107916174D01*
X162579190Y-107934960D01*
X162579185Y-107934961D01*
X162472194Y-107989476D01*
X162387276Y-108074394D01*
X162332761Y-108181385D01*
X162332760Y-108181390D01*
X162313974Y-108300000D01*
X161695682Y-108300000D01*
X163873174Y-106122508D01*
X163925500Y-106100834D01*
X163977826Y-106122508D01*
X163999500Y-106174834D01*
X163999500Y-149825500D01*
X163977826Y-149877826D01*
X163925500Y-149899500D01*
X132074500Y-149899500D01*
X132022174Y-149877826D01*
X132000500Y-149825500D01*
X132000500Y-146883716D01*
X133522500Y-146883716D01*
X133522500Y-147116283D01*
X133558880Y-147345979D01*
X133558883Y-147345992D01*
X133630745Y-147567160D01*
X133630747Y-147567164D01*
X133736327Y-147774378D01*
X133745277Y-147786697D01*
X133873026Y-147962527D01*
X134037473Y-148126974D01*
X134037476Y-148126976D01*
X134037477Y-148126977D01*
X134225621Y-148263672D01*
X134432835Y-148369252D01*
X134432839Y-148369254D01*
X134654007Y-148441116D01*
X134654013Y-148441117D01*
X134654018Y-148441119D01*
X134768868Y-148459309D01*
X134883716Y-148477500D01*
X134883718Y-148477500D01*
X135116284Y-148477500D01*
X135208162Y-148462947D01*
X135345982Y-148441119D01*
X135345989Y-148441116D01*
X135345992Y-148441116D01*
X135567160Y-148369254D01*
X135567160Y-148369253D01*
X135567163Y-148369253D01*
X135774379Y-148263672D01*
X135962527Y-148126974D01*
X136126974Y-147962527D01*
X136263672Y-147774379D01*
X136369253Y-147567163D01*
X136441119Y-147345982D01*
X136477500Y-147116282D01*
X136477500Y-146883718D01*
X136441119Y-146654018D01*
X136441117Y-146654013D01*
X136441116Y-146654007D01*
X136369254Y-146432839D01*
X136369252Y-146432835D01*
X136263672Y-146225621D01*
X136126977Y-146037477D01*
X136126976Y-146037476D01*
X136126974Y-146037473D01*
X135962527Y-145873026D01*
X135962524Y-145873023D01*
X135962522Y-145873022D01*
X135818635Y-145768482D01*
X140399500Y-145768482D01*
X140399500Y-149231517D01*
X140414353Y-149325303D01*
X140414354Y-149325305D01*
X140436803Y-149369362D01*
X140471950Y-149438341D01*
X140561659Y-149528050D01*
X140674697Y-149585646D01*
X140768483Y-149600500D01*
X144231516Y-149600499D01*
X144231517Y-149600499D01*
X144325303Y-149585646D01*
X144325305Y-149585645D01*
X144327418Y-149584568D01*
X144438341Y-149528050D01*
X144528050Y-149438341D01*
X144585646Y-149325303D01*
X144600500Y-149231517D01*
X144600499Y-147499992D01*
X145894592Y-147499992D01*
X145894592Y-147500007D01*
X145914200Y-147786677D01*
X145914203Y-147786697D01*
X145972663Y-148068023D01*
X145972668Y-148068041D01*
X146068892Y-148338789D01*
X146068894Y-148338794D01*
X146121913Y-148441116D01*
X146201099Y-148593936D01*
X146366811Y-148828698D01*
X146562947Y-149038708D01*
X146785853Y-149220055D01*
X147031375Y-149369361D01*
X147294942Y-149483844D01*
X147571642Y-149561371D01*
X147856322Y-149600500D01*
X147856329Y-149600500D01*
X148143671Y-149600500D01*
X148143678Y-149600500D01*
X148428358Y-149561371D01*
X148705058Y-149483844D01*
X148968625Y-149369361D01*
X149214147Y-149220055D01*
X149437053Y-149038708D01*
X149633189Y-148828698D01*
X149798901Y-148593936D01*
X149931104Y-148338797D01*
X149931107Y-148338789D01*
X150027331Y-148068041D01*
X150027331Y-148068038D01*
X150027334Y-148068032D01*
X150085798Y-147786686D01*
X150100814Y-147567163D01*
X150105408Y-147500007D01*
X150105408Y-147499992D01*
X151394592Y-147499992D01*
X151394592Y-147500007D01*
X151414200Y-147786677D01*
X151414203Y-147786697D01*
X151472663Y-148068023D01*
X151472668Y-148068041D01*
X151568892Y-148338789D01*
X151568894Y-148338794D01*
X151621913Y-148441116D01*
X151701099Y-148593936D01*
X151866811Y-148828698D01*
X152062947Y-149038708D01*
X152285853Y-149220055D01*
X152531375Y-149369361D01*
X152794942Y-149483844D01*
X153071642Y-149561371D01*
X153356322Y-149600500D01*
X153356329Y-149600500D01*
X153643671Y-149600500D01*
X153643678Y-149600500D01*
X153928358Y-149561371D01*
X154205058Y-149483844D01*
X154468625Y-149369361D01*
X154714147Y-149220055D01*
X154937053Y-149038708D01*
X155133189Y-148828698D01*
X155298901Y-148593936D01*
X155431104Y-148338797D01*
X155431107Y-148338789D01*
X155527331Y-148068041D01*
X155527331Y-148068038D01*
X155527334Y-148068032D01*
X155585798Y-147786686D01*
X155600814Y-147567163D01*
X155605408Y-147500007D01*
X155605408Y-147499992D01*
X155585799Y-147213322D01*
X155585796Y-147213302D01*
X155527336Y-146931976D01*
X155527331Y-146931958D01*
X155510186Y-146883716D01*
X159522500Y-146883716D01*
X159522500Y-147116283D01*
X159558880Y-147345979D01*
X159558883Y-147345992D01*
X159630745Y-147567160D01*
X159630747Y-147567164D01*
X159736327Y-147774378D01*
X159745277Y-147786697D01*
X159873026Y-147962527D01*
X160037473Y-148126974D01*
X160037476Y-148126976D01*
X160037477Y-148126977D01*
X160225621Y-148263672D01*
X160432835Y-148369252D01*
X160432839Y-148369254D01*
X160654007Y-148441116D01*
X160654013Y-148441117D01*
X160654018Y-148441119D01*
X160768868Y-148459309D01*
X160883716Y-148477500D01*
X160883718Y-148477500D01*
X161116284Y-148477500D01*
X161208162Y-148462947D01*
X161345982Y-148441119D01*
X161345989Y-148441116D01*
X161345992Y-148441116D01*
X161567160Y-148369254D01*
X161567160Y-148369253D01*
X161567163Y-148369253D01*
X161774379Y-148263672D01*
X161962527Y-148126974D01*
X162126974Y-147962527D01*
X162263672Y-147774379D01*
X162369253Y-147567163D01*
X162441119Y-147345982D01*
X162477500Y-147116282D01*
X162477500Y-146883718D01*
X162441119Y-146654018D01*
X162441117Y-146654013D01*
X162441116Y-146654007D01*
X162369254Y-146432839D01*
X162369252Y-146432835D01*
X162263672Y-146225621D01*
X162126977Y-146037477D01*
X162126976Y-146037476D01*
X162126974Y-146037473D01*
X161962527Y-145873026D01*
X161962524Y-145873023D01*
X161962522Y-145873022D01*
X161774378Y-145736327D01*
X161567164Y-145630747D01*
X161567160Y-145630745D01*
X161345992Y-145558883D01*
X161345979Y-145558880D01*
X161116284Y-145522500D01*
X161116282Y-145522500D01*
X160883718Y-145522500D01*
X160883716Y-145522500D01*
X160654020Y-145558880D01*
X160654007Y-145558883D01*
X160432839Y-145630745D01*
X160432835Y-145630747D01*
X160225621Y-145736327D01*
X160037477Y-145873022D01*
X159873022Y-146037477D01*
X159736327Y-146225621D01*
X159630747Y-146432835D01*
X159630745Y-146432839D01*
X159558883Y-146654007D01*
X159558880Y-146654020D01*
X159522500Y-146883716D01*
X155510186Y-146883716D01*
X155431107Y-146661210D01*
X155431105Y-146661205D01*
X155298901Y-146406064D01*
X155298896Y-146406057D01*
X155133190Y-146171304D01*
X155133189Y-146171302D01*
X154937053Y-145961292D01*
X154714147Y-145779945D01*
X154714141Y-145779941D01*
X154714138Y-145779939D01*
X154541078Y-145674699D01*
X154468625Y-145630639D01*
X154468622Y-145630637D01*
X154468621Y-145630637D01*
X154205056Y-145516155D01*
X153928356Y-145438628D01*
X153643682Y-145399500D01*
X153643678Y-145399500D01*
X153356322Y-145399500D01*
X153356317Y-145399500D01*
X153071643Y-145438628D01*
X152794943Y-145516155D01*
X152531378Y-145630637D01*
X152531375Y-145630639D01*
X152285861Y-145779939D01*
X152285853Y-145779945D01*
X152062945Y-145961294D01*
X151866809Y-146171304D01*
X151701103Y-146406057D01*
X151701098Y-146406064D01*
X151568894Y-146661205D01*
X151568892Y-146661210D01*
X151472668Y-146931958D01*
X151472663Y-146931976D01*
X151414203Y-147213302D01*
X151414200Y-147213322D01*
X151394592Y-147499992D01*
X150105408Y-147499992D01*
X150085799Y-147213322D01*
X150085796Y-147213302D01*
X150027336Y-146931976D01*
X150027331Y-146931958D01*
X149931107Y-146661210D01*
X149931105Y-146661205D01*
X149798901Y-146406064D01*
X149798896Y-146406057D01*
X149633190Y-146171304D01*
X149633189Y-146171302D01*
X149437053Y-145961292D01*
X149214147Y-145779945D01*
X149214141Y-145779941D01*
X149214138Y-145779939D01*
X149041078Y-145674699D01*
X148968625Y-145630639D01*
X148968622Y-145630637D01*
X148968621Y-145630637D01*
X148705056Y-145516155D01*
X148428356Y-145438628D01*
X148143682Y-145399500D01*
X148143678Y-145399500D01*
X147856322Y-145399500D01*
X147856317Y-145399500D01*
X147571643Y-145438628D01*
X147294943Y-145516155D01*
X147031378Y-145630637D01*
X147031375Y-145630639D01*
X146785861Y-145779939D01*
X146785853Y-145779945D01*
X146562945Y-145961294D01*
X146366809Y-146171304D01*
X146201103Y-146406057D01*
X146201098Y-146406064D01*
X146068894Y-146661205D01*
X146068892Y-146661210D01*
X145972668Y-146931958D01*
X145972663Y-146931976D01*
X145914203Y-147213302D01*
X145914200Y-147213322D01*
X145894592Y-147499992D01*
X144600499Y-147499992D01*
X144600499Y-145768484D01*
X144595406Y-145736328D01*
X144585646Y-145674696D01*
X144585645Y-145674694D01*
X144528049Y-145561658D01*
X144438342Y-145471951D01*
X144438341Y-145471950D01*
X144325303Y-145414354D01*
X144325301Y-145414353D01*
X144325300Y-145414353D01*
X144231517Y-145399500D01*
X140768482Y-145399500D01*
X140674696Y-145414353D01*
X140674694Y-145414354D01*
X140561658Y-145471950D01*
X140471951Y-145561657D01*
X140414353Y-145674699D01*
X140399500Y-145768482D01*
X135818635Y-145768482D01*
X135774378Y-145736327D01*
X135567164Y-145630747D01*
X135567160Y-145630745D01*
X135345992Y-145558883D01*
X135345979Y-145558880D01*
X135116284Y-145522500D01*
X135116282Y-145522500D01*
X134883718Y-145522500D01*
X134883716Y-145522500D01*
X134654020Y-145558880D01*
X134654007Y-145558883D01*
X134432839Y-145630745D01*
X134432835Y-145630747D01*
X134225621Y-145736327D01*
X134037477Y-145873022D01*
X133873022Y-146037477D01*
X133736327Y-146225621D01*
X133630747Y-146432835D01*
X133630745Y-146432839D01*
X133558883Y-146654007D01*
X133558880Y-146654020D01*
X133522500Y-146883716D01*
X132000500Y-146883716D01*
X132000500Y-145250000D01*
X145616174Y-145250000D01*
X145634960Y-145368609D01*
X145634961Y-145368614D01*
X145689476Y-145475605D01*
X145774394Y-145560523D01*
X145881385Y-145615038D01*
X145881388Y-145615038D01*
X145881391Y-145615040D01*
X146000000Y-145633826D01*
X146118609Y-145615040D01*
X146118612Y-145615038D01*
X146118614Y-145615038D01*
X146222008Y-145562355D01*
X146225607Y-145560522D01*
X146310522Y-145475607D01*
X146341732Y-145414354D01*
X146365038Y-145368614D01*
X146365038Y-145368612D01*
X146365040Y-145368609D01*
X146383826Y-145250000D01*
X149616174Y-145250000D01*
X149634960Y-145368609D01*
X149634961Y-145368614D01*
X149689476Y-145475605D01*
X149774394Y-145560523D01*
X149881385Y-145615038D01*
X149881388Y-145615038D01*
X149881391Y-145615040D01*
X150000000Y-145633826D01*
X150118609Y-145615040D01*
X150118612Y-145615038D01*
X150118614Y-145615038D01*
X150222008Y-145562355D01*
X150225607Y-145560522D01*
X150310522Y-145475607D01*
X150341732Y-145414354D01*
X150365038Y-145368614D01*
X150365038Y-145368612D01*
X150365040Y-145368609D01*
X150383826Y-145250000D01*
X150365040Y-145131391D01*
X150365038Y-145131388D01*
X150365038Y-145131385D01*
X150310523Y-145024394D01*
X150225605Y-144939476D01*
X150118614Y-144884961D01*
X150118609Y-144884960D01*
X150000000Y-144866174D01*
X149881390Y-144884960D01*
X149881385Y-144884961D01*
X149774394Y-144939476D01*
X149689476Y-145024394D01*
X149634961Y-145131385D01*
X149634960Y-145131390D01*
X149616174Y-145250000D01*
X146383826Y-145250000D01*
X146365040Y-145131391D01*
X146365038Y-145131388D01*
X146365038Y-145131385D01*
X146310523Y-145024394D01*
X146225605Y-144939476D01*
X146118614Y-144884961D01*
X146118609Y-144884960D01*
X146000000Y-144866174D01*
X145881390Y-144884960D01*
X145881385Y-144884961D01*
X145774394Y-144939476D01*
X145689476Y-145024394D01*
X145634961Y-145131385D01*
X145634960Y-145131390D01*
X145616174Y-145250000D01*
X132000500Y-145250000D01*
X132000500Y-144800000D01*
X140316174Y-144800000D01*
X140334960Y-144918609D01*
X140334961Y-144918614D01*
X140389476Y-145025605D01*
X140474394Y-145110523D01*
X140581385Y-145165038D01*
X140581388Y-145165038D01*
X140581391Y-145165040D01*
X140700000Y-145183826D01*
X140818609Y-145165040D01*
X140818612Y-145165038D01*
X140818614Y-145165038D01*
X140925605Y-145110523D01*
X140925604Y-145110523D01*
X140925607Y-145110522D01*
X141010522Y-145025607D01*
X141054408Y-144939476D01*
X141065038Y-144918614D01*
X141065038Y-144918612D01*
X141065040Y-144918609D01*
X141083826Y-144800000D01*
X142216174Y-144800000D01*
X142234960Y-144918609D01*
X142234961Y-144918614D01*
X142289476Y-145025605D01*
X142374394Y-145110523D01*
X142481385Y-145165038D01*
X142481388Y-145165038D01*
X142481391Y-145165040D01*
X142600000Y-145183826D01*
X142718609Y-145165040D01*
X142718612Y-145165038D01*
X142718614Y-145165038D01*
X142825605Y-145110523D01*
X142825604Y-145110523D01*
X142825607Y-145110522D01*
X142910522Y-145025607D01*
X142954408Y-144939476D01*
X142965038Y-144918614D01*
X142965038Y-144918612D01*
X142965040Y-144918609D01*
X142983826Y-144800000D01*
X143816174Y-144800000D01*
X143834960Y-144918609D01*
X143834961Y-144918614D01*
X143889476Y-145025605D01*
X143974394Y-145110523D01*
X144081385Y-145165038D01*
X144081388Y-145165038D01*
X144081391Y-145165040D01*
X144200000Y-145183826D01*
X144318609Y-145165040D01*
X144318612Y-145165038D01*
X144318614Y-145165038D01*
X144425605Y-145110523D01*
X144425604Y-145110523D01*
X144425607Y-145110522D01*
X144510522Y-145025607D01*
X144554408Y-144939476D01*
X144565038Y-144918614D01*
X144565038Y-144918612D01*
X144565040Y-144918609D01*
X144583826Y-144800000D01*
X144565040Y-144681391D01*
X144565038Y-144681388D01*
X144565038Y-144681385D01*
X144510523Y-144574394D01*
X144436129Y-144500000D01*
X147116174Y-144500000D01*
X147134960Y-144618609D01*
X147134961Y-144618614D01*
X147189476Y-144725605D01*
X147274394Y-144810523D01*
X147381385Y-144865038D01*
X147381388Y-144865038D01*
X147381391Y-144865040D01*
X147500000Y-144883826D01*
X147618609Y-144865040D01*
X147618612Y-144865038D01*
X147618614Y-144865038D01*
X147725605Y-144810523D01*
X147725604Y-144810523D01*
X147725607Y-144810522D01*
X147810522Y-144725607D01*
X147833054Y-144681385D01*
X147865038Y-144618614D01*
X147865038Y-144618612D01*
X147865040Y-144618609D01*
X147883826Y-144500000D01*
X148116174Y-144500000D01*
X148134960Y-144618609D01*
X148134961Y-144618614D01*
X148189476Y-144725605D01*
X148274394Y-144810523D01*
X148381385Y-144865038D01*
X148381388Y-144865038D01*
X148381391Y-144865040D01*
X148500000Y-144883826D01*
X148618609Y-144865040D01*
X148618612Y-144865038D01*
X148618614Y-144865038D01*
X148725605Y-144810523D01*
X148725604Y-144810523D01*
X148725607Y-144810522D01*
X148736129Y-144800000D01*
X151416174Y-144800000D01*
X151434960Y-144918609D01*
X151434961Y-144918614D01*
X151489476Y-145025605D01*
X151574394Y-145110523D01*
X151681385Y-145165038D01*
X151681388Y-145165038D01*
X151681391Y-145165040D01*
X151800000Y-145183826D01*
X151918609Y-145165040D01*
X151918612Y-145165038D01*
X151918614Y-145165038D01*
X152025605Y-145110523D01*
X152025604Y-145110523D01*
X152025607Y-145110522D01*
X152110522Y-145025607D01*
X152154408Y-144939476D01*
X152165038Y-144918614D01*
X152165038Y-144918612D01*
X152165040Y-144918609D01*
X152183826Y-144800000D01*
X152916174Y-144800000D01*
X152934960Y-144918609D01*
X152934961Y-144918614D01*
X152989476Y-145025605D01*
X153074394Y-145110523D01*
X153181385Y-145165038D01*
X153181388Y-145165038D01*
X153181391Y-145165040D01*
X153300000Y-145183826D01*
X153418609Y-145165040D01*
X153418612Y-145165038D01*
X153418614Y-145165038D01*
X153525605Y-145110523D01*
X153525604Y-145110523D01*
X153525607Y-145110522D01*
X153610522Y-145025607D01*
X153654408Y-144939476D01*
X153665038Y-144918614D01*
X153665038Y-144918612D01*
X153665040Y-144918609D01*
X153683826Y-144800000D01*
X154516174Y-144800000D01*
X154534960Y-144918609D01*
X154534961Y-144918614D01*
X154589476Y-145025605D01*
X154674394Y-145110523D01*
X154781385Y-145165038D01*
X154781388Y-145165038D01*
X154781391Y-145165040D01*
X154900000Y-145183826D01*
X155018609Y-145165040D01*
X155018612Y-145165038D01*
X155018614Y-145165038D01*
X155125605Y-145110523D01*
X155125604Y-145110523D01*
X155125607Y-145110522D01*
X155210522Y-145025607D01*
X155254408Y-144939476D01*
X155265038Y-144918614D01*
X155265038Y-144918612D01*
X155265040Y-144918609D01*
X155283826Y-144800000D01*
X155265040Y-144681391D01*
X155265038Y-144681388D01*
X155265038Y-144681385D01*
X155210523Y-144574394D01*
X155125605Y-144489476D01*
X155018614Y-144434961D01*
X155018609Y-144434960D01*
X154900000Y-144416174D01*
X154781390Y-144434960D01*
X154781385Y-144434961D01*
X154674394Y-144489476D01*
X154589476Y-144574394D01*
X154534961Y-144681385D01*
X154534960Y-144681390D01*
X154516174Y-144800000D01*
X153683826Y-144800000D01*
X153665040Y-144681391D01*
X153665038Y-144681388D01*
X153665038Y-144681385D01*
X153610523Y-144574394D01*
X153525605Y-144489476D01*
X153418614Y-144434961D01*
X153418609Y-144434960D01*
X153300000Y-144416174D01*
X153181390Y-144434960D01*
X153181385Y-144434961D01*
X153074394Y-144489476D01*
X152989476Y-144574394D01*
X152934961Y-144681385D01*
X152934960Y-144681390D01*
X152916174Y-144800000D01*
X152183826Y-144800000D01*
X152165040Y-144681391D01*
X152165038Y-144681388D01*
X152165038Y-144681385D01*
X152110523Y-144574394D01*
X152025605Y-144489476D01*
X151918614Y-144434961D01*
X151918609Y-144434960D01*
X151800000Y-144416174D01*
X151681390Y-144434960D01*
X151681385Y-144434961D01*
X151574394Y-144489476D01*
X151489476Y-144574394D01*
X151434961Y-144681385D01*
X151434960Y-144681390D01*
X151416174Y-144800000D01*
X148736129Y-144800000D01*
X148810522Y-144725607D01*
X148833054Y-144681385D01*
X148865038Y-144618614D01*
X148865038Y-144618612D01*
X148865040Y-144618609D01*
X148883826Y-144500000D01*
X148865040Y-144381391D01*
X148865038Y-144381388D01*
X148865038Y-144381385D01*
X148810523Y-144274394D01*
X148725605Y-144189476D01*
X148618614Y-144134961D01*
X148618609Y-144134960D01*
X148500000Y-144116174D01*
X148381390Y-144134960D01*
X148381385Y-144134961D01*
X148274394Y-144189476D01*
X148189476Y-144274394D01*
X148134961Y-144381385D01*
X148134960Y-144381390D01*
X148116174Y-144500000D01*
X147883826Y-144500000D01*
X147865040Y-144381391D01*
X147865038Y-144381388D01*
X147865038Y-144381385D01*
X147810523Y-144274394D01*
X147725605Y-144189476D01*
X147618614Y-144134961D01*
X147618609Y-144134960D01*
X147500000Y-144116174D01*
X147381390Y-144134960D01*
X147381385Y-144134961D01*
X147274394Y-144189476D01*
X147189476Y-144274394D01*
X147134961Y-144381385D01*
X147134960Y-144381390D01*
X147116174Y-144500000D01*
X144436129Y-144500000D01*
X144425605Y-144489476D01*
X144318614Y-144434961D01*
X144318609Y-144434960D01*
X144200000Y-144416174D01*
X144081390Y-144434960D01*
X144081385Y-144434961D01*
X143974394Y-144489476D01*
X143889476Y-144574394D01*
X143834961Y-144681385D01*
X143834960Y-144681390D01*
X143816174Y-144800000D01*
X142983826Y-144800000D01*
X142965040Y-144681391D01*
X142965038Y-144681388D01*
X142965038Y-144681385D01*
X142910523Y-144574394D01*
X142825605Y-144489476D01*
X142718614Y-144434961D01*
X142718609Y-144434960D01*
X142600000Y-144416174D01*
X142481390Y-144434960D01*
X142481385Y-144434961D01*
X142374394Y-144489476D01*
X142289476Y-144574394D01*
X142234961Y-144681385D01*
X142234960Y-144681390D01*
X142216174Y-144800000D01*
X141083826Y-144800000D01*
X141065040Y-144681391D01*
X141065038Y-144681388D01*
X141065038Y-144681385D01*
X141010523Y-144574394D01*
X140925605Y-144489476D01*
X140818614Y-144434961D01*
X140818609Y-144434960D01*
X140700000Y-144416174D01*
X140581390Y-144434960D01*
X140581385Y-144434961D01*
X140474394Y-144489476D01*
X140389476Y-144574394D01*
X140334961Y-144681385D01*
X140334960Y-144681390D01*
X140316174Y-144800000D01*
X132000500Y-144800000D01*
X132000500Y-143600000D01*
X140316174Y-143600000D01*
X140334960Y-143718609D01*
X140334961Y-143718614D01*
X140389476Y-143825605D01*
X140474394Y-143910523D01*
X140581385Y-143965038D01*
X140581388Y-143965038D01*
X140581391Y-143965040D01*
X140700000Y-143983826D01*
X140818609Y-143965040D01*
X140818612Y-143965038D01*
X140818614Y-143965038D01*
X140925605Y-143910523D01*
X140925604Y-143910523D01*
X140925607Y-143910522D01*
X141010522Y-143825607D01*
X141018208Y-143810522D01*
X141065038Y-143718614D01*
X141065038Y-143718612D01*
X141065040Y-143718609D01*
X141083826Y-143600000D01*
X142216174Y-143600000D01*
X142234960Y-143718609D01*
X142234961Y-143718614D01*
X142289476Y-143825605D01*
X142374394Y-143910523D01*
X142481385Y-143965038D01*
X142481388Y-143965038D01*
X142481391Y-143965040D01*
X142600000Y-143983826D01*
X142718609Y-143965040D01*
X142718612Y-143965038D01*
X142718614Y-143965038D01*
X142825605Y-143910523D01*
X142825604Y-143910523D01*
X142825607Y-143910522D01*
X142910522Y-143825607D01*
X142918208Y-143810522D01*
X142965038Y-143718614D01*
X142965038Y-143718612D01*
X142965040Y-143718609D01*
X142983826Y-143600000D01*
X143816174Y-143600000D01*
X143834960Y-143718609D01*
X143834961Y-143718614D01*
X143889476Y-143825605D01*
X143974394Y-143910523D01*
X144081385Y-143965038D01*
X144081388Y-143965038D01*
X144081391Y-143965040D01*
X144200000Y-143983826D01*
X144318609Y-143965040D01*
X144318612Y-143965038D01*
X144318614Y-143965038D01*
X144425605Y-143910523D01*
X144425604Y-143910523D01*
X144425607Y-143910522D01*
X144510522Y-143825607D01*
X144518208Y-143810522D01*
X144565038Y-143718614D01*
X144565038Y-143718612D01*
X144565040Y-143718609D01*
X144583826Y-143600000D01*
X144567987Y-143500000D01*
X147116174Y-143500000D01*
X147134960Y-143618609D01*
X147134961Y-143618614D01*
X147189476Y-143725605D01*
X147274394Y-143810523D01*
X147381385Y-143865038D01*
X147381388Y-143865038D01*
X147381391Y-143865040D01*
X147500000Y-143883826D01*
X147618609Y-143865040D01*
X147618612Y-143865038D01*
X147618614Y-143865038D01*
X147725605Y-143810523D01*
X147725604Y-143810523D01*
X147725607Y-143810522D01*
X147810522Y-143725607D01*
X147814088Y-143718609D01*
X147865038Y-143618614D01*
X147865038Y-143618612D01*
X147865040Y-143618609D01*
X147883826Y-143500000D01*
X148116174Y-143500000D01*
X148134960Y-143618609D01*
X148134961Y-143618614D01*
X148189476Y-143725605D01*
X148274394Y-143810523D01*
X148381385Y-143865038D01*
X148381388Y-143865038D01*
X148381391Y-143865040D01*
X148500000Y-143883826D01*
X148618609Y-143865040D01*
X148618612Y-143865038D01*
X148618614Y-143865038D01*
X148725605Y-143810523D01*
X148725604Y-143810523D01*
X148725607Y-143810522D01*
X148810522Y-143725607D01*
X148814088Y-143718609D01*
X148865038Y-143618614D01*
X148865038Y-143618612D01*
X148865040Y-143618609D01*
X148867987Y-143600000D01*
X151416174Y-143600000D01*
X151434960Y-143718609D01*
X151434961Y-143718614D01*
X151489476Y-143825605D01*
X151574394Y-143910523D01*
X151681385Y-143965038D01*
X151681388Y-143965038D01*
X151681391Y-143965040D01*
X151800000Y-143983826D01*
X151918609Y-143965040D01*
X151918612Y-143965038D01*
X151918614Y-143965038D01*
X152025605Y-143910523D01*
X152025604Y-143910523D01*
X152025607Y-143910522D01*
X152110522Y-143825607D01*
X152118208Y-143810522D01*
X152165038Y-143718614D01*
X152165038Y-143718612D01*
X152165040Y-143718609D01*
X152183826Y-143600000D01*
X152916174Y-143600000D01*
X152934960Y-143718609D01*
X152934961Y-143718614D01*
X152989476Y-143825605D01*
X153074394Y-143910523D01*
X153181385Y-143965038D01*
X153181388Y-143965038D01*
X153181391Y-143965040D01*
X153300000Y-143983826D01*
X153418609Y-143965040D01*
X153418612Y-143965038D01*
X153418614Y-143965038D01*
X153525605Y-143910523D01*
X153525604Y-143910523D01*
X153525607Y-143910522D01*
X153610522Y-143825607D01*
X153618208Y-143810522D01*
X153665038Y-143718614D01*
X153665038Y-143718612D01*
X153665040Y-143718609D01*
X153683826Y-143600000D01*
X154516174Y-143600000D01*
X154534960Y-143718609D01*
X154534961Y-143718614D01*
X154589476Y-143825605D01*
X154674394Y-143910523D01*
X154781385Y-143965038D01*
X154781388Y-143965038D01*
X154781391Y-143965040D01*
X154900000Y-143983826D01*
X155018609Y-143965040D01*
X155018612Y-143965038D01*
X155018614Y-143965038D01*
X155125605Y-143910523D01*
X155125604Y-143910523D01*
X155125607Y-143910522D01*
X155210522Y-143825607D01*
X155218208Y-143810522D01*
X155265038Y-143718614D01*
X155265038Y-143718612D01*
X155265040Y-143718609D01*
X155283826Y-143600000D01*
X155265040Y-143481391D01*
X155265038Y-143481388D01*
X155265038Y-143481385D01*
X155210523Y-143374394D01*
X155125605Y-143289476D01*
X155018614Y-143234961D01*
X155018609Y-143234960D01*
X154900000Y-143216174D01*
X154781390Y-143234960D01*
X154781385Y-143234961D01*
X154674394Y-143289476D01*
X154589476Y-143374394D01*
X154534961Y-143481385D01*
X154534960Y-143481390D01*
X154516174Y-143600000D01*
X153683826Y-143600000D01*
X153665040Y-143481391D01*
X153665038Y-143481388D01*
X153665038Y-143481385D01*
X153610523Y-143374394D01*
X153525605Y-143289476D01*
X153418614Y-143234961D01*
X153418609Y-143234960D01*
X153300000Y-143216174D01*
X153181390Y-143234960D01*
X153181385Y-143234961D01*
X153074394Y-143289476D01*
X152989476Y-143374394D01*
X152934961Y-143481385D01*
X152934960Y-143481390D01*
X152916174Y-143600000D01*
X152183826Y-143600000D01*
X152165040Y-143481391D01*
X152165038Y-143481388D01*
X152165038Y-143481385D01*
X152110523Y-143374394D01*
X152025605Y-143289476D01*
X151918614Y-143234961D01*
X151918609Y-143234960D01*
X151800000Y-143216174D01*
X151681390Y-143234960D01*
X151681385Y-143234961D01*
X151574394Y-143289476D01*
X151489476Y-143374394D01*
X151434961Y-143481385D01*
X151434960Y-143481390D01*
X151416174Y-143600000D01*
X148867987Y-143600000D01*
X148883826Y-143500000D01*
X148865040Y-143381391D01*
X148865038Y-143381388D01*
X148865038Y-143381385D01*
X148810523Y-143274394D01*
X148725605Y-143189476D01*
X148618614Y-143134961D01*
X148618609Y-143134960D01*
X148500000Y-143116174D01*
X148381390Y-143134960D01*
X148381385Y-143134961D01*
X148274394Y-143189476D01*
X148189476Y-143274394D01*
X148134961Y-143381385D01*
X148134960Y-143381390D01*
X148116174Y-143500000D01*
X147883826Y-143500000D01*
X147865040Y-143381391D01*
X147865038Y-143381388D01*
X147865038Y-143381385D01*
X147810523Y-143274394D01*
X147725605Y-143189476D01*
X147618614Y-143134961D01*
X147618609Y-143134960D01*
X147500000Y-143116174D01*
X147381390Y-143134960D01*
X147381385Y-143134961D01*
X147274394Y-143189476D01*
X147189476Y-143274394D01*
X147134961Y-143381385D01*
X147134960Y-143381390D01*
X147116174Y-143500000D01*
X144567987Y-143500000D01*
X144565040Y-143481391D01*
X144565038Y-143481388D01*
X144565038Y-143481385D01*
X144510523Y-143374394D01*
X144425605Y-143289476D01*
X144318614Y-143234961D01*
X144318609Y-143234960D01*
X144200000Y-143216174D01*
X144081390Y-143234960D01*
X144081385Y-143234961D01*
X143974394Y-143289476D01*
X143889476Y-143374394D01*
X143834961Y-143481385D01*
X143834960Y-143481390D01*
X143816174Y-143600000D01*
X142983826Y-143600000D01*
X142965040Y-143481391D01*
X142965038Y-143481388D01*
X142965038Y-143481385D01*
X142910523Y-143374394D01*
X142825605Y-143289476D01*
X142718614Y-143234961D01*
X142718609Y-143234960D01*
X142600000Y-143216174D01*
X142481390Y-143234960D01*
X142481385Y-143234961D01*
X142374394Y-143289476D01*
X142289476Y-143374394D01*
X142234961Y-143481385D01*
X142234960Y-143481390D01*
X142216174Y-143600000D01*
X141083826Y-143600000D01*
X141065040Y-143481391D01*
X141065038Y-143481388D01*
X141065038Y-143481385D01*
X141010523Y-143374394D01*
X140925605Y-143289476D01*
X140818614Y-143234961D01*
X140818609Y-143234960D01*
X140700000Y-143216174D01*
X140581390Y-143234960D01*
X140581385Y-143234961D01*
X140474394Y-143289476D01*
X140389476Y-143374394D01*
X140334961Y-143481385D01*
X140334960Y-143481390D01*
X140316174Y-143600000D01*
X132000500Y-143600000D01*
X132000500Y-142700000D01*
X141216174Y-142700000D01*
X141234960Y-142818609D01*
X141234961Y-142818614D01*
X141289476Y-142925605D01*
X141374394Y-143010523D01*
X141481385Y-143065038D01*
X141481388Y-143065038D01*
X141481391Y-143065040D01*
X141600000Y-143083826D01*
X141718609Y-143065040D01*
X141718612Y-143065038D01*
X141718614Y-143065038D01*
X141825605Y-143010523D01*
X141825604Y-143010523D01*
X141825607Y-143010522D01*
X141910522Y-142925607D01*
X141912355Y-142922008D01*
X141965038Y-142818614D01*
X141965038Y-142818612D01*
X141965040Y-142818609D01*
X141983826Y-142700000D01*
X143016174Y-142700000D01*
X143034960Y-142818609D01*
X143034961Y-142818614D01*
X143089476Y-142925605D01*
X143174394Y-143010523D01*
X143281385Y-143065038D01*
X143281388Y-143065038D01*
X143281391Y-143065040D01*
X143400000Y-143083826D01*
X143518609Y-143065040D01*
X143518612Y-143065038D01*
X143518614Y-143065038D01*
X143625605Y-143010523D01*
X143625604Y-143010523D01*
X143625607Y-143010522D01*
X143710522Y-142925607D01*
X143712355Y-142922008D01*
X143765038Y-142818614D01*
X143765038Y-142818612D01*
X143765040Y-142818609D01*
X143783826Y-142700000D01*
X144416174Y-142700000D01*
X144434960Y-142818609D01*
X144434961Y-142818614D01*
X144489476Y-142925605D01*
X144574394Y-143010523D01*
X144681385Y-143065038D01*
X144681388Y-143065038D01*
X144681391Y-143065040D01*
X144800000Y-143083826D01*
X144918609Y-143065040D01*
X144918612Y-143065038D01*
X144918614Y-143065038D01*
X145025605Y-143010523D01*
X145025604Y-143010523D01*
X145025607Y-143010522D01*
X145110522Y-142925607D01*
X145112355Y-142922008D01*
X145165038Y-142818614D01*
X145165038Y-142818612D01*
X145165040Y-142818609D01*
X145183826Y-142700000D01*
X145616174Y-142700000D01*
X145634960Y-142818609D01*
X145634961Y-142818614D01*
X145689476Y-142925605D01*
X145774394Y-143010523D01*
X145881385Y-143065038D01*
X145881388Y-143065038D01*
X145881391Y-143065040D01*
X146000000Y-143083826D01*
X146118609Y-143065040D01*
X146118612Y-143065038D01*
X146118614Y-143065038D01*
X146225605Y-143010523D01*
X146225604Y-143010523D01*
X146225607Y-143010522D01*
X146310522Y-142925607D01*
X146312355Y-142922008D01*
X146365038Y-142818614D01*
X146365038Y-142818612D01*
X146365040Y-142818609D01*
X146383826Y-142700000D01*
X146365040Y-142581391D01*
X146365038Y-142581388D01*
X146365038Y-142581385D01*
X146323570Y-142500000D01*
X147116174Y-142500000D01*
X147134960Y-142618609D01*
X147134961Y-142618614D01*
X147189476Y-142725605D01*
X147274394Y-142810523D01*
X147381385Y-142865038D01*
X147381388Y-142865038D01*
X147381391Y-142865040D01*
X147500000Y-142883826D01*
X147618609Y-142865040D01*
X147618612Y-142865038D01*
X147618614Y-142865038D01*
X147725605Y-142810523D01*
X147725604Y-142810523D01*
X147725607Y-142810522D01*
X147810522Y-142725607D01*
X147823569Y-142700000D01*
X147865038Y-142618614D01*
X147865038Y-142618612D01*
X147865040Y-142618609D01*
X147883826Y-142500000D01*
X148116174Y-142500000D01*
X148134960Y-142618609D01*
X148134961Y-142618614D01*
X148189476Y-142725605D01*
X148274394Y-142810523D01*
X148381385Y-142865038D01*
X148381388Y-142865038D01*
X148381391Y-142865040D01*
X148500000Y-142883826D01*
X148618609Y-142865040D01*
X148618612Y-142865038D01*
X148618614Y-142865038D01*
X148725605Y-142810523D01*
X148725604Y-142810523D01*
X148725607Y-142810522D01*
X148810522Y-142725607D01*
X148823569Y-142700000D01*
X149616174Y-142700000D01*
X149634960Y-142818609D01*
X149634961Y-142818614D01*
X149689476Y-142925605D01*
X149774394Y-143010523D01*
X149881385Y-143065038D01*
X149881388Y-143065038D01*
X149881391Y-143065040D01*
X150000000Y-143083826D01*
X150118609Y-143065040D01*
X150118612Y-143065038D01*
X150118614Y-143065038D01*
X150225605Y-143010523D01*
X150225604Y-143010523D01*
X150225607Y-143010522D01*
X150310522Y-142925607D01*
X150312355Y-142922008D01*
X150365038Y-142818614D01*
X150365038Y-142818612D01*
X150365040Y-142818609D01*
X150383826Y-142700000D01*
X150816174Y-142700000D01*
X150834960Y-142818609D01*
X150834961Y-142818614D01*
X150889476Y-142925605D01*
X150974394Y-143010523D01*
X151081385Y-143065038D01*
X151081388Y-143065038D01*
X151081391Y-143065040D01*
X151200000Y-143083826D01*
X151318609Y-143065040D01*
X151318612Y-143065038D01*
X151318614Y-143065038D01*
X151425605Y-143010523D01*
X151425604Y-143010523D01*
X151425607Y-143010522D01*
X151510522Y-142925607D01*
X151512355Y-142922008D01*
X151565038Y-142818614D01*
X151565038Y-142818612D01*
X151565040Y-142818609D01*
X151583826Y-142700000D01*
X152216174Y-142700000D01*
X152234960Y-142818609D01*
X152234961Y-142818614D01*
X152289476Y-142925605D01*
X152374394Y-143010523D01*
X152481385Y-143065038D01*
X152481388Y-143065038D01*
X152481391Y-143065040D01*
X152600000Y-143083826D01*
X152718609Y-143065040D01*
X152718612Y-143065038D01*
X152718614Y-143065038D01*
X152825605Y-143010523D01*
X152825604Y-143010523D01*
X152825607Y-143010522D01*
X152910522Y-142925607D01*
X152912355Y-142922008D01*
X152965038Y-142818614D01*
X152965038Y-142818612D01*
X152965040Y-142818609D01*
X152983826Y-142700000D01*
X153616174Y-142700000D01*
X153634960Y-142818609D01*
X153634961Y-142818614D01*
X153689476Y-142925605D01*
X153774394Y-143010523D01*
X153881385Y-143065038D01*
X153881388Y-143065038D01*
X153881391Y-143065040D01*
X154000000Y-143083826D01*
X154118609Y-143065040D01*
X154118612Y-143065038D01*
X154118614Y-143065038D01*
X154225605Y-143010523D01*
X154225604Y-143010523D01*
X154225607Y-143010522D01*
X154310522Y-142925607D01*
X154312355Y-142922008D01*
X154365038Y-142818614D01*
X154365038Y-142818612D01*
X154365040Y-142818609D01*
X154383826Y-142700000D01*
X154365040Y-142581391D01*
X154365038Y-142581388D01*
X154365038Y-142581385D01*
X154323570Y-142500000D01*
X158616174Y-142500000D01*
X158634960Y-142618609D01*
X158634961Y-142618614D01*
X158689476Y-142725605D01*
X158774394Y-142810523D01*
X158881385Y-142865038D01*
X158881388Y-142865038D01*
X158881391Y-142865040D01*
X159000000Y-142883826D01*
X159118609Y-142865040D01*
X159118612Y-142865038D01*
X159118614Y-142865038D01*
X159225605Y-142810523D01*
X159225604Y-142810523D01*
X159225607Y-142810522D01*
X159310522Y-142725607D01*
X159323569Y-142700000D01*
X159365038Y-142618614D01*
X159365038Y-142618612D01*
X159365040Y-142618609D01*
X159383826Y-142500000D01*
X161616174Y-142500000D01*
X161634960Y-142618609D01*
X161634961Y-142618614D01*
X161689476Y-142725605D01*
X161774394Y-142810523D01*
X161881385Y-142865038D01*
X161881388Y-142865038D01*
X161881391Y-142865040D01*
X162000000Y-142883826D01*
X162118609Y-142865040D01*
X162118612Y-142865038D01*
X162118614Y-142865038D01*
X162225605Y-142810523D01*
X162225604Y-142810523D01*
X162225607Y-142810522D01*
X162310522Y-142725607D01*
X162323569Y-142700000D01*
X162365038Y-142618614D01*
X162365038Y-142618612D01*
X162365040Y-142618609D01*
X162383826Y-142500000D01*
X162365040Y-142381391D01*
X162365038Y-142381388D01*
X162365038Y-142381385D01*
X162310523Y-142274394D01*
X162225605Y-142189476D01*
X162118614Y-142134961D01*
X162118609Y-142134960D01*
X162000000Y-142116174D01*
X161881390Y-142134960D01*
X161881385Y-142134961D01*
X161774394Y-142189476D01*
X161689476Y-142274394D01*
X161634961Y-142381385D01*
X161634960Y-142381390D01*
X161616174Y-142500000D01*
X159383826Y-142500000D01*
X159365040Y-142381391D01*
X159365038Y-142381388D01*
X159365038Y-142381385D01*
X159310523Y-142274394D01*
X159225605Y-142189476D01*
X159118614Y-142134961D01*
X159118609Y-142134960D01*
X159000000Y-142116174D01*
X158881390Y-142134960D01*
X158881385Y-142134961D01*
X158774394Y-142189476D01*
X158689476Y-142274394D01*
X158634961Y-142381385D01*
X158634960Y-142381390D01*
X158616174Y-142500000D01*
X154323570Y-142500000D01*
X154310523Y-142474394D01*
X154225605Y-142389476D01*
X154118614Y-142334961D01*
X154118609Y-142334960D01*
X154000000Y-142316174D01*
X153881390Y-142334960D01*
X153881385Y-142334961D01*
X153774394Y-142389476D01*
X153689476Y-142474394D01*
X153634961Y-142581385D01*
X153634960Y-142581390D01*
X153616174Y-142700000D01*
X152983826Y-142700000D01*
X152965040Y-142581391D01*
X152965038Y-142581388D01*
X152965038Y-142581385D01*
X152910523Y-142474394D01*
X152825605Y-142389476D01*
X152718614Y-142334961D01*
X152718609Y-142334960D01*
X152600000Y-142316174D01*
X152481390Y-142334960D01*
X152481385Y-142334961D01*
X152374394Y-142389476D01*
X152289476Y-142474394D01*
X152234961Y-142581385D01*
X152234960Y-142581390D01*
X152216174Y-142700000D01*
X151583826Y-142700000D01*
X151565040Y-142581391D01*
X151565038Y-142581388D01*
X151565038Y-142581385D01*
X151510523Y-142474394D01*
X151425605Y-142389476D01*
X151318614Y-142334961D01*
X151318609Y-142334960D01*
X151200000Y-142316174D01*
X151081390Y-142334960D01*
X151081385Y-142334961D01*
X150974394Y-142389476D01*
X150889476Y-142474394D01*
X150834961Y-142581385D01*
X150834960Y-142581390D01*
X150816174Y-142700000D01*
X150383826Y-142700000D01*
X150365040Y-142581391D01*
X150365038Y-142581388D01*
X150365038Y-142581385D01*
X150310523Y-142474394D01*
X150225605Y-142389476D01*
X150118614Y-142334961D01*
X150118609Y-142334960D01*
X150000000Y-142316174D01*
X149881390Y-142334960D01*
X149881385Y-142334961D01*
X149774394Y-142389476D01*
X149689476Y-142474394D01*
X149634961Y-142581385D01*
X149634960Y-142581390D01*
X149616174Y-142700000D01*
X148823569Y-142700000D01*
X148865038Y-142618614D01*
X148865038Y-142618612D01*
X148865040Y-142618609D01*
X148883826Y-142500000D01*
X148865040Y-142381391D01*
X148865038Y-142381388D01*
X148865038Y-142381385D01*
X148810523Y-142274394D01*
X148725605Y-142189476D01*
X148618614Y-142134961D01*
X148618609Y-142134960D01*
X148500000Y-142116174D01*
X148381390Y-142134960D01*
X148381385Y-142134961D01*
X148274394Y-142189476D01*
X148189476Y-142274394D01*
X148134961Y-142381385D01*
X148134960Y-142381390D01*
X148116174Y-142500000D01*
X147883826Y-142500000D01*
X147865040Y-142381391D01*
X147865038Y-142381388D01*
X147865038Y-142381385D01*
X147810523Y-142274394D01*
X147725605Y-142189476D01*
X147618614Y-142134961D01*
X147618609Y-142134960D01*
X147500000Y-142116174D01*
X147381390Y-142134960D01*
X147381385Y-142134961D01*
X147274394Y-142189476D01*
X147189476Y-142274394D01*
X147134961Y-142381385D01*
X147134960Y-142381390D01*
X147116174Y-142500000D01*
X146323570Y-142500000D01*
X146310523Y-142474394D01*
X146225605Y-142389476D01*
X146118614Y-142334961D01*
X146118609Y-142334960D01*
X146000000Y-142316174D01*
X145881390Y-142334960D01*
X145881385Y-142334961D01*
X145774394Y-142389476D01*
X145689476Y-142474394D01*
X145634961Y-142581385D01*
X145634960Y-142581390D01*
X145616174Y-142700000D01*
X145183826Y-142700000D01*
X145165040Y-142581391D01*
X145165038Y-142581388D01*
X145165038Y-142581385D01*
X145110523Y-142474394D01*
X145025605Y-142389476D01*
X144918614Y-142334961D01*
X144918609Y-142334960D01*
X144800000Y-142316174D01*
X144681390Y-142334960D01*
X144681385Y-142334961D01*
X144574394Y-142389476D01*
X144489476Y-142474394D01*
X144434961Y-142581385D01*
X144434960Y-142581390D01*
X144416174Y-142700000D01*
X143783826Y-142700000D01*
X143765040Y-142581391D01*
X143765038Y-142581388D01*
X143765038Y-142581385D01*
X143710523Y-142474394D01*
X143625605Y-142389476D01*
X143518614Y-142334961D01*
X143518609Y-142334960D01*
X143400000Y-142316174D01*
X143281390Y-142334960D01*
X143281385Y-142334961D01*
X143174394Y-142389476D01*
X143089476Y-142474394D01*
X143034961Y-142581385D01*
X143034960Y-142581390D01*
X143016174Y-142700000D01*
X141983826Y-142700000D01*
X141965040Y-142581391D01*
X141965038Y-142581388D01*
X141965038Y-142581385D01*
X141910523Y-142474394D01*
X141825605Y-142389476D01*
X141718614Y-142334961D01*
X141718609Y-142334960D01*
X141600000Y-142316174D01*
X141481390Y-142334960D01*
X141481385Y-142334961D01*
X141374394Y-142389476D01*
X141289476Y-142474394D01*
X141234961Y-142581385D01*
X141234960Y-142581390D01*
X141216174Y-142700000D01*
X132000500Y-142700000D01*
X132000500Y-141500000D01*
X145616174Y-141500000D01*
X145634960Y-141618609D01*
X145634961Y-141618614D01*
X145689476Y-141725605D01*
X145774394Y-141810523D01*
X145881385Y-141865038D01*
X145881388Y-141865038D01*
X145881391Y-141865040D01*
X146000000Y-141883826D01*
X146118609Y-141865040D01*
X146118612Y-141865038D01*
X146118614Y-141865038D01*
X146225605Y-141810523D01*
X146225604Y-141810523D01*
X146225607Y-141810522D01*
X146310522Y-141725607D01*
X146312355Y-141722008D01*
X146365038Y-141618614D01*
X146365038Y-141618612D01*
X146365040Y-141618609D01*
X146383826Y-141500000D01*
X147116174Y-141500000D01*
X147134960Y-141618609D01*
X147134961Y-141618614D01*
X147189476Y-141725605D01*
X147274394Y-141810523D01*
X147381385Y-141865038D01*
X147381388Y-141865038D01*
X147381391Y-141865040D01*
X147500000Y-141883826D01*
X147618609Y-141865040D01*
X147618612Y-141865038D01*
X147618614Y-141865038D01*
X147725605Y-141810523D01*
X147725604Y-141810523D01*
X147725607Y-141810522D01*
X147810522Y-141725607D01*
X147812355Y-141722008D01*
X147865038Y-141618614D01*
X147865038Y-141618612D01*
X147865040Y-141618609D01*
X147883826Y-141500000D01*
X148116174Y-141500000D01*
X148134960Y-141618609D01*
X148134961Y-141618614D01*
X148189476Y-141725605D01*
X148274394Y-141810523D01*
X148381385Y-141865038D01*
X148381388Y-141865038D01*
X148381391Y-141865040D01*
X148500000Y-141883826D01*
X148618609Y-141865040D01*
X148618612Y-141865038D01*
X148618614Y-141865038D01*
X148725605Y-141810523D01*
X148725604Y-141810523D01*
X148725607Y-141810522D01*
X148810522Y-141725607D01*
X148812355Y-141722008D01*
X148865038Y-141618614D01*
X148865038Y-141618612D01*
X148865040Y-141618609D01*
X148883826Y-141500000D01*
X148865040Y-141381391D01*
X148865038Y-141381388D01*
X148865038Y-141381385D01*
X148823570Y-141300000D01*
X149616174Y-141300000D01*
X149634960Y-141418609D01*
X149634961Y-141418614D01*
X149689476Y-141525605D01*
X149774394Y-141610523D01*
X149881385Y-141665038D01*
X149881388Y-141665038D01*
X149881391Y-141665040D01*
X150000000Y-141683826D01*
X150118609Y-141665040D01*
X150118612Y-141665038D01*
X150118614Y-141665038D01*
X150225605Y-141610523D01*
X150225604Y-141610523D01*
X150225607Y-141610522D01*
X150310522Y-141525607D01*
X150323569Y-141500000D01*
X150365038Y-141418614D01*
X150365038Y-141418612D01*
X150365040Y-141418609D01*
X150383826Y-141300000D01*
X150365040Y-141181391D01*
X150365038Y-141181388D01*
X150365038Y-141181385D01*
X150310523Y-141074394D01*
X150225605Y-140989476D01*
X150118614Y-140934961D01*
X150118609Y-140934960D01*
X150000000Y-140916174D01*
X149881390Y-140934960D01*
X149881385Y-140934961D01*
X149774394Y-140989476D01*
X149689476Y-141074394D01*
X149634961Y-141181385D01*
X149634960Y-141181390D01*
X149616174Y-141300000D01*
X148823570Y-141300000D01*
X148810523Y-141274394D01*
X148725605Y-141189476D01*
X148618614Y-141134961D01*
X148618609Y-141134960D01*
X148500000Y-141116174D01*
X148381390Y-141134960D01*
X148381385Y-141134961D01*
X148274394Y-141189476D01*
X148189476Y-141274394D01*
X148134961Y-141381385D01*
X148134960Y-141381390D01*
X148116174Y-141500000D01*
X147883826Y-141500000D01*
X147865040Y-141381391D01*
X147865038Y-141381388D01*
X147865038Y-141381385D01*
X147810523Y-141274394D01*
X147725605Y-141189476D01*
X147618614Y-141134961D01*
X147618609Y-141134960D01*
X147500000Y-141116174D01*
X147381390Y-141134960D01*
X147381385Y-141134961D01*
X147274394Y-141189476D01*
X147189476Y-141274394D01*
X147134961Y-141381385D01*
X147134960Y-141381390D01*
X147116174Y-141500000D01*
X146383826Y-141500000D01*
X146365040Y-141381391D01*
X146365038Y-141381388D01*
X146365038Y-141381385D01*
X146310523Y-141274394D01*
X146225605Y-141189476D01*
X146118614Y-141134961D01*
X146118609Y-141134960D01*
X146000000Y-141116174D01*
X145881390Y-141134960D01*
X145881385Y-141134961D01*
X145774394Y-141189476D01*
X145689476Y-141274394D01*
X145634961Y-141381385D01*
X145634960Y-141381390D01*
X145616174Y-141500000D01*
X132000500Y-141500000D01*
X132000500Y-140500000D01*
X154366174Y-140500000D01*
X154384960Y-140618609D01*
X154384961Y-140618614D01*
X154439476Y-140725605D01*
X154524394Y-140810523D01*
X154631385Y-140865038D01*
X154631388Y-140865038D01*
X154631391Y-140865040D01*
X154750000Y-140883826D01*
X154868609Y-140865040D01*
X154868612Y-140865038D01*
X154868614Y-140865038D01*
X154975605Y-140810523D01*
X154975604Y-140810523D01*
X154975607Y-140810522D01*
X155060522Y-140725607D01*
X155062355Y-140722008D01*
X155115038Y-140618614D01*
X155115038Y-140618612D01*
X155115040Y-140618609D01*
X155133826Y-140500000D01*
X155115040Y-140381391D01*
X155115038Y-140381388D01*
X155115038Y-140381385D01*
X155060523Y-140274394D01*
X154975605Y-140189476D01*
X154868614Y-140134961D01*
X154868609Y-140134960D01*
X154750000Y-140116174D01*
X154631390Y-140134960D01*
X154631385Y-140134961D01*
X154524394Y-140189476D01*
X154439476Y-140274394D01*
X154384961Y-140381385D01*
X154384960Y-140381390D01*
X154366174Y-140500000D01*
X132000500Y-140500000D01*
X132000500Y-139850000D01*
X151916174Y-139850000D01*
X151934960Y-139968609D01*
X151934961Y-139968614D01*
X151989476Y-140075605D01*
X152074394Y-140160523D01*
X152181385Y-140215038D01*
X152181388Y-140215038D01*
X152181391Y-140215040D01*
X152300000Y-140233826D01*
X152418609Y-140215040D01*
X152418612Y-140215038D01*
X152418614Y-140215038D01*
X152525605Y-140160523D01*
X152525604Y-140160523D01*
X152525607Y-140160522D01*
X152610522Y-140075607D01*
X152612355Y-140072008D01*
X152665038Y-139968614D01*
X152665038Y-139968612D01*
X152665040Y-139968609D01*
X152683826Y-139850000D01*
X152665040Y-139731391D01*
X152665038Y-139731388D01*
X152665038Y-139731385D01*
X152610523Y-139624394D01*
X152525605Y-139539476D01*
X152448130Y-139500000D01*
X155866174Y-139500000D01*
X155884960Y-139618609D01*
X155884961Y-139618614D01*
X155939476Y-139725605D01*
X156024394Y-139810523D01*
X156131385Y-139865038D01*
X156131388Y-139865038D01*
X156131391Y-139865040D01*
X156250000Y-139883826D01*
X156368609Y-139865040D01*
X156368612Y-139865038D01*
X156368614Y-139865038D01*
X156475605Y-139810523D01*
X156475604Y-139810523D01*
X156475607Y-139810522D01*
X156560522Y-139725607D01*
X156562355Y-139722008D01*
X156615038Y-139618614D01*
X156615038Y-139618612D01*
X156615040Y-139618609D01*
X156633826Y-139500000D01*
X158616174Y-139500000D01*
X158634960Y-139618609D01*
X158634961Y-139618614D01*
X158689476Y-139725605D01*
X158774394Y-139810523D01*
X158881385Y-139865038D01*
X158881388Y-139865038D01*
X158881391Y-139865040D01*
X159000000Y-139883826D01*
X159118609Y-139865040D01*
X159118612Y-139865038D01*
X159118614Y-139865038D01*
X159225605Y-139810523D01*
X159225604Y-139810523D01*
X159225607Y-139810522D01*
X159310522Y-139725607D01*
X159312355Y-139722008D01*
X159365038Y-139618614D01*
X159365038Y-139618612D01*
X159365040Y-139618609D01*
X159383826Y-139500000D01*
X159365040Y-139381391D01*
X159365038Y-139381388D01*
X159365038Y-139381385D01*
X159310523Y-139274394D01*
X159225605Y-139189476D01*
X159119044Y-139135180D01*
X160999500Y-139135180D01*
X160999500Y-140864820D01*
X161003281Y-140883826D01*
X161008233Y-140908722D01*
X161025764Y-140934960D01*
X161041496Y-140958504D01*
X161091278Y-140991767D01*
X161135180Y-141000500D01*
X161135181Y-141000500D01*
X162864819Y-141000500D01*
X162864820Y-141000500D01*
X162908722Y-140991767D01*
X162958504Y-140958504D01*
X162991767Y-140908722D01*
X163000500Y-140864820D01*
X163000500Y-139135180D01*
X162991767Y-139091278D01*
X162958504Y-139041496D01*
X162932910Y-139024395D01*
X162908722Y-139008233D01*
X162864820Y-138999500D01*
X161135180Y-138999500D01*
X161113229Y-139003866D01*
X161091277Y-139008233D01*
X161041496Y-139041495D01*
X161041495Y-139041496D01*
X161008233Y-139091277D01*
X160999544Y-139134960D01*
X160999500Y-139135180D01*
X159119044Y-139135180D01*
X159118614Y-139134961D01*
X159118609Y-139134960D01*
X159000000Y-139116174D01*
X158881390Y-139134960D01*
X158881385Y-139134961D01*
X158774394Y-139189476D01*
X158689476Y-139274394D01*
X158634961Y-139381385D01*
X158634960Y-139381390D01*
X158616174Y-139500000D01*
X156633826Y-139500000D01*
X156615040Y-139381391D01*
X156615038Y-139381388D01*
X156615038Y-139381385D01*
X156560523Y-139274394D01*
X156475605Y-139189476D01*
X156368614Y-139134961D01*
X156368609Y-139134960D01*
X156250000Y-139116174D01*
X156131390Y-139134960D01*
X156131385Y-139134961D01*
X156024394Y-139189476D01*
X155939476Y-139274394D01*
X155884961Y-139381385D01*
X155884960Y-139381390D01*
X155866174Y-139500000D01*
X152448130Y-139500000D01*
X152418614Y-139484961D01*
X152418609Y-139484960D01*
X152300000Y-139466174D01*
X152181390Y-139484960D01*
X152181385Y-139484961D01*
X152074394Y-139539476D01*
X151989476Y-139624394D01*
X151934961Y-139731385D01*
X151934960Y-139731390D01*
X151916174Y-139850000D01*
X132000500Y-139850000D01*
X132000500Y-139250001D01*
X151216174Y-139250001D01*
X151234960Y-139368610D01*
X151234961Y-139368615D01*
X151289476Y-139475606D01*
X151374394Y-139560524D01*
X151481385Y-139615039D01*
X151481388Y-139615039D01*
X151481391Y-139615041D01*
X151600000Y-139633827D01*
X151718609Y-139615041D01*
X151718612Y-139615039D01*
X151718614Y-139615039D01*
X151825605Y-139560524D01*
X151825604Y-139560524D01*
X151825607Y-139560523D01*
X151910522Y-139475608D01*
X151958528Y-139381391D01*
X151965038Y-139368615D01*
X151965038Y-139368613D01*
X151965040Y-139368610D01*
X151983826Y-139250001D01*
X151965040Y-139131392D01*
X151965038Y-139131389D01*
X151965038Y-139131386D01*
X151910523Y-139024395D01*
X151825605Y-138939477D01*
X151718614Y-138884962D01*
X151718609Y-138884961D01*
X151600000Y-138866175D01*
X151481390Y-138884961D01*
X151481385Y-138884962D01*
X151374394Y-138939477D01*
X151289476Y-139024395D01*
X151234961Y-139131386D01*
X151234960Y-139131391D01*
X151216174Y-139250001D01*
X132000500Y-139250001D01*
X132000500Y-138350000D01*
X150816174Y-138350000D01*
X150834960Y-138468609D01*
X150834961Y-138468614D01*
X150889476Y-138575605D01*
X150974394Y-138660523D01*
X151081385Y-138715038D01*
X151081388Y-138715038D01*
X151081391Y-138715040D01*
X151200000Y-138733826D01*
X151318609Y-138715040D01*
X151318612Y-138715038D01*
X151318614Y-138715038D01*
X151425605Y-138660523D01*
X151425604Y-138660523D01*
X151425607Y-138660522D01*
X151510522Y-138575607D01*
X151512355Y-138572008D01*
X151565038Y-138468614D01*
X151565038Y-138468612D01*
X151565040Y-138468609D01*
X151583826Y-138350000D01*
X151565040Y-138231391D01*
X151565038Y-138231388D01*
X151565038Y-138231385D01*
X151510523Y-138124394D01*
X151425605Y-138039476D01*
X151318614Y-137984961D01*
X151318609Y-137984960D01*
X151200000Y-137966174D01*
X151081390Y-137984960D01*
X151081385Y-137984961D01*
X150974394Y-138039476D01*
X150889476Y-138124394D01*
X150834961Y-138231385D01*
X150834960Y-138231390D01*
X150816174Y-138350000D01*
X132000500Y-138350000D01*
X132000500Y-134920000D01*
X160994659Y-134920000D01*
X161013976Y-135116133D01*
X161071187Y-135304731D01*
X161158776Y-135468597D01*
X161164090Y-135478538D01*
X161289117Y-135630883D01*
X161441462Y-135755910D01*
X161518426Y-135797048D01*
X161615268Y-135848812D01*
X161615270Y-135848812D01*
X161615273Y-135848814D01*
X161803868Y-135906024D01*
X162000000Y-135925341D01*
X162196132Y-135906024D01*
X162384727Y-135848814D01*
X162558538Y-135755910D01*
X162710883Y-135630883D01*
X162835910Y-135478538D01*
X162928814Y-135304727D01*
X162986024Y-135116132D01*
X163005341Y-134920000D01*
X162986024Y-134723868D01*
X162928814Y-134535273D01*
X162928812Y-134535270D01*
X162928812Y-134535268D01*
X162844775Y-134378048D01*
X162835910Y-134361462D01*
X162710883Y-134209117D01*
X162558538Y-134084090D01*
X162548597Y-134078776D01*
X162384731Y-133991187D01*
X162196133Y-133933976D01*
X162000000Y-133914659D01*
X161803866Y-133933976D01*
X161615268Y-133991187D01*
X161441463Y-134084089D01*
X161289117Y-134209117D01*
X161164089Y-134361463D01*
X161071187Y-134535268D01*
X161013976Y-134723866D01*
X160994659Y-134920000D01*
X132000500Y-134920000D01*
X132000500Y-130618482D01*
X132649500Y-130618482D01*
X132649500Y-134081517D01*
X132664353Y-134175303D01*
X132664354Y-134175305D01*
X132721950Y-134288341D01*
X132811659Y-134378050D01*
X132924697Y-134435646D01*
X133018483Y-134450500D01*
X136481516Y-134450499D01*
X136481517Y-134450499D01*
X136575303Y-134435646D01*
X136575305Y-134435645D01*
X136577418Y-134434568D01*
X136688341Y-134378050D01*
X136778050Y-134288341D01*
X136835646Y-134175303D01*
X136850500Y-134081517D01*
X136850500Y-132850000D01*
X144816174Y-132850000D01*
X144834960Y-132968609D01*
X144834961Y-132968614D01*
X144889476Y-133075605D01*
X144974394Y-133160523D01*
X145081385Y-133215038D01*
X145081388Y-133215038D01*
X145081391Y-133215040D01*
X145200000Y-133233826D01*
X145318609Y-133215040D01*
X145318612Y-133215038D01*
X145318614Y-133215038D01*
X145425605Y-133160523D01*
X145425604Y-133160523D01*
X145425607Y-133160522D01*
X145510522Y-133075607D01*
X145512355Y-133072008D01*
X145565038Y-132968614D01*
X145565038Y-132968612D01*
X145565040Y-132968609D01*
X145583826Y-132850000D01*
X145565040Y-132731391D01*
X145565038Y-132731388D01*
X145565038Y-132731385D01*
X145510523Y-132624394D01*
X145425605Y-132539476D01*
X145318614Y-132484961D01*
X145318609Y-132484960D01*
X145200000Y-132466174D01*
X145081390Y-132484960D01*
X145081385Y-132484961D01*
X144974394Y-132539476D01*
X144889476Y-132624394D01*
X144834961Y-132731385D01*
X144834960Y-132731390D01*
X144816174Y-132850000D01*
X136850500Y-132850000D01*
X136850500Y-132450000D01*
X146016174Y-132450000D01*
X146034960Y-132568609D01*
X146034961Y-132568614D01*
X146089476Y-132675605D01*
X146174394Y-132760523D01*
X146281385Y-132815038D01*
X146281388Y-132815038D01*
X146281391Y-132815040D01*
X146400000Y-132833826D01*
X146518609Y-132815040D01*
X146518612Y-132815038D01*
X146518614Y-132815038D01*
X146625605Y-132760523D01*
X146625604Y-132760523D01*
X146625607Y-132760522D01*
X146710522Y-132675607D01*
X146736617Y-132624393D01*
X146765038Y-132568614D01*
X146765038Y-132568612D01*
X146765040Y-132568609D01*
X146783826Y-132450000D01*
X146783826Y-132449999D01*
X146783826Y-132448607D01*
X146784183Y-132447744D01*
X146784737Y-132444248D01*
X146785576Y-132444380D01*
X146805500Y-132396281D01*
X146857826Y-132374607D01*
X146910152Y-132396281D01*
X146974394Y-132460523D01*
X147081385Y-132515038D01*
X147081388Y-132515038D01*
X147081391Y-132515040D01*
X147200000Y-132533826D01*
X147318609Y-132515040D01*
X147318612Y-132515038D01*
X147318614Y-132515038D01*
X147425605Y-132460523D01*
X147425604Y-132460523D01*
X147425607Y-132460522D01*
X147510522Y-132375607D01*
X147533054Y-132331385D01*
X147565038Y-132268614D01*
X147565038Y-132268612D01*
X147565040Y-132268609D01*
X147583826Y-132150000D01*
X147816174Y-132150000D01*
X147834960Y-132268609D01*
X147834961Y-132268614D01*
X147889476Y-132375605D01*
X147974394Y-132460523D01*
X148081385Y-132515038D01*
X148081388Y-132515038D01*
X148081391Y-132515040D01*
X148200000Y-132533826D01*
X148318609Y-132515040D01*
X148318612Y-132515038D01*
X148318614Y-132515038D01*
X148425605Y-132460523D01*
X148425604Y-132460523D01*
X148425607Y-132460522D01*
X148510522Y-132375607D01*
X148533054Y-132331385D01*
X148565038Y-132268614D01*
X148565038Y-132268612D01*
X148565040Y-132268609D01*
X148583826Y-132150000D01*
X148567987Y-132050000D01*
X149316174Y-132050000D01*
X149334960Y-132168609D01*
X149334961Y-132168614D01*
X149389476Y-132275605D01*
X149474394Y-132360523D01*
X149581385Y-132415038D01*
X149581388Y-132415038D01*
X149581391Y-132415040D01*
X149700000Y-132433826D01*
X149818609Y-132415040D01*
X149818612Y-132415038D01*
X149818614Y-132415038D01*
X149925605Y-132360523D01*
X149925604Y-132360523D01*
X149925607Y-132360522D01*
X149936129Y-132350000D01*
X150416174Y-132350000D01*
X150434960Y-132468609D01*
X150434961Y-132468614D01*
X150489476Y-132575605D01*
X150574394Y-132660523D01*
X150681385Y-132715038D01*
X150681388Y-132715038D01*
X150681391Y-132715040D01*
X150800000Y-132733826D01*
X150918609Y-132715040D01*
X150918612Y-132715038D01*
X150918614Y-132715038D01*
X151025605Y-132660523D01*
X151025604Y-132660523D01*
X151025607Y-132660522D01*
X151110522Y-132575607D01*
X151128932Y-132539476D01*
X151165038Y-132468614D01*
X151165038Y-132468612D01*
X151165040Y-132468609D01*
X151179074Y-132380000D01*
X160994659Y-132380000D01*
X161013976Y-132576133D01*
X161071187Y-132764731D01*
X161108120Y-132833826D01*
X161164090Y-132938538D01*
X161289117Y-133090883D01*
X161441462Y-133215910D01*
X161518426Y-133257048D01*
X161615268Y-133308812D01*
X161615270Y-133308812D01*
X161615273Y-133308814D01*
X161803868Y-133366024D01*
X162000000Y-133385341D01*
X162196132Y-133366024D01*
X162384727Y-133308814D01*
X162558538Y-133215910D01*
X162710883Y-133090883D01*
X162835910Y-132938538D01*
X162928814Y-132764727D01*
X162986024Y-132576132D01*
X163005341Y-132380000D01*
X162986024Y-132183868D01*
X162928814Y-131995273D01*
X162928812Y-131995270D01*
X162928812Y-131995268D01*
X162874213Y-131893122D01*
X162835910Y-131821462D01*
X162710883Y-131669117D01*
X162558538Y-131544090D01*
X162548597Y-131538776D01*
X162384731Y-131451187D01*
X162196133Y-131393976D01*
X162000000Y-131374659D01*
X161803866Y-131393976D01*
X161615268Y-131451187D01*
X161441463Y-131544089D01*
X161289117Y-131669117D01*
X161164089Y-131821463D01*
X161071187Y-131995268D01*
X161013976Y-132183866D01*
X160994659Y-132380000D01*
X151179074Y-132380000D01*
X151183826Y-132350000D01*
X151165040Y-132231391D01*
X151165038Y-132231388D01*
X151165038Y-132231385D01*
X151110523Y-132124394D01*
X151025605Y-132039476D01*
X150918614Y-131984961D01*
X150918609Y-131984960D01*
X150800000Y-131966174D01*
X150681390Y-131984960D01*
X150681385Y-131984961D01*
X150574394Y-132039476D01*
X150489476Y-132124394D01*
X150434961Y-132231385D01*
X150434960Y-132231390D01*
X150416174Y-132350000D01*
X149936129Y-132350000D01*
X150010522Y-132275607D01*
X150047151Y-132203719D01*
X150065038Y-132168614D01*
X150065038Y-132168612D01*
X150065040Y-132168609D01*
X150083826Y-132050000D01*
X150065040Y-131931391D01*
X150065038Y-131931388D01*
X150065038Y-131931385D01*
X150010523Y-131824394D01*
X149925605Y-131739476D01*
X149818614Y-131684961D01*
X149818609Y-131684960D01*
X149700000Y-131666174D01*
X149581390Y-131684960D01*
X149581385Y-131684961D01*
X149474394Y-131739476D01*
X149389476Y-131824394D01*
X149334961Y-131931385D01*
X149334960Y-131931390D01*
X149316174Y-132050000D01*
X148567987Y-132050000D01*
X148565040Y-132031391D01*
X148547566Y-131997096D01*
X148543122Y-131940633D01*
X148579904Y-131897566D01*
X148636367Y-131893122D01*
X148647097Y-131897566D01*
X148681391Y-131915040D01*
X148800000Y-131933826D01*
X148918609Y-131915040D01*
X148918612Y-131915038D01*
X148918614Y-131915038D01*
X149025605Y-131860523D01*
X149025604Y-131860523D01*
X149025607Y-131860522D01*
X149110522Y-131775607D01*
X149147566Y-131702904D01*
X149165038Y-131668614D01*
X149165038Y-131668612D01*
X149165040Y-131668609D01*
X149183826Y-131550000D01*
X149165040Y-131431391D01*
X149165038Y-131431388D01*
X149165038Y-131431385D01*
X149110523Y-131324394D01*
X149025605Y-131239476D01*
X148918614Y-131184961D01*
X148918609Y-131184960D01*
X148800000Y-131166174D01*
X148681390Y-131184960D01*
X148681385Y-131184961D01*
X148574394Y-131239476D01*
X148489476Y-131324394D01*
X148434961Y-131431385D01*
X148434960Y-131431390D01*
X148416174Y-131550000D01*
X148434959Y-131668609D01*
X148452434Y-131702904D01*
X148456877Y-131759366D01*
X148420094Y-131802434D01*
X148363632Y-131806877D01*
X148352904Y-131802434D01*
X148318609Y-131784959D01*
X148200000Y-131766174D01*
X148081390Y-131784960D01*
X148081385Y-131784961D01*
X147974394Y-131839476D01*
X147889476Y-131924394D01*
X147834961Y-132031385D01*
X147834960Y-132031390D01*
X147816174Y-132150000D01*
X147583826Y-132150000D01*
X147565040Y-132031391D01*
X147565038Y-132031388D01*
X147565038Y-132031385D01*
X147510523Y-131924394D01*
X147425605Y-131839476D01*
X147318614Y-131784961D01*
X147318609Y-131784960D01*
X147200000Y-131766174D01*
X147081390Y-131784960D01*
X147081385Y-131784961D01*
X146974394Y-131839476D01*
X146889476Y-131924394D01*
X146834961Y-132031385D01*
X146834960Y-132031390D01*
X146816174Y-132150000D01*
X146816174Y-132151393D01*
X146815816Y-132152255D01*
X146815263Y-132155752D01*
X146814423Y-132155619D01*
X146794500Y-132203719D01*
X146742174Y-132225393D01*
X146689848Y-132203719D01*
X146625605Y-132139476D01*
X146518614Y-132084961D01*
X146518609Y-132084960D01*
X146400000Y-132066174D01*
X146281390Y-132084960D01*
X146281385Y-132084961D01*
X146174394Y-132139476D01*
X146089476Y-132224394D01*
X146034961Y-132331385D01*
X146034960Y-132331390D01*
X146016174Y-132450000D01*
X136850500Y-132450000D01*
X136850499Y-130618484D01*
X136835646Y-130524697D01*
X136835646Y-130524696D01*
X136835645Y-130524694D01*
X136778049Y-130411658D01*
X136688342Y-130321951D01*
X136688341Y-130321950D01*
X136575303Y-130264354D01*
X136575301Y-130264353D01*
X136575300Y-130264353D01*
X136481517Y-130249500D01*
X133018482Y-130249500D01*
X132924696Y-130264353D01*
X132924694Y-130264354D01*
X132811658Y-130321950D01*
X132721951Y-130411657D01*
X132664353Y-130524699D01*
X132649500Y-130618482D01*
X132000500Y-130618482D01*
X132000500Y-129840000D01*
X160994659Y-129840000D01*
X161013976Y-130036133D01*
X161071187Y-130224731D01*
X161123153Y-130321951D01*
X161164090Y-130398538D01*
X161289117Y-130550883D01*
X161441462Y-130675910D01*
X161518426Y-130717048D01*
X161615268Y-130768812D01*
X161615270Y-130768812D01*
X161615273Y-130768814D01*
X161803868Y-130826024D01*
X162000000Y-130845341D01*
X162196132Y-130826024D01*
X162384727Y-130768814D01*
X162558538Y-130675910D01*
X162710883Y-130550883D01*
X162835910Y-130398538D01*
X162928814Y-130224727D01*
X162986024Y-130036132D01*
X163005341Y-129840000D01*
X162986024Y-129643868D01*
X162928814Y-129455273D01*
X162928812Y-129455270D01*
X162928812Y-129455268D01*
X162877048Y-129358426D01*
X162835910Y-129281462D01*
X162710883Y-129129117D01*
X162558538Y-129004090D01*
X162548597Y-128998776D01*
X162384731Y-128911187D01*
X162196133Y-128853976D01*
X162000000Y-128834659D01*
X161803866Y-128853976D01*
X161615268Y-128911187D01*
X161441463Y-129004089D01*
X161289117Y-129129117D01*
X161164089Y-129281463D01*
X161071187Y-129455268D01*
X161013976Y-129643866D01*
X160994659Y-129840000D01*
X132000500Y-129840000D01*
X132000500Y-120900000D01*
X139163974Y-120900000D01*
X139182760Y-121018609D01*
X139182761Y-121018614D01*
X139237276Y-121125605D01*
X139322194Y-121210523D01*
X139429185Y-121265038D01*
X139429188Y-121265038D01*
X139429191Y-121265040D01*
X139547800Y-121283826D01*
X139666409Y-121265040D01*
X139666412Y-121265038D01*
X139666414Y-121265038D01*
X139773405Y-121210523D01*
X139773404Y-121210523D01*
X139773407Y-121210522D01*
X139858322Y-121125607D01*
X139860155Y-121122008D01*
X139912838Y-121018614D01*
X139912838Y-121018612D01*
X139912840Y-121018609D01*
X139931626Y-120900000D01*
X139912840Y-120781391D01*
X139912838Y-120781388D01*
X139912838Y-120781385D01*
X139858323Y-120674394D01*
X139773405Y-120589476D01*
X139666414Y-120534961D01*
X139666409Y-120534960D01*
X139547800Y-120516174D01*
X139429190Y-120534960D01*
X139429185Y-120534961D01*
X139322194Y-120589476D01*
X139237276Y-120674394D01*
X139182761Y-120781385D01*
X139182760Y-120781390D01*
X139163974Y-120900000D01*
X132000500Y-120900000D01*
X132000500Y-118295180D01*
X161499500Y-118295180D01*
X161499500Y-120024820D01*
X161508233Y-120068722D01*
X161541496Y-120118504D01*
X161591278Y-120151767D01*
X161635180Y-120160500D01*
X161635181Y-120160500D01*
X163364819Y-120160500D01*
X163364820Y-120160500D01*
X163408722Y-120151767D01*
X163458504Y-120118504D01*
X163491767Y-120068722D01*
X163500500Y-120024820D01*
X163500500Y-118295180D01*
X163491767Y-118251278D01*
X163458504Y-118201496D01*
X163408722Y-118168233D01*
X163364820Y-118159500D01*
X161635180Y-118159500D01*
X161613229Y-118163866D01*
X161591277Y-118168233D01*
X161541496Y-118201495D01*
X161541495Y-118201496D01*
X161508233Y-118251277D01*
X161508233Y-118251278D01*
X161499500Y-118295180D01*
X132000500Y-118295180D01*
X132000500Y-115500000D01*
X144663974Y-115500000D01*
X144682760Y-115618609D01*
X144682761Y-115618614D01*
X144737276Y-115725605D01*
X144822194Y-115810523D01*
X144929185Y-115865038D01*
X144929188Y-115865038D01*
X144929191Y-115865040D01*
X145047800Y-115883826D01*
X145166409Y-115865040D01*
X145166412Y-115865038D01*
X145166414Y-115865038D01*
X145273405Y-115810523D01*
X145273404Y-115810523D01*
X145273407Y-115810522D01*
X145358322Y-115725607D01*
X145360155Y-115722008D01*
X145412838Y-115618614D01*
X145412838Y-115618612D01*
X145412840Y-115618609D01*
X145431626Y-115500000D01*
X145412840Y-115381391D01*
X145412838Y-115381388D01*
X145412838Y-115381385D01*
X145358323Y-115274394D01*
X145273405Y-115189476D01*
X145166414Y-115134961D01*
X145166409Y-115134960D01*
X145047800Y-115116174D01*
X144929190Y-115134960D01*
X144929185Y-115134961D01*
X144822194Y-115189476D01*
X144737276Y-115274394D01*
X144682761Y-115381385D01*
X144682760Y-115381390D01*
X144663974Y-115500000D01*
X132000500Y-115500000D01*
X132000500Y-114800000D01*
X161813974Y-114800000D01*
X161832760Y-114918609D01*
X161832761Y-114918614D01*
X161887276Y-115025605D01*
X161972194Y-115110523D01*
X162079185Y-115165038D01*
X162079188Y-115165038D01*
X162079191Y-115165040D01*
X162197800Y-115183826D01*
X162316409Y-115165040D01*
X162316412Y-115165038D01*
X162316414Y-115165038D01*
X162423405Y-115110523D01*
X162423404Y-115110523D01*
X162423407Y-115110522D01*
X162508322Y-115025607D01*
X162510155Y-115022008D01*
X162562838Y-114918614D01*
X162562838Y-114918612D01*
X162562840Y-114918609D01*
X162581626Y-114800000D01*
X162562840Y-114681391D01*
X162562838Y-114681388D01*
X162562838Y-114681386D01*
X162527834Y-114612686D01*
X162523390Y-114556224D01*
X162560173Y-114513157D01*
X162616635Y-114508713D01*
X162627363Y-114513157D01*
X162729186Y-114565038D01*
X162729188Y-114565038D01*
X162729191Y-114565040D01*
X162847800Y-114583826D01*
X162966409Y-114565040D01*
X162966412Y-114565038D01*
X162966414Y-114565038D01*
X163073405Y-114510523D01*
X163073404Y-114510523D01*
X163073407Y-114510522D01*
X163158322Y-114425607D01*
X163177834Y-114387313D01*
X163212838Y-114318614D01*
X163212838Y-114318612D01*
X163212840Y-114318609D01*
X163231626Y-114200000D01*
X163212840Y-114081391D01*
X163212838Y-114081388D01*
X163212838Y-114081385D01*
X163158323Y-113974394D01*
X163073405Y-113889476D01*
X162966414Y-113834961D01*
X162966409Y-113834960D01*
X162847800Y-113816174D01*
X162729190Y-113834960D01*
X162729185Y-113834961D01*
X162622194Y-113889476D01*
X162537276Y-113974394D01*
X162482761Y-114081385D01*
X162482760Y-114081390D01*
X162463974Y-114200000D01*
X162482759Y-114318609D01*
X162517766Y-114387313D01*
X162522209Y-114443776D01*
X162485426Y-114486843D01*
X162428963Y-114491286D01*
X162418236Y-114486843D01*
X162316409Y-114434959D01*
X162197800Y-114416174D01*
X162079190Y-114434960D01*
X162079185Y-114434961D01*
X161972194Y-114489476D01*
X161887276Y-114574394D01*
X161832761Y-114681385D01*
X161832760Y-114681390D01*
X161813974Y-114800000D01*
X132000500Y-114800000D01*
X132000500Y-107660180D01*
X132599500Y-107660180D01*
X132599500Y-109389820D01*
X132608233Y-109433722D01*
X132641496Y-109483504D01*
X132691278Y-109516767D01*
X132735180Y-109525500D01*
X132735181Y-109525500D01*
X134464819Y-109525500D01*
X134464820Y-109525500D01*
X134508722Y-109516767D01*
X134558504Y-109483504D01*
X134591767Y-109433722D01*
X134600500Y-109389820D01*
X134600500Y-107660180D01*
X134591767Y-107616278D01*
X134558504Y-107566496D01*
X134508722Y-107533233D01*
X134464820Y-107524500D01*
X132735180Y-107524500D01*
X132713229Y-107528866D01*
X132691277Y-107533233D01*
X132641496Y-107566495D01*
X132641495Y-107566496D01*
X132608233Y-107616277D01*
X132608233Y-107616278D01*
X132599500Y-107660180D01*
X132000500Y-107660180D01*
X132000500Y-105985000D01*
X132594659Y-105985000D01*
X132613976Y-106181133D01*
X132671187Y-106369731D01*
X132758776Y-106533597D01*
X132764090Y-106543538D01*
X132889117Y-106695883D01*
X133041462Y-106820910D01*
X133118426Y-106862048D01*
X133215268Y-106913812D01*
X133215270Y-106913812D01*
X133215273Y-106913814D01*
X133403868Y-106971024D01*
X133600000Y-106990341D01*
X133796132Y-106971024D01*
X133984727Y-106913814D01*
X134158538Y-106820910D01*
X134310883Y-106695883D01*
X134435910Y-106543538D01*
X134528814Y-106369727D01*
X134586024Y-106181132D01*
X134605341Y-105985000D01*
X134586024Y-105788868D01*
X134528814Y-105600273D01*
X134528812Y-105600270D01*
X134528812Y-105600268D01*
X134477048Y-105503426D01*
X134435910Y-105426462D01*
X134310883Y-105274117D01*
X134158538Y-105149090D01*
X134148597Y-105143776D01*
X133984731Y-105056187D01*
X133796133Y-104998976D01*
X133600000Y-104979659D01*
X133403866Y-104998976D01*
X133215268Y-105056187D01*
X133041463Y-105149089D01*
X132889117Y-105274117D01*
X132764089Y-105426463D01*
X132671187Y-105600268D01*
X132613976Y-105788866D01*
X132594659Y-105985000D01*
X132000500Y-105985000D01*
X132000500Y-102315000D01*
X132594659Y-102315000D01*
X132613976Y-102511133D01*
X132671187Y-102699731D01*
X132758776Y-102863597D01*
X132764090Y-102873538D01*
X132889117Y-103025883D01*
X133041462Y-103150910D01*
X133118426Y-103192048D01*
X133215268Y-103243812D01*
X133215270Y-103243812D01*
X133215273Y-103243814D01*
X133403868Y-103301024D01*
X133600000Y-103320341D01*
X133796132Y-103301024D01*
X133984727Y-103243814D01*
X134158538Y-103150910D01*
X134310883Y-103025883D01*
X134435910Y-102873538D01*
X134528814Y-102699727D01*
X134586024Y-102511132D01*
X134605341Y-102315000D01*
X134586024Y-102118868D01*
X134528814Y-101930273D01*
X134528812Y-101930270D01*
X134528812Y-101930268D01*
X134477048Y-101833426D01*
X134435910Y-101756462D01*
X134310883Y-101604117D01*
X134158538Y-101479090D01*
X134148597Y-101473776D01*
X133984731Y-101386187D01*
X133796133Y-101328976D01*
X133600000Y-101309659D01*
X133403866Y-101328976D01*
X133215268Y-101386187D01*
X133041463Y-101479089D01*
X132889117Y-101604117D01*
X132764089Y-101756463D01*
X132671187Y-101930268D01*
X132613976Y-102118866D01*
X132594659Y-102315000D01*
X132000500Y-102315000D01*
X132000500Y-98910180D01*
X132599500Y-98910180D01*
X132599500Y-100639819D01*
X132608233Y-100683722D01*
X132626380Y-100710882D01*
X132641496Y-100733504D01*
X132691278Y-100766767D01*
X132735180Y-100775500D01*
X132735181Y-100775500D01*
X134464819Y-100775500D01*
X134464820Y-100775500D01*
X134508722Y-100766767D01*
X134558504Y-100733504D01*
X134591767Y-100683722D01*
X134600500Y-100639820D01*
X134600500Y-100000000D01*
X160994659Y-100000000D01*
X161013976Y-100196133D01*
X161071187Y-100384731D01*
X161158776Y-100548597D01*
X161164090Y-100558538D01*
X161289117Y-100710883D01*
X161441462Y-100835910D01*
X161518426Y-100877048D01*
X161615268Y-100928812D01*
X161615270Y-100928812D01*
X161615273Y-100928814D01*
X161803868Y-100986024D01*
X162000000Y-101005341D01*
X162196132Y-100986024D01*
X162384727Y-100928814D01*
X162558538Y-100835910D01*
X162710883Y-100710883D01*
X162835910Y-100558538D01*
X162928814Y-100384727D01*
X162986024Y-100196132D01*
X163005341Y-100000000D01*
X162986024Y-99803868D01*
X162928814Y-99615273D01*
X162928812Y-99615270D01*
X162928812Y-99615268D01*
X162877048Y-99518426D01*
X162835910Y-99441462D01*
X162710883Y-99289117D01*
X162558538Y-99164090D01*
X162548597Y-99158776D01*
X162384731Y-99071187D01*
X162196133Y-99013976D01*
X162000000Y-98994659D01*
X161803866Y-99013976D01*
X161615268Y-99071187D01*
X161441463Y-99164089D01*
X161289117Y-99289117D01*
X161164089Y-99441463D01*
X161071187Y-99615268D01*
X161013976Y-99803866D01*
X160994659Y-100000000D01*
X134600500Y-100000000D01*
X134600500Y-98910180D01*
X134591767Y-98866278D01*
X134558504Y-98816496D01*
X134508722Y-98783233D01*
X134464820Y-98774500D01*
X132735180Y-98774500D01*
X132713229Y-98778866D01*
X132691277Y-98783233D01*
X132641496Y-98816495D01*
X132641495Y-98816496D01*
X132608233Y-98866277D01*
X132599500Y-98910180D01*
X132000500Y-98910180D01*
X132000500Y-96900000D01*
X157066174Y-96900000D01*
X157084960Y-97018609D01*
X157084961Y-97018614D01*
X157139476Y-97125605D01*
X157224394Y-97210523D01*
X157331385Y-97265038D01*
X157331388Y-97265038D01*
X157331391Y-97265040D01*
X157450000Y-97283826D01*
X157568609Y-97265040D01*
X157568612Y-97265038D01*
X157568614Y-97265038D01*
X157675605Y-97210523D01*
X157675604Y-97210523D01*
X157675607Y-97210522D01*
X157760522Y-97125607D01*
X157762355Y-97122008D01*
X157815038Y-97018614D01*
X157815038Y-97018612D01*
X157815040Y-97018609D01*
X157833826Y-96900000D01*
X157815040Y-96781391D01*
X157815038Y-96781388D01*
X157815038Y-96781385D01*
X157760523Y-96674394D01*
X157675605Y-96589476D01*
X157568614Y-96534961D01*
X157568609Y-96534960D01*
X157450000Y-96516174D01*
X157331390Y-96534960D01*
X157331385Y-96534961D01*
X157224394Y-96589476D01*
X157139476Y-96674394D01*
X157084961Y-96781385D01*
X157084960Y-96781390D01*
X157066174Y-96900000D01*
X132000500Y-96900000D01*
X132000500Y-95531502D01*
X159566174Y-95531502D01*
X159584960Y-95650111D01*
X159584961Y-95650116D01*
X159639476Y-95757107D01*
X159724394Y-95842025D01*
X159831385Y-95896540D01*
X159831388Y-95896540D01*
X159831391Y-95896542D01*
X159950000Y-95915328D01*
X160068609Y-95896542D01*
X160068612Y-95896540D01*
X160068614Y-95896540D01*
X160175605Y-95842025D01*
X160175604Y-95842025D01*
X160175607Y-95842024D01*
X160260522Y-95757109D01*
X160262355Y-95753510D01*
X160315038Y-95650116D01*
X160315038Y-95650114D01*
X160315040Y-95650111D01*
X160333826Y-95531502D01*
X160315040Y-95412893D01*
X160315038Y-95412890D01*
X160315038Y-95412887D01*
X160260523Y-95305896D01*
X160175605Y-95220978D01*
X160068614Y-95166463D01*
X160068609Y-95166462D01*
X159950000Y-95147676D01*
X159831390Y-95166462D01*
X159831385Y-95166463D01*
X159724394Y-95220978D01*
X159639476Y-95305896D01*
X159584961Y-95412887D01*
X159584960Y-95412892D01*
X159566174Y-95531502D01*
X132000500Y-95531502D01*
X132000500Y-92200000D01*
X147803674Y-92200000D01*
X147822460Y-92318609D01*
X147822461Y-92318614D01*
X147876976Y-92425605D01*
X147961894Y-92510523D01*
X148068885Y-92565038D01*
X148068888Y-92565038D01*
X148068891Y-92565040D01*
X148187500Y-92583826D01*
X148306109Y-92565040D01*
X148306112Y-92565038D01*
X148306114Y-92565038D01*
X148413105Y-92510523D01*
X148413104Y-92510523D01*
X148413107Y-92510522D01*
X148498022Y-92425607D01*
X148501588Y-92418609D01*
X148552538Y-92318614D01*
X148552538Y-92318612D01*
X148552540Y-92318609D01*
X148555487Y-92300000D01*
X155766174Y-92300000D01*
X155784960Y-92418609D01*
X155784961Y-92418614D01*
X155839476Y-92525605D01*
X155924394Y-92610523D01*
X156031385Y-92665038D01*
X156031388Y-92665038D01*
X156031391Y-92665040D01*
X156150000Y-92683826D01*
X156268609Y-92665040D01*
X156268612Y-92665038D01*
X156268614Y-92665038D01*
X156375605Y-92610523D01*
X156375604Y-92610523D01*
X156375607Y-92610522D01*
X156460522Y-92525607D01*
X156468208Y-92510522D01*
X156515038Y-92418614D01*
X156515038Y-92418612D01*
X156515040Y-92418609D01*
X156533826Y-92300000D01*
X156515040Y-92181391D01*
X156515038Y-92181388D01*
X156515038Y-92181385D01*
X156460523Y-92074394D01*
X156375605Y-91989476D01*
X156268614Y-91934961D01*
X156268609Y-91934960D01*
X156150000Y-91916174D01*
X156031390Y-91934960D01*
X156031385Y-91934961D01*
X155924394Y-91989476D01*
X155839476Y-92074394D01*
X155784961Y-92181385D01*
X155784960Y-92181390D01*
X155766174Y-92300000D01*
X148555487Y-92300000D01*
X148571326Y-92200000D01*
X148552540Y-92081391D01*
X148552538Y-92081388D01*
X148552538Y-92081385D01*
X148498023Y-91974394D01*
X148413105Y-91889476D01*
X148306114Y-91834961D01*
X148306109Y-91834960D01*
X148187500Y-91816174D01*
X148068890Y-91834960D01*
X148068885Y-91834961D01*
X147961894Y-91889476D01*
X147876976Y-91974394D01*
X147822461Y-92081385D01*
X147822460Y-92081390D01*
X147803674Y-92200000D01*
X132000500Y-92200000D01*
X132000500Y-91550000D01*
X150166174Y-91550000D01*
X150184960Y-91668609D01*
X150184961Y-91668614D01*
X150239476Y-91775605D01*
X150324394Y-91860523D01*
X150431385Y-91915038D01*
X150431388Y-91915038D01*
X150431391Y-91915040D01*
X150550000Y-91933826D01*
X150668609Y-91915040D01*
X150668612Y-91915038D01*
X150668614Y-91915038D01*
X150775605Y-91860523D01*
X150775604Y-91860523D01*
X150775607Y-91860522D01*
X150860522Y-91775607D01*
X150862355Y-91772008D01*
X150915038Y-91668614D01*
X150915038Y-91668612D01*
X150915040Y-91668609D01*
X150933826Y-91550000D01*
X150915040Y-91431391D01*
X150915038Y-91431388D01*
X150915038Y-91431385D01*
X150860523Y-91324394D01*
X150775605Y-91239476D01*
X150668614Y-91184961D01*
X150668609Y-91184960D01*
X150550000Y-91166174D01*
X150431390Y-91184960D01*
X150431385Y-91184961D01*
X150324394Y-91239476D01*
X150239476Y-91324394D01*
X150184961Y-91431385D01*
X150184960Y-91431390D01*
X150166174Y-91550000D01*
X132000500Y-91550000D01*
X132000500Y-87685180D01*
X132299500Y-87685180D01*
X132299500Y-89714819D01*
X132308233Y-89758722D01*
X132322659Y-89780313D01*
X132341496Y-89808504D01*
X132391278Y-89841767D01*
X132435180Y-89850500D01*
X132435181Y-89850500D01*
X134464819Y-89850500D01*
X134464820Y-89850500D01*
X134508722Y-89841767D01*
X134558504Y-89808504D01*
X134591767Y-89758722D01*
X134600500Y-89714820D01*
X134600500Y-89100000D01*
X138616174Y-89100000D01*
X138634960Y-89218609D01*
X138634961Y-89218614D01*
X138689476Y-89325605D01*
X138774394Y-89410523D01*
X138881385Y-89465038D01*
X138881388Y-89465038D01*
X138881391Y-89465040D01*
X139000000Y-89483826D01*
X139118609Y-89465040D01*
X139118612Y-89465038D01*
X139118614Y-89465038D01*
X139225605Y-89410523D01*
X139225604Y-89410523D01*
X139225607Y-89410522D01*
X139310522Y-89325607D01*
X139325430Y-89296349D01*
X141612523Y-89296349D01*
X141631309Y-89414958D01*
X141631310Y-89414963D01*
X141685825Y-89521954D01*
X141770743Y-89606872D01*
X141877734Y-89661387D01*
X141877737Y-89661387D01*
X141877740Y-89661389D01*
X141996349Y-89680175D01*
X142114958Y-89661389D01*
X142114961Y-89661387D01*
X142114963Y-89661387D01*
X142221953Y-89606873D01*
X142221953Y-89606872D01*
X142221956Y-89606871D01*
X142254588Y-89574238D01*
X142306913Y-89552564D01*
X142359239Y-89574237D01*
X142372849Y-89592970D01*
X142389477Y-89625606D01*
X142474394Y-89710523D01*
X142581385Y-89765038D01*
X142581388Y-89765038D01*
X142581391Y-89765040D01*
X142677821Y-89780313D01*
X142726112Y-89809906D01*
X142739334Y-89864978D01*
X142736625Y-89876263D01*
X142734960Y-89881386D01*
X142716174Y-90000000D01*
X142734960Y-90118609D01*
X142734961Y-90118614D01*
X142789476Y-90225605D01*
X142874394Y-90310523D01*
X142981385Y-90365038D01*
X142981388Y-90365038D01*
X142981391Y-90365040D01*
X143100000Y-90383826D01*
X143218609Y-90365040D01*
X143218612Y-90365038D01*
X143218614Y-90365038D01*
X143325605Y-90310523D01*
X143325604Y-90310523D01*
X143325607Y-90310522D01*
X143410522Y-90225607D01*
X143412355Y-90222008D01*
X143465038Y-90118614D01*
X143465038Y-90118612D01*
X143465040Y-90118609D01*
X143483826Y-90000000D01*
X143465040Y-89881391D01*
X143465038Y-89881388D01*
X143465038Y-89881385D01*
X143410523Y-89774394D01*
X143325605Y-89689476D01*
X143218614Y-89634961D01*
X143218610Y-89634960D01*
X143122177Y-89619686D01*
X143073886Y-89590093D01*
X143060665Y-89535020D01*
X143063377Y-89523728D01*
X143065039Y-89518611D01*
X143065039Y-89518610D01*
X143065040Y-89518609D01*
X143083826Y-89400000D01*
X143065040Y-89281391D01*
X143065038Y-89281388D01*
X143065038Y-89281385D01*
X143023570Y-89200000D01*
X147516174Y-89200000D01*
X147534960Y-89318609D01*
X147534961Y-89318614D01*
X147589476Y-89425605D01*
X147674394Y-89510523D01*
X147781385Y-89565038D01*
X147781388Y-89565038D01*
X147781391Y-89565040D01*
X147900000Y-89583826D01*
X147944556Y-89576769D01*
X151939405Y-89576769D01*
X151958191Y-89695378D01*
X151958192Y-89695383D01*
X152012707Y-89802374D01*
X152097625Y-89887292D01*
X152204616Y-89941807D01*
X152204619Y-89941807D01*
X152204622Y-89941809D01*
X152323231Y-89960595D01*
X152441840Y-89941809D01*
X152441843Y-89941807D01*
X152441845Y-89941807D01*
X152548836Y-89887292D01*
X152548835Y-89887292D01*
X152548838Y-89887291D01*
X152633753Y-89802376D01*
X152644995Y-89780313D01*
X152685917Y-89700000D01*
X153816174Y-89700000D01*
X153834960Y-89818609D01*
X153834961Y-89818614D01*
X153889476Y-89925605D01*
X153974394Y-90010523D01*
X154081385Y-90065038D01*
X154081388Y-90065038D01*
X154081391Y-90065040D01*
X154200000Y-90083826D01*
X154318609Y-90065040D01*
X154318612Y-90065038D01*
X154318614Y-90065038D01*
X154425605Y-90010523D01*
X154425604Y-90010523D01*
X154425607Y-90010522D01*
X154510522Y-89925607D01*
X154512355Y-89922008D01*
X154565038Y-89818614D01*
X154565038Y-89818612D01*
X154565040Y-89818609D01*
X154583826Y-89700000D01*
X154565040Y-89581391D01*
X154565038Y-89581388D01*
X154565038Y-89581385D01*
X154510523Y-89474394D01*
X154425605Y-89389476D01*
X154318614Y-89334961D01*
X154318609Y-89334960D01*
X154200000Y-89316174D01*
X154081390Y-89334960D01*
X154081385Y-89334961D01*
X153974394Y-89389476D01*
X153889476Y-89474394D01*
X153834961Y-89581385D01*
X153834960Y-89581390D01*
X153816174Y-89700000D01*
X152685917Y-89700000D01*
X152688269Y-89695383D01*
X152688269Y-89695381D01*
X152688271Y-89695378D01*
X152707057Y-89576769D01*
X152688271Y-89458160D01*
X152688269Y-89458157D01*
X152688269Y-89458154D01*
X152633754Y-89351163D01*
X152548836Y-89266245D01*
X152441845Y-89211730D01*
X152441840Y-89211729D01*
X152323231Y-89192943D01*
X152204621Y-89211729D01*
X152204616Y-89211730D01*
X152097625Y-89266245D01*
X152012707Y-89351163D01*
X151958192Y-89458154D01*
X151958191Y-89458159D01*
X151939405Y-89576769D01*
X147944556Y-89576769D01*
X148018609Y-89565040D01*
X148018612Y-89565038D01*
X148018614Y-89565038D01*
X148125605Y-89510523D01*
X148125604Y-89510523D01*
X148125607Y-89510522D01*
X148210522Y-89425607D01*
X148248453Y-89351163D01*
X148265038Y-89318614D01*
X148265038Y-89318612D01*
X148265040Y-89318609D01*
X148283826Y-89200000D01*
X148265040Y-89081391D01*
X148265038Y-89081388D01*
X148265038Y-89081385D01*
X148210523Y-88974394D01*
X148125605Y-88889476D01*
X148018614Y-88834961D01*
X148018609Y-88834960D01*
X147900000Y-88816174D01*
X147781390Y-88834960D01*
X147781385Y-88834961D01*
X147674394Y-88889476D01*
X147589476Y-88974394D01*
X147534961Y-89081385D01*
X147534960Y-89081390D01*
X147516174Y-89200000D01*
X143023570Y-89200000D01*
X143010523Y-89174394D01*
X142925605Y-89089476D01*
X142818614Y-89034961D01*
X142818609Y-89034960D01*
X142700000Y-89016174D01*
X142581390Y-89034960D01*
X142581385Y-89034961D01*
X142474394Y-89089476D01*
X142441760Y-89122110D01*
X142389434Y-89143783D01*
X142337108Y-89122108D01*
X142323501Y-89103379D01*
X142306871Y-89070742D01*
X142221954Y-88985825D01*
X142114963Y-88931310D01*
X142114958Y-88931309D01*
X141996349Y-88912523D01*
X141877739Y-88931309D01*
X141877734Y-88931310D01*
X141770743Y-88985825D01*
X141685825Y-89070743D01*
X141631310Y-89177734D01*
X141631309Y-89177739D01*
X141612523Y-89296349D01*
X139325430Y-89296349D01*
X139333054Y-89281385D01*
X139365038Y-89218614D01*
X139365038Y-89218612D01*
X139365040Y-89218609D01*
X139383826Y-89100000D01*
X139365040Y-88981391D01*
X139365038Y-88981388D01*
X139365038Y-88981385D01*
X139310523Y-88874394D01*
X139225605Y-88789476D01*
X139118614Y-88734961D01*
X139118609Y-88734960D01*
X139000000Y-88716174D01*
X138881390Y-88734960D01*
X138881385Y-88734961D01*
X138774394Y-88789476D01*
X138689476Y-88874394D01*
X138634961Y-88981385D01*
X138634960Y-88981390D01*
X138616174Y-89100000D01*
X134600500Y-89100000D01*
X134600500Y-87800000D01*
X151916174Y-87800000D01*
X151934960Y-87918609D01*
X151934961Y-87918614D01*
X151989476Y-88025605D01*
X152074394Y-88110523D01*
X152181385Y-88165038D01*
X152181388Y-88165038D01*
X152181391Y-88165040D01*
X152300000Y-88183826D01*
X152418609Y-88165040D01*
X152418612Y-88165038D01*
X152418614Y-88165038D01*
X152525605Y-88110523D01*
X152525604Y-88110523D01*
X152525607Y-88110522D01*
X152610522Y-88025607D01*
X152612355Y-88022008D01*
X152665038Y-87918614D01*
X152665038Y-87918612D01*
X152665040Y-87918609D01*
X152683826Y-87800000D01*
X152665040Y-87681391D01*
X152665038Y-87681388D01*
X152665038Y-87681385D01*
X152610523Y-87574394D01*
X152525605Y-87489476D01*
X152418614Y-87434961D01*
X152418609Y-87434960D01*
X152300000Y-87416174D01*
X152181390Y-87434960D01*
X152181385Y-87434961D01*
X152074394Y-87489476D01*
X151989476Y-87574394D01*
X151934961Y-87681385D01*
X151934960Y-87681390D01*
X151916174Y-87800000D01*
X134600500Y-87800000D01*
X134600500Y-87685180D01*
X134591767Y-87641278D01*
X134558504Y-87591496D01*
X134532907Y-87574393D01*
X134508722Y-87558233D01*
X134464820Y-87549500D01*
X132435180Y-87549500D01*
X132413229Y-87553866D01*
X132391277Y-87558233D01*
X132341496Y-87591495D01*
X132341495Y-87591496D01*
X132308233Y-87641277D01*
X132299500Y-87685180D01*
X132000500Y-87685180D01*
X132000500Y-87000000D01*
X138616174Y-87000000D01*
X138634960Y-87118609D01*
X138634961Y-87118614D01*
X138689476Y-87225605D01*
X138774394Y-87310523D01*
X138881385Y-87365038D01*
X138881388Y-87365038D01*
X138881391Y-87365040D01*
X139000000Y-87383826D01*
X139118609Y-87365040D01*
X139118612Y-87365038D01*
X139118614Y-87365038D01*
X139225605Y-87310523D01*
X139225604Y-87310523D01*
X139225607Y-87310522D01*
X139310522Y-87225607D01*
X139312355Y-87222008D01*
X139365038Y-87118614D01*
X139365038Y-87118612D01*
X139365040Y-87118609D01*
X139383826Y-87000000D01*
X139365040Y-86881391D01*
X139365038Y-86881388D01*
X139365038Y-86881385D01*
X139310523Y-86774394D01*
X139225605Y-86689476D01*
X139118614Y-86634961D01*
X139118609Y-86634960D01*
X139000000Y-86616174D01*
X138881390Y-86634960D01*
X138881385Y-86634961D01*
X138774394Y-86689476D01*
X138689476Y-86774394D01*
X138634961Y-86881385D01*
X138634960Y-86881390D01*
X138616174Y-87000000D01*
X132000500Y-87000000D01*
X132000500Y-86500000D01*
X137816174Y-86500000D01*
X137834960Y-86618609D01*
X137834961Y-86618614D01*
X137889476Y-86725605D01*
X137974394Y-86810523D01*
X138081385Y-86865038D01*
X138081388Y-86865038D01*
X138081391Y-86865040D01*
X138200000Y-86883826D01*
X138318609Y-86865040D01*
X138318612Y-86865038D01*
X138318614Y-86865038D01*
X138425605Y-86810523D01*
X138425604Y-86810523D01*
X138425607Y-86810522D01*
X138510522Y-86725607D01*
X138528932Y-86689476D01*
X138565038Y-86618614D01*
X138565038Y-86618612D01*
X138565040Y-86618609D01*
X138583826Y-86500000D01*
X138565040Y-86381391D01*
X138565038Y-86381388D01*
X138565038Y-86381385D01*
X138523570Y-86300000D01*
X142616174Y-86300000D01*
X142634960Y-86418609D01*
X142634961Y-86418614D01*
X142689476Y-86525605D01*
X142774394Y-86610523D01*
X142881385Y-86665038D01*
X142881388Y-86665038D01*
X142881391Y-86665040D01*
X143000000Y-86683826D01*
X143118609Y-86665040D01*
X143118612Y-86665038D01*
X143118614Y-86665038D01*
X143225605Y-86610523D01*
X143225604Y-86610523D01*
X143225607Y-86610522D01*
X143310522Y-86525607D01*
X143323569Y-86500000D01*
X143365038Y-86418614D01*
X143365038Y-86418612D01*
X143365040Y-86418609D01*
X143383826Y-86300000D01*
X143367987Y-86200000D01*
X151916174Y-86200000D01*
X151934960Y-86318609D01*
X151934961Y-86318614D01*
X151989476Y-86425605D01*
X152074394Y-86510523D01*
X152181385Y-86565038D01*
X152181388Y-86565038D01*
X152181391Y-86565040D01*
X152300000Y-86583826D01*
X152418609Y-86565040D01*
X152418612Y-86565038D01*
X152418614Y-86565038D01*
X152525605Y-86510523D01*
X152525604Y-86510523D01*
X152525607Y-86510522D01*
X152610522Y-86425607D01*
X152633054Y-86381385D01*
X152665038Y-86318614D01*
X152665038Y-86318612D01*
X152665040Y-86318609D01*
X152683826Y-86200000D01*
X152665040Y-86081391D01*
X152665038Y-86081388D01*
X152665038Y-86081385D01*
X152610523Y-85974394D01*
X152525605Y-85889476D01*
X152418614Y-85834961D01*
X152418609Y-85834960D01*
X152300000Y-85816174D01*
X152181390Y-85834960D01*
X152181385Y-85834961D01*
X152074394Y-85889476D01*
X151989476Y-85974394D01*
X151934961Y-86081385D01*
X151934960Y-86081390D01*
X151916174Y-86200000D01*
X143367987Y-86200000D01*
X143365040Y-86181391D01*
X143365038Y-86181388D01*
X143365038Y-86181385D01*
X143310523Y-86074394D01*
X143225605Y-85989476D01*
X143118614Y-85934961D01*
X143118609Y-85934960D01*
X143000000Y-85916174D01*
X142881390Y-85934960D01*
X142881385Y-85934961D01*
X142774394Y-85989476D01*
X142689476Y-86074394D01*
X142634961Y-86181385D01*
X142634960Y-86181390D01*
X142616174Y-86300000D01*
X138523570Y-86300000D01*
X138510523Y-86274394D01*
X138425605Y-86189476D01*
X138318614Y-86134961D01*
X138318609Y-86134960D01*
X138200000Y-86116174D01*
X138081390Y-86134960D01*
X138081385Y-86134961D01*
X137974394Y-86189476D01*
X137889476Y-86274394D01*
X137834961Y-86381385D01*
X137834960Y-86381390D01*
X137816174Y-86500000D01*
X132000500Y-86500000D01*
X132000500Y-85400000D01*
X140616174Y-85400000D01*
X140634960Y-85518609D01*
X140634961Y-85518614D01*
X140689476Y-85625605D01*
X140774394Y-85710523D01*
X140881385Y-85765038D01*
X140881388Y-85765038D01*
X140881391Y-85765040D01*
X141000000Y-85783826D01*
X141118609Y-85765040D01*
X141127668Y-85760423D01*
X141184128Y-85755978D01*
X141227197Y-85792759D01*
X141234352Y-85814777D01*
X141234957Y-85818601D01*
X141234959Y-85818606D01*
X141234959Y-85818607D01*
X141234960Y-85818609D01*
X141281792Y-85910522D01*
X141289478Y-85925607D01*
X141374394Y-86010523D01*
X141481385Y-86065038D01*
X141481388Y-86065038D01*
X141481391Y-86065040D01*
X141600000Y-86083826D01*
X141718609Y-86065040D01*
X141718612Y-86065038D01*
X141718614Y-86065038D01*
X141825605Y-86010523D01*
X141825604Y-86010523D01*
X141825607Y-86010522D01*
X141910522Y-85925607D01*
X141928932Y-85889476D01*
X141965038Y-85818614D01*
X141965038Y-85818612D01*
X141965040Y-85818609D01*
X141983826Y-85700000D01*
X141965040Y-85581391D01*
X141965038Y-85581388D01*
X141965038Y-85581385D01*
X141910523Y-85474394D01*
X141825605Y-85389476D01*
X141718614Y-85334961D01*
X141718609Y-85334960D01*
X141600000Y-85316174D01*
X141481390Y-85334960D01*
X141481389Y-85334960D01*
X141472328Y-85339577D01*
X141415865Y-85344018D01*
X141372799Y-85307234D01*
X141365646Y-85285217D01*
X141365623Y-85285077D01*
X141365040Y-85281391D01*
X141365038Y-85281388D01*
X141365038Y-85281385D01*
X141310523Y-85174394D01*
X141225605Y-85089476D01*
X141118614Y-85034961D01*
X141118609Y-85034960D01*
X141000000Y-85016174D01*
X140881390Y-85034960D01*
X140881385Y-85034961D01*
X140774394Y-85089476D01*
X140689476Y-85174394D01*
X140634961Y-85281385D01*
X140634960Y-85281390D01*
X140616174Y-85400000D01*
X132000500Y-85400000D01*
X132000500Y-84900000D01*
X139416174Y-84900000D01*
X139434960Y-85018609D01*
X139434961Y-85018614D01*
X139489476Y-85125605D01*
X139574394Y-85210523D01*
X139681385Y-85265038D01*
X139681388Y-85265038D01*
X139681391Y-85265040D01*
X139800000Y-85283826D01*
X139918609Y-85265040D01*
X139918612Y-85265038D01*
X139918614Y-85265038D01*
X140025605Y-85210523D01*
X140025604Y-85210523D01*
X140025607Y-85210522D01*
X140110522Y-85125607D01*
X140136617Y-85074393D01*
X140165038Y-85018614D01*
X140165038Y-85018612D01*
X140165040Y-85018609D01*
X140175907Y-84949998D01*
X147816174Y-84949998D01*
X147834960Y-85068607D01*
X147834961Y-85068612D01*
X147889476Y-85175603D01*
X147974394Y-85260521D01*
X148081385Y-85315036D01*
X148081388Y-85315036D01*
X148081391Y-85315038D01*
X148200000Y-85333824D01*
X148318609Y-85315038D01*
X148318612Y-85315036D01*
X148318614Y-85315036D01*
X148348124Y-85300000D01*
X151766174Y-85300000D01*
X151784960Y-85418609D01*
X151784961Y-85418614D01*
X151839476Y-85525605D01*
X151924394Y-85610523D01*
X152031385Y-85665038D01*
X152031388Y-85665038D01*
X152031391Y-85665040D01*
X152150000Y-85683826D01*
X152268609Y-85665040D01*
X152268612Y-85665038D01*
X152268614Y-85665038D01*
X152375605Y-85610523D01*
X152375604Y-85610523D01*
X152375607Y-85610522D01*
X152386129Y-85600000D01*
X160816174Y-85600000D01*
X160834960Y-85718609D01*
X160834961Y-85718614D01*
X160889476Y-85825605D01*
X160974394Y-85910523D01*
X161081385Y-85965038D01*
X161081388Y-85965038D01*
X161081391Y-85965040D01*
X161200000Y-85983826D01*
X161318609Y-85965040D01*
X161318612Y-85965038D01*
X161318614Y-85965038D01*
X161425605Y-85910523D01*
X161425604Y-85910523D01*
X161425607Y-85910522D01*
X161510522Y-85825607D01*
X161527259Y-85792759D01*
X161565038Y-85718614D01*
X161565038Y-85718612D01*
X161565040Y-85718609D01*
X161583826Y-85600000D01*
X161565040Y-85481391D01*
X161565038Y-85481388D01*
X161565038Y-85481385D01*
X161510523Y-85374394D01*
X161425605Y-85289476D01*
X161318614Y-85234961D01*
X161318609Y-85234960D01*
X161200000Y-85216174D01*
X161081390Y-85234960D01*
X161081385Y-85234961D01*
X160974394Y-85289476D01*
X160889476Y-85374394D01*
X160834961Y-85481385D01*
X160834960Y-85481390D01*
X160816174Y-85600000D01*
X152386129Y-85600000D01*
X152460522Y-85525607D01*
X152486617Y-85474393D01*
X152515038Y-85418614D01*
X152515038Y-85418612D01*
X152515040Y-85418609D01*
X152533826Y-85300000D01*
X152515040Y-85181391D01*
X152515038Y-85181388D01*
X152515038Y-85181385D01*
X152460523Y-85074394D01*
X152375605Y-84989476D01*
X152268614Y-84934961D01*
X152268609Y-84934960D01*
X152150000Y-84916174D01*
X152031390Y-84934960D01*
X152031385Y-84934961D01*
X151924394Y-84989476D01*
X151839476Y-85074394D01*
X151784961Y-85181385D01*
X151784960Y-85181390D01*
X151766174Y-85300000D01*
X148348124Y-85300000D01*
X148425605Y-85260521D01*
X148425604Y-85260521D01*
X148425607Y-85260520D01*
X148510522Y-85175605D01*
X148554407Y-85089476D01*
X148565038Y-85068612D01*
X148565038Y-85068610D01*
X148565040Y-85068607D01*
X148583826Y-84949998D01*
X148565040Y-84831389D01*
X148565038Y-84831386D01*
X148565038Y-84831383D01*
X148510523Y-84724392D01*
X148425605Y-84639474D01*
X148318614Y-84584959D01*
X148318609Y-84584958D01*
X148200000Y-84566172D01*
X148081390Y-84584958D01*
X148081385Y-84584959D01*
X147974394Y-84639474D01*
X147889476Y-84724392D01*
X147834961Y-84831383D01*
X147834960Y-84831388D01*
X147816174Y-84949998D01*
X140175907Y-84949998D01*
X140183826Y-84900000D01*
X140165040Y-84781391D01*
X140165038Y-84781388D01*
X140165038Y-84781385D01*
X140110523Y-84674394D01*
X140025605Y-84589476D01*
X139918614Y-84534961D01*
X139918609Y-84534960D01*
X139800000Y-84516174D01*
X139681390Y-84534960D01*
X139681385Y-84534961D01*
X139574394Y-84589476D01*
X139489476Y-84674394D01*
X139434961Y-84781385D01*
X139434960Y-84781390D01*
X139416174Y-84900000D01*
X132000500Y-84900000D01*
X132000500Y-83600000D01*
X137616174Y-83600000D01*
X137634960Y-83718609D01*
X137634961Y-83718614D01*
X137689476Y-83825605D01*
X137774394Y-83910523D01*
X137881385Y-83965038D01*
X137881388Y-83965038D01*
X137881391Y-83965040D01*
X138000000Y-83983826D01*
X138118609Y-83965040D01*
X138118612Y-83965038D01*
X138118614Y-83965038D01*
X138225605Y-83910523D01*
X138225604Y-83910523D01*
X138225607Y-83910522D01*
X138236129Y-83900000D01*
X138966174Y-83900000D01*
X138984960Y-84018609D01*
X138984961Y-84018614D01*
X139039476Y-84125605D01*
X139124394Y-84210523D01*
X139231385Y-84265038D01*
X139231388Y-84265038D01*
X139231391Y-84265040D01*
X139350000Y-84283826D01*
X139468609Y-84265040D01*
X139468612Y-84265038D01*
X139468614Y-84265038D01*
X139575605Y-84210523D01*
X139575604Y-84210523D01*
X139575607Y-84210522D01*
X139660522Y-84125607D01*
X139662355Y-84122008D01*
X139715038Y-84018614D01*
X139715038Y-84018612D01*
X139715040Y-84018609D01*
X139733826Y-83900000D01*
X139715040Y-83781391D01*
X139715038Y-83781388D01*
X139715038Y-83781385D01*
X139660523Y-83674394D01*
X139575605Y-83589476D01*
X139468614Y-83534961D01*
X139468609Y-83534960D01*
X139350000Y-83516174D01*
X139231390Y-83534960D01*
X139231385Y-83534961D01*
X139124394Y-83589476D01*
X139039476Y-83674394D01*
X138984961Y-83781385D01*
X138984960Y-83781390D01*
X138966174Y-83900000D01*
X138236129Y-83900000D01*
X138310522Y-83825607D01*
X138333054Y-83781385D01*
X138365038Y-83718614D01*
X138365038Y-83718612D01*
X138365040Y-83718609D01*
X138383826Y-83600000D01*
X138365040Y-83481391D01*
X138365038Y-83481388D01*
X138365038Y-83481385D01*
X138310523Y-83374394D01*
X138225605Y-83289476D01*
X138118614Y-83234961D01*
X138118609Y-83234960D01*
X138000000Y-83216174D01*
X137881390Y-83234960D01*
X137881385Y-83234961D01*
X137774394Y-83289476D01*
X137689476Y-83374394D01*
X137634961Y-83481385D01*
X137634960Y-83481390D01*
X137616174Y-83600000D01*
X132000500Y-83600000D01*
X132000500Y-82400000D01*
X137666174Y-82400000D01*
X137684960Y-82518609D01*
X137684961Y-82518614D01*
X137739476Y-82625605D01*
X137824394Y-82710523D01*
X137931385Y-82765038D01*
X137931388Y-82765038D01*
X137931391Y-82765040D01*
X138050000Y-82783826D01*
X138168609Y-82765040D01*
X138168612Y-82765038D01*
X138168614Y-82765038D01*
X138275605Y-82710523D01*
X138275604Y-82710523D01*
X138275607Y-82710522D01*
X138360522Y-82625607D01*
X138362355Y-82622008D01*
X138415038Y-82518614D01*
X138415038Y-82518612D01*
X138415040Y-82518609D01*
X138433826Y-82400000D01*
X138415040Y-82281391D01*
X138415038Y-82281388D01*
X138415038Y-82281385D01*
X138360523Y-82174394D01*
X138275605Y-82089476D01*
X138168614Y-82034961D01*
X138168609Y-82034960D01*
X138050000Y-82016174D01*
X137931390Y-82034960D01*
X137931385Y-82034961D01*
X137824394Y-82089476D01*
X137739476Y-82174394D01*
X137684961Y-82281385D01*
X137684960Y-82281390D01*
X137666174Y-82400000D01*
X132000500Y-82400000D01*
X132000500Y-81937500D01*
X146878674Y-81937500D01*
X146897460Y-82056109D01*
X146897461Y-82056114D01*
X146951976Y-82163105D01*
X147036894Y-82248023D01*
X147143885Y-82302538D01*
X147143888Y-82302538D01*
X147143891Y-82302540D01*
X147262500Y-82321326D01*
X147381109Y-82302540D01*
X147381112Y-82302538D01*
X147381114Y-82302538D01*
X147488105Y-82248023D01*
X147488104Y-82248023D01*
X147488107Y-82248022D01*
X147573022Y-82163107D01*
X147610539Y-82089476D01*
X147627538Y-82056114D01*
X147627538Y-82056112D01*
X147627540Y-82056109D01*
X147646326Y-81937500D01*
X147627540Y-81818891D01*
X147627538Y-81818888D01*
X147627538Y-81818885D01*
X147573023Y-81711894D01*
X147488105Y-81626976D01*
X147381114Y-81572461D01*
X147381109Y-81572460D01*
X147262500Y-81553674D01*
X147143890Y-81572460D01*
X147143885Y-81572461D01*
X147036894Y-81626976D01*
X146951976Y-81711894D01*
X146897461Y-81818885D01*
X146897460Y-81818890D01*
X146878674Y-81937500D01*
X132000500Y-81937500D01*
X132000500Y-77145519D01*
X157920655Y-77145519D01*
X157939441Y-77264128D01*
X157939442Y-77264133D01*
X157993957Y-77371124D01*
X158078875Y-77456042D01*
X158185866Y-77510557D01*
X158185869Y-77510557D01*
X158185872Y-77510559D01*
X158304481Y-77529345D01*
X158423090Y-77510559D01*
X158423093Y-77510557D01*
X158423095Y-77510557D01*
X158530086Y-77456042D01*
X158530085Y-77456042D01*
X158530088Y-77456041D01*
X158615003Y-77371126D01*
X158643581Y-77315038D01*
X158669519Y-77264133D01*
X158669519Y-77264131D01*
X158669521Y-77264128D01*
X158688307Y-77145519D01*
X158669521Y-77026910D01*
X158669519Y-77026907D01*
X158669519Y-77026904D01*
X158630334Y-76950000D01*
X159466174Y-76950000D01*
X159484960Y-77068609D01*
X159484961Y-77068614D01*
X159539476Y-77175605D01*
X159624394Y-77260523D01*
X159731385Y-77315038D01*
X159731388Y-77315038D01*
X159731391Y-77315040D01*
X159850000Y-77333826D01*
X159968609Y-77315040D01*
X159968612Y-77315038D01*
X159968614Y-77315038D01*
X160075605Y-77260523D01*
X160075604Y-77260523D01*
X160075607Y-77260522D01*
X160160522Y-77175607D01*
X160175853Y-77145519D01*
X160215038Y-77068614D01*
X160215038Y-77068612D01*
X160215040Y-77068609D01*
X160233826Y-76950000D01*
X160215040Y-76831391D01*
X160215038Y-76831388D01*
X160215038Y-76831385D01*
X160160523Y-76724394D01*
X160075605Y-76639476D01*
X159968614Y-76584961D01*
X159968609Y-76584960D01*
X159850000Y-76566174D01*
X159731390Y-76584960D01*
X159731385Y-76584961D01*
X159624394Y-76639476D01*
X159539476Y-76724394D01*
X159484961Y-76831385D01*
X159484960Y-76831390D01*
X159466174Y-76950000D01*
X158630334Y-76950000D01*
X158615004Y-76919913D01*
X158530086Y-76834995D01*
X158423095Y-76780480D01*
X158423090Y-76780479D01*
X158304481Y-76761693D01*
X158185871Y-76780479D01*
X158185866Y-76780480D01*
X158078875Y-76834995D01*
X157993957Y-76919913D01*
X157939442Y-77026904D01*
X157939441Y-77026909D01*
X157920655Y-77145519D01*
X132000500Y-77145519D01*
X132000500Y-76200000D01*
X160016174Y-76200000D01*
X160034960Y-76318609D01*
X160034961Y-76318614D01*
X160089476Y-76425605D01*
X160174394Y-76510523D01*
X160281385Y-76565038D01*
X160281388Y-76565038D01*
X160281391Y-76565040D01*
X160400000Y-76583826D01*
X160518609Y-76565040D01*
X160518612Y-76565038D01*
X160518614Y-76565038D01*
X160625605Y-76510523D01*
X160625604Y-76510523D01*
X160625607Y-76510522D01*
X160710522Y-76425607D01*
X160712355Y-76422008D01*
X160765038Y-76318614D01*
X160765038Y-76318612D01*
X160765040Y-76318609D01*
X160783826Y-76200000D01*
X160765040Y-76081391D01*
X160765038Y-76081388D01*
X160765038Y-76081385D01*
X160710523Y-75974394D01*
X160625605Y-75889476D01*
X160518614Y-75834961D01*
X160518609Y-75834960D01*
X160400000Y-75816174D01*
X160281390Y-75834960D01*
X160281385Y-75834961D01*
X160174394Y-75889476D01*
X160089476Y-75974394D01*
X160034961Y-76081385D01*
X160034960Y-76081390D01*
X160016174Y-76200000D01*
X132000500Y-76200000D01*
X132000500Y-71950000D01*
X153966174Y-71950000D01*
X153984960Y-72068609D01*
X153984961Y-72068614D01*
X154039476Y-72175605D01*
X154124394Y-72260523D01*
X154231385Y-72315038D01*
X154231388Y-72315038D01*
X154231391Y-72315040D01*
X154350000Y-72333826D01*
X154468609Y-72315040D01*
X154468612Y-72315038D01*
X154468614Y-72315038D01*
X154575605Y-72260523D01*
X154575604Y-72260523D01*
X154575607Y-72260522D01*
X154660522Y-72175607D01*
X154662355Y-72172008D01*
X154715038Y-72068614D01*
X154715038Y-72068612D01*
X154715040Y-72068609D01*
X154733826Y-71950000D01*
X154715040Y-71831391D01*
X154715038Y-71831388D01*
X154715038Y-71831385D01*
X154660523Y-71724394D01*
X154575605Y-71639476D01*
X154468614Y-71584961D01*
X154468609Y-71584960D01*
X154350000Y-71566174D01*
X154231390Y-71584960D01*
X154231385Y-71584961D01*
X154124394Y-71639476D01*
X154039476Y-71724394D01*
X153984961Y-71831385D01*
X153984960Y-71831390D01*
X153966174Y-71950000D01*
X132000500Y-71950000D01*
X132000500Y-63883716D01*
X133522500Y-63883716D01*
X133522500Y-64116283D01*
X133558880Y-64345979D01*
X133558883Y-64345992D01*
X133630745Y-64567160D01*
X133630747Y-64567164D01*
X133736327Y-64774378D01*
X133736328Y-64774379D01*
X133873026Y-64962527D01*
X134037473Y-65126974D01*
X134037476Y-65126976D01*
X134037477Y-65126977D01*
X134225621Y-65263672D01*
X134432835Y-65369252D01*
X134432839Y-65369254D01*
X134654007Y-65441116D01*
X134654013Y-65441117D01*
X134654018Y-65441119D01*
X134768868Y-65459309D01*
X134883716Y-65477500D01*
X134883718Y-65477500D01*
X135116284Y-65477500D01*
X135208162Y-65462947D01*
X135345982Y-65441119D01*
X135345989Y-65441116D01*
X135345992Y-65441116D01*
X135567160Y-65369254D01*
X135567160Y-65369253D01*
X135567163Y-65369253D01*
X135774379Y-65263672D01*
X135962527Y-65126974D01*
X136126974Y-64962527D01*
X136263672Y-64774379D01*
X136369253Y-64567163D01*
X136441119Y-64345982D01*
X136477500Y-64116282D01*
X136477500Y-63883718D01*
X136477500Y-63883716D01*
X159522500Y-63883716D01*
X159522500Y-64116283D01*
X159558880Y-64345979D01*
X159558883Y-64345992D01*
X159630745Y-64567160D01*
X159630747Y-64567164D01*
X159736327Y-64774378D01*
X159736328Y-64774379D01*
X159873026Y-64962527D01*
X160037473Y-65126974D01*
X160037476Y-65126976D01*
X160037477Y-65126977D01*
X160225621Y-65263672D01*
X160432835Y-65369252D01*
X160432839Y-65369254D01*
X160654007Y-65441116D01*
X160654013Y-65441117D01*
X160654018Y-65441119D01*
X160768868Y-65459309D01*
X160883716Y-65477500D01*
X160883718Y-65477500D01*
X161116284Y-65477500D01*
X161208162Y-65462947D01*
X161345982Y-65441119D01*
X161345989Y-65441116D01*
X161345992Y-65441116D01*
X161567160Y-65369254D01*
X161567160Y-65369253D01*
X161567163Y-65369253D01*
X161774379Y-65263672D01*
X161962527Y-65126974D01*
X162126974Y-64962527D01*
X162263672Y-64774379D01*
X162369253Y-64567163D01*
X162441119Y-64345982D01*
X162477500Y-64116282D01*
X162477500Y-63883718D01*
X162441119Y-63654018D01*
X162441117Y-63654013D01*
X162441116Y-63654007D01*
X162369254Y-63432839D01*
X162369252Y-63432835D01*
X162263672Y-63225621D01*
X162126977Y-63037477D01*
X162126976Y-63037476D01*
X162126974Y-63037473D01*
X161962527Y-62873026D01*
X161962524Y-62873023D01*
X161962522Y-62873022D01*
X161774378Y-62736327D01*
X161567164Y-62630747D01*
X161567160Y-62630745D01*
X161345992Y-62558883D01*
X161345979Y-62558880D01*
X161116284Y-62522500D01*
X161116282Y-62522500D01*
X160883718Y-62522500D01*
X160883716Y-62522500D01*
X160654020Y-62558880D01*
X160654007Y-62558883D01*
X160432839Y-62630745D01*
X160432835Y-62630747D01*
X160225621Y-62736327D01*
X160037477Y-62873022D01*
X159873022Y-63037477D01*
X159736327Y-63225621D01*
X159630747Y-63432835D01*
X159630745Y-63432839D01*
X159558883Y-63654007D01*
X159558880Y-63654020D01*
X159522500Y-63883716D01*
X136477500Y-63883716D01*
X136441119Y-63654018D01*
X136441117Y-63654013D01*
X136441116Y-63654007D01*
X136369254Y-63432839D01*
X136369252Y-63432835D01*
X136263672Y-63225621D01*
X136126977Y-63037477D01*
X136126976Y-63037476D01*
X136126974Y-63037473D01*
X135962527Y-62873026D01*
X135962524Y-62873023D01*
X135962522Y-62873022D01*
X135774378Y-62736327D01*
X135567164Y-62630747D01*
X135567160Y-62630745D01*
X135345992Y-62558883D01*
X135345979Y-62558880D01*
X135116284Y-62522500D01*
X135116282Y-62522500D01*
X134883718Y-62522500D01*
X134883716Y-62522500D01*
X134654020Y-62558880D01*
X134654007Y-62558883D01*
X134432839Y-62630745D01*
X134432835Y-62630747D01*
X134225621Y-62736327D01*
X134037477Y-62873022D01*
X133873022Y-63037477D01*
X133736327Y-63225621D01*
X133630747Y-63432835D01*
X133630745Y-63432839D01*
X133558883Y-63654007D01*
X133558880Y-63654020D01*
X133522500Y-63883716D01*
X132000500Y-63883716D01*
X132000500Y-60974500D01*
X132022174Y-60922174D01*
X132074500Y-60900500D01*
X163925500Y-60900500D01*
X163977826Y-60922174D01*
G37*
%TD.AperFunction*%
%TD*%
M02*
