%TF.GenerationSoftware,KiCad,Pcbnew,8.0.7*%
%TF.CreationDate,2025-01-08T02:27:14-05:00*%
%TF.ProjectId,active-drag-system,61637469-7665-42d6-9472-61672d737973,rev?*%
%TF.SameCoordinates,Original*%
%TF.FileFunction,AssemblyDrawing,Bot*%
%FSLAX46Y46*%
G04 Gerber Fmt 4.6, Leading zero omitted, Abs format (unit mm)*
G04 Created by KiCad (PCBNEW 8.0.7) date 2025-01-08 02:27:14*
%MOMM*%
%LPD*%
G01*
G04 APERTURE LIST*
%ADD10C,0.150000*%
%ADD11C,0.100000*%
G04 APERTURE END LIST*
D10*
X155240475Y-97607200D02*
X155097618Y-97654819D01*
X155097618Y-97654819D02*
X154859523Y-97654819D01*
X154859523Y-97654819D02*
X154764285Y-97607200D01*
X154764285Y-97607200D02*
X154716666Y-97559580D01*
X154716666Y-97559580D02*
X154669047Y-97464342D01*
X154669047Y-97464342D02*
X154669047Y-97369104D01*
X154669047Y-97369104D02*
X154716666Y-97273866D01*
X154716666Y-97273866D02*
X154764285Y-97226247D01*
X154764285Y-97226247D02*
X154859523Y-97178628D01*
X154859523Y-97178628D02*
X155049999Y-97131009D01*
X155049999Y-97131009D02*
X155145237Y-97083390D01*
X155145237Y-97083390D02*
X155192856Y-97035771D01*
X155192856Y-97035771D02*
X155240475Y-96940533D01*
X155240475Y-96940533D02*
X155240475Y-96845295D01*
X155240475Y-96845295D02*
X155192856Y-96750057D01*
X155192856Y-96750057D02*
X155145237Y-96702438D01*
X155145237Y-96702438D02*
X155049999Y-96654819D01*
X155049999Y-96654819D02*
X154811904Y-96654819D01*
X154811904Y-96654819D02*
X154669047Y-96702438D01*
X154240475Y-97654819D02*
X154240475Y-96654819D01*
X154240475Y-96654819D02*
X154002380Y-96654819D01*
X154002380Y-96654819D02*
X153859523Y-96702438D01*
X153859523Y-96702438D02*
X153764285Y-96797676D01*
X153764285Y-96797676D02*
X153716666Y-96892914D01*
X153716666Y-96892914D02*
X153669047Y-97083390D01*
X153669047Y-97083390D02*
X153669047Y-97226247D01*
X153669047Y-97226247D02*
X153716666Y-97416723D01*
X153716666Y-97416723D02*
X153764285Y-97511961D01*
X153764285Y-97511961D02*
X153859523Y-97607200D01*
X153859523Y-97607200D02*
X154002380Y-97654819D01*
X154002380Y-97654819D02*
X154240475Y-97654819D01*
X153288094Y-97369104D02*
X152811904Y-97369104D01*
X153383332Y-97654819D02*
X153049999Y-96654819D01*
X153049999Y-96654819D02*
X152716666Y-97654819D01*
X152192856Y-96654819D02*
X152097618Y-96654819D01*
X152097618Y-96654819D02*
X152002380Y-96702438D01*
X152002380Y-96702438D02*
X151954761Y-96750057D01*
X151954761Y-96750057D02*
X151907142Y-96845295D01*
X151907142Y-96845295D02*
X151859523Y-97035771D01*
X151859523Y-97035771D02*
X151859523Y-97273866D01*
X151859523Y-97273866D02*
X151907142Y-97464342D01*
X151907142Y-97464342D02*
X151954761Y-97559580D01*
X151954761Y-97559580D02*
X152002380Y-97607200D01*
X152002380Y-97607200D02*
X152097618Y-97654819D01*
X152097618Y-97654819D02*
X152192856Y-97654819D01*
X152192856Y-97654819D02*
X152288094Y-97607200D01*
X152288094Y-97607200D02*
X152335713Y-97559580D01*
X152335713Y-97559580D02*
X152383332Y-97464342D01*
X152383332Y-97464342D02*
X152430951Y-97273866D01*
X152430951Y-97273866D02*
X152430951Y-97035771D01*
X152430951Y-97035771D02*
X152383332Y-96845295D01*
X152383332Y-96845295D02*
X152335713Y-96750057D01*
X152335713Y-96750057D02*
X152288094Y-96702438D01*
X152288094Y-96702438D02*
X152192856Y-96654819D01*
X154811904Y-93654819D02*
X154240476Y-93654819D01*
X154526190Y-94654819D02*
X154526190Y-93654819D01*
X153907142Y-94654819D02*
X153907142Y-93654819D01*
X153907142Y-93654819D02*
X153526190Y-93654819D01*
X153526190Y-93654819D02*
X153430952Y-93702438D01*
X153430952Y-93702438D02*
X153383333Y-93750057D01*
X153383333Y-93750057D02*
X153335714Y-93845295D01*
X153335714Y-93845295D02*
X153335714Y-93988152D01*
X153335714Y-93988152D02*
X153383333Y-94083390D01*
X153383333Y-94083390D02*
X153430952Y-94131009D01*
X153430952Y-94131009D02*
X153526190Y-94178628D01*
X153526190Y-94178628D02*
X153907142Y-94178628D01*
X153002380Y-93654819D02*
X152383333Y-93654819D01*
X152383333Y-93654819D02*
X152716666Y-94035771D01*
X152716666Y-94035771D02*
X152573809Y-94035771D01*
X152573809Y-94035771D02*
X152478571Y-94083390D01*
X152478571Y-94083390D02*
X152430952Y-94131009D01*
X152430952Y-94131009D02*
X152383333Y-94226247D01*
X152383333Y-94226247D02*
X152383333Y-94464342D01*
X152383333Y-94464342D02*
X152430952Y-94559580D01*
X152430952Y-94559580D02*
X152478571Y-94607200D01*
X152478571Y-94607200D02*
X152573809Y-94654819D01*
X152573809Y-94654819D02*
X152859523Y-94654819D01*
X152859523Y-94654819D02*
X152954761Y-94607200D01*
X152954761Y-94607200D02*
X153002380Y-94559580D01*
X161716666Y-95607200D02*
X161573809Y-95654819D01*
X161573809Y-95654819D02*
X161335714Y-95654819D01*
X161335714Y-95654819D02*
X161240476Y-95607200D01*
X161240476Y-95607200D02*
X161192857Y-95559580D01*
X161192857Y-95559580D02*
X161145238Y-95464342D01*
X161145238Y-95464342D02*
X161145238Y-95369104D01*
X161145238Y-95369104D02*
X161192857Y-95273866D01*
X161192857Y-95273866D02*
X161240476Y-95226247D01*
X161240476Y-95226247D02*
X161335714Y-95178628D01*
X161335714Y-95178628D02*
X161526190Y-95131009D01*
X161526190Y-95131009D02*
X161621428Y-95083390D01*
X161621428Y-95083390D02*
X161669047Y-95035771D01*
X161669047Y-95035771D02*
X161716666Y-94940533D01*
X161716666Y-94940533D02*
X161716666Y-94845295D01*
X161716666Y-94845295D02*
X161669047Y-94750057D01*
X161669047Y-94750057D02*
X161621428Y-94702438D01*
X161621428Y-94702438D02*
X161526190Y-94654819D01*
X161526190Y-94654819D02*
X161288095Y-94654819D01*
X161288095Y-94654819D02*
X161145238Y-94702438D01*
X160145238Y-95559580D02*
X160192857Y-95607200D01*
X160192857Y-95607200D02*
X160335714Y-95654819D01*
X160335714Y-95654819D02*
X160430952Y-95654819D01*
X160430952Y-95654819D02*
X160573809Y-95607200D01*
X160573809Y-95607200D02*
X160669047Y-95511961D01*
X160669047Y-95511961D02*
X160716666Y-95416723D01*
X160716666Y-95416723D02*
X160764285Y-95226247D01*
X160764285Y-95226247D02*
X160764285Y-95083390D01*
X160764285Y-95083390D02*
X160716666Y-94892914D01*
X160716666Y-94892914D02*
X160669047Y-94797676D01*
X160669047Y-94797676D02*
X160573809Y-94702438D01*
X160573809Y-94702438D02*
X160430952Y-94654819D01*
X160430952Y-94654819D02*
X160335714Y-94654819D01*
X160335714Y-94654819D02*
X160192857Y-94702438D01*
X160192857Y-94702438D02*
X160145238Y-94750057D01*
X159240476Y-95654819D02*
X159716666Y-95654819D01*
X159716666Y-95654819D02*
X159716666Y-94654819D01*
X158716666Y-94654819D02*
X158621428Y-94654819D01*
X158621428Y-94654819D02*
X158526190Y-94702438D01*
X158526190Y-94702438D02*
X158478571Y-94750057D01*
X158478571Y-94750057D02*
X158430952Y-94845295D01*
X158430952Y-94845295D02*
X158383333Y-95035771D01*
X158383333Y-95035771D02*
X158383333Y-95273866D01*
X158383333Y-95273866D02*
X158430952Y-95464342D01*
X158430952Y-95464342D02*
X158478571Y-95559580D01*
X158478571Y-95559580D02*
X158526190Y-95607200D01*
X158526190Y-95607200D02*
X158621428Y-95654819D01*
X158621428Y-95654819D02*
X158716666Y-95654819D01*
X158716666Y-95654819D02*
X158811904Y-95607200D01*
X158811904Y-95607200D02*
X158859523Y-95559580D01*
X158859523Y-95559580D02*
X158907142Y-95464342D01*
X158907142Y-95464342D02*
X158954761Y-95273866D01*
X158954761Y-95273866D02*
X158954761Y-95035771D01*
X158954761Y-95035771D02*
X158907142Y-94845295D01*
X158907142Y-94845295D02*
X158859523Y-94750057D01*
X158859523Y-94750057D02*
X158811904Y-94702438D01*
X158811904Y-94702438D02*
X158716666Y-94654819D01*
X161311904Y-91654819D02*
X160740476Y-91654819D01*
X161026190Y-92654819D02*
X161026190Y-91654819D01*
X160407142Y-92654819D02*
X160407142Y-91654819D01*
X160407142Y-91654819D02*
X160026190Y-91654819D01*
X160026190Y-91654819D02*
X159930952Y-91702438D01*
X159930952Y-91702438D02*
X159883333Y-91750057D01*
X159883333Y-91750057D02*
X159835714Y-91845295D01*
X159835714Y-91845295D02*
X159835714Y-91988152D01*
X159835714Y-91988152D02*
X159883333Y-92083390D01*
X159883333Y-92083390D02*
X159930952Y-92131009D01*
X159930952Y-92131009D02*
X160026190Y-92178628D01*
X160026190Y-92178628D02*
X160407142Y-92178628D01*
X159454761Y-91750057D02*
X159407142Y-91702438D01*
X159407142Y-91702438D02*
X159311904Y-91654819D01*
X159311904Y-91654819D02*
X159073809Y-91654819D01*
X159073809Y-91654819D02*
X158978571Y-91702438D01*
X158978571Y-91702438D02*
X158930952Y-91750057D01*
X158930952Y-91750057D02*
X158883333Y-91845295D01*
X158883333Y-91845295D02*
X158883333Y-91940533D01*
X158883333Y-91940533D02*
X158930952Y-92083390D01*
X158930952Y-92083390D02*
X159502380Y-92654819D01*
X159502380Y-92654819D02*
X158883333Y-92654819D01*
X149659523Y-84554819D02*
X149326190Y-85554819D01*
X149326190Y-85554819D02*
X148992857Y-84554819D01*
X148088095Y-85459580D02*
X148135714Y-85507200D01*
X148135714Y-85507200D02*
X148278571Y-85554819D01*
X148278571Y-85554819D02*
X148373809Y-85554819D01*
X148373809Y-85554819D02*
X148516666Y-85507200D01*
X148516666Y-85507200D02*
X148611904Y-85411961D01*
X148611904Y-85411961D02*
X148659523Y-85316723D01*
X148659523Y-85316723D02*
X148707142Y-85126247D01*
X148707142Y-85126247D02*
X148707142Y-84983390D01*
X148707142Y-84983390D02*
X148659523Y-84792914D01*
X148659523Y-84792914D02*
X148611904Y-84697676D01*
X148611904Y-84697676D02*
X148516666Y-84602438D01*
X148516666Y-84602438D02*
X148373809Y-84554819D01*
X148373809Y-84554819D02*
X148278571Y-84554819D01*
X148278571Y-84554819D02*
X148135714Y-84602438D01*
X148135714Y-84602438D02*
X148088095Y-84650057D01*
X147469047Y-84554819D02*
X147278571Y-84554819D01*
X147278571Y-84554819D02*
X147183333Y-84602438D01*
X147183333Y-84602438D02*
X147088095Y-84697676D01*
X147088095Y-84697676D02*
X147040476Y-84888152D01*
X147040476Y-84888152D02*
X147040476Y-85221485D01*
X147040476Y-85221485D02*
X147088095Y-85411961D01*
X147088095Y-85411961D02*
X147183333Y-85507200D01*
X147183333Y-85507200D02*
X147278571Y-85554819D01*
X147278571Y-85554819D02*
X147469047Y-85554819D01*
X147469047Y-85554819D02*
X147564285Y-85507200D01*
X147564285Y-85507200D02*
X147659523Y-85411961D01*
X147659523Y-85411961D02*
X147707142Y-85221485D01*
X147707142Y-85221485D02*
X147707142Y-84888152D01*
X147707142Y-84888152D02*
X147659523Y-84697676D01*
X147659523Y-84697676D02*
X147564285Y-84602438D01*
X147564285Y-84602438D02*
X147469047Y-84554819D01*
X146040476Y-85554819D02*
X146373809Y-85078628D01*
X146611904Y-85554819D02*
X146611904Y-84554819D01*
X146611904Y-84554819D02*
X146230952Y-84554819D01*
X146230952Y-84554819D02*
X146135714Y-84602438D01*
X146135714Y-84602438D02*
X146088095Y-84650057D01*
X146088095Y-84650057D02*
X146040476Y-84745295D01*
X146040476Y-84745295D02*
X146040476Y-84888152D01*
X146040476Y-84888152D02*
X146088095Y-84983390D01*
X146088095Y-84983390D02*
X146135714Y-85031009D01*
X146135714Y-85031009D02*
X146230952Y-85078628D01*
X146230952Y-85078628D02*
X146611904Y-85078628D01*
X145611904Y-85031009D02*
X145278571Y-85031009D01*
X145135714Y-85554819D02*
X145611904Y-85554819D01*
X145611904Y-85554819D02*
X145611904Y-84554819D01*
X145611904Y-84554819D02*
X145135714Y-84554819D01*
X148611904Y-81554819D02*
X148040476Y-81554819D01*
X148326190Y-82554819D02*
X148326190Y-81554819D01*
X147707142Y-82554819D02*
X147707142Y-81554819D01*
X147707142Y-81554819D02*
X147326190Y-81554819D01*
X147326190Y-81554819D02*
X147230952Y-81602438D01*
X147230952Y-81602438D02*
X147183333Y-81650057D01*
X147183333Y-81650057D02*
X147135714Y-81745295D01*
X147135714Y-81745295D02*
X147135714Y-81888152D01*
X147135714Y-81888152D02*
X147183333Y-81983390D01*
X147183333Y-81983390D02*
X147230952Y-82031009D01*
X147230952Y-82031009D02*
X147326190Y-82078628D01*
X147326190Y-82078628D02*
X147707142Y-82078628D01*
X146183333Y-82554819D02*
X146754761Y-82554819D01*
X146469047Y-82554819D02*
X146469047Y-81554819D01*
X146469047Y-81554819D02*
X146564285Y-81697676D01*
X146564285Y-81697676D02*
X146659523Y-81792914D01*
X146659523Y-81792914D02*
X146754761Y-81840533D01*
X146104761Y-137004819D02*
X146104761Y-136004819D01*
X146104761Y-136004819D02*
X145723809Y-136004819D01*
X145723809Y-136004819D02*
X145628571Y-136052438D01*
X145628571Y-136052438D02*
X145580952Y-136100057D01*
X145580952Y-136100057D02*
X145533333Y-136195295D01*
X145533333Y-136195295D02*
X145533333Y-136338152D01*
X145533333Y-136338152D02*
X145580952Y-136433390D01*
X145580952Y-136433390D02*
X145628571Y-136481009D01*
X145628571Y-136481009D02*
X145723809Y-136528628D01*
X145723809Y-136528628D02*
X146104761Y-136528628D01*
X145199999Y-136004819D02*
X144961904Y-137004819D01*
X144961904Y-137004819D02*
X144771428Y-136290533D01*
X144771428Y-136290533D02*
X144580952Y-137004819D01*
X144580952Y-137004819D02*
X144342857Y-136004819D01*
X143961904Y-137004819D02*
X143961904Y-136004819D01*
X143961904Y-136004819D02*
X143628571Y-136719104D01*
X143628571Y-136719104D02*
X143295238Y-136004819D01*
X143295238Y-136004819D02*
X143295238Y-137004819D01*
X145961904Y-133004819D02*
X145390476Y-133004819D01*
X145676190Y-134004819D02*
X145676190Y-133004819D01*
X145057142Y-134004819D02*
X145057142Y-133004819D01*
X145057142Y-133004819D02*
X144676190Y-133004819D01*
X144676190Y-133004819D02*
X144580952Y-133052438D01*
X144580952Y-133052438D02*
X144533333Y-133100057D01*
X144533333Y-133100057D02*
X144485714Y-133195295D01*
X144485714Y-133195295D02*
X144485714Y-133338152D01*
X144485714Y-133338152D02*
X144533333Y-133433390D01*
X144533333Y-133433390D02*
X144580952Y-133481009D01*
X144580952Y-133481009D02*
X144676190Y-133528628D01*
X144676190Y-133528628D02*
X145057142Y-133528628D01*
X143914285Y-133433390D02*
X144009523Y-133385771D01*
X144009523Y-133385771D02*
X144057142Y-133338152D01*
X144057142Y-133338152D02*
X144104761Y-133242914D01*
X144104761Y-133242914D02*
X144104761Y-133195295D01*
X144104761Y-133195295D02*
X144057142Y-133100057D01*
X144057142Y-133100057D02*
X144009523Y-133052438D01*
X144009523Y-133052438D02*
X143914285Y-133004819D01*
X143914285Y-133004819D02*
X143723809Y-133004819D01*
X143723809Y-133004819D02*
X143628571Y-133052438D01*
X143628571Y-133052438D02*
X143580952Y-133100057D01*
X143580952Y-133100057D02*
X143533333Y-133195295D01*
X143533333Y-133195295D02*
X143533333Y-133242914D01*
X143533333Y-133242914D02*
X143580952Y-133338152D01*
X143580952Y-133338152D02*
X143628571Y-133385771D01*
X143628571Y-133385771D02*
X143723809Y-133433390D01*
X143723809Y-133433390D02*
X143914285Y-133433390D01*
X143914285Y-133433390D02*
X144009523Y-133481009D01*
X144009523Y-133481009D02*
X144057142Y-133528628D01*
X144057142Y-133528628D02*
X144104761Y-133623866D01*
X144104761Y-133623866D02*
X144104761Y-133814342D01*
X144104761Y-133814342D02*
X144057142Y-133909580D01*
X144057142Y-133909580D02*
X144009523Y-133957200D01*
X144009523Y-133957200D02*
X143914285Y-134004819D01*
X143914285Y-134004819D02*
X143723809Y-134004819D01*
X143723809Y-134004819D02*
X143628571Y-133957200D01*
X143628571Y-133957200D02*
X143580952Y-133909580D01*
X143580952Y-133909580D02*
X143533333Y-133814342D01*
X143533333Y-133814342D02*
X143533333Y-133623866D01*
X143533333Y-133623866D02*
X143580952Y-133528628D01*
X143580952Y-133528628D02*
X143628571Y-133481009D01*
X143628571Y-133481009D02*
X143723809Y-133433390D01*
X140781009Y-90571428D02*
X140828628Y-90714285D01*
X140828628Y-90714285D02*
X140876247Y-90761904D01*
X140876247Y-90761904D02*
X140971485Y-90809523D01*
X140971485Y-90809523D02*
X141114342Y-90809523D01*
X141114342Y-90809523D02*
X141209580Y-90761904D01*
X141209580Y-90761904D02*
X141257200Y-90714285D01*
X141257200Y-90714285D02*
X141304819Y-90619047D01*
X141304819Y-90619047D02*
X141304819Y-90238095D01*
X141304819Y-90238095D02*
X140304819Y-90238095D01*
X140304819Y-90238095D02*
X140304819Y-90571428D01*
X140304819Y-90571428D02*
X140352438Y-90666666D01*
X140352438Y-90666666D02*
X140400057Y-90714285D01*
X140400057Y-90714285D02*
X140495295Y-90761904D01*
X140495295Y-90761904D02*
X140590533Y-90761904D01*
X140590533Y-90761904D02*
X140685771Y-90714285D01*
X140685771Y-90714285D02*
X140733390Y-90666666D01*
X140733390Y-90666666D02*
X140781009Y-90571428D01*
X140781009Y-90571428D02*
X140781009Y-90238095D01*
X140638152Y-91666666D02*
X141304819Y-91666666D01*
X140638152Y-91238095D02*
X141161961Y-91238095D01*
X141161961Y-91238095D02*
X141257200Y-91285714D01*
X141257200Y-91285714D02*
X141304819Y-91380952D01*
X141304819Y-91380952D02*
X141304819Y-91523809D01*
X141304819Y-91523809D02*
X141257200Y-91619047D01*
X141257200Y-91619047D02*
X141209580Y-91666666D01*
X140638152Y-92047619D02*
X140638152Y-92571428D01*
X140638152Y-92571428D02*
X141304819Y-92047619D01*
X141304819Y-92047619D02*
X141304819Y-92571428D01*
X140638152Y-92857143D02*
X140638152Y-93380952D01*
X140638152Y-93380952D02*
X141304819Y-92857143D01*
X141304819Y-92857143D02*
X141304819Y-93380952D01*
X141257200Y-94142857D02*
X141304819Y-94047619D01*
X141304819Y-94047619D02*
X141304819Y-93857143D01*
X141304819Y-93857143D02*
X141257200Y-93761905D01*
X141257200Y-93761905D02*
X141161961Y-93714286D01*
X141161961Y-93714286D02*
X140781009Y-93714286D01*
X140781009Y-93714286D02*
X140685771Y-93761905D01*
X140685771Y-93761905D02*
X140638152Y-93857143D01*
X140638152Y-93857143D02*
X140638152Y-94047619D01*
X140638152Y-94047619D02*
X140685771Y-94142857D01*
X140685771Y-94142857D02*
X140781009Y-94190476D01*
X140781009Y-94190476D02*
X140876247Y-94190476D01*
X140876247Y-94190476D02*
X140971485Y-93714286D01*
X141304819Y-94619048D02*
X140638152Y-94619048D01*
X140828628Y-94619048D02*
X140733390Y-94666667D01*
X140733390Y-94666667D02*
X140685771Y-94714286D01*
X140685771Y-94714286D02*
X140638152Y-94809524D01*
X140638152Y-94809524D02*
X140638152Y-94904762D01*
X134873866Y-88309048D02*
X134873866Y-89070953D01*
X135254819Y-88690000D02*
X134492914Y-88690000D01*
X129381009Y-91619047D02*
X129428628Y-91761904D01*
X129428628Y-91761904D02*
X129476247Y-91809523D01*
X129476247Y-91809523D02*
X129571485Y-91857142D01*
X129571485Y-91857142D02*
X129714342Y-91857142D01*
X129714342Y-91857142D02*
X129809580Y-91809523D01*
X129809580Y-91809523D02*
X129857200Y-91761904D01*
X129857200Y-91761904D02*
X129904819Y-91666666D01*
X129904819Y-91666666D02*
X129904819Y-91285714D01*
X129904819Y-91285714D02*
X128904819Y-91285714D01*
X128904819Y-91285714D02*
X128904819Y-91619047D01*
X128904819Y-91619047D02*
X128952438Y-91714285D01*
X128952438Y-91714285D02*
X129000057Y-91761904D01*
X129000057Y-91761904D02*
X129095295Y-91809523D01*
X129095295Y-91809523D02*
X129190533Y-91809523D01*
X129190533Y-91809523D02*
X129285771Y-91761904D01*
X129285771Y-91761904D02*
X129333390Y-91714285D01*
X129333390Y-91714285D02*
X129381009Y-91619047D01*
X129381009Y-91619047D02*
X129381009Y-91285714D01*
X128904819Y-92190476D02*
X128904819Y-92857142D01*
X128904819Y-92857142D02*
X129904819Y-92190476D01*
X129904819Y-92190476D02*
X129904819Y-92857142D01*
X129904819Y-93761904D02*
X129904819Y-93190476D01*
X129904819Y-93476190D02*
X128904819Y-93476190D01*
X128904819Y-93476190D02*
X129047676Y-93380952D01*
X129047676Y-93380952D02*
X129142914Y-93285714D01*
X129142914Y-93285714D02*
X129190533Y-93190476D01*
D11*
%TO.C,BZ1*%
X134450000Y-92500000D02*
G75*
G02*
X132450000Y-92500000I-1000000J0D01*
G01*
X132450000Y-92500000D02*
G75*
G02*
X134450000Y-92500000I1000000J0D01*
G01*
X139450000Y-92500000D02*
G75*
G02*
X127450000Y-92500000I-6000000J0D01*
G01*
X127450000Y-92500000D02*
G75*
G02*
X139450000Y-92500000I6000000J0D01*
G01*
%TD*%
M02*
