%TF.GenerationSoftware,KiCad,Pcbnew,8.0.7*%
%TF.CreationDate,2025-01-08T02:27:13-05:00*%
%TF.ProjectId,active-drag-system,61637469-7665-42d6-9472-61672d737973,rev?*%
%TF.SameCoordinates,Original*%
%TF.FileFunction,Copper,L3,Inr*%
%TF.FilePolarity,Positive*%
%FSLAX46Y46*%
G04 Gerber Fmt 4.6, Leading zero omitted, Abs format (unit mm)*
G04 Created by KiCad (PCBNEW 8.0.7) date 2025-01-08 02:27:13*
%MOMM*%
%LPD*%
G01*
G04 APERTURE LIST*
G04 Aperture macros list*
%AMRoundRect*
0 Rectangle with rounded corners*
0 $1 Rounding radius*
0 $2 $3 $4 $5 $6 $7 $8 $9 X,Y pos of 4 corners*
0 Add a 4 corners polygon primitive as box body*
4,1,4,$2,$3,$4,$5,$6,$7,$8,$9,$2,$3,0*
0 Add four circle primitives for the rounded corners*
1,1,$1+$1,$2,$3*
1,1,$1+$1,$4,$5*
1,1,$1+$1,$6,$7*
1,1,$1+$1,$8,$9*
0 Add four rect primitives between the rounded corners*
20,1,$1+$1,$2,$3,$4,$5,0*
20,1,$1+$1,$4,$5,$6,$7,0*
20,1,$1+$1,$6,$7,$8,$9,0*
20,1,$1+$1,$8,$9,$2,$3,0*%
G04 Aperture macros list end*
%TA.AperFunction,ComponentPad*%
%ADD10RoundRect,0.250002X-1.699998X-1.699998X1.699998X-1.699998X1.699998X1.699998X-1.699998X1.699998X0*%
%TD*%
%TA.AperFunction,ComponentPad*%
%ADD11C,3.900000*%
%TD*%
%TA.AperFunction,ComponentPad*%
%ADD12R,1.700000X1.700000*%
%TD*%
%TA.AperFunction,ComponentPad*%
%ADD13O,1.700000X1.700000*%
%TD*%
%TA.AperFunction,ComponentPad*%
%ADD14RoundRect,0.250002X-1.699998X1.699998X-1.699998X-1.699998X1.699998X-1.699998X1.699998X1.699998X0*%
%TD*%
%TA.AperFunction,HeatsinkPad*%
%ADD15C,0.457200*%
%TD*%
%TA.AperFunction,ComponentPad*%
%ADD16O,0.900000X1.800000*%
%TD*%
%TA.AperFunction,ComponentPad*%
%ADD17R,2.000000X2.000000*%
%TD*%
%TA.AperFunction,ComponentPad*%
%ADD18C,2.000000*%
%TD*%
%TA.AperFunction,ViaPad*%
%ADD19C,0.457200*%
%TD*%
%TA.AperFunction,Conductor*%
%ADD20C,0.150000*%
%TD*%
G04 APERTURE END LIST*
D10*
%TO.N,/Motor Driver/PHASE_A*%
%TO.C,J7*%
X142500000Y-147500000D03*
D11*
%TO.N,/Motor Driver/PHASE_B*%
X148000000Y-147500000D03*
%TO.N,/Motor Driver/PHASE_C*%
X153500000Y-147500000D03*
%TD*%
D12*
%TO.N,/MCU_RP2040/UART0_TX*%
%TO.C,J5*%
X133600000Y-99775000D03*
D13*
%TO.N,/MCU_RP2040/UART0_RX*%
X133600000Y-102315000D03*
%TD*%
D14*
%TO.N,/VBAT*%
%TO.C,J2*%
X134750000Y-132350000D03*
D11*
%TO.N,GND*%
X134750000Y-140150000D03*
%TD*%
D15*
%TO.N,GND*%
%TO.C,U9*%
X146750000Y-135750000D03*
X146750000Y-137000000D03*
X146750000Y-138500000D03*
X147250000Y-134500000D03*
X147250000Y-139500000D03*
X148000000Y-135750000D03*
X148000000Y-137000000D03*
X148000000Y-138500000D03*
X148750000Y-134500000D03*
X148750000Y-139500000D03*
X149250000Y-135750000D03*
X149250000Y-137000000D03*
X149250000Y-138500000D03*
%TD*%
D12*
%TO.N,/MCU_RP2040/I2C1_SCL*%
%TO.C,J6*%
X133600000Y-108525000D03*
D13*
%TO.N,/MCU_RP2040/I2C1_SDA*%
X133600000Y-105985000D03*
%TD*%
D12*
%TO.N,/+3V3*%
%TO.C,J4*%
X162000000Y-140000000D03*
D13*
%TO.N,GND*%
X162000000Y-137460000D03*
%TO.N,/Motor Driver/HALL_SENSE_A*%
X162000000Y-134920000D03*
%TO.N,/Motor Driver/HALL_SENSE_B*%
X162000000Y-132380000D03*
%TO.N,/Motor Driver/HALL_SENSE_C*%
X162000000Y-129840000D03*
%TD*%
D15*
%TO.N,GND*%
%TO.C,U1*%
X146212500Y-85750000D03*
X146212500Y-87000000D03*
X146212500Y-88250000D03*
X147462500Y-85750000D03*
X147462500Y-87000000D03*
X147462500Y-88250000D03*
X148712500Y-85750000D03*
X148712500Y-87000000D03*
X148712500Y-88250000D03*
%TD*%
D12*
%TO.N,/+5V*%
%TO.C,J1*%
X162500000Y-119160000D03*
D13*
%TO.N,GND*%
X162500000Y-121700000D03*
%TD*%
D12*
%TO.N,/MCU_RP2040/SWCLK*%
%TO.C,J8*%
X162000000Y-105080000D03*
D13*
%TO.N,GND*%
X162000000Y-102540000D03*
%TO.N,/MCU_RP2040/SWDIO*%
X162000000Y-100000000D03*
%TD*%
D16*
%TO.N,GND*%
%TO.C,J3*%
X151750000Y-62100000D03*
X145150000Y-62100000D03*
%TD*%
D17*
%TO.N,/MCU_RP2040/BUZZ_OUT*%
%TO.C,BZ1*%
X133450000Y-88700000D03*
D18*
%TO.N,GND*%
X133450000Y-96300000D03*
%TD*%
D19*
%TO.N,GND*%
X161750000Y-77750000D03*
X156250000Y-107250000D03*
X146000000Y-77300000D03*
X140800000Y-136350000D03*
X146462500Y-89562500D03*
X159750000Y-133750000D03*
X160200000Y-79000000D03*
X156100000Y-137550000D03*
X137000000Y-120500000D03*
X137200000Y-78800000D03*
X154975000Y-82625000D03*
X159247800Y-111800000D03*
X163050000Y-94150000D03*
X135750000Y-87550000D03*
X138750000Y-85650000D03*
X153150000Y-64550000D03*
X155700000Y-77150000D03*
X136350000Y-102550000D03*
X148997800Y-117600000D03*
X152169586Y-117549874D03*
X138600000Y-88100000D03*
X140300000Y-103050000D03*
X140300000Y-98050000D03*
X159500000Y-107000000D03*
X143850000Y-64550000D03*
X140500000Y-137000000D03*
X143650000Y-91100000D03*
X151250000Y-95300000D03*
X157250000Y-95050000D03*
X144600000Y-127950000D03*
X155250000Y-71950000D03*
X152000000Y-77600000D03*
X150800000Y-103050000D03*
X151750000Y-134500000D03*
X152000000Y-135750000D03*
X160797800Y-109500000D03*
X161400000Y-86300000D03*
X150800000Y-98050000D03*
X149969586Y-117649874D03*
X153519460Y-118800000D03*
X138600000Y-136800000D03*
X135450000Y-99400000D03*
X158450000Y-91200000D03*
X149900000Y-77600000D03*
X156200000Y-77800000D03*
X159450000Y-77800000D03*
X149949688Y-125543699D03*
X157425001Y-72575001D03*
X136700000Y-107250000D03*
X156500000Y-68250000D03*
X154597800Y-112850000D03*
X134000000Y-120250000D03*
X138850000Y-81900000D03*
X163100000Y-81600000D03*
X157550000Y-93300000D03*
X153719460Y-124400000D03*
X156600000Y-88300000D03*
X143600000Y-70100000D03*
X159647800Y-110950000D03*
X140700000Y-82600000D03*
X142850000Y-94400000D03*
X144353651Y-130996349D03*
X145000000Y-114500000D03*
X144847800Y-111900000D03*
X152143387Y-125650000D03*
X136000000Y-120250000D03*
X159500000Y-131000000D03*
X147600000Y-77400000D03*
X140804164Y-115450000D03*
X152050000Y-90650000D03*
X152713094Y-86613094D03*
X132850000Y-86200000D03*
X144500000Y-91850000D03*
X162550000Y-93700000D03*
%TO.N,/MCU_RP2040/BUZZ_OUT*%
X139350000Y-83900000D03*
%TO.N,+1V1*%
X147262500Y-81937500D03*
X148187500Y-92200000D03*
X148200000Y-84949998D03*
X147900000Y-89200000D03*
%TO.N,/Motor Driver/PHASE_A*%
X146000000Y-142700000D03*
X140700000Y-144800000D03*
X143400000Y-142700000D03*
X140700000Y-143600000D03*
X142600000Y-144800000D03*
X141600000Y-142700000D03*
X142600000Y-143600000D03*
X144200000Y-144800000D03*
X146000000Y-141500000D03*
X144800000Y-142700000D03*
X144200000Y-143600000D03*
%TO.N,/Motor Driver/PHASE_B*%
X147500000Y-141500000D03*
X148500000Y-144500000D03*
X147500000Y-143500000D03*
X148500000Y-141500000D03*
X150000000Y-145250000D03*
X147500000Y-142500000D03*
X148500000Y-142500000D03*
X146000000Y-145250000D03*
X148500000Y-143500000D03*
X147500000Y-144500000D03*
%TO.N,/Motor Driver/PHASE_C*%
X150000000Y-141300000D03*
X151800000Y-144800000D03*
X150000000Y-142700000D03*
X153300000Y-143600000D03*
X154900000Y-143600000D03*
X151800000Y-143600000D03*
X154000000Y-142700000D03*
X154900000Y-144800000D03*
X151200000Y-142700000D03*
X153300000Y-144800000D03*
X152600000Y-142700000D03*
%TO.N,/MCU_RP2040/I2C0_SCL*%
X159950000Y-95531502D03*
X160400000Y-76200000D03*
X138050000Y-82400000D03*
X154200000Y-89700000D03*
%TO.N,/MCU_RP2040/I2C0_SDA*%
X138000000Y-83600000D03*
X157450000Y-96900000D03*
X152323231Y-89576769D03*
X159850000Y-76950000D03*
%TO.N,Net-(U3-PG)*%
X139547800Y-120900000D03*
X145047800Y-115500000D03*
%TO.N,/MCU_RP2040/nFAULT*%
X142700000Y-89400000D03*
X151600000Y-139250001D03*
%TO.N,/MCU_RP2040/FGOUT*%
X138200000Y-86500000D03*
X145200000Y-132850000D03*
%TO.N,/MCU_RP2040/LED_OUT*%
X154350000Y-71950000D03*
X152300000Y-86200000D03*
%TO.N,/MCU_RP2040/MOTOR_PWM*%
X146400000Y-132450000D03*
X139000000Y-87000000D03*
%TO.N,/MCU_RP2040/DRVOFF*%
X152300000Y-139850000D03*
X143100000Y-90000000D03*
%TO.N,/MG*%
X161200000Y-85600000D03*
X152300000Y-87800000D03*
%TO.N,/MCU_RP2040/BRAKE*%
X147200000Y-132150000D03*
X139000000Y-89100000D03*
%TO.N,/MCU_RP2040/nSLEEP*%
X141996349Y-89296349D03*
X151200000Y-138350000D03*
%TO.N,/MCU_RP2040/SPI0_RX*%
X143000000Y-86300000D03*
X150800000Y-132350000D03*
%TO.N,/MCU_RP2040/SPI0_TX*%
X141600000Y-85700000D03*
X149700000Y-132050000D03*
%TO.N,/MCU_RP2040/SPI0_CSn0*%
X139800000Y-84900000D03*
X148200000Y-132150000D03*
%TO.N,/MCU_RP2040/SPI0_SCK*%
X141000000Y-85400000D03*
X148800000Y-131550000D03*
%TO.N,/+3V3*%
X159000000Y-139500000D03*
X152150000Y-85300000D03*
X156150000Y-92300000D03*
X156250000Y-139500000D03*
X162697800Y-108300000D03*
X162000000Y-142500000D03*
X159000000Y-142500000D03*
X154750000Y-140500000D03*
X162197800Y-114800000D03*
X162847800Y-114200000D03*
%TO.N,/VBUS*%
X150650000Y-66150000D03*
X147997800Y-112450000D03*
X147297800Y-112450000D03*
X151400000Y-66150000D03*
%TO.N,/MAG*%
X158304481Y-77145519D03*
X150550000Y-91550000D03*
%TD*%
D20*
%TO.N,/MAG*%
X159800000Y-86000000D02*
X159800000Y-79208961D01*
X150550000Y-91550000D02*
X154250000Y-91550000D01*
X158304481Y-77713442D02*
X158304481Y-77145519D01*
X154250000Y-91550000D02*
X159800000Y-86000000D01*
X159800000Y-79208961D02*
X158304481Y-77713442D01*
%TD*%
%TA.AperFunction,Conductor*%
%TO.N,GND*%
G36*
X163958691Y-60919407D02*
G01*
X163994655Y-60968907D01*
X163999500Y-60999500D01*
X163999500Y-149800500D01*
X163980593Y-149858691D01*
X163931093Y-149894655D01*
X163900500Y-149899500D01*
X132099500Y-149899500D01*
X132041309Y-149880593D01*
X132005345Y-149831093D01*
X132000500Y-149800500D01*
X132000500Y-146883714D01*
X133522500Y-146883714D01*
X133522500Y-147116285D01*
X133558879Y-147345977D01*
X133558881Y-147345982D01*
X133630747Y-147567163D01*
X133736328Y-147774379D01*
X133873026Y-147962527D01*
X134037473Y-148126974D01*
X134225621Y-148263672D01*
X134432837Y-148369253D01*
X134654018Y-148441119D01*
X134654019Y-148441119D01*
X134654022Y-148441120D01*
X134883715Y-148477500D01*
X134883718Y-148477500D01*
X135116285Y-148477500D01*
X135345977Y-148441120D01*
X135345978Y-148441119D01*
X135345982Y-148441119D01*
X135567163Y-148369253D01*
X135774379Y-148263672D01*
X135962527Y-148126974D01*
X136126974Y-147962527D01*
X136263672Y-147774379D01*
X136369253Y-147567163D01*
X136441119Y-147345982D01*
X136477500Y-147116282D01*
X136477500Y-146883718D01*
X136477500Y-146883714D01*
X136441120Y-146654022D01*
X136436966Y-146641236D01*
X136369253Y-146432837D01*
X136263672Y-146225621D01*
X136126974Y-146037473D01*
X135962527Y-145873026D01*
X135774379Y-145736328D01*
X135774378Y-145736327D01*
X135774376Y-145736326D01*
X135567163Y-145630747D01*
X135345977Y-145558879D01*
X135116285Y-145522500D01*
X135116282Y-145522500D01*
X134883718Y-145522500D01*
X134883715Y-145522500D01*
X134654022Y-145558879D01*
X134432836Y-145630747D01*
X134225623Y-145736326D01*
X134037474Y-145873025D01*
X133873025Y-146037474D01*
X133736326Y-146225623D01*
X133630747Y-146432836D01*
X133558879Y-146654022D01*
X133522500Y-146883714D01*
X132000500Y-146883714D01*
X132000500Y-144799997D01*
X140266487Y-144799997D01*
X140266487Y-144800002D01*
X140284046Y-144922134D01*
X140326743Y-145015625D01*
X140335306Y-145034375D01*
X140416109Y-145127627D01*
X140477711Y-145167216D01*
X140519905Y-145194333D01*
X140519912Y-145194337D01*
X140572574Y-145209800D01*
X140576273Y-145210886D01*
X140626780Y-145245422D01*
X140647341Y-145303049D01*
X140630102Y-145361756D01*
X140592212Y-145390973D01*
X140593675Y-145393742D01*
X140587121Y-145397205D01*
X140477852Y-145477850D01*
X140477850Y-145477852D01*
X140397206Y-145587119D01*
X140352355Y-145715297D01*
X140352353Y-145715306D01*
X140349500Y-145745727D01*
X140349500Y-149254272D01*
X140352353Y-149284693D01*
X140352355Y-149284702D01*
X140397206Y-149412880D01*
X140425830Y-149451663D01*
X140477851Y-149522149D01*
X140587119Y-149602793D01*
X140715302Y-149647646D01*
X140745727Y-149650499D01*
X140745729Y-149650500D01*
X140745736Y-149650500D01*
X144254271Y-149650500D01*
X144254271Y-149650499D01*
X144284698Y-149647646D01*
X144412881Y-149602793D01*
X144522149Y-149522149D01*
X144602793Y-149412881D01*
X144647646Y-149284698D01*
X144650499Y-149254271D01*
X144650500Y-149254271D01*
X144650500Y-147499997D01*
X145844475Y-147499997D01*
X145844475Y-147500002D01*
X145864551Y-147793507D01*
X145864552Y-147793511D01*
X145924408Y-148081554D01*
X146022928Y-148358764D01*
X146158278Y-148619976D01*
X146327935Y-148860326D01*
X146528740Y-149075335D01*
X146756951Y-149260999D01*
X146756957Y-149261003D01*
X146756959Y-149261004D01*
X147008313Y-149413856D01*
X147008325Y-149413863D01*
X147153147Y-149476766D01*
X147278159Y-149531067D01*
X147561445Y-149610440D01*
X147852902Y-149650500D01*
X147852908Y-149650500D01*
X148147092Y-149650500D01*
X148147098Y-149650500D01*
X148438555Y-149610440D01*
X148721841Y-149531067D01*
X148912413Y-149448290D01*
X148991674Y-149413863D01*
X148991677Y-149413860D01*
X148991682Y-149413859D01*
X149243049Y-149260999D01*
X149471260Y-149075335D01*
X149672065Y-148860326D01*
X149841722Y-148619976D01*
X149977072Y-148358764D01*
X150075592Y-148081554D01*
X150135448Y-147793511D01*
X150155525Y-147500000D01*
X150155525Y-147499997D01*
X151344475Y-147499997D01*
X151344475Y-147500002D01*
X151364551Y-147793507D01*
X151364552Y-147793511D01*
X151424408Y-148081554D01*
X151522928Y-148358764D01*
X151658278Y-148619976D01*
X151827935Y-148860326D01*
X152028740Y-149075335D01*
X152256951Y-149260999D01*
X152256957Y-149261003D01*
X152256959Y-149261004D01*
X152508313Y-149413856D01*
X152508325Y-149413863D01*
X152653147Y-149476766D01*
X152778159Y-149531067D01*
X153061445Y-149610440D01*
X153352902Y-149650500D01*
X153352908Y-149650500D01*
X153647092Y-149650500D01*
X153647098Y-149650500D01*
X153938555Y-149610440D01*
X154221841Y-149531067D01*
X154412413Y-149448290D01*
X154491674Y-149413863D01*
X154491677Y-149413860D01*
X154491682Y-149413859D01*
X154743049Y-149260999D01*
X154971260Y-149075335D01*
X155172065Y-148860326D01*
X155341722Y-148619976D01*
X155477072Y-148358764D01*
X155575592Y-148081554D01*
X155635448Y-147793511D01*
X155655525Y-147500000D01*
X155635448Y-147206489D01*
X155575592Y-146918446D01*
X155563248Y-146883714D01*
X159522500Y-146883714D01*
X159522500Y-147116285D01*
X159558879Y-147345977D01*
X159558881Y-147345982D01*
X159630747Y-147567163D01*
X159736328Y-147774379D01*
X159873026Y-147962527D01*
X160037473Y-148126974D01*
X160225621Y-148263672D01*
X160432837Y-148369253D01*
X160654018Y-148441119D01*
X160654019Y-148441119D01*
X160654022Y-148441120D01*
X160883715Y-148477500D01*
X160883718Y-148477500D01*
X161116285Y-148477500D01*
X161345977Y-148441120D01*
X161345978Y-148441119D01*
X161345982Y-148441119D01*
X161567163Y-148369253D01*
X161774379Y-148263672D01*
X161962527Y-148126974D01*
X162126974Y-147962527D01*
X162263672Y-147774379D01*
X162369253Y-147567163D01*
X162441119Y-147345982D01*
X162477500Y-147116282D01*
X162477500Y-146883718D01*
X162477500Y-146883714D01*
X162441120Y-146654022D01*
X162436966Y-146641236D01*
X162369253Y-146432837D01*
X162263672Y-146225621D01*
X162126974Y-146037473D01*
X161962527Y-145873026D01*
X161774379Y-145736328D01*
X161774378Y-145736327D01*
X161774376Y-145736326D01*
X161567163Y-145630747D01*
X161345977Y-145558879D01*
X161116285Y-145522500D01*
X161116282Y-145522500D01*
X160883718Y-145522500D01*
X160883715Y-145522500D01*
X160654022Y-145558879D01*
X160432836Y-145630747D01*
X160225623Y-145736326D01*
X160037474Y-145873025D01*
X159873025Y-146037474D01*
X159736326Y-146225623D01*
X159630747Y-146432836D01*
X159558879Y-146654022D01*
X159522500Y-146883714D01*
X155563248Y-146883714D01*
X155477072Y-146641236D01*
X155341722Y-146380024D01*
X155172065Y-146139674D01*
X154971260Y-145924665D01*
X154743049Y-145739001D01*
X154743044Y-145738998D01*
X154743040Y-145738995D01*
X154491686Y-145586143D01*
X154491674Y-145586136D01*
X154257392Y-145484375D01*
X154221841Y-145468933D01*
X153938555Y-145389560D01*
X153647098Y-145349500D01*
X153575813Y-145349500D01*
X153517622Y-145330593D01*
X153481658Y-145281093D01*
X153481658Y-145219907D01*
X153517622Y-145170407D01*
X153522289Y-145167216D01*
X153583891Y-145127627D01*
X153664694Y-145034375D01*
X153715953Y-144922135D01*
X153733513Y-144800000D01*
X153733513Y-144799997D01*
X154466487Y-144799997D01*
X154466487Y-144800002D01*
X154484046Y-144922134D01*
X154526743Y-145015625D01*
X154535306Y-145034375D01*
X154616109Y-145127627D01*
X154677711Y-145167216D01*
X154719905Y-145194333D01*
X154719912Y-145194337D01*
X154838305Y-145229100D01*
X154838306Y-145229100D01*
X154961694Y-145229100D01*
X154961695Y-145229100D01*
X155080088Y-145194337D01*
X155183891Y-145127627D01*
X155264694Y-145034375D01*
X155315953Y-144922135D01*
X155333513Y-144800000D01*
X155324077Y-144734373D01*
X155315953Y-144677865D01*
X155296508Y-144635287D01*
X155264694Y-144565625D01*
X155183891Y-144472373D01*
X155155645Y-144454220D01*
X155080092Y-144405665D01*
X155080089Y-144405664D01*
X155080088Y-144405663D01*
X154985416Y-144377865D01*
X154961696Y-144370900D01*
X154961695Y-144370900D01*
X154838305Y-144370900D01*
X154838303Y-144370900D01*
X154719912Y-144405663D01*
X154719907Y-144405665D01*
X154616113Y-144472370D01*
X154616108Y-144472374D01*
X154535306Y-144565624D01*
X154484046Y-144677865D01*
X154466487Y-144799997D01*
X153733513Y-144799997D01*
X153724077Y-144734373D01*
X153715953Y-144677865D01*
X153696508Y-144635287D01*
X153664694Y-144565625D01*
X153583891Y-144472373D01*
X153555645Y-144454220D01*
X153480092Y-144405665D01*
X153480089Y-144405664D01*
X153480088Y-144405663D01*
X153385416Y-144377865D01*
X153361696Y-144370900D01*
X153361695Y-144370900D01*
X153238305Y-144370900D01*
X153238303Y-144370900D01*
X153119912Y-144405663D01*
X153119907Y-144405665D01*
X153016113Y-144472370D01*
X153016108Y-144472374D01*
X152935306Y-144565624D01*
X152884046Y-144677865D01*
X152866487Y-144799997D01*
X152866487Y-144800002D01*
X152884046Y-144922134D01*
X152926743Y-145015625D01*
X152935306Y-145034375D01*
X153016109Y-145127627D01*
X153119912Y-145194337D01*
X153119919Y-145194339D01*
X153124716Y-145196530D01*
X153169795Y-145237901D01*
X153181947Y-145297868D01*
X153156531Y-145353525D01*
X153103255Y-145383613D01*
X153097077Y-145384662D01*
X153061445Y-145389560D01*
X153061442Y-145389560D01*
X153061441Y-145389561D01*
X153034156Y-145397206D01*
X152778159Y-145468933D01*
X152778155Y-145468934D01*
X152778154Y-145468935D01*
X152508325Y-145586136D01*
X152508313Y-145586143D01*
X152256959Y-145738995D01*
X152256945Y-145739005D01*
X152028745Y-145924660D01*
X152028744Y-145924661D01*
X152028741Y-145924664D01*
X152028740Y-145924665D01*
X151868096Y-146096672D01*
X151827934Y-146139675D01*
X151827929Y-146139681D01*
X151658278Y-146380023D01*
X151522926Y-146641240D01*
X151465941Y-146801580D01*
X151436751Y-146883718D01*
X151424407Y-146918450D01*
X151364553Y-147206483D01*
X151364551Y-147206492D01*
X151344475Y-147499997D01*
X150155525Y-147499997D01*
X150135448Y-147206489D01*
X150075592Y-146918446D01*
X149977072Y-146641236D01*
X149841722Y-146380024D01*
X149672065Y-146139674D01*
X149471260Y-145924665D01*
X149243049Y-145739001D01*
X149243044Y-145738998D01*
X149243040Y-145738995D01*
X148991686Y-145586143D01*
X148991674Y-145586136D01*
X148757392Y-145484375D01*
X148721841Y-145468933D01*
X148438555Y-145389560D01*
X148147098Y-145349500D01*
X147852902Y-145349500D01*
X147561445Y-145389560D01*
X147561441Y-145389560D01*
X147561441Y-145389561D01*
X147534156Y-145397206D01*
X147278159Y-145468933D01*
X147278155Y-145468934D01*
X147278154Y-145468935D01*
X147008325Y-145586136D01*
X147008313Y-145586143D01*
X146756959Y-145738995D01*
X146756945Y-145739005D01*
X146528745Y-145924660D01*
X146528744Y-145924661D01*
X146528741Y-145924664D01*
X146528740Y-145924665D01*
X146368096Y-146096672D01*
X146327934Y-146139675D01*
X146327929Y-146139681D01*
X146158278Y-146380023D01*
X146022926Y-146641240D01*
X145965941Y-146801580D01*
X145936751Y-146883718D01*
X145924407Y-146918450D01*
X145864553Y-147206483D01*
X145864551Y-147206492D01*
X145844475Y-147499997D01*
X144650500Y-147499997D01*
X144650500Y-145745729D01*
X144650499Y-145745727D01*
X144649618Y-145736328D01*
X144647646Y-145715302D01*
X144602793Y-145587119D01*
X144522149Y-145477851D01*
X144412881Y-145397207D01*
X144412880Y-145397206D01*
X144373293Y-145383354D01*
X144324612Y-145346288D01*
X144307016Y-145287688D01*
X144320205Y-145249997D01*
X145566487Y-145249997D01*
X145566487Y-145250002D01*
X145584046Y-145372134D01*
X145595497Y-145397207D01*
X145635306Y-145484375D01*
X145716109Y-145577627D01*
X145791666Y-145626184D01*
X145798765Y-145630747D01*
X145819912Y-145644337D01*
X145938305Y-145679100D01*
X145938306Y-145679100D01*
X146061694Y-145679100D01*
X146061695Y-145679100D01*
X146180088Y-145644337D01*
X146283891Y-145577627D01*
X146364694Y-145484375D01*
X146415953Y-145372135D01*
X146426631Y-145297868D01*
X146433513Y-145250002D01*
X146433513Y-145249997D01*
X149566487Y-145249997D01*
X149566487Y-145250002D01*
X149584046Y-145372134D01*
X149595497Y-145397207D01*
X149635306Y-145484375D01*
X149716109Y-145577627D01*
X149791666Y-145626184D01*
X149798765Y-145630747D01*
X149819912Y-145644337D01*
X149938305Y-145679100D01*
X149938306Y-145679100D01*
X150061694Y-145679100D01*
X150061695Y-145679100D01*
X150180088Y-145644337D01*
X150283891Y-145577627D01*
X150364694Y-145484375D01*
X150415953Y-145372135D01*
X150426631Y-145297868D01*
X150433513Y-145250002D01*
X150433513Y-145249997D01*
X150415953Y-145127865D01*
X150373257Y-145034375D01*
X150364694Y-145015625D01*
X150283891Y-144922373D01*
X150240266Y-144894337D01*
X150180092Y-144855665D01*
X150180089Y-144855664D01*
X150180088Y-144855663D01*
X150120891Y-144838281D01*
X150061696Y-144820900D01*
X150061695Y-144820900D01*
X149938305Y-144820900D01*
X149938303Y-144820900D01*
X149819912Y-144855663D01*
X149819907Y-144855665D01*
X149716113Y-144922370D01*
X149716108Y-144922374D01*
X149635306Y-145015624D01*
X149584046Y-145127865D01*
X149566487Y-145249997D01*
X146433513Y-145249997D01*
X146415953Y-145127865D01*
X146373257Y-145034375D01*
X146364694Y-145015625D01*
X146283891Y-144922373D01*
X146240266Y-144894337D01*
X146180092Y-144855665D01*
X146180089Y-144855664D01*
X146180088Y-144855663D01*
X146120891Y-144838281D01*
X146061696Y-144820900D01*
X146061695Y-144820900D01*
X145938305Y-144820900D01*
X145938303Y-144820900D01*
X145819912Y-144855663D01*
X145819907Y-144855665D01*
X145716113Y-144922370D01*
X145716108Y-144922374D01*
X145635306Y-145015624D01*
X145584046Y-145127865D01*
X145566487Y-145249997D01*
X144320205Y-145249997D01*
X144327225Y-145229936D01*
X144373819Y-145197655D01*
X144373647Y-145197278D01*
X144375749Y-145196317D01*
X144377519Y-145195092D01*
X144377762Y-145195019D01*
X144380088Y-145194337D01*
X144483891Y-145127627D01*
X144564694Y-145034375D01*
X144615953Y-144922135D01*
X144633513Y-144800000D01*
X144624077Y-144734373D01*
X144615953Y-144677865D01*
X144596508Y-144635287D01*
X144564694Y-144565625D01*
X144483891Y-144472373D01*
X144455645Y-144454220D01*
X144380092Y-144405665D01*
X144380089Y-144405664D01*
X144380088Y-144405663D01*
X144285416Y-144377865D01*
X144261696Y-144370900D01*
X144261695Y-144370900D01*
X144138305Y-144370900D01*
X144138303Y-144370900D01*
X144019912Y-144405663D01*
X144019907Y-144405665D01*
X143916113Y-144472370D01*
X143916108Y-144472374D01*
X143835306Y-144565624D01*
X143784046Y-144677865D01*
X143766487Y-144799997D01*
X143766487Y-144800002D01*
X143784046Y-144922134D01*
X143826743Y-145015625D01*
X143835306Y-145034375D01*
X143916109Y-145127627D01*
X143977711Y-145167216D01*
X144016442Y-145214582D01*
X144019935Y-145275668D01*
X143986855Y-145327140D01*
X143929839Y-145349339D01*
X143924187Y-145349500D01*
X142875813Y-145349500D01*
X142817622Y-145330593D01*
X142781658Y-145281093D01*
X142781658Y-145219907D01*
X142817622Y-145170407D01*
X142822289Y-145167216D01*
X142883891Y-145127627D01*
X142964694Y-145034375D01*
X143015953Y-144922135D01*
X143033513Y-144800000D01*
X143024077Y-144734373D01*
X143015953Y-144677865D01*
X142996508Y-144635287D01*
X142964694Y-144565625D01*
X142883891Y-144472373D01*
X142855645Y-144454220D01*
X142780092Y-144405665D01*
X142780089Y-144405664D01*
X142780088Y-144405663D01*
X142685416Y-144377865D01*
X142661696Y-144370900D01*
X142661695Y-144370900D01*
X142538305Y-144370900D01*
X142538303Y-144370900D01*
X142419912Y-144405663D01*
X142419907Y-144405665D01*
X142316113Y-144472370D01*
X142316108Y-144472374D01*
X142235306Y-144565624D01*
X142184046Y-144677865D01*
X142166487Y-144799997D01*
X142166487Y-144800002D01*
X142184046Y-144922134D01*
X142226743Y-145015625D01*
X142235306Y-145034375D01*
X142316109Y-145127627D01*
X142377711Y-145167216D01*
X142416442Y-145214582D01*
X142419935Y-145275668D01*
X142386855Y-145327140D01*
X142329839Y-145349339D01*
X142324187Y-145349500D01*
X140975813Y-145349500D01*
X140917622Y-145330593D01*
X140881658Y-145281093D01*
X140881658Y-145219907D01*
X140917622Y-145170407D01*
X140922289Y-145167216D01*
X140983891Y-145127627D01*
X141064694Y-145034375D01*
X141115953Y-144922135D01*
X141133513Y-144800000D01*
X141124077Y-144734373D01*
X141115953Y-144677865D01*
X141096508Y-144635287D01*
X141064694Y-144565625D01*
X140983891Y-144472373D01*
X140955645Y-144454220D01*
X140880092Y-144405665D01*
X140880089Y-144405664D01*
X140880088Y-144405663D01*
X140785416Y-144377865D01*
X140761696Y-144370900D01*
X140761695Y-144370900D01*
X140638305Y-144370900D01*
X140638303Y-144370900D01*
X140519912Y-144405663D01*
X140519907Y-144405665D01*
X140416113Y-144472370D01*
X140416108Y-144472374D01*
X140335306Y-144565624D01*
X140284046Y-144677865D01*
X140266487Y-144799997D01*
X132000500Y-144799997D01*
X132000500Y-143599997D01*
X140266487Y-143599997D01*
X140266487Y-143600002D01*
X140284046Y-143722134D01*
X140332223Y-143827625D01*
X140335306Y-143834375D01*
X140416109Y-143927627D01*
X140519912Y-143994337D01*
X140638305Y-144029100D01*
X140638306Y-144029100D01*
X140761694Y-144029100D01*
X140761695Y-144029100D01*
X140880088Y-143994337D01*
X140983891Y-143927627D01*
X141064694Y-143834375D01*
X141115953Y-143722135D01*
X141130331Y-143622134D01*
X141133513Y-143600002D01*
X141133513Y-143599997D01*
X142166487Y-143599997D01*
X142166487Y-143600002D01*
X142184046Y-143722134D01*
X142232223Y-143827625D01*
X142235306Y-143834375D01*
X142316109Y-143927627D01*
X142419912Y-143994337D01*
X142538305Y-144029100D01*
X142538306Y-144029100D01*
X142661694Y-144029100D01*
X142661695Y-144029100D01*
X142780088Y-143994337D01*
X142883891Y-143927627D01*
X142964694Y-143834375D01*
X143015953Y-143722135D01*
X143030331Y-143622134D01*
X143033513Y-143600002D01*
X143033513Y-143599997D01*
X143766487Y-143599997D01*
X143766487Y-143600002D01*
X143784046Y-143722134D01*
X143832223Y-143827625D01*
X143835306Y-143834375D01*
X143916109Y-143927627D01*
X144019912Y-143994337D01*
X144138305Y-144029100D01*
X144138306Y-144029100D01*
X144261694Y-144029100D01*
X144261695Y-144029100D01*
X144380088Y-143994337D01*
X144483891Y-143927627D01*
X144564694Y-143834375D01*
X144615953Y-143722135D01*
X144630331Y-143622134D01*
X144633513Y-143600002D01*
X144633513Y-143599997D01*
X144615953Y-143477865D01*
X144590413Y-143421941D01*
X144564694Y-143365625D01*
X144483891Y-143272373D01*
X144455645Y-143254220D01*
X144380092Y-143205665D01*
X144380089Y-143205664D01*
X144380088Y-143205663D01*
X144320891Y-143188281D01*
X144261696Y-143170900D01*
X144261695Y-143170900D01*
X144138305Y-143170900D01*
X144138303Y-143170900D01*
X144019912Y-143205663D01*
X144019907Y-143205665D01*
X143916113Y-143272370D01*
X143916108Y-143272374D01*
X143835306Y-143365624D01*
X143784046Y-143477865D01*
X143766487Y-143599997D01*
X143033513Y-143599997D01*
X143015953Y-143477865D01*
X142990413Y-143421941D01*
X142964694Y-143365625D01*
X142883891Y-143272373D01*
X142855645Y-143254220D01*
X142780092Y-143205665D01*
X142780089Y-143205664D01*
X142780088Y-143205663D01*
X142720891Y-143188281D01*
X142661696Y-143170900D01*
X142661695Y-143170900D01*
X142538305Y-143170900D01*
X142538303Y-143170900D01*
X142419912Y-143205663D01*
X142419907Y-143205665D01*
X142316113Y-143272370D01*
X142316108Y-143272374D01*
X142235306Y-143365624D01*
X142184046Y-143477865D01*
X142166487Y-143599997D01*
X141133513Y-143599997D01*
X141115953Y-143477865D01*
X141090413Y-143421941D01*
X141064694Y-143365625D01*
X140983891Y-143272373D01*
X140955645Y-143254220D01*
X140880092Y-143205665D01*
X140880089Y-143205664D01*
X140880088Y-143205663D01*
X140820891Y-143188281D01*
X140761696Y-143170900D01*
X140761695Y-143170900D01*
X140638305Y-143170900D01*
X140638303Y-143170900D01*
X140519912Y-143205663D01*
X140519907Y-143205665D01*
X140416113Y-143272370D01*
X140416108Y-143272374D01*
X140335306Y-143365624D01*
X140284046Y-143477865D01*
X140266487Y-143599997D01*
X132000500Y-143599997D01*
X132000500Y-142699997D01*
X141166487Y-142699997D01*
X141166487Y-142700002D01*
X141184046Y-142822134D01*
X141232896Y-142929099D01*
X141235306Y-142934375D01*
X141316109Y-143027627D01*
X141383443Y-143070900D01*
X141418209Y-143093243D01*
X141419912Y-143094337D01*
X141538305Y-143129100D01*
X141538306Y-143129100D01*
X141661694Y-143129100D01*
X141661695Y-143129100D01*
X141780088Y-143094337D01*
X141883891Y-143027627D01*
X141964694Y-142934375D01*
X142015953Y-142822135D01*
X142033513Y-142700000D01*
X142033513Y-142699997D01*
X142966487Y-142699997D01*
X142966487Y-142700002D01*
X142984046Y-142822134D01*
X143032896Y-142929099D01*
X143035306Y-142934375D01*
X143116109Y-143027627D01*
X143183443Y-143070900D01*
X143218209Y-143093243D01*
X143219912Y-143094337D01*
X143338305Y-143129100D01*
X143338306Y-143129100D01*
X143461694Y-143129100D01*
X143461695Y-143129100D01*
X143580088Y-143094337D01*
X143683891Y-143027627D01*
X143764694Y-142934375D01*
X143815953Y-142822135D01*
X143833513Y-142700000D01*
X143833513Y-142699997D01*
X144366487Y-142699997D01*
X144366487Y-142700002D01*
X144384046Y-142822134D01*
X144432896Y-142929099D01*
X144435306Y-142934375D01*
X144516109Y-143027627D01*
X144583443Y-143070900D01*
X144618209Y-143093243D01*
X144619912Y-143094337D01*
X144738305Y-143129100D01*
X144738306Y-143129100D01*
X144861694Y-143129100D01*
X144861695Y-143129100D01*
X144980088Y-143094337D01*
X145083891Y-143027627D01*
X145164694Y-142934375D01*
X145215953Y-142822135D01*
X145233513Y-142700000D01*
X145233513Y-142699997D01*
X145566487Y-142699997D01*
X145566487Y-142700002D01*
X145584046Y-142822134D01*
X145632896Y-142929099D01*
X145635306Y-142934375D01*
X145716109Y-143027627D01*
X145783443Y-143070900D01*
X145818209Y-143093243D01*
X145819912Y-143094337D01*
X145938305Y-143129100D01*
X145938306Y-143129100D01*
X146061694Y-143129100D01*
X146061695Y-143129100D01*
X146180088Y-143094337D01*
X146283891Y-143027627D01*
X146364694Y-142934375D01*
X146415953Y-142822135D01*
X146433513Y-142700000D01*
X146415953Y-142577865D01*
X146364694Y-142465625D01*
X146283891Y-142372373D01*
X146255645Y-142354220D01*
X146180092Y-142305665D01*
X146180089Y-142305664D01*
X146180088Y-142305663D01*
X146120891Y-142288281D01*
X146061696Y-142270900D01*
X146061695Y-142270900D01*
X145938305Y-142270900D01*
X145938303Y-142270900D01*
X145819912Y-142305663D01*
X145819907Y-142305665D01*
X145716113Y-142372370D01*
X145716108Y-142372374D01*
X145635306Y-142465624D01*
X145584046Y-142577865D01*
X145566487Y-142699997D01*
X145233513Y-142699997D01*
X145215953Y-142577865D01*
X145164694Y-142465625D01*
X145083891Y-142372373D01*
X145055645Y-142354220D01*
X144980092Y-142305665D01*
X144980089Y-142305664D01*
X144980088Y-142305663D01*
X144920891Y-142288281D01*
X144861696Y-142270900D01*
X144861695Y-142270900D01*
X144738305Y-142270900D01*
X144738303Y-142270900D01*
X144619912Y-142305663D01*
X144619907Y-142305665D01*
X144516113Y-142372370D01*
X144516108Y-142372374D01*
X144435306Y-142465624D01*
X144384046Y-142577865D01*
X144366487Y-142699997D01*
X143833513Y-142699997D01*
X143815953Y-142577865D01*
X143764694Y-142465625D01*
X143683891Y-142372373D01*
X143655645Y-142354220D01*
X143580092Y-142305665D01*
X143580089Y-142305664D01*
X143580088Y-142305663D01*
X143520891Y-142288281D01*
X143461696Y-142270900D01*
X143461695Y-142270900D01*
X143338305Y-142270900D01*
X143338303Y-142270900D01*
X143219912Y-142305663D01*
X143219907Y-142305665D01*
X143116113Y-142372370D01*
X143116108Y-142372374D01*
X143035306Y-142465624D01*
X142984046Y-142577865D01*
X142966487Y-142699997D01*
X142033513Y-142699997D01*
X142015953Y-142577865D01*
X141964694Y-142465625D01*
X141883891Y-142372373D01*
X141855645Y-142354220D01*
X141780092Y-142305665D01*
X141780089Y-142305664D01*
X141780088Y-142305663D01*
X141720891Y-142288281D01*
X141661696Y-142270900D01*
X141661695Y-142270900D01*
X141538305Y-142270900D01*
X141538303Y-142270900D01*
X141419912Y-142305663D01*
X141419907Y-142305665D01*
X141316113Y-142372370D01*
X141316108Y-142372374D01*
X141235306Y-142465624D01*
X141184046Y-142577865D01*
X141166487Y-142699997D01*
X132000500Y-142699997D01*
X132000500Y-141499997D01*
X145566487Y-141499997D01*
X145566487Y-141500002D01*
X145584046Y-141622134D01*
X145617021Y-141694337D01*
X145635306Y-141734375D01*
X145716109Y-141827627D01*
X145819912Y-141894337D01*
X145938305Y-141929100D01*
X145938306Y-141929100D01*
X146061694Y-141929100D01*
X146061695Y-141929100D01*
X146180088Y-141894337D01*
X146283891Y-141827627D01*
X146364694Y-141734375D01*
X146415953Y-141622135D01*
X146433513Y-141500000D01*
X146433513Y-141499997D01*
X147066487Y-141499997D01*
X147066487Y-141500002D01*
X147084046Y-141622134D01*
X147117021Y-141694337D01*
X147135306Y-141734375D01*
X147216109Y-141827627D01*
X147319912Y-141894337D01*
X147356262Y-141905010D01*
X147406768Y-141939546D01*
X147427330Y-141997173D01*
X147410092Y-142055880D01*
X147361639Y-142093243D01*
X147356269Y-142094987D01*
X147319915Y-142105662D01*
X147319912Y-142105663D01*
X147319907Y-142105665D01*
X147216113Y-142172370D01*
X147216108Y-142172374D01*
X147135306Y-142265624D01*
X147084046Y-142377865D01*
X147066487Y-142499997D01*
X147066487Y-142500002D01*
X147084046Y-142622134D01*
X147090053Y-142635287D01*
X147135306Y-142734375D01*
X147216109Y-142827627D01*
X147319912Y-142894337D01*
X147356262Y-142905010D01*
X147406768Y-142939546D01*
X147427330Y-142997173D01*
X147410092Y-143055880D01*
X147361639Y-143093243D01*
X147356269Y-143094987D01*
X147319915Y-143105662D01*
X147319912Y-143105663D01*
X147319907Y-143105665D01*
X147216113Y-143172370D01*
X147216108Y-143172374D01*
X147135306Y-143265624D01*
X147084046Y-143377865D01*
X147066487Y-143499997D01*
X147066487Y-143500002D01*
X147084046Y-143622134D01*
X147090053Y-143635287D01*
X147135306Y-143734375D01*
X147216109Y-143827627D01*
X147319912Y-143894337D01*
X147356262Y-143905010D01*
X147406768Y-143939546D01*
X147427330Y-143997173D01*
X147410092Y-144055880D01*
X147361639Y-144093243D01*
X147356269Y-144094987D01*
X147319915Y-144105662D01*
X147319912Y-144105663D01*
X147319907Y-144105665D01*
X147216113Y-144172370D01*
X147216108Y-144172374D01*
X147135306Y-144265624D01*
X147084046Y-144377865D01*
X147066487Y-144499997D01*
X147066487Y-144500002D01*
X147084046Y-144622134D01*
X147090053Y-144635287D01*
X147135306Y-144734375D01*
X147216109Y-144827627D01*
X147319912Y-144894337D01*
X147438305Y-144929100D01*
X147438306Y-144929100D01*
X147561694Y-144929100D01*
X147561695Y-144929100D01*
X147680088Y-144894337D01*
X147783891Y-144827627D01*
X147864694Y-144734375D01*
X147909947Y-144635287D01*
X147951319Y-144590209D01*
X148011286Y-144578058D01*
X148066942Y-144603476D01*
X148090053Y-144635287D01*
X148135304Y-144734373D01*
X148135305Y-144734374D01*
X148135306Y-144734375D01*
X148216109Y-144827627D01*
X148319912Y-144894337D01*
X148438305Y-144929100D01*
X148438306Y-144929100D01*
X148561694Y-144929100D01*
X148561695Y-144929100D01*
X148680088Y-144894337D01*
X148783891Y-144827627D01*
X148807832Y-144799997D01*
X151366487Y-144799997D01*
X151366487Y-144800002D01*
X151384046Y-144922134D01*
X151426743Y-145015625D01*
X151435306Y-145034375D01*
X151516109Y-145127627D01*
X151577711Y-145167216D01*
X151619905Y-145194333D01*
X151619912Y-145194337D01*
X151738305Y-145229100D01*
X151738306Y-145229100D01*
X151861694Y-145229100D01*
X151861695Y-145229100D01*
X151980088Y-145194337D01*
X152083891Y-145127627D01*
X152164694Y-145034375D01*
X152215953Y-144922135D01*
X152233513Y-144800000D01*
X152224077Y-144734373D01*
X152215953Y-144677865D01*
X152196508Y-144635287D01*
X152164694Y-144565625D01*
X152083891Y-144472373D01*
X152055645Y-144454220D01*
X151980092Y-144405665D01*
X151980089Y-144405664D01*
X151980088Y-144405663D01*
X151885416Y-144377865D01*
X151861696Y-144370900D01*
X151861695Y-144370900D01*
X151738305Y-144370900D01*
X151738303Y-144370900D01*
X151619912Y-144405663D01*
X151619907Y-144405665D01*
X151516113Y-144472370D01*
X151516108Y-144472374D01*
X151435306Y-144565624D01*
X151384046Y-144677865D01*
X151366487Y-144799997D01*
X148807832Y-144799997D01*
X148864694Y-144734375D01*
X148915953Y-144622135D01*
X148933513Y-144500000D01*
X148929540Y-144472370D01*
X148915953Y-144377865D01*
X148909947Y-144364713D01*
X148864694Y-144265625D01*
X148783891Y-144172373D01*
X148755645Y-144154220D01*
X148680092Y-144105665D01*
X148680089Y-144105663D01*
X148680088Y-144105663D01*
X148643737Y-144094989D01*
X148593231Y-144060455D01*
X148572669Y-144002828D01*
X148589907Y-143944121D01*
X148638360Y-143906758D01*
X148643730Y-143905012D01*
X148680088Y-143894337D01*
X148783891Y-143827627D01*
X148864694Y-143734375D01*
X148915953Y-143622135D01*
X148919136Y-143599997D01*
X151366487Y-143599997D01*
X151366487Y-143600002D01*
X151384046Y-143722134D01*
X151432223Y-143827625D01*
X151435306Y-143834375D01*
X151516109Y-143927627D01*
X151619912Y-143994337D01*
X151738305Y-144029100D01*
X151738306Y-144029100D01*
X151861694Y-144029100D01*
X151861695Y-144029100D01*
X151980088Y-143994337D01*
X152083891Y-143927627D01*
X152164694Y-143834375D01*
X152215953Y-143722135D01*
X152230331Y-143622134D01*
X152233513Y-143600002D01*
X152233513Y-143599997D01*
X152866487Y-143599997D01*
X152866487Y-143600002D01*
X152884046Y-143722134D01*
X152932223Y-143827625D01*
X152935306Y-143834375D01*
X153016109Y-143927627D01*
X153119912Y-143994337D01*
X153238305Y-144029100D01*
X153238306Y-144029100D01*
X153361694Y-144029100D01*
X153361695Y-144029100D01*
X153480088Y-143994337D01*
X153583891Y-143927627D01*
X153664694Y-143834375D01*
X153715953Y-143722135D01*
X153730331Y-143622134D01*
X153733513Y-143600002D01*
X153733513Y-143599997D01*
X154466487Y-143599997D01*
X154466487Y-143600002D01*
X154484046Y-143722134D01*
X154532223Y-143827625D01*
X154535306Y-143834375D01*
X154616109Y-143927627D01*
X154719912Y-143994337D01*
X154838305Y-144029100D01*
X154838306Y-144029100D01*
X154961694Y-144029100D01*
X154961695Y-144029100D01*
X155080088Y-143994337D01*
X155183891Y-143927627D01*
X155264694Y-143834375D01*
X155315953Y-143722135D01*
X155330331Y-143622134D01*
X155333513Y-143600002D01*
X155333513Y-143599997D01*
X155315953Y-143477865D01*
X155290413Y-143421941D01*
X155264694Y-143365625D01*
X155183891Y-143272373D01*
X155155645Y-143254220D01*
X155080092Y-143205665D01*
X155080089Y-143205664D01*
X155080088Y-143205663D01*
X155020891Y-143188281D01*
X154961696Y-143170900D01*
X154961695Y-143170900D01*
X154838305Y-143170900D01*
X154838303Y-143170900D01*
X154719912Y-143205663D01*
X154719907Y-143205665D01*
X154616113Y-143272370D01*
X154616108Y-143272374D01*
X154535306Y-143365624D01*
X154484046Y-143477865D01*
X154466487Y-143599997D01*
X153733513Y-143599997D01*
X153715953Y-143477865D01*
X153690413Y-143421941D01*
X153664694Y-143365625D01*
X153583891Y-143272373D01*
X153555645Y-143254220D01*
X153480092Y-143205665D01*
X153480089Y-143205664D01*
X153480088Y-143205663D01*
X153420891Y-143188281D01*
X153361696Y-143170900D01*
X153361695Y-143170900D01*
X153238305Y-143170900D01*
X153238303Y-143170900D01*
X153119912Y-143205663D01*
X153119907Y-143205665D01*
X153016113Y-143272370D01*
X153016108Y-143272374D01*
X152935306Y-143365624D01*
X152884046Y-143477865D01*
X152866487Y-143599997D01*
X152233513Y-143599997D01*
X152215953Y-143477865D01*
X152190413Y-143421941D01*
X152164694Y-143365625D01*
X152083891Y-143272373D01*
X152055645Y-143254220D01*
X151980092Y-143205665D01*
X151980089Y-143205664D01*
X151980088Y-143205663D01*
X151920891Y-143188281D01*
X151861696Y-143170900D01*
X151861695Y-143170900D01*
X151738305Y-143170900D01*
X151738303Y-143170900D01*
X151619912Y-143205663D01*
X151619907Y-143205665D01*
X151516113Y-143272370D01*
X151516108Y-143272374D01*
X151435306Y-143365624D01*
X151384046Y-143477865D01*
X151366487Y-143599997D01*
X148919136Y-143599997D01*
X148933513Y-143500000D01*
X148915953Y-143377865D01*
X148864694Y-143265625D01*
X148783891Y-143172373D01*
X148716557Y-143129100D01*
X148680092Y-143105665D01*
X148680089Y-143105663D01*
X148680088Y-143105663D01*
X148643737Y-143094989D01*
X148593231Y-143060455D01*
X148572669Y-143002828D01*
X148589907Y-142944121D01*
X148638360Y-142906758D01*
X148643730Y-142905012D01*
X148680088Y-142894337D01*
X148783891Y-142827627D01*
X148864694Y-142734375D01*
X148880394Y-142699997D01*
X149566487Y-142699997D01*
X149566487Y-142700002D01*
X149584046Y-142822134D01*
X149632896Y-142929099D01*
X149635306Y-142934375D01*
X149716109Y-143027627D01*
X149783443Y-143070900D01*
X149818209Y-143093243D01*
X149819912Y-143094337D01*
X149938305Y-143129100D01*
X149938306Y-143129100D01*
X150061694Y-143129100D01*
X150061695Y-143129100D01*
X150180088Y-143094337D01*
X150283891Y-143027627D01*
X150364694Y-142934375D01*
X150415953Y-142822135D01*
X150433513Y-142700000D01*
X150433513Y-142699997D01*
X150766487Y-142699997D01*
X150766487Y-142700002D01*
X150784046Y-142822134D01*
X150832896Y-142929099D01*
X150835306Y-142934375D01*
X150916109Y-143027627D01*
X150983443Y-143070900D01*
X151018209Y-143093243D01*
X151019912Y-143094337D01*
X151138305Y-143129100D01*
X151138306Y-143129100D01*
X151261694Y-143129100D01*
X151261695Y-143129100D01*
X151380088Y-143094337D01*
X151483891Y-143027627D01*
X151564694Y-142934375D01*
X151615953Y-142822135D01*
X151633513Y-142700000D01*
X151633513Y-142699997D01*
X152166487Y-142699997D01*
X152166487Y-142700002D01*
X152184046Y-142822134D01*
X152232896Y-142929099D01*
X152235306Y-142934375D01*
X152316109Y-143027627D01*
X152383443Y-143070900D01*
X152418209Y-143093243D01*
X152419912Y-143094337D01*
X152538305Y-143129100D01*
X152538306Y-143129100D01*
X152661694Y-143129100D01*
X152661695Y-143129100D01*
X152780088Y-143094337D01*
X152883891Y-143027627D01*
X152964694Y-142934375D01*
X153015953Y-142822135D01*
X153033513Y-142700000D01*
X153033513Y-142699997D01*
X153566487Y-142699997D01*
X153566487Y-142700002D01*
X153584046Y-142822134D01*
X153632896Y-142929099D01*
X153635306Y-142934375D01*
X153716109Y-143027627D01*
X153783443Y-143070900D01*
X153818209Y-143093243D01*
X153819912Y-143094337D01*
X153938305Y-143129100D01*
X153938306Y-143129100D01*
X154061694Y-143129100D01*
X154061695Y-143129100D01*
X154180088Y-143094337D01*
X154283891Y-143027627D01*
X154364694Y-142934375D01*
X154415953Y-142822135D01*
X154433513Y-142700000D01*
X154415953Y-142577865D01*
X154380391Y-142499997D01*
X158566487Y-142499997D01*
X158566487Y-142500002D01*
X158584046Y-142622134D01*
X158590053Y-142635287D01*
X158635306Y-142734375D01*
X158716109Y-142827627D01*
X158819912Y-142894337D01*
X158938305Y-142929100D01*
X158938306Y-142929100D01*
X159061694Y-142929100D01*
X159061695Y-142929100D01*
X159180088Y-142894337D01*
X159283891Y-142827627D01*
X159364694Y-142734375D01*
X159415953Y-142622135D01*
X159433513Y-142500000D01*
X159433513Y-142499997D01*
X161566487Y-142499997D01*
X161566487Y-142500002D01*
X161584046Y-142622134D01*
X161590053Y-142635287D01*
X161635306Y-142734375D01*
X161716109Y-142827627D01*
X161819912Y-142894337D01*
X161938305Y-142929100D01*
X161938306Y-142929100D01*
X162061694Y-142929100D01*
X162061695Y-142929100D01*
X162180088Y-142894337D01*
X162283891Y-142827627D01*
X162364694Y-142734375D01*
X162415953Y-142622135D01*
X162433513Y-142500000D01*
X162415953Y-142377865D01*
X162364694Y-142265625D01*
X162283891Y-142172373D01*
X162255645Y-142154220D01*
X162180092Y-142105665D01*
X162180089Y-142105664D01*
X162180088Y-142105663D01*
X162120891Y-142088281D01*
X162061696Y-142070900D01*
X162061695Y-142070900D01*
X161938305Y-142070900D01*
X161938303Y-142070900D01*
X161819912Y-142105663D01*
X161819907Y-142105665D01*
X161716113Y-142172370D01*
X161716108Y-142172374D01*
X161635306Y-142265624D01*
X161584046Y-142377865D01*
X161566487Y-142499997D01*
X159433513Y-142499997D01*
X159415953Y-142377865D01*
X159364694Y-142265625D01*
X159283891Y-142172373D01*
X159255645Y-142154220D01*
X159180092Y-142105665D01*
X159180089Y-142105664D01*
X159180088Y-142105663D01*
X159120891Y-142088281D01*
X159061696Y-142070900D01*
X159061695Y-142070900D01*
X158938305Y-142070900D01*
X158938303Y-142070900D01*
X158819912Y-142105663D01*
X158819907Y-142105665D01*
X158716113Y-142172370D01*
X158716108Y-142172374D01*
X158635306Y-142265624D01*
X158584046Y-142377865D01*
X158566487Y-142499997D01*
X154380391Y-142499997D01*
X154364694Y-142465625D01*
X154283891Y-142372373D01*
X154255645Y-142354220D01*
X154180092Y-142305665D01*
X154180089Y-142305664D01*
X154180088Y-142305663D01*
X154120891Y-142288281D01*
X154061696Y-142270900D01*
X154061695Y-142270900D01*
X153938305Y-142270900D01*
X153938303Y-142270900D01*
X153819912Y-142305663D01*
X153819907Y-142305665D01*
X153716113Y-142372370D01*
X153716108Y-142372374D01*
X153635306Y-142465624D01*
X153584046Y-142577865D01*
X153566487Y-142699997D01*
X153033513Y-142699997D01*
X153015953Y-142577865D01*
X152964694Y-142465625D01*
X152883891Y-142372373D01*
X152855645Y-142354220D01*
X152780092Y-142305665D01*
X152780089Y-142305664D01*
X152780088Y-142305663D01*
X152720891Y-142288281D01*
X152661696Y-142270900D01*
X152661695Y-142270900D01*
X152538305Y-142270900D01*
X152538303Y-142270900D01*
X152419912Y-142305663D01*
X152419907Y-142305665D01*
X152316113Y-142372370D01*
X152316108Y-142372374D01*
X152235306Y-142465624D01*
X152184046Y-142577865D01*
X152166487Y-142699997D01*
X151633513Y-142699997D01*
X151615953Y-142577865D01*
X151564694Y-142465625D01*
X151483891Y-142372373D01*
X151455645Y-142354220D01*
X151380092Y-142305665D01*
X151380089Y-142305664D01*
X151380088Y-142305663D01*
X151320891Y-142288281D01*
X151261696Y-142270900D01*
X151261695Y-142270900D01*
X151138305Y-142270900D01*
X151138303Y-142270900D01*
X151019912Y-142305663D01*
X151019907Y-142305665D01*
X150916113Y-142372370D01*
X150916108Y-142372374D01*
X150835306Y-142465624D01*
X150784046Y-142577865D01*
X150766487Y-142699997D01*
X150433513Y-142699997D01*
X150415953Y-142577865D01*
X150364694Y-142465625D01*
X150283891Y-142372373D01*
X150255645Y-142354220D01*
X150180092Y-142305665D01*
X150180089Y-142305664D01*
X150180088Y-142305663D01*
X150120891Y-142288281D01*
X150061696Y-142270900D01*
X150061695Y-142270900D01*
X149938305Y-142270900D01*
X149938303Y-142270900D01*
X149819912Y-142305663D01*
X149819907Y-142305665D01*
X149716113Y-142372370D01*
X149716108Y-142372374D01*
X149635306Y-142465624D01*
X149584046Y-142577865D01*
X149566487Y-142699997D01*
X148880394Y-142699997D01*
X148915953Y-142622135D01*
X148933513Y-142500000D01*
X148915953Y-142377865D01*
X148864694Y-142265625D01*
X148783891Y-142172373D01*
X148755645Y-142154220D01*
X148680092Y-142105665D01*
X148680089Y-142105663D01*
X148680088Y-142105663D01*
X148643737Y-142094989D01*
X148593231Y-142060455D01*
X148572669Y-142002828D01*
X148589907Y-141944121D01*
X148638360Y-141906758D01*
X148643730Y-141905012D01*
X148680088Y-141894337D01*
X148783891Y-141827627D01*
X148864694Y-141734375D01*
X148915953Y-141622135D01*
X148933513Y-141500000D01*
X148915953Y-141377865D01*
X148880391Y-141299997D01*
X149566487Y-141299997D01*
X149566487Y-141300002D01*
X149584046Y-141422134D01*
X149619606Y-141499997D01*
X149635306Y-141534375D01*
X149716109Y-141627627D01*
X149819912Y-141694337D01*
X149938305Y-141729100D01*
X149938306Y-141729100D01*
X150061694Y-141729100D01*
X150061695Y-141729100D01*
X150180088Y-141694337D01*
X150283891Y-141627627D01*
X150364694Y-141534375D01*
X150415953Y-141422135D01*
X150433513Y-141300000D01*
X150415953Y-141177865D01*
X150364694Y-141065625D01*
X150283891Y-140972373D01*
X150216557Y-140929100D01*
X150180092Y-140905665D01*
X150180089Y-140905664D01*
X150180088Y-140905663D01*
X150120891Y-140888281D01*
X150061696Y-140870900D01*
X150061695Y-140870900D01*
X149938305Y-140870900D01*
X149938303Y-140870900D01*
X149819912Y-140905663D01*
X149819907Y-140905665D01*
X149716113Y-140972370D01*
X149716108Y-140972374D01*
X149635306Y-141065624D01*
X149584046Y-141177865D01*
X149566487Y-141299997D01*
X148880391Y-141299997D01*
X148864694Y-141265625D01*
X148783891Y-141172373D01*
X148755645Y-141154220D01*
X148680092Y-141105665D01*
X148680089Y-141105664D01*
X148680088Y-141105663D01*
X148620891Y-141088281D01*
X148561696Y-141070900D01*
X148561695Y-141070900D01*
X148438305Y-141070900D01*
X148438303Y-141070900D01*
X148319912Y-141105663D01*
X148319907Y-141105665D01*
X148216113Y-141172370D01*
X148216108Y-141172374D01*
X148135306Y-141265624D01*
X148090053Y-141364713D01*
X148048681Y-141409790D01*
X147988714Y-141421941D01*
X147933058Y-141396523D01*
X147909947Y-141364713D01*
X147890749Y-141322678D01*
X147864694Y-141265625D01*
X147783891Y-141172373D01*
X147755645Y-141154220D01*
X147680092Y-141105665D01*
X147680089Y-141105664D01*
X147680088Y-141105663D01*
X147620891Y-141088281D01*
X147561696Y-141070900D01*
X147561695Y-141070900D01*
X147438305Y-141070900D01*
X147438303Y-141070900D01*
X147319912Y-141105663D01*
X147319907Y-141105665D01*
X147216113Y-141172370D01*
X147216108Y-141172374D01*
X147135306Y-141265624D01*
X147084046Y-141377865D01*
X147066487Y-141499997D01*
X146433513Y-141499997D01*
X146415953Y-141377865D01*
X146364694Y-141265625D01*
X146283891Y-141172373D01*
X146255645Y-141154220D01*
X146180092Y-141105665D01*
X146180089Y-141105664D01*
X146180088Y-141105663D01*
X146120891Y-141088281D01*
X146061696Y-141070900D01*
X146061695Y-141070900D01*
X145938305Y-141070900D01*
X145938303Y-141070900D01*
X145819912Y-141105663D01*
X145819907Y-141105665D01*
X145716113Y-141172370D01*
X145716108Y-141172374D01*
X145635306Y-141265624D01*
X145584046Y-141377865D01*
X145566487Y-141499997D01*
X132000500Y-141499997D01*
X132000500Y-140499997D01*
X154316487Y-140499997D01*
X154316487Y-140500002D01*
X154334046Y-140622134D01*
X154385306Y-140734375D01*
X154466109Y-140827627D01*
X154569912Y-140894337D01*
X154688305Y-140929100D01*
X154688306Y-140929100D01*
X154811694Y-140929100D01*
X154811695Y-140929100D01*
X154930088Y-140894337D01*
X155033891Y-140827627D01*
X155114694Y-140734375D01*
X155165953Y-140622135D01*
X155183513Y-140500000D01*
X155165953Y-140377865D01*
X155114694Y-140265625D01*
X155033891Y-140172373D01*
X155005645Y-140154220D01*
X154930092Y-140105665D01*
X154930089Y-140105664D01*
X154930088Y-140105663D01*
X154857587Y-140084375D01*
X154811696Y-140070900D01*
X154811695Y-140070900D01*
X154688305Y-140070900D01*
X154688303Y-140070900D01*
X154569912Y-140105663D01*
X154569907Y-140105665D01*
X154466113Y-140172370D01*
X154466108Y-140172374D01*
X154385306Y-140265624D01*
X154334046Y-140377865D01*
X154316487Y-140499997D01*
X132000500Y-140499997D01*
X132000500Y-138349997D01*
X150766487Y-138349997D01*
X150766487Y-138350002D01*
X150784046Y-138472134D01*
X150835305Y-138584373D01*
X150835306Y-138584375D01*
X150916109Y-138677627D01*
X151019912Y-138744337D01*
X151138305Y-138779100D01*
X151138306Y-138779100D01*
X151223478Y-138779100D01*
X151281669Y-138798007D01*
X151317633Y-138847507D01*
X151317633Y-138908693D01*
X151298299Y-138942926D01*
X151244128Y-139005445D01*
X151235305Y-139015627D01*
X151184046Y-139127866D01*
X151166487Y-139249998D01*
X151166487Y-139250003D01*
X151184046Y-139372135D01*
X151218609Y-139447815D01*
X151235306Y-139484376D01*
X151316109Y-139577628D01*
X151419912Y-139644338D01*
X151538305Y-139679101D01*
X151538306Y-139679101D01*
X151661694Y-139679101D01*
X151661695Y-139679101D01*
X151753363Y-139652185D01*
X151814520Y-139653932D01*
X151862973Y-139691294D01*
X151880212Y-139750001D01*
X151879244Y-139761263D01*
X151866487Y-139849996D01*
X151866487Y-139850002D01*
X151884046Y-139972134D01*
X151929152Y-140070900D01*
X151935306Y-140084375D01*
X152016109Y-140177627D01*
X152119912Y-140244337D01*
X152238305Y-140279100D01*
X152238306Y-140279100D01*
X152361694Y-140279100D01*
X152361695Y-140279100D01*
X152480088Y-140244337D01*
X152583891Y-140177627D01*
X152664694Y-140084375D01*
X152715953Y-139972135D01*
X152722141Y-139929099D01*
X152733513Y-139850002D01*
X152733513Y-139849997D01*
X152715953Y-139727865D01*
X152682188Y-139653932D01*
X152664694Y-139615625D01*
X152583891Y-139522373D01*
X152549073Y-139499997D01*
X155816487Y-139499997D01*
X155816487Y-139500002D01*
X155834046Y-139622134D01*
X155848568Y-139653932D01*
X155885306Y-139734375D01*
X155966109Y-139827627D01*
X156069912Y-139894337D01*
X156188305Y-139929100D01*
X156188306Y-139929100D01*
X156311694Y-139929100D01*
X156311695Y-139929100D01*
X156430088Y-139894337D01*
X156533891Y-139827627D01*
X156614694Y-139734375D01*
X156665953Y-139622135D01*
X156680296Y-139522374D01*
X156683513Y-139500002D01*
X156683513Y-139499997D01*
X158566487Y-139499997D01*
X158566487Y-139500002D01*
X158584046Y-139622134D01*
X158598568Y-139653932D01*
X158635306Y-139734375D01*
X158716109Y-139827627D01*
X158819912Y-139894337D01*
X158938305Y-139929100D01*
X158938306Y-139929100D01*
X159061694Y-139929100D01*
X159061695Y-139929100D01*
X159180088Y-139894337D01*
X159283891Y-139827627D01*
X159364694Y-139734375D01*
X159415953Y-139622135D01*
X159430296Y-139522374D01*
X159433513Y-139500002D01*
X159433513Y-139499997D01*
X159415953Y-139377865D01*
X159398083Y-139338736D01*
X159364694Y-139265625D01*
X159283891Y-139172373D01*
X159218351Y-139130253D01*
X160949500Y-139130253D01*
X160949500Y-140869746D01*
X160949501Y-140869758D01*
X160961132Y-140928227D01*
X160961134Y-140928233D01*
X160990626Y-140972370D01*
X161005448Y-140994552D01*
X161071769Y-141038867D01*
X161116231Y-141047711D01*
X161130241Y-141050498D01*
X161130246Y-141050498D01*
X161130252Y-141050500D01*
X161130253Y-141050500D01*
X162869747Y-141050500D01*
X162869748Y-141050500D01*
X162928231Y-141038867D01*
X162994552Y-140994552D01*
X163038867Y-140928231D01*
X163050500Y-140869748D01*
X163050500Y-139130252D01*
X163050025Y-139127866D01*
X163045609Y-139105663D01*
X163038867Y-139071769D01*
X162994552Y-139005448D01*
X162994548Y-139005445D01*
X162928233Y-138961134D01*
X162928231Y-138961133D01*
X162928228Y-138961132D01*
X162928227Y-138961132D01*
X162869758Y-138949501D01*
X162869748Y-138949500D01*
X161130252Y-138949500D01*
X161130251Y-138949500D01*
X161130241Y-138949501D01*
X161071772Y-138961132D01*
X161071766Y-138961134D01*
X161005451Y-139005445D01*
X161005445Y-139005451D01*
X160961134Y-139071766D01*
X160961132Y-139071772D01*
X160949501Y-139130241D01*
X160949500Y-139130253D01*
X159218351Y-139130253D01*
X159180092Y-139105665D01*
X159180089Y-139105664D01*
X159180088Y-139105663D01*
X159120891Y-139088281D01*
X159061696Y-139070900D01*
X159061695Y-139070900D01*
X158938305Y-139070900D01*
X158938303Y-139070900D01*
X158819912Y-139105663D01*
X158819907Y-139105665D01*
X158716113Y-139172370D01*
X158716108Y-139172374D01*
X158635306Y-139265624D01*
X158584046Y-139377865D01*
X158566487Y-139499997D01*
X156683513Y-139499997D01*
X156665953Y-139377865D01*
X156648083Y-139338736D01*
X156614694Y-139265625D01*
X156533891Y-139172373D01*
X156468351Y-139130253D01*
X156430092Y-139105665D01*
X156430089Y-139105664D01*
X156430088Y-139105663D01*
X156370891Y-139088281D01*
X156311696Y-139070900D01*
X156311695Y-139070900D01*
X156188305Y-139070900D01*
X156188303Y-139070900D01*
X156069912Y-139105663D01*
X156069907Y-139105665D01*
X155966113Y-139172370D01*
X155966108Y-139172374D01*
X155885306Y-139265624D01*
X155834046Y-139377865D01*
X155816487Y-139499997D01*
X152549073Y-139499997D01*
X152480092Y-139455665D01*
X152480089Y-139455664D01*
X152480088Y-139455663D01*
X152420891Y-139438281D01*
X152361696Y-139420900D01*
X152361695Y-139420900D01*
X152238305Y-139420900D01*
X152238301Y-139420900D01*
X152146638Y-139447815D01*
X152085478Y-139446067D01*
X152037025Y-139408705D01*
X152019787Y-139349998D01*
X152020755Y-139338736D01*
X152033513Y-139250002D01*
X152033513Y-139249998D01*
X152015953Y-139127866D01*
X151990334Y-139071769D01*
X151964694Y-139015626D01*
X151883891Y-138922374D01*
X151855645Y-138904221D01*
X151780092Y-138855666D01*
X151780089Y-138855665D01*
X151780088Y-138855664D01*
X151720891Y-138838282D01*
X151661696Y-138820901D01*
X151661695Y-138820901D01*
X151576522Y-138820901D01*
X151518331Y-138801994D01*
X151482367Y-138752494D01*
X151482367Y-138691308D01*
X151501700Y-138657074D01*
X151564694Y-138584375D01*
X151615953Y-138472135D01*
X151633513Y-138350000D01*
X151615953Y-138227865D01*
X151564694Y-138115625D01*
X151483891Y-138022373D01*
X151455645Y-138004220D01*
X151380092Y-137955665D01*
X151380089Y-137955664D01*
X151380088Y-137955663D01*
X151320891Y-137938281D01*
X151261696Y-137920900D01*
X151261695Y-137920900D01*
X151138305Y-137920900D01*
X151138303Y-137920900D01*
X151019912Y-137955663D01*
X151019907Y-137955665D01*
X150916113Y-138022370D01*
X150916108Y-138022374D01*
X150835306Y-138115624D01*
X150784046Y-138227865D01*
X150766487Y-138349997D01*
X132000500Y-138349997D01*
X132000500Y-134919996D01*
X160944417Y-134919996D01*
X160944417Y-134920003D01*
X160964698Y-135125929D01*
X160964699Y-135125934D01*
X161024768Y-135323954D01*
X161122316Y-135506452D01*
X161253585Y-135666404D01*
X161253590Y-135666410D01*
X161253595Y-135666414D01*
X161413547Y-135797683D01*
X161413548Y-135797683D01*
X161413550Y-135797685D01*
X161596046Y-135895232D01*
X161733997Y-135937078D01*
X161794065Y-135955300D01*
X161794070Y-135955301D01*
X161999997Y-135975583D01*
X162000000Y-135975583D01*
X162000003Y-135975583D01*
X162205929Y-135955301D01*
X162205934Y-135955300D01*
X162403954Y-135895232D01*
X162586450Y-135797685D01*
X162746410Y-135666410D01*
X162877685Y-135506450D01*
X162975232Y-135323954D01*
X163035300Y-135125934D01*
X163035301Y-135125929D01*
X163055583Y-134920003D01*
X163055583Y-134919996D01*
X163035301Y-134714070D01*
X163035300Y-134714065D01*
X163017078Y-134653997D01*
X162975232Y-134516046D01*
X162877685Y-134333550D01*
X162746410Y-134173590D01*
X162699014Y-134134693D01*
X162586452Y-134042316D01*
X162403954Y-133944768D01*
X162205934Y-133884699D01*
X162205929Y-133884698D01*
X162000003Y-133864417D01*
X161999997Y-133864417D01*
X161794070Y-133884698D01*
X161794065Y-133884699D01*
X161596045Y-133944768D01*
X161413547Y-134042316D01*
X161253595Y-134173585D01*
X161253585Y-134173595D01*
X161122316Y-134333547D01*
X161024768Y-134516045D01*
X160964699Y-134714065D01*
X160964698Y-134714070D01*
X160944417Y-134919996D01*
X132000500Y-134919996D01*
X132000500Y-130595727D01*
X132599500Y-130595727D01*
X132599500Y-134104272D01*
X132602353Y-134134693D01*
X132602355Y-134134702D01*
X132647206Y-134262880D01*
X132647207Y-134262881D01*
X132727851Y-134372149D01*
X132837119Y-134452793D01*
X132965302Y-134497646D01*
X132995727Y-134500499D01*
X132995729Y-134500500D01*
X132995736Y-134500500D01*
X136504271Y-134500500D01*
X136504271Y-134500499D01*
X136534698Y-134497646D01*
X136662881Y-134452793D01*
X136772149Y-134372149D01*
X136852793Y-134262881D01*
X136897646Y-134134698D01*
X136900499Y-134104271D01*
X136900500Y-134104271D01*
X136900500Y-132849997D01*
X144766487Y-132849997D01*
X144766487Y-132850002D01*
X144784046Y-132972134D01*
X144835306Y-133084375D01*
X144916109Y-133177627D01*
X145019912Y-133244337D01*
X145138305Y-133279100D01*
X145138306Y-133279100D01*
X145261694Y-133279100D01*
X145261695Y-133279100D01*
X145380088Y-133244337D01*
X145483891Y-133177627D01*
X145564694Y-133084375D01*
X145615953Y-132972135D01*
X145633513Y-132850000D01*
X145632698Y-132844334D01*
X145615953Y-132727865D01*
X145564694Y-132615625D01*
X145483891Y-132522373D01*
X145416557Y-132479100D01*
X145380092Y-132455665D01*
X145380089Y-132455664D01*
X145380088Y-132455663D01*
X145360792Y-132449997D01*
X145966487Y-132449997D01*
X145966487Y-132450002D01*
X145984046Y-132572134D01*
X146003908Y-132615624D01*
X146035306Y-132684375D01*
X146116109Y-132777627D01*
X146219912Y-132844337D01*
X146338305Y-132879100D01*
X146338306Y-132879100D01*
X146461694Y-132879100D01*
X146461695Y-132879100D01*
X146580088Y-132844337D01*
X146683891Y-132777627D01*
X146764694Y-132684375D01*
X146815953Y-132572135D01*
X146815953Y-132572132D01*
X146817937Y-132565377D01*
X146852470Y-132514869D01*
X146910096Y-132494305D01*
X146966451Y-132509980D01*
X147019907Y-132544334D01*
X147019912Y-132544337D01*
X147138305Y-132579100D01*
X147138306Y-132579100D01*
X147261694Y-132579100D01*
X147261695Y-132579100D01*
X147380088Y-132544337D01*
X147483891Y-132477627D01*
X147564694Y-132384375D01*
X147580394Y-132349997D01*
X147609947Y-132285287D01*
X147651319Y-132240209D01*
X147711286Y-132228058D01*
X147766942Y-132253476D01*
X147790053Y-132285287D01*
X147835304Y-132384373D01*
X147835305Y-132384374D01*
X147835306Y-132384375D01*
X147916109Y-132477627D01*
X148019912Y-132544337D01*
X148138305Y-132579100D01*
X148138306Y-132579100D01*
X148261694Y-132579100D01*
X148261695Y-132579100D01*
X148380088Y-132544337D01*
X148483891Y-132477627D01*
X148564694Y-132384375D01*
X148615953Y-132272135D01*
X148624078Y-132215624D01*
X148633513Y-132150002D01*
X148633513Y-132149998D01*
X148625032Y-132091010D01*
X148635465Y-132030721D01*
X148679343Y-131988078D01*
X148731224Y-131979861D01*
X148731224Y-131979100D01*
X148736033Y-131979100D01*
X148737113Y-131978929D01*
X148738302Y-131979100D01*
X148738305Y-131979100D01*
X148861694Y-131979100D01*
X148861695Y-131979100D01*
X148980088Y-131944337D01*
X149083891Y-131877627D01*
X149111733Y-131845494D01*
X149164124Y-131813901D01*
X149225085Y-131819136D01*
X149271326Y-131859203D01*
X149285186Y-131918798D01*
X149284542Y-131924416D01*
X149276571Y-131979861D01*
X149266488Y-132049997D01*
X149266487Y-132050002D01*
X149284046Y-132172134D01*
X149315136Y-132240209D01*
X149335306Y-132284375D01*
X149416109Y-132377627D01*
X149519912Y-132444337D01*
X149638305Y-132479100D01*
X149638306Y-132479100D01*
X149761694Y-132479100D01*
X149761695Y-132479100D01*
X149880088Y-132444337D01*
X149983891Y-132377627D01*
X150007832Y-132349997D01*
X150366487Y-132349997D01*
X150366487Y-132350002D01*
X150384046Y-132472134D01*
X150417021Y-132544337D01*
X150435306Y-132584375D01*
X150516109Y-132677627D01*
X150619912Y-132744337D01*
X150738305Y-132779100D01*
X150738306Y-132779100D01*
X150861694Y-132779100D01*
X150861695Y-132779100D01*
X150980088Y-132744337D01*
X151083891Y-132677627D01*
X151164694Y-132584375D01*
X151215953Y-132472135D01*
X151229200Y-132379996D01*
X160944417Y-132379996D01*
X160944417Y-132380003D01*
X160964698Y-132585929D01*
X160964699Y-132585934D01*
X161024768Y-132783954D01*
X161122316Y-132966452D01*
X161219093Y-133084375D01*
X161253590Y-133126410D01*
X161253595Y-133126414D01*
X161413547Y-133257683D01*
X161413548Y-133257683D01*
X161413550Y-133257685D01*
X161596046Y-133355232D01*
X161733997Y-133397078D01*
X161794065Y-133415300D01*
X161794070Y-133415301D01*
X161999997Y-133435583D01*
X162000000Y-133435583D01*
X162000003Y-133435583D01*
X162205929Y-133415301D01*
X162205934Y-133415300D01*
X162403954Y-133355232D01*
X162586450Y-133257685D01*
X162746410Y-133126410D01*
X162877685Y-132966450D01*
X162975232Y-132783954D01*
X163035300Y-132585934D01*
X163035301Y-132585929D01*
X163055583Y-132380003D01*
X163055583Y-132379996D01*
X163035301Y-132174070D01*
X163035300Y-132174065D01*
X163014560Y-132105695D01*
X162975232Y-131976046D01*
X162877685Y-131793550D01*
X162871569Y-131786098D01*
X162746414Y-131633595D01*
X162746410Y-131633590D01*
X162716435Y-131608990D01*
X162586452Y-131502316D01*
X162403954Y-131404768D01*
X162205934Y-131344699D01*
X162205929Y-131344698D01*
X162000003Y-131324417D01*
X161999997Y-131324417D01*
X161794070Y-131344698D01*
X161794065Y-131344699D01*
X161596045Y-131404768D01*
X161413547Y-131502316D01*
X161253595Y-131633585D01*
X161253585Y-131633595D01*
X161122316Y-131793547D01*
X161024768Y-131976045D01*
X160964699Y-132174065D01*
X160964698Y-132174070D01*
X160944417Y-132379996D01*
X151229200Y-132379996D01*
X151233513Y-132350000D01*
X151233296Y-132348492D01*
X151215953Y-132227865D01*
X151191383Y-132174065D01*
X151164694Y-132115625D01*
X151083891Y-132022373D01*
X151016557Y-131979100D01*
X150980092Y-131955665D01*
X150980089Y-131955664D01*
X150980088Y-131955663D01*
X150873670Y-131924416D01*
X150861696Y-131920900D01*
X150861695Y-131920900D01*
X150738305Y-131920900D01*
X150738303Y-131920900D01*
X150619912Y-131955663D01*
X150619907Y-131955665D01*
X150516113Y-132022370D01*
X150516108Y-132022374D01*
X150435306Y-132115624D01*
X150384046Y-132227865D01*
X150366487Y-132349997D01*
X150007832Y-132349997D01*
X150064694Y-132284375D01*
X150115953Y-132172135D01*
X150124078Y-132115624D01*
X150133513Y-132050002D01*
X150133513Y-132049997D01*
X150115953Y-131927865D01*
X150093010Y-131877627D01*
X150064694Y-131815625D01*
X149983891Y-131722373D01*
X149955645Y-131704220D01*
X149880092Y-131655665D01*
X149880089Y-131655664D01*
X149880088Y-131655663D01*
X149804897Y-131633585D01*
X149761696Y-131620900D01*
X149761695Y-131620900D01*
X149638305Y-131620900D01*
X149638303Y-131620900D01*
X149519912Y-131655663D01*
X149519907Y-131655665D01*
X149416113Y-131722370D01*
X149416111Y-131722371D01*
X149416109Y-131722372D01*
X149416109Y-131722373D01*
X149388267Y-131754503D01*
X149335873Y-131786098D01*
X149274912Y-131780862D01*
X149228671Y-131740794D01*
X149214813Y-131681198D01*
X149215458Y-131675582D01*
X149233513Y-131550002D01*
X149233513Y-131549997D01*
X149215953Y-131427865D01*
X149177972Y-131344700D01*
X149164694Y-131315625D01*
X149083891Y-131222373D01*
X149055645Y-131204220D01*
X148980092Y-131155665D01*
X148980089Y-131155664D01*
X148980088Y-131155663D01*
X148920891Y-131138281D01*
X148861696Y-131120900D01*
X148861695Y-131120900D01*
X148738305Y-131120900D01*
X148738303Y-131120900D01*
X148619912Y-131155663D01*
X148619907Y-131155665D01*
X148516113Y-131222370D01*
X148516108Y-131222374D01*
X148435306Y-131315624D01*
X148384046Y-131427865D01*
X148366487Y-131549997D01*
X148366487Y-131550000D01*
X148371443Y-131584472D01*
X148374968Y-131608990D01*
X148364533Y-131669279D01*
X148320654Y-131711921D01*
X148268776Y-131720140D01*
X148268776Y-131720900D01*
X148263982Y-131720900D01*
X148262896Y-131721072D01*
X148261699Y-131720900D01*
X148261695Y-131720900D01*
X148138305Y-131720900D01*
X148138303Y-131720900D01*
X148019912Y-131755663D01*
X148019907Y-131755665D01*
X147916113Y-131822370D01*
X147916108Y-131822374D01*
X147835306Y-131915624D01*
X147790053Y-132014713D01*
X147748681Y-132059790D01*
X147688714Y-132071941D01*
X147633058Y-132046523D01*
X147609947Y-132014713D01*
X147582979Y-131955663D01*
X147564694Y-131915625D01*
X147483891Y-131822373D01*
X147448552Y-131799662D01*
X147380092Y-131755665D01*
X147380089Y-131755664D01*
X147380088Y-131755663D01*
X147320891Y-131738281D01*
X147261696Y-131720900D01*
X147261695Y-131720900D01*
X147138305Y-131720900D01*
X147138303Y-131720900D01*
X147019912Y-131755663D01*
X147019907Y-131755665D01*
X146916113Y-131822370D01*
X146916108Y-131822374D01*
X146835306Y-131915624D01*
X146784046Y-132027864D01*
X146782060Y-132034630D01*
X146747522Y-132085136D01*
X146689894Y-132105695D01*
X146633548Y-132090019D01*
X146580092Y-132055665D01*
X146580089Y-132055664D01*
X146580088Y-132055663D01*
X146485416Y-132027865D01*
X146461696Y-132020900D01*
X146461695Y-132020900D01*
X146338305Y-132020900D01*
X146338303Y-132020900D01*
X146219912Y-132055663D01*
X146219907Y-132055665D01*
X146116113Y-132122370D01*
X146116108Y-132122374D01*
X146035306Y-132215624D01*
X145984046Y-132327865D01*
X145966487Y-132449997D01*
X145360792Y-132449997D01*
X145320891Y-132438281D01*
X145261696Y-132420900D01*
X145261695Y-132420900D01*
X145138305Y-132420900D01*
X145138303Y-132420900D01*
X145019912Y-132455663D01*
X145019907Y-132455665D01*
X144916113Y-132522370D01*
X144916108Y-132522374D01*
X144835306Y-132615624D01*
X144784046Y-132727865D01*
X144766487Y-132849997D01*
X136900500Y-132849997D01*
X136900500Y-130595729D01*
X136900499Y-130595727D01*
X136897646Y-130565306D01*
X136897646Y-130565302D01*
X136852793Y-130437119D01*
X136772149Y-130327851D01*
X136662881Y-130247207D01*
X136662880Y-130247206D01*
X136534702Y-130202355D01*
X136534693Y-130202353D01*
X136504272Y-130199500D01*
X136504264Y-130199500D01*
X132995736Y-130199500D01*
X132995727Y-130199500D01*
X132965306Y-130202353D01*
X132965297Y-130202355D01*
X132837119Y-130247206D01*
X132727852Y-130327850D01*
X132727850Y-130327852D01*
X132647206Y-130437119D01*
X132602355Y-130565297D01*
X132602353Y-130565306D01*
X132599500Y-130595727D01*
X132000500Y-130595727D01*
X132000500Y-129839996D01*
X160944417Y-129839996D01*
X160944417Y-129840003D01*
X160964698Y-130045929D01*
X160964699Y-130045934D01*
X161024768Y-130243954D01*
X161122316Y-130426452D01*
X161236263Y-130565297D01*
X161253590Y-130586410D01*
X161253595Y-130586414D01*
X161413547Y-130717683D01*
X161413548Y-130717683D01*
X161413550Y-130717685D01*
X161596046Y-130815232D01*
X161733997Y-130857078D01*
X161794065Y-130875300D01*
X161794070Y-130875301D01*
X161999997Y-130895583D01*
X162000000Y-130895583D01*
X162000003Y-130895583D01*
X162205929Y-130875301D01*
X162205934Y-130875300D01*
X162403954Y-130815232D01*
X162586450Y-130717685D01*
X162746410Y-130586410D01*
X162877685Y-130426450D01*
X162975232Y-130243954D01*
X163035300Y-130045934D01*
X163035301Y-130045929D01*
X163055583Y-129840003D01*
X163055583Y-129839996D01*
X163035301Y-129634070D01*
X163035300Y-129634065D01*
X163017078Y-129573997D01*
X162975232Y-129436046D01*
X162877685Y-129253550D01*
X162746410Y-129093590D01*
X162746404Y-129093585D01*
X162586452Y-128962316D01*
X162403954Y-128864768D01*
X162205934Y-128804699D01*
X162205929Y-128804698D01*
X162000003Y-128784417D01*
X161999997Y-128784417D01*
X161794070Y-128804698D01*
X161794065Y-128804699D01*
X161596045Y-128864768D01*
X161413547Y-128962316D01*
X161253595Y-129093585D01*
X161253585Y-129093595D01*
X161122316Y-129253547D01*
X161024768Y-129436045D01*
X160964699Y-129634065D01*
X160964698Y-129634070D01*
X160944417Y-129839996D01*
X132000500Y-129839996D01*
X132000500Y-120899997D01*
X139114287Y-120899997D01*
X139114287Y-120900002D01*
X139131846Y-121022134D01*
X139183106Y-121134375D01*
X139263909Y-121227627D01*
X139367712Y-121294337D01*
X139486105Y-121329100D01*
X139486106Y-121329100D01*
X139609494Y-121329100D01*
X139609495Y-121329100D01*
X139727888Y-121294337D01*
X139831691Y-121227627D01*
X139912494Y-121134375D01*
X139963753Y-121022135D01*
X139981313Y-120900000D01*
X139963753Y-120777865D01*
X139912494Y-120665625D01*
X139831691Y-120572373D01*
X139803445Y-120554220D01*
X139727892Y-120505665D01*
X139727889Y-120505664D01*
X139727888Y-120505663D01*
X139668691Y-120488281D01*
X139609496Y-120470900D01*
X139609495Y-120470900D01*
X139486105Y-120470900D01*
X139486103Y-120470900D01*
X139367712Y-120505663D01*
X139367707Y-120505665D01*
X139263913Y-120572370D01*
X139263908Y-120572374D01*
X139183106Y-120665624D01*
X139131846Y-120777865D01*
X139114287Y-120899997D01*
X132000500Y-120899997D01*
X132000500Y-118290253D01*
X161449500Y-118290253D01*
X161449500Y-120029746D01*
X161449501Y-120029758D01*
X161461132Y-120088227D01*
X161461133Y-120088231D01*
X161505448Y-120154552D01*
X161571769Y-120198867D01*
X161616231Y-120207711D01*
X161630241Y-120210498D01*
X161630246Y-120210498D01*
X161630252Y-120210500D01*
X161630253Y-120210500D01*
X163369747Y-120210500D01*
X163369748Y-120210500D01*
X163428231Y-120198867D01*
X163494552Y-120154552D01*
X163538867Y-120088231D01*
X163550500Y-120029748D01*
X163550500Y-118290252D01*
X163538867Y-118231769D01*
X163494552Y-118165448D01*
X163494548Y-118165445D01*
X163428233Y-118121134D01*
X163428231Y-118121133D01*
X163428228Y-118121132D01*
X163428227Y-118121132D01*
X163369758Y-118109501D01*
X163369748Y-118109500D01*
X161630252Y-118109500D01*
X161630251Y-118109500D01*
X161630241Y-118109501D01*
X161571772Y-118121132D01*
X161571766Y-118121134D01*
X161505451Y-118165445D01*
X161505445Y-118165451D01*
X161461134Y-118231766D01*
X161461132Y-118231772D01*
X161449501Y-118290241D01*
X161449500Y-118290253D01*
X132000500Y-118290253D01*
X132000500Y-115499997D01*
X144614287Y-115499997D01*
X144614287Y-115500002D01*
X144631846Y-115622134D01*
X144683106Y-115734375D01*
X144763909Y-115827627D01*
X144867712Y-115894337D01*
X144986105Y-115929100D01*
X144986106Y-115929100D01*
X145109494Y-115929100D01*
X145109495Y-115929100D01*
X145227888Y-115894337D01*
X145331691Y-115827627D01*
X145412494Y-115734375D01*
X145463753Y-115622135D01*
X145481313Y-115500000D01*
X145463753Y-115377865D01*
X145412494Y-115265625D01*
X145331691Y-115172373D01*
X145262062Y-115127625D01*
X145227892Y-115105665D01*
X145227889Y-115105664D01*
X145227888Y-115105663D01*
X145168691Y-115088281D01*
X145109496Y-115070900D01*
X145109495Y-115070900D01*
X144986105Y-115070900D01*
X144986103Y-115070900D01*
X144867712Y-115105663D01*
X144867707Y-115105665D01*
X144763913Y-115172370D01*
X144763908Y-115172374D01*
X144683106Y-115265624D01*
X144631846Y-115377865D01*
X144614287Y-115499997D01*
X132000500Y-115499997D01*
X132000500Y-114799997D01*
X161764287Y-114799997D01*
X161764287Y-114800002D01*
X161781846Y-114922134D01*
X161833106Y-115034375D01*
X161913909Y-115127627D01*
X162017712Y-115194337D01*
X162136105Y-115229100D01*
X162136106Y-115229100D01*
X162259494Y-115229100D01*
X162259495Y-115229100D01*
X162377888Y-115194337D01*
X162481691Y-115127627D01*
X162562494Y-115034375D01*
X162613753Y-114922135D01*
X162631313Y-114800000D01*
X162620759Y-114726592D01*
X162631192Y-114666303D01*
X162675070Y-114623660D01*
X162735633Y-114614953D01*
X162746642Y-114617512D01*
X162786105Y-114629100D01*
X162786106Y-114629100D01*
X162909494Y-114629100D01*
X162909495Y-114629100D01*
X163027888Y-114594337D01*
X163131691Y-114527627D01*
X163212494Y-114434375D01*
X163263753Y-114322135D01*
X163281313Y-114200000D01*
X163263753Y-114077865D01*
X163212494Y-113965625D01*
X163131691Y-113872373D01*
X163103445Y-113854220D01*
X163027892Y-113805665D01*
X163027889Y-113805664D01*
X163027888Y-113805663D01*
X162968691Y-113788281D01*
X162909496Y-113770900D01*
X162909495Y-113770900D01*
X162786105Y-113770900D01*
X162786103Y-113770900D01*
X162667712Y-113805663D01*
X162667707Y-113805665D01*
X162563913Y-113872370D01*
X162563908Y-113872374D01*
X162483106Y-113965624D01*
X162431846Y-114077865D01*
X162414287Y-114199997D01*
X162414287Y-114200000D01*
X162420876Y-114245834D01*
X162424841Y-114273408D01*
X162414406Y-114333697D01*
X162370528Y-114376339D01*
X162309965Y-114385046D01*
X162298958Y-114382486D01*
X162259501Y-114370901D01*
X162259495Y-114370900D01*
X162136105Y-114370900D01*
X162136103Y-114370900D01*
X162017712Y-114405663D01*
X162017707Y-114405665D01*
X161913913Y-114472370D01*
X161913908Y-114472374D01*
X161833106Y-114565624D01*
X161781846Y-114677865D01*
X161764287Y-114799997D01*
X132000500Y-114799997D01*
X132000500Y-112449997D01*
X146864287Y-112449997D01*
X146864287Y-112450002D01*
X146881846Y-112572134D01*
X146933106Y-112684375D01*
X147013909Y-112777627D01*
X147117712Y-112844337D01*
X147236105Y-112879100D01*
X147236106Y-112879100D01*
X147359494Y-112879100D01*
X147359495Y-112879100D01*
X147477888Y-112844337D01*
X147581691Y-112777627D01*
X147581695Y-112777621D01*
X147582969Y-112776519D01*
X147584273Y-112775967D01*
X147587648Y-112773799D01*
X147588023Y-112774383D01*
X147639329Y-112752702D01*
X147698924Y-112766561D01*
X147712631Y-112776519D01*
X147713907Y-112777625D01*
X147713909Y-112777627D01*
X147713911Y-112777628D01*
X147713913Y-112777630D01*
X147817707Y-112844334D01*
X147817712Y-112844337D01*
X147936105Y-112879100D01*
X147936106Y-112879100D01*
X148059494Y-112879100D01*
X148059495Y-112879100D01*
X148177888Y-112844337D01*
X148281691Y-112777627D01*
X148362494Y-112684375D01*
X148413753Y-112572135D01*
X148431313Y-112450000D01*
X148413753Y-112327865D01*
X148362494Y-112215625D01*
X148281691Y-112122373D01*
X148253445Y-112104220D01*
X148177892Y-112055665D01*
X148177889Y-112055664D01*
X148177888Y-112055663D01*
X148118691Y-112038281D01*
X148059496Y-112020900D01*
X148059495Y-112020900D01*
X147936105Y-112020900D01*
X147936103Y-112020900D01*
X147817712Y-112055663D01*
X147817707Y-112055665D01*
X147713913Y-112122369D01*
X147712631Y-112123481D01*
X147711326Y-112124032D01*
X147707952Y-112126201D01*
X147707576Y-112125616D01*
X147656271Y-112147298D01*
X147596676Y-112133439D01*
X147582969Y-112123481D01*
X147581686Y-112122369D01*
X147477892Y-112055665D01*
X147477889Y-112055664D01*
X147477888Y-112055663D01*
X147418691Y-112038281D01*
X147359496Y-112020900D01*
X147359495Y-112020900D01*
X147236105Y-112020900D01*
X147236103Y-112020900D01*
X147117712Y-112055663D01*
X147117707Y-112055665D01*
X147013913Y-112122370D01*
X147013908Y-112122374D01*
X146933106Y-112215624D01*
X146881846Y-112327865D01*
X146864287Y-112449997D01*
X132000500Y-112449997D01*
X132000500Y-107655253D01*
X132549500Y-107655253D01*
X132549500Y-109394746D01*
X132549501Y-109394758D01*
X132561132Y-109453227D01*
X132561133Y-109453231D01*
X132605448Y-109519552D01*
X132671769Y-109563867D01*
X132716231Y-109572711D01*
X132730241Y-109575498D01*
X132730246Y-109575498D01*
X132730252Y-109575500D01*
X132730253Y-109575500D01*
X134469747Y-109575500D01*
X134469748Y-109575500D01*
X134528231Y-109563867D01*
X134594552Y-109519552D01*
X134638867Y-109453231D01*
X134650500Y-109394748D01*
X134650500Y-108299997D01*
X162264287Y-108299997D01*
X162264287Y-108300002D01*
X162281846Y-108422134D01*
X162333106Y-108534375D01*
X162413909Y-108627627D01*
X162517712Y-108694337D01*
X162636105Y-108729100D01*
X162636106Y-108729100D01*
X162759494Y-108729100D01*
X162759495Y-108729100D01*
X162877888Y-108694337D01*
X162981691Y-108627627D01*
X163062494Y-108534375D01*
X163113753Y-108422135D01*
X163131313Y-108300000D01*
X163113753Y-108177865D01*
X163062494Y-108065625D01*
X162981691Y-107972373D01*
X162953445Y-107954220D01*
X162877892Y-107905665D01*
X162877889Y-107905664D01*
X162877888Y-107905663D01*
X162818691Y-107888281D01*
X162759496Y-107870900D01*
X162759495Y-107870900D01*
X162636105Y-107870900D01*
X162636103Y-107870900D01*
X162517712Y-107905663D01*
X162517707Y-107905665D01*
X162413913Y-107972370D01*
X162413908Y-107972374D01*
X162333106Y-108065624D01*
X162281846Y-108177865D01*
X162264287Y-108299997D01*
X134650500Y-108299997D01*
X134650500Y-107655252D01*
X134638867Y-107596769D01*
X134594552Y-107530448D01*
X134594548Y-107530445D01*
X134528233Y-107486134D01*
X134528231Y-107486133D01*
X134528228Y-107486132D01*
X134528227Y-107486132D01*
X134469758Y-107474501D01*
X134469748Y-107474500D01*
X132730252Y-107474500D01*
X132730251Y-107474500D01*
X132730241Y-107474501D01*
X132671772Y-107486132D01*
X132671766Y-107486134D01*
X132605451Y-107530445D01*
X132605445Y-107530451D01*
X132561134Y-107596766D01*
X132561132Y-107596772D01*
X132549501Y-107655241D01*
X132549500Y-107655253D01*
X132000500Y-107655253D01*
X132000500Y-105984996D01*
X132544417Y-105984996D01*
X132544417Y-105985003D01*
X132564698Y-106190929D01*
X132564699Y-106190934D01*
X132624768Y-106388954D01*
X132722316Y-106571452D01*
X132853585Y-106731404D01*
X132853590Y-106731410D01*
X132853595Y-106731414D01*
X133013547Y-106862683D01*
X133013548Y-106862683D01*
X133013550Y-106862685D01*
X133196046Y-106960232D01*
X133333997Y-107002078D01*
X133394065Y-107020300D01*
X133394070Y-107020301D01*
X133599997Y-107040583D01*
X133600000Y-107040583D01*
X133600003Y-107040583D01*
X133805929Y-107020301D01*
X133805934Y-107020300D01*
X134003954Y-106960232D01*
X134186450Y-106862685D01*
X134346410Y-106731410D01*
X134477685Y-106571450D01*
X134575232Y-106388954D01*
X134635300Y-106190934D01*
X134635301Y-106190929D01*
X134655583Y-105985003D01*
X134655583Y-105984996D01*
X134635301Y-105779070D01*
X134635300Y-105779065D01*
X134617078Y-105718997D01*
X134575232Y-105581046D01*
X134477685Y-105398550D01*
X134346410Y-105238590D01*
X134346404Y-105238585D01*
X134186452Y-105107316D01*
X134003954Y-105009768D01*
X133805934Y-104949699D01*
X133805929Y-104949698D01*
X133600003Y-104929417D01*
X133599997Y-104929417D01*
X133394070Y-104949698D01*
X133394065Y-104949699D01*
X133196045Y-105009768D01*
X133013547Y-105107316D01*
X132853595Y-105238585D01*
X132853585Y-105238595D01*
X132722316Y-105398547D01*
X132624768Y-105581045D01*
X132564699Y-105779065D01*
X132564698Y-105779070D01*
X132544417Y-105984996D01*
X132000500Y-105984996D01*
X132000500Y-104210253D01*
X160949500Y-104210253D01*
X160949500Y-105949746D01*
X160949501Y-105949758D01*
X160961132Y-106008227D01*
X160961133Y-106008231D01*
X161005448Y-106074552D01*
X161071769Y-106118867D01*
X161116231Y-106127711D01*
X161130241Y-106130498D01*
X161130246Y-106130498D01*
X161130252Y-106130500D01*
X161130253Y-106130500D01*
X162869747Y-106130500D01*
X162869748Y-106130500D01*
X162928231Y-106118867D01*
X162994552Y-106074552D01*
X163038867Y-106008231D01*
X163050500Y-105949748D01*
X163050500Y-104210252D01*
X163038867Y-104151769D01*
X162994552Y-104085448D01*
X162994548Y-104085445D01*
X162928233Y-104041134D01*
X162928231Y-104041133D01*
X162928228Y-104041132D01*
X162928227Y-104041132D01*
X162869758Y-104029501D01*
X162869748Y-104029500D01*
X161130252Y-104029500D01*
X161130251Y-104029500D01*
X161130241Y-104029501D01*
X161071772Y-104041132D01*
X161071766Y-104041134D01*
X161005451Y-104085445D01*
X161005445Y-104085451D01*
X160961134Y-104151766D01*
X160961132Y-104151772D01*
X160949501Y-104210241D01*
X160949500Y-104210253D01*
X132000500Y-104210253D01*
X132000500Y-102314996D01*
X132544417Y-102314996D01*
X132544417Y-102315003D01*
X132564698Y-102520929D01*
X132564699Y-102520934D01*
X132624768Y-102718954D01*
X132722316Y-102901452D01*
X132853585Y-103061404D01*
X132853590Y-103061410D01*
X132853595Y-103061414D01*
X133013547Y-103192683D01*
X133013548Y-103192683D01*
X133013550Y-103192685D01*
X133196046Y-103290232D01*
X133333997Y-103332078D01*
X133394065Y-103350300D01*
X133394070Y-103350301D01*
X133599997Y-103370583D01*
X133600000Y-103370583D01*
X133600003Y-103370583D01*
X133805929Y-103350301D01*
X133805934Y-103350300D01*
X134003954Y-103290232D01*
X134186450Y-103192685D01*
X134346410Y-103061410D01*
X134477685Y-102901450D01*
X134575232Y-102718954D01*
X134635300Y-102520934D01*
X134635301Y-102520929D01*
X134655583Y-102315003D01*
X134655583Y-102314996D01*
X134635301Y-102109070D01*
X134635300Y-102109065D01*
X134617078Y-102048997D01*
X134575232Y-101911046D01*
X134477685Y-101728550D01*
X134346410Y-101568590D01*
X134346404Y-101568585D01*
X134186452Y-101437316D01*
X134003954Y-101339768D01*
X133805934Y-101279699D01*
X133805929Y-101279698D01*
X133600003Y-101259417D01*
X133599997Y-101259417D01*
X133394070Y-101279698D01*
X133394065Y-101279699D01*
X133196045Y-101339768D01*
X133013547Y-101437316D01*
X132853595Y-101568585D01*
X132853585Y-101568595D01*
X132722316Y-101728547D01*
X132624768Y-101911045D01*
X132564699Y-102109065D01*
X132564698Y-102109070D01*
X132544417Y-102314996D01*
X132000500Y-102314996D01*
X132000500Y-98905253D01*
X132549500Y-98905253D01*
X132549500Y-100644746D01*
X132549501Y-100644758D01*
X132561132Y-100703227D01*
X132561134Y-100703233D01*
X132589987Y-100746414D01*
X132605448Y-100769552D01*
X132671769Y-100813867D01*
X132716231Y-100822711D01*
X132730241Y-100825498D01*
X132730246Y-100825498D01*
X132730252Y-100825500D01*
X132730253Y-100825500D01*
X134469747Y-100825500D01*
X134469748Y-100825500D01*
X134528231Y-100813867D01*
X134594552Y-100769552D01*
X134638867Y-100703231D01*
X134650500Y-100644748D01*
X134650500Y-99999996D01*
X160944417Y-99999996D01*
X160944417Y-100000003D01*
X160964698Y-100205929D01*
X160964699Y-100205934D01*
X161024768Y-100403954D01*
X161122316Y-100586452D01*
X161218151Y-100703227D01*
X161253590Y-100746410D01*
X161253595Y-100746414D01*
X161413547Y-100877683D01*
X161413548Y-100877683D01*
X161413550Y-100877685D01*
X161596046Y-100975232D01*
X161733997Y-101017078D01*
X161794065Y-101035300D01*
X161794070Y-101035301D01*
X161999997Y-101055583D01*
X162000000Y-101055583D01*
X162000003Y-101055583D01*
X162205929Y-101035301D01*
X162205934Y-101035300D01*
X162403954Y-100975232D01*
X162586450Y-100877685D01*
X162746410Y-100746410D01*
X162877685Y-100586450D01*
X162975232Y-100403954D01*
X163035300Y-100205934D01*
X163035301Y-100205929D01*
X163055583Y-100000003D01*
X163055583Y-99999996D01*
X163035301Y-99794070D01*
X163035300Y-99794065D01*
X163017078Y-99733997D01*
X162975232Y-99596046D01*
X162877685Y-99413550D01*
X162746410Y-99253590D01*
X162746404Y-99253585D01*
X162586452Y-99122316D01*
X162403954Y-99024768D01*
X162205934Y-98964699D01*
X162205929Y-98964698D01*
X162000003Y-98944417D01*
X161999997Y-98944417D01*
X161794070Y-98964698D01*
X161794065Y-98964699D01*
X161596045Y-99024768D01*
X161413547Y-99122316D01*
X161253595Y-99253585D01*
X161253585Y-99253595D01*
X161122316Y-99413547D01*
X161024768Y-99596045D01*
X160964699Y-99794065D01*
X160964698Y-99794070D01*
X160944417Y-99999996D01*
X134650500Y-99999996D01*
X134650500Y-98905252D01*
X134638867Y-98846769D01*
X134594552Y-98780448D01*
X134594548Y-98780445D01*
X134528233Y-98736134D01*
X134528231Y-98736133D01*
X134528228Y-98736132D01*
X134528227Y-98736132D01*
X134469758Y-98724501D01*
X134469748Y-98724500D01*
X132730252Y-98724500D01*
X132730251Y-98724500D01*
X132730241Y-98724501D01*
X132671772Y-98736132D01*
X132671766Y-98736134D01*
X132605451Y-98780445D01*
X132605445Y-98780451D01*
X132561134Y-98846766D01*
X132561132Y-98846772D01*
X132549501Y-98905241D01*
X132549500Y-98905253D01*
X132000500Y-98905253D01*
X132000500Y-96899997D01*
X157016487Y-96899997D01*
X157016487Y-96900002D01*
X157034046Y-97022134D01*
X157085306Y-97134375D01*
X157166109Y-97227627D01*
X157269912Y-97294337D01*
X157388305Y-97329100D01*
X157388306Y-97329100D01*
X157511694Y-97329100D01*
X157511695Y-97329100D01*
X157630088Y-97294337D01*
X157733891Y-97227627D01*
X157814694Y-97134375D01*
X157865953Y-97022135D01*
X157883513Y-96900000D01*
X157865953Y-96777865D01*
X157814694Y-96665625D01*
X157733891Y-96572373D01*
X157705645Y-96554220D01*
X157630092Y-96505665D01*
X157630089Y-96505664D01*
X157630088Y-96505663D01*
X157570891Y-96488281D01*
X157511696Y-96470900D01*
X157511695Y-96470900D01*
X157388305Y-96470900D01*
X157388303Y-96470900D01*
X157269912Y-96505663D01*
X157269907Y-96505665D01*
X157166113Y-96572370D01*
X157166108Y-96572374D01*
X157085306Y-96665624D01*
X157034046Y-96777865D01*
X157016487Y-96899997D01*
X132000500Y-96899997D01*
X132000500Y-95531499D01*
X159516487Y-95531499D01*
X159516487Y-95531504D01*
X159534046Y-95653636D01*
X159585306Y-95765877D01*
X159666109Y-95859129D01*
X159769912Y-95925839D01*
X159888305Y-95960602D01*
X159888306Y-95960602D01*
X160011694Y-95960602D01*
X160011695Y-95960602D01*
X160130088Y-95925839D01*
X160233891Y-95859129D01*
X160314694Y-95765877D01*
X160365953Y-95653637D01*
X160383513Y-95531502D01*
X160365953Y-95409367D01*
X160314694Y-95297127D01*
X160233891Y-95203875D01*
X160205645Y-95185722D01*
X160130092Y-95137167D01*
X160130089Y-95137166D01*
X160130088Y-95137165D01*
X160070891Y-95119783D01*
X160011696Y-95102402D01*
X160011695Y-95102402D01*
X159888305Y-95102402D01*
X159888303Y-95102402D01*
X159769912Y-95137165D01*
X159769907Y-95137167D01*
X159666113Y-95203872D01*
X159666108Y-95203876D01*
X159585306Y-95297126D01*
X159534046Y-95409367D01*
X159516487Y-95531499D01*
X132000500Y-95531499D01*
X132000500Y-92199997D01*
X147753987Y-92199997D01*
X147753987Y-92200002D01*
X147771546Y-92322134D01*
X147817216Y-92422134D01*
X147822806Y-92434375D01*
X147903609Y-92527627D01*
X148007412Y-92594337D01*
X148125805Y-92629100D01*
X148125806Y-92629100D01*
X148249194Y-92629100D01*
X148249195Y-92629100D01*
X148367588Y-92594337D01*
X148471391Y-92527627D01*
X148552194Y-92434375D01*
X148603453Y-92322135D01*
X148606636Y-92299997D01*
X155716487Y-92299997D01*
X155716487Y-92300002D01*
X155734046Y-92422134D01*
X155782223Y-92527625D01*
X155785306Y-92534375D01*
X155866109Y-92627627D01*
X155969912Y-92694337D01*
X156088305Y-92729100D01*
X156088306Y-92729100D01*
X156211694Y-92729100D01*
X156211695Y-92729100D01*
X156330088Y-92694337D01*
X156433891Y-92627627D01*
X156514694Y-92534375D01*
X156565953Y-92422135D01*
X156583513Y-92300000D01*
X156569135Y-92200000D01*
X156565953Y-92177865D01*
X156514694Y-92065625D01*
X156433891Y-91972373D01*
X156390266Y-91944337D01*
X156330092Y-91905665D01*
X156330089Y-91905664D01*
X156330088Y-91905663D01*
X156270891Y-91888281D01*
X156211696Y-91870900D01*
X156211695Y-91870900D01*
X156088305Y-91870900D01*
X156088303Y-91870900D01*
X155969912Y-91905663D01*
X155969907Y-91905665D01*
X155866113Y-91972370D01*
X155866108Y-91972374D01*
X155785306Y-92065624D01*
X155734046Y-92177865D01*
X155716487Y-92299997D01*
X148606636Y-92299997D01*
X148621013Y-92200000D01*
X148603453Y-92077865D01*
X148552194Y-91965625D01*
X148471391Y-91872373D01*
X148402459Y-91828073D01*
X148367592Y-91805665D01*
X148367589Y-91805664D01*
X148367588Y-91805663D01*
X148292298Y-91783556D01*
X148249196Y-91770900D01*
X148249195Y-91770900D01*
X148125805Y-91770900D01*
X148125803Y-91770900D01*
X148007412Y-91805663D01*
X148007407Y-91805665D01*
X147903613Y-91872370D01*
X147903608Y-91872374D01*
X147822806Y-91965624D01*
X147771546Y-92077865D01*
X147753987Y-92199997D01*
X132000500Y-92199997D01*
X132000500Y-91549997D01*
X150116487Y-91549997D01*
X150116487Y-91550002D01*
X150134046Y-91672134D01*
X150149539Y-91706058D01*
X150185306Y-91784375D01*
X150266109Y-91877627D01*
X150369912Y-91944337D01*
X150488305Y-91979100D01*
X150488306Y-91979100D01*
X150611694Y-91979100D01*
X150611695Y-91979100D01*
X150730088Y-91944337D01*
X150833891Y-91877627D01*
X150849452Y-91859668D01*
X150901847Y-91828073D01*
X150924271Y-91825500D01*
X154304799Y-91825500D01*
X154304800Y-91825500D01*
X154406058Y-91783557D01*
X154483557Y-91706058D01*
X154483556Y-91706058D01*
X160033557Y-86156059D01*
X160045841Y-86126400D01*
X160075500Y-86054800D01*
X160075500Y-85599997D01*
X160766487Y-85599997D01*
X160766487Y-85600002D01*
X160784046Y-85722134D01*
X160822193Y-85805663D01*
X160835306Y-85834375D01*
X160916109Y-85927627D01*
X161019912Y-85994337D01*
X161138305Y-86029100D01*
X161138306Y-86029100D01*
X161261694Y-86029100D01*
X161261695Y-86029100D01*
X161380088Y-85994337D01*
X161483891Y-85927627D01*
X161564694Y-85834375D01*
X161615953Y-85722135D01*
X161629541Y-85627625D01*
X161633513Y-85600002D01*
X161633513Y-85599997D01*
X161615953Y-85477865D01*
X161610363Y-85465624D01*
X161564694Y-85365625D01*
X161483891Y-85272373D01*
X161455645Y-85254220D01*
X161380092Y-85205665D01*
X161380089Y-85205664D01*
X161380088Y-85205663D01*
X161285416Y-85177865D01*
X161261696Y-85170900D01*
X161261695Y-85170900D01*
X161138305Y-85170900D01*
X161138303Y-85170900D01*
X161019912Y-85205663D01*
X161019907Y-85205665D01*
X160916113Y-85272370D01*
X160916108Y-85272374D01*
X160835306Y-85365624D01*
X160784046Y-85477865D01*
X160766487Y-85599997D01*
X160075500Y-85599997D01*
X160075500Y-79154161D01*
X160033557Y-79052903D01*
X160033557Y-79052902D01*
X158608977Y-77628322D01*
X158581200Y-77573805D01*
X158579981Y-77558318D01*
X158579981Y-77519754D01*
X158598888Y-77461563D01*
X158604162Y-77454923D01*
X158669175Y-77379894D01*
X158720434Y-77267654D01*
X158726287Y-77226942D01*
X158737994Y-77145521D01*
X158737994Y-77145516D01*
X158720434Y-77023384D01*
X158686920Y-76950000D01*
X158686919Y-76949997D01*
X159416487Y-76949997D01*
X159416487Y-76950002D01*
X159434046Y-77072134D01*
X159467559Y-77145516D01*
X159485306Y-77184375D01*
X159566109Y-77277627D01*
X159669912Y-77344337D01*
X159788305Y-77379100D01*
X159788306Y-77379100D01*
X159911694Y-77379100D01*
X159911695Y-77379100D01*
X160030088Y-77344337D01*
X160133891Y-77277627D01*
X160214694Y-77184375D01*
X160265953Y-77072135D01*
X160283513Y-76950000D01*
X160277926Y-76911144D01*
X160265953Y-76827865D01*
X160239033Y-76768919D01*
X160232058Y-76708132D01*
X160262144Y-76654855D01*
X160317800Y-76629437D01*
X160331224Y-76629630D01*
X160331224Y-76629100D01*
X160461694Y-76629100D01*
X160461695Y-76629100D01*
X160580088Y-76594337D01*
X160683891Y-76527627D01*
X160764694Y-76434375D01*
X160815953Y-76322135D01*
X160833513Y-76200000D01*
X160815953Y-76077865D01*
X160764694Y-75965625D01*
X160683891Y-75872373D01*
X160655645Y-75854220D01*
X160580092Y-75805665D01*
X160580089Y-75805664D01*
X160580088Y-75805663D01*
X160520891Y-75788281D01*
X160461696Y-75770900D01*
X160461695Y-75770900D01*
X160338305Y-75770900D01*
X160338303Y-75770900D01*
X160219912Y-75805663D01*
X160219907Y-75805665D01*
X160116113Y-75872370D01*
X160116108Y-75872374D01*
X160035306Y-75965624D01*
X159984046Y-76077865D01*
X159966487Y-76199997D01*
X159966487Y-76200002D01*
X159984046Y-76322135D01*
X159984046Y-76322136D01*
X160010966Y-76381081D01*
X160017941Y-76441867D01*
X159987855Y-76495144D01*
X159932198Y-76520562D01*
X159918776Y-76520370D01*
X159918776Y-76520900D01*
X159788303Y-76520900D01*
X159669912Y-76555663D01*
X159669907Y-76555665D01*
X159566113Y-76622370D01*
X159566108Y-76622374D01*
X159485306Y-76715624D01*
X159434046Y-76827865D01*
X159416487Y-76949997D01*
X158686919Y-76949997D01*
X158669175Y-76911144D01*
X158588372Y-76817892D01*
X158560126Y-76799739D01*
X158484573Y-76751184D01*
X158484570Y-76751183D01*
X158484569Y-76751182D01*
X158425372Y-76733800D01*
X158366177Y-76716419D01*
X158366176Y-76716419D01*
X158242786Y-76716419D01*
X158242784Y-76716419D01*
X158124393Y-76751182D01*
X158124388Y-76751184D01*
X158020594Y-76817889D01*
X158020589Y-76817893D01*
X157939787Y-76911143D01*
X157888527Y-77023384D01*
X157870968Y-77145516D01*
X157870968Y-77145521D01*
X157888527Y-77267653D01*
X157939787Y-77379894D01*
X158004800Y-77454923D01*
X158028618Y-77511282D01*
X158028981Y-77519754D01*
X158028981Y-77768242D01*
X158070924Y-77869500D01*
X159495505Y-79294081D01*
X159523281Y-79348596D01*
X159524500Y-79364083D01*
X159524500Y-85844876D01*
X159505593Y-85903067D01*
X159495504Y-85914880D01*
X154164881Y-91245504D01*
X154110364Y-91273281D01*
X154094877Y-91274500D01*
X150924271Y-91274500D01*
X150866080Y-91255593D01*
X150849453Y-91240333D01*
X150833891Y-91222373D01*
X150833890Y-91222372D01*
X150833889Y-91222371D01*
X150730092Y-91155665D01*
X150730089Y-91155664D01*
X150730088Y-91155663D01*
X150670891Y-91138281D01*
X150611696Y-91120900D01*
X150611695Y-91120900D01*
X150488305Y-91120900D01*
X150488303Y-91120900D01*
X150369912Y-91155663D01*
X150369907Y-91155665D01*
X150266113Y-91222370D01*
X150266108Y-91222374D01*
X150185306Y-91315624D01*
X150134046Y-91427865D01*
X150116487Y-91549997D01*
X132000500Y-91549997D01*
X132000500Y-87680253D01*
X132249500Y-87680253D01*
X132249500Y-89719746D01*
X132249501Y-89719758D01*
X132261132Y-89778227D01*
X132261134Y-89778233D01*
X132290469Y-89822135D01*
X132305448Y-89844552D01*
X132371769Y-89888867D01*
X132416231Y-89897711D01*
X132430241Y-89900498D01*
X132430246Y-89900498D01*
X132430252Y-89900500D01*
X132430253Y-89900500D01*
X134469747Y-89900500D01*
X134469748Y-89900500D01*
X134528231Y-89888867D01*
X134594552Y-89844552D01*
X134638867Y-89778231D01*
X134650500Y-89719748D01*
X134650500Y-89099997D01*
X138566487Y-89099997D01*
X138566487Y-89100002D01*
X138584046Y-89222134D01*
X138609498Y-89277865D01*
X138635306Y-89334375D01*
X138716109Y-89427627D01*
X138819912Y-89494337D01*
X138938305Y-89529100D01*
X138938306Y-89529100D01*
X139061694Y-89529100D01*
X139061695Y-89529100D01*
X139180088Y-89494337D01*
X139283891Y-89427627D01*
X139364694Y-89334375D01*
X139382062Y-89296346D01*
X141562836Y-89296346D01*
X141562836Y-89296351D01*
X141580395Y-89418483D01*
X141584572Y-89427629D01*
X141631655Y-89530724D01*
X141712458Y-89623976D01*
X141816261Y-89690686D01*
X141934654Y-89725449D01*
X141934655Y-89725449D01*
X142058043Y-89725449D01*
X142058044Y-89725449D01*
X142176437Y-89690686D01*
X142237656Y-89651342D01*
X142296831Y-89635788D01*
X142353847Y-89657987D01*
X142365994Y-89669791D01*
X142416109Y-89727627D01*
X142475234Y-89765624D01*
X142494850Y-89778231D01*
X142519912Y-89794337D01*
X142606612Y-89819794D01*
X142657118Y-89854330D01*
X142677680Y-89911957D01*
X142676713Y-89928872D01*
X142666488Y-89999997D01*
X142666487Y-90000002D01*
X142684046Y-90122134D01*
X142735306Y-90234375D01*
X142816109Y-90327627D01*
X142919912Y-90394337D01*
X143038305Y-90429100D01*
X143038306Y-90429100D01*
X143161694Y-90429100D01*
X143161695Y-90429100D01*
X143280088Y-90394337D01*
X143383891Y-90327627D01*
X143464694Y-90234375D01*
X143515953Y-90122135D01*
X143532669Y-90005869D01*
X143533513Y-90000002D01*
X143533513Y-89999997D01*
X143515953Y-89877865D01*
X143493682Y-89829100D01*
X143464694Y-89765625D01*
X143383891Y-89672373D01*
X143316557Y-89629100D01*
X143280092Y-89605665D01*
X143280089Y-89605664D01*
X143280088Y-89605663D01*
X143241515Y-89594337D01*
X143193387Y-89580205D01*
X143142880Y-89545669D01*
X143122319Y-89488041D01*
X143123287Y-89471126D01*
X143133513Y-89400001D01*
X143133513Y-89399997D01*
X143115953Y-89277865D01*
X143102834Y-89249139D01*
X143080391Y-89199997D01*
X147466487Y-89199997D01*
X147466487Y-89200002D01*
X147484046Y-89322134D01*
X147519606Y-89399997D01*
X147535306Y-89434375D01*
X147616109Y-89527627D01*
X147719912Y-89594337D01*
X147838305Y-89629100D01*
X147838306Y-89629100D01*
X147961694Y-89629100D01*
X147961695Y-89629100D01*
X148080088Y-89594337D01*
X148107429Y-89576766D01*
X151889718Y-89576766D01*
X151889718Y-89576771D01*
X151907277Y-89698903D01*
X151920396Y-89727628D01*
X151958537Y-89811144D01*
X152039340Y-89904396D01*
X152143143Y-89971106D01*
X152261536Y-90005869D01*
X152261537Y-90005869D01*
X152384925Y-90005869D01*
X152384926Y-90005869D01*
X152503319Y-89971106D01*
X152607122Y-89904396D01*
X152687925Y-89811144D01*
X152738685Y-89699997D01*
X153766487Y-89699997D01*
X153766487Y-89700002D01*
X153784046Y-89822134D01*
X153821614Y-89904394D01*
X153835306Y-89934375D01*
X153916109Y-90027627D01*
X154019912Y-90094337D01*
X154138305Y-90129100D01*
X154138306Y-90129100D01*
X154261694Y-90129100D01*
X154261695Y-90129100D01*
X154380088Y-90094337D01*
X154483891Y-90027627D01*
X154564694Y-89934375D01*
X154615953Y-89822135D01*
X154629854Y-89725448D01*
X154633513Y-89700002D01*
X154633513Y-89699997D01*
X154615953Y-89577865D01*
X154593682Y-89529099D01*
X154564694Y-89465625D01*
X154483891Y-89372373D01*
X154424765Y-89334375D01*
X154380092Y-89305665D01*
X154380089Y-89305664D01*
X154380088Y-89305663D01*
X154285416Y-89277865D01*
X154261696Y-89270900D01*
X154261695Y-89270900D01*
X154138305Y-89270900D01*
X154138303Y-89270900D01*
X154019912Y-89305663D01*
X154019907Y-89305665D01*
X153916113Y-89372370D01*
X153916108Y-89372374D01*
X153835306Y-89465624D01*
X153784046Y-89577865D01*
X153766487Y-89699997D01*
X152738685Y-89699997D01*
X152739184Y-89698904D01*
X152749957Y-89623974D01*
X152756744Y-89576771D01*
X152756744Y-89576766D01*
X152739184Y-89454634D01*
X152726849Y-89427625D01*
X152687925Y-89342394D01*
X152607122Y-89249142D01*
X152530659Y-89200002D01*
X152503323Y-89182434D01*
X152503320Y-89182433D01*
X152503319Y-89182432D01*
X152444122Y-89165050D01*
X152384927Y-89147669D01*
X152384926Y-89147669D01*
X152261536Y-89147669D01*
X152261534Y-89147669D01*
X152143143Y-89182432D01*
X152143138Y-89182434D01*
X152039344Y-89249139D01*
X152039339Y-89249143D01*
X151958537Y-89342393D01*
X151907277Y-89454634D01*
X151889718Y-89576766D01*
X148107429Y-89576766D01*
X148183891Y-89527627D01*
X148264694Y-89434375D01*
X148315953Y-89322135D01*
X148323319Y-89270900D01*
X148333513Y-89200002D01*
X148333513Y-89199997D01*
X148315953Y-89077865D01*
X148308695Y-89061973D01*
X148264694Y-88965625D01*
X148183891Y-88872373D01*
X148155645Y-88854220D01*
X148080092Y-88805665D01*
X148080089Y-88805664D01*
X148080088Y-88805663D01*
X148020891Y-88788281D01*
X147961696Y-88770900D01*
X147961695Y-88770900D01*
X147838305Y-88770900D01*
X147838303Y-88770900D01*
X147719912Y-88805663D01*
X147719907Y-88805665D01*
X147616113Y-88872370D01*
X147616108Y-88872374D01*
X147535306Y-88965624D01*
X147484046Y-89077865D01*
X147466487Y-89199997D01*
X143080391Y-89199997D01*
X143064694Y-89165625D01*
X142983891Y-89072373D01*
X142912592Y-89026552D01*
X142880092Y-89005665D01*
X142880089Y-89005664D01*
X142880088Y-89005663D01*
X142785416Y-88977865D01*
X142761696Y-88970900D01*
X142761695Y-88970900D01*
X142638305Y-88970900D01*
X142638303Y-88970900D01*
X142519912Y-89005663D01*
X142519908Y-89005664D01*
X142458691Y-89045006D01*
X142399516Y-89060559D01*
X142342500Y-89038360D01*
X142330350Y-89026552D01*
X142288162Y-88977865D01*
X142280240Y-88968722D01*
X142251994Y-88950569D01*
X142176441Y-88902014D01*
X142176438Y-88902013D01*
X142176437Y-88902012D01*
X142117240Y-88884630D01*
X142058045Y-88867249D01*
X142058044Y-88867249D01*
X141934654Y-88867249D01*
X141934652Y-88867249D01*
X141816261Y-88902012D01*
X141816256Y-88902014D01*
X141712462Y-88968719D01*
X141712457Y-88968723D01*
X141631655Y-89061973D01*
X141580395Y-89174214D01*
X141562836Y-89296346D01*
X139382062Y-89296346D01*
X139415953Y-89222135D01*
X139433513Y-89100000D01*
X139429540Y-89072370D01*
X139415953Y-88977865D01*
X139410363Y-88965624D01*
X139364694Y-88865625D01*
X139283891Y-88772373D01*
X139255645Y-88754220D01*
X139180092Y-88705665D01*
X139180089Y-88705664D01*
X139180088Y-88705663D01*
X139120891Y-88688281D01*
X139061696Y-88670900D01*
X139061695Y-88670900D01*
X138938305Y-88670900D01*
X138938303Y-88670900D01*
X138819912Y-88705663D01*
X138819907Y-88705665D01*
X138716113Y-88772370D01*
X138716108Y-88772374D01*
X138635306Y-88865624D01*
X138584046Y-88977865D01*
X138566487Y-89099997D01*
X134650500Y-89099997D01*
X134650500Y-87799997D01*
X151866487Y-87799997D01*
X151866487Y-87800002D01*
X151884046Y-87922134D01*
X151935306Y-88034375D01*
X152016109Y-88127627D01*
X152119912Y-88194337D01*
X152238305Y-88229100D01*
X152238306Y-88229100D01*
X152361694Y-88229100D01*
X152361695Y-88229100D01*
X152480088Y-88194337D01*
X152583891Y-88127627D01*
X152664694Y-88034375D01*
X152715953Y-87922135D01*
X152733513Y-87800000D01*
X152715953Y-87677865D01*
X152664694Y-87565625D01*
X152583891Y-87472373D01*
X152516557Y-87429100D01*
X152480092Y-87405665D01*
X152480089Y-87405664D01*
X152480088Y-87405663D01*
X152420891Y-87388281D01*
X152361696Y-87370900D01*
X152361695Y-87370900D01*
X152238305Y-87370900D01*
X152238303Y-87370900D01*
X152119912Y-87405663D01*
X152119907Y-87405665D01*
X152016113Y-87472370D01*
X152016108Y-87472374D01*
X151935306Y-87565624D01*
X151884046Y-87677865D01*
X151866487Y-87799997D01*
X134650500Y-87799997D01*
X134650500Y-87680252D01*
X134638867Y-87621769D01*
X134594552Y-87555448D01*
X134594548Y-87555445D01*
X134528233Y-87511134D01*
X134528231Y-87511133D01*
X134528228Y-87511132D01*
X134528227Y-87511132D01*
X134469758Y-87499501D01*
X134469748Y-87499500D01*
X132430252Y-87499500D01*
X132430251Y-87499500D01*
X132430241Y-87499501D01*
X132371772Y-87511132D01*
X132371766Y-87511134D01*
X132305451Y-87555445D01*
X132305445Y-87555451D01*
X132261134Y-87621766D01*
X132261132Y-87621772D01*
X132249501Y-87680241D01*
X132249500Y-87680253D01*
X132000500Y-87680253D01*
X132000500Y-86499997D01*
X137766487Y-86499997D01*
X137766487Y-86500002D01*
X137784046Y-86622134D01*
X137817021Y-86694337D01*
X137835306Y-86734375D01*
X137916109Y-86827627D01*
X138019912Y-86894337D01*
X138138305Y-86929100D01*
X138138306Y-86929100D01*
X138261694Y-86929100D01*
X138261695Y-86929100D01*
X138380088Y-86894337D01*
X138419836Y-86868792D01*
X138479010Y-86853237D01*
X138536026Y-86875435D01*
X138569106Y-86926907D01*
X138571351Y-86966164D01*
X138566487Y-86999996D01*
X138566487Y-87000002D01*
X138584046Y-87122134D01*
X138635306Y-87234375D01*
X138716109Y-87327627D01*
X138819912Y-87394337D01*
X138938305Y-87429100D01*
X138938306Y-87429100D01*
X139061694Y-87429100D01*
X139061695Y-87429100D01*
X139180088Y-87394337D01*
X139283891Y-87327627D01*
X139364694Y-87234375D01*
X139415953Y-87122135D01*
X139433513Y-87000000D01*
X139433512Y-86999996D01*
X139415953Y-86877865D01*
X139411810Y-86868793D01*
X139364694Y-86765625D01*
X139283891Y-86672373D01*
X139216557Y-86629100D01*
X139180092Y-86605665D01*
X139180089Y-86605664D01*
X139180088Y-86605663D01*
X139120891Y-86588281D01*
X139061696Y-86570900D01*
X139061695Y-86570900D01*
X138938305Y-86570900D01*
X138938303Y-86570900D01*
X138819912Y-86605663D01*
X138819908Y-86605664D01*
X138780162Y-86631208D01*
X138720987Y-86646761D01*
X138663971Y-86624562D01*
X138630892Y-86573089D01*
X138628648Y-86533835D01*
X138633513Y-86500000D01*
X138615953Y-86377865D01*
X138580391Y-86299997D01*
X142566487Y-86299997D01*
X142566487Y-86300002D01*
X142584046Y-86422134D01*
X142619606Y-86499997D01*
X142635306Y-86534375D01*
X142716109Y-86627627D01*
X142819912Y-86694337D01*
X142938305Y-86729100D01*
X142938306Y-86729100D01*
X143061694Y-86729100D01*
X143061695Y-86729100D01*
X143180088Y-86694337D01*
X143283891Y-86627627D01*
X143364694Y-86534375D01*
X143415953Y-86422135D01*
X143433513Y-86300000D01*
X143419135Y-86200000D01*
X143415953Y-86177865D01*
X143392449Y-86126400D01*
X143364694Y-86065625D01*
X143283891Y-85972373D01*
X143214262Y-85927625D01*
X143180092Y-85905665D01*
X143180089Y-85905664D01*
X143180088Y-85905663D01*
X143112726Y-85885884D01*
X143061696Y-85870900D01*
X143061695Y-85870900D01*
X142938305Y-85870900D01*
X142938303Y-85870900D01*
X142819912Y-85905663D01*
X142819907Y-85905665D01*
X142716113Y-85972370D01*
X142716108Y-85972374D01*
X142635306Y-86065624D01*
X142584046Y-86177865D01*
X142566487Y-86299997D01*
X138580391Y-86299997D01*
X138564694Y-86265625D01*
X138483891Y-86172373D01*
X138416557Y-86129100D01*
X138380092Y-86105665D01*
X138380089Y-86105664D01*
X138380088Y-86105663D01*
X138285416Y-86077865D01*
X138261696Y-86070900D01*
X138261695Y-86070900D01*
X138138305Y-86070900D01*
X138138303Y-86070900D01*
X138019912Y-86105663D01*
X138019907Y-86105665D01*
X137916113Y-86172370D01*
X137916108Y-86172374D01*
X137835306Y-86265624D01*
X137784046Y-86377865D01*
X137766487Y-86499997D01*
X132000500Y-86499997D01*
X132000500Y-85399997D01*
X140566487Y-85399997D01*
X140566487Y-85400002D01*
X140584046Y-85522134D01*
X140609498Y-85577865D01*
X140635306Y-85634375D01*
X140716109Y-85727627D01*
X140819912Y-85794337D01*
X140938305Y-85829100D01*
X140938306Y-85829100D01*
X141061694Y-85829100D01*
X141061695Y-85829100D01*
X141090074Y-85820767D01*
X141151233Y-85822513D01*
X141199687Y-85859874D01*
X141208020Y-85874629D01*
X141221008Y-85903067D01*
X141235306Y-85934375D01*
X141316109Y-86027627D01*
X141419912Y-86094337D01*
X141538305Y-86129100D01*
X141538306Y-86129100D01*
X141661694Y-86129100D01*
X141661695Y-86129100D01*
X141780088Y-86094337D01*
X141883891Y-86027627D01*
X141964694Y-85934375D01*
X142015953Y-85822135D01*
X142033513Y-85700000D01*
X142032698Y-85694334D01*
X142015953Y-85577865D01*
X141964694Y-85465625D01*
X141883891Y-85372373D01*
X141840263Y-85344335D01*
X141780092Y-85305665D01*
X141780089Y-85305664D01*
X141780088Y-85305663D01*
X141685416Y-85277865D01*
X141661696Y-85270900D01*
X141661695Y-85270900D01*
X141538305Y-85270900D01*
X141538303Y-85270900D01*
X141538299Y-85270901D01*
X141509922Y-85279233D01*
X141448762Y-85277485D01*
X141400309Y-85240122D01*
X141391979Y-85225369D01*
X141364695Y-85165626D01*
X141364694Y-85165625D01*
X141337616Y-85134375D01*
X141283891Y-85072373D01*
X141255645Y-85054220D01*
X141180092Y-85005665D01*
X141180089Y-85005664D01*
X141180088Y-85005663D01*
X141120891Y-84988281D01*
X141061696Y-84970900D01*
X141061695Y-84970900D01*
X140938305Y-84970900D01*
X140938303Y-84970900D01*
X140819912Y-85005663D01*
X140819907Y-85005665D01*
X140716113Y-85072370D01*
X140716108Y-85072374D01*
X140635306Y-85165624D01*
X140584046Y-85277865D01*
X140566487Y-85399997D01*
X132000500Y-85399997D01*
X132000500Y-84899997D01*
X139366487Y-84899997D01*
X139366487Y-84900002D01*
X139384046Y-85022134D01*
X139435306Y-85134375D01*
X139516109Y-85227627D01*
X139619912Y-85294337D01*
X139738305Y-85329100D01*
X139738306Y-85329100D01*
X139861694Y-85329100D01*
X139861695Y-85329100D01*
X139980088Y-85294337D01*
X140083891Y-85227627D01*
X140164694Y-85134375D01*
X140215953Y-85022135D01*
X140226325Y-84949995D01*
X147766487Y-84949995D01*
X147766487Y-84950000D01*
X147784046Y-85072132D01*
X147826744Y-85165625D01*
X147835306Y-85184373D01*
X147916109Y-85277625D01*
X148019912Y-85344335D01*
X148138305Y-85379098D01*
X148138306Y-85379098D01*
X148261694Y-85379098D01*
X148261695Y-85379098D01*
X148380088Y-85344335D01*
X148449079Y-85299997D01*
X151716487Y-85299997D01*
X151716487Y-85300002D01*
X151734046Y-85422134D01*
X151753908Y-85465624D01*
X151785306Y-85534375D01*
X151866109Y-85627627D01*
X151969912Y-85694337D01*
X151983917Y-85698449D01*
X152034424Y-85732984D01*
X152054986Y-85790611D01*
X152037748Y-85849318D01*
X152020862Y-85868254D01*
X152016110Y-85872372D01*
X151935306Y-85965624D01*
X151884046Y-86077865D01*
X151866487Y-86199997D01*
X151866487Y-86200002D01*
X151884046Y-86322134D01*
X151909498Y-86377865D01*
X151935306Y-86434375D01*
X152016109Y-86527627D01*
X152119912Y-86594337D01*
X152238305Y-86629100D01*
X152238306Y-86629100D01*
X152361694Y-86629100D01*
X152361695Y-86629100D01*
X152480088Y-86594337D01*
X152583891Y-86527627D01*
X152664694Y-86434375D01*
X152715953Y-86322135D01*
X152733513Y-86200000D01*
X152729540Y-86172370D01*
X152715953Y-86077865D01*
X152693682Y-86029099D01*
X152664694Y-85965625D01*
X152583891Y-85872373D01*
X152516557Y-85829100D01*
X152480092Y-85805665D01*
X152480083Y-85805661D01*
X152466079Y-85801549D01*
X152415573Y-85767012D01*
X152395013Y-85709385D01*
X152412253Y-85650678D01*
X152429145Y-85631738D01*
X152433880Y-85627633D01*
X152433891Y-85627627D01*
X152514694Y-85534375D01*
X152565953Y-85422135D01*
X152582699Y-85305663D01*
X152583513Y-85300002D01*
X152583513Y-85299997D01*
X152565953Y-85177865D01*
X152562772Y-85170900D01*
X152514694Y-85065625D01*
X152433891Y-84972373D01*
X152399070Y-84949995D01*
X152330092Y-84905665D01*
X152330089Y-84905664D01*
X152330088Y-84905663D01*
X152270891Y-84888281D01*
X152211696Y-84870900D01*
X152211695Y-84870900D01*
X152088305Y-84870900D01*
X152088303Y-84870900D01*
X151969912Y-84905663D01*
X151969907Y-84905665D01*
X151866113Y-84972370D01*
X151866108Y-84972374D01*
X151785306Y-85065624D01*
X151734046Y-85177865D01*
X151716487Y-85299997D01*
X148449079Y-85299997D01*
X148483891Y-85277625D01*
X148564694Y-85184373D01*
X148615953Y-85072133D01*
X148621806Y-85031421D01*
X148633513Y-84950000D01*
X148633513Y-84949995D01*
X148615953Y-84827863D01*
X148593119Y-84777865D01*
X148564694Y-84715623D01*
X148483891Y-84622371D01*
X148455645Y-84604218D01*
X148380092Y-84555663D01*
X148380089Y-84555662D01*
X148380088Y-84555661D01*
X148320891Y-84538279D01*
X148261696Y-84520898D01*
X148261695Y-84520898D01*
X148138305Y-84520898D01*
X148138303Y-84520898D01*
X148019912Y-84555661D01*
X148019907Y-84555663D01*
X147916113Y-84622368D01*
X147916108Y-84622372D01*
X147835306Y-84715622D01*
X147784046Y-84827863D01*
X147766487Y-84949995D01*
X140226325Y-84949995D01*
X140233513Y-84900000D01*
X140223141Y-84827863D01*
X140215953Y-84777865D01*
X140164694Y-84665625D01*
X140083891Y-84572373D01*
X140055645Y-84554220D01*
X139980092Y-84505665D01*
X139980089Y-84505664D01*
X139980088Y-84505663D01*
X139920891Y-84488281D01*
X139861696Y-84470900D01*
X139861695Y-84470900D01*
X139738305Y-84470900D01*
X139738303Y-84470900D01*
X139619912Y-84505663D01*
X139619907Y-84505665D01*
X139516113Y-84572370D01*
X139516108Y-84572374D01*
X139435306Y-84665624D01*
X139384046Y-84777865D01*
X139366487Y-84899997D01*
X132000500Y-84899997D01*
X132000500Y-83599997D01*
X137566487Y-83599997D01*
X137566487Y-83600002D01*
X137584046Y-83722134D01*
X137609498Y-83777865D01*
X137635306Y-83834375D01*
X137716109Y-83927627D01*
X137819912Y-83994337D01*
X137938305Y-84029100D01*
X137938306Y-84029100D01*
X138061694Y-84029100D01*
X138061695Y-84029100D01*
X138180088Y-83994337D01*
X138283891Y-83927627D01*
X138307832Y-83899997D01*
X138916487Y-83899997D01*
X138916487Y-83900002D01*
X138934046Y-84022134D01*
X138985306Y-84134375D01*
X139066109Y-84227627D01*
X139169912Y-84294337D01*
X139288305Y-84329100D01*
X139288306Y-84329100D01*
X139411694Y-84329100D01*
X139411695Y-84329100D01*
X139530088Y-84294337D01*
X139633891Y-84227627D01*
X139714694Y-84134375D01*
X139765953Y-84022135D01*
X139783513Y-83900000D01*
X139765953Y-83777865D01*
X139714694Y-83665625D01*
X139633891Y-83572373D01*
X139605645Y-83554220D01*
X139530092Y-83505665D01*
X139530089Y-83505664D01*
X139530088Y-83505663D01*
X139435416Y-83477865D01*
X139411696Y-83470900D01*
X139411695Y-83470900D01*
X139288305Y-83470900D01*
X139288303Y-83470900D01*
X139169912Y-83505663D01*
X139169907Y-83505665D01*
X139066113Y-83572370D01*
X139066108Y-83572374D01*
X138985306Y-83665624D01*
X138934046Y-83777865D01*
X138916487Y-83899997D01*
X138307832Y-83899997D01*
X138364694Y-83834375D01*
X138415953Y-83722135D01*
X138433513Y-83600000D01*
X138429540Y-83572370D01*
X138415953Y-83477865D01*
X138412772Y-83470900D01*
X138364694Y-83365625D01*
X138283891Y-83272373D01*
X138255645Y-83254220D01*
X138180092Y-83205665D01*
X138180089Y-83205664D01*
X138180088Y-83205663D01*
X138120891Y-83188281D01*
X138061696Y-83170900D01*
X138061695Y-83170900D01*
X137938305Y-83170900D01*
X137938303Y-83170900D01*
X137819912Y-83205663D01*
X137819907Y-83205665D01*
X137716113Y-83272370D01*
X137716108Y-83272374D01*
X137635306Y-83365624D01*
X137584046Y-83477865D01*
X137566487Y-83599997D01*
X132000500Y-83599997D01*
X132000500Y-82399997D01*
X137616487Y-82399997D01*
X137616487Y-82400002D01*
X137634046Y-82522134D01*
X137685306Y-82634375D01*
X137766109Y-82727627D01*
X137869912Y-82794337D01*
X137988305Y-82829100D01*
X137988306Y-82829100D01*
X138111694Y-82829100D01*
X138111695Y-82829100D01*
X138230088Y-82794337D01*
X138333891Y-82727627D01*
X138414694Y-82634375D01*
X138465953Y-82522135D01*
X138483513Y-82400000D01*
X138473712Y-82331834D01*
X138465953Y-82277865D01*
X138417548Y-82171875D01*
X138414694Y-82165625D01*
X138333891Y-82072373D01*
X138305645Y-82054220D01*
X138230092Y-82005665D01*
X138230089Y-82005664D01*
X138230088Y-82005663D01*
X138170891Y-81988281D01*
X138111696Y-81970900D01*
X138111695Y-81970900D01*
X137988305Y-81970900D01*
X137988303Y-81970900D01*
X137869912Y-82005663D01*
X137869907Y-82005665D01*
X137766113Y-82072370D01*
X137766108Y-82072374D01*
X137685306Y-82165624D01*
X137634046Y-82277865D01*
X137616487Y-82399997D01*
X132000500Y-82399997D01*
X132000500Y-81937497D01*
X146828987Y-81937497D01*
X146828987Y-81937502D01*
X146846546Y-82059634D01*
X146894951Y-82165624D01*
X146897806Y-82171875D01*
X146978609Y-82265127D01*
X147082412Y-82331837D01*
X147200805Y-82366600D01*
X147200806Y-82366600D01*
X147324194Y-82366600D01*
X147324195Y-82366600D01*
X147442588Y-82331837D01*
X147546391Y-82265127D01*
X147627194Y-82171875D01*
X147678453Y-82059635D01*
X147696013Y-81937500D01*
X147678453Y-81815365D01*
X147627194Y-81703125D01*
X147546391Y-81609873D01*
X147518145Y-81591720D01*
X147442592Y-81543165D01*
X147442589Y-81543164D01*
X147442588Y-81543163D01*
X147383391Y-81525781D01*
X147324196Y-81508400D01*
X147324195Y-81508400D01*
X147200805Y-81508400D01*
X147200803Y-81508400D01*
X147082412Y-81543163D01*
X147082407Y-81543165D01*
X146978613Y-81609870D01*
X146978608Y-81609874D01*
X146897806Y-81703124D01*
X146846546Y-81815365D01*
X146828987Y-81937497D01*
X132000500Y-81937497D01*
X132000500Y-71949997D01*
X153916487Y-71949997D01*
X153916487Y-71950002D01*
X153934046Y-72072134D01*
X153985306Y-72184375D01*
X154066109Y-72277627D01*
X154169912Y-72344337D01*
X154288305Y-72379100D01*
X154288306Y-72379100D01*
X154411694Y-72379100D01*
X154411695Y-72379100D01*
X154530088Y-72344337D01*
X154633891Y-72277627D01*
X154714694Y-72184375D01*
X154765953Y-72072135D01*
X154783513Y-71950000D01*
X154765953Y-71827865D01*
X154714694Y-71715625D01*
X154633891Y-71622373D01*
X154605645Y-71604220D01*
X154530092Y-71555665D01*
X154530089Y-71555664D01*
X154530088Y-71555663D01*
X154470891Y-71538281D01*
X154411696Y-71520900D01*
X154411695Y-71520900D01*
X154288305Y-71520900D01*
X154288303Y-71520900D01*
X154169912Y-71555663D01*
X154169907Y-71555665D01*
X154066113Y-71622370D01*
X154066108Y-71622374D01*
X153985306Y-71715624D01*
X153934046Y-71827865D01*
X153916487Y-71949997D01*
X132000500Y-71949997D01*
X132000500Y-66149997D01*
X150216487Y-66149997D01*
X150216487Y-66150002D01*
X150234046Y-66272134D01*
X150275000Y-66361808D01*
X150285306Y-66384375D01*
X150366109Y-66477627D01*
X150469912Y-66544337D01*
X150588305Y-66579100D01*
X150588306Y-66579100D01*
X150711694Y-66579100D01*
X150711695Y-66579100D01*
X150830088Y-66544337D01*
X150933891Y-66477627D01*
X150950181Y-66458826D01*
X151002577Y-66427231D01*
X151063538Y-66432467D01*
X151099818Y-66458826D01*
X151116109Y-66477627D01*
X151219912Y-66544337D01*
X151338305Y-66579100D01*
X151338306Y-66579100D01*
X151461694Y-66579100D01*
X151461695Y-66579100D01*
X151580088Y-66544337D01*
X151683891Y-66477627D01*
X151764694Y-66384375D01*
X151815953Y-66272135D01*
X151833513Y-66150000D01*
X151815953Y-66027865D01*
X151764694Y-65915625D01*
X151683891Y-65822373D01*
X151655645Y-65804220D01*
X151580092Y-65755665D01*
X151580089Y-65755664D01*
X151580088Y-65755663D01*
X151520891Y-65738281D01*
X151461696Y-65720900D01*
X151461695Y-65720900D01*
X151338305Y-65720900D01*
X151338303Y-65720900D01*
X151219912Y-65755663D01*
X151219907Y-65755665D01*
X151116113Y-65822370D01*
X151116110Y-65822372D01*
X151099818Y-65841174D01*
X151047421Y-65872769D01*
X150986460Y-65867531D01*
X150950182Y-65841174D01*
X150933891Y-65822373D01*
X150905645Y-65804220D01*
X150830092Y-65755665D01*
X150830089Y-65755664D01*
X150830088Y-65755663D01*
X150770891Y-65738281D01*
X150711696Y-65720900D01*
X150711695Y-65720900D01*
X150588305Y-65720900D01*
X150588303Y-65720900D01*
X150469912Y-65755663D01*
X150469907Y-65755665D01*
X150366113Y-65822370D01*
X150366108Y-65822374D01*
X150285306Y-65915624D01*
X150234046Y-66027865D01*
X150216487Y-66149997D01*
X132000500Y-66149997D01*
X132000500Y-63883714D01*
X133522500Y-63883714D01*
X133522500Y-64116285D01*
X133558879Y-64345977D01*
X133558881Y-64345982D01*
X133630747Y-64567163D01*
X133736328Y-64774379D01*
X133873026Y-64962527D01*
X134037473Y-65126974D01*
X134225621Y-65263672D01*
X134432837Y-65369253D01*
X134654018Y-65441119D01*
X134654019Y-65441119D01*
X134654022Y-65441120D01*
X134883715Y-65477500D01*
X134883718Y-65477500D01*
X135116285Y-65477500D01*
X135345977Y-65441120D01*
X135345978Y-65441119D01*
X135345982Y-65441119D01*
X135567163Y-65369253D01*
X135774379Y-65263672D01*
X135962527Y-65126974D01*
X136126974Y-64962527D01*
X136263672Y-64774379D01*
X136369253Y-64567163D01*
X136441119Y-64345982D01*
X136477500Y-64116282D01*
X136477500Y-63883718D01*
X136477500Y-63883714D01*
X159522500Y-63883714D01*
X159522500Y-64116285D01*
X159558879Y-64345977D01*
X159558881Y-64345982D01*
X159630747Y-64567163D01*
X159736328Y-64774379D01*
X159873026Y-64962527D01*
X160037473Y-65126974D01*
X160225621Y-65263672D01*
X160432837Y-65369253D01*
X160654018Y-65441119D01*
X160654019Y-65441119D01*
X160654022Y-65441120D01*
X160883715Y-65477500D01*
X160883718Y-65477500D01*
X161116285Y-65477500D01*
X161345977Y-65441120D01*
X161345978Y-65441119D01*
X161345982Y-65441119D01*
X161567163Y-65369253D01*
X161774379Y-65263672D01*
X161962527Y-65126974D01*
X162126974Y-64962527D01*
X162263672Y-64774379D01*
X162369253Y-64567163D01*
X162441119Y-64345982D01*
X162477500Y-64116282D01*
X162477500Y-63883718D01*
X162477500Y-63883714D01*
X162441120Y-63654022D01*
X162441119Y-63654018D01*
X162369253Y-63432837D01*
X162263672Y-63225621D01*
X162126974Y-63037473D01*
X161962527Y-62873026D01*
X161774379Y-62736328D01*
X161774378Y-62736327D01*
X161774376Y-62736326D01*
X161567163Y-62630747D01*
X161345977Y-62558879D01*
X161116285Y-62522500D01*
X161116282Y-62522500D01*
X160883718Y-62522500D01*
X160883715Y-62522500D01*
X160654022Y-62558879D01*
X160432836Y-62630747D01*
X160225623Y-62736326D01*
X160037474Y-62873025D01*
X159873025Y-63037474D01*
X159736326Y-63225623D01*
X159630747Y-63432836D01*
X159558879Y-63654022D01*
X159522500Y-63883714D01*
X136477500Y-63883714D01*
X136441120Y-63654022D01*
X136441119Y-63654018D01*
X136369253Y-63432837D01*
X136263672Y-63225621D01*
X136126974Y-63037473D01*
X135962527Y-62873026D01*
X135774379Y-62736328D01*
X135774378Y-62736327D01*
X135774376Y-62736326D01*
X135567163Y-62630747D01*
X135345977Y-62558879D01*
X135116285Y-62522500D01*
X135116282Y-62522500D01*
X134883718Y-62522500D01*
X134883715Y-62522500D01*
X134654022Y-62558879D01*
X134432836Y-62630747D01*
X134225623Y-62736326D01*
X134037474Y-62873025D01*
X133873025Y-63037474D01*
X133736326Y-63225623D01*
X133630747Y-63432836D01*
X133558879Y-63654022D01*
X133522500Y-63883714D01*
X132000500Y-63883714D01*
X132000500Y-60999500D01*
X132019407Y-60941309D01*
X132068907Y-60905345D01*
X132099500Y-60900500D01*
X163900500Y-60900500D01*
X163958691Y-60919407D01*
G37*
%TD.AperFunction*%
%TD*%
M02*
