%TF.GenerationSoftware,KiCad,Pcbnew,8.0.7*%
%TF.CreationDate,2025-01-08T02:27:13-05:00*%
%TF.ProjectId,active-drag-system,61637469-7665-42d6-9472-61672d737973,rev?*%
%TF.SameCoordinates,Original*%
%TF.FileFunction,Paste,Top*%
%TF.FilePolarity,Positive*%
%FSLAX46Y46*%
G04 Gerber Fmt 4.6, Leading zero omitted, Abs format (unit mm)*
G04 Created by KiCad (PCBNEW 8.0.7) date 2025-01-08 02:27:13*
%MOMM*%
%LPD*%
G01*
G04 APERTURE LIST*
G04 Aperture macros list*
%AMRoundRect*
0 Rectangle with rounded corners*
0 $1 Rounding radius*
0 $2 $3 $4 $5 $6 $7 $8 $9 X,Y pos of 4 corners*
0 Add a 4 corners polygon primitive as box body*
4,1,4,$2,$3,$4,$5,$6,$7,$8,$9,$2,$3,0*
0 Add four circle primitives for the rounded corners*
1,1,$1+$1,$2,$3*
1,1,$1+$1,$4,$5*
1,1,$1+$1,$6,$7*
1,1,$1+$1,$8,$9*
0 Add four rect primitives between the rounded corners*
20,1,$1+$1,$2,$3,$4,$5,0*
20,1,$1+$1,$4,$5,$6,$7,0*
20,1,$1+$1,$6,$7,$8,$9,0*
20,1,$1+$1,$8,$9,$2,$3,0*%
%AMFreePoly0*
4,1,19,0.563745,0.600348,0.608674,0.548497,0.619677,0.497915,0.619677,-0.497915,0.600348,-0.563745,0.548497,-0.608674,0.497915,-0.619677,-0.497915,-0.619677,-0.563745,-0.600348,-0.608674,-0.548497,-0.619677,-0.497915,-0.619677,0.397045,-0.600348,0.462875,-0.584014,0.483144,-0.483144,0.584014,-0.422927,0.616894,-0.397045,0.619677,0.497915,0.619677,0.563745,0.600348,0.563745,0.600348,
$1*%
%AMFreePoly1*
4,1,19,0.563745,0.600348,0.608674,0.548497,0.619677,0.497915,0.619677,-0.497915,0.600348,-0.563745,0.548497,-0.608674,0.497915,-0.619677,-0.397045,-0.619677,-0.462875,-0.600348,-0.483144,-0.584014,-0.584014,-0.483144,-0.616894,-0.422927,-0.619677,-0.397045,-0.619677,0.497915,-0.600348,0.563745,-0.548497,0.608674,-0.497915,0.619677,0.497915,0.619677,0.563745,0.600348,0.563745,0.600348,
$1*%
%AMFreePoly2*
4,1,19,0.462875,0.600348,0.483144,0.584014,0.584014,0.483144,0.616894,0.422927,0.619677,0.397045,0.619677,-0.497915,0.600348,-0.563745,0.548497,-0.608674,0.497915,-0.619677,-0.497915,-0.619677,-0.563745,-0.600348,-0.608674,-0.548497,-0.619677,-0.497915,-0.619677,0.497915,-0.600348,0.563745,-0.548497,0.608674,-0.497915,0.619677,0.397045,0.619677,0.462875,0.600348,0.462875,0.600348,
$1*%
%AMFreePoly3*
4,1,19,0.563745,0.600348,0.608674,0.548497,0.619677,0.497915,0.619677,-0.397045,0.600348,-0.462875,0.584014,-0.483144,0.483144,-0.584014,0.422927,-0.616894,0.397045,-0.619677,-0.497915,-0.619677,-0.563745,-0.600348,-0.608674,-0.548497,-0.619677,-0.497915,-0.619677,0.497915,-0.600348,0.563745,-0.548497,0.608674,-0.497915,0.619677,0.497915,0.619677,0.563745,0.600348,0.563745,0.600348,
$1*%
G04 Aperture macros list end*
%ADD10C,0.000000*%
%ADD11RoundRect,0.250000X0.475000X-0.250000X0.475000X0.250000X-0.475000X0.250000X-0.475000X-0.250000X0*%
%ADD12R,1.092200X0.609600*%
%ADD13RoundRect,0.225000X0.250000X-0.225000X0.250000X0.225000X-0.250000X0.225000X-0.250000X-0.225000X0*%
%ADD14RoundRect,0.200000X-0.275000X0.200000X-0.275000X-0.200000X0.275000X-0.200000X0.275000X0.200000X0*%
%ADD15R,1.524000X0.533400*%
%ADD16R,0.812800X1.905000*%
%ADD17R,1.117800X0.449200*%
%ADD18R,0.500000X0.813000*%
%ADD19RoundRect,0.250000X-0.262500X-0.450000X0.262500X-0.450000X0.262500X0.450000X-0.262500X0.450000X0*%
%ADD20RoundRect,0.225000X-0.250000X0.225000X-0.250000X-0.225000X0.250000X-0.225000X0.250000X0.225000X0*%
%ADD21RoundRect,0.200000X-0.200000X-0.275000X0.200000X-0.275000X0.200000X0.275000X-0.200000X0.275000X0*%
%ADD22RoundRect,0.225000X-0.225000X-0.250000X0.225000X-0.250000X0.225000X0.250000X-0.225000X0.250000X0*%
%ADD23RoundRect,0.200000X0.275000X-0.200000X0.275000X0.200000X-0.275000X0.200000X-0.275000X-0.200000X0*%
%ADD24RoundRect,0.250000X0.262500X0.450000X-0.262500X0.450000X-0.262500X-0.450000X0.262500X-0.450000X0*%
%ADD25RoundRect,0.250000X-0.475000X0.250000X-0.475000X-0.250000X0.475000X-0.250000X0.475000X0.250000X0*%
%ADD26RoundRect,0.200000X0.200000X0.275000X-0.200000X0.275000X-0.200000X-0.275000X0.200000X-0.275000X0*%
%ADD27RoundRect,0.225000X0.225000X0.250000X-0.225000X0.250000X-0.225000X-0.250000X0.225000X-0.250000X0*%
%ADD28R,0.599999X0.249999*%
%ADD29R,0.249999X0.599999*%
%ADD30R,0.812800X0.406400*%
%ADD31R,1.752600X2.489200*%
%ADD32R,0.800000X0.800000*%
%ADD33RoundRect,0.026250X0.263750X0.148750X-0.263750X0.148750X-0.263750X-0.148750X0.263750X-0.148750X0*%
%ADD34RoundRect,0.026250X0.148750X0.263750X-0.148750X0.263750X-0.148750X-0.263750X0.148750X-0.263750X0*%
%ADD35RoundRect,0.250000X0.250000X0.475000X-0.250000X0.475000X-0.250000X-0.475000X0.250000X-0.475000X0*%
%ADD36R,1.400000X1.200000*%
%ADD37R,1.397000X0.254000*%
%ADD38R,0.254000X0.609600*%
%ADD39R,0.609600X0.254000*%
%ADD40R,0.990600X0.711200*%
%ADD41FreePoly0,0.000000*%
%ADD42FreePoly1,0.000000*%
%ADD43FreePoly2,0.000000*%
%ADD44FreePoly3,0.000000*%
%ADD45RoundRect,0.050000X-0.387500X-0.050000X0.387500X-0.050000X0.387500X0.050000X-0.387500X0.050000X0*%
%ADD46RoundRect,0.050000X-0.050000X-0.387500X0.050000X-0.387500X0.050000X0.387500X-0.050000X0.387500X0*%
%ADD47R,3.700000X0.980000*%
%ADD48RoundRect,0.250000X0.450000X-0.262500X0.450000X0.262500X-0.450000X0.262500X-0.450000X-0.262500X0*%
%ADD49R,0.400000X1.350000*%
%ADD50R,1.600000X1.400000*%
%ADD51R,1.900000X1.900000*%
%ADD52RoundRect,0.250000X-0.450000X0.262500X-0.450000X-0.262500X0.450000X-0.262500X0.450000X0.262500X0*%
%ADD53RoundRect,0.250000X-0.250000X-0.475000X0.250000X-0.475000X0.250000X0.475000X-0.250000X0.475000X0*%
%ADD54RoundRect,0.237500X0.237500X-0.250000X0.237500X0.250000X-0.237500X0.250000X-0.237500X-0.250000X0*%
%ADD55R,1.905000X0.812800*%
%ADD56R,0.457200X0.304800*%
%ADD57R,0.304800X0.457200*%
G04 APERTURE END LIST*
D10*
%TO.C,U6*%
G36*
X135046100Y-82729800D02*
G01*
X133953900Y-82729800D01*
X133953900Y-82120200D01*
X135046100Y-82120200D01*
X135046100Y-82729800D01*
G37*
G36*
X135046100Y-83979800D02*
G01*
X133953900Y-83979800D01*
X133953900Y-83370200D01*
X135046100Y-83370200D01*
X135046100Y-83979800D01*
G37*
G36*
X135046100Y-85229800D02*
G01*
X133953900Y-85229800D01*
X133953900Y-84620200D01*
X135046100Y-84620200D01*
X135046100Y-85229800D01*
G37*
G36*
X135046100Y-86479800D02*
G01*
X133953900Y-86479800D01*
X133953900Y-85870200D01*
X135046100Y-85870200D01*
X135046100Y-86479800D01*
G37*
G36*
X137246100Y-82729800D02*
G01*
X136153900Y-82729800D01*
X136153900Y-82120200D01*
X137246100Y-82120200D01*
X137246100Y-82729800D01*
G37*
G36*
X137246100Y-83979800D02*
G01*
X136153900Y-83979800D01*
X136153900Y-83370200D01*
X137246100Y-83370200D01*
X137246100Y-83979800D01*
G37*
G36*
X137246100Y-85229800D02*
G01*
X136153900Y-85229800D01*
X136153900Y-84620200D01*
X137246100Y-84620200D01*
X137246100Y-85229800D01*
G37*
G36*
X137246100Y-86479800D02*
G01*
X136153900Y-86479800D01*
X136153900Y-85870200D01*
X137246100Y-85870200D01*
X137246100Y-86479800D01*
G37*
%TO.C,U9*%
G36*
X147275000Y-135800000D02*
G01*
X147275000Y-136850000D01*
X147225000Y-136900000D01*
X146275000Y-136900000D01*
X146225000Y-136850000D01*
X146225000Y-135800000D01*
X146275000Y-135750000D01*
X147225000Y-135750000D01*
X147275000Y-135800000D01*
G37*
G36*
X147275000Y-134400000D02*
G01*
X147275000Y-135450000D01*
X147225000Y-135500000D01*
X146275000Y-135500000D01*
X146225000Y-135450000D01*
X146225000Y-134400000D01*
X146275000Y-134350000D01*
X147225000Y-134350000D01*
X147275000Y-134400000D01*
G37*
G36*
X147275000Y-137150000D02*
G01*
X147275000Y-138200000D01*
X147225000Y-138250000D01*
X146275000Y-138250000D01*
X146225000Y-138200000D01*
X146225000Y-137150000D01*
X146275000Y-137100000D01*
X147225000Y-137100000D01*
X147275000Y-137150000D01*
G37*
G36*
X147275000Y-138650000D02*
G01*
X147275000Y-139700000D01*
X147225000Y-139750000D01*
X146275000Y-139750000D01*
X146225000Y-139700000D01*
X146225000Y-138650000D01*
X146275000Y-138600000D01*
X147225000Y-138600000D01*
X147275000Y-138650000D01*
G37*
G36*
X147275000Y-138500000D02*
G01*
X147275000Y-139550000D01*
X147225000Y-139600000D01*
X146275000Y-139600000D01*
X146225000Y-139550000D01*
X146225000Y-138500000D01*
X146275000Y-138450000D01*
X147225000Y-138450000D01*
X147275000Y-138500000D01*
G37*
G36*
X148525000Y-134400000D02*
G01*
X148525000Y-135450000D01*
X148475000Y-135500000D01*
X147525000Y-135500000D01*
X147475000Y-135450000D01*
X147475000Y-134400000D01*
X147525000Y-134350000D01*
X148475000Y-134350000D01*
X148525000Y-134400000D01*
G37*
G36*
X148525000Y-137150000D02*
G01*
X148525000Y-138200000D01*
X148475000Y-138250000D01*
X147525000Y-138250000D01*
X147475000Y-138200000D01*
X147475000Y-137150000D01*
X147525000Y-137100000D01*
X148475000Y-137100000D01*
X148525000Y-137150000D01*
G37*
G36*
X148525000Y-138650000D02*
G01*
X148525000Y-139700000D01*
X148475000Y-139750000D01*
X147525000Y-139750000D01*
X147475000Y-139700000D01*
X147475000Y-138650000D01*
X147525000Y-138600000D01*
X148475000Y-138600000D01*
X148525000Y-138650000D01*
G37*
G36*
X148525000Y-134450000D02*
G01*
X148525000Y-135500000D01*
X148475000Y-135550000D01*
X147525000Y-135550000D01*
X147475000Y-135500000D01*
X147475000Y-134450000D01*
X147525000Y-134400000D01*
X148475000Y-134400000D01*
X148525000Y-134450000D01*
G37*
G36*
X148525000Y-135800000D02*
G01*
X148525000Y-136850000D01*
X148475000Y-136900000D01*
X147525000Y-136900000D01*
X147475000Y-136850000D01*
X147475000Y-135800000D01*
X147525000Y-135750000D01*
X148475000Y-135750000D01*
X148525000Y-135800000D01*
G37*
G36*
X149775000Y-134450000D02*
G01*
X149775000Y-135500000D01*
X149725000Y-135550000D01*
X148775000Y-135550000D01*
X148725000Y-135500000D01*
X148725000Y-134450000D01*
X148775000Y-134400000D01*
X149725000Y-134400000D01*
X149775000Y-134450000D01*
G37*
G36*
X149775000Y-134400000D02*
G01*
X149775000Y-135450000D01*
X149725000Y-135500000D01*
X148775000Y-135500000D01*
X148725000Y-135450000D01*
X148725000Y-134400000D01*
X148775000Y-134350000D01*
X149725000Y-134350000D01*
X149775000Y-134400000D01*
G37*
G36*
X149775000Y-137150000D02*
G01*
X149775000Y-138200000D01*
X149725000Y-138250000D01*
X148775000Y-138250000D01*
X148725000Y-138200000D01*
X148725000Y-137150000D01*
X148775000Y-137100000D01*
X149725000Y-137100000D01*
X149775000Y-137150000D01*
G37*
G36*
X149775000Y-138650000D02*
G01*
X149775000Y-139700000D01*
X149725000Y-139750000D01*
X148775000Y-139750000D01*
X148725000Y-139700000D01*
X148725000Y-138650000D01*
X148775000Y-138600000D01*
X149725000Y-138600000D01*
X149775000Y-138650000D01*
G37*
G36*
X149775000Y-135800000D02*
G01*
X149775000Y-136850000D01*
X149725000Y-136900000D01*
X148775000Y-136900000D01*
X148725000Y-136850000D01*
X148725000Y-135800000D01*
X148775000Y-135750000D01*
X149725000Y-135750000D01*
X149775000Y-135800000D01*
G37*
%TD*%
D11*
%TO.C,C29*%
X161800000Y-76600000D03*
X161800000Y-74700000D03*
%TD*%
D12*
%TO.C,U6*%
X134500000Y-82425000D03*
X134500000Y-83675000D03*
X134500000Y-84925000D03*
X134500000Y-86175000D03*
X136700000Y-86175000D03*
X136700000Y-84925000D03*
X136700000Y-83675000D03*
X136700000Y-82425000D03*
%TD*%
D13*
%TO.C,C32*%
X163050000Y-96825000D03*
X163050000Y-95275000D03*
%TD*%
D14*
%TO.C,R8*%
X146500000Y-93900000D03*
X146500000Y-95550000D03*
%TD*%
D15*
%TO.C,U2*%
X135555100Y-74995000D03*
X135555100Y-76265000D03*
X135555100Y-77535000D03*
X135555100Y-78805000D03*
X142844900Y-78805000D03*
X142844900Y-77535000D03*
X142844900Y-76265000D03*
X142844900Y-74995000D03*
%TD*%
D16*
%TO.C,CR2*%
X152148700Y-114800000D03*
X147551300Y-114800000D03*
%TD*%
D17*
%TO.C,U7*%
X161320901Y-96931503D03*
X161320901Y-96131502D03*
X161320901Y-95331501D03*
X161320901Y-94531503D03*
X161320901Y-93731502D03*
X161320901Y-92931503D03*
D18*
X159950000Y-93213004D03*
D17*
X158579099Y-92931501D03*
X158579099Y-93731502D03*
X158579099Y-94531503D03*
X158579099Y-95331501D03*
X158579099Y-96131502D03*
X158579099Y-96931501D03*
D18*
X159950000Y-96650000D03*
%TD*%
D11*
%TO.C,C13*%
X145400000Y-73650000D03*
X145400000Y-71750000D03*
%TD*%
D19*
%TO.C,R12*%
X139341601Y-113300126D03*
X141166601Y-113300126D03*
%TD*%
D20*
%TO.C,C19*%
X137954101Y-117225126D03*
X137954101Y-118775126D03*
%TD*%
D14*
%TO.C,R9*%
X135300000Y-71575000D03*
X135300000Y-73225000D03*
%TD*%
D21*
%TO.C,R11*%
X140829101Y-123100126D03*
X142479101Y-123100126D03*
%TD*%
D22*
%TO.C,C31*%
X161550000Y-82800000D03*
X163100000Y-82800000D03*
%TD*%
D13*
%TO.C,C38*%
X142100000Y-139525000D03*
X142100000Y-137975000D03*
%TD*%
D23*
%TO.C,R20*%
X144000000Y-136075000D03*
X144000000Y-134425000D03*
%TD*%
D24*
%TO.C,R18*%
X146800000Y-129150000D03*
X144975000Y-129150000D03*
%TD*%
D25*
%TO.C,C22*%
X152175887Y-122500000D03*
X152175887Y-124400000D03*
%TD*%
D11*
%TO.C,C20*%
X149975887Y-120750000D03*
X149975887Y-118850000D03*
%TD*%
D26*
%TO.C,R6*%
X160800000Y-88300000D03*
X159150000Y-88300000D03*
%TD*%
D14*
%TO.C,R3*%
X147900000Y-74275000D03*
X147900000Y-75925000D03*
%TD*%
D27*
%TO.C,C10*%
X144325000Y-98300000D03*
X142775000Y-98300000D03*
%TD*%
D20*
%TO.C,C16*%
X142854101Y-117525126D03*
X142854101Y-119075126D03*
%TD*%
D28*
%TO.C,U9*%
X145600000Y-134250000D03*
X145600000Y-134749999D03*
X145600000Y-135250001D03*
X145600000Y-135750000D03*
X145600000Y-136249999D03*
X145600000Y-136750000D03*
X145600000Y-137250000D03*
X145600000Y-137750001D03*
X145600000Y-138250000D03*
X145600000Y-138749999D03*
X145600000Y-139250001D03*
X145600000Y-139750000D03*
D29*
X146250001Y-140400001D03*
X146750000Y-140400001D03*
X147249999Y-140400001D03*
X147750000Y-140400001D03*
X148250000Y-140400001D03*
X148750001Y-140400001D03*
X149250000Y-140400001D03*
X149749999Y-140400001D03*
D28*
X150400000Y-139750000D03*
X150400000Y-139250001D03*
X150400000Y-138749999D03*
X150400000Y-138250000D03*
X150400000Y-137750001D03*
X150400000Y-137250000D03*
X150400000Y-136750000D03*
X150400000Y-136249999D03*
X150400000Y-135750000D03*
X150400000Y-135250001D03*
X150400000Y-134749999D03*
X150400000Y-134250000D03*
D29*
X149749999Y-133599999D03*
X149250000Y-133599999D03*
X148750001Y-133599999D03*
X148250000Y-133599999D03*
X147750000Y-133599999D03*
X147249999Y-133599999D03*
X146750000Y-133599999D03*
X146250001Y-133599999D03*
%TD*%
D24*
%TO.C,R13*%
X143766601Y-115500126D03*
X141941601Y-115500126D03*
%TD*%
D25*
%TO.C,C30*%
X155650000Y-74250000D03*
X155650000Y-76150000D03*
%TD*%
D22*
%TO.C,C33*%
X158225000Y-82800000D03*
X159775000Y-82800000D03*
%TD*%
D26*
%TO.C,R21*%
X154725000Y-139050000D03*
X153075000Y-139050000D03*
%TD*%
D11*
%TO.C,C26*%
X156049400Y-114750000D03*
X156049400Y-112850000D03*
%TD*%
D21*
%TO.C,R19*%
X142375000Y-132850000D03*
X144025000Y-132850000D03*
%TD*%
D11*
%TO.C,C5*%
X156200000Y-80950000D03*
X156200000Y-79050000D03*
%TD*%
D22*
%TO.C,C9*%
X153725000Y-88000000D03*
X155275000Y-88000000D03*
%TD*%
%TO.C,C24*%
X140879101Y-121500126D03*
X142429101Y-121500126D03*
%TD*%
D27*
%TO.C,C8*%
X141200000Y-88100000D03*
X139650000Y-88100000D03*
%TD*%
D30*
%TO.C,U4*%
X160697800Y-114950001D03*
X160697800Y-114000000D03*
X160697800Y-113049999D03*
X157802200Y-113049999D03*
X157802200Y-114000000D03*
X157802200Y-114950001D03*
D31*
X159250000Y-114000000D03*
%TD*%
D11*
%TO.C,C39*%
X144100000Y-140450000D03*
X144100000Y-138550000D03*
%TD*%
D32*
%TO.C,D1*%
X156500000Y-67100000D03*
X154900000Y-67100000D03*
%TD*%
D23*
%TO.C,R5*%
X156100000Y-91225000D03*
X156100000Y-89575000D03*
%TD*%
D33*
%TO.C,U8*%
X160160000Y-86540000D03*
X160160000Y-86040000D03*
X160160000Y-85540000D03*
X160160000Y-85040000D03*
D34*
X159500000Y-84880000D03*
X159000000Y-84880000D03*
X158500000Y-84880000D03*
D33*
X157840000Y-85040000D03*
X157840000Y-85540000D03*
X157840000Y-86040000D03*
X157840000Y-86540000D03*
D34*
X158500000Y-86700000D03*
X159000000Y-86700000D03*
X159500000Y-86700000D03*
%TD*%
D20*
%TO.C,C15*%
X149900000Y-93675000D03*
X149900000Y-95225000D03*
%TD*%
D26*
%TO.C,R14*%
X139379101Y-123300126D03*
X137729101Y-123300126D03*
%TD*%
D11*
%TO.C,C3*%
X149900000Y-80900000D03*
X149900000Y-79000000D03*
%TD*%
D13*
%TO.C,C2*%
X146000000Y-80275000D03*
X146000000Y-78725000D03*
%TD*%
D25*
%TO.C,C21*%
X149975887Y-122500000D03*
X149975887Y-124400000D03*
%TD*%
D35*
%TO.C,C41*%
X154950000Y-137250000D03*
X153050000Y-137250000D03*
%TD*%
D25*
%TO.C,C18*%
X134000000Y-117300000D03*
X134000000Y-119200000D03*
%TD*%
D36*
%TO.C,X1*%
X144050000Y-102300000D03*
X146250000Y-102300000D03*
X146250000Y-100700000D03*
X144050000Y-100700000D03*
%TD*%
D27*
%TO.C,C6*%
X142375000Y-83600000D03*
X140825000Y-83600000D03*
%TD*%
%TO.C,C35*%
X161275000Y-91150000D03*
X159725000Y-91150000D03*
%TD*%
D37*
%TO.C,U3*%
X140047800Y-118100000D03*
X140047800Y-119100252D03*
D38*
X139803912Y-120000126D03*
X140304038Y-120000126D03*
X140804164Y-120000126D03*
X141304290Y-120000126D03*
D37*
X141060402Y-118600126D03*
D39*
X141454102Y-118100000D03*
D38*
X141304290Y-117200126D03*
X140804164Y-117200126D03*
X140304038Y-117200126D03*
X139803912Y-117200126D03*
%TD*%
D11*
%TO.C,C4*%
X152000000Y-80950000D03*
X152000000Y-79050000D03*
%TD*%
D40*
%TO.C,SW1*%
X137049999Y-69525001D03*
X141550001Y-69525001D03*
X137049999Y-71674999D03*
X141550001Y-71674999D03*
%TD*%
D41*
%TO.C,U1*%
X146787500Y-86325000D03*
D42*
X146787500Y-87675000D03*
D43*
X148137500Y-86325000D03*
D44*
X148137500Y-87675000D03*
D45*
X144025000Y-84400000D03*
X144025000Y-84800000D03*
X144025000Y-85200000D03*
X144025000Y-85600000D03*
X144025000Y-86000000D03*
X144025000Y-86400000D03*
X144025000Y-86800000D03*
X144025000Y-87200000D03*
X144025000Y-87600000D03*
X144025000Y-88000000D03*
X144025000Y-88400000D03*
X144025000Y-88800000D03*
X144025000Y-89200000D03*
X144025000Y-89600000D03*
D46*
X144862500Y-90437500D03*
X145262500Y-90437500D03*
X145662500Y-90437500D03*
X146062500Y-90437500D03*
X146462500Y-90437500D03*
X146862500Y-90437500D03*
X147262500Y-90437500D03*
X147662500Y-90437500D03*
X148062500Y-90437500D03*
X148462500Y-90437500D03*
X148862500Y-90437500D03*
X149262500Y-90437500D03*
X149662500Y-90437500D03*
X150062500Y-90437500D03*
D45*
X150900000Y-89600000D03*
X150900000Y-89200000D03*
X150900000Y-88800000D03*
X150900000Y-88400000D03*
X150900000Y-88000000D03*
X150900000Y-87600000D03*
X150900000Y-87200000D03*
X150900000Y-86800000D03*
X150900000Y-86400000D03*
X150900000Y-86000000D03*
X150900000Y-85600000D03*
X150900000Y-85200000D03*
X150900000Y-84800000D03*
X150900000Y-84400000D03*
D46*
X150062500Y-83562500D03*
X149662500Y-83562500D03*
X149262500Y-83562500D03*
X148862500Y-83562500D03*
X148462500Y-83562500D03*
X148062500Y-83562500D03*
X147662500Y-83562500D03*
X147262500Y-83562500D03*
X146862500Y-83562500D03*
X146462500Y-83562500D03*
X146062500Y-83562500D03*
X145662500Y-83562500D03*
X145262500Y-83562500D03*
X144862500Y-83562500D03*
%TD*%
D11*
%TO.C,C23*%
X152175887Y-120700000D03*
X152175887Y-118800000D03*
%TD*%
D47*
%TO.C,L1*%
X146097800Y-119165000D03*
X146097800Y-121535000D03*
%TD*%
D19*
%TO.C,R17*%
X148587500Y-129150000D03*
X150412500Y-129150000D03*
%TD*%
D13*
%TO.C,C1*%
X147600000Y-80275000D03*
X147600000Y-78725000D03*
%TD*%
D25*
%TO.C,C17*%
X136000000Y-117300000D03*
X136000000Y-119200000D03*
%TD*%
D11*
%TO.C,C37*%
X138600000Y-139950000D03*
X138600000Y-138050000D03*
%TD*%
D48*
%TO.C,R16*%
X154049400Y-115912500D03*
X154049400Y-114087500D03*
%TD*%
D49*
%TO.C,J3*%
X149750000Y-64775000D03*
X149100000Y-64775000D03*
X148450000Y-64775000D03*
X147800000Y-64775000D03*
X147150000Y-64775000D03*
D50*
X151650000Y-64550000D03*
X145250000Y-64550000D03*
D51*
X147250000Y-62100000D03*
X149650000Y-62100000D03*
%TD*%
D20*
%TO.C,C28*%
X132800000Y-83225000D03*
X132800000Y-84775000D03*
%TD*%
D52*
%TO.C,R7*%
X154100000Y-79087500D03*
X154100000Y-80912500D03*
%TD*%
D53*
%TO.C,C34*%
X158250000Y-80600000D03*
X160150000Y-80600000D03*
%TD*%
D22*
%TO.C,C11*%
X146525000Y-98800000D03*
X148075000Y-98800000D03*
%TD*%
D19*
%TO.C,R2*%
X151987500Y-75950000D03*
X153812500Y-75950000D03*
%TD*%
D54*
%TO.C,R1*%
X154900000Y-70712500D03*
X154900000Y-68887500D03*
%TD*%
D14*
%TO.C,R4*%
X149500000Y-74275000D03*
X149500000Y-75925000D03*
%TD*%
D27*
%TO.C,C40*%
X146875000Y-130850000D03*
X145325000Y-130850000D03*
%TD*%
D55*
%TO.C,CR1*%
X156397800Y-117501300D03*
X156397800Y-122098700D03*
%TD*%
D20*
%TO.C,C14*%
X148150000Y-93925000D03*
X148150000Y-95475000D03*
%TD*%
D53*
%TO.C,C25*%
X142904101Y-113300126D03*
X144804101Y-113300126D03*
%TD*%
D23*
%TO.C,R15*%
X138154101Y-121825126D03*
X138154101Y-120175126D03*
%TD*%
D56*
%TO.C,U5*%
X159974999Y-75575002D03*
X159974999Y-75075001D03*
X159974999Y-74575001D03*
X159974999Y-74075000D03*
D57*
X159450001Y-73550002D03*
X158950000Y-73550002D03*
X158450000Y-73550002D03*
X157949999Y-73550002D03*
D56*
X157425001Y-74075000D03*
X157425001Y-74575001D03*
X157425001Y-75075001D03*
X157425001Y-75575002D03*
D57*
X157949999Y-76100000D03*
X158450000Y-76100000D03*
X158950000Y-76100000D03*
X159450001Y-76100000D03*
%TD*%
D35*
%TO.C,C27*%
X162697800Y-111000000D03*
X160797800Y-111000000D03*
%TD*%
D13*
%TO.C,C12*%
X143200000Y-73400000D03*
X143200000Y-71850000D03*
%TD*%
D22*
%TO.C,C7*%
X153425000Y-83600000D03*
X154975000Y-83600000D03*
%TD*%
D25*
%TO.C,C42*%
X142100000Y-134500000D03*
X142100000Y-136400000D03*
%TD*%
D13*
%TO.C,C36*%
X140500000Y-139525000D03*
X140500000Y-137975000D03*
%TD*%
D19*
%TO.C,R10*%
X137754101Y-115500126D03*
X139579101Y-115500126D03*
%TD*%
M02*
