M48
; DRILL file {KiCad 8.0.7} date 2025-01-08T02:27:18-0500
; FORMAT={-:-/ absolute / inch / decimal}
; #@! TF.CreationDate,2025-01-08T02:27:18-05:00
; #@! TF.GenerationSoftware,Kicad,Pcbnew,8.0.7
; #@! TF.FileFunction,Plated,1,4,PTH
FMAT,2
INCH
; #@! TA.AperFunction,Plated,PTH,ViaDrill
T1C0.0100
; #@! TA.AperFunction,Plated,PTH,ComponentDrill
T2C0.0100
; #@! TA.AperFunction,Plated,PTH,ComponentDrill
T3C0.0197
; #@! TA.AperFunction,Plated,PTH,ComponentDrill
T4C0.0394
; #@! TA.AperFunction,Plated,PTH,ComponentDrill
T5C0.0984
%
G90
G05
T1
X5.2303Y-3.3937
X5.2756Y-4.7343
X5.3327Y-3.9134
X5.3445Y-3.4469
X5.3543Y-4.7343
X5.3681Y-4.0374
X5.3819Y-4.2224
X5.3937Y-4.7441
X5.4016Y-3.1024
X5.4331Y-3.2913
X5.435Y-3.2441
X5.4409Y-3.4055
X5.4567Y-3.4685
X5.4567Y-5.3858
X5.4626Y-3.372
X5.4665Y-3.2244
X5.4724Y-3.4252
X5.4724Y-3.5079
X5.4862Y-3.3031
X5.494Y-4.7598
X5.5039Y-3.3425
X5.5236Y-3.8602
X5.5236Y-4.0571
X5.5315Y-5.3937
X5.5394Y-3.252
X5.5394Y-5.6535
X5.5394Y-5.7008
X5.5433Y-5.3681
X5.5435Y-4.5453
X5.5512Y-3.3622
X5.5748Y-3.374
X5.5748Y-5.6181
X5.5904Y-3.5156
X5.6142Y-5.6535
X5.6142Y-5.7008
X5.6181Y-3.5197
X5.624Y-3.7165
X5.6299Y-3.3976
X5.6339Y-3.5433
X5.6457Y-5.6181
X5.6535Y-2.7598
X5.6555Y-3.5866
X5.6634Y-2.5413
X5.6772Y-5.6535
X5.6772Y-5.7008
X5.6832Y-5.1573
X5.689Y-3.6161
X5.6929Y-5.0374
X5.7008Y-5.6181
X5.7027Y-4.4055
X5.7087Y-4.5079
X5.7105Y-4.5472
X5.7165Y-5.2303
X5.748Y-3.0433
X5.748Y-5.5709
X5.748Y-5.6181
X5.748Y-5.7185
X5.7638Y-5.2146
X5.7662Y-3.5261
X5.7953Y-5.2028
X5.7977Y-3.2259
X5.7991Y-4.4272
X5.8071Y-5.5709
X5.8071Y-5.6102
X5.8071Y-5.6496
X5.8071Y-5.689
X5.811Y-3.0472
X5.8228Y-3.5118
X5.8267Y-4.4272
X5.8342Y-3.6299
X5.8346Y-3.3445
X5.8346Y-5.2028
X5.8465Y-5.5709
X5.8465Y-5.6102
X5.8465Y-5.6496
X5.8465Y-5.689
X5.8583Y-5.1791
X5.8661Y-4.6299
X5.8937Y-5.1988
X5.9016Y-3.0551
X5.9035Y-4.9427
X5.9043Y-4.6319
X5.9055Y-5.563
X5.9055Y-5.6181
X5.9055Y-5.7185
X5.9272Y-3.6043
X5.9311Y-2.6043
X5.937Y-3.8602
X5.937Y-4.0571
X5.937Y-5.2106
X5.9528Y-5.4469
X5.9528Y-5.6181
X5.9547Y-3.752
X5.9606Y-2.6043
X5.9685Y-5.4823
X5.9744Y-5.2953
X5.9764Y-5.6535
X5.9764Y-5.7008
X5.9843Y-3.0551
X5.9843Y-5.3445
X5.9862Y-3.5689
X5.9899Y-4.9469
X5.9902Y-3.3583
X5.9909Y-4.6279
X5.9961Y-3.3937
X5.9961Y-3.4567
X5.9961Y-5.5059
X5.997Y-3.5266
X6.0079Y-5.6181
X6.0123Y-3.41
X6.0295Y-2.5413
X6.0354Y-5.6535
X6.0354Y-5.7008
X6.0441Y-4.6772
X6.0519Y-4.8976
X6.063Y-5.6181
X6.0709Y-3.5315
X6.0768Y-2.8327
X6.0865Y-4.4429
X6.0925Y-5.5315
X6.0984Y-5.6535
X6.0984Y-5.7008
X6.1014Y-3.253
X6.1122Y-2.8327
X6.1299Y-3.0374
X6.1457Y-5.4154
X6.1476Y-3.6339
X6.1496Y-3.063
X6.1516Y-4.2224
X6.1516Y-5.4921
X6.1614Y-2.687
X6.1654Y-3.4764
X6.1909Y-3.7421
X6.1978Y-2.8573
X6.1988Y-3.815
X6.2028Y-3.6732
X6.2325Y-3.0372
X6.2382Y-3.5906
X6.2598Y-5.4921
X6.2598Y-5.6102
X6.2696Y-4.4016
X6.2776Y-3.063
X6.2795Y-4.2126
X6.2795Y-5.1575
X6.2853Y-4.3681
X6.2894Y-5.2657
X6.2933Y-3.0295
X6.2972Y-3.7611
X6.3071Y-3.1102
X6.315Y-3.0
X6.3306Y-4.311
X6.3465Y-3.3701
X6.3543Y-3.3976
X6.3681Y-3.061
X6.378Y-5.6102
X6.3857Y-4.5197
X6.3996Y-3.689
X6.4054Y-4.2638
X6.4113Y-4.4961
X6.4193Y-3.7067
X6.4213Y-3.2126
T2
X5.7564Y-3.376
X5.7564Y-3.4252
X5.7564Y-3.4744
X5.7776Y-5.3445
X5.7776Y-5.3937
X5.7776Y-5.4528
X5.7972Y-5.2953
X5.7972Y-5.4921
X5.8056Y-3.376
X5.8056Y-3.4252
X5.8056Y-3.4744
X5.8268Y-5.3445
X5.8268Y-5.3937
X5.8268Y-5.4528
X5.8548Y-3.376
X5.8548Y-3.4252
X5.8548Y-3.4744
X5.8563Y-5.2953
X5.8563Y-5.4921
X5.876Y-5.3445
X5.876Y-5.3937
X5.876Y-5.4528
T4
X5.2539Y-3.4921
X5.2539Y-3.7913
X5.2598Y-3.9281
X5.2598Y-4.0281
X5.2598Y-4.1726
X5.2598Y-4.2726
X6.378Y-3.937
X6.378Y-4.037
X6.378Y-4.137
X6.378Y-5.1118
X6.378Y-5.2118
X6.378Y-5.3118
X6.378Y-5.4118
X6.378Y-5.5118
X6.3976Y-4.6913
X6.3976Y-4.7913
T5
X5.3051Y-5.2106
X5.3051Y-5.5177
X5.6102Y-5.8071
X5.8268Y-5.8071
X6.0433Y-5.8071
T3
G00X5.7146Y-2.4587
M15
G01X5.7146Y-2.4311
M16
G05
G00X5.9744Y-2.4587
M15
G01X5.9744Y-2.4311
M16
G05
M30
