%TF.GenerationSoftware,KiCad,Pcbnew,8.0.7*%
%TF.CreationDate,2025-01-08T02:29:51-05:00*%
%TF.ProjectId,active-drag-system-minimal,61637469-7665-42d6-9472-61672d737973,rev?*%
%TF.SameCoordinates,Original*%
%TF.FileFunction,Copper,L4,Bot*%
%TF.FilePolarity,Positive*%
%FSLAX46Y46*%
G04 Gerber Fmt 4.6, Leading zero omitted, Abs format (unit mm)*
G04 Created by KiCad (PCBNEW 8.0.7) date 2025-01-08 02:29:51*
%MOMM*%
%LPD*%
G01*
G04 APERTURE LIST*
G04 Aperture macros list*
%AMRoundRect*
0 Rectangle with rounded corners*
0 $1 Rounding radius*
0 $2 $3 $4 $5 $6 $7 $8 $9 X,Y pos of 4 corners*
0 Add a 4 corners polygon primitive as box body*
4,1,4,$2,$3,$4,$5,$6,$7,$8,$9,$2,$3,0*
0 Add four circle primitives for the rounded corners*
1,1,$1+$1,$2,$3*
1,1,$1+$1,$4,$5*
1,1,$1+$1,$6,$7*
1,1,$1+$1,$8,$9*
0 Add four rect primitives between the rounded corners*
20,1,$1+$1,$2,$3,$4,$5,0*
20,1,$1+$1,$4,$5,$6,$7,0*
20,1,$1+$1,$6,$7,$8,$9,0*
20,1,$1+$1,$8,$9,$2,$3,0*%
G04 Aperture macros list end*
%TA.AperFunction,ComponentPad*%
%ADD10R,1.700000X1.700000*%
%TD*%
%TA.AperFunction,ComponentPad*%
%ADD11O,1.700000X1.700000*%
%TD*%
%TA.AperFunction,ComponentPad*%
%ADD12RoundRect,0.250002X-1.699998X1.699998X-1.699998X-1.699998X1.699998X-1.699998X1.699998X1.699998X0*%
%TD*%
%TA.AperFunction,ComponentPad*%
%ADD13C,3.900000*%
%TD*%
%TA.AperFunction,ComponentPad*%
%ADD14R,1.350000X1.350000*%
%TD*%
%TA.AperFunction,ComponentPad*%
%ADD15O,1.350000X1.350000*%
%TD*%
%TA.AperFunction,HeatsinkPad*%
%ADD16C,0.457200*%
%TD*%
%TA.AperFunction,HeatsinkPad*%
%ADD17R,3.200000X3.200000*%
%TD*%
%TA.AperFunction,ComponentPad*%
%ADD18O,0.900000X1.800000*%
%TD*%
%TA.AperFunction,SMDPad,CuDef*%
%ADD19R,1.000000X1.000000*%
%TD*%
%TA.AperFunction,ComponentPad*%
%ADD20R,2.000000X2.000000*%
%TD*%
%TA.AperFunction,ComponentPad*%
%ADD21C,2.000000*%
%TD*%
%TA.AperFunction,ViaPad*%
%ADD22C,0.457200*%
%TD*%
%TA.AperFunction,Conductor*%
%ADD23C,0.150000*%
%TD*%
%TA.AperFunction,Conductor*%
%ADD24C,0.127000*%
%TD*%
%TA.AperFunction,Conductor*%
%ADD25C,0.400000*%
%TD*%
%TA.AperFunction,Conductor*%
%ADD26C,0.200000*%
%TD*%
G04 APERTURE END LIST*
D10*
%TO.P,J5,1,Pin_1*%
%TO.N,/MCU_RP2040/UART0_TX*%
X133600000Y-99775000D03*
D11*
%TO.P,J5,2,Pin_2*%
%TO.N,/MCU_RP2040/UART0_RX*%
X133600000Y-102315000D03*
%TD*%
D12*
%TO.P,J2,1,Pin_1*%
%TO.N,/VBAT*%
X134500000Y-125000000D03*
D13*
%TO.P,J2,2,Pin_2*%
%TO.N,GND*%
X134500000Y-132800000D03*
%TD*%
D10*
%TO.P,J6,1,Pin_1*%
%TO.N,/MCU_RP2040/I2C1_SCL*%
X133600000Y-108525000D03*
D11*
%TO.P,J6,2,Pin_2*%
%TO.N,/MCU_RP2040/I2C1_SDA*%
X133600000Y-105985000D03*
%TD*%
D14*
%TO.P,J4,1,Pin_1*%
%TO.N,/MCU_RP2040/GPIO1*%
X139050000Y-140500000D03*
D15*
%TO.P,J4,2,Pin_2*%
%TO.N,/MCU_RP2040/GPIO2*%
X141050000Y-140500000D03*
%TO.P,J4,3,Pin_3*%
%TO.N,/MCU_RP2040/GPIO3*%
X143050000Y-140500000D03*
%TO.P,J4,4,Pin_4*%
%TO.N,/MCU_RP2040/GPIO4*%
X145050000Y-140500000D03*
%TO.P,J4,5,Pin_5*%
%TO.N,/MCU_RP2040/GPIO6*%
X147050000Y-140500000D03*
%TO.P,J4,6,Pin_6*%
%TO.N,/MCU_RP2040/GPIO7*%
X149050000Y-140500000D03*
%TO.P,J4,7,Pin_7*%
%TO.N,/MCU_RP2040/GPIO8*%
X151050000Y-140500000D03*
%TO.P,J4,8,Pin_8*%
%TO.N,/MCU_RP2040/GPIO9*%
X153050000Y-140500000D03*
%TO.P,J4,9,Pin_9*%
%TO.N,/MCU_RP2040/GPIO10*%
X155050000Y-140500000D03*
%TO.P,J4,10,Pin_10*%
%TO.N,/MCU_RP2040/GPIO11*%
X157050000Y-140500000D03*
%TD*%
D16*
%TO.P,U1,57,GND*%
%TO.N,GND*%
X146212500Y-85750000D03*
X146212500Y-87000000D03*
X146212500Y-88250000D03*
X147462500Y-85750000D03*
X147462500Y-87000000D03*
D17*
X147462500Y-87000000D03*
D16*
X147462500Y-88250000D03*
X148712500Y-85750000D03*
X148712500Y-87000000D03*
X148712500Y-88250000D03*
%TD*%
D10*
%TO.P,J1,1,Pin_1*%
%TO.N,/+5V*%
X162500000Y-119160000D03*
D11*
%TO.P,J1,2,Pin_2*%
%TO.N,GND*%
X162500000Y-121700000D03*
%TD*%
D10*
%TO.P,J8,1,Pin_1*%
%TO.N,/MCU_RP2040/SWCLK*%
X162000000Y-105080000D03*
D11*
%TO.P,J8,2,Pin_2*%
%TO.N,GND*%
X162000000Y-102540000D03*
%TO.P,J8,3,Pin_3*%
%TO.N,/MCU_RP2040/SWDIO*%
X162000000Y-100000000D03*
%TD*%
D18*
%TO.P,J3,S5,SHIELD__4*%
%TO.N,GND*%
X151750000Y-62100000D03*
%TO.P,J3,S6,SHIELD__5*%
X145150000Y-62100000D03*
%TD*%
D19*
%TO.P,TP3,1,1*%
%TO.N,/MCU_RP2040/I2C0_SDA*%
X153550000Y-95650000D03*
%TD*%
%TO.P,TP2,1,1*%
%TO.N,/MCU_RP2040/I2C0_SCL*%
X160050000Y-93650000D03*
%TD*%
%TO.P,TP1,1,1*%
%TO.N,+1V1*%
X147350000Y-83550000D03*
%TD*%
D20*
%TO.P,BZ1,1,+*%
%TO.N,/MCU_RP2040/BUZZ_OUT*%
X133450000Y-88700000D03*
D21*
%TO.P,BZ1,2,-*%
%TO.N,GND*%
X133450000Y-96300000D03*
%TD*%
D22*
%TO.N,GND*%
X161750000Y-77750000D03*
X156250000Y-107250000D03*
X146000000Y-77300000D03*
X146462500Y-89562500D03*
X160200000Y-79000000D03*
X137000000Y-120500000D03*
X137200000Y-78800000D03*
X154975000Y-82625000D03*
X159247800Y-111800000D03*
X163050000Y-94150000D03*
X135750000Y-87550000D03*
X138750000Y-85650000D03*
X153150000Y-64550000D03*
X155700000Y-77150000D03*
X136350000Y-102550000D03*
X148997800Y-117600000D03*
X152169586Y-117549874D03*
X138600000Y-88100000D03*
X140300000Y-103050000D03*
X140300000Y-98050000D03*
X159500000Y-107000000D03*
X143850000Y-64550000D03*
X143650000Y-91100000D03*
X151250000Y-95300000D03*
X157250000Y-95050000D03*
X155250000Y-71950000D03*
X152000000Y-77600000D03*
X150800000Y-103050000D03*
X160797800Y-109500000D03*
X161400000Y-86300000D03*
X150800000Y-98050000D03*
X149969586Y-117649874D03*
X153519460Y-118800000D03*
X135450000Y-99400000D03*
X158450000Y-91200000D03*
X149900000Y-77600000D03*
X156200000Y-77800000D03*
X159450000Y-77800000D03*
X149949688Y-125543699D03*
X157425001Y-72575001D03*
X136700000Y-107250000D03*
X156500000Y-68250000D03*
X154597800Y-112850000D03*
X134000000Y-120250000D03*
X138850000Y-81900000D03*
X163100000Y-81600000D03*
X157550000Y-93300000D03*
X153719460Y-124400000D03*
X156600000Y-88300000D03*
X143600000Y-70100000D03*
X159647800Y-110950000D03*
X140700000Y-82600000D03*
X142850000Y-94400000D03*
X145000000Y-114500000D03*
X144847800Y-111900000D03*
X152143387Y-125650000D03*
X136000000Y-120250000D03*
X147600000Y-77400000D03*
X140804164Y-115450000D03*
X152050000Y-90650000D03*
X152713094Y-86613094D03*
X132850000Y-86200000D03*
X144500000Y-91850000D03*
X162550000Y-93700000D03*
%TO.N,/MCU_RP2040/BUZZ_OUT*%
X139350000Y-83900000D03*
%TO.N,+1V1*%
X147262500Y-81937500D03*
X148187500Y-92200000D03*
X148200000Y-84949998D03*
X147900000Y-89200000D03*
%TO.N,/MCU_RP2040/I2C0_SCL*%
X159950000Y-95531502D03*
X160400000Y-76200000D03*
X138050000Y-82400000D03*
X154200000Y-89700000D03*
%TO.N,/MCU_RP2040/I2C0_SDA*%
X138000000Y-83600000D03*
X157450000Y-96900000D03*
X152323231Y-89576769D03*
X159850000Y-76950000D03*
%TO.N,Net-(U3-PG)*%
X139547800Y-120900000D03*
X145047800Y-115500000D03*
%TO.N,/MCU_RP2040/LED_OUT*%
X154350000Y-71950000D03*
X152300000Y-86200000D03*
%TO.N,/MG*%
X161200000Y-85600000D03*
X152300000Y-87800000D03*
%TO.N,/+3V3*%
X152150000Y-85300000D03*
X156150000Y-92300000D03*
X162697800Y-108300000D03*
X162197800Y-114800000D03*
X162847800Y-114200000D03*
%TO.N,/VBUS*%
X150650000Y-66150000D03*
X147997800Y-112450000D03*
X147297800Y-112450000D03*
X151400000Y-66150000D03*
%TO.N,/MAG*%
X158304481Y-77145519D03*
X150550000Y-91550000D03*
%TO.N,/MCU_RP2040/GPIO2*%
X140350000Y-85600000D03*
%TO.N,/MCU_RP2040/GPIO10*%
X143059627Y-89345403D03*
%TO.N,/MCU_RP2040/GPIO4*%
X141550000Y-86450000D03*
%TO.N,/MCU_RP2040/GPIO8*%
X142200000Y-88430600D03*
%TO.N,/MCU_RP2040/GPIO6*%
X142100000Y-87150000D03*
%TO.N,/MCU_RP2040/GPIO7*%
X142750000Y-87569400D03*
%TO.N,/MCU_RP2040/GPIO9*%
X142550000Y-88950000D03*
%TO.N,/MCU_RP2040/GPIO11*%
X143400000Y-89950000D03*
%TO.N,/MCU_RP2040/GPIO3*%
X140950000Y-86000000D03*
%TO.N,/MCU_RP2040/GPIO1*%
X139750000Y-85250000D03*
%TD*%
D23*
%TO.N,GND*%
X155250000Y-71950000D02*
X155000000Y-72200000D01*
X155000000Y-72200000D02*
X155000000Y-84300000D01*
X138750000Y-85250000D02*
X140700000Y-83300000D01*
X152713094Y-86586906D02*
X152713094Y-86613094D01*
X155000000Y-84300000D02*
X152713094Y-86586906D01*
X138750000Y-85650000D02*
X138750000Y-85250000D01*
X140700000Y-83300000D02*
X140700000Y-82600000D01*
%TO.N,/MCU_RP2040/BUZZ_OUT*%
X138650000Y-84600000D02*
X137800000Y-84600000D01*
X139350000Y-83900000D02*
X138650000Y-84600000D01*
X137800000Y-84600000D02*
X133800000Y-88600000D01*
D24*
X133800000Y-88600000D02*
X133800000Y-88700000D01*
D25*
%TO.N,+1V1*%
X147262500Y-84012498D02*
X148200000Y-84949998D01*
X147900000Y-89200000D02*
X147900000Y-91912500D01*
X147262500Y-83300000D02*
X147262500Y-84012498D01*
X147900000Y-91912500D02*
X148187500Y-92200000D01*
X147262500Y-81937500D02*
X147262500Y-83300000D01*
D23*
%TO.N,/MCU_RP2040/I2C0_SCL*%
X162500000Y-86550000D02*
X162500000Y-81950000D01*
X154200000Y-89700000D02*
X153550000Y-89700000D01*
X160050000Y-89000000D02*
X162500000Y-86550000D01*
X154650000Y-90150000D02*
X154650000Y-92100000D01*
X158568498Y-94150000D02*
X159950000Y-95531502D01*
X158568498Y-94150000D02*
X159068498Y-93650000D01*
X153550000Y-89700000D02*
X151550000Y-87700000D01*
X151550000Y-87700000D02*
X151550000Y-82900000D01*
X160050000Y-93650000D02*
X160050000Y-89000000D01*
X154650000Y-92100000D02*
X156700000Y-94150000D01*
X157750000Y-76100000D02*
X158500000Y-75350000D01*
X159068498Y-93650000D02*
X160050000Y-93650000D01*
X151550000Y-82900000D02*
X148800000Y-80150000D01*
X157750000Y-77200000D02*
X157750000Y-76100000D01*
X158500000Y-75350000D02*
X159550000Y-75350000D01*
X156700000Y-94150000D02*
X158568498Y-94150000D01*
X154200000Y-89700000D02*
X154650000Y-90150000D01*
X162500000Y-81950000D02*
X157750000Y-77200000D01*
X148800000Y-80150000D02*
X139750000Y-80150000D01*
X139750000Y-80150000D02*
X138100000Y-81800000D01*
X138100000Y-81800000D02*
X138100000Y-82350000D01*
X159550000Y-75350000D02*
X160400000Y-76200000D01*
%TO.N,/MCU_RP2040/I2C0_SDA*%
X154625000Y-94725000D02*
X153700000Y-95650000D01*
X163800000Y-80900000D02*
X159850000Y-76950000D01*
X138150000Y-83600000D02*
X138000000Y-83600000D01*
X157450000Y-96900000D02*
X156800000Y-96900000D01*
X152800000Y-90053538D02*
X152323231Y-89576769D01*
X149850000Y-83400000D02*
X147700000Y-81250000D01*
X159850000Y-96900000D02*
X161700000Y-95050000D01*
X156800000Y-96900000D02*
X154625000Y-94725000D01*
X152800000Y-92900000D02*
X152800000Y-90053538D01*
X152323231Y-89576769D02*
X151676769Y-89576769D01*
X149850000Y-87750000D02*
X149850000Y-83400000D01*
X163800000Y-90150000D02*
X163800000Y-80900000D01*
X161700000Y-92250000D02*
X163800000Y-90150000D01*
X154625000Y-94725000D02*
X152800000Y-92900000D01*
X161700000Y-95050000D02*
X161700000Y-92250000D01*
X153700000Y-95650000D02*
X153550000Y-95650000D01*
X157450000Y-96900000D02*
X159850000Y-96900000D01*
X140500000Y-81250000D02*
X138150000Y-83600000D01*
X151676769Y-89576769D02*
X149850000Y-87750000D01*
X147700000Y-81250000D02*
X140500000Y-81250000D01*
D26*
%TO.N,Net-(U3-PG)*%
X139647800Y-120900000D02*
X145047800Y-115500000D01*
X139547800Y-120900000D02*
X139647800Y-120900000D01*
D23*
%TO.N,/MCU_RP2040/LED_OUT*%
X152308961Y-86200000D02*
X152300000Y-86200000D01*
X153600000Y-72700000D02*
X153600000Y-84908961D01*
X154350000Y-71950000D02*
X153600000Y-72700000D01*
X153600000Y-84908961D02*
X152308961Y-86200000D01*
%TO.N,/MG*%
X158300000Y-85600000D02*
X161200000Y-85600000D01*
X156100000Y-87800000D02*
X158300000Y-85600000D01*
X152300000Y-87800000D02*
X156100000Y-87800000D01*
%TO.N,/+3V3*%
X150650000Y-72350000D02*
X150700000Y-72300000D01*
X152000000Y-86550000D02*
X151869400Y-86419400D01*
X152350000Y-91350000D02*
X152480600Y-91219400D01*
X151869400Y-86419400D02*
X151869400Y-85580600D01*
X152480600Y-91219400D02*
X152480600Y-90330600D01*
X152480600Y-90330600D02*
X152450000Y-90300000D01*
X151869400Y-85580600D02*
X152100000Y-85350000D01*
%TO.N,/MCU_RP2040/GPIO2*%
X135950000Y-90000000D02*
X135950000Y-101941039D01*
X135950000Y-101941039D02*
X135550000Y-102341039D01*
X135550000Y-120525000D02*
X141100000Y-126075000D01*
X141100000Y-140450000D02*
X141050000Y-140500000D01*
X140350000Y-85600000D02*
X135950000Y-90000000D01*
X141100000Y-126075000D02*
X141100000Y-140450000D01*
X135550000Y-102341039D02*
X135550000Y-120525000D01*
%TO.N,/MCU_RP2040/GPIO10*%
X156300000Y-108500000D02*
X156300000Y-139250000D01*
X156300000Y-139250000D02*
X155050000Y-140500000D01*
X155000000Y-107200000D02*
X156300000Y-108500000D01*
X155000000Y-105941039D02*
X155000000Y-107200000D01*
X141950000Y-90455030D02*
X141950000Y-92891039D01*
X143059627Y-89345403D02*
X141950000Y-90455030D01*
X141950000Y-92891039D02*
X155000000Y-105941039D01*
%TO.N,/MCU_RP2040/GPIO4*%
X141550000Y-86450000D02*
X137700000Y-90300000D01*
X137700000Y-90800000D02*
X137707600Y-90807600D01*
X137707600Y-90807600D02*
X137707600Y-108757600D01*
X145000000Y-127450000D02*
X145000000Y-140450000D01*
X145000000Y-140450000D02*
X145050000Y-140500000D01*
X138450000Y-109500000D02*
X138450000Y-120900000D01*
X137700000Y-90300000D02*
X137700000Y-90800000D01*
X137707600Y-108757600D02*
X138450000Y-109500000D01*
X138450000Y-120900000D02*
X145000000Y-127450000D01*
%TO.N,/MCU_RP2040/GPIO8*%
X152600186Y-109741225D02*
X152600186Y-138949814D01*
X140050000Y-97191039D02*
X152600186Y-109741225D01*
X142200000Y-88430600D02*
X140050000Y-90580600D01*
X152600186Y-138949814D02*
X151050000Y-140500000D01*
X140050000Y-90580600D02*
X140050000Y-97191039D01*
%TO.N,/MCU_RP2040/GPIO6*%
X138300000Y-107191039D02*
X147050000Y-115941039D01*
X147050000Y-115941039D02*
X147050000Y-140500000D01*
X142100000Y-87150000D02*
X138300000Y-90950000D01*
X138300000Y-90950000D02*
X138300000Y-107191039D01*
%TO.N,/MCU_RP2040/GPIO7*%
X138800000Y-91221639D02*
X138800000Y-105243239D01*
X150400186Y-116843425D02*
X150400186Y-139149814D01*
X150400186Y-139149814D02*
X149050000Y-140500000D01*
X142750000Y-87569400D02*
X142452239Y-87569400D01*
X142452239Y-87569400D02*
X138800000Y-91221639D01*
X138800000Y-105243239D02*
X150400186Y-116843425D01*
%TO.N,/MCU_RP2040/GPIO9*%
X155028400Y-110378400D02*
X155028400Y-138521600D01*
X140950000Y-90500000D02*
X140950000Y-96300000D01*
X155028400Y-138521600D02*
X153050000Y-140500000D01*
X142550000Y-88950000D02*
X142500000Y-88950000D01*
X142500000Y-88950000D02*
X140950000Y-90500000D01*
X140950000Y-96300000D02*
X155028400Y-110378400D01*
%TO.N,/MCU_RP2040/GPIO11*%
X142850000Y-92150000D02*
X150750000Y-100050000D01*
X142850000Y-90500000D02*
X142850000Y-92150000D01*
X150750000Y-100050000D02*
X150800000Y-100050000D01*
X150800000Y-100050000D02*
X158300000Y-107550000D01*
X158300000Y-107550000D02*
X158300000Y-139250000D01*
X158300000Y-139250000D02*
X157050000Y-140500000D01*
X143400000Y-89950000D02*
X142850000Y-90500000D01*
%TO.N,/MCU_RP2040/GPIO3*%
X137430600Y-121080600D02*
X142950000Y-126600000D01*
X136269400Y-109269400D02*
X137430600Y-110430600D01*
X137430600Y-110430600D02*
X137430600Y-121080600D01*
X136950000Y-105700000D02*
X137000000Y-105750000D01*
X137000000Y-105750000D02*
X136269400Y-106480600D01*
X142950000Y-140400000D02*
X143050000Y-140500000D01*
X140950000Y-86000000D02*
X140950000Y-86358961D01*
X142950000Y-126600000D02*
X142950000Y-140400000D01*
X136269400Y-106480600D02*
X136269400Y-109269400D01*
X136950000Y-90358961D02*
X136950000Y-105700000D01*
X140950000Y-86358961D02*
X136950000Y-90358961D01*
%TO.N,/MCU_RP2040/GPIO1*%
X138900000Y-124750000D02*
X138900000Y-140350000D01*
X134900000Y-90108961D02*
X134900000Y-120750000D01*
X139750000Y-85250000D02*
X139750000Y-85258961D01*
X138900000Y-140350000D02*
X139050000Y-140500000D01*
X139750000Y-85258961D02*
X134900000Y-90108961D01*
X134900000Y-120750000D02*
X138900000Y-124750000D01*
%TD*%
%TA.AperFunction,Conductor*%
%TO.N,/+3V3*%
G36*
X163977826Y-60922174D02*
G01*
X163999500Y-60974500D01*
X163999500Y-80601943D01*
X163977826Y-80654269D01*
X163925500Y-80675943D01*
X163873174Y-80654269D01*
X160968905Y-77750000D01*
X161366174Y-77750000D01*
X161384960Y-77868609D01*
X161384961Y-77868614D01*
X161439476Y-77975605D01*
X161524394Y-78060523D01*
X161631385Y-78115038D01*
X161631388Y-78115038D01*
X161631391Y-78115040D01*
X161750000Y-78133826D01*
X161868609Y-78115040D01*
X161868612Y-78115038D01*
X161868614Y-78115038D01*
X161975605Y-78060523D01*
X161975604Y-78060523D01*
X161975607Y-78060522D01*
X162060522Y-77975607D01*
X162065907Y-77965038D01*
X162115038Y-77868614D01*
X162115038Y-77868612D01*
X162115040Y-77868609D01*
X162133826Y-77750000D01*
X162115040Y-77631391D01*
X162115038Y-77631388D01*
X162115038Y-77631385D01*
X162060523Y-77524394D01*
X161975605Y-77439476D01*
X161868614Y-77384961D01*
X161868609Y-77384960D01*
X161750000Y-77366174D01*
X161631390Y-77384960D01*
X161631385Y-77384961D01*
X161524394Y-77439476D01*
X161439476Y-77524394D01*
X161384961Y-77631385D01*
X161384960Y-77631390D01*
X161366174Y-77750000D01*
X160968905Y-77750000D01*
X160251610Y-77032705D01*
X160229936Y-76980379D01*
X160230845Y-76968815D01*
X160233826Y-76950000D01*
X160215040Y-76831391D01*
X160215038Y-76831388D01*
X160215038Y-76831385D01*
X160160523Y-76724394D01*
X160075605Y-76639476D01*
X159968614Y-76584961D01*
X159968609Y-76584960D01*
X159850000Y-76566174D01*
X159731390Y-76584960D01*
X159731385Y-76584961D01*
X159624394Y-76639476D01*
X159539476Y-76724394D01*
X159484961Y-76831385D01*
X159484960Y-76831390D01*
X159466174Y-76950000D01*
X159484960Y-77068609D01*
X159484961Y-77068614D01*
X159539476Y-77175605D01*
X159624394Y-77260523D01*
X159731385Y-77315038D01*
X159731388Y-77315038D01*
X159731391Y-77315040D01*
X159850000Y-77333826D01*
X159868803Y-77330847D01*
X159923873Y-77344067D01*
X159932705Y-77351610D01*
X163552826Y-80971731D01*
X163574500Y-81024057D01*
X163574500Y-81387985D01*
X163552826Y-81440311D01*
X163500500Y-81461985D01*
X163448174Y-81440311D01*
X163434566Y-81421580D01*
X163410523Y-81374395D01*
X163410523Y-81374394D01*
X163325605Y-81289476D01*
X163218614Y-81234961D01*
X163218609Y-81234960D01*
X163100000Y-81216174D01*
X162981390Y-81234960D01*
X162981385Y-81234961D01*
X162874394Y-81289476D01*
X162789476Y-81374394D01*
X162734961Y-81481385D01*
X162734960Y-81481390D01*
X162716174Y-81600000D01*
X162716174Y-81600001D01*
X162727079Y-81668857D01*
X162713857Y-81723929D01*
X162665565Y-81753521D01*
X162610493Y-81740299D01*
X162601664Y-81732758D01*
X160334543Y-79465638D01*
X160312869Y-79413312D01*
X160334543Y-79360986D01*
X160353272Y-79347378D01*
X160425607Y-79310522D01*
X160510522Y-79225607D01*
X160512355Y-79222008D01*
X160565038Y-79118614D01*
X160565038Y-79118612D01*
X160565040Y-79118609D01*
X160583826Y-79000000D01*
X160565040Y-78881391D01*
X160565038Y-78881388D01*
X160565038Y-78881385D01*
X160510523Y-78774394D01*
X160425605Y-78689476D01*
X160318614Y-78634961D01*
X160318609Y-78634960D01*
X160200000Y-78616174D01*
X160081390Y-78634960D01*
X160081385Y-78634961D01*
X159974394Y-78689476D01*
X159889478Y-78774392D01*
X159852623Y-78846726D01*
X159809556Y-78883509D01*
X159753093Y-78879066D01*
X159734362Y-78865457D01*
X158668906Y-77800000D01*
X159066174Y-77800000D01*
X159084960Y-77918609D01*
X159084961Y-77918614D01*
X159139476Y-78025605D01*
X159224394Y-78110523D01*
X159331385Y-78165038D01*
X159331388Y-78165038D01*
X159331391Y-78165040D01*
X159450000Y-78183826D01*
X159568609Y-78165040D01*
X159568612Y-78165038D01*
X159568614Y-78165038D01*
X159675605Y-78110523D01*
X159675604Y-78110523D01*
X159675607Y-78110522D01*
X159760522Y-78025607D01*
X159762355Y-78022008D01*
X159815038Y-77918614D01*
X159815038Y-77918612D01*
X159815040Y-77918609D01*
X159833826Y-77800000D01*
X159815040Y-77681391D01*
X159815038Y-77681388D01*
X159815038Y-77681385D01*
X159760523Y-77574394D01*
X159675605Y-77489476D01*
X159568614Y-77434961D01*
X159568609Y-77434960D01*
X159450000Y-77416174D01*
X159331390Y-77434960D01*
X159331385Y-77434961D01*
X159224394Y-77489476D01*
X159139476Y-77574394D01*
X159084961Y-77681385D01*
X159084960Y-77681390D01*
X159066174Y-77800000D01*
X158668906Y-77800000D01*
X158466210Y-77597304D01*
X158444536Y-77544978D01*
X158466210Y-77492652D01*
X158484937Y-77479046D01*
X158530088Y-77456041D01*
X158615003Y-77371126D01*
X158646307Y-77309688D01*
X158669519Y-77264133D01*
X158669519Y-77264131D01*
X158669521Y-77264128D01*
X158688307Y-77145519D01*
X158669521Y-77026910D01*
X158669519Y-77026907D01*
X158669519Y-77026904D01*
X158615004Y-76919913D01*
X158530086Y-76834995D01*
X158423095Y-76780480D01*
X158423090Y-76780479D01*
X158304481Y-76761693D01*
X158185871Y-76780478D01*
X158083095Y-76832846D01*
X158026633Y-76837289D01*
X157983565Y-76800506D01*
X157975500Y-76766911D01*
X157975500Y-76224057D01*
X157997174Y-76171731D01*
X158571731Y-75597174D01*
X158624057Y-75575500D01*
X159425943Y-75575500D01*
X159478269Y-75597174D01*
X159998389Y-76117294D01*
X160020063Y-76169620D01*
X160019152Y-76181195D01*
X160016174Y-76199999D01*
X160034960Y-76318609D01*
X160034961Y-76318614D01*
X160089476Y-76425605D01*
X160174394Y-76510523D01*
X160281385Y-76565038D01*
X160281388Y-76565038D01*
X160281391Y-76565040D01*
X160400000Y-76583826D01*
X160518609Y-76565040D01*
X160518612Y-76565038D01*
X160518614Y-76565038D01*
X160625605Y-76510523D01*
X160625604Y-76510523D01*
X160625607Y-76510522D01*
X160710522Y-76425607D01*
X160712355Y-76422008D01*
X160765038Y-76318614D01*
X160765038Y-76318612D01*
X160765040Y-76318609D01*
X160783826Y-76200000D01*
X160765040Y-76081391D01*
X160765038Y-76081388D01*
X160765038Y-76081385D01*
X160710523Y-75974394D01*
X160625605Y-75889476D01*
X160518614Y-75834961D01*
X160518609Y-75834960D01*
X160400000Y-75816174D01*
X160381195Y-75819152D01*
X160326123Y-75805929D01*
X160317294Y-75798389D01*
X159751578Y-75232673D01*
X159751578Y-75232672D01*
X159677738Y-75158832D01*
X159677737Y-75158831D01*
X159677736Y-75158830D01*
X159677732Y-75158828D01*
X159653458Y-75148773D01*
X159653458Y-75148772D01*
X159594855Y-75124499D01*
X159505145Y-75124499D01*
X159496533Y-75124499D01*
X159496525Y-75124500D01*
X158455145Y-75124500D01*
X158372266Y-75158828D01*
X158372263Y-75158831D01*
X157558830Y-75972263D01*
X157548774Y-75996536D01*
X157548775Y-75996537D01*
X157524499Y-76055146D01*
X157524499Y-76153466D01*
X157524500Y-76153475D01*
X157524500Y-77149173D01*
X157524499Y-77149187D01*
X157524499Y-77244856D01*
X157548773Y-77303458D01*
X157558829Y-77327734D01*
X157558832Y-77327738D01*
X157632671Y-77401577D01*
X157632673Y-77401578D01*
X162252826Y-82021731D01*
X162274500Y-82074057D01*
X162274500Y-86425942D01*
X162252826Y-86478268D01*
X159858829Y-88872265D01*
X159855037Y-88881421D01*
X159824499Y-88955145D01*
X159824499Y-89053466D01*
X159824500Y-89053475D01*
X159824500Y-92925500D01*
X159802826Y-92977826D01*
X159750500Y-92999500D01*
X159535180Y-92999500D01*
X159513229Y-93003866D01*
X159491277Y-93008233D01*
X159441496Y-93041495D01*
X159441495Y-93041496D01*
X159408233Y-93091277D01*
X159399500Y-93135180D01*
X159399500Y-93350500D01*
X159377826Y-93402826D01*
X159325500Y-93424500D01*
X159121973Y-93424500D01*
X159121965Y-93424499D01*
X159113353Y-93424499D01*
X159023644Y-93424499D01*
X158975092Y-93444608D01*
X158975093Y-93444609D01*
X158940765Y-93458828D01*
X158940763Y-93458829D01*
X158877327Y-93522265D01*
X158496767Y-93902826D01*
X158444441Y-93924500D01*
X156824057Y-93924500D01*
X156771731Y-93902826D01*
X156168905Y-93300000D01*
X157166174Y-93300000D01*
X157184960Y-93418609D01*
X157184961Y-93418614D01*
X157239476Y-93525605D01*
X157324394Y-93610523D01*
X157431385Y-93665038D01*
X157431388Y-93665038D01*
X157431391Y-93665040D01*
X157550000Y-93683826D01*
X157668609Y-93665040D01*
X157668612Y-93665038D01*
X157668614Y-93665038D01*
X157775605Y-93610523D01*
X157775604Y-93610523D01*
X157775607Y-93610522D01*
X157860522Y-93525607D01*
X157886617Y-93474393D01*
X157915038Y-93418614D01*
X157915038Y-93418612D01*
X157915040Y-93418609D01*
X157933826Y-93300000D01*
X157915040Y-93181391D01*
X157915038Y-93181388D01*
X157915038Y-93181385D01*
X157860523Y-93074394D01*
X157775605Y-92989476D01*
X157668614Y-92934961D01*
X157668609Y-92934960D01*
X157550000Y-92916174D01*
X157431390Y-92934960D01*
X157431385Y-92934961D01*
X157324394Y-92989476D01*
X157239476Y-93074394D01*
X157184961Y-93181385D01*
X157184960Y-93181390D01*
X157166174Y-93300000D01*
X156168905Y-93300000D01*
X154897174Y-92028269D01*
X154875500Y-91975943D01*
X154875500Y-91200000D01*
X158066174Y-91200000D01*
X158084960Y-91318609D01*
X158084961Y-91318614D01*
X158139476Y-91425605D01*
X158224394Y-91510523D01*
X158331385Y-91565038D01*
X158331388Y-91565038D01*
X158331391Y-91565040D01*
X158450000Y-91583826D01*
X158568609Y-91565040D01*
X158568612Y-91565038D01*
X158568614Y-91565038D01*
X158675605Y-91510523D01*
X158675604Y-91510523D01*
X158675607Y-91510522D01*
X158760522Y-91425607D01*
X158801239Y-91345695D01*
X158815038Y-91318614D01*
X158815038Y-91318612D01*
X158815040Y-91318609D01*
X158833826Y-91200000D01*
X158815040Y-91081391D01*
X158815038Y-91081388D01*
X158815038Y-91081385D01*
X158760523Y-90974394D01*
X158675605Y-90889476D01*
X158568614Y-90834961D01*
X158568609Y-90834960D01*
X158450000Y-90816174D01*
X158331390Y-90834960D01*
X158331385Y-90834961D01*
X158224394Y-90889476D01*
X158139476Y-90974394D01*
X158084961Y-91081385D01*
X158084960Y-91081390D01*
X158066174Y-91200000D01*
X154875500Y-91200000D01*
X154875500Y-90203475D01*
X154875501Y-90203466D01*
X154875501Y-90105144D01*
X154842293Y-90024976D01*
X154842293Y-90024975D01*
X154841170Y-90022264D01*
X154773521Y-89954615D01*
X154773514Y-89954609D01*
X154601610Y-89782705D01*
X154579936Y-89730379D01*
X154580845Y-89718815D01*
X154583826Y-89700000D01*
X154565040Y-89581391D01*
X154565038Y-89581388D01*
X154565038Y-89581385D01*
X154510523Y-89474394D01*
X154425605Y-89389476D01*
X154318614Y-89334961D01*
X154318609Y-89334960D01*
X154200000Y-89316174D01*
X154081390Y-89334960D01*
X154081385Y-89334961D01*
X153974394Y-89389476D01*
X153911045Y-89452826D01*
X153858719Y-89474500D01*
X153674057Y-89474500D01*
X153621731Y-89452826D01*
X152434543Y-88265638D01*
X152412869Y-88213312D01*
X152434543Y-88160986D01*
X152453272Y-88147378D01*
X152525607Y-88110522D01*
X152588955Y-88047174D01*
X152641281Y-88025500D01*
X156046525Y-88025500D01*
X156046533Y-88025501D01*
X156055145Y-88025501D01*
X156144854Y-88025501D01*
X156144855Y-88025501D01*
X156174423Y-88013252D01*
X156231060Y-88013251D01*
X156271109Y-88053298D01*
X156271111Y-88109936D01*
X156268678Y-88115214D01*
X156234960Y-88181390D01*
X156216174Y-88300000D01*
X156234960Y-88418609D01*
X156234961Y-88418614D01*
X156289476Y-88525605D01*
X156374394Y-88610523D01*
X156481385Y-88665038D01*
X156481388Y-88665038D01*
X156481391Y-88665040D01*
X156600000Y-88683826D01*
X156718609Y-88665040D01*
X156718612Y-88665038D01*
X156718614Y-88665038D01*
X156825605Y-88610523D01*
X156825604Y-88610523D01*
X156825607Y-88610522D01*
X156910522Y-88525607D01*
X156938344Y-88471004D01*
X156965038Y-88418614D01*
X156965038Y-88418612D01*
X156965040Y-88418609D01*
X156983826Y-88300000D01*
X156965040Y-88181391D01*
X156965038Y-88181388D01*
X156965038Y-88181385D01*
X156910523Y-88074394D01*
X156825605Y-87989476D01*
X156718614Y-87934961D01*
X156718609Y-87934960D01*
X156600000Y-87916174D01*
X156475639Y-87935871D01*
X156475377Y-87934220D01*
X156425583Y-87930292D01*
X156388809Y-87887218D01*
X156393263Y-87830756D01*
X156406862Y-87812041D01*
X158371731Y-85847174D01*
X158424057Y-85825500D01*
X160858719Y-85825500D01*
X160911045Y-85847174D01*
X160974393Y-85910522D01*
X161035309Y-85941560D01*
X161068438Y-85958440D01*
X161105221Y-86001508D01*
X161100778Y-86057970D01*
X161092488Y-86069381D01*
X161092901Y-86069681D01*
X161089476Y-86074394D01*
X161034961Y-86181385D01*
X161034960Y-86181390D01*
X161016174Y-86300000D01*
X161034960Y-86418609D01*
X161034961Y-86418614D01*
X161089476Y-86525605D01*
X161174394Y-86610523D01*
X161281385Y-86665038D01*
X161281388Y-86665038D01*
X161281391Y-86665040D01*
X161400000Y-86683826D01*
X161518609Y-86665040D01*
X161518612Y-86665038D01*
X161518614Y-86665038D01*
X161625605Y-86610523D01*
X161625604Y-86610523D01*
X161625607Y-86610522D01*
X161710522Y-86525607D01*
X161730348Y-86486697D01*
X161765038Y-86418614D01*
X161765038Y-86418612D01*
X161765040Y-86418609D01*
X161783826Y-86300000D01*
X161765040Y-86181391D01*
X161765038Y-86181388D01*
X161765038Y-86181385D01*
X161710523Y-86074394D01*
X161625607Y-85989478D01*
X161614512Y-85983825D01*
X161531558Y-85941557D01*
X161494777Y-85898493D01*
X161499220Y-85842030D01*
X161507513Y-85830619D01*
X161507099Y-85830319D01*
X161510523Y-85825605D01*
X161565038Y-85718614D01*
X161565038Y-85718612D01*
X161565040Y-85718609D01*
X161583826Y-85600000D01*
X161565040Y-85481391D01*
X161565038Y-85481388D01*
X161565038Y-85481385D01*
X161510523Y-85374394D01*
X161425605Y-85289476D01*
X161318614Y-85234961D01*
X161318609Y-85234960D01*
X161200000Y-85216174D01*
X161081390Y-85234960D01*
X161081385Y-85234961D01*
X160974394Y-85289476D01*
X160911045Y-85352826D01*
X160858719Y-85374500D01*
X158353475Y-85374500D01*
X158353467Y-85374499D01*
X158344855Y-85374499D01*
X158255146Y-85374499D01*
X158225697Y-85386696D01*
X158225698Y-85386697D01*
X158172264Y-85408829D01*
X158172263Y-85408831D01*
X158108830Y-85472264D01*
X158108829Y-85472265D01*
X157064484Y-86516611D01*
X156028269Y-87552826D01*
X155975943Y-87574500D01*
X152641281Y-87574500D01*
X152588955Y-87552826D01*
X152525605Y-87489476D01*
X152418614Y-87434961D01*
X152418609Y-87434960D01*
X152300000Y-87416174D01*
X152181390Y-87434960D01*
X152181385Y-87434961D01*
X152074394Y-87489476D01*
X151989478Y-87574392D01*
X151952623Y-87646726D01*
X151909556Y-87683509D01*
X151853093Y-87679066D01*
X151834362Y-87665457D01*
X151797174Y-87628269D01*
X151775500Y-87575943D01*
X151775500Y-86252078D01*
X151797174Y-86199752D01*
X151800290Y-86198461D01*
X151898711Y-86198461D01*
X151901826Y-86199752D01*
X151922589Y-86240502D01*
X151934960Y-86318609D01*
X151934961Y-86318614D01*
X151989476Y-86425605D01*
X152074394Y-86510523D01*
X152181385Y-86565038D01*
X152181388Y-86565038D01*
X152181391Y-86565040D01*
X152265218Y-86578317D01*
X152272163Y-86579417D01*
X152320454Y-86609010D01*
X152333676Y-86640929D01*
X152348054Y-86731704D01*
X152348055Y-86731708D01*
X152402570Y-86838699D01*
X152487488Y-86923617D01*
X152594479Y-86978132D01*
X152594482Y-86978132D01*
X152594485Y-86978134D01*
X152713094Y-86996920D01*
X152831703Y-86978134D01*
X152831706Y-86978132D01*
X152831708Y-86978132D01*
X152938699Y-86923617D01*
X152938698Y-86923617D01*
X152938701Y-86923616D01*
X153023616Y-86838701D01*
X153050998Y-86784961D01*
X153078132Y-86731708D01*
X153078133Y-86731704D01*
X153078134Y-86731703D01*
X153096920Y-86613094D01*
X153090360Y-86571681D01*
X153103581Y-86516611D01*
X153111117Y-86507787D01*
X155191170Y-84427736D01*
X155225500Y-84344855D01*
X155225500Y-84255146D01*
X155225500Y-82941281D01*
X155247174Y-82888955D01*
X155258303Y-82877826D01*
X155285522Y-82850607D01*
X155298315Y-82825500D01*
X155340038Y-82743614D01*
X155340038Y-82743612D01*
X155340040Y-82743609D01*
X155358826Y-82625000D01*
X155340040Y-82506391D01*
X155340038Y-82506388D01*
X155340038Y-82506385D01*
X155285523Y-82399394D01*
X155247174Y-82361045D01*
X155225500Y-82308719D01*
X155225500Y-77362014D01*
X155247174Y-77309688D01*
X155299500Y-77288014D01*
X155351826Y-77309688D01*
X155365435Y-77328419D01*
X155389478Y-77375607D01*
X155474394Y-77460523D01*
X155581385Y-77515038D01*
X155581388Y-77515038D01*
X155581391Y-77515040D01*
X155700000Y-77533826D01*
X155785150Y-77520339D01*
X155840222Y-77533560D01*
X155869815Y-77581851D01*
X155862661Y-77627023D01*
X155834960Y-77681390D01*
X155816174Y-77800000D01*
X155834960Y-77918609D01*
X155834961Y-77918614D01*
X155889476Y-78025605D01*
X155974394Y-78110523D01*
X156081385Y-78165038D01*
X156081388Y-78165038D01*
X156081391Y-78165040D01*
X156200000Y-78183826D01*
X156318609Y-78165040D01*
X156318612Y-78165038D01*
X156318614Y-78165038D01*
X156425605Y-78110523D01*
X156425604Y-78110523D01*
X156425607Y-78110522D01*
X156510522Y-78025607D01*
X156512355Y-78022008D01*
X156565038Y-77918614D01*
X156565038Y-77918612D01*
X156565040Y-77918609D01*
X156583826Y-77800000D01*
X156565040Y-77681391D01*
X156565038Y-77681388D01*
X156565038Y-77681385D01*
X156510523Y-77574394D01*
X156425605Y-77489476D01*
X156318614Y-77434961D01*
X156318609Y-77434960D01*
X156200000Y-77416174D01*
X156114849Y-77429660D01*
X156059776Y-77416438D01*
X156030184Y-77368147D01*
X156037339Y-77322975D01*
X156044109Y-77309688D01*
X156065040Y-77268609D01*
X156083826Y-77150000D01*
X156065040Y-77031391D01*
X156065038Y-77031388D01*
X156065038Y-77031385D01*
X156010523Y-76924394D01*
X155925605Y-76839476D01*
X155818614Y-76784961D01*
X155818609Y-76784960D01*
X155700000Y-76766174D01*
X155581390Y-76784960D01*
X155581385Y-76784961D01*
X155474394Y-76839476D01*
X155389476Y-76924394D01*
X155389476Y-76924395D01*
X155365434Y-76971580D01*
X155322367Y-77008363D01*
X155265905Y-77003919D01*
X155229122Y-76960852D01*
X155225500Y-76937985D01*
X155225500Y-72575001D01*
X157041175Y-72575001D01*
X157059961Y-72693610D01*
X157059962Y-72693615D01*
X157114477Y-72800606D01*
X157199395Y-72885524D01*
X157306386Y-72940039D01*
X157306389Y-72940039D01*
X157306392Y-72940041D01*
X157425001Y-72958827D01*
X157543610Y-72940041D01*
X157543613Y-72940039D01*
X157543615Y-72940039D01*
X157650606Y-72885524D01*
X157650605Y-72885524D01*
X157650608Y-72885523D01*
X157735523Y-72800608D01*
X157750237Y-72771730D01*
X157790039Y-72693615D01*
X157790039Y-72693613D01*
X157790041Y-72693610D01*
X157808827Y-72575001D01*
X157790041Y-72456392D01*
X157790039Y-72456389D01*
X157790039Y-72456386D01*
X157735524Y-72349395D01*
X157650606Y-72264477D01*
X157543615Y-72209962D01*
X157543610Y-72209961D01*
X157425001Y-72191175D01*
X157306391Y-72209961D01*
X157306386Y-72209962D01*
X157199395Y-72264477D01*
X157114477Y-72349395D01*
X157059962Y-72456386D01*
X157059961Y-72456391D01*
X157041175Y-72575001D01*
X155225500Y-72575001D01*
X155225500Y-72400908D01*
X155247174Y-72348582D01*
X155287922Y-72327819D01*
X155368609Y-72315040D01*
X155368612Y-72315038D01*
X155368614Y-72315038D01*
X155475605Y-72260523D01*
X155475604Y-72260523D01*
X155475607Y-72260522D01*
X155560522Y-72175607D01*
X155613178Y-72072264D01*
X155615038Y-72068614D01*
X155615038Y-72068612D01*
X155615040Y-72068609D01*
X155633826Y-71950000D01*
X155615040Y-71831391D01*
X155615038Y-71831388D01*
X155615038Y-71831385D01*
X155560523Y-71724394D01*
X155475605Y-71639476D01*
X155368614Y-71584961D01*
X155368609Y-71584960D01*
X155250000Y-71566174D01*
X155131390Y-71584960D01*
X155131385Y-71584961D01*
X155024394Y-71639476D01*
X154939476Y-71724394D01*
X154884961Y-71831385D01*
X154884960Y-71831390D01*
X154873089Y-71906340D01*
X154843496Y-71954631D01*
X154788424Y-71967853D01*
X154740133Y-71938260D01*
X154726911Y-71906340D01*
X154725313Y-71896252D01*
X154715040Y-71831391D01*
X154715038Y-71831388D01*
X154715038Y-71831385D01*
X154660523Y-71724394D01*
X154575605Y-71639476D01*
X154468614Y-71584961D01*
X154468609Y-71584960D01*
X154350000Y-71566174D01*
X154231390Y-71584960D01*
X154231385Y-71584961D01*
X154124394Y-71639476D01*
X154039476Y-71724394D01*
X153984961Y-71831385D01*
X153984960Y-71831390D01*
X153984960Y-71831391D01*
X153966174Y-71950000D01*
X153969001Y-71967853D01*
X153969152Y-71968802D01*
X153955930Y-72023874D01*
X153948389Y-72032704D01*
X153472265Y-72508829D01*
X153408830Y-72572263D01*
X153398774Y-72596536D01*
X153398775Y-72596537D01*
X153374499Y-72655146D01*
X153374499Y-72753466D01*
X153374500Y-72753475D01*
X153374500Y-84784903D01*
X153352826Y-84837229D01*
X152390440Y-85799614D01*
X152338114Y-85821288D01*
X152326539Y-85820377D01*
X152300000Y-85816174D01*
X152181390Y-85834960D01*
X152181385Y-85834961D01*
X152074394Y-85889476D01*
X151989476Y-85974394D01*
X151934961Y-86081385D01*
X151934960Y-86081390D01*
X151922589Y-86159497D01*
X151898711Y-86198461D01*
X151800290Y-86198461D01*
X151800790Y-86198254D01*
X151789633Y-86191417D01*
X151775500Y-86147921D01*
X151775500Y-82855145D01*
X151775499Y-82855143D01*
X151741171Y-82772266D01*
X151741169Y-82772263D01*
X151677735Y-82708829D01*
X149001578Y-80032673D01*
X149001578Y-80032672D01*
X148927738Y-79958832D01*
X148927736Y-79958830D01*
X148927732Y-79958828D01*
X148903458Y-79948773D01*
X148903458Y-79948772D01*
X148844855Y-79924499D01*
X148755145Y-79924499D01*
X148746533Y-79924499D01*
X148746525Y-79924500D01*
X139705145Y-79924500D01*
X139622266Y-79958828D01*
X137908829Y-81672265D01*
X137908827Y-81672268D01*
X137900046Y-81693469D01*
X137900046Y-81693470D01*
X137874499Y-81755145D01*
X137874499Y-81853466D01*
X137874500Y-81853475D01*
X137874500Y-82018600D01*
X137852826Y-82070926D01*
X137834096Y-82084534D01*
X137824392Y-82089478D01*
X137739476Y-82174394D01*
X137684961Y-82281385D01*
X137684960Y-82281390D01*
X137666174Y-82400000D01*
X137684960Y-82518609D01*
X137684961Y-82518614D01*
X137739476Y-82625605D01*
X137824394Y-82710523D01*
X137931385Y-82765038D01*
X137931388Y-82765038D01*
X137931391Y-82765040D01*
X138050000Y-82783826D01*
X138168609Y-82765040D01*
X138168612Y-82765038D01*
X138168614Y-82765038D01*
X138275605Y-82710523D01*
X138275604Y-82710523D01*
X138275607Y-82710522D01*
X138360522Y-82625607D01*
X138373569Y-82600000D01*
X138415038Y-82518614D01*
X138415038Y-82518612D01*
X138415040Y-82518609D01*
X138433826Y-82400000D01*
X138415040Y-82281391D01*
X138415038Y-82281388D01*
X138415038Y-82281385D01*
X138360523Y-82174394D01*
X138347174Y-82161045D01*
X138325500Y-82108719D01*
X138325500Y-81952078D01*
X138347174Y-81899752D01*
X138399500Y-81878078D01*
X138451826Y-81899752D01*
X138472589Y-81940502D01*
X138484960Y-82018609D01*
X138484961Y-82018614D01*
X138539476Y-82125605D01*
X138624394Y-82210523D01*
X138731385Y-82265038D01*
X138731388Y-82265038D01*
X138731391Y-82265040D01*
X138850000Y-82283826D01*
X138968609Y-82265040D01*
X138968609Y-82265039D01*
X138974361Y-82264129D01*
X138974623Y-82265785D01*
X139024397Y-82269700D01*
X139061182Y-82312765D01*
X139056741Y-82369228D01*
X139043131Y-82387962D01*
X138207982Y-83223111D01*
X138155656Y-83244785D01*
X138122062Y-83236719D01*
X138118609Y-83234960D01*
X138118607Y-83234959D01*
X138118605Y-83234959D01*
X138000000Y-83216174D01*
X137881390Y-83234960D01*
X137881385Y-83234961D01*
X137774394Y-83289476D01*
X137689476Y-83374394D01*
X137634961Y-83481385D01*
X137634960Y-83481390D01*
X137616174Y-83600000D01*
X137634960Y-83718609D01*
X137634961Y-83718614D01*
X137689476Y-83825605D01*
X137774394Y-83910523D01*
X137881385Y-83965038D01*
X137881388Y-83965038D01*
X137881391Y-83965040D01*
X138000000Y-83983826D01*
X138118609Y-83965040D01*
X138118612Y-83965038D01*
X138118614Y-83965038D01*
X138225605Y-83910523D01*
X138225604Y-83910523D01*
X138225607Y-83910522D01*
X138310522Y-83825607D01*
X138365040Y-83718609D01*
X138365040Y-83718603D01*
X138366644Y-83713671D01*
X138384696Y-83684207D01*
X140571731Y-81497174D01*
X140624057Y-81475500D01*
X147025953Y-81475500D01*
X147078279Y-81497174D01*
X147099953Y-81549500D01*
X147078279Y-81601826D01*
X147059549Y-81615434D01*
X147051974Y-81619293D01*
X147036892Y-81626978D01*
X146951976Y-81711894D01*
X146897461Y-81818885D01*
X146897460Y-81818890D01*
X146878674Y-81937500D01*
X146897459Y-82056105D01*
X146897461Y-82056111D01*
X146903934Y-82068815D01*
X146912000Y-82102410D01*
X146912000Y-82825500D01*
X146890326Y-82877826D01*
X146838000Y-82899500D01*
X146835180Y-82899500D01*
X146813229Y-82903866D01*
X146791277Y-82908233D01*
X146741496Y-82941495D01*
X146741495Y-82941496D01*
X146708233Y-82991277D01*
X146707810Y-82993405D01*
X146699500Y-83035180D01*
X146699500Y-84064820D01*
X146708233Y-84108722D01*
X146741496Y-84158504D01*
X146791278Y-84191767D01*
X146835180Y-84200500D01*
X146924659Y-84200500D01*
X146976985Y-84222174D01*
X146980479Y-84226158D01*
X146982028Y-84227707D01*
X146982030Y-84227710D01*
X147478711Y-84724391D01*
X147839173Y-85084853D01*
X147852780Y-85103582D01*
X147872307Y-85141905D01*
X147876751Y-85198367D01*
X147839969Y-85241434D01*
X147806373Y-85249500D01*
X145847680Y-85249500D01*
X145825729Y-85253866D01*
X145803777Y-85258233D01*
X145753996Y-85291495D01*
X145753995Y-85291496D01*
X145720733Y-85341277D01*
X145712000Y-85385180D01*
X145712000Y-88614819D01*
X145720733Y-88658722D01*
X145724954Y-88665040D01*
X145753996Y-88708504D01*
X145803778Y-88741767D01*
X145847680Y-88750500D01*
X145847681Y-88750500D01*
X147638920Y-88750500D01*
X147691246Y-88772174D01*
X147712920Y-88824500D01*
X147691246Y-88876826D01*
X147678911Y-88885787D01*
X147679105Y-88886054D01*
X147674394Y-88889476D01*
X147589476Y-88974394D01*
X147534961Y-89081385D01*
X147534960Y-89081390D01*
X147516174Y-89200000D01*
X147534959Y-89318605D01*
X147534961Y-89318611D01*
X147541434Y-89331315D01*
X147549500Y-89364910D01*
X147549500Y-91958646D01*
X147565638Y-92018873D01*
X147565638Y-92018874D01*
X147573384Y-92047783D01*
X147573386Y-92047788D01*
X147619530Y-92127712D01*
X147826672Y-92334854D01*
X147840280Y-92353584D01*
X147876978Y-92425607D01*
X147961894Y-92510523D01*
X148068885Y-92565038D01*
X148068888Y-92565038D01*
X148068891Y-92565040D01*
X148187500Y-92583826D01*
X148306109Y-92565040D01*
X148306112Y-92565038D01*
X148306114Y-92565038D01*
X148413105Y-92510523D01*
X148413104Y-92510523D01*
X148413107Y-92510522D01*
X148498022Y-92425607D01*
X148524288Y-92374057D01*
X148552538Y-92318614D01*
X148552538Y-92318612D01*
X148552540Y-92318609D01*
X148571326Y-92200000D01*
X148552540Y-92081391D01*
X148552538Y-92081388D01*
X148552538Y-92081385D01*
X148498023Y-91974394D01*
X148413107Y-91889478D01*
X148341084Y-91852780D01*
X148322354Y-91839172D01*
X148272174Y-91788992D01*
X148250500Y-91736666D01*
X148250500Y-91550000D01*
X150166174Y-91550000D01*
X150184960Y-91668609D01*
X150184961Y-91668614D01*
X150239476Y-91775605D01*
X150324394Y-91860523D01*
X150431385Y-91915038D01*
X150431388Y-91915038D01*
X150431391Y-91915040D01*
X150550000Y-91933826D01*
X150668609Y-91915040D01*
X150668612Y-91915038D01*
X150668614Y-91915038D01*
X150775605Y-91860523D01*
X150775604Y-91860523D01*
X150775607Y-91860522D01*
X150860522Y-91775607D01*
X150864745Y-91767318D01*
X150915038Y-91668614D01*
X150915038Y-91668612D01*
X150915040Y-91668609D01*
X150933826Y-91550000D01*
X150915040Y-91431391D01*
X150915038Y-91431388D01*
X150915038Y-91431385D01*
X150860523Y-91324394D01*
X150775605Y-91239476D01*
X150668614Y-91184961D01*
X150668609Y-91184960D01*
X150550000Y-91166174D01*
X150431390Y-91184960D01*
X150431385Y-91184961D01*
X150324394Y-91239476D01*
X150239476Y-91324394D01*
X150184961Y-91431385D01*
X150184960Y-91431390D01*
X150166174Y-91550000D01*
X148250500Y-91550000D01*
X148250500Y-90650000D01*
X151666174Y-90650000D01*
X151684960Y-90768609D01*
X151684961Y-90768614D01*
X151739476Y-90875605D01*
X151824394Y-90960523D01*
X151931385Y-91015038D01*
X151931388Y-91015038D01*
X151931391Y-91015040D01*
X152050000Y-91033826D01*
X152168609Y-91015040D01*
X152168612Y-91015038D01*
X152168614Y-91015038D01*
X152275605Y-90960523D01*
X152275604Y-90960523D01*
X152275607Y-90960522D01*
X152360522Y-90875607D01*
X152367931Y-90861066D01*
X152415038Y-90768614D01*
X152415038Y-90768612D01*
X152415040Y-90768609D01*
X152427411Y-90690501D01*
X152451288Y-90651537D01*
X152448174Y-90650247D01*
X152427411Y-90609497D01*
X152421429Y-90571730D01*
X152415040Y-90531391D01*
X152415038Y-90531388D01*
X152415038Y-90531385D01*
X152360523Y-90424394D01*
X152275605Y-90339476D01*
X152168614Y-90284961D01*
X152168609Y-90284960D01*
X152050000Y-90266174D01*
X151931390Y-90284960D01*
X151931385Y-90284961D01*
X151824394Y-90339476D01*
X151739476Y-90424394D01*
X151684961Y-90531385D01*
X151684960Y-90531390D01*
X151666174Y-90650000D01*
X148250500Y-90650000D01*
X148250500Y-89364910D01*
X148258566Y-89331315D01*
X148262752Y-89323099D01*
X148265040Y-89318609D01*
X148283826Y-89200000D01*
X148265040Y-89081391D01*
X148265038Y-89081388D01*
X148265038Y-89081385D01*
X148210523Y-88974394D01*
X148125605Y-88889476D01*
X148120895Y-88886054D01*
X148122204Y-88884252D01*
X148090702Y-88847368D01*
X148095145Y-88790905D01*
X148138212Y-88754122D01*
X148161080Y-88750500D01*
X149077319Y-88750500D01*
X149077320Y-88750500D01*
X149121222Y-88741767D01*
X149171004Y-88708504D01*
X149204267Y-88658722D01*
X149213000Y-88614820D01*
X149213000Y-85385180D01*
X149204267Y-85341278D01*
X149171004Y-85291496D01*
X149167361Y-85289062D01*
X149121222Y-85258233D01*
X149077320Y-85249500D01*
X149077319Y-85249500D01*
X148593628Y-85249500D01*
X148541302Y-85227826D01*
X148519628Y-85175500D01*
X148527693Y-85141905D01*
X148565040Y-85068607D01*
X148583826Y-84949998D01*
X148565040Y-84831389D01*
X148565038Y-84831386D01*
X148565038Y-84831383D01*
X148510523Y-84724392D01*
X148425607Y-84639476D01*
X148353587Y-84602780D01*
X148334856Y-84589172D01*
X147979690Y-84234006D01*
X147958016Y-84181680D01*
X147970487Y-84140569D01*
X147991767Y-84108722D01*
X148000500Y-84064820D01*
X148000500Y-83035180D01*
X147991767Y-82991278D01*
X147958504Y-82941496D01*
X147958182Y-82941281D01*
X147908722Y-82908233D01*
X147864820Y-82899500D01*
X147864819Y-82899500D01*
X147687000Y-82899500D01*
X147634674Y-82877826D01*
X147613000Y-82825500D01*
X147613000Y-82102410D01*
X147621066Y-82068815D01*
X147623546Y-82063947D01*
X147627540Y-82056109D01*
X147646326Y-81937500D01*
X147627540Y-81818891D01*
X147627538Y-81818888D01*
X147627538Y-81818885D01*
X147573023Y-81711894D01*
X147488107Y-81626978D01*
X147465451Y-81615434D01*
X147428669Y-81572368D01*
X147433112Y-81515905D01*
X147476179Y-81479122D01*
X147499047Y-81475500D01*
X147575943Y-81475500D01*
X147628269Y-81497174D01*
X149602826Y-83471731D01*
X149624500Y-83524057D01*
X149624500Y-87699173D01*
X149624499Y-87699187D01*
X149624499Y-87705145D01*
X149624499Y-87794855D01*
X149631617Y-87812038D01*
X149645210Y-87844855D01*
X149657588Y-87874739D01*
X149658830Y-87877736D01*
X149722264Y-87941170D01*
X149732671Y-87951577D01*
X149732672Y-87951577D01*
X151549033Y-89767939D01*
X151631914Y-89802269D01*
X151721623Y-89802269D01*
X151981950Y-89802269D01*
X152034276Y-89823943D01*
X152097625Y-89887292D01*
X152204616Y-89941807D01*
X152204619Y-89941807D01*
X152204622Y-89941809D01*
X152323231Y-89960595D01*
X152342034Y-89957616D01*
X152397104Y-89970836D01*
X152405936Y-89978379D01*
X152552826Y-90125269D01*
X152574500Y-90177595D01*
X152574500Y-90597921D01*
X152552826Y-90650247D01*
X152549209Y-90651744D01*
X152560367Y-90658582D01*
X152574500Y-90702078D01*
X152574500Y-92849173D01*
X152574499Y-92849187D01*
X152574499Y-92944855D01*
X152592983Y-92989478D01*
X152608829Y-93027735D01*
X152682671Y-93101577D01*
X152682673Y-93101578D01*
X154253769Y-94672674D01*
X154275443Y-94725000D01*
X154253769Y-94777326D01*
X154053269Y-94977826D01*
X154000943Y-94999500D01*
X153035180Y-94999500D01*
X153013229Y-95003866D01*
X152991277Y-95008233D01*
X152941496Y-95041495D01*
X152941495Y-95041496D01*
X152908233Y-95091277D01*
X152899500Y-95135180D01*
X152899500Y-96164819D01*
X152908233Y-96208722D01*
X152939251Y-96255145D01*
X152941496Y-96258504D01*
X152991278Y-96291767D01*
X153035180Y-96300500D01*
X153035181Y-96300500D01*
X154064819Y-96300500D01*
X154064820Y-96300500D01*
X154108722Y-96291767D01*
X154158504Y-96258504D01*
X154191767Y-96208722D01*
X154200500Y-96164820D01*
X154200500Y-95499056D01*
X154222173Y-95446731D01*
X154572673Y-95096230D01*
X154624999Y-95074557D01*
X154677325Y-95096231D01*
X156672263Y-97091169D01*
X156672266Y-97091171D01*
X156696534Y-97101223D01*
X156755145Y-97125500D01*
X156844854Y-97125500D01*
X157108719Y-97125500D01*
X157161045Y-97147174D01*
X157224394Y-97210523D01*
X157331385Y-97265038D01*
X157331388Y-97265038D01*
X157331391Y-97265040D01*
X157450000Y-97283826D01*
X157568609Y-97265040D01*
X157568612Y-97265038D01*
X157568614Y-97265038D01*
X157675605Y-97210523D01*
X157675604Y-97210523D01*
X157675607Y-97210522D01*
X157738955Y-97147174D01*
X157791281Y-97125500D01*
X159796525Y-97125500D01*
X159796533Y-97125501D01*
X159805145Y-97125501D01*
X159894854Y-97125501D01*
X159894855Y-97125501D01*
X159953460Y-97101225D01*
X159977736Y-97091170D01*
X160041170Y-97027736D01*
X160041170Y-97027735D01*
X160051575Y-97017330D01*
X160051577Y-97017327D01*
X161817327Y-95251577D01*
X161817330Y-95251575D01*
X161827735Y-95241170D01*
X161827736Y-95241170D01*
X161891170Y-95177736D01*
X161915551Y-95118875D01*
X161925501Y-95094855D01*
X161925501Y-95005145D01*
X161925501Y-94999187D01*
X161925500Y-94999173D01*
X161925500Y-93700000D01*
X162166174Y-93700000D01*
X162184960Y-93818609D01*
X162184961Y-93818614D01*
X162239476Y-93925605D01*
X162324394Y-94010523D01*
X162431385Y-94065038D01*
X162431388Y-94065038D01*
X162431391Y-94065040D01*
X162550000Y-94083826D01*
X162580598Y-94078979D01*
X162635669Y-94092200D01*
X162665263Y-94140490D01*
X162665850Y-94147958D01*
X162684960Y-94268609D01*
X162684961Y-94268614D01*
X162739476Y-94375605D01*
X162824394Y-94460523D01*
X162931385Y-94515038D01*
X162931388Y-94515038D01*
X162931391Y-94515040D01*
X163050000Y-94533826D01*
X163168609Y-94515040D01*
X163168612Y-94515038D01*
X163168614Y-94515038D01*
X163275605Y-94460523D01*
X163275604Y-94460523D01*
X163275607Y-94460522D01*
X163360522Y-94375607D01*
X163370824Y-94355388D01*
X163415038Y-94268614D01*
X163415038Y-94268612D01*
X163415040Y-94268609D01*
X163433826Y-94150000D01*
X163415040Y-94031391D01*
X163415038Y-94031388D01*
X163415038Y-94031385D01*
X163360523Y-93924394D01*
X163275605Y-93839476D01*
X163168614Y-93784961D01*
X163168609Y-93784960D01*
X163050000Y-93766174D01*
X163019402Y-93771020D01*
X162964329Y-93757798D01*
X162934737Y-93709507D01*
X162934149Y-93702043D01*
X162933825Y-93700001D01*
X162933826Y-93700000D01*
X162915040Y-93581391D01*
X162915038Y-93581388D01*
X162915038Y-93581385D01*
X162860523Y-93474394D01*
X162775605Y-93389476D01*
X162668614Y-93334961D01*
X162668609Y-93334960D01*
X162550000Y-93316174D01*
X162431390Y-93334960D01*
X162431385Y-93334961D01*
X162324394Y-93389476D01*
X162239476Y-93474394D01*
X162184961Y-93581385D01*
X162184960Y-93581390D01*
X162166174Y-93700000D01*
X161925500Y-93700000D01*
X161925500Y-92374057D01*
X161947174Y-92321731D01*
X162953861Y-91315044D01*
X163873175Y-90395730D01*
X163925500Y-90374057D01*
X163977826Y-90395731D01*
X163999500Y-90448057D01*
X163999500Y-141625500D01*
X163977826Y-141677826D01*
X163925500Y-141699500D01*
X132074500Y-141699500D01*
X132022174Y-141677826D01*
X132000500Y-141625500D01*
X132000500Y-138483716D01*
X133522500Y-138483716D01*
X133522500Y-138716283D01*
X133558880Y-138945979D01*
X133558883Y-138945992D01*
X133630745Y-139167160D01*
X133630747Y-139167164D01*
X133736327Y-139374378D01*
X133784854Y-139441170D01*
X133873026Y-139562527D01*
X134037473Y-139726974D01*
X134037476Y-139726976D01*
X134037477Y-139726977D01*
X134225621Y-139863672D01*
X134432835Y-139969252D01*
X134432839Y-139969254D01*
X134654007Y-140041116D01*
X134654013Y-140041117D01*
X134654018Y-140041119D01*
X134768868Y-140059309D01*
X134883716Y-140077500D01*
X134883718Y-140077500D01*
X135116284Y-140077500D01*
X135208162Y-140062947D01*
X135345982Y-140041119D01*
X135345989Y-140041116D01*
X135345992Y-140041116D01*
X135567160Y-139969254D01*
X135567160Y-139969253D01*
X135567163Y-139969253D01*
X135774379Y-139863672D01*
X135962527Y-139726974D01*
X136126974Y-139562527D01*
X136263672Y-139374379D01*
X136369253Y-139167163D01*
X136398370Y-139077550D01*
X136441116Y-138945992D01*
X136441116Y-138945989D01*
X136441119Y-138945982D01*
X136477500Y-138716282D01*
X136477500Y-138483718D01*
X136441119Y-138254018D01*
X136441117Y-138254013D01*
X136441116Y-138254007D01*
X136369254Y-138032839D01*
X136369252Y-138032835D01*
X136263672Y-137825621D01*
X136126977Y-137637477D01*
X136126976Y-137637476D01*
X136126974Y-137637473D01*
X135962527Y-137473026D01*
X135962524Y-137473023D01*
X135962522Y-137473022D01*
X135774378Y-137336327D01*
X135567164Y-137230747D01*
X135567160Y-137230745D01*
X135345992Y-137158883D01*
X135345979Y-137158880D01*
X135116284Y-137122500D01*
X135116282Y-137122500D01*
X134883718Y-137122500D01*
X134883716Y-137122500D01*
X134654020Y-137158880D01*
X134654007Y-137158883D01*
X134432839Y-137230745D01*
X134432835Y-137230747D01*
X134225621Y-137336327D01*
X134037477Y-137473022D01*
X133873022Y-137637477D01*
X133736327Y-137825621D01*
X133630747Y-138032835D01*
X133630745Y-138032839D01*
X133558883Y-138254007D01*
X133558880Y-138254020D01*
X133522500Y-138483716D01*
X132000500Y-138483716D01*
X132000500Y-132799992D01*
X132394592Y-132799992D01*
X132394592Y-132800007D01*
X132414200Y-133086677D01*
X132414203Y-133086697D01*
X132472663Y-133368023D01*
X132472668Y-133368041D01*
X132568892Y-133638789D01*
X132568894Y-133638794D01*
X132568896Y-133638797D01*
X132701099Y-133893936D01*
X132866811Y-134128698D01*
X133062947Y-134338708D01*
X133285853Y-134520055D01*
X133531375Y-134669361D01*
X133794942Y-134783844D01*
X134071642Y-134861371D01*
X134356322Y-134900500D01*
X134356329Y-134900500D01*
X134643671Y-134900500D01*
X134643678Y-134900500D01*
X134928358Y-134861371D01*
X135205058Y-134783844D01*
X135468625Y-134669361D01*
X135714147Y-134520055D01*
X135937053Y-134338708D01*
X136133189Y-134128698D01*
X136298901Y-133893936D01*
X136431104Y-133638797D01*
X136527334Y-133368032D01*
X136585798Y-133086686D01*
X136605408Y-132800000D01*
X136605408Y-132799992D01*
X136585799Y-132513322D01*
X136585796Y-132513302D01*
X136527336Y-132231976D01*
X136527331Y-132231958D01*
X136431107Y-131961210D01*
X136431105Y-131961205D01*
X136298901Y-131706064D01*
X136298896Y-131706057D01*
X136133190Y-131471304D01*
X136133189Y-131471302D01*
X135937053Y-131261292D01*
X135714147Y-131079945D01*
X135714141Y-131079941D01*
X135714138Y-131079939D01*
X135600159Y-131010627D01*
X135468625Y-130930639D01*
X135468622Y-130930637D01*
X135468621Y-130930637D01*
X135205056Y-130816155D01*
X134928356Y-130738628D01*
X134643682Y-130699500D01*
X134643678Y-130699500D01*
X134356322Y-130699500D01*
X134356317Y-130699500D01*
X134071643Y-130738628D01*
X133794943Y-130816155D01*
X133531378Y-130930637D01*
X133531375Y-130930639D01*
X133285861Y-131079939D01*
X133285853Y-131079945D01*
X133062945Y-131261294D01*
X132866809Y-131471304D01*
X132701103Y-131706057D01*
X132701098Y-131706064D01*
X132568894Y-131961205D01*
X132568892Y-131961210D01*
X132472668Y-132231958D01*
X132472663Y-132231976D01*
X132414203Y-132513302D01*
X132414200Y-132513322D01*
X132394592Y-132799992D01*
X132000500Y-132799992D01*
X132000500Y-123268482D01*
X132399500Y-123268482D01*
X132399500Y-126731517D01*
X132414353Y-126825303D01*
X132414354Y-126825305D01*
X132471950Y-126938341D01*
X132561659Y-127028050D01*
X132674697Y-127085646D01*
X132768483Y-127100500D01*
X136231516Y-127100499D01*
X136231517Y-127100499D01*
X136325303Y-127085646D01*
X136325305Y-127085645D01*
X136327418Y-127084568D01*
X136438341Y-127028050D01*
X136528050Y-126938341D01*
X136585646Y-126825303D01*
X136600500Y-126731517D01*
X136600499Y-123268484D01*
X136585646Y-123174697D01*
X136585646Y-123174696D01*
X136585645Y-123174694D01*
X136528049Y-123061658D01*
X136438342Y-122971951D01*
X136438341Y-122971950D01*
X136325303Y-122914354D01*
X136325301Y-122914353D01*
X136325300Y-122914353D01*
X136231517Y-122899500D01*
X132768482Y-122899500D01*
X132674696Y-122914353D01*
X132674694Y-122914354D01*
X132561658Y-122971950D01*
X132471951Y-123061657D01*
X132414353Y-123174699D01*
X132399500Y-123268482D01*
X132000500Y-123268482D01*
X132000500Y-120250000D01*
X133616174Y-120250000D01*
X133634960Y-120368609D01*
X133634961Y-120368614D01*
X133689476Y-120475605D01*
X133774394Y-120560523D01*
X133881385Y-120615038D01*
X133881388Y-120615038D01*
X133881391Y-120615040D01*
X134000000Y-120633826D01*
X134118609Y-120615040D01*
X134118612Y-120615038D01*
X134118614Y-120615038D01*
X134225605Y-120560523D01*
X134225604Y-120560523D01*
X134225607Y-120560522D01*
X134310522Y-120475607D01*
X134312355Y-120472008D01*
X134365038Y-120368614D01*
X134365038Y-120368612D01*
X134365040Y-120368609D01*
X134383826Y-120250000D01*
X134365040Y-120131391D01*
X134365038Y-120131388D01*
X134365038Y-120131385D01*
X134310523Y-120024394D01*
X134225605Y-119939476D01*
X134118614Y-119884961D01*
X134118609Y-119884960D01*
X134000000Y-119866174D01*
X133881390Y-119884960D01*
X133881385Y-119884961D01*
X133774394Y-119939476D01*
X133689476Y-120024394D01*
X133634961Y-120131385D01*
X133634960Y-120131390D01*
X133616174Y-120250000D01*
X132000500Y-120250000D01*
X132000500Y-96299996D01*
X132294571Y-96299996D01*
X132294571Y-96300003D01*
X132314242Y-96512303D01*
X132314243Y-96512309D01*
X132372593Y-96717383D01*
X132372596Y-96717393D01*
X132467632Y-96908252D01*
X132467634Y-96908255D01*
X132596128Y-97078407D01*
X132753698Y-97222052D01*
X132934981Y-97334298D01*
X133133802Y-97411321D01*
X133343390Y-97450500D01*
X133556610Y-97450500D01*
X133766198Y-97411321D01*
X133965019Y-97334298D01*
X134146302Y-97222052D01*
X134303872Y-97078407D01*
X134432366Y-96908255D01*
X134527405Y-96717389D01*
X134529325Y-96710642D01*
X134564491Y-96666245D01*
X134620751Y-96659718D01*
X134665148Y-96694884D01*
X134674500Y-96730893D01*
X134674500Y-98755557D01*
X134652826Y-98807883D01*
X134600500Y-98829557D01*
X134559389Y-98817086D01*
X134508723Y-98783233D01*
X134486771Y-98778866D01*
X134464820Y-98774500D01*
X132735180Y-98774500D01*
X132713229Y-98778866D01*
X132691277Y-98783233D01*
X132641496Y-98816495D01*
X132641495Y-98816496D01*
X132608233Y-98866277D01*
X132599500Y-98910180D01*
X132599500Y-100639819D01*
X132608233Y-100683722D01*
X132626380Y-100710882D01*
X132641496Y-100733504D01*
X132691278Y-100766767D01*
X132735180Y-100775500D01*
X132735181Y-100775500D01*
X134464819Y-100775500D01*
X134464820Y-100775500D01*
X134508722Y-100766767D01*
X134558504Y-100733504D01*
X134558504Y-100733503D01*
X134559388Y-100732913D01*
X134614937Y-100721864D01*
X134662029Y-100753330D01*
X134674500Y-100794442D01*
X134674500Y-101911668D01*
X134652826Y-101963994D01*
X134600500Y-101985668D01*
X134548174Y-101963994D01*
X134529687Y-101933151D01*
X134528813Y-101930271D01*
X134528812Y-101930270D01*
X134518869Y-101911668D01*
X134435910Y-101756462D01*
X134310883Y-101604117D01*
X134158538Y-101479090D01*
X134148597Y-101473776D01*
X133984731Y-101386187D01*
X133796133Y-101328976D01*
X133600000Y-101309659D01*
X133403866Y-101328976D01*
X133215268Y-101386187D01*
X133041463Y-101479089D01*
X132889117Y-101604117D01*
X132764089Y-101756463D01*
X132671187Y-101930268D01*
X132613976Y-102118866D01*
X132594659Y-102315000D01*
X132613976Y-102511133D01*
X132671187Y-102699731D01*
X132733485Y-102816281D01*
X132764090Y-102873538D01*
X132889117Y-103025883D01*
X133041462Y-103150910D01*
X133074584Y-103168614D01*
X133215268Y-103243812D01*
X133215270Y-103243812D01*
X133215273Y-103243814D01*
X133403868Y-103301024D01*
X133600000Y-103320341D01*
X133796132Y-103301024D01*
X133984727Y-103243814D01*
X134158538Y-103150910D01*
X134310883Y-103025883D01*
X134435910Y-102873538D01*
X134528814Y-102699727D01*
X134529686Y-102696850D01*
X134565616Y-102653069D01*
X134621980Y-102647517D01*
X134665762Y-102683447D01*
X134674500Y-102718331D01*
X134674500Y-105581668D01*
X134652826Y-105633994D01*
X134600500Y-105655668D01*
X134548174Y-105633994D01*
X134529687Y-105603151D01*
X134528813Y-105600271D01*
X134528812Y-105600270D01*
X134457202Y-105466297D01*
X134435910Y-105426462D01*
X134310883Y-105274117D01*
X134158538Y-105149090D01*
X134148597Y-105143776D01*
X133984731Y-105056187D01*
X133796133Y-104998976D01*
X133600000Y-104979659D01*
X133403866Y-104998976D01*
X133215268Y-105056187D01*
X133041463Y-105149089D01*
X132889117Y-105274117D01*
X132764089Y-105426463D01*
X132671187Y-105600268D01*
X132613976Y-105788866D01*
X132594659Y-105985000D01*
X132613976Y-106181133D01*
X132671187Y-106369731D01*
X132706473Y-106435745D01*
X132764090Y-106543538D01*
X132889117Y-106695883D01*
X133041462Y-106820910D01*
X133118426Y-106862048D01*
X133215268Y-106913812D01*
X133215270Y-106913812D01*
X133215273Y-106913814D01*
X133403868Y-106971024D01*
X133600000Y-106990341D01*
X133796132Y-106971024D01*
X133984727Y-106913814D01*
X134158538Y-106820910D01*
X134310883Y-106695883D01*
X134435910Y-106543538D01*
X134528814Y-106369727D01*
X134529686Y-106366850D01*
X134565616Y-106323069D01*
X134621980Y-106317517D01*
X134665762Y-106353447D01*
X134674500Y-106388331D01*
X134674500Y-107505557D01*
X134652826Y-107557883D01*
X134600500Y-107579557D01*
X134559389Y-107567086D01*
X134508723Y-107533233D01*
X134486771Y-107528866D01*
X134464820Y-107524500D01*
X132735180Y-107524500D01*
X132713229Y-107528866D01*
X132691277Y-107533233D01*
X132641496Y-107566495D01*
X132641495Y-107566496D01*
X132608233Y-107616277D01*
X132604742Y-107633826D01*
X132599500Y-107660180D01*
X132599500Y-109389820D01*
X132608233Y-109433722D01*
X132641496Y-109483504D01*
X132691278Y-109516767D01*
X132735180Y-109525500D01*
X132735181Y-109525500D01*
X134464819Y-109525500D01*
X134464820Y-109525500D01*
X134508722Y-109516767D01*
X134558504Y-109483504D01*
X134558504Y-109483503D01*
X134559388Y-109482913D01*
X134614937Y-109471864D01*
X134662029Y-109503330D01*
X134674500Y-109544442D01*
X134674500Y-120699173D01*
X134674499Y-120699187D01*
X134674499Y-120705145D01*
X134674499Y-120794855D01*
X134680989Y-120810522D01*
X134708829Y-120877735D01*
X134782671Y-120951577D01*
X134782673Y-120951578D01*
X138652826Y-124821731D01*
X138674500Y-124874057D01*
X138674500Y-139600500D01*
X138652826Y-139652826D01*
X138600500Y-139674500D01*
X138360180Y-139674500D01*
X138338229Y-139678866D01*
X138316277Y-139683233D01*
X138266496Y-139716495D01*
X138266495Y-139716496D01*
X138233233Y-139766277D01*
X138230273Y-139781156D01*
X138224500Y-139810180D01*
X138224500Y-141189820D01*
X138233233Y-141233722D01*
X138266496Y-141283504D01*
X138316278Y-141316767D01*
X138360180Y-141325500D01*
X138360181Y-141325500D01*
X139739819Y-141325500D01*
X139739820Y-141325500D01*
X139783722Y-141316767D01*
X139833504Y-141283504D01*
X139866767Y-141233722D01*
X139875500Y-141189820D01*
X139875500Y-139810180D01*
X139866767Y-139766278D01*
X139833504Y-139716496D01*
X139833242Y-139716321D01*
X139783722Y-139683233D01*
X139781208Y-139682733D01*
X139739820Y-139674500D01*
X139739819Y-139674500D01*
X139199500Y-139674500D01*
X139147174Y-139652826D01*
X139125500Y-139600500D01*
X139125500Y-124705145D01*
X139125499Y-124705143D01*
X139091171Y-124622266D01*
X139091169Y-124622263D01*
X139023521Y-124554615D01*
X139023514Y-124554609D01*
X135147174Y-120678269D01*
X135125500Y-120625943D01*
X135125500Y-99780890D01*
X135147174Y-99728564D01*
X135199500Y-99706890D01*
X135233094Y-99714955D01*
X135331391Y-99765040D01*
X135450000Y-99783826D01*
X135568609Y-99765040D01*
X135568613Y-99765038D01*
X135616905Y-99740433D01*
X135673367Y-99735989D01*
X135716434Y-99772772D01*
X135724500Y-99806367D01*
X135724500Y-101816981D01*
X135702826Y-101869307D01*
X135358831Y-102213302D01*
X135358830Y-102213304D01*
X135324499Y-102296183D01*
X135324499Y-102394505D01*
X135324500Y-102394514D01*
X135324500Y-120474173D01*
X135324499Y-120474187D01*
X135324499Y-120569855D01*
X135343216Y-120615041D01*
X135358828Y-120652733D01*
X135358831Y-120652737D01*
X135432671Y-120726577D01*
X135432673Y-120726578D01*
X140852826Y-126146731D01*
X140874500Y-126199057D01*
X140874500Y-139633436D01*
X140852826Y-139685762D01*
X140815887Y-139705819D01*
X140793499Y-139710578D01*
X140634978Y-139781156D01*
X140634973Y-139781159D01*
X140494592Y-139883152D01*
X140378478Y-140012109D01*
X140378475Y-140012114D01*
X140291716Y-140162384D01*
X140291711Y-140162394D01*
X140238093Y-140327418D01*
X140219953Y-140500000D01*
X140238093Y-140672581D01*
X140291711Y-140837605D01*
X140291716Y-140837615D01*
X140378475Y-140987885D01*
X140378478Y-140987890D01*
X140494592Y-141116847D01*
X140634969Y-141218838D01*
X140634976Y-141218842D01*
X140793501Y-141289422D01*
X140963236Y-141325500D01*
X140963237Y-141325500D01*
X141136763Y-141325500D01*
X141136764Y-141325500D01*
X141306499Y-141289422D01*
X141465024Y-141218842D01*
X141504971Y-141189819D01*
X141605407Y-141116847D01*
X141605406Y-141116847D01*
X141605410Y-141116845D01*
X141721522Y-140987889D01*
X141808286Y-140837611D01*
X141861908Y-140672576D01*
X141880047Y-140500000D01*
X141861908Y-140327424D01*
X141808286Y-140162389D01*
X141721522Y-140012111D01*
X141721521Y-140012109D01*
X141605407Y-139883152D01*
X141465027Y-139781159D01*
X141465022Y-139781156D01*
X141369401Y-139738583D01*
X141330415Y-139697500D01*
X141325500Y-139670981D01*
X141325500Y-126030145D01*
X141325499Y-126030143D01*
X141319242Y-126015038D01*
X141291170Y-125947264D01*
X141227736Y-125883830D01*
X141223521Y-125879615D01*
X141223514Y-125879609D01*
X136083471Y-120739566D01*
X136061797Y-120687240D01*
X136083471Y-120634914D01*
X136113912Y-120619426D01*
X136113072Y-120616839D01*
X136118606Y-120615040D01*
X136118609Y-120615040D01*
X136118611Y-120615038D01*
X136118614Y-120615038D01*
X136225605Y-120560523D01*
X136225604Y-120560523D01*
X136225607Y-120560522D01*
X136310522Y-120475607D01*
X136312355Y-120472008D01*
X136365038Y-120368614D01*
X136365038Y-120368612D01*
X136365040Y-120368609D01*
X136383826Y-120250000D01*
X136365040Y-120131391D01*
X136365038Y-120131388D01*
X136365038Y-120131385D01*
X136310523Y-120024394D01*
X136225605Y-119939476D01*
X136118614Y-119884961D01*
X136118609Y-119884960D01*
X136000000Y-119866174D01*
X135881390Y-119884960D01*
X135875850Y-119886760D01*
X135875186Y-119884716D01*
X135826622Y-119888531D01*
X135783560Y-119851741D01*
X135775500Y-119818156D01*
X135775500Y-102465096D01*
X135797174Y-102412770D01*
X135869010Y-102340934D01*
X135921336Y-102319260D01*
X135973662Y-102340934D01*
X135995336Y-102393260D01*
X135987271Y-102426855D01*
X135984960Y-102431390D01*
X135966174Y-102550000D01*
X135984960Y-102668609D01*
X135984961Y-102668614D01*
X136039476Y-102775605D01*
X136124394Y-102860523D01*
X136231385Y-102915038D01*
X136231388Y-102915038D01*
X136231391Y-102915040D01*
X136350000Y-102933826D01*
X136468609Y-102915040D01*
X136468612Y-102915038D01*
X136468614Y-102915038D01*
X136575605Y-102860523D01*
X136575604Y-102860523D01*
X136575607Y-102860522D01*
X136598174Y-102837955D01*
X136650500Y-102816281D01*
X136702826Y-102837955D01*
X136724500Y-102890281D01*
X136724500Y-105649173D01*
X136724499Y-105649187D01*
X136724499Y-105675943D01*
X136702825Y-105728269D01*
X136078231Y-106352863D01*
X136078230Y-106352865D01*
X136043899Y-106435744D01*
X136043899Y-106534066D01*
X136043900Y-106534075D01*
X136043900Y-109218573D01*
X136043899Y-109218587D01*
X136043899Y-109314254D01*
X136067928Y-109372264D01*
X136067928Y-109372265D01*
X136078228Y-109397133D01*
X136078231Y-109397137D01*
X136152071Y-109470977D01*
X136152073Y-109470978D01*
X137183426Y-110502331D01*
X137205100Y-110554657D01*
X137205100Y-120062015D01*
X137183426Y-120114341D01*
X137131100Y-120136015D01*
X137119524Y-120135104D01*
X137000000Y-120116174D01*
X136881390Y-120134960D01*
X136881385Y-120134961D01*
X136774394Y-120189476D01*
X136689476Y-120274394D01*
X136634961Y-120381385D01*
X136634960Y-120381390D01*
X136616174Y-120500000D01*
X136634960Y-120618609D01*
X136634961Y-120618614D01*
X136689476Y-120725605D01*
X136774394Y-120810523D01*
X136881385Y-120865038D01*
X136881388Y-120865038D01*
X136881391Y-120865040D01*
X137000000Y-120883826D01*
X137118609Y-120865040D01*
X137118609Y-120865039D01*
X137119524Y-120864895D01*
X137174596Y-120878117D01*
X137204189Y-120926408D01*
X137205100Y-120937984D01*
X137205100Y-121029773D01*
X137205099Y-121029787D01*
X137205099Y-121125454D01*
X137205098Y-121125454D01*
X137226657Y-121177500D01*
X137239430Y-121208336D01*
X137302864Y-121271770D01*
X137313271Y-121282177D01*
X137313273Y-121282178D01*
X142702826Y-126671731D01*
X142724500Y-126724057D01*
X142724500Y-139693243D01*
X142702826Y-139745569D01*
X142680599Y-139760845D01*
X142634978Y-139781156D01*
X142634973Y-139781159D01*
X142494592Y-139883152D01*
X142378478Y-140012109D01*
X142378475Y-140012114D01*
X142291716Y-140162384D01*
X142291711Y-140162394D01*
X142238093Y-140327418D01*
X142219953Y-140500000D01*
X142238093Y-140672581D01*
X142291711Y-140837605D01*
X142291716Y-140837615D01*
X142378475Y-140987885D01*
X142378478Y-140987890D01*
X142494592Y-141116847D01*
X142634969Y-141218838D01*
X142634976Y-141218842D01*
X142793501Y-141289422D01*
X142963236Y-141325500D01*
X142963237Y-141325500D01*
X143136763Y-141325500D01*
X143136764Y-141325500D01*
X143306499Y-141289422D01*
X143465024Y-141218842D01*
X143504971Y-141189819D01*
X143605407Y-141116847D01*
X143605406Y-141116847D01*
X143605410Y-141116845D01*
X143721522Y-140987889D01*
X143808286Y-140837611D01*
X143861908Y-140672576D01*
X143880047Y-140500000D01*
X143861908Y-140327424D01*
X143808286Y-140162389D01*
X143721522Y-140012111D01*
X143721521Y-140012109D01*
X143605407Y-139883152D01*
X143465030Y-139781161D01*
X143465023Y-139781157D01*
X143306500Y-139710578D01*
X143306499Y-139710577D01*
X143234114Y-139695191D01*
X143187438Y-139663111D01*
X143175500Y-139622808D01*
X143175500Y-126555145D01*
X143175499Y-126555143D01*
X143141171Y-126472266D01*
X143141169Y-126472263D01*
X137677774Y-121008868D01*
X137656100Y-120956542D01*
X137656100Y-110484075D01*
X137656101Y-110484066D01*
X137656101Y-110385746D01*
X137621770Y-110302865D01*
X137621769Y-110302863D01*
X137554121Y-110235215D01*
X137554114Y-110235209D01*
X136516574Y-109197669D01*
X136494900Y-109145343D01*
X136494900Y-107687984D01*
X136516574Y-107635658D01*
X136568900Y-107613984D01*
X136580476Y-107614895D01*
X136581390Y-107615039D01*
X136581391Y-107615040D01*
X136700000Y-107633826D01*
X136818609Y-107615040D01*
X136818612Y-107615038D01*
X136818614Y-107615038D01*
X136925605Y-107560523D01*
X136925604Y-107560523D01*
X136925607Y-107560522D01*
X137010522Y-107475607D01*
X137012355Y-107472008D01*
X137065038Y-107368614D01*
X137065038Y-107368612D01*
X137065040Y-107368609D01*
X137083826Y-107250000D01*
X137065040Y-107131391D01*
X137065038Y-107131388D01*
X137065038Y-107131385D01*
X137010523Y-107024394D01*
X136925605Y-106939476D01*
X136818614Y-106884961D01*
X136818609Y-106884960D01*
X136700000Y-106866174D01*
X136580476Y-106885104D01*
X136525404Y-106871882D01*
X136495811Y-106823591D01*
X136494900Y-106812015D01*
X136494900Y-106604657D01*
X136516574Y-106552331D01*
X136779476Y-106289429D01*
X137191170Y-105877736D01*
X137225501Y-105794855D01*
X137225501Y-105705146D01*
X137191170Y-105622265D01*
X137191169Y-105622264D01*
X137187972Y-105617479D01*
X137175500Y-105576366D01*
X137175500Y-90483017D01*
X137197173Y-90430692D01*
X137348174Y-90279691D01*
X137400499Y-90258018D01*
X137452825Y-90279692D01*
X137474499Y-90332018D01*
X137474499Y-90353466D01*
X137474500Y-90353475D01*
X137474500Y-90749173D01*
X137474499Y-90749187D01*
X137474499Y-90755145D01*
X137474499Y-90844855D01*
X137476465Y-90849602D01*
X137482100Y-90877923D01*
X137482100Y-108706773D01*
X137482099Y-108706787D01*
X137482099Y-108802456D01*
X137506373Y-108861058D01*
X137516429Y-108885334D01*
X137516432Y-108885338D01*
X137590271Y-108959177D01*
X137590273Y-108959178D01*
X138202826Y-109571731D01*
X138224500Y-109624057D01*
X138224500Y-120849173D01*
X138224499Y-120849187D01*
X138224499Y-120944855D01*
X138245840Y-120996375D01*
X138245840Y-120996376D01*
X138258828Y-121027733D01*
X138258831Y-121027737D01*
X138332671Y-121101577D01*
X138332673Y-121101578D01*
X144752826Y-127521731D01*
X144774500Y-127574057D01*
X144774500Y-139670981D01*
X144752826Y-139723307D01*
X144730599Y-139738583D01*
X144634978Y-139781156D01*
X144634973Y-139781159D01*
X144494592Y-139883152D01*
X144378478Y-140012109D01*
X144378475Y-140012114D01*
X144291716Y-140162384D01*
X144291711Y-140162394D01*
X144238093Y-140327418D01*
X144219953Y-140500000D01*
X144238093Y-140672581D01*
X144291711Y-140837605D01*
X144291716Y-140837615D01*
X144378475Y-140987885D01*
X144378478Y-140987890D01*
X144494592Y-141116847D01*
X144634969Y-141218838D01*
X144634976Y-141218842D01*
X144793501Y-141289422D01*
X144963236Y-141325500D01*
X144963237Y-141325500D01*
X145136763Y-141325500D01*
X145136764Y-141325500D01*
X145306499Y-141289422D01*
X145465024Y-141218842D01*
X145504971Y-141189819D01*
X145605407Y-141116847D01*
X145605406Y-141116847D01*
X145605410Y-141116845D01*
X145721522Y-140987889D01*
X145808286Y-140837611D01*
X145861908Y-140672576D01*
X145880047Y-140500000D01*
X145861908Y-140327424D01*
X145808286Y-140162389D01*
X145721522Y-140012111D01*
X145721521Y-140012109D01*
X145605407Y-139883152D01*
X145465030Y-139781161D01*
X145465023Y-139781157D01*
X145306500Y-139710578D01*
X145284113Y-139705819D01*
X145237437Y-139673738D01*
X145225500Y-139633436D01*
X145225500Y-127503475D01*
X145225501Y-127503466D01*
X145225501Y-127405146D01*
X145191170Y-127322265D01*
X145191169Y-127322263D01*
X145123521Y-127254615D01*
X145123514Y-127254609D01*
X138768905Y-120900000D01*
X139163974Y-120900000D01*
X139182760Y-121018609D01*
X139182761Y-121018614D01*
X139237276Y-121125605D01*
X139322194Y-121210523D01*
X139429185Y-121265038D01*
X139429188Y-121265038D01*
X139429191Y-121265040D01*
X139547800Y-121283826D01*
X139666409Y-121265040D01*
X139666412Y-121265038D01*
X139666414Y-121265038D01*
X139773405Y-121210523D01*
X139773404Y-121210523D01*
X139773407Y-121210522D01*
X139858322Y-121125607D01*
X139870566Y-121101577D01*
X139912837Y-121018616D01*
X139912837Y-121018614D01*
X139912840Y-121018609D01*
X139914608Y-121007439D01*
X139935369Y-120966690D01*
X144996560Y-115905500D01*
X145042333Y-115886540D01*
X145042048Y-115884737D01*
X145047799Y-115883825D01*
X145047800Y-115883826D01*
X145166409Y-115865040D01*
X145166412Y-115865038D01*
X145166414Y-115865038D01*
X145273405Y-115810523D01*
X145273404Y-115810523D01*
X145273407Y-115810522D01*
X145358322Y-115725607D01*
X145383799Y-115675605D01*
X145412838Y-115618614D01*
X145412838Y-115618612D01*
X145412840Y-115618609D01*
X145431626Y-115500000D01*
X145412840Y-115381391D01*
X145412838Y-115381388D01*
X145412838Y-115381385D01*
X145358323Y-115274394D01*
X145273405Y-115189476D01*
X145166414Y-115134961D01*
X145166409Y-115134960D01*
X145047800Y-115116174D01*
X144929190Y-115134960D01*
X144929185Y-115134961D01*
X144822194Y-115189476D01*
X144737276Y-115274394D01*
X144682761Y-115381385D01*
X144682760Y-115381390D01*
X144663063Y-115505752D01*
X144661259Y-115505466D01*
X144642300Y-115551238D01*
X139686310Y-120507227D01*
X139633984Y-120528901D01*
X139622409Y-120527990D01*
X139547801Y-120516174D01*
X139547800Y-120516174D01*
X139429190Y-120534960D01*
X139429185Y-120534961D01*
X139322194Y-120589476D01*
X139237276Y-120674394D01*
X139182761Y-120781385D01*
X139182760Y-120781390D01*
X139163974Y-120900000D01*
X138768905Y-120900000D01*
X138697174Y-120828269D01*
X138675500Y-120775943D01*
X138675500Y-115450000D01*
X140420338Y-115450000D01*
X140439124Y-115568609D01*
X140439125Y-115568614D01*
X140493640Y-115675605D01*
X140578558Y-115760523D01*
X140685549Y-115815038D01*
X140685552Y-115815038D01*
X140685555Y-115815040D01*
X140804164Y-115833826D01*
X140922773Y-115815040D01*
X140922776Y-115815038D01*
X140922778Y-115815038D01*
X141029769Y-115760523D01*
X141029768Y-115760523D01*
X141029771Y-115760522D01*
X141114686Y-115675607D01*
X141116519Y-115672008D01*
X141169202Y-115568614D01*
X141169202Y-115568612D01*
X141169204Y-115568609D01*
X141187990Y-115450000D01*
X141169204Y-115331391D01*
X141169202Y-115331388D01*
X141169202Y-115331385D01*
X141114687Y-115224394D01*
X141029769Y-115139476D01*
X140922778Y-115084961D01*
X140922773Y-115084960D01*
X140804164Y-115066174D01*
X140685554Y-115084960D01*
X140685549Y-115084961D01*
X140578558Y-115139476D01*
X140493640Y-115224394D01*
X140439125Y-115331385D01*
X140439124Y-115331390D01*
X140420338Y-115450000D01*
X138675500Y-115450000D01*
X138675500Y-109455145D01*
X138675499Y-109455143D01*
X138641171Y-109372266D01*
X138641169Y-109372263D01*
X138573521Y-109304615D01*
X138573514Y-109304609D01*
X137954774Y-108685869D01*
X137933100Y-108633543D01*
X137933100Y-107266549D01*
X137954774Y-107214223D01*
X138007100Y-107192549D01*
X138059426Y-107214223D01*
X138075467Y-107238231D01*
X138098773Y-107294497D01*
X138108829Y-107318773D01*
X138108832Y-107318777D01*
X138182671Y-107392616D01*
X138182673Y-107392617D01*
X144838270Y-114048214D01*
X144859944Y-114100540D01*
X144838270Y-114152866D01*
X144819539Y-114166474D01*
X144774394Y-114189476D01*
X144689476Y-114274394D01*
X144634961Y-114381385D01*
X144634960Y-114381390D01*
X144616174Y-114500000D01*
X144634960Y-114618609D01*
X144634961Y-114618614D01*
X144689476Y-114725605D01*
X144774394Y-114810523D01*
X144881385Y-114865038D01*
X144881388Y-114865038D01*
X144881391Y-114865040D01*
X145000000Y-114883826D01*
X145118609Y-114865040D01*
X145118612Y-114865038D01*
X145118614Y-114865038D01*
X145225605Y-114810523D01*
X145225604Y-114810523D01*
X145225607Y-114810522D01*
X145310522Y-114725607D01*
X145333525Y-114680459D01*
X145376590Y-114643677D01*
X145433053Y-114648120D01*
X145451785Y-114661729D01*
X146802826Y-116012770D01*
X146824500Y-116065096D01*
X146824500Y-139648719D01*
X146802826Y-139701045D01*
X146780599Y-139716321D01*
X146634978Y-139781156D01*
X146634973Y-139781159D01*
X146494592Y-139883152D01*
X146378478Y-140012109D01*
X146378475Y-140012114D01*
X146291716Y-140162384D01*
X146291711Y-140162394D01*
X146238093Y-140327418D01*
X146219953Y-140500000D01*
X146238093Y-140672581D01*
X146291711Y-140837605D01*
X146291716Y-140837615D01*
X146378475Y-140987885D01*
X146378478Y-140987890D01*
X146494592Y-141116847D01*
X146634969Y-141218838D01*
X146634976Y-141218842D01*
X146793501Y-141289422D01*
X146963236Y-141325500D01*
X146963237Y-141325500D01*
X147136763Y-141325500D01*
X147136764Y-141325500D01*
X147306499Y-141289422D01*
X147465024Y-141218842D01*
X147504971Y-141189819D01*
X147605407Y-141116847D01*
X147605406Y-141116847D01*
X147605410Y-141116845D01*
X147721522Y-140987889D01*
X147808286Y-140837611D01*
X147861908Y-140672576D01*
X147880047Y-140500000D01*
X147861908Y-140327424D01*
X147808286Y-140162389D01*
X147721522Y-140012111D01*
X147721521Y-140012109D01*
X147605407Y-139883152D01*
X147465030Y-139781161D01*
X147465022Y-139781157D01*
X147319401Y-139716321D01*
X147280415Y-139675238D01*
X147275500Y-139648719D01*
X147275500Y-117600000D01*
X148613974Y-117600000D01*
X148632760Y-117718609D01*
X148632761Y-117718614D01*
X148687276Y-117825605D01*
X148772194Y-117910523D01*
X148879185Y-117965038D01*
X148879188Y-117965038D01*
X148879191Y-117965040D01*
X148997800Y-117983826D01*
X149116409Y-117965040D01*
X149116412Y-117965038D01*
X149116414Y-117965038D01*
X149223405Y-117910523D01*
X149223404Y-117910523D01*
X149223407Y-117910522D01*
X149308322Y-117825607D01*
X149310155Y-117822008D01*
X149362838Y-117718614D01*
X149362838Y-117718612D01*
X149362840Y-117718609D01*
X149381626Y-117600000D01*
X149362840Y-117481391D01*
X149362838Y-117481388D01*
X149362838Y-117481385D01*
X149308323Y-117374394D01*
X149223405Y-117289476D01*
X149116414Y-117234961D01*
X149116409Y-117234960D01*
X148997800Y-117216174D01*
X148879190Y-117234960D01*
X148879185Y-117234961D01*
X148772194Y-117289476D01*
X148687276Y-117374394D01*
X148632761Y-117481385D01*
X148632760Y-117481390D01*
X148613974Y-117600000D01*
X147275500Y-117600000D01*
X147275500Y-115994514D01*
X147275501Y-115994505D01*
X147275501Y-115896185D01*
X147241170Y-115813304D01*
X147241169Y-115813302D01*
X147173521Y-115745654D01*
X147173514Y-115745648D01*
X138547174Y-107119308D01*
X138525500Y-107066982D01*
X138525500Y-105466297D01*
X138547174Y-105413971D01*
X138599500Y-105392297D01*
X138651826Y-105413971D01*
X138682671Y-105444816D01*
X138682673Y-105444817D01*
X144686069Y-111448214D01*
X144707743Y-111500540D01*
X144686069Y-111552866D01*
X144667339Y-111566474D01*
X144622193Y-111589477D01*
X144537276Y-111674394D01*
X144482761Y-111781385D01*
X144482760Y-111781390D01*
X144463974Y-111900000D01*
X144482760Y-112018609D01*
X144482761Y-112018614D01*
X144537276Y-112125605D01*
X144622194Y-112210523D01*
X144729185Y-112265038D01*
X144729188Y-112265038D01*
X144729191Y-112265040D01*
X144847800Y-112283826D01*
X144966409Y-112265040D01*
X144966412Y-112265038D01*
X144966414Y-112265038D01*
X145073405Y-112210523D01*
X145073404Y-112210523D01*
X145073407Y-112210522D01*
X145158322Y-112125607D01*
X145181324Y-112080461D01*
X145224391Y-112043678D01*
X145280853Y-112048121D01*
X145299585Y-112061730D01*
X150153012Y-116915156D01*
X150174686Y-116967482D01*
X150174686Y-117211889D01*
X150153012Y-117264215D01*
X150100686Y-117285889D01*
X150089110Y-117284978D01*
X149969586Y-117266048D01*
X149850976Y-117284834D01*
X149850971Y-117284835D01*
X149743980Y-117339350D01*
X149659062Y-117424268D01*
X149604547Y-117531259D01*
X149604546Y-117531264D01*
X149585760Y-117649874D01*
X149604546Y-117768483D01*
X149604547Y-117768488D01*
X149659062Y-117875479D01*
X149743980Y-117960397D01*
X149850971Y-118014912D01*
X149850974Y-118014912D01*
X149850977Y-118014914D01*
X149969586Y-118033700D01*
X150088195Y-118014914D01*
X150088195Y-118014913D01*
X150089110Y-118014769D01*
X150144182Y-118027991D01*
X150173775Y-118076282D01*
X150174686Y-118087858D01*
X150174686Y-125112109D01*
X150153012Y-125164435D01*
X150100686Y-125186109D01*
X150074077Y-125179721D01*
X150073838Y-125180459D01*
X150068297Y-125178659D01*
X149949688Y-125159873D01*
X149831078Y-125178659D01*
X149831073Y-125178660D01*
X149724082Y-125233175D01*
X149639164Y-125318093D01*
X149584649Y-125425084D01*
X149584648Y-125425089D01*
X149565862Y-125543699D01*
X149584648Y-125662308D01*
X149584649Y-125662313D01*
X149639164Y-125769304D01*
X149724082Y-125854222D01*
X149831073Y-125908737D01*
X149831076Y-125908737D01*
X149831079Y-125908739D01*
X149949688Y-125927525D01*
X150068297Y-125908739D01*
X150068298Y-125908738D01*
X150073833Y-125906940D01*
X150074429Y-125908776D01*
X150123545Y-125904906D01*
X150166617Y-125941684D01*
X150174686Y-125975287D01*
X150174686Y-139025756D01*
X150153012Y-139078082D01*
X149490546Y-139740547D01*
X149438220Y-139762221D01*
X149408121Y-139755823D01*
X149306500Y-139710578D01*
X149306498Y-139710577D01*
X149172841Y-139682168D01*
X149136764Y-139674500D01*
X148963236Y-139674500D01*
X148933483Y-139680824D01*
X148793501Y-139710577D01*
X148793499Y-139710578D01*
X148634978Y-139781156D01*
X148634973Y-139781159D01*
X148494592Y-139883152D01*
X148378478Y-140012109D01*
X148378475Y-140012114D01*
X148291716Y-140162384D01*
X148291711Y-140162394D01*
X148238093Y-140327418D01*
X148219953Y-140500000D01*
X148238093Y-140672581D01*
X148291711Y-140837605D01*
X148291716Y-140837615D01*
X148378475Y-140987885D01*
X148378478Y-140987890D01*
X148494592Y-141116847D01*
X148634969Y-141218838D01*
X148634976Y-141218842D01*
X148793501Y-141289422D01*
X148963236Y-141325500D01*
X148963237Y-141325500D01*
X149136763Y-141325500D01*
X149136764Y-141325500D01*
X149306499Y-141289422D01*
X149465024Y-141218842D01*
X149504971Y-141189819D01*
X149605407Y-141116847D01*
X149605406Y-141116847D01*
X149605410Y-141116845D01*
X149721522Y-140987889D01*
X149808286Y-140837611D01*
X149861908Y-140672576D01*
X149880047Y-140500000D01*
X149861908Y-140327424D01*
X149808286Y-140162389D01*
X149799425Y-140147042D01*
X149792033Y-140090891D01*
X149811184Y-140057719D01*
X150591356Y-139277550D01*
X150625686Y-139194669D01*
X150625686Y-139104960D01*
X150625686Y-116798570D01*
X150591356Y-116715689D01*
X150527922Y-116652255D01*
X150527921Y-116652254D01*
X146325667Y-112450000D01*
X146913974Y-112450000D01*
X146932760Y-112568609D01*
X146932761Y-112568614D01*
X146987276Y-112675605D01*
X147072194Y-112760523D01*
X147179185Y-112815038D01*
X147179188Y-112815038D01*
X147179191Y-112815040D01*
X147297800Y-112833826D01*
X147416409Y-112815040D01*
X147416412Y-112815038D01*
X147416414Y-112815038D01*
X147523405Y-112760523D01*
X147523404Y-112760523D01*
X147523407Y-112760522D01*
X147595474Y-112688455D01*
X147647800Y-112666781D01*
X147700126Y-112688455D01*
X147772194Y-112760523D01*
X147879185Y-112815038D01*
X147879188Y-112815038D01*
X147879191Y-112815040D01*
X147997800Y-112833826D01*
X148116409Y-112815040D01*
X148116412Y-112815038D01*
X148116414Y-112815038D01*
X148223405Y-112760523D01*
X148223404Y-112760523D01*
X148223407Y-112760522D01*
X148308322Y-112675607D01*
X148334417Y-112624393D01*
X148362838Y-112568614D01*
X148362838Y-112568612D01*
X148362840Y-112568609D01*
X148381626Y-112450000D01*
X148362840Y-112331391D01*
X148362838Y-112331388D01*
X148362838Y-112331385D01*
X148308323Y-112224394D01*
X148223405Y-112139476D01*
X148116414Y-112084961D01*
X148116409Y-112084960D01*
X147997800Y-112066174D01*
X147879190Y-112084960D01*
X147879185Y-112084961D01*
X147772194Y-112139476D01*
X147700126Y-112211545D01*
X147647800Y-112233219D01*
X147595474Y-112211545D01*
X147523405Y-112139476D01*
X147416414Y-112084961D01*
X147416409Y-112084960D01*
X147297800Y-112066174D01*
X147179190Y-112084960D01*
X147179185Y-112084961D01*
X147072194Y-112139476D01*
X146987276Y-112224394D01*
X146932761Y-112331385D01*
X146932760Y-112331390D01*
X146913974Y-112450000D01*
X146325667Y-112450000D01*
X139047174Y-105171507D01*
X139025500Y-105119181D01*
X139025500Y-103050000D01*
X139916174Y-103050000D01*
X139934960Y-103168609D01*
X139934961Y-103168614D01*
X139989476Y-103275605D01*
X140074394Y-103360523D01*
X140181385Y-103415038D01*
X140181388Y-103415038D01*
X140181391Y-103415040D01*
X140300000Y-103433826D01*
X140418609Y-103415040D01*
X140418612Y-103415038D01*
X140418614Y-103415038D01*
X140525605Y-103360523D01*
X140525604Y-103360523D01*
X140525607Y-103360522D01*
X140610522Y-103275607D01*
X140612355Y-103272008D01*
X140665038Y-103168614D01*
X140665038Y-103168612D01*
X140665040Y-103168609D01*
X140683826Y-103050000D01*
X140665040Y-102931391D01*
X140665038Y-102931388D01*
X140665038Y-102931385D01*
X140610523Y-102824394D01*
X140525605Y-102739476D01*
X140418614Y-102684961D01*
X140418609Y-102684960D01*
X140300000Y-102666174D01*
X140181390Y-102684960D01*
X140181385Y-102684961D01*
X140074394Y-102739476D01*
X139989476Y-102824394D01*
X139934961Y-102931385D01*
X139934960Y-102931390D01*
X139916174Y-103050000D01*
X139025500Y-103050000D01*
X139025500Y-91345695D01*
X139047173Y-91293370D01*
X139698174Y-90642368D01*
X139750500Y-90620695D01*
X139802826Y-90642369D01*
X139824500Y-90694695D01*
X139824500Y-97140212D01*
X139824499Y-97140226D01*
X139824499Y-97235894D01*
X139844354Y-97283827D01*
X139858828Y-97318772D01*
X139858831Y-97318776D01*
X139932671Y-97392616D01*
X139932673Y-97392617D01*
X140138270Y-97598214D01*
X140159944Y-97650540D01*
X140138270Y-97702866D01*
X140119539Y-97716474D01*
X140074394Y-97739476D01*
X139989476Y-97824394D01*
X139934961Y-97931385D01*
X139934960Y-97931390D01*
X139916174Y-98050000D01*
X139934960Y-98168609D01*
X139934961Y-98168614D01*
X139989476Y-98275605D01*
X140074394Y-98360523D01*
X140181385Y-98415038D01*
X140181388Y-98415038D01*
X140181391Y-98415040D01*
X140300000Y-98433826D01*
X140418609Y-98415040D01*
X140418612Y-98415038D01*
X140418614Y-98415038D01*
X140525605Y-98360523D01*
X140525604Y-98360523D01*
X140525607Y-98360522D01*
X140610522Y-98275607D01*
X140633525Y-98230459D01*
X140676590Y-98193677D01*
X140733053Y-98198120D01*
X140751785Y-98211729D01*
X152353012Y-109812956D01*
X152374686Y-109865282D01*
X152374686Y-117111889D01*
X152353012Y-117164215D01*
X152300686Y-117185889D01*
X152289110Y-117184978D01*
X152169586Y-117166048D01*
X152050976Y-117184834D01*
X152050971Y-117184835D01*
X151943980Y-117239350D01*
X151859062Y-117324268D01*
X151804547Y-117431259D01*
X151804546Y-117431264D01*
X151785760Y-117549874D01*
X151804546Y-117668483D01*
X151804547Y-117668488D01*
X151859062Y-117775479D01*
X151943980Y-117860397D01*
X152050971Y-117914912D01*
X152050974Y-117914912D01*
X152050977Y-117914914D01*
X152169586Y-117933700D01*
X152288195Y-117914914D01*
X152288195Y-117914913D01*
X152289110Y-117914769D01*
X152344182Y-117927991D01*
X152373775Y-117976282D01*
X152374686Y-117987858D01*
X152374686Y-125221620D01*
X152353012Y-125273946D01*
X152300686Y-125295620D01*
X152267096Y-125287557D01*
X152262001Y-125284961D01*
X152261996Y-125284960D01*
X152143387Y-125266174D01*
X152024777Y-125284960D01*
X152024772Y-125284961D01*
X151917781Y-125339476D01*
X151832863Y-125424394D01*
X151778348Y-125531385D01*
X151778347Y-125531390D01*
X151759561Y-125650000D01*
X151778347Y-125768609D01*
X151778348Y-125768614D01*
X151832863Y-125875605D01*
X151917781Y-125960523D01*
X152024772Y-126015038D01*
X152024775Y-126015038D01*
X152024778Y-126015040D01*
X152143387Y-126033826D01*
X152261996Y-126015040D01*
X152261998Y-126015039D01*
X152267090Y-126012445D01*
X152323553Y-126008001D01*
X152366620Y-126044783D01*
X152374686Y-126078379D01*
X152374686Y-138825756D01*
X152353012Y-138878082D01*
X151490546Y-139740547D01*
X151438220Y-139762221D01*
X151408121Y-139755823D01*
X151306500Y-139710578D01*
X151306498Y-139710577D01*
X151172841Y-139682168D01*
X151136764Y-139674500D01*
X150963236Y-139674500D01*
X150933483Y-139680824D01*
X150793501Y-139710577D01*
X150793499Y-139710578D01*
X150634978Y-139781156D01*
X150634973Y-139781159D01*
X150494592Y-139883152D01*
X150378478Y-140012109D01*
X150378475Y-140012114D01*
X150291716Y-140162384D01*
X150291711Y-140162394D01*
X150238093Y-140327418D01*
X150219953Y-140500000D01*
X150238093Y-140672581D01*
X150291711Y-140837605D01*
X150291716Y-140837615D01*
X150378475Y-140987885D01*
X150378478Y-140987890D01*
X150494592Y-141116847D01*
X150634969Y-141218838D01*
X150634976Y-141218842D01*
X150793501Y-141289422D01*
X150963236Y-141325500D01*
X150963237Y-141325500D01*
X151136763Y-141325500D01*
X151136764Y-141325500D01*
X151306499Y-141289422D01*
X151465024Y-141218842D01*
X151504971Y-141189819D01*
X151605407Y-141116847D01*
X151605406Y-141116847D01*
X151605410Y-141116845D01*
X151721522Y-140987889D01*
X151808286Y-140837611D01*
X151861908Y-140672576D01*
X151880047Y-140500000D01*
X151861908Y-140327424D01*
X151808286Y-140162389D01*
X151799425Y-140147042D01*
X151792033Y-140090891D01*
X151811184Y-140057719D01*
X152717513Y-139151391D01*
X152717516Y-139151389D01*
X152727921Y-139140984D01*
X152727922Y-139140984D01*
X152791356Y-139077550D01*
X152801411Y-139053274D01*
X152825687Y-138994669D01*
X152825687Y-138904959D01*
X152825687Y-138899001D01*
X152825686Y-138898987D01*
X152825686Y-124400000D01*
X153335634Y-124400000D01*
X153354420Y-124518609D01*
X153354421Y-124518614D01*
X153408936Y-124625605D01*
X153493854Y-124710523D01*
X153600845Y-124765038D01*
X153600848Y-124765038D01*
X153600851Y-124765040D01*
X153719460Y-124783826D01*
X153838069Y-124765040D01*
X153838072Y-124765038D01*
X153838074Y-124765038D01*
X153945065Y-124710523D01*
X153945064Y-124710523D01*
X153945067Y-124710522D01*
X154029982Y-124625607D01*
X154031815Y-124622008D01*
X154084498Y-124518614D01*
X154084498Y-124518612D01*
X154084500Y-124518609D01*
X154103286Y-124400000D01*
X154084500Y-124281391D01*
X154084498Y-124281388D01*
X154084498Y-124281385D01*
X154029983Y-124174394D01*
X153945065Y-124089476D01*
X153838074Y-124034961D01*
X153838069Y-124034960D01*
X153719460Y-124016174D01*
X153600850Y-124034960D01*
X153600845Y-124034961D01*
X153493854Y-124089476D01*
X153408936Y-124174394D01*
X153354421Y-124281385D01*
X153354420Y-124281390D01*
X153335634Y-124400000D01*
X152825686Y-124400000D01*
X152825686Y-118800000D01*
X153135634Y-118800000D01*
X153154420Y-118918609D01*
X153154421Y-118918614D01*
X153208936Y-119025605D01*
X153293854Y-119110523D01*
X153400845Y-119165038D01*
X153400848Y-119165038D01*
X153400851Y-119165040D01*
X153519460Y-119183826D01*
X153638069Y-119165040D01*
X153638072Y-119165038D01*
X153638074Y-119165038D01*
X153745065Y-119110523D01*
X153745064Y-119110523D01*
X153745067Y-119110522D01*
X153829982Y-119025607D01*
X153831815Y-119022008D01*
X153884498Y-118918614D01*
X153884498Y-118918612D01*
X153884500Y-118918609D01*
X153903286Y-118800000D01*
X153884500Y-118681391D01*
X153884498Y-118681388D01*
X153884498Y-118681385D01*
X153829983Y-118574394D01*
X153745065Y-118489476D01*
X153638074Y-118434961D01*
X153638069Y-118434960D01*
X153519460Y-118416174D01*
X153400850Y-118434960D01*
X153400845Y-118434961D01*
X153293854Y-118489476D01*
X153208936Y-118574394D01*
X153154421Y-118681385D01*
X153154420Y-118681390D01*
X153135634Y-118800000D01*
X152825686Y-118800000D01*
X152825686Y-109696370D01*
X152825685Y-109696368D01*
X152791357Y-109613491D01*
X152791355Y-109613488D01*
X152723707Y-109545840D01*
X152723700Y-109545834D01*
X140297174Y-97119308D01*
X140275500Y-97066982D01*
X140275500Y-90704656D01*
X140297173Y-90652331D01*
X140624173Y-90325331D01*
X140676498Y-90303658D01*
X140728824Y-90325332D01*
X140750498Y-90377658D01*
X140744865Y-90405977D01*
X140724499Y-90455144D01*
X140724499Y-90553466D01*
X140724500Y-90553475D01*
X140724500Y-96249173D01*
X140724499Y-96249187D01*
X140724499Y-96344856D01*
X140748773Y-96403458D01*
X140758829Y-96427734D01*
X140758832Y-96427738D01*
X140832671Y-96501577D01*
X140832673Y-96501578D01*
X154781226Y-110450131D01*
X154802900Y-110502457D01*
X154802900Y-112412015D01*
X154781226Y-112464341D01*
X154728900Y-112486015D01*
X154717324Y-112485104D01*
X154597800Y-112466174D01*
X154479190Y-112484960D01*
X154479185Y-112484961D01*
X154372194Y-112539476D01*
X154287276Y-112624394D01*
X154232761Y-112731385D01*
X154232760Y-112731390D01*
X154213974Y-112850000D01*
X154232760Y-112968609D01*
X154232761Y-112968614D01*
X154287276Y-113075605D01*
X154372194Y-113160523D01*
X154479185Y-113215038D01*
X154479188Y-113215038D01*
X154479191Y-113215040D01*
X154597800Y-113233826D01*
X154716409Y-113215040D01*
X154716409Y-113215039D01*
X154717324Y-113214895D01*
X154772396Y-113228117D01*
X154801989Y-113276408D01*
X154802900Y-113287984D01*
X154802900Y-138397542D01*
X154781226Y-138449868D01*
X153490546Y-139740547D01*
X153438220Y-139762221D01*
X153408121Y-139755823D01*
X153306500Y-139710578D01*
X153306498Y-139710577D01*
X153172841Y-139682168D01*
X153136764Y-139674500D01*
X152963236Y-139674500D01*
X152933483Y-139680824D01*
X152793501Y-139710577D01*
X152793499Y-139710578D01*
X152634978Y-139781156D01*
X152634973Y-139781159D01*
X152494592Y-139883152D01*
X152378478Y-140012109D01*
X152378475Y-140012114D01*
X152291716Y-140162384D01*
X152291711Y-140162394D01*
X152238093Y-140327418D01*
X152219953Y-140500000D01*
X152238093Y-140672581D01*
X152291711Y-140837605D01*
X152291716Y-140837615D01*
X152378475Y-140987885D01*
X152378478Y-140987890D01*
X152494592Y-141116847D01*
X152634969Y-141218838D01*
X152634976Y-141218842D01*
X152793501Y-141289422D01*
X152963236Y-141325500D01*
X152963237Y-141325500D01*
X153136763Y-141325500D01*
X153136764Y-141325500D01*
X153306499Y-141289422D01*
X153465024Y-141218842D01*
X153504971Y-141189819D01*
X153605407Y-141116847D01*
X153605406Y-141116847D01*
X153605410Y-141116845D01*
X153721522Y-140987889D01*
X153808286Y-140837611D01*
X153861908Y-140672576D01*
X153880047Y-140500000D01*
X153861908Y-140327424D01*
X153808286Y-140162389D01*
X153799425Y-140147042D01*
X153792033Y-140090891D01*
X153811184Y-140057719D01*
X155145727Y-138723177D01*
X155145730Y-138723175D01*
X155156135Y-138712770D01*
X155156136Y-138712770D01*
X155219570Y-138649336D01*
X155229625Y-138625060D01*
X155253901Y-138566455D01*
X155253901Y-138476745D01*
X155253901Y-138470787D01*
X155253900Y-138470773D01*
X155253900Y-110333545D01*
X155253899Y-110333543D01*
X155219571Y-110250666D01*
X155219569Y-110250663D01*
X155151921Y-110183015D01*
X155151914Y-110183009D01*
X148018905Y-103050000D01*
X150416174Y-103050000D01*
X150434960Y-103168609D01*
X150434961Y-103168614D01*
X150489476Y-103275605D01*
X150574394Y-103360523D01*
X150681385Y-103415038D01*
X150681388Y-103415038D01*
X150681391Y-103415040D01*
X150800000Y-103433826D01*
X150918609Y-103415040D01*
X150918612Y-103415038D01*
X150918614Y-103415038D01*
X151025605Y-103360523D01*
X151025604Y-103360523D01*
X151025607Y-103360522D01*
X151110522Y-103275607D01*
X151112355Y-103272008D01*
X151165038Y-103168614D01*
X151165038Y-103168612D01*
X151165040Y-103168609D01*
X151183826Y-103050000D01*
X151165040Y-102931391D01*
X151165038Y-102931388D01*
X151165038Y-102931385D01*
X151110523Y-102824394D01*
X151025605Y-102739476D01*
X150918614Y-102684961D01*
X150918609Y-102684960D01*
X150800000Y-102666174D01*
X150681390Y-102684960D01*
X150681385Y-102684961D01*
X150574394Y-102739476D01*
X150489476Y-102824394D01*
X150434961Y-102931385D01*
X150434960Y-102931390D01*
X150416174Y-103050000D01*
X148018905Y-103050000D01*
X141197174Y-96228269D01*
X141175500Y-96175943D01*
X141175500Y-90624056D01*
X141197173Y-90571731D01*
X142424131Y-89344772D01*
X142476456Y-89323099D01*
X142488023Y-89324009D01*
X142550000Y-89333826D01*
X142565422Y-89331383D01*
X142620495Y-89344604D01*
X142650088Y-89392895D01*
X142636867Y-89447968D01*
X142629325Y-89456798D01*
X141822265Y-90263859D01*
X141758829Y-90327295D01*
X141751556Y-90344855D01*
X141724499Y-90410175D01*
X141724499Y-90508496D01*
X141724500Y-90508505D01*
X141724500Y-92840212D01*
X141724499Y-92840226D01*
X141724499Y-92935894D01*
X141746695Y-92989478D01*
X141746695Y-92989479D01*
X141758828Y-93018772D01*
X141758831Y-93018776D01*
X141832671Y-93092616D01*
X141832673Y-93092617D01*
X142688270Y-93948214D01*
X142709944Y-94000540D01*
X142688270Y-94052866D01*
X142669539Y-94066474D01*
X142624394Y-94089476D01*
X142539476Y-94174394D01*
X142484961Y-94281385D01*
X142484960Y-94281390D01*
X142466174Y-94400000D01*
X142484960Y-94518609D01*
X142484961Y-94518614D01*
X142539476Y-94625605D01*
X142624394Y-94710523D01*
X142731385Y-94765038D01*
X142731388Y-94765038D01*
X142731391Y-94765040D01*
X142850000Y-94783826D01*
X142968609Y-94765040D01*
X142968612Y-94765038D01*
X142968614Y-94765038D01*
X143075605Y-94710523D01*
X143075604Y-94710523D01*
X143075607Y-94710522D01*
X143160522Y-94625607D01*
X143183525Y-94580459D01*
X143226590Y-94543677D01*
X143283053Y-94548120D01*
X143301785Y-94561729D01*
X154752826Y-106012770D01*
X154774500Y-106065096D01*
X154774500Y-107149173D01*
X154774499Y-107149187D01*
X154774499Y-107244856D01*
X154798773Y-107303458D01*
X154808829Y-107327734D01*
X154808832Y-107327738D01*
X154882671Y-107401577D01*
X154882673Y-107401578D01*
X156052826Y-108571731D01*
X156074500Y-108624057D01*
X156074500Y-139125942D01*
X156052826Y-139178268D01*
X155490546Y-139740547D01*
X155438220Y-139762221D01*
X155408121Y-139755823D01*
X155306500Y-139710578D01*
X155306498Y-139710577D01*
X155172841Y-139682168D01*
X155136764Y-139674500D01*
X154963236Y-139674500D01*
X154933483Y-139680824D01*
X154793501Y-139710577D01*
X154793499Y-139710578D01*
X154634978Y-139781156D01*
X154634973Y-139781159D01*
X154494592Y-139883152D01*
X154378478Y-140012109D01*
X154378475Y-140012114D01*
X154291716Y-140162384D01*
X154291711Y-140162394D01*
X154238093Y-140327418D01*
X154219953Y-140500000D01*
X154238093Y-140672581D01*
X154291711Y-140837605D01*
X154291716Y-140837615D01*
X154378475Y-140987885D01*
X154378478Y-140987890D01*
X154494592Y-141116847D01*
X154634969Y-141218838D01*
X154634976Y-141218842D01*
X154793501Y-141289422D01*
X154963236Y-141325500D01*
X154963237Y-141325500D01*
X155136763Y-141325500D01*
X155136764Y-141325500D01*
X155306499Y-141289422D01*
X155465024Y-141218842D01*
X155504971Y-141189819D01*
X155605407Y-141116847D01*
X155605406Y-141116847D01*
X155605410Y-141116845D01*
X155721522Y-140987889D01*
X155808286Y-140837611D01*
X155861908Y-140672576D01*
X155880047Y-140500000D01*
X155861908Y-140327424D01*
X155808286Y-140162389D01*
X155799425Y-140147042D01*
X155792033Y-140090891D01*
X155811184Y-140057719D01*
X156417327Y-139451577D01*
X156417330Y-139451575D01*
X156427735Y-139441170D01*
X156427736Y-139441170D01*
X156491170Y-139377736D01*
X156506393Y-139340984D01*
X156525501Y-139294855D01*
X156525501Y-139205145D01*
X156525501Y-139199187D01*
X156525500Y-139199173D01*
X156525500Y-108553475D01*
X156525501Y-108553466D01*
X156525501Y-108455146D01*
X156491170Y-108372265D01*
X156491169Y-108372263D01*
X156423521Y-108304615D01*
X156423514Y-108304609D01*
X155368905Y-107250000D01*
X155866174Y-107250000D01*
X155884960Y-107368609D01*
X155884961Y-107368614D01*
X155939476Y-107475605D01*
X156024394Y-107560523D01*
X156131385Y-107615038D01*
X156131388Y-107615038D01*
X156131391Y-107615040D01*
X156250000Y-107633826D01*
X156368609Y-107615040D01*
X156368612Y-107615038D01*
X156368614Y-107615038D01*
X156475605Y-107560523D01*
X156475604Y-107560523D01*
X156475607Y-107560522D01*
X156560522Y-107475607D01*
X156562355Y-107472008D01*
X156615038Y-107368614D01*
X156615038Y-107368612D01*
X156615040Y-107368609D01*
X156633826Y-107250000D01*
X156615040Y-107131391D01*
X156615038Y-107131388D01*
X156615038Y-107131385D01*
X156560523Y-107024394D01*
X156475605Y-106939476D01*
X156368614Y-106884961D01*
X156368609Y-106884960D01*
X156250000Y-106866174D01*
X156131390Y-106884960D01*
X156131385Y-106884961D01*
X156024394Y-106939476D01*
X155939476Y-107024394D01*
X155884961Y-107131385D01*
X155884960Y-107131390D01*
X155866174Y-107250000D01*
X155368905Y-107250000D01*
X155247174Y-107128269D01*
X155225500Y-107075943D01*
X155225500Y-105994514D01*
X155225501Y-105994505D01*
X155225501Y-105896183D01*
X155191170Y-105813304D01*
X155191169Y-105813302D01*
X155123521Y-105745654D01*
X155123514Y-105745648D01*
X142197174Y-92819308D01*
X142175500Y-92766982D01*
X142175500Y-90579086D01*
X142197173Y-90526761D01*
X142900719Y-89823214D01*
X142953044Y-89801541D01*
X143005370Y-89823215D01*
X143027044Y-89875541D01*
X143026133Y-89887116D01*
X143016174Y-89949998D01*
X143016174Y-89950004D01*
X143019151Y-89968805D01*
X143005928Y-90023876D01*
X142998388Y-90032704D01*
X142722265Y-90308829D01*
X142658830Y-90372263D01*
X142651720Y-90389430D01*
X142624499Y-90455144D01*
X142624499Y-90553466D01*
X142624500Y-90553475D01*
X142624500Y-92099173D01*
X142624499Y-92099187D01*
X142624499Y-92194855D01*
X142640640Y-92233824D01*
X142640642Y-92233826D01*
X142658829Y-92277735D01*
X142732671Y-92351577D01*
X142732673Y-92351578D01*
X150554609Y-100173514D01*
X150554612Y-100173518D01*
X150622263Y-100241169D01*
X150622266Y-100241171D01*
X150694020Y-100270892D01*
X150718028Y-100286933D01*
X158052826Y-107621731D01*
X158074500Y-107674057D01*
X158074500Y-139125942D01*
X158052826Y-139178268D01*
X157490546Y-139740547D01*
X157438220Y-139762221D01*
X157408121Y-139755823D01*
X157306500Y-139710578D01*
X157306498Y-139710577D01*
X157172841Y-139682168D01*
X157136764Y-139674500D01*
X156963236Y-139674500D01*
X156933483Y-139680824D01*
X156793501Y-139710577D01*
X156793499Y-139710578D01*
X156634978Y-139781156D01*
X156634973Y-139781159D01*
X156494592Y-139883152D01*
X156378478Y-140012109D01*
X156378475Y-140012114D01*
X156291716Y-140162384D01*
X156291711Y-140162394D01*
X156238093Y-140327418D01*
X156219953Y-140500000D01*
X156238093Y-140672581D01*
X156291711Y-140837605D01*
X156291716Y-140837615D01*
X156378475Y-140987885D01*
X156378478Y-140987890D01*
X156494592Y-141116847D01*
X156634969Y-141218838D01*
X156634976Y-141218842D01*
X156793501Y-141289422D01*
X156963236Y-141325500D01*
X156963237Y-141325500D01*
X157136763Y-141325500D01*
X157136764Y-141325500D01*
X157306499Y-141289422D01*
X157465024Y-141218842D01*
X157504971Y-141189819D01*
X157605407Y-141116847D01*
X157605406Y-141116847D01*
X157605410Y-141116845D01*
X157721522Y-140987889D01*
X157808286Y-140837611D01*
X157861908Y-140672576D01*
X157880047Y-140500000D01*
X157861908Y-140327424D01*
X157808286Y-140162389D01*
X157799425Y-140147042D01*
X157792033Y-140090891D01*
X157811184Y-140057719D01*
X158417327Y-139451577D01*
X158417330Y-139451575D01*
X158427735Y-139441170D01*
X158427736Y-139441170D01*
X158491170Y-139377736D01*
X158506393Y-139340984D01*
X158525501Y-139294855D01*
X158525501Y-139205145D01*
X158525501Y-139199187D01*
X158525500Y-139199173D01*
X158525500Y-138483716D01*
X159522500Y-138483716D01*
X159522500Y-138716283D01*
X159558880Y-138945979D01*
X159558883Y-138945992D01*
X159630745Y-139167160D01*
X159630747Y-139167164D01*
X159736327Y-139374378D01*
X159784854Y-139441170D01*
X159873026Y-139562527D01*
X160037473Y-139726974D01*
X160037476Y-139726976D01*
X160037477Y-139726977D01*
X160225621Y-139863672D01*
X160432835Y-139969252D01*
X160432839Y-139969254D01*
X160654007Y-140041116D01*
X160654013Y-140041117D01*
X160654018Y-140041119D01*
X160768868Y-140059309D01*
X160883716Y-140077500D01*
X160883718Y-140077500D01*
X161116284Y-140077500D01*
X161208162Y-140062947D01*
X161345982Y-140041119D01*
X161345989Y-140041116D01*
X161345992Y-140041116D01*
X161567160Y-139969254D01*
X161567160Y-139969253D01*
X161567163Y-139969253D01*
X161774379Y-139863672D01*
X161962527Y-139726974D01*
X162126974Y-139562527D01*
X162263672Y-139374379D01*
X162369253Y-139167163D01*
X162398370Y-139077550D01*
X162441116Y-138945992D01*
X162441116Y-138945989D01*
X162441119Y-138945982D01*
X162477500Y-138716282D01*
X162477500Y-138483718D01*
X162441119Y-138254018D01*
X162441117Y-138254013D01*
X162441116Y-138254007D01*
X162369254Y-138032839D01*
X162369252Y-138032835D01*
X162263672Y-137825621D01*
X162126977Y-137637477D01*
X162126976Y-137637476D01*
X162126974Y-137637473D01*
X161962527Y-137473026D01*
X161962524Y-137473023D01*
X161962522Y-137473022D01*
X161774378Y-137336327D01*
X161567164Y-137230747D01*
X161567160Y-137230745D01*
X161345992Y-137158883D01*
X161345979Y-137158880D01*
X161116284Y-137122500D01*
X161116282Y-137122500D01*
X160883718Y-137122500D01*
X160883716Y-137122500D01*
X160654020Y-137158880D01*
X160654007Y-137158883D01*
X160432839Y-137230745D01*
X160432835Y-137230747D01*
X160225621Y-137336327D01*
X160037477Y-137473022D01*
X159873022Y-137637477D01*
X159736327Y-137825621D01*
X159630747Y-138032835D01*
X159630745Y-138032839D01*
X159558883Y-138254007D01*
X159558880Y-138254020D01*
X159522500Y-138483716D01*
X158525500Y-138483716D01*
X158525500Y-121700000D01*
X161494659Y-121700000D01*
X161513976Y-121896133D01*
X161571187Y-122084731D01*
X161658776Y-122248597D01*
X161664090Y-122258538D01*
X161789117Y-122410883D01*
X161941462Y-122535910D01*
X162018426Y-122577048D01*
X162115268Y-122628812D01*
X162115270Y-122628812D01*
X162115273Y-122628814D01*
X162303868Y-122686024D01*
X162500000Y-122705341D01*
X162696132Y-122686024D01*
X162884727Y-122628814D01*
X163058538Y-122535910D01*
X163210883Y-122410883D01*
X163335910Y-122258538D01*
X163428814Y-122084727D01*
X163486024Y-121896132D01*
X163505341Y-121700000D01*
X163486024Y-121503868D01*
X163428814Y-121315273D01*
X163428812Y-121315270D01*
X163428812Y-121315268D01*
X163371653Y-121208332D01*
X163335910Y-121141462D01*
X163210883Y-120989117D01*
X163058538Y-120864090D01*
X163041803Y-120855145D01*
X162884731Y-120771187D01*
X162696133Y-120713976D01*
X162500000Y-120694659D01*
X162303866Y-120713976D01*
X162115268Y-120771187D01*
X161941463Y-120864089D01*
X161789117Y-120989117D01*
X161664089Y-121141463D01*
X161571187Y-121315268D01*
X161513976Y-121503866D01*
X161494659Y-121700000D01*
X158525500Y-121700000D01*
X158525500Y-118295180D01*
X161499500Y-118295180D01*
X161499500Y-120024820D01*
X161508233Y-120068722D01*
X161541496Y-120118504D01*
X161591278Y-120151767D01*
X161635180Y-120160500D01*
X161635181Y-120160500D01*
X163364819Y-120160500D01*
X163364820Y-120160500D01*
X163408722Y-120151767D01*
X163458504Y-120118504D01*
X163491767Y-120068722D01*
X163500500Y-120024820D01*
X163500500Y-118295180D01*
X163491767Y-118251278D01*
X163458504Y-118201496D01*
X163408722Y-118168233D01*
X163364820Y-118159500D01*
X161635180Y-118159500D01*
X161613229Y-118163866D01*
X161591277Y-118168233D01*
X161541496Y-118201495D01*
X161541495Y-118201496D01*
X161508233Y-118251277D01*
X161508233Y-118251278D01*
X161499500Y-118295180D01*
X158525500Y-118295180D01*
X158525500Y-111800000D01*
X158863974Y-111800000D01*
X158882760Y-111918609D01*
X158882761Y-111918614D01*
X158937276Y-112025605D01*
X159022194Y-112110523D01*
X159129185Y-112165038D01*
X159129188Y-112165038D01*
X159129191Y-112165040D01*
X159247800Y-112183826D01*
X159366409Y-112165040D01*
X159366412Y-112165038D01*
X159366414Y-112165038D01*
X159473405Y-112110523D01*
X159473404Y-112110523D01*
X159473407Y-112110522D01*
X159558322Y-112025607D01*
X159561888Y-112018609D01*
X159612838Y-111918614D01*
X159612838Y-111918612D01*
X159612840Y-111918609D01*
X159631626Y-111800000D01*
X159612840Y-111681391D01*
X159612838Y-111681388D01*
X159612838Y-111681385D01*
X159558323Y-111574394D01*
X159473405Y-111489476D01*
X159366414Y-111434961D01*
X159366409Y-111434960D01*
X159247800Y-111416174D01*
X159129190Y-111434960D01*
X159129185Y-111434961D01*
X159022194Y-111489476D01*
X158937276Y-111574394D01*
X158882761Y-111681385D01*
X158882760Y-111681390D01*
X158863974Y-111800000D01*
X158525500Y-111800000D01*
X158525500Y-110950000D01*
X159263974Y-110950000D01*
X159282760Y-111068609D01*
X159282761Y-111068614D01*
X159337276Y-111175605D01*
X159422194Y-111260523D01*
X159529185Y-111315038D01*
X159529188Y-111315038D01*
X159529191Y-111315040D01*
X159647800Y-111333826D01*
X159766409Y-111315040D01*
X159766412Y-111315038D01*
X159766414Y-111315038D01*
X159873405Y-111260523D01*
X159873404Y-111260523D01*
X159873407Y-111260522D01*
X159958322Y-111175607D01*
X159960155Y-111172008D01*
X160012838Y-111068614D01*
X160012838Y-111068612D01*
X160012840Y-111068609D01*
X160031626Y-110950000D01*
X160012840Y-110831391D01*
X160012838Y-110831388D01*
X160012838Y-110831385D01*
X159958323Y-110724394D01*
X159873405Y-110639476D01*
X159766414Y-110584961D01*
X159766409Y-110584960D01*
X159647800Y-110566174D01*
X159529190Y-110584960D01*
X159529185Y-110584961D01*
X159422194Y-110639476D01*
X159337276Y-110724394D01*
X159282761Y-110831385D01*
X159282760Y-110831390D01*
X159263974Y-110950000D01*
X158525500Y-110950000D01*
X158525500Y-109500000D01*
X160413974Y-109500000D01*
X160432760Y-109618609D01*
X160432761Y-109618614D01*
X160487276Y-109725605D01*
X160572194Y-109810523D01*
X160679185Y-109865038D01*
X160679188Y-109865038D01*
X160679191Y-109865040D01*
X160797800Y-109883826D01*
X160916409Y-109865040D01*
X160916412Y-109865038D01*
X160916414Y-109865038D01*
X161023405Y-109810523D01*
X161023404Y-109810523D01*
X161023407Y-109810522D01*
X161108322Y-109725607D01*
X161123220Y-109696368D01*
X161162838Y-109618614D01*
X161162838Y-109618612D01*
X161162840Y-109618609D01*
X161181626Y-109500000D01*
X161162840Y-109381391D01*
X161162838Y-109381388D01*
X161162838Y-109381385D01*
X161108323Y-109274394D01*
X161023405Y-109189476D01*
X160916414Y-109134961D01*
X160916409Y-109134960D01*
X160797800Y-109116174D01*
X160679190Y-109134960D01*
X160679185Y-109134961D01*
X160572194Y-109189476D01*
X160487276Y-109274394D01*
X160432761Y-109381385D01*
X160432760Y-109381390D01*
X160413974Y-109500000D01*
X158525500Y-109500000D01*
X158525500Y-107603475D01*
X158525501Y-107603466D01*
X158525501Y-107505146D01*
X158513265Y-107475607D01*
X158491170Y-107422265D01*
X158491170Y-107422264D01*
X158427736Y-107358830D01*
X158423521Y-107354615D01*
X158423514Y-107354609D01*
X158068905Y-107000000D01*
X159116174Y-107000000D01*
X159134960Y-107118609D01*
X159134961Y-107118614D01*
X159189476Y-107225605D01*
X159274394Y-107310523D01*
X159381385Y-107365038D01*
X159381388Y-107365038D01*
X159381391Y-107365040D01*
X159500000Y-107383826D01*
X159618609Y-107365040D01*
X159618612Y-107365038D01*
X159618614Y-107365038D01*
X159725605Y-107310523D01*
X159725604Y-107310523D01*
X159725607Y-107310522D01*
X159810522Y-107225607D01*
X159850990Y-107146184D01*
X159865038Y-107118614D01*
X159865038Y-107118612D01*
X159865040Y-107118609D01*
X159883826Y-107000000D01*
X159865040Y-106881391D01*
X159865038Y-106881388D01*
X159865038Y-106881385D01*
X159810523Y-106774394D01*
X159725605Y-106689476D01*
X159618614Y-106634961D01*
X159618609Y-106634960D01*
X159500000Y-106616174D01*
X159381390Y-106634960D01*
X159381385Y-106634961D01*
X159274394Y-106689476D01*
X159189476Y-106774394D01*
X159134961Y-106881385D01*
X159134960Y-106881390D01*
X159116174Y-107000000D01*
X158068905Y-107000000D01*
X155284085Y-104215180D01*
X160999500Y-104215180D01*
X160999500Y-105944820D01*
X161008233Y-105988722D01*
X161041496Y-106038504D01*
X161091278Y-106071767D01*
X161135180Y-106080500D01*
X161135181Y-106080500D01*
X162864819Y-106080500D01*
X162864820Y-106080500D01*
X162908722Y-106071767D01*
X162958504Y-106038504D01*
X162991767Y-105988722D01*
X163000500Y-105944820D01*
X163000500Y-104215180D01*
X162991767Y-104171278D01*
X162958504Y-104121496D01*
X162908722Y-104088233D01*
X162864820Y-104079500D01*
X161135180Y-104079500D01*
X161113229Y-104083866D01*
X161091277Y-104088233D01*
X161041496Y-104121495D01*
X161041495Y-104121496D01*
X161008233Y-104171277D01*
X161008233Y-104171278D01*
X160999500Y-104215180D01*
X155284085Y-104215180D01*
X153608905Y-102540000D01*
X160994659Y-102540000D01*
X161013976Y-102736133D01*
X161071187Y-102924731D01*
X161125255Y-103025883D01*
X161164090Y-103098538D01*
X161289117Y-103250883D01*
X161441462Y-103375910D01*
X161514665Y-103415038D01*
X161615268Y-103468812D01*
X161615270Y-103468812D01*
X161615273Y-103468814D01*
X161803868Y-103526024D01*
X162000000Y-103545341D01*
X162196132Y-103526024D01*
X162384727Y-103468814D01*
X162558538Y-103375910D01*
X162710883Y-103250883D01*
X162835910Y-103098538D01*
X162918187Y-102944608D01*
X162928812Y-102924731D01*
X162928812Y-102924730D01*
X162928814Y-102924727D01*
X162986024Y-102736132D01*
X163005341Y-102540000D01*
X162986024Y-102343868D01*
X162928814Y-102155273D01*
X162928812Y-102155270D01*
X162928812Y-102155268D01*
X162838279Y-101985895D01*
X162835910Y-101981462D01*
X162710883Y-101829117D01*
X162558538Y-101704090D01*
X162548597Y-101698776D01*
X162384731Y-101611187D01*
X162196133Y-101553976D01*
X162000000Y-101534659D01*
X161803866Y-101553976D01*
X161615268Y-101611187D01*
X161441463Y-101704089D01*
X161289117Y-101829117D01*
X161164089Y-101981463D01*
X161071187Y-102155268D01*
X161013976Y-102343866D01*
X160994659Y-102540000D01*
X153608905Y-102540000D01*
X151068905Y-100000000D01*
X160994659Y-100000000D01*
X161013976Y-100196133D01*
X161071187Y-100384731D01*
X161158776Y-100548597D01*
X161164090Y-100558538D01*
X161289117Y-100710883D01*
X161441462Y-100835910D01*
X161518426Y-100877048D01*
X161615268Y-100928812D01*
X161615270Y-100928812D01*
X161615273Y-100928814D01*
X161803868Y-100986024D01*
X162000000Y-101005341D01*
X162196132Y-100986024D01*
X162384727Y-100928814D01*
X162558538Y-100835910D01*
X162710883Y-100710883D01*
X162835910Y-100558538D01*
X162928814Y-100384727D01*
X162986024Y-100196132D01*
X163005341Y-100000000D01*
X162986024Y-99803868D01*
X162928814Y-99615273D01*
X162928812Y-99615270D01*
X162928812Y-99615268D01*
X162877048Y-99518426D01*
X162835910Y-99441462D01*
X162710883Y-99289117D01*
X162558538Y-99164090D01*
X162548597Y-99158776D01*
X162384731Y-99071187D01*
X162196133Y-99013976D01*
X162000000Y-98994659D01*
X161803866Y-99013976D01*
X161615268Y-99071187D01*
X161441463Y-99164089D01*
X161289117Y-99289117D01*
X161164089Y-99441463D01*
X161071187Y-99615268D01*
X161013976Y-99803866D01*
X160994659Y-100000000D01*
X151068905Y-100000000D01*
X151001578Y-99932673D01*
X151001578Y-99932672D01*
X150927738Y-99858832D01*
X150927736Y-99858830D01*
X150903460Y-99848774D01*
X150903458Y-99848773D01*
X150903458Y-99848772D01*
X150855978Y-99829106D01*
X150831970Y-99813065D01*
X149068905Y-98050000D01*
X150416174Y-98050000D01*
X150434960Y-98168609D01*
X150434961Y-98168614D01*
X150489476Y-98275605D01*
X150574394Y-98360523D01*
X150681385Y-98415038D01*
X150681388Y-98415038D01*
X150681391Y-98415040D01*
X150800000Y-98433826D01*
X150918609Y-98415040D01*
X150918612Y-98415038D01*
X150918614Y-98415038D01*
X151025605Y-98360523D01*
X151025604Y-98360523D01*
X151025607Y-98360522D01*
X151110522Y-98275607D01*
X151133525Y-98230461D01*
X151165038Y-98168614D01*
X151165038Y-98168612D01*
X151165040Y-98168609D01*
X151183826Y-98050000D01*
X151165040Y-97931391D01*
X151165038Y-97931388D01*
X151165038Y-97931385D01*
X151110523Y-97824394D01*
X151025605Y-97739476D01*
X150918614Y-97684961D01*
X150918609Y-97684960D01*
X150800000Y-97666174D01*
X150681390Y-97684960D01*
X150681385Y-97684961D01*
X150574394Y-97739476D01*
X150489476Y-97824394D01*
X150434961Y-97931385D01*
X150434960Y-97931390D01*
X150416174Y-98050000D01*
X149068905Y-98050000D01*
X146318905Y-95300000D01*
X150866174Y-95300000D01*
X150884960Y-95418609D01*
X150884961Y-95418614D01*
X150939476Y-95525605D01*
X151024394Y-95610523D01*
X151131385Y-95665038D01*
X151131388Y-95665038D01*
X151131391Y-95665040D01*
X151250000Y-95683826D01*
X151368609Y-95665040D01*
X151368612Y-95665038D01*
X151368614Y-95665038D01*
X151475605Y-95610523D01*
X151475604Y-95610523D01*
X151475607Y-95610522D01*
X151560522Y-95525607D01*
X151607287Y-95433826D01*
X151615038Y-95418614D01*
X151615038Y-95418612D01*
X151615040Y-95418609D01*
X151633826Y-95300000D01*
X151615040Y-95181391D01*
X151615038Y-95181388D01*
X151615038Y-95181385D01*
X151560523Y-95074394D01*
X151475605Y-94989476D01*
X151368614Y-94934961D01*
X151368609Y-94934960D01*
X151250000Y-94916174D01*
X151131390Y-94934960D01*
X151131385Y-94934961D01*
X151024394Y-94989476D01*
X150939476Y-95074394D01*
X150884961Y-95181385D01*
X150884960Y-95181390D01*
X150866174Y-95300000D01*
X146318905Y-95300000D01*
X143097174Y-92078269D01*
X143075500Y-92025943D01*
X143075500Y-91850000D01*
X144116174Y-91850000D01*
X144134960Y-91968609D01*
X144134961Y-91968614D01*
X144189476Y-92075605D01*
X144274394Y-92160523D01*
X144381385Y-92215038D01*
X144381388Y-92215038D01*
X144381391Y-92215040D01*
X144500000Y-92233826D01*
X144618609Y-92215040D01*
X144618612Y-92215038D01*
X144618614Y-92215038D01*
X144725605Y-92160523D01*
X144725604Y-92160523D01*
X144725607Y-92160522D01*
X144810522Y-92075607D01*
X144823991Y-92049173D01*
X144865038Y-91968614D01*
X144865038Y-91968612D01*
X144865040Y-91968609D01*
X144883826Y-91850000D01*
X144865040Y-91731391D01*
X144865038Y-91731388D01*
X144865038Y-91731385D01*
X144810523Y-91624394D01*
X144725605Y-91539476D01*
X144618614Y-91484961D01*
X144618609Y-91484960D01*
X144500000Y-91466174D01*
X144381390Y-91484960D01*
X144381385Y-91484961D01*
X144274394Y-91539476D01*
X144189476Y-91624394D01*
X144134961Y-91731385D01*
X144134960Y-91731390D01*
X144116174Y-91850000D01*
X143075500Y-91850000D01*
X143075500Y-91100000D01*
X143266174Y-91100000D01*
X143284960Y-91218609D01*
X143284961Y-91218614D01*
X143339476Y-91325605D01*
X143424394Y-91410523D01*
X143531385Y-91465038D01*
X143531388Y-91465038D01*
X143531391Y-91465040D01*
X143650000Y-91483826D01*
X143768609Y-91465040D01*
X143768612Y-91465038D01*
X143768614Y-91465038D01*
X143875605Y-91410523D01*
X143875604Y-91410523D01*
X143875607Y-91410522D01*
X143960522Y-91325607D01*
X143976948Y-91293369D01*
X144015038Y-91218614D01*
X144015038Y-91218612D01*
X144015040Y-91218609D01*
X144033826Y-91100000D01*
X144015040Y-90981391D01*
X144015038Y-90981388D01*
X144015038Y-90981385D01*
X143960523Y-90874394D01*
X143875605Y-90789476D01*
X143768614Y-90734961D01*
X143768609Y-90734960D01*
X143650000Y-90716174D01*
X143531390Y-90734960D01*
X143531385Y-90734961D01*
X143424394Y-90789476D01*
X143339476Y-90874394D01*
X143284961Y-90981385D01*
X143284960Y-90981390D01*
X143266174Y-91100000D01*
X143075500Y-91100000D01*
X143075500Y-90624057D01*
X143097174Y-90571731D01*
X143185888Y-90483017D01*
X143317295Y-90351609D01*
X143369620Y-90329936D01*
X143381186Y-90330846D01*
X143400000Y-90333826D01*
X143518609Y-90315040D01*
X143518612Y-90315038D01*
X143518614Y-90315038D01*
X143625605Y-90260523D01*
X143625604Y-90260523D01*
X143625607Y-90260522D01*
X143710522Y-90175607D01*
X143725127Y-90146943D01*
X143765038Y-90068614D01*
X143765038Y-90068612D01*
X143765040Y-90068609D01*
X143783826Y-89950000D01*
X143765040Y-89831391D01*
X143765038Y-89831388D01*
X143765038Y-89831385D01*
X143710523Y-89724394D01*
X143625605Y-89639476D01*
X143518614Y-89584961D01*
X143518610Y-89584960D01*
X143475255Y-89578093D01*
X143449811Y-89562500D01*
X146078674Y-89562500D01*
X146097460Y-89681109D01*
X146097461Y-89681114D01*
X146151976Y-89788105D01*
X146236894Y-89873023D01*
X146343885Y-89927538D01*
X146343888Y-89927538D01*
X146343891Y-89927540D01*
X146462500Y-89946326D01*
X146581109Y-89927540D01*
X146581112Y-89927538D01*
X146581114Y-89927538D01*
X146688105Y-89873023D01*
X146688104Y-89873023D01*
X146688107Y-89873022D01*
X146773022Y-89788107D01*
X146805426Y-89724510D01*
X146827538Y-89681114D01*
X146827538Y-89681112D01*
X146827540Y-89681109D01*
X146846326Y-89562500D01*
X146827540Y-89443891D01*
X146827538Y-89443888D01*
X146827538Y-89443885D01*
X146773023Y-89336894D01*
X146688105Y-89251976D01*
X146581114Y-89197461D01*
X146581109Y-89197460D01*
X146462500Y-89178674D01*
X146343890Y-89197460D01*
X146343885Y-89197461D01*
X146236894Y-89251976D01*
X146151976Y-89336894D01*
X146097461Y-89443885D01*
X146097460Y-89443890D01*
X146078674Y-89562500D01*
X143449811Y-89562500D01*
X143426964Y-89548499D01*
X143413743Y-89493427D01*
X143420898Y-89471408D01*
X143424667Y-89464012D01*
X143443453Y-89345403D01*
X143424667Y-89226794D01*
X143424665Y-89226791D01*
X143424665Y-89226788D01*
X143370150Y-89119797D01*
X143285232Y-89034879D01*
X143178241Y-88980364D01*
X143178236Y-88980363D01*
X143059627Y-88961577D01*
X143011782Y-88969155D01*
X142956710Y-88955933D01*
X142927117Y-88907642D01*
X142923698Y-88886054D01*
X142915040Y-88831391D01*
X142915038Y-88831388D01*
X142915038Y-88831385D01*
X142860523Y-88724394D01*
X142775607Y-88639478D01*
X142668609Y-88584960D01*
X142668607Y-88584959D01*
X142668606Y-88584959D01*
X142635138Y-88579658D01*
X142586848Y-88550064D01*
X142573627Y-88494993D01*
X142583826Y-88430600D01*
X142565040Y-88311991D01*
X142565038Y-88311988D01*
X142565038Y-88311985D01*
X142510523Y-88204994D01*
X142425606Y-88120077D01*
X142380459Y-88097073D01*
X142343677Y-88054006D01*
X142348121Y-87997543D01*
X142361726Y-87978816D01*
X142444130Y-87896412D01*
X142496455Y-87874739D01*
X142530050Y-87882805D01*
X142631386Y-87934438D01*
X142631388Y-87934438D01*
X142631391Y-87934440D01*
X142750000Y-87953226D01*
X142868609Y-87934440D01*
X142868612Y-87934438D01*
X142868614Y-87934438D01*
X142975605Y-87879923D01*
X142975604Y-87879923D01*
X142975607Y-87879922D01*
X143060522Y-87795007D01*
X143070408Y-87775605D01*
X143115038Y-87688014D01*
X143115038Y-87688012D01*
X143115040Y-87688009D01*
X143133826Y-87569400D01*
X143115040Y-87450791D01*
X143115038Y-87450788D01*
X143115038Y-87450785D01*
X143060523Y-87343794D01*
X142975605Y-87258876D01*
X142868614Y-87204361D01*
X142868609Y-87204360D01*
X142750000Y-87185574D01*
X142631390Y-87204360D01*
X142590909Y-87224986D01*
X142534446Y-87229429D01*
X142491379Y-87192646D01*
X142485552Y-87155824D01*
X142483826Y-87155824D01*
X142483826Y-87150000D01*
X142476881Y-87106154D01*
X142465040Y-87031391D01*
X142465038Y-87031388D01*
X142465038Y-87031385D01*
X142410523Y-86924394D01*
X142325605Y-86839476D01*
X142218614Y-86784961D01*
X142218609Y-86784960D01*
X142100000Y-86766174D01*
X141981390Y-86784960D01*
X141928299Y-86812011D01*
X141871836Y-86816454D01*
X141828769Y-86779671D01*
X141824326Y-86723208D01*
X141842377Y-86693751D01*
X141860522Y-86675607D01*
X141860524Y-86675604D01*
X141915038Y-86568614D01*
X141915038Y-86568612D01*
X141915040Y-86568609D01*
X141933826Y-86450000D01*
X141915040Y-86331391D01*
X141915038Y-86331388D01*
X141915038Y-86331385D01*
X141860523Y-86224394D01*
X141775605Y-86139476D01*
X141668614Y-86084961D01*
X141668609Y-86084960D01*
X141550000Y-86066174D01*
X141431382Y-86084961D01*
X141429182Y-86085676D01*
X141427638Y-86085554D01*
X141425639Y-86085871D01*
X141425562Y-86085390D01*
X141372720Y-86081225D01*
X141335944Y-86038152D01*
X141333237Y-86003716D01*
X141333826Y-86000000D01*
X141315040Y-85881391D01*
X141315038Y-85881388D01*
X141315038Y-85881385D01*
X141260523Y-85774394D01*
X141175605Y-85689476D01*
X141068614Y-85634961D01*
X141068609Y-85634960D01*
X140950000Y-85616174D01*
X140831386Y-85634960D01*
X140826263Y-85636625D01*
X140769801Y-85632177D01*
X140733022Y-85589106D01*
X140730313Y-85577821D01*
X140716129Y-85488269D01*
X140715040Y-85481391D01*
X140715038Y-85481388D01*
X140715038Y-85481385D01*
X140660523Y-85374394D01*
X140575605Y-85289476D01*
X140468614Y-85234961D01*
X140468609Y-85234960D01*
X140350000Y-85216174D01*
X140231390Y-85234960D01*
X140231384Y-85234961D01*
X140229651Y-85235845D01*
X140228352Y-85235947D01*
X140225850Y-85236760D01*
X140225654Y-85236159D01*
X140173188Y-85240283D01*
X140130125Y-85203495D01*
X140122974Y-85181483D01*
X140116705Y-85141905D01*
X140115040Y-85131391D01*
X140115038Y-85131388D01*
X140115038Y-85131385D01*
X140060523Y-85024394D01*
X139975605Y-84939476D01*
X139868614Y-84884961D01*
X139868609Y-84884960D01*
X139750000Y-84866174D01*
X139625639Y-84885871D01*
X139625377Y-84884217D01*
X139575593Y-84880296D01*
X139538813Y-84837227D01*
X139543261Y-84780764D01*
X139556867Y-84762038D01*
X139910077Y-84408828D01*
X140891170Y-83427736D01*
X140925500Y-83344855D01*
X140925500Y-83255146D01*
X140925500Y-82941281D01*
X140947174Y-82888955D01*
X140958303Y-82877826D01*
X141010522Y-82825607D01*
X141012355Y-82822008D01*
X141065038Y-82718614D01*
X141065038Y-82718612D01*
X141065040Y-82718609D01*
X141083826Y-82600000D01*
X141065040Y-82481391D01*
X141065038Y-82481388D01*
X141065038Y-82481385D01*
X141010523Y-82374394D01*
X140925605Y-82289476D01*
X140818614Y-82234961D01*
X140818609Y-82234960D01*
X140700000Y-82216174D01*
X140581390Y-82234960D01*
X140581385Y-82234961D01*
X140474394Y-82289476D01*
X140389476Y-82374394D01*
X140334961Y-82481385D01*
X140334960Y-82481390D01*
X140316174Y-82600000D01*
X140334960Y-82718609D01*
X140334961Y-82718614D01*
X140389476Y-82825605D01*
X140452826Y-82888955D01*
X140474500Y-82941281D01*
X140474500Y-83175942D01*
X140452826Y-83228268D01*
X139842984Y-83838109D01*
X139790658Y-83859783D01*
X139738332Y-83838109D01*
X139717569Y-83797359D01*
X139715040Y-83781391D01*
X139715038Y-83781388D01*
X139715038Y-83781385D01*
X139660523Y-83674394D01*
X139575605Y-83589476D01*
X139468614Y-83534961D01*
X139468609Y-83534960D01*
X139350000Y-83516174D01*
X139231390Y-83534960D01*
X139231385Y-83534961D01*
X139124394Y-83589476D01*
X139039476Y-83674394D01*
X138984961Y-83781385D01*
X138984960Y-83781390D01*
X138966174Y-83900000D01*
X138966174Y-83900004D01*
X138969151Y-83918805D01*
X138955928Y-83973876D01*
X138948388Y-83982704D01*
X138578269Y-84352826D01*
X138525943Y-84374500D01*
X137755145Y-84374500D01*
X137672266Y-84408828D01*
X137608829Y-84472265D01*
X134548483Y-87532610D01*
X134496157Y-87554284D01*
X134481723Y-87552862D01*
X134464820Y-87549500D01*
X132435180Y-87549500D01*
X132418460Y-87552826D01*
X132391277Y-87558233D01*
X132341496Y-87591495D01*
X132341495Y-87591496D01*
X132308233Y-87641277D01*
X132305186Y-87656594D01*
X132299500Y-87685180D01*
X132299500Y-89714820D01*
X132301428Y-89724510D01*
X132308233Y-89758722D01*
X132336843Y-89801541D01*
X132341496Y-89808504D01*
X132391278Y-89841767D01*
X132435180Y-89850500D01*
X132435181Y-89850500D01*
X134464819Y-89850500D01*
X134464820Y-89850500D01*
X134508722Y-89841767D01*
X134558504Y-89808504D01*
X134591767Y-89758722D01*
X134600500Y-89714820D01*
X134600500Y-88149057D01*
X134622174Y-88096731D01*
X134929429Y-87789476D01*
X135242256Y-87476648D01*
X135294581Y-87454975D01*
X135346907Y-87476649D01*
X135368581Y-87528975D01*
X135367670Y-87540548D01*
X135366174Y-87549995D01*
X135366174Y-87549999D01*
X135366174Y-87550000D01*
X135383057Y-87656594D01*
X135384960Y-87668609D01*
X135384961Y-87668614D01*
X135439476Y-87775605D01*
X135524394Y-87860523D01*
X135631385Y-87915038D01*
X135631388Y-87915038D01*
X135631391Y-87915040D01*
X135750000Y-87933826D01*
X135868609Y-87915040D01*
X135868612Y-87915038D01*
X135868614Y-87915038D01*
X135975605Y-87860523D01*
X135975604Y-87860523D01*
X135975607Y-87860522D01*
X136060522Y-87775607D01*
X136071288Y-87754478D01*
X136115038Y-87668614D01*
X136115038Y-87668612D01*
X136115040Y-87668609D01*
X136133826Y-87550000D01*
X136115040Y-87431391D01*
X136115038Y-87431388D01*
X136115038Y-87431385D01*
X136060523Y-87324394D01*
X135975605Y-87239476D01*
X135868614Y-87184961D01*
X135868609Y-87184960D01*
X135750000Y-87166174D01*
X135749996Y-87166174D01*
X135740548Y-87167670D01*
X135685477Y-87154447D01*
X135655886Y-87106154D01*
X135669109Y-87051083D01*
X135676643Y-87042261D01*
X137871731Y-84847174D01*
X137924057Y-84825500D01*
X138596525Y-84825500D01*
X138596533Y-84825501D01*
X138676941Y-84825501D01*
X138729267Y-84847175D01*
X138750941Y-84899501D01*
X138729267Y-84951827D01*
X138558830Y-85122264D01*
X138553197Y-85135863D01*
X138524499Y-85205144D01*
X138524499Y-85303466D01*
X138524500Y-85303475D01*
X138524500Y-85308719D01*
X138502826Y-85361045D01*
X138439476Y-85424394D01*
X138384961Y-85531385D01*
X138384960Y-85531390D01*
X138366174Y-85650000D01*
X138384960Y-85768609D01*
X138384961Y-85768614D01*
X138439476Y-85875605D01*
X138439478Y-85875607D01*
X138524393Y-85960522D01*
X138569538Y-85983524D01*
X138606321Y-86026591D01*
X138601878Y-86083054D01*
X138588269Y-86101785D01*
X134772265Y-89917790D01*
X134708830Y-89981224D01*
X134698774Y-90005497D01*
X134698774Y-90005500D01*
X134678903Y-90053475D01*
X134674499Y-90064107D01*
X134674499Y-90162427D01*
X134674500Y-90162436D01*
X134674500Y-95869106D01*
X134652826Y-95921432D01*
X134600500Y-95943106D01*
X134548174Y-95921432D01*
X134529325Y-95889359D01*
X134527405Y-95882611D01*
X134520680Y-95869106D01*
X134432367Y-95691747D01*
X134432363Y-95691741D01*
X134371029Y-95610523D01*
X134303872Y-95521593D01*
X134146302Y-95377948D01*
X133965019Y-95265702D01*
X133766198Y-95188679D01*
X133674150Y-95171472D01*
X133556613Y-95149500D01*
X133556610Y-95149500D01*
X133343390Y-95149500D01*
X133343386Y-95149500D01*
X133192336Y-95177737D01*
X133133802Y-95188679D01*
X133133800Y-95188679D01*
X133133798Y-95188680D01*
X132971447Y-95251575D01*
X132934981Y-95265702D01*
X132934976Y-95265704D01*
X132934976Y-95265705D01*
X132753700Y-95377946D01*
X132596130Y-95521590D01*
X132467636Y-95691741D01*
X132467632Y-95691747D01*
X132372596Y-95882606D01*
X132372593Y-95882616D01*
X132314243Y-96087690D01*
X132314242Y-96087696D01*
X132294571Y-96299996D01*
X132000500Y-96299996D01*
X132000500Y-86200000D01*
X132466174Y-86200000D01*
X132484960Y-86318609D01*
X132484961Y-86318614D01*
X132539476Y-86425605D01*
X132624394Y-86510523D01*
X132731385Y-86565038D01*
X132731388Y-86565038D01*
X132731391Y-86565040D01*
X132850000Y-86583826D01*
X132968609Y-86565040D01*
X132968612Y-86565038D01*
X132968614Y-86565038D01*
X133075605Y-86510523D01*
X133075604Y-86510523D01*
X133075607Y-86510522D01*
X133160522Y-86425607D01*
X133203928Y-86340418D01*
X133215038Y-86318614D01*
X133215038Y-86318612D01*
X133215040Y-86318609D01*
X133233826Y-86200000D01*
X133215040Y-86081391D01*
X133215038Y-86081388D01*
X133215038Y-86081385D01*
X133160523Y-85974394D01*
X133075605Y-85889476D01*
X132968614Y-85834961D01*
X132968609Y-85834960D01*
X132850000Y-85816174D01*
X132731390Y-85834960D01*
X132731385Y-85834961D01*
X132624394Y-85889476D01*
X132539476Y-85974394D01*
X132484961Y-86081385D01*
X132484960Y-86081390D01*
X132466174Y-86200000D01*
X132000500Y-86200000D01*
X132000500Y-78800000D01*
X136816174Y-78800000D01*
X136834960Y-78918609D01*
X136834961Y-78918614D01*
X136889476Y-79025605D01*
X136974394Y-79110523D01*
X137081385Y-79165038D01*
X137081388Y-79165038D01*
X137081391Y-79165040D01*
X137200000Y-79183826D01*
X137318609Y-79165040D01*
X137318612Y-79165038D01*
X137318614Y-79165038D01*
X137425605Y-79110523D01*
X137425604Y-79110523D01*
X137425607Y-79110522D01*
X137510522Y-79025607D01*
X137546764Y-78954478D01*
X137565038Y-78918614D01*
X137565038Y-78918612D01*
X137565040Y-78918609D01*
X137583826Y-78800000D01*
X137565040Y-78681391D01*
X137565038Y-78681388D01*
X137565038Y-78681385D01*
X137510523Y-78574394D01*
X137425605Y-78489476D01*
X137318614Y-78434961D01*
X137318609Y-78434960D01*
X137200000Y-78416174D01*
X137081390Y-78434960D01*
X137081385Y-78434961D01*
X136974394Y-78489476D01*
X136889476Y-78574394D01*
X136834961Y-78681385D01*
X136834960Y-78681390D01*
X136816174Y-78800000D01*
X132000500Y-78800000D01*
X132000500Y-77300000D01*
X145616174Y-77300000D01*
X145634960Y-77418609D01*
X145634961Y-77418614D01*
X145689476Y-77525605D01*
X145774394Y-77610523D01*
X145881385Y-77665038D01*
X145881388Y-77665038D01*
X145881391Y-77665040D01*
X146000000Y-77683826D01*
X146118609Y-77665040D01*
X146118612Y-77665038D01*
X146118614Y-77665038D01*
X146225605Y-77610523D01*
X146225604Y-77610523D01*
X146225607Y-77610522D01*
X146310522Y-77525607D01*
X146318189Y-77510559D01*
X146365038Y-77418614D01*
X146365038Y-77418612D01*
X146365040Y-77418609D01*
X146367987Y-77400000D01*
X147216174Y-77400000D01*
X147234960Y-77518609D01*
X147234961Y-77518614D01*
X147289476Y-77625605D01*
X147374394Y-77710523D01*
X147481385Y-77765038D01*
X147481388Y-77765038D01*
X147481391Y-77765040D01*
X147600000Y-77783826D01*
X147718609Y-77765040D01*
X147718612Y-77765038D01*
X147718614Y-77765038D01*
X147825605Y-77710523D01*
X147825604Y-77710523D01*
X147825607Y-77710522D01*
X147910522Y-77625607D01*
X147923570Y-77600000D01*
X149516174Y-77600000D01*
X149534960Y-77718609D01*
X149534961Y-77718614D01*
X149589476Y-77825605D01*
X149674394Y-77910523D01*
X149781385Y-77965038D01*
X149781388Y-77965038D01*
X149781391Y-77965040D01*
X149900000Y-77983826D01*
X150018609Y-77965040D01*
X150018612Y-77965038D01*
X150018614Y-77965038D01*
X150125605Y-77910523D01*
X150125604Y-77910523D01*
X150125607Y-77910522D01*
X150210522Y-77825607D01*
X150223569Y-77800000D01*
X150265038Y-77718614D01*
X150265038Y-77718612D01*
X150265040Y-77718609D01*
X150283826Y-77600000D01*
X151616174Y-77600000D01*
X151634960Y-77718609D01*
X151634961Y-77718614D01*
X151689476Y-77825605D01*
X151774394Y-77910523D01*
X151881385Y-77965038D01*
X151881388Y-77965038D01*
X151881391Y-77965040D01*
X152000000Y-77983826D01*
X152118609Y-77965040D01*
X152118612Y-77965038D01*
X152118614Y-77965038D01*
X152225605Y-77910523D01*
X152225604Y-77910523D01*
X152225607Y-77910522D01*
X152310522Y-77825607D01*
X152323569Y-77800000D01*
X152365038Y-77718614D01*
X152365038Y-77718612D01*
X152365040Y-77718609D01*
X152383826Y-77600000D01*
X152365040Y-77481391D01*
X152365038Y-77481388D01*
X152365038Y-77481385D01*
X152310523Y-77374394D01*
X152225605Y-77289476D01*
X152118614Y-77234961D01*
X152118609Y-77234960D01*
X152000000Y-77216174D01*
X151881390Y-77234960D01*
X151881385Y-77234961D01*
X151774394Y-77289476D01*
X151689476Y-77374394D01*
X151634961Y-77481385D01*
X151634960Y-77481390D01*
X151616174Y-77600000D01*
X150283826Y-77600000D01*
X150265040Y-77481391D01*
X150265038Y-77481388D01*
X150265038Y-77481385D01*
X150210523Y-77374394D01*
X150125605Y-77289476D01*
X150018614Y-77234961D01*
X150018609Y-77234960D01*
X149900000Y-77216174D01*
X149781390Y-77234960D01*
X149781385Y-77234961D01*
X149674394Y-77289476D01*
X149589476Y-77374394D01*
X149534961Y-77481385D01*
X149534960Y-77481390D01*
X149516174Y-77600000D01*
X147923570Y-77600000D01*
X147936617Y-77574393D01*
X147965038Y-77518614D01*
X147965038Y-77518612D01*
X147965040Y-77518609D01*
X147983826Y-77400000D01*
X147965040Y-77281391D01*
X147965038Y-77281388D01*
X147965038Y-77281385D01*
X147910523Y-77174394D01*
X147825605Y-77089476D01*
X147718614Y-77034961D01*
X147718609Y-77034960D01*
X147600000Y-77016174D01*
X147481390Y-77034960D01*
X147481385Y-77034961D01*
X147374394Y-77089476D01*
X147289476Y-77174394D01*
X147234961Y-77281385D01*
X147234960Y-77281390D01*
X147216174Y-77400000D01*
X146367987Y-77400000D01*
X146383826Y-77300000D01*
X146365040Y-77181391D01*
X146365038Y-77181388D01*
X146365038Y-77181385D01*
X146310523Y-77074394D01*
X146225605Y-76989476D01*
X146118614Y-76934961D01*
X146118609Y-76934960D01*
X146000000Y-76916174D01*
X145881390Y-76934960D01*
X145881385Y-76934961D01*
X145774394Y-76989476D01*
X145689476Y-77074394D01*
X145634961Y-77181385D01*
X145634960Y-77181390D01*
X145616174Y-77300000D01*
X132000500Y-77300000D01*
X132000500Y-70100000D01*
X143216174Y-70100000D01*
X143234960Y-70218609D01*
X143234961Y-70218614D01*
X143289476Y-70325605D01*
X143374394Y-70410523D01*
X143481385Y-70465038D01*
X143481388Y-70465038D01*
X143481391Y-70465040D01*
X143600000Y-70483826D01*
X143718609Y-70465040D01*
X143718612Y-70465038D01*
X143718614Y-70465038D01*
X143825605Y-70410523D01*
X143825604Y-70410523D01*
X143825607Y-70410522D01*
X143910522Y-70325607D01*
X143912355Y-70322008D01*
X143965038Y-70218614D01*
X143965038Y-70218612D01*
X143965040Y-70218609D01*
X143983826Y-70100000D01*
X143965040Y-69981391D01*
X143965038Y-69981388D01*
X143965038Y-69981385D01*
X143910523Y-69874394D01*
X143825605Y-69789476D01*
X143718614Y-69734961D01*
X143718609Y-69734960D01*
X143600000Y-69716174D01*
X143481390Y-69734960D01*
X143481385Y-69734961D01*
X143374394Y-69789476D01*
X143289476Y-69874394D01*
X143234961Y-69981385D01*
X143234960Y-69981390D01*
X143216174Y-70100000D01*
X132000500Y-70100000D01*
X132000500Y-68250000D01*
X156116174Y-68250000D01*
X156134960Y-68368609D01*
X156134961Y-68368614D01*
X156189476Y-68475605D01*
X156274394Y-68560523D01*
X156381385Y-68615038D01*
X156381388Y-68615038D01*
X156381391Y-68615040D01*
X156500000Y-68633826D01*
X156618609Y-68615040D01*
X156618612Y-68615038D01*
X156618614Y-68615038D01*
X156725605Y-68560523D01*
X156725604Y-68560523D01*
X156725607Y-68560522D01*
X156810522Y-68475607D01*
X156812355Y-68472008D01*
X156865038Y-68368614D01*
X156865038Y-68368612D01*
X156865040Y-68368609D01*
X156883826Y-68250000D01*
X156865040Y-68131391D01*
X156865038Y-68131388D01*
X156865038Y-68131385D01*
X156810523Y-68024394D01*
X156725605Y-67939476D01*
X156618614Y-67884961D01*
X156618609Y-67884960D01*
X156500000Y-67866174D01*
X156381390Y-67884960D01*
X156381385Y-67884961D01*
X156274394Y-67939476D01*
X156189476Y-68024394D01*
X156134961Y-68131385D01*
X156134960Y-68131390D01*
X156116174Y-68250000D01*
X132000500Y-68250000D01*
X132000500Y-66150000D01*
X150266174Y-66150000D01*
X150284960Y-66268609D01*
X150284961Y-66268614D01*
X150339476Y-66375605D01*
X150424394Y-66460523D01*
X150531385Y-66515038D01*
X150531388Y-66515038D01*
X150531391Y-66515040D01*
X150650000Y-66533826D01*
X150768609Y-66515040D01*
X150768612Y-66515038D01*
X150768614Y-66515038D01*
X150875605Y-66460523D01*
X150875604Y-66460523D01*
X150875607Y-66460522D01*
X150960522Y-66375607D01*
X150960523Y-66375604D01*
X150963946Y-66370895D01*
X150966099Y-66372459D01*
X151002128Y-66341684D01*
X151058591Y-66346124D01*
X151084494Y-66372027D01*
X151086054Y-66370895D01*
X151089476Y-66375605D01*
X151174394Y-66460523D01*
X151281385Y-66515038D01*
X151281388Y-66515038D01*
X151281391Y-66515040D01*
X151400000Y-66533826D01*
X151518609Y-66515040D01*
X151518612Y-66515038D01*
X151518614Y-66515038D01*
X151625605Y-66460523D01*
X151625604Y-66460523D01*
X151625607Y-66460522D01*
X151710522Y-66375607D01*
X151727807Y-66341684D01*
X151765038Y-66268614D01*
X151765038Y-66268612D01*
X151765040Y-66268609D01*
X151783826Y-66150000D01*
X151765040Y-66031391D01*
X151765038Y-66031388D01*
X151765038Y-66031385D01*
X151710523Y-65924394D01*
X151625605Y-65839476D01*
X151518614Y-65784961D01*
X151518609Y-65784960D01*
X151400000Y-65766174D01*
X151281390Y-65784960D01*
X151281385Y-65784961D01*
X151174394Y-65839476D01*
X151089476Y-65924394D01*
X151086054Y-65929105D01*
X151083902Y-65927541D01*
X151047860Y-65958319D01*
X150991398Y-65953869D01*
X150965502Y-65927973D01*
X150963946Y-65929105D01*
X150960523Y-65924394D01*
X150875605Y-65839476D01*
X150768614Y-65784961D01*
X150768609Y-65784960D01*
X150650000Y-65766174D01*
X150531390Y-65784960D01*
X150531385Y-65784961D01*
X150424394Y-65839476D01*
X150339476Y-65924394D01*
X150284961Y-66031385D01*
X150284960Y-66031390D01*
X150266174Y-66150000D01*
X132000500Y-66150000D01*
X132000500Y-63883716D01*
X133522500Y-63883716D01*
X133522500Y-64116283D01*
X133558880Y-64345979D01*
X133558883Y-64345992D01*
X133630745Y-64567160D01*
X133630747Y-64567164D01*
X133736327Y-64774378D01*
X133852172Y-64933825D01*
X133873026Y-64962527D01*
X134037473Y-65126974D01*
X134037476Y-65126976D01*
X134037477Y-65126977D01*
X134225621Y-65263672D01*
X134432835Y-65369252D01*
X134432839Y-65369254D01*
X134654007Y-65441116D01*
X134654013Y-65441117D01*
X134654018Y-65441119D01*
X134768868Y-65459309D01*
X134883716Y-65477500D01*
X134883718Y-65477500D01*
X135116284Y-65477500D01*
X135208162Y-65462947D01*
X135345982Y-65441119D01*
X135345989Y-65441116D01*
X135345992Y-65441116D01*
X135567160Y-65369254D01*
X135567160Y-65369253D01*
X135567163Y-65369253D01*
X135774379Y-65263672D01*
X135962527Y-65126974D01*
X136126974Y-64962527D01*
X136263672Y-64774379D01*
X136369253Y-64567163D01*
X136374830Y-64550000D01*
X143466174Y-64550000D01*
X143484960Y-64668609D01*
X143484961Y-64668614D01*
X143539476Y-64775605D01*
X143624394Y-64860523D01*
X143731385Y-64915038D01*
X143731388Y-64915038D01*
X143731391Y-64915040D01*
X143850000Y-64933826D01*
X143968609Y-64915040D01*
X143968612Y-64915038D01*
X143968614Y-64915038D01*
X144075605Y-64860523D01*
X144075604Y-64860523D01*
X144075607Y-64860522D01*
X144160522Y-64775607D01*
X144162355Y-64772008D01*
X144215038Y-64668614D01*
X144215038Y-64668612D01*
X144215040Y-64668609D01*
X144233826Y-64550000D01*
X152766174Y-64550000D01*
X152784960Y-64668609D01*
X152784961Y-64668614D01*
X152839476Y-64775605D01*
X152924394Y-64860523D01*
X153031385Y-64915038D01*
X153031388Y-64915038D01*
X153031391Y-64915040D01*
X153150000Y-64933826D01*
X153268609Y-64915040D01*
X153268612Y-64915038D01*
X153268614Y-64915038D01*
X153375605Y-64860523D01*
X153375604Y-64860523D01*
X153375607Y-64860522D01*
X153460522Y-64775607D01*
X153462355Y-64772008D01*
X153515038Y-64668614D01*
X153515038Y-64668612D01*
X153515040Y-64668609D01*
X153533826Y-64550000D01*
X153515040Y-64431391D01*
X153515038Y-64431388D01*
X153515038Y-64431385D01*
X153460523Y-64324394D01*
X153375605Y-64239476D01*
X153268614Y-64184961D01*
X153268609Y-64184960D01*
X153150000Y-64166174D01*
X153031390Y-64184960D01*
X153031385Y-64184961D01*
X152924394Y-64239476D01*
X152839476Y-64324394D01*
X152784961Y-64431385D01*
X152784960Y-64431390D01*
X152766174Y-64550000D01*
X144233826Y-64550000D01*
X144215040Y-64431391D01*
X144215038Y-64431388D01*
X144215038Y-64431385D01*
X144160523Y-64324394D01*
X144075605Y-64239476D01*
X143968614Y-64184961D01*
X143968609Y-64184960D01*
X143850000Y-64166174D01*
X143731390Y-64184960D01*
X143731385Y-64184961D01*
X143624394Y-64239476D01*
X143539476Y-64324394D01*
X143484961Y-64431385D01*
X143484960Y-64431390D01*
X143466174Y-64550000D01*
X136374830Y-64550000D01*
X136441119Y-64345982D01*
X136477500Y-64116282D01*
X136477500Y-63883718D01*
X136477500Y-63883716D01*
X159522500Y-63883716D01*
X159522500Y-64116283D01*
X159558880Y-64345979D01*
X159558883Y-64345992D01*
X159630745Y-64567160D01*
X159630747Y-64567164D01*
X159736327Y-64774378D01*
X159852172Y-64933825D01*
X159873026Y-64962527D01*
X160037473Y-65126974D01*
X160037476Y-65126976D01*
X160037477Y-65126977D01*
X160225621Y-65263672D01*
X160432835Y-65369252D01*
X160432839Y-65369254D01*
X160654007Y-65441116D01*
X160654013Y-65441117D01*
X160654018Y-65441119D01*
X160768868Y-65459309D01*
X160883716Y-65477500D01*
X160883718Y-65477500D01*
X161116284Y-65477500D01*
X161208162Y-65462947D01*
X161345982Y-65441119D01*
X161345989Y-65441116D01*
X161345992Y-65441116D01*
X161567160Y-65369254D01*
X161567160Y-65369253D01*
X161567163Y-65369253D01*
X161774379Y-65263672D01*
X161962527Y-65126974D01*
X162126974Y-64962527D01*
X162263672Y-64774379D01*
X162369253Y-64567163D01*
X162441119Y-64345982D01*
X162477500Y-64116282D01*
X162477500Y-63883718D01*
X162441119Y-63654018D01*
X162441117Y-63654013D01*
X162441116Y-63654007D01*
X162369254Y-63432839D01*
X162369252Y-63432835D01*
X162263672Y-63225621D01*
X162126977Y-63037477D01*
X162126976Y-63037476D01*
X162126974Y-63037473D01*
X161962527Y-62873026D01*
X161962524Y-62873023D01*
X161962522Y-62873022D01*
X161774378Y-62736327D01*
X161567164Y-62630747D01*
X161567160Y-62630745D01*
X161345992Y-62558883D01*
X161345979Y-62558880D01*
X161116284Y-62522500D01*
X161116282Y-62522500D01*
X160883718Y-62522500D01*
X160883716Y-62522500D01*
X160654020Y-62558880D01*
X160654007Y-62558883D01*
X160432839Y-62630745D01*
X160432835Y-62630747D01*
X160225621Y-62736327D01*
X160037477Y-62873022D01*
X159873022Y-63037477D01*
X159736327Y-63225621D01*
X159630747Y-63432835D01*
X159630745Y-63432839D01*
X159558883Y-63654007D01*
X159558880Y-63654020D01*
X159522500Y-63883716D01*
X136477500Y-63883716D01*
X136441119Y-63654018D01*
X136441117Y-63654013D01*
X136441116Y-63654007D01*
X136369254Y-63432839D01*
X136369252Y-63432835D01*
X136263672Y-63225621D01*
X136126977Y-63037477D01*
X136126976Y-63037476D01*
X136126974Y-63037473D01*
X135962527Y-62873026D01*
X135962524Y-62873023D01*
X135962522Y-62873022D01*
X135774378Y-62736327D01*
X135567164Y-62630747D01*
X135567160Y-62630745D01*
X135345992Y-62558883D01*
X135345979Y-62558880D01*
X135116284Y-62522500D01*
X135116282Y-62522500D01*
X134883718Y-62522500D01*
X134883716Y-62522500D01*
X134654020Y-62558880D01*
X134654007Y-62558883D01*
X134432839Y-62630745D01*
X134432835Y-62630747D01*
X134225621Y-62736327D01*
X134037477Y-62873022D01*
X133873022Y-63037477D01*
X133736327Y-63225621D01*
X133630747Y-63432835D01*
X133630745Y-63432839D01*
X133558883Y-63654007D01*
X133558880Y-63654020D01*
X133522500Y-63883716D01*
X132000500Y-63883716D01*
X132000500Y-61570940D01*
X144549500Y-61570940D01*
X144549500Y-62629059D01*
X144590421Y-62781779D01*
X144590422Y-62781781D01*
X144590423Y-62781784D01*
X144669480Y-62918716D01*
X144781284Y-63030520D01*
X144918216Y-63109577D01*
X145070940Y-63150499D01*
X145070941Y-63150500D01*
X145070943Y-63150500D01*
X145229059Y-63150500D01*
X145229059Y-63150499D01*
X145381784Y-63109577D01*
X145518716Y-63030520D01*
X145630520Y-62918716D01*
X145709577Y-62781784D01*
X145750499Y-62629059D01*
X145750500Y-62629059D01*
X145750500Y-61570941D01*
X145750499Y-61570940D01*
X151149500Y-61570940D01*
X151149500Y-62629059D01*
X151190421Y-62781779D01*
X151190422Y-62781781D01*
X151190423Y-62781784D01*
X151269480Y-62918716D01*
X151381284Y-63030520D01*
X151518216Y-63109577D01*
X151670940Y-63150499D01*
X151670941Y-63150500D01*
X151670943Y-63150500D01*
X151829059Y-63150500D01*
X151829059Y-63150499D01*
X151981784Y-63109577D01*
X152118716Y-63030520D01*
X152230520Y-62918716D01*
X152309577Y-62781784D01*
X152350499Y-62629059D01*
X152350500Y-62629059D01*
X152350500Y-61570941D01*
X152350499Y-61570940D01*
X152309578Y-61418220D01*
X152309577Y-61418216D01*
X152230520Y-61281284D01*
X152118716Y-61169480D01*
X151981784Y-61090423D01*
X151981781Y-61090422D01*
X151981779Y-61090421D01*
X151829059Y-61049500D01*
X151829057Y-61049500D01*
X151670943Y-61049500D01*
X151670941Y-61049500D01*
X151518220Y-61090421D01*
X151518214Y-61090424D01*
X151381283Y-61169480D01*
X151269480Y-61281283D01*
X151190424Y-61418214D01*
X151190421Y-61418220D01*
X151149500Y-61570940D01*
X145750499Y-61570940D01*
X145709578Y-61418220D01*
X145709577Y-61418216D01*
X145630520Y-61281284D01*
X145518716Y-61169480D01*
X145381784Y-61090423D01*
X145381781Y-61090422D01*
X145381779Y-61090421D01*
X145229059Y-61049500D01*
X145229057Y-61049500D01*
X145070943Y-61049500D01*
X145070941Y-61049500D01*
X144918220Y-61090421D01*
X144918214Y-61090424D01*
X144781283Y-61169480D01*
X144669480Y-61281283D01*
X144590424Y-61418214D01*
X144590421Y-61418220D01*
X144549500Y-61570940D01*
X132000500Y-61570940D01*
X132000500Y-60974500D01*
X132022174Y-60922174D01*
X132074500Y-60900500D01*
X163925500Y-60900500D01*
X163977826Y-60922174D01*
G37*
%TD.AperFunction*%
%TD*%
M02*
