M48
; DRILL file {KiCad 8.0.7} date 2025-01-08T02:29:54-0500
; FORMAT={-:-/ absolute / inch / decimal}
; #@! TF.CreationDate,2025-01-08T02:29:54-05:00
; #@! TF.GenerationSoftware,Kicad,Pcbnew,8.0.7
; #@! TF.FileFunction,Plated,1,4,PTH
FMAT,2
INCH
; #@! TA.AperFunction,Plated,PTH,ViaDrill
T1C0.0100
; #@! TA.AperFunction,Plated,PTH,ComponentDrill
T2C0.0100
; #@! TA.AperFunction,Plated,PTH,ComponentDrill
T3C0.0197
; #@! TA.AperFunction,Plated,PTH,ComponentDrill
T4C0.0315
; #@! TA.AperFunction,Plated,PTH,ComponentDrill
T5C0.0394
; #@! TA.AperFunction,Plated,PTH,ComponentDrill
T6C0.0984
%
G90
G05
T1
X5.2303Y-3.3937
X5.2756Y-4.7343
X5.3327Y-3.9134
X5.3445Y-3.4469
X5.3543Y-4.7343
X5.3681Y-4.0374
X5.3819Y-4.2224
X5.3937Y-4.7441
X5.4016Y-3.1024
X5.4331Y-3.2913
X5.435Y-3.2441
X5.4567Y-3.4685
X5.4626Y-3.372
X5.4665Y-3.2244
X5.4862Y-3.3031
X5.494Y-4.7598
X5.502Y-3.3563
X5.5236Y-3.8602
X5.5236Y-4.0571
X5.5256Y-3.3701
X5.5394Y-3.252
X5.5435Y-4.5453
X5.5492Y-3.3858
X5.5728Y-3.4035
X5.5945Y-3.4311
X5.5984Y-3.4815
X5.6122Y-3.502
X5.6201Y-3.4476
X5.624Y-3.7165
X5.6323Y-3.5175
X5.6457Y-3.5413
X5.6535Y-2.7598
X5.6555Y-3.5866
X5.6634Y-2.5413
X5.689Y-3.6161
X5.7027Y-4.4055
X5.7087Y-4.5079
X5.7105Y-4.5472
X5.748Y-3.0433
X5.7662Y-3.5261
X5.7977Y-3.2259
X5.7991Y-4.4272
X5.811Y-3.0472
X5.8228Y-3.5118
X5.8267Y-4.4272
X5.8342Y-3.6299
X5.8346Y-3.3445
X5.8661Y-4.6299
X5.9016Y-3.0551
X5.9035Y-4.9427
X5.9043Y-4.6319
X5.9272Y-3.6043
X5.9311Y-2.6043
X5.937Y-3.8602
X5.937Y-4.0571
X5.9547Y-3.752
X5.9606Y-2.6043
X5.9843Y-3.0551
X5.9862Y-3.5689
X5.9899Y-4.9469
X5.9902Y-3.3583
X5.9909Y-4.6279
X5.9961Y-3.3937
X5.9961Y-3.4567
X5.997Y-3.5266
X6.0123Y-3.41
X6.0295Y-2.5413
X6.0441Y-4.6772
X6.0519Y-4.8976
X6.0709Y-3.5315
X6.0768Y-2.8327
X6.0865Y-4.4429
X6.1014Y-3.253
X6.1122Y-2.8327
X6.1299Y-3.0374
X6.1476Y-3.6339
X6.1496Y-3.063
X6.1516Y-4.2224
X6.1614Y-2.687
X6.1654Y-3.4764
X6.1909Y-3.7421
X6.1978Y-2.8573
X6.1988Y-3.815
X6.2028Y-3.6732
X6.2325Y-3.0372
X6.2382Y-3.5906
X6.2696Y-4.4016
X6.2776Y-3.063
X6.2795Y-4.2126
X6.2853Y-4.3681
X6.2933Y-3.0295
X6.2972Y-3.7611
X6.3071Y-3.1102
X6.315Y-3.0
X6.3306Y-4.311
X6.3465Y-3.3701
X6.3543Y-3.3976
X6.3681Y-3.061
X6.3857Y-4.5197
X6.3996Y-3.689
X6.4054Y-4.2638
X6.4113Y-4.4961
X6.4193Y-3.7067
X6.4213Y-3.2126
T2
X5.7564Y-3.376
X5.7564Y-3.4252
X5.7564Y-3.4744
X5.8056Y-3.376
X5.8056Y-3.4252
X5.8056Y-3.4744
X5.8548Y-3.376
X5.8548Y-3.4252
X5.8548Y-3.4744
T4
X5.4744Y-5.5315
X5.5531Y-5.5315
X5.6319Y-5.5315
X5.7106Y-5.5315
X5.7894Y-5.5315
X5.8681Y-5.5315
X5.9469Y-5.5315
X6.0256Y-5.5315
X6.1043Y-5.5315
X6.1831Y-5.5315
T5
X5.2539Y-3.4921
X5.2539Y-3.7913
X5.2598Y-3.9281
X5.2598Y-4.0281
X5.2598Y-4.1726
X5.2598Y-4.2726
X6.378Y-3.937
X6.378Y-4.037
X6.378Y-4.137
X6.3976Y-4.6913
X6.3976Y-4.7913
T6
X5.2953Y-4.9213
X5.2953Y-5.2283
T3
G00X5.7146Y-2.4587
M15
G01X5.7146Y-2.4311
M16
G05
G00X5.9744Y-2.4587
M15
G01X5.9744Y-2.4311
M16
G05
M30
