%TF.GenerationSoftware,KiCad,Pcbnew,8.0.7*%
%TF.CreationDate,2025-01-08T02:29:50-05:00*%
%TF.ProjectId,active-drag-system-minimal,61637469-7665-42d6-9472-61672d737973,rev?*%
%TF.SameCoordinates,Original*%
%TF.FileFunction,Copper,L2,Inr*%
%TF.FilePolarity,Positive*%
%FSLAX46Y46*%
G04 Gerber Fmt 4.6, Leading zero omitted, Abs format (unit mm)*
G04 Created by KiCad (PCBNEW 8.0.7) date 2025-01-08 02:29:50*
%MOMM*%
%LPD*%
G01*
G04 APERTURE LIST*
G04 Aperture macros list*
%AMRoundRect*
0 Rectangle with rounded corners*
0 $1 Rounding radius*
0 $2 $3 $4 $5 $6 $7 $8 $9 X,Y pos of 4 corners*
0 Add a 4 corners polygon primitive as box body*
4,1,4,$2,$3,$4,$5,$6,$7,$8,$9,$2,$3,0*
0 Add four circle primitives for the rounded corners*
1,1,$1+$1,$2,$3*
1,1,$1+$1,$4,$5*
1,1,$1+$1,$6,$7*
1,1,$1+$1,$8,$9*
0 Add four rect primitives between the rounded corners*
20,1,$1+$1,$2,$3,$4,$5,0*
20,1,$1+$1,$4,$5,$6,$7,0*
20,1,$1+$1,$6,$7,$8,$9,0*
20,1,$1+$1,$8,$9,$2,$3,0*%
G04 Aperture macros list end*
%TA.AperFunction,ComponentPad*%
%ADD10R,1.700000X1.700000*%
%TD*%
%TA.AperFunction,ComponentPad*%
%ADD11O,1.700000X1.700000*%
%TD*%
%TA.AperFunction,ComponentPad*%
%ADD12RoundRect,0.250002X-1.699998X1.699998X-1.699998X-1.699998X1.699998X-1.699998X1.699998X1.699998X0*%
%TD*%
%TA.AperFunction,ComponentPad*%
%ADD13C,3.900000*%
%TD*%
%TA.AperFunction,ComponentPad*%
%ADD14R,1.350000X1.350000*%
%TD*%
%TA.AperFunction,ComponentPad*%
%ADD15O,1.350000X1.350000*%
%TD*%
%TA.AperFunction,HeatsinkPad*%
%ADD16C,0.457200*%
%TD*%
%TA.AperFunction,ComponentPad*%
%ADD17O,0.900000X1.800000*%
%TD*%
%TA.AperFunction,ComponentPad*%
%ADD18R,2.000000X2.000000*%
%TD*%
%TA.AperFunction,ComponentPad*%
%ADD19C,2.000000*%
%TD*%
%TA.AperFunction,ViaPad*%
%ADD20C,0.457200*%
%TD*%
%TA.AperFunction,Conductor*%
%ADD21C,0.400000*%
%TD*%
%TA.AperFunction,Conductor*%
%ADD22C,0.550000*%
%TD*%
G04 APERTURE END LIST*
D10*
%TO.N,/MCU_RP2040/UART0_TX*%
%TO.C,J5*%
X133600000Y-99775000D03*
D11*
%TO.N,/MCU_RP2040/UART0_RX*%
X133600000Y-102315000D03*
%TD*%
D12*
%TO.N,/VBAT*%
%TO.C,J2*%
X134500000Y-125000000D03*
D13*
%TO.N,GND*%
X134500000Y-132800000D03*
%TD*%
D10*
%TO.N,/MCU_RP2040/I2C1_SCL*%
%TO.C,J6*%
X133600000Y-108525000D03*
D11*
%TO.N,/MCU_RP2040/I2C1_SDA*%
X133600000Y-105985000D03*
%TD*%
D14*
%TO.N,/MCU_RP2040/GPIO1*%
%TO.C,J4*%
X139050000Y-140500000D03*
D15*
%TO.N,/MCU_RP2040/GPIO2*%
X141050000Y-140500000D03*
%TO.N,/MCU_RP2040/GPIO3*%
X143050000Y-140500000D03*
%TO.N,/MCU_RP2040/GPIO4*%
X145050000Y-140500000D03*
%TO.N,/MCU_RP2040/GPIO6*%
X147050000Y-140500000D03*
%TO.N,/MCU_RP2040/GPIO7*%
X149050000Y-140500000D03*
%TO.N,/MCU_RP2040/GPIO8*%
X151050000Y-140500000D03*
%TO.N,/MCU_RP2040/GPIO9*%
X153050000Y-140500000D03*
%TO.N,/MCU_RP2040/GPIO10*%
X155050000Y-140500000D03*
%TO.N,/MCU_RP2040/GPIO11*%
X157050000Y-140500000D03*
%TD*%
D16*
%TO.N,GND*%
%TO.C,U1*%
X146212500Y-85750000D03*
X146212500Y-87000000D03*
X146212500Y-88250000D03*
X147462500Y-85750000D03*
X147462500Y-87000000D03*
X147462500Y-88250000D03*
X148712500Y-85750000D03*
X148712500Y-87000000D03*
X148712500Y-88250000D03*
%TD*%
D10*
%TO.N,/+5V*%
%TO.C,J1*%
X162500000Y-119160000D03*
D11*
%TO.N,GND*%
X162500000Y-121700000D03*
%TD*%
D10*
%TO.N,/MCU_RP2040/SWCLK*%
%TO.C,J8*%
X162000000Y-105080000D03*
D11*
%TO.N,GND*%
X162000000Y-102540000D03*
%TO.N,/MCU_RP2040/SWDIO*%
X162000000Y-100000000D03*
%TD*%
D17*
%TO.N,GND*%
%TO.C,J3*%
X151750000Y-62100000D03*
X145150000Y-62100000D03*
%TD*%
D18*
%TO.N,/MCU_RP2040/BUZZ_OUT*%
%TO.C,BZ1*%
X133450000Y-88700000D03*
D19*
%TO.N,GND*%
X133450000Y-96300000D03*
%TD*%
D20*
%TO.N,GND*%
X161750000Y-77750000D03*
X156250000Y-107250000D03*
X146000000Y-77300000D03*
X146462500Y-89562500D03*
X160200000Y-79000000D03*
X137000000Y-120500000D03*
X137200000Y-78800000D03*
X154975000Y-82625000D03*
X159247800Y-111800000D03*
X163050000Y-94150000D03*
X135750000Y-87550000D03*
X138750000Y-85650000D03*
X153150000Y-64550000D03*
X155700000Y-77150000D03*
X136350000Y-102550000D03*
X148997800Y-117600000D03*
X152169586Y-117549874D03*
X138600000Y-88100000D03*
X140300000Y-103050000D03*
X140300000Y-98050000D03*
X159500000Y-107000000D03*
X143850000Y-64550000D03*
X143650000Y-91100000D03*
X151250000Y-95300000D03*
X157250000Y-95050000D03*
X155250000Y-71950000D03*
X152000000Y-77600000D03*
X150800000Y-103050000D03*
X160797800Y-109500000D03*
X161400000Y-86300000D03*
X150800000Y-98050000D03*
X149969586Y-117649874D03*
X153519460Y-118800000D03*
X135450000Y-99400000D03*
X158450000Y-91200000D03*
X149900000Y-77600000D03*
X156200000Y-77800000D03*
X159450000Y-77800000D03*
X149949688Y-125543699D03*
X157425001Y-72575001D03*
X136700000Y-107250000D03*
X156500000Y-68250000D03*
X154597800Y-112850000D03*
X134000000Y-120250000D03*
X138850000Y-81900000D03*
X163100000Y-81600000D03*
X157550000Y-93300000D03*
X153719460Y-124400000D03*
X156600000Y-88300000D03*
X143600000Y-70100000D03*
X159647800Y-110950000D03*
X140700000Y-82600000D03*
X142850000Y-94400000D03*
X145000000Y-114500000D03*
X144847800Y-111900000D03*
X152143387Y-125650000D03*
X136000000Y-120250000D03*
X147600000Y-77400000D03*
X140804164Y-115450000D03*
X152050000Y-90650000D03*
X152713094Y-86613094D03*
X132850000Y-86200000D03*
X144500000Y-91850000D03*
X162550000Y-93700000D03*
%TO.N,/MCU_RP2040/BUZZ_OUT*%
X139350000Y-83900000D03*
%TO.N,+1V1*%
X147262500Y-81937500D03*
X148187500Y-92200000D03*
X148200000Y-84949998D03*
X147900000Y-89200000D03*
%TO.N,/MCU_RP2040/I2C0_SCL*%
X159950000Y-95531502D03*
X160400000Y-76200000D03*
X138050000Y-82400000D03*
X154200000Y-89700000D03*
%TO.N,/MCU_RP2040/I2C0_SDA*%
X138000000Y-83600000D03*
X157450000Y-96900000D03*
X152323231Y-89576769D03*
X159850000Y-76950000D03*
%TO.N,Net-(U3-PG)*%
X139547800Y-120900000D03*
X145047800Y-115500000D03*
%TO.N,/MCU_RP2040/LED_OUT*%
X154350000Y-71950000D03*
X152300000Y-86200000D03*
%TO.N,/MG*%
X161200000Y-85600000D03*
X152300000Y-87800000D03*
%TO.N,/+3V3*%
X152150000Y-85300000D03*
X156150000Y-92300000D03*
X162697800Y-108300000D03*
X162197800Y-114800000D03*
X162847800Y-114200000D03*
%TO.N,/VBUS*%
X150650000Y-66150000D03*
X147997800Y-112450000D03*
X147297800Y-112450000D03*
X151400000Y-66150000D03*
%TO.N,/MAG*%
X158304481Y-77145519D03*
X150550000Y-91550000D03*
%TO.N,/MCU_RP2040/GPIO2*%
X140350000Y-85600000D03*
%TO.N,/MCU_RP2040/GPIO10*%
X143059627Y-89345403D03*
%TO.N,/MCU_RP2040/GPIO4*%
X141550000Y-86450000D03*
%TO.N,/MCU_RP2040/GPIO8*%
X142200000Y-88430600D03*
%TO.N,/MCU_RP2040/GPIO6*%
X142100000Y-87150000D03*
%TO.N,/MCU_RP2040/GPIO7*%
X142750000Y-87569400D03*
%TO.N,/MCU_RP2040/GPIO9*%
X142550000Y-88950000D03*
%TO.N,/MCU_RP2040/GPIO11*%
X143400000Y-89950000D03*
%TO.N,/MCU_RP2040/GPIO3*%
X140950000Y-86000000D03*
%TO.N,/MCU_RP2040/GPIO1*%
X139750000Y-85250000D03*
%TD*%
D21*
%TO.N,/VBUS*%
X148050000Y-112450000D02*
X147297800Y-112450000D01*
X151400000Y-66150000D02*
X158150000Y-66150000D01*
D22*
X151400000Y-66150000D02*
X151000000Y-66150000D01*
D21*
X151500000Y-109000000D02*
X148050000Y-112450000D01*
D22*
X151000000Y-66150000D02*
X150650000Y-66150000D01*
D21*
X162500000Y-67500000D02*
X163800000Y-68800000D01*
X163800000Y-105700000D02*
X160500000Y-109000000D01*
X163800000Y-68800000D02*
X163800000Y-105700000D01*
X160500000Y-109000000D02*
X151500000Y-109000000D01*
X158150000Y-66150000D02*
X159500000Y-67500000D01*
X159500000Y-67500000D02*
X162500000Y-67500000D01*
%TD*%
%TA.AperFunction,Conductor*%
%TO.N,GND*%
G36*
X163977826Y-60922174D02*
G01*
X163999500Y-60974500D01*
X163999500Y-68325166D01*
X163977826Y-68377492D01*
X163925500Y-68399166D01*
X163873174Y-68377492D01*
X162715212Y-67219530D01*
X162635289Y-67173386D01*
X162635284Y-67173384D01*
X162546146Y-67149500D01*
X162546144Y-67149500D01*
X159675833Y-67149500D01*
X159623507Y-67127826D01*
X158996181Y-66500500D01*
X158365212Y-65869530D01*
X158285289Y-65823386D01*
X158285284Y-65823384D01*
X158196146Y-65799500D01*
X158196144Y-65799500D01*
X151663745Y-65799500D01*
X151626745Y-65789586D01*
X151564240Y-65753499D01*
X151564237Y-65753497D01*
X151564234Y-65753496D01*
X151564232Y-65753495D01*
X151456020Y-65724500D01*
X151456018Y-65724500D01*
X151056018Y-65724500D01*
X150593982Y-65724500D01*
X150593980Y-65724500D01*
X150485767Y-65753495D01*
X150485758Y-65753499D01*
X150388736Y-65809515D01*
X150309515Y-65888736D01*
X150253499Y-65985758D01*
X150253495Y-65985767D01*
X150224500Y-66093979D01*
X150224500Y-66206020D01*
X150253495Y-66314232D01*
X150253496Y-66314235D01*
X150253497Y-66314237D01*
X150309515Y-66411263D01*
X150388737Y-66490485D01*
X150485763Y-66546503D01*
X150593979Y-66575499D01*
X150593980Y-66575500D01*
X150593982Y-66575500D01*
X151456020Y-66575500D01*
X151456020Y-66575499D01*
X151564237Y-66546503D01*
X151626745Y-66510413D01*
X151663745Y-66500500D01*
X157974166Y-66500500D01*
X158026492Y-66522174D01*
X159219531Y-67715212D01*
X159284788Y-67780469D01*
X159364712Y-67826614D01*
X159364713Y-67826614D01*
X159364715Y-67826615D01*
X159409284Y-67838557D01*
X159453853Y-67850499D01*
X159453854Y-67850500D01*
X159453856Y-67850500D01*
X162324166Y-67850500D01*
X162376492Y-67872174D01*
X163427826Y-68923508D01*
X163449500Y-68975834D01*
X163449500Y-105524166D01*
X163427826Y-105576492D01*
X163126826Y-105877492D01*
X163074500Y-105899166D01*
X163022174Y-105877492D01*
X163000500Y-105825166D01*
X163000500Y-104215180D01*
X162991767Y-104171278D01*
X162958504Y-104121496D01*
X162908722Y-104088233D01*
X162864820Y-104079500D01*
X161135180Y-104079500D01*
X161113229Y-104083866D01*
X161091277Y-104088233D01*
X161041496Y-104121495D01*
X161041495Y-104121496D01*
X161008233Y-104171277D01*
X161008233Y-104171278D01*
X160999500Y-104215180D01*
X160999500Y-105944820D01*
X161008233Y-105988722D01*
X161041496Y-106038504D01*
X161091278Y-106071767D01*
X161135180Y-106080500D01*
X161135181Y-106080500D01*
X162745166Y-106080500D01*
X162797492Y-106102174D01*
X162819166Y-106154500D01*
X162797492Y-106206826D01*
X160376492Y-108627826D01*
X160324166Y-108649500D01*
X151453854Y-108649500D01*
X151364715Y-108673384D01*
X151364710Y-108673386D01*
X151284787Y-108719530D01*
X147943918Y-112060398D01*
X147903171Y-112081161D01*
X147879192Y-112084959D01*
X147879187Y-112084961D01*
X147866484Y-112091434D01*
X147832889Y-112099500D01*
X147462710Y-112099500D01*
X147429115Y-112091434D01*
X147416411Y-112084961D01*
X147416410Y-112084960D01*
X147416409Y-112084960D01*
X147416407Y-112084959D01*
X147416405Y-112084959D01*
X147297800Y-112066174D01*
X147179190Y-112084960D01*
X147179185Y-112084961D01*
X147072194Y-112139476D01*
X146987276Y-112224394D01*
X146932761Y-112331385D01*
X146932760Y-112331390D01*
X146913974Y-112450000D01*
X146932760Y-112568609D01*
X146932761Y-112568614D01*
X146987276Y-112675605D01*
X147072194Y-112760523D01*
X147179185Y-112815038D01*
X147179188Y-112815038D01*
X147179191Y-112815040D01*
X147297800Y-112833826D01*
X147416409Y-112815040D01*
X147429115Y-112808566D01*
X147462710Y-112800500D01*
X147832890Y-112800500D01*
X147866485Y-112808566D01*
X147879191Y-112815040D01*
X147997800Y-112833826D01*
X148116409Y-112815040D01*
X148223407Y-112760522D01*
X148230516Y-112753412D01*
X148245840Y-112741653D01*
X148265212Y-112730470D01*
X151623508Y-109372174D01*
X151675834Y-109350500D01*
X160546146Y-109350500D01*
X160546146Y-109350499D01*
X160635288Y-109326614D01*
X160715212Y-109280470D01*
X161695682Y-108300000D01*
X162313974Y-108300000D01*
X162332760Y-108418609D01*
X162332761Y-108418614D01*
X162387276Y-108525605D01*
X162472194Y-108610523D01*
X162579185Y-108665038D01*
X162579188Y-108665038D01*
X162579191Y-108665040D01*
X162697800Y-108683826D01*
X162816409Y-108665040D01*
X162816412Y-108665038D01*
X162816414Y-108665038D01*
X162923405Y-108610523D01*
X162923404Y-108610523D01*
X162923407Y-108610522D01*
X163008322Y-108525607D01*
X163010155Y-108522008D01*
X163062838Y-108418614D01*
X163062838Y-108418612D01*
X163062840Y-108418609D01*
X163081626Y-108300000D01*
X163062840Y-108181391D01*
X163062838Y-108181388D01*
X163062838Y-108181385D01*
X163008323Y-108074394D01*
X162923405Y-107989476D01*
X162816414Y-107934961D01*
X162816409Y-107934960D01*
X162697800Y-107916174D01*
X162579190Y-107934960D01*
X162579185Y-107934961D01*
X162472194Y-107989476D01*
X162387276Y-108074394D01*
X162332761Y-108181385D01*
X162332760Y-108181390D01*
X162313974Y-108300000D01*
X161695682Y-108300000D01*
X163873174Y-106122508D01*
X163925500Y-106100834D01*
X163977826Y-106122508D01*
X163999500Y-106174834D01*
X163999500Y-141625500D01*
X163977826Y-141677826D01*
X163925500Y-141699500D01*
X132074500Y-141699500D01*
X132022174Y-141677826D01*
X132000500Y-141625500D01*
X132000500Y-138483716D01*
X133522500Y-138483716D01*
X133522500Y-138716283D01*
X133558880Y-138945979D01*
X133558883Y-138945992D01*
X133630745Y-139167160D01*
X133630747Y-139167164D01*
X133736327Y-139374378D01*
X133736328Y-139374379D01*
X133873026Y-139562527D01*
X134037473Y-139726974D01*
X134037476Y-139726976D01*
X134037477Y-139726977D01*
X134225621Y-139863672D01*
X134432835Y-139969252D01*
X134432839Y-139969254D01*
X134654007Y-140041116D01*
X134654013Y-140041117D01*
X134654018Y-140041119D01*
X134768868Y-140059309D01*
X134883716Y-140077500D01*
X134883718Y-140077500D01*
X135116284Y-140077500D01*
X135208162Y-140062947D01*
X135345982Y-140041119D01*
X135345989Y-140041116D01*
X135345992Y-140041116D01*
X135567160Y-139969254D01*
X135567160Y-139969253D01*
X135567163Y-139969253D01*
X135774379Y-139863672D01*
X135848004Y-139810180D01*
X138224500Y-139810180D01*
X138224500Y-141189820D01*
X138233233Y-141233722D01*
X138266496Y-141283504D01*
X138316278Y-141316767D01*
X138360180Y-141325500D01*
X138360181Y-141325500D01*
X139739819Y-141325500D01*
X139739820Y-141325500D01*
X139783722Y-141316767D01*
X139833504Y-141283504D01*
X139866767Y-141233722D01*
X139875500Y-141189820D01*
X139875500Y-140500000D01*
X140219953Y-140500000D01*
X140238093Y-140672581D01*
X140291711Y-140837605D01*
X140291716Y-140837615D01*
X140378475Y-140987885D01*
X140378478Y-140987890D01*
X140494592Y-141116847D01*
X140634969Y-141218838D01*
X140634976Y-141218842D01*
X140793501Y-141289422D01*
X140963236Y-141325500D01*
X140963237Y-141325500D01*
X141136763Y-141325500D01*
X141136764Y-141325500D01*
X141306499Y-141289422D01*
X141465024Y-141218842D01*
X141504971Y-141189819D01*
X141605407Y-141116847D01*
X141605406Y-141116847D01*
X141605410Y-141116845D01*
X141721522Y-140987889D01*
X141808286Y-140837611D01*
X141861908Y-140672576D01*
X141880047Y-140500000D01*
X142219953Y-140500000D01*
X142238093Y-140672581D01*
X142291711Y-140837605D01*
X142291716Y-140837615D01*
X142378475Y-140987885D01*
X142378478Y-140987890D01*
X142494592Y-141116847D01*
X142634969Y-141218838D01*
X142634976Y-141218842D01*
X142793501Y-141289422D01*
X142963236Y-141325500D01*
X142963237Y-141325500D01*
X143136763Y-141325500D01*
X143136764Y-141325500D01*
X143306499Y-141289422D01*
X143465024Y-141218842D01*
X143504971Y-141189819D01*
X143605407Y-141116847D01*
X143605406Y-141116847D01*
X143605410Y-141116845D01*
X143721522Y-140987889D01*
X143808286Y-140837611D01*
X143861908Y-140672576D01*
X143880047Y-140500000D01*
X144219953Y-140500000D01*
X144238093Y-140672581D01*
X144291711Y-140837605D01*
X144291716Y-140837615D01*
X144378475Y-140987885D01*
X144378478Y-140987890D01*
X144494592Y-141116847D01*
X144634969Y-141218838D01*
X144634976Y-141218842D01*
X144793501Y-141289422D01*
X144963236Y-141325500D01*
X144963237Y-141325500D01*
X145136763Y-141325500D01*
X145136764Y-141325500D01*
X145306499Y-141289422D01*
X145465024Y-141218842D01*
X145504971Y-141189819D01*
X145605407Y-141116847D01*
X145605406Y-141116847D01*
X145605410Y-141116845D01*
X145721522Y-140987889D01*
X145808286Y-140837611D01*
X145861908Y-140672576D01*
X145880047Y-140500000D01*
X146219953Y-140500000D01*
X146238093Y-140672581D01*
X146291711Y-140837605D01*
X146291716Y-140837615D01*
X146378475Y-140987885D01*
X146378478Y-140987890D01*
X146494592Y-141116847D01*
X146634969Y-141218838D01*
X146634976Y-141218842D01*
X146793501Y-141289422D01*
X146963236Y-141325500D01*
X146963237Y-141325500D01*
X147136763Y-141325500D01*
X147136764Y-141325500D01*
X147306499Y-141289422D01*
X147465024Y-141218842D01*
X147504971Y-141189819D01*
X147605407Y-141116847D01*
X147605406Y-141116847D01*
X147605410Y-141116845D01*
X147721522Y-140987889D01*
X147808286Y-140837611D01*
X147861908Y-140672576D01*
X147880047Y-140500000D01*
X148219953Y-140500000D01*
X148238093Y-140672581D01*
X148291711Y-140837605D01*
X148291716Y-140837615D01*
X148378475Y-140987885D01*
X148378478Y-140987890D01*
X148494592Y-141116847D01*
X148634969Y-141218838D01*
X148634976Y-141218842D01*
X148793501Y-141289422D01*
X148963236Y-141325500D01*
X148963237Y-141325500D01*
X149136763Y-141325500D01*
X149136764Y-141325500D01*
X149306499Y-141289422D01*
X149465024Y-141218842D01*
X149504971Y-141189819D01*
X149605407Y-141116847D01*
X149605406Y-141116847D01*
X149605410Y-141116845D01*
X149721522Y-140987889D01*
X149808286Y-140837611D01*
X149861908Y-140672576D01*
X149880047Y-140500000D01*
X150219953Y-140500000D01*
X150238093Y-140672581D01*
X150291711Y-140837605D01*
X150291716Y-140837615D01*
X150378475Y-140987885D01*
X150378478Y-140987890D01*
X150494592Y-141116847D01*
X150634969Y-141218838D01*
X150634976Y-141218842D01*
X150793501Y-141289422D01*
X150963236Y-141325500D01*
X150963237Y-141325500D01*
X151136763Y-141325500D01*
X151136764Y-141325500D01*
X151306499Y-141289422D01*
X151465024Y-141218842D01*
X151504971Y-141189819D01*
X151605407Y-141116847D01*
X151605406Y-141116847D01*
X151605410Y-141116845D01*
X151721522Y-140987889D01*
X151808286Y-140837611D01*
X151861908Y-140672576D01*
X151880047Y-140500000D01*
X152219953Y-140500000D01*
X152238093Y-140672581D01*
X152291711Y-140837605D01*
X152291716Y-140837615D01*
X152378475Y-140987885D01*
X152378478Y-140987890D01*
X152494592Y-141116847D01*
X152634969Y-141218838D01*
X152634976Y-141218842D01*
X152793501Y-141289422D01*
X152963236Y-141325500D01*
X152963237Y-141325500D01*
X153136763Y-141325500D01*
X153136764Y-141325500D01*
X153306499Y-141289422D01*
X153465024Y-141218842D01*
X153504971Y-141189819D01*
X153605407Y-141116847D01*
X153605406Y-141116847D01*
X153605410Y-141116845D01*
X153721522Y-140987889D01*
X153808286Y-140837611D01*
X153861908Y-140672576D01*
X153880047Y-140500000D01*
X154219953Y-140500000D01*
X154238093Y-140672581D01*
X154291711Y-140837605D01*
X154291716Y-140837615D01*
X154378475Y-140987885D01*
X154378478Y-140987890D01*
X154494592Y-141116847D01*
X154634969Y-141218838D01*
X154634976Y-141218842D01*
X154793501Y-141289422D01*
X154963236Y-141325500D01*
X154963237Y-141325500D01*
X155136763Y-141325500D01*
X155136764Y-141325500D01*
X155306499Y-141289422D01*
X155465024Y-141218842D01*
X155504971Y-141189819D01*
X155605407Y-141116847D01*
X155605406Y-141116847D01*
X155605410Y-141116845D01*
X155721522Y-140987889D01*
X155808286Y-140837611D01*
X155861908Y-140672576D01*
X155880047Y-140500000D01*
X156219953Y-140500000D01*
X156238093Y-140672581D01*
X156291711Y-140837605D01*
X156291716Y-140837615D01*
X156378475Y-140987885D01*
X156378478Y-140987890D01*
X156494592Y-141116847D01*
X156634969Y-141218838D01*
X156634976Y-141218842D01*
X156793501Y-141289422D01*
X156963236Y-141325500D01*
X156963237Y-141325500D01*
X157136763Y-141325500D01*
X157136764Y-141325500D01*
X157306499Y-141289422D01*
X157465024Y-141218842D01*
X157504971Y-141189819D01*
X157605407Y-141116847D01*
X157605406Y-141116847D01*
X157605410Y-141116845D01*
X157721522Y-140987889D01*
X157808286Y-140837611D01*
X157861908Y-140672576D01*
X157880047Y-140500000D01*
X157861908Y-140327424D01*
X157808286Y-140162389D01*
X157721522Y-140012111D01*
X157721521Y-140012109D01*
X157605407Y-139883152D01*
X157465030Y-139781161D01*
X157465023Y-139781157D01*
X157306500Y-139710578D01*
X157306498Y-139710577D01*
X157172841Y-139682168D01*
X157136764Y-139674500D01*
X156963236Y-139674500D01*
X156933483Y-139680824D01*
X156793501Y-139710577D01*
X156793499Y-139710578D01*
X156634978Y-139781156D01*
X156634973Y-139781159D01*
X156494592Y-139883152D01*
X156378478Y-140012109D01*
X156378475Y-140012114D01*
X156291716Y-140162384D01*
X156291711Y-140162394D01*
X156238093Y-140327418D01*
X156219953Y-140500000D01*
X155880047Y-140500000D01*
X155861908Y-140327424D01*
X155808286Y-140162389D01*
X155721522Y-140012111D01*
X155721521Y-140012109D01*
X155605407Y-139883152D01*
X155465030Y-139781161D01*
X155465023Y-139781157D01*
X155306500Y-139710578D01*
X155306498Y-139710577D01*
X155172841Y-139682168D01*
X155136764Y-139674500D01*
X154963236Y-139674500D01*
X154933483Y-139680824D01*
X154793501Y-139710577D01*
X154793499Y-139710578D01*
X154634978Y-139781156D01*
X154634973Y-139781159D01*
X154494592Y-139883152D01*
X154378478Y-140012109D01*
X154378475Y-140012114D01*
X154291716Y-140162384D01*
X154291711Y-140162394D01*
X154238093Y-140327418D01*
X154219953Y-140500000D01*
X153880047Y-140500000D01*
X153861908Y-140327424D01*
X153808286Y-140162389D01*
X153721522Y-140012111D01*
X153721521Y-140012109D01*
X153605407Y-139883152D01*
X153465030Y-139781161D01*
X153465023Y-139781157D01*
X153306500Y-139710578D01*
X153306498Y-139710577D01*
X153172841Y-139682168D01*
X153136764Y-139674500D01*
X152963236Y-139674500D01*
X152933483Y-139680824D01*
X152793501Y-139710577D01*
X152793499Y-139710578D01*
X152634978Y-139781156D01*
X152634973Y-139781159D01*
X152494592Y-139883152D01*
X152378478Y-140012109D01*
X152378475Y-140012114D01*
X152291716Y-140162384D01*
X152291711Y-140162394D01*
X152238093Y-140327418D01*
X152219953Y-140500000D01*
X151880047Y-140500000D01*
X151861908Y-140327424D01*
X151808286Y-140162389D01*
X151721522Y-140012111D01*
X151721521Y-140012109D01*
X151605407Y-139883152D01*
X151465030Y-139781161D01*
X151465023Y-139781157D01*
X151306500Y-139710578D01*
X151306498Y-139710577D01*
X151172841Y-139682168D01*
X151136764Y-139674500D01*
X150963236Y-139674500D01*
X150933483Y-139680824D01*
X150793501Y-139710577D01*
X150793499Y-139710578D01*
X150634978Y-139781156D01*
X150634973Y-139781159D01*
X150494592Y-139883152D01*
X150378478Y-140012109D01*
X150378475Y-140012114D01*
X150291716Y-140162384D01*
X150291711Y-140162394D01*
X150238093Y-140327418D01*
X150219953Y-140500000D01*
X149880047Y-140500000D01*
X149861908Y-140327424D01*
X149808286Y-140162389D01*
X149721522Y-140012111D01*
X149721521Y-140012109D01*
X149605407Y-139883152D01*
X149465030Y-139781161D01*
X149465023Y-139781157D01*
X149306500Y-139710578D01*
X149306498Y-139710577D01*
X149172841Y-139682168D01*
X149136764Y-139674500D01*
X148963236Y-139674500D01*
X148933483Y-139680824D01*
X148793501Y-139710577D01*
X148793499Y-139710578D01*
X148634978Y-139781156D01*
X148634973Y-139781159D01*
X148494592Y-139883152D01*
X148378478Y-140012109D01*
X148378475Y-140012114D01*
X148291716Y-140162384D01*
X148291711Y-140162394D01*
X148238093Y-140327418D01*
X148219953Y-140500000D01*
X147880047Y-140500000D01*
X147861908Y-140327424D01*
X147808286Y-140162389D01*
X147721522Y-140012111D01*
X147721521Y-140012109D01*
X147605407Y-139883152D01*
X147465030Y-139781161D01*
X147465023Y-139781157D01*
X147306500Y-139710578D01*
X147306498Y-139710577D01*
X147172841Y-139682168D01*
X147136764Y-139674500D01*
X146963236Y-139674500D01*
X146933483Y-139680824D01*
X146793501Y-139710577D01*
X146793499Y-139710578D01*
X146634978Y-139781156D01*
X146634973Y-139781159D01*
X146494592Y-139883152D01*
X146378478Y-140012109D01*
X146378475Y-140012114D01*
X146291716Y-140162384D01*
X146291711Y-140162394D01*
X146238093Y-140327418D01*
X146219953Y-140500000D01*
X145880047Y-140500000D01*
X145861908Y-140327424D01*
X145808286Y-140162389D01*
X145721522Y-140012111D01*
X145721521Y-140012109D01*
X145605407Y-139883152D01*
X145465030Y-139781161D01*
X145465023Y-139781157D01*
X145306500Y-139710578D01*
X145306498Y-139710577D01*
X145172841Y-139682168D01*
X145136764Y-139674500D01*
X144963236Y-139674500D01*
X144933483Y-139680824D01*
X144793501Y-139710577D01*
X144793499Y-139710578D01*
X144634978Y-139781156D01*
X144634973Y-139781159D01*
X144494592Y-139883152D01*
X144378478Y-140012109D01*
X144378475Y-140012114D01*
X144291716Y-140162384D01*
X144291711Y-140162394D01*
X144238093Y-140327418D01*
X144219953Y-140500000D01*
X143880047Y-140500000D01*
X143861908Y-140327424D01*
X143808286Y-140162389D01*
X143721522Y-140012111D01*
X143721521Y-140012109D01*
X143605407Y-139883152D01*
X143465030Y-139781161D01*
X143465023Y-139781157D01*
X143306500Y-139710578D01*
X143306498Y-139710577D01*
X143172841Y-139682168D01*
X143136764Y-139674500D01*
X142963236Y-139674500D01*
X142933483Y-139680824D01*
X142793501Y-139710577D01*
X142793499Y-139710578D01*
X142634978Y-139781156D01*
X142634973Y-139781159D01*
X142494592Y-139883152D01*
X142378478Y-140012109D01*
X142378475Y-140012114D01*
X142291716Y-140162384D01*
X142291711Y-140162394D01*
X142238093Y-140327418D01*
X142219953Y-140500000D01*
X141880047Y-140500000D01*
X141861908Y-140327424D01*
X141808286Y-140162389D01*
X141721522Y-140012111D01*
X141721521Y-140012109D01*
X141605407Y-139883152D01*
X141465030Y-139781161D01*
X141465023Y-139781157D01*
X141306500Y-139710578D01*
X141306498Y-139710577D01*
X141172841Y-139682168D01*
X141136764Y-139674500D01*
X140963236Y-139674500D01*
X140933483Y-139680824D01*
X140793501Y-139710577D01*
X140793499Y-139710578D01*
X140634978Y-139781156D01*
X140634973Y-139781159D01*
X140494592Y-139883152D01*
X140378478Y-140012109D01*
X140378475Y-140012114D01*
X140291716Y-140162384D01*
X140291711Y-140162394D01*
X140238093Y-140327418D01*
X140219953Y-140500000D01*
X139875500Y-140500000D01*
X139875500Y-139810180D01*
X139866767Y-139766278D01*
X139833504Y-139716496D01*
X139783722Y-139683233D01*
X139739820Y-139674500D01*
X138360180Y-139674500D01*
X138338229Y-139678866D01*
X138316277Y-139683233D01*
X138266496Y-139716495D01*
X138266495Y-139716496D01*
X138233233Y-139766277D01*
X138233233Y-139766278D01*
X138224500Y-139810180D01*
X135848004Y-139810180D01*
X135962527Y-139726974D01*
X136126974Y-139562527D01*
X136263672Y-139374379D01*
X136369253Y-139167163D01*
X136441119Y-138945982D01*
X136477500Y-138716282D01*
X136477500Y-138483718D01*
X136477500Y-138483716D01*
X159522500Y-138483716D01*
X159522500Y-138716283D01*
X159558880Y-138945979D01*
X159558883Y-138945992D01*
X159630745Y-139167160D01*
X159630747Y-139167164D01*
X159736327Y-139374378D01*
X159736328Y-139374379D01*
X159873026Y-139562527D01*
X160037473Y-139726974D01*
X160037476Y-139726976D01*
X160037477Y-139726977D01*
X160225621Y-139863672D01*
X160432835Y-139969252D01*
X160432839Y-139969254D01*
X160654007Y-140041116D01*
X160654013Y-140041117D01*
X160654018Y-140041119D01*
X160768868Y-140059309D01*
X160883716Y-140077500D01*
X160883718Y-140077500D01*
X161116284Y-140077500D01*
X161208162Y-140062947D01*
X161345982Y-140041119D01*
X161345989Y-140041116D01*
X161345992Y-140041116D01*
X161567160Y-139969254D01*
X161567160Y-139969253D01*
X161567163Y-139969253D01*
X161774379Y-139863672D01*
X161962527Y-139726974D01*
X162126974Y-139562527D01*
X162263672Y-139374379D01*
X162369253Y-139167163D01*
X162441119Y-138945982D01*
X162477500Y-138716282D01*
X162477500Y-138483718D01*
X162441119Y-138254018D01*
X162441117Y-138254013D01*
X162441116Y-138254007D01*
X162369254Y-138032839D01*
X162369252Y-138032835D01*
X162263672Y-137825621D01*
X162126977Y-137637477D01*
X162126976Y-137637476D01*
X162126974Y-137637473D01*
X161962527Y-137473026D01*
X161962524Y-137473023D01*
X161962522Y-137473022D01*
X161774378Y-137336327D01*
X161567164Y-137230747D01*
X161567160Y-137230745D01*
X161345992Y-137158883D01*
X161345979Y-137158880D01*
X161116284Y-137122500D01*
X161116282Y-137122500D01*
X160883718Y-137122500D01*
X160883716Y-137122500D01*
X160654020Y-137158880D01*
X160654007Y-137158883D01*
X160432839Y-137230745D01*
X160432835Y-137230747D01*
X160225621Y-137336327D01*
X160037477Y-137473022D01*
X159873022Y-137637477D01*
X159736327Y-137825621D01*
X159630747Y-138032835D01*
X159630745Y-138032839D01*
X159558883Y-138254007D01*
X159558880Y-138254020D01*
X159522500Y-138483716D01*
X136477500Y-138483716D01*
X136441119Y-138254018D01*
X136441117Y-138254013D01*
X136441116Y-138254007D01*
X136369254Y-138032839D01*
X136369252Y-138032835D01*
X136263672Y-137825621D01*
X136126977Y-137637477D01*
X136126976Y-137637476D01*
X136126974Y-137637473D01*
X135962527Y-137473026D01*
X135962524Y-137473023D01*
X135962522Y-137473022D01*
X135774378Y-137336327D01*
X135567164Y-137230747D01*
X135567160Y-137230745D01*
X135345992Y-137158883D01*
X135345979Y-137158880D01*
X135116284Y-137122500D01*
X135116282Y-137122500D01*
X134883718Y-137122500D01*
X134883716Y-137122500D01*
X134654020Y-137158880D01*
X134654007Y-137158883D01*
X134432839Y-137230745D01*
X134432835Y-137230747D01*
X134225621Y-137336327D01*
X134037477Y-137473022D01*
X133873022Y-137637477D01*
X133736327Y-137825621D01*
X133630747Y-138032835D01*
X133630745Y-138032839D01*
X133558883Y-138254007D01*
X133558880Y-138254020D01*
X133522500Y-138483716D01*
X132000500Y-138483716D01*
X132000500Y-123268482D01*
X132399500Y-123268482D01*
X132399500Y-126731517D01*
X132414353Y-126825303D01*
X132414354Y-126825305D01*
X132471950Y-126938341D01*
X132561659Y-127028050D01*
X132674697Y-127085646D01*
X132768483Y-127100500D01*
X136231516Y-127100499D01*
X136231517Y-127100499D01*
X136325303Y-127085646D01*
X136325305Y-127085645D01*
X136327418Y-127084568D01*
X136438341Y-127028050D01*
X136528050Y-126938341D01*
X136585646Y-126825303D01*
X136600500Y-126731517D01*
X136600499Y-123268484D01*
X136585646Y-123174697D01*
X136585646Y-123174696D01*
X136585645Y-123174694D01*
X136528049Y-123061658D01*
X136438342Y-122971951D01*
X136438341Y-122971950D01*
X136325303Y-122914354D01*
X136325301Y-122914353D01*
X136325300Y-122914353D01*
X136231517Y-122899500D01*
X132768482Y-122899500D01*
X132674696Y-122914353D01*
X132674694Y-122914354D01*
X132561658Y-122971950D01*
X132471951Y-123061657D01*
X132414353Y-123174699D01*
X132399500Y-123268482D01*
X132000500Y-123268482D01*
X132000500Y-120900000D01*
X139163974Y-120900000D01*
X139182760Y-121018609D01*
X139182761Y-121018614D01*
X139237276Y-121125605D01*
X139322194Y-121210523D01*
X139429185Y-121265038D01*
X139429188Y-121265038D01*
X139429191Y-121265040D01*
X139547800Y-121283826D01*
X139666409Y-121265040D01*
X139666412Y-121265038D01*
X139666414Y-121265038D01*
X139773405Y-121210523D01*
X139773404Y-121210523D01*
X139773407Y-121210522D01*
X139858322Y-121125607D01*
X139860155Y-121122008D01*
X139912838Y-121018614D01*
X139912838Y-121018612D01*
X139912840Y-121018609D01*
X139931626Y-120900000D01*
X139912840Y-120781391D01*
X139912838Y-120781388D01*
X139912838Y-120781385D01*
X139858323Y-120674394D01*
X139773405Y-120589476D01*
X139666414Y-120534961D01*
X139666409Y-120534960D01*
X139547800Y-120516174D01*
X139429190Y-120534960D01*
X139429185Y-120534961D01*
X139322194Y-120589476D01*
X139237276Y-120674394D01*
X139182761Y-120781385D01*
X139182760Y-120781390D01*
X139163974Y-120900000D01*
X132000500Y-120900000D01*
X132000500Y-118295180D01*
X161499500Y-118295180D01*
X161499500Y-120024820D01*
X161508233Y-120068722D01*
X161541496Y-120118504D01*
X161591278Y-120151767D01*
X161635180Y-120160500D01*
X161635181Y-120160500D01*
X163364819Y-120160500D01*
X163364820Y-120160500D01*
X163408722Y-120151767D01*
X163458504Y-120118504D01*
X163491767Y-120068722D01*
X163500500Y-120024820D01*
X163500500Y-118295180D01*
X163491767Y-118251278D01*
X163458504Y-118201496D01*
X163408722Y-118168233D01*
X163364820Y-118159500D01*
X161635180Y-118159500D01*
X161613229Y-118163866D01*
X161591277Y-118168233D01*
X161541496Y-118201495D01*
X161541495Y-118201496D01*
X161508233Y-118251277D01*
X161508233Y-118251278D01*
X161499500Y-118295180D01*
X132000500Y-118295180D01*
X132000500Y-115500000D01*
X144663974Y-115500000D01*
X144682760Y-115618609D01*
X144682761Y-115618614D01*
X144737276Y-115725605D01*
X144822194Y-115810523D01*
X144929185Y-115865038D01*
X144929188Y-115865038D01*
X144929191Y-115865040D01*
X145047800Y-115883826D01*
X145166409Y-115865040D01*
X145166412Y-115865038D01*
X145166414Y-115865038D01*
X145273405Y-115810523D01*
X145273404Y-115810523D01*
X145273407Y-115810522D01*
X145358322Y-115725607D01*
X145360155Y-115722008D01*
X145412838Y-115618614D01*
X145412838Y-115618612D01*
X145412840Y-115618609D01*
X145431626Y-115500000D01*
X145412840Y-115381391D01*
X145412838Y-115381388D01*
X145412838Y-115381385D01*
X145358323Y-115274394D01*
X145273405Y-115189476D01*
X145166414Y-115134961D01*
X145166409Y-115134960D01*
X145047800Y-115116174D01*
X144929190Y-115134960D01*
X144929185Y-115134961D01*
X144822194Y-115189476D01*
X144737276Y-115274394D01*
X144682761Y-115381385D01*
X144682760Y-115381390D01*
X144663974Y-115500000D01*
X132000500Y-115500000D01*
X132000500Y-114800000D01*
X161813974Y-114800000D01*
X161832760Y-114918609D01*
X161832761Y-114918614D01*
X161887276Y-115025605D01*
X161972194Y-115110523D01*
X162079185Y-115165038D01*
X162079188Y-115165038D01*
X162079191Y-115165040D01*
X162197800Y-115183826D01*
X162316409Y-115165040D01*
X162316412Y-115165038D01*
X162316414Y-115165038D01*
X162423405Y-115110523D01*
X162423404Y-115110523D01*
X162423407Y-115110522D01*
X162508322Y-115025607D01*
X162510155Y-115022008D01*
X162562838Y-114918614D01*
X162562838Y-114918612D01*
X162562840Y-114918609D01*
X162581626Y-114800000D01*
X162562840Y-114681391D01*
X162562838Y-114681388D01*
X162562838Y-114681386D01*
X162527834Y-114612686D01*
X162523390Y-114556224D01*
X162560173Y-114513157D01*
X162616635Y-114508713D01*
X162627363Y-114513157D01*
X162729186Y-114565038D01*
X162729188Y-114565038D01*
X162729191Y-114565040D01*
X162847800Y-114583826D01*
X162966409Y-114565040D01*
X162966412Y-114565038D01*
X162966414Y-114565038D01*
X163073405Y-114510523D01*
X163073404Y-114510523D01*
X163073407Y-114510522D01*
X163158322Y-114425607D01*
X163177834Y-114387313D01*
X163212838Y-114318614D01*
X163212838Y-114318612D01*
X163212840Y-114318609D01*
X163231626Y-114200000D01*
X163212840Y-114081391D01*
X163212838Y-114081388D01*
X163212838Y-114081385D01*
X163158323Y-113974394D01*
X163073405Y-113889476D01*
X162966414Y-113834961D01*
X162966409Y-113834960D01*
X162847800Y-113816174D01*
X162729190Y-113834960D01*
X162729185Y-113834961D01*
X162622194Y-113889476D01*
X162537276Y-113974394D01*
X162482761Y-114081385D01*
X162482760Y-114081390D01*
X162463974Y-114200000D01*
X162482759Y-114318609D01*
X162517766Y-114387313D01*
X162522209Y-114443776D01*
X162485426Y-114486843D01*
X162428963Y-114491286D01*
X162418236Y-114486843D01*
X162316409Y-114434959D01*
X162197800Y-114416174D01*
X162079190Y-114434960D01*
X162079185Y-114434961D01*
X161972194Y-114489476D01*
X161887276Y-114574394D01*
X161832761Y-114681385D01*
X161832760Y-114681390D01*
X161813974Y-114800000D01*
X132000500Y-114800000D01*
X132000500Y-107660180D01*
X132599500Y-107660180D01*
X132599500Y-109389820D01*
X132608233Y-109433722D01*
X132641496Y-109483504D01*
X132691278Y-109516767D01*
X132735180Y-109525500D01*
X132735181Y-109525500D01*
X134464819Y-109525500D01*
X134464820Y-109525500D01*
X134508722Y-109516767D01*
X134558504Y-109483504D01*
X134591767Y-109433722D01*
X134600500Y-109389820D01*
X134600500Y-107660180D01*
X134591767Y-107616278D01*
X134558504Y-107566496D01*
X134508722Y-107533233D01*
X134464820Y-107524500D01*
X132735180Y-107524500D01*
X132713229Y-107528866D01*
X132691277Y-107533233D01*
X132641496Y-107566495D01*
X132641495Y-107566496D01*
X132608233Y-107616277D01*
X132608233Y-107616278D01*
X132599500Y-107660180D01*
X132000500Y-107660180D01*
X132000500Y-105985000D01*
X132594659Y-105985000D01*
X132613976Y-106181133D01*
X132671187Y-106369731D01*
X132758776Y-106533597D01*
X132764090Y-106543538D01*
X132889117Y-106695883D01*
X133041462Y-106820910D01*
X133118426Y-106862048D01*
X133215268Y-106913812D01*
X133215270Y-106913812D01*
X133215273Y-106913814D01*
X133403868Y-106971024D01*
X133600000Y-106990341D01*
X133796132Y-106971024D01*
X133984727Y-106913814D01*
X134158538Y-106820910D01*
X134310883Y-106695883D01*
X134435910Y-106543538D01*
X134528814Y-106369727D01*
X134586024Y-106181132D01*
X134605341Y-105985000D01*
X134586024Y-105788868D01*
X134528814Y-105600273D01*
X134528812Y-105600270D01*
X134528812Y-105600268D01*
X134477048Y-105503426D01*
X134435910Y-105426462D01*
X134310883Y-105274117D01*
X134158538Y-105149090D01*
X134148597Y-105143776D01*
X133984731Y-105056187D01*
X133796133Y-104998976D01*
X133600000Y-104979659D01*
X133403866Y-104998976D01*
X133215268Y-105056187D01*
X133041463Y-105149089D01*
X132889117Y-105274117D01*
X132764089Y-105426463D01*
X132671187Y-105600268D01*
X132613976Y-105788866D01*
X132594659Y-105985000D01*
X132000500Y-105985000D01*
X132000500Y-102315000D01*
X132594659Y-102315000D01*
X132613976Y-102511133D01*
X132671187Y-102699731D01*
X132758776Y-102863597D01*
X132764090Y-102873538D01*
X132889117Y-103025883D01*
X133041462Y-103150910D01*
X133118426Y-103192048D01*
X133215268Y-103243812D01*
X133215270Y-103243812D01*
X133215273Y-103243814D01*
X133403868Y-103301024D01*
X133600000Y-103320341D01*
X133796132Y-103301024D01*
X133984727Y-103243814D01*
X134158538Y-103150910D01*
X134310883Y-103025883D01*
X134435910Y-102873538D01*
X134528814Y-102699727D01*
X134586024Y-102511132D01*
X134605341Y-102315000D01*
X134586024Y-102118868D01*
X134528814Y-101930273D01*
X134528812Y-101930270D01*
X134528812Y-101930268D01*
X134477048Y-101833426D01*
X134435910Y-101756462D01*
X134310883Y-101604117D01*
X134158538Y-101479090D01*
X134148597Y-101473776D01*
X133984731Y-101386187D01*
X133796133Y-101328976D01*
X133600000Y-101309659D01*
X133403866Y-101328976D01*
X133215268Y-101386187D01*
X133041463Y-101479089D01*
X132889117Y-101604117D01*
X132764089Y-101756463D01*
X132671187Y-101930268D01*
X132613976Y-102118866D01*
X132594659Y-102315000D01*
X132000500Y-102315000D01*
X132000500Y-98910180D01*
X132599500Y-98910180D01*
X132599500Y-100639819D01*
X132608233Y-100683722D01*
X132626380Y-100710882D01*
X132641496Y-100733504D01*
X132691278Y-100766767D01*
X132735180Y-100775500D01*
X132735181Y-100775500D01*
X134464819Y-100775500D01*
X134464820Y-100775500D01*
X134508722Y-100766767D01*
X134558504Y-100733504D01*
X134591767Y-100683722D01*
X134600500Y-100639820D01*
X134600500Y-100000000D01*
X160994659Y-100000000D01*
X161013976Y-100196133D01*
X161071187Y-100384731D01*
X161158776Y-100548597D01*
X161164090Y-100558538D01*
X161289117Y-100710883D01*
X161441462Y-100835910D01*
X161518426Y-100877048D01*
X161615268Y-100928812D01*
X161615270Y-100928812D01*
X161615273Y-100928814D01*
X161803868Y-100986024D01*
X162000000Y-101005341D01*
X162196132Y-100986024D01*
X162384727Y-100928814D01*
X162558538Y-100835910D01*
X162710883Y-100710883D01*
X162835910Y-100558538D01*
X162928814Y-100384727D01*
X162986024Y-100196132D01*
X163005341Y-100000000D01*
X162986024Y-99803868D01*
X162928814Y-99615273D01*
X162928812Y-99615270D01*
X162928812Y-99615268D01*
X162877048Y-99518426D01*
X162835910Y-99441462D01*
X162710883Y-99289117D01*
X162558538Y-99164090D01*
X162548597Y-99158776D01*
X162384731Y-99071187D01*
X162196133Y-99013976D01*
X162000000Y-98994659D01*
X161803866Y-99013976D01*
X161615268Y-99071187D01*
X161441463Y-99164089D01*
X161289117Y-99289117D01*
X161164089Y-99441463D01*
X161071187Y-99615268D01*
X161013976Y-99803866D01*
X160994659Y-100000000D01*
X134600500Y-100000000D01*
X134600500Y-98910180D01*
X134591767Y-98866278D01*
X134558504Y-98816496D01*
X134508722Y-98783233D01*
X134464820Y-98774500D01*
X132735180Y-98774500D01*
X132713229Y-98778866D01*
X132691277Y-98783233D01*
X132641496Y-98816495D01*
X132641495Y-98816496D01*
X132608233Y-98866277D01*
X132599500Y-98910180D01*
X132000500Y-98910180D01*
X132000500Y-96900000D01*
X157066174Y-96900000D01*
X157084960Y-97018609D01*
X157084961Y-97018614D01*
X157139476Y-97125605D01*
X157224394Y-97210523D01*
X157331385Y-97265038D01*
X157331388Y-97265038D01*
X157331391Y-97265040D01*
X157450000Y-97283826D01*
X157568609Y-97265040D01*
X157568612Y-97265038D01*
X157568614Y-97265038D01*
X157675605Y-97210523D01*
X157675604Y-97210523D01*
X157675607Y-97210522D01*
X157760522Y-97125607D01*
X157762355Y-97122008D01*
X157815038Y-97018614D01*
X157815038Y-97018612D01*
X157815040Y-97018609D01*
X157833826Y-96900000D01*
X157815040Y-96781391D01*
X157815038Y-96781388D01*
X157815038Y-96781385D01*
X157760523Y-96674394D01*
X157675605Y-96589476D01*
X157568614Y-96534961D01*
X157568609Y-96534960D01*
X157450000Y-96516174D01*
X157331390Y-96534960D01*
X157331385Y-96534961D01*
X157224394Y-96589476D01*
X157139476Y-96674394D01*
X157084961Y-96781385D01*
X157084960Y-96781390D01*
X157066174Y-96900000D01*
X132000500Y-96900000D01*
X132000500Y-95531502D01*
X159566174Y-95531502D01*
X159584960Y-95650111D01*
X159584961Y-95650116D01*
X159639476Y-95757107D01*
X159724394Y-95842025D01*
X159831385Y-95896540D01*
X159831388Y-95896540D01*
X159831391Y-95896542D01*
X159950000Y-95915328D01*
X160068609Y-95896542D01*
X160068612Y-95896540D01*
X160068614Y-95896540D01*
X160175605Y-95842025D01*
X160175604Y-95842025D01*
X160175607Y-95842024D01*
X160260522Y-95757109D01*
X160262355Y-95753510D01*
X160315038Y-95650116D01*
X160315038Y-95650114D01*
X160315040Y-95650111D01*
X160333826Y-95531502D01*
X160315040Y-95412893D01*
X160315038Y-95412890D01*
X160315038Y-95412887D01*
X160260523Y-95305896D01*
X160175605Y-95220978D01*
X160068614Y-95166463D01*
X160068609Y-95166462D01*
X159950000Y-95147676D01*
X159831390Y-95166462D01*
X159831385Y-95166463D01*
X159724394Y-95220978D01*
X159639476Y-95305896D01*
X159584961Y-95412887D01*
X159584960Y-95412892D01*
X159566174Y-95531502D01*
X132000500Y-95531502D01*
X132000500Y-92200000D01*
X147803674Y-92200000D01*
X147822460Y-92318609D01*
X147822461Y-92318614D01*
X147876976Y-92425605D01*
X147961894Y-92510523D01*
X148068885Y-92565038D01*
X148068888Y-92565038D01*
X148068891Y-92565040D01*
X148187500Y-92583826D01*
X148306109Y-92565040D01*
X148306112Y-92565038D01*
X148306114Y-92565038D01*
X148413105Y-92510523D01*
X148413104Y-92510523D01*
X148413107Y-92510522D01*
X148498022Y-92425607D01*
X148501588Y-92418609D01*
X148552538Y-92318614D01*
X148552538Y-92318612D01*
X148552540Y-92318609D01*
X148555487Y-92300000D01*
X155766174Y-92300000D01*
X155784960Y-92418609D01*
X155784961Y-92418614D01*
X155839476Y-92525605D01*
X155924394Y-92610523D01*
X156031385Y-92665038D01*
X156031388Y-92665038D01*
X156031391Y-92665040D01*
X156150000Y-92683826D01*
X156268609Y-92665040D01*
X156268612Y-92665038D01*
X156268614Y-92665038D01*
X156375605Y-92610523D01*
X156375604Y-92610523D01*
X156375607Y-92610522D01*
X156460522Y-92525607D01*
X156468208Y-92510522D01*
X156515038Y-92418614D01*
X156515038Y-92418612D01*
X156515040Y-92418609D01*
X156533826Y-92300000D01*
X156515040Y-92181391D01*
X156515038Y-92181388D01*
X156515038Y-92181385D01*
X156460523Y-92074394D01*
X156375605Y-91989476D01*
X156268614Y-91934961D01*
X156268609Y-91934960D01*
X156150000Y-91916174D01*
X156031390Y-91934960D01*
X156031385Y-91934961D01*
X155924394Y-91989476D01*
X155839476Y-92074394D01*
X155784961Y-92181385D01*
X155784960Y-92181390D01*
X155766174Y-92300000D01*
X148555487Y-92300000D01*
X148571326Y-92200000D01*
X148552540Y-92081391D01*
X148552538Y-92081388D01*
X148552538Y-92081385D01*
X148498023Y-91974394D01*
X148413105Y-91889476D01*
X148306114Y-91834961D01*
X148306109Y-91834960D01*
X148187500Y-91816174D01*
X148068890Y-91834960D01*
X148068885Y-91834961D01*
X147961894Y-91889476D01*
X147876976Y-91974394D01*
X147822461Y-92081385D01*
X147822460Y-92081390D01*
X147803674Y-92200000D01*
X132000500Y-92200000D01*
X132000500Y-91550000D01*
X150166174Y-91550000D01*
X150184960Y-91668609D01*
X150184961Y-91668614D01*
X150239476Y-91775605D01*
X150324394Y-91860523D01*
X150431385Y-91915038D01*
X150431388Y-91915038D01*
X150431391Y-91915040D01*
X150550000Y-91933826D01*
X150668609Y-91915040D01*
X150668612Y-91915038D01*
X150668614Y-91915038D01*
X150775605Y-91860523D01*
X150775604Y-91860523D01*
X150775607Y-91860522D01*
X150860522Y-91775607D01*
X150862355Y-91772008D01*
X150915038Y-91668614D01*
X150915038Y-91668612D01*
X150915040Y-91668609D01*
X150933826Y-91550000D01*
X150915040Y-91431391D01*
X150915038Y-91431388D01*
X150915038Y-91431385D01*
X150860523Y-91324394D01*
X150775605Y-91239476D01*
X150668614Y-91184961D01*
X150668609Y-91184960D01*
X150550000Y-91166174D01*
X150431390Y-91184960D01*
X150431385Y-91184961D01*
X150324394Y-91239476D01*
X150239476Y-91324394D01*
X150184961Y-91431385D01*
X150184960Y-91431390D01*
X150166174Y-91550000D01*
X132000500Y-91550000D01*
X132000500Y-87685180D01*
X132299500Y-87685180D01*
X132299500Y-89714820D01*
X132308233Y-89758722D01*
X132341496Y-89808504D01*
X132391278Y-89841767D01*
X132435180Y-89850500D01*
X132435181Y-89850500D01*
X134464819Y-89850500D01*
X134464820Y-89850500D01*
X134508722Y-89841767D01*
X134558504Y-89808504D01*
X134591767Y-89758722D01*
X134600500Y-89714820D01*
X134600500Y-88430600D01*
X141816174Y-88430600D01*
X141834960Y-88549209D01*
X141834961Y-88549214D01*
X141889476Y-88656205D01*
X141974394Y-88741123D01*
X142081385Y-88795638D01*
X142081391Y-88795640D01*
X142114859Y-88800940D01*
X142163150Y-88830531D01*
X142176373Y-88885603D01*
X142176373Y-88885605D01*
X142166174Y-88950000D01*
X142179618Y-89034879D01*
X142184960Y-89068609D01*
X142184961Y-89068614D01*
X142239476Y-89175605D01*
X142324394Y-89260523D01*
X142431385Y-89315038D01*
X142431388Y-89315038D01*
X142431391Y-89315040D01*
X142550000Y-89333826D01*
X142597844Y-89326248D01*
X142652916Y-89339470D01*
X142682509Y-89387760D01*
X142694587Y-89464013D01*
X142694588Y-89464017D01*
X142749103Y-89571008D01*
X142834021Y-89655926D01*
X142941012Y-89710441D01*
X142941015Y-89710441D01*
X142941018Y-89710443D01*
X142984370Y-89717309D01*
X143032661Y-89746902D01*
X143045883Y-89801974D01*
X143038729Y-89823992D01*
X143034960Y-89831387D01*
X143034960Y-89831390D01*
X143016174Y-89950000D01*
X143034960Y-90068609D01*
X143034961Y-90068614D01*
X143089476Y-90175605D01*
X143174394Y-90260523D01*
X143281385Y-90315038D01*
X143281388Y-90315038D01*
X143281391Y-90315040D01*
X143400000Y-90333826D01*
X143518609Y-90315040D01*
X143518612Y-90315038D01*
X143518614Y-90315038D01*
X143625605Y-90260523D01*
X143625604Y-90260523D01*
X143625607Y-90260522D01*
X143710522Y-90175607D01*
X143757287Y-90083826D01*
X143765038Y-90068614D01*
X143765038Y-90068612D01*
X143765040Y-90068609D01*
X143783826Y-89950000D01*
X143765040Y-89831391D01*
X143765038Y-89831387D01*
X143765038Y-89831385D01*
X143710523Y-89724394D01*
X143625605Y-89639476D01*
X143518614Y-89584961D01*
X143518610Y-89584960D01*
X143475255Y-89578093D01*
X143426964Y-89548499D01*
X143413743Y-89493427D01*
X143420898Y-89471408D01*
X143424667Y-89464012D01*
X143443453Y-89345403D01*
X143424667Y-89226794D01*
X143424665Y-89226791D01*
X143424665Y-89226788D01*
X143411016Y-89200000D01*
X147516174Y-89200000D01*
X147534960Y-89318609D01*
X147534961Y-89318614D01*
X147589476Y-89425605D01*
X147674394Y-89510523D01*
X147781385Y-89565038D01*
X147781388Y-89565038D01*
X147781391Y-89565040D01*
X147900000Y-89583826D01*
X147944556Y-89576769D01*
X151939405Y-89576769D01*
X151958191Y-89695378D01*
X151958192Y-89695383D01*
X152012707Y-89802374D01*
X152097625Y-89887292D01*
X152204616Y-89941807D01*
X152204619Y-89941807D01*
X152204622Y-89941809D01*
X152323231Y-89960595D01*
X152441840Y-89941809D01*
X152441843Y-89941807D01*
X152441845Y-89941807D01*
X152548836Y-89887292D01*
X152548835Y-89887292D01*
X152548838Y-89887291D01*
X152633753Y-89802376D01*
X152655996Y-89758722D01*
X152685917Y-89700000D01*
X153816174Y-89700000D01*
X153834960Y-89818609D01*
X153834961Y-89818614D01*
X153889476Y-89925605D01*
X153974394Y-90010523D01*
X154081385Y-90065038D01*
X154081388Y-90065038D01*
X154081391Y-90065040D01*
X154200000Y-90083826D01*
X154318609Y-90065040D01*
X154318612Y-90065038D01*
X154318614Y-90065038D01*
X154425605Y-90010523D01*
X154425604Y-90010523D01*
X154425607Y-90010522D01*
X154510522Y-89925607D01*
X154512355Y-89922008D01*
X154565038Y-89818614D01*
X154565038Y-89818612D01*
X154565040Y-89818609D01*
X154583826Y-89700000D01*
X154565040Y-89581391D01*
X154565038Y-89581388D01*
X154565038Y-89581385D01*
X154510523Y-89474394D01*
X154425605Y-89389476D01*
X154318614Y-89334961D01*
X154318609Y-89334960D01*
X154200000Y-89316174D01*
X154081390Y-89334960D01*
X154081385Y-89334961D01*
X153974394Y-89389476D01*
X153889476Y-89474394D01*
X153834961Y-89581385D01*
X153834960Y-89581390D01*
X153816174Y-89700000D01*
X152685917Y-89700000D01*
X152688269Y-89695383D01*
X152688269Y-89695381D01*
X152688271Y-89695378D01*
X152707057Y-89576769D01*
X152688271Y-89458160D01*
X152688269Y-89458157D01*
X152688269Y-89458154D01*
X152633754Y-89351163D01*
X152548836Y-89266245D01*
X152441845Y-89211730D01*
X152441840Y-89211729D01*
X152323231Y-89192943D01*
X152204621Y-89211729D01*
X152204616Y-89211730D01*
X152097625Y-89266245D01*
X152012707Y-89351163D01*
X151958192Y-89458154D01*
X151958191Y-89458159D01*
X151939405Y-89576769D01*
X147944556Y-89576769D01*
X148018609Y-89565040D01*
X148018612Y-89565038D01*
X148018614Y-89565038D01*
X148125605Y-89510523D01*
X148125604Y-89510523D01*
X148125607Y-89510522D01*
X148210522Y-89425607D01*
X148248453Y-89351163D01*
X148265038Y-89318614D01*
X148265038Y-89318612D01*
X148265040Y-89318609D01*
X148283826Y-89200000D01*
X148265040Y-89081391D01*
X148265038Y-89081388D01*
X148265038Y-89081385D01*
X148210523Y-88974394D01*
X148125605Y-88889476D01*
X148018614Y-88834961D01*
X148018609Y-88834960D01*
X147900000Y-88816174D01*
X147781390Y-88834960D01*
X147781385Y-88834961D01*
X147674394Y-88889476D01*
X147589476Y-88974394D01*
X147534961Y-89081385D01*
X147534960Y-89081390D01*
X147516174Y-89200000D01*
X143411016Y-89200000D01*
X143370150Y-89119797D01*
X143285232Y-89034879D01*
X143178241Y-88980364D01*
X143178236Y-88980363D01*
X143059627Y-88961577D01*
X143011782Y-88969155D01*
X142956710Y-88955933D01*
X142927117Y-88907642D01*
X142924240Y-88889476D01*
X142915040Y-88831391D01*
X142915038Y-88831388D01*
X142915038Y-88831385D01*
X142860523Y-88724394D01*
X142775607Y-88639478D01*
X142668609Y-88584960D01*
X142668607Y-88584959D01*
X142668606Y-88584959D01*
X142635138Y-88579658D01*
X142586848Y-88550064D01*
X142573627Y-88494993D01*
X142583826Y-88430600D01*
X142565040Y-88311991D01*
X142565038Y-88311988D01*
X142565038Y-88311985D01*
X142510523Y-88204994D01*
X142425605Y-88120076D01*
X142318614Y-88065561D01*
X142318609Y-88065560D01*
X142200000Y-88046774D01*
X142081390Y-88065560D01*
X142081385Y-88065561D01*
X141974394Y-88120076D01*
X141889476Y-88204994D01*
X141834961Y-88311985D01*
X141834960Y-88311990D01*
X141816174Y-88430600D01*
X134600500Y-88430600D01*
X134600500Y-87685180D01*
X134591767Y-87641278D01*
X134558504Y-87591496D01*
X134532907Y-87574393D01*
X134508722Y-87558233D01*
X134464820Y-87549500D01*
X132435180Y-87549500D01*
X132413229Y-87553866D01*
X132391277Y-87558233D01*
X132341496Y-87591495D01*
X132341495Y-87591496D01*
X132308233Y-87641277D01*
X132308233Y-87641278D01*
X132299500Y-87685180D01*
X132000500Y-87685180D01*
X132000500Y-85250000D01*
X139366174Y-85250000D01*
X139384960Y-85368609D01*
X139384961Y-85368614D01*
X139439476Y-85475605D01*
X139524394Y-85560523D01*
X139631385Y-85615038D01*
X139631388Y-85615038D01*
X139631391Y-85615040D01*
X139750000Y-85633826D01*
X139868609Y-85615040D01*
X139870338Y-85614158D01*
X139871632Y-85614056D01*
X139874143Y-85613241D01*
X139874338Y-85613843D01*
X139926799Y-85609711D01*
X139969868Y-85646491D01*
X139977025Y-85668514D01*
X139984960Y-85718610D01*
X139984961Y-85718614D01*
X140039476Y-85825605D01*
X140124394Y-85910523D01*
X140231385Y-85965038D01*
X140231388Y-85965038D01*
X140231391Y-85965040D01*
X140350000Y-85983826D01*
X140468609Y-85965040D01*
X140468611Y-85965039D01*
X140473728Y-85963377D01*
X140530190Y-85967819D01*
X140566974Y-86010885D01*
X140569686Y-86022177D01*
X140584960Y-86118610D01*
X140584961Y-86118614D01*
X140639476Y-86225605D01*
X140724394Y-86310523D01*
X140831385Y-86365038D01*
X140831388Y-86365038D01*
X140831391Y-86365040D01*
X140950000Y-86383826D01*
X141068609Y-86365040D01*
X141068610Y-86365039D01*
X141070806Y-86364326D01*
X141072350Y-86364447D01*
X141074361Y-86364129D01*
X141074437Y-86364611D01*
X141127269Y-86368769D01*
X141164052Y-86411836D01*
X141166763Y-86446279D01*
X141166174Y-86449998D01*
X141166174Y-86449999D01*
X141184960Y-86568609D01*
X141184961Y-86568614D01*
X141239476Y-86675605D01*
X141324394Y-86760523D01*
X141431385Y-86815038D01*
X141431388Y-86815038D01*
X141431391Y-86815040D01*
X141550000Y-86833826D01*
X141668609Y-86815040D01*
X141721699Y-86787988D01*
X141778161Y-86783545D01*
X141821229Y-86820327D01*
X141825673Y-86876789D01*
X141807622Y-86906248D01*
X141789476Y-86924394D01*
X141734961Y-87031385D01*
X141734960Y-87031390D01*
X141716174Y-87150000D01*
X141734960Y-87268609D01*
X141734961Y-87268614D01*
X141789476Y-87375605D01*
X141874394Y-87460523D01*
X141981385Y-87515038D01*
X141981388Y-87515038D01*
X141981391Y-87515040D01*
X142100000Y-87533826D01*
X142218609Y-87515040D01*
X142259090Y-87494413D01*
X142315551Y-87489969D01*
X142358619Y-87526752D01*
X142364453Y-87563576D01*
X142366174Y-87563576D01*
X142366174Y-87569399D01*
X142366174Y-87569400D01*
X142383911Y-87681385D01*
X142384960Y-87688009D01*
X142384961Y-87688014D01*
X142439476Y-87795005D01*
X142524394Y-87879923D01*
X142631385Y-87934438D01*
X142631388Y-87934438D01*
X142631391Y-87934440D01*
X142750000Y-87953226D01*
X142868609Y-87934440D01*
X142868612Y-87934438D01*
X142868614Y-87934438D01*
X142975605Y-87879923D01*
X142975604Y-87879923D01*
X142975607Y-87879922D01*
X143055529Y-87800000D01*
X151916174Y-87800000D01*
X151934960Y-87918609D01*
X151934961Y-87918614D01*
X151989476Y-88025605D01*
X152074394Y-88110523D01*
X152181385Y-88165038D01*
X152181388Y-88165038D01*
X152181391Y-88165040D01*
X152300000Y-88183826D01*
X152418609Y-88165040D01*
X152418612Y-88165038D01*
X152418614Y-88165038D01*
X152525605Y-88110523D01*
X152525604Y-88110523D01*
X152525607Y-88110522D01*
X152610522Y-88025607D01*
X152647402Y-87953226D01*
X152665038Y-87918614D01*
X152665038Y-87918612D01*
X152665040Y-87918609D01*
X152683826Y-87800000D01*
X152665040Y-87681391D01*
X152665038Y-87681388D01*
X152665038Y-87681385D01*
X152610523Y-87574394D01*
X152525605Y-87489476D01*
X152418614Y-87434961D01*
X152418609Y-87434960D01*
X152300000Y-87416174D01*
X152181390Y-87434960D01*
X152181385Y-87434961D01*
X152074394Y-87489476D01*
X151989476Y-87574394D01*
X151934961Y-87681385D01*
X151934960Y-87681390D01*
X151916174Y-87800000D01*
X143055529Y-87800000D01*
X143060522Y-87795007D01*
X143062355Y-87791408D01*
X143115038Y-87688014D01*
X143115038Y-87688012D01*
X143115040Y-87688009D01*
X143133826Y-87569400D01*
X143115040Y-87450791D01*
X143115038Y-87450788D01*
X143115038Y-87450785D01*
X143060523Y-87343794D01*
X142975605Y-87258876D01*
X142868614Y-87204361D01*
X142868609Y-87204360D01*
X142750000Y-87185574D01*
X142631390Y-87204360D01*
X142590909Y-87224986D01*
X142534446Y-87229429D01*
X142491379Y-87192646D01*
X142485552Y-87155824D01*
X142483826Y-87155824D01*
X142483826Y-87150000D01*
X142465040Y-87031391D01*
X142465038Y-87031388D01*
X142465038Y-87031385D01*
X142410523Y-86924394D01*
X142325605Y-86839476D01*
X142218614Y-86784961D01*
X142218609Y-86784960D01*
X142100000Y-86766174D01*
X141981390Y-86784960D01*
X141928299Y-86812011D01*
X141871836Y-86816454D01*
X141828769Y-86779671D01*
X141824326Y-86723208D01*
X141842377Y-86693751D01*
X141860522Y-86675607D01*
X141907287Y-86583826D01*
X141915038Y-86568614D01*
X141915038Y-86568612D01*
X141915040Y-86568609D01*
X141933826Y-86450000D01*
X141915040Y-86331391D01*
X141915038Y-86331388D01*
X141915038Y-86331385D01*
X141860523Y-86224394D01*
X141836129Y-86200000D01*
X151916174Y-86200000D01*
X151934960Y-86318609D01*
X151934961Y-86318614D01*
X151989476Y-86425605D01*
X152074394Y-86510523D01*
X152181385Y-86565038D01*
X152181388Y-86565038D01*
X152181391Y-86565040D01*
X152300000Y-86583826D01*
X152418609Y-86565040D01*
X152418612Y-86565038D01*
X152418614Y-86565038D01*
X152525605Y-86510523D01*
X152525604Y-86510523D01*
X152525607Y-86510522D01*
X152610522Y-86425607D01*
X152617539Y-86411836D01*
X152665038Y-86318614D01*
X152665038Y-86318612D01*
X152665040Y-86318609D01*
X152683826Y-86200000D01*
X152665040Y-86081391D01*
X152665038Y-86081388D01*
X152665038Y-86081385D01*
X152610523Y-85974394D01*
X152525605Y-85889476D01*
X152418614Y-85834961D01*
X152418609Y-85834960D01*
X152300000Y-85816174D01*
X152181390Y-85834960D01*
X152181385Y-85834961D01*
X152074394Y-85889476D01*
X151989476Y-85974394D01*
X151934961Y-86081385D01*
X151934960Y-86081390D01*
X151916174Y-86200000D01*
X141836129Y-86200000D01*
X141775605Y-86139476D01*
X141668614Y-86084961D01*
X141668609Y-86084960D01*
X141550000Y-86066174D01*
X141431382Y-86084961D01*
X141429182Y-86085676D01*
X141427638Y-86085554D01*
X141425639Y-86085871D01*
X141425562Y-86085390D01*
X141372720Y-86081225D01*
X141335944Y-86038152D01*
X141333237Y-86003716D01*
X141333826Y-86000000D01*
X141315040Y-85881391D01*
X141315038Y-85881388D01*
X141315038Y-85881385D01*
X141260523Y-85774394D01*
X141175605Y-85689476D01*
X141068614Y-85634961D01*
X141068609Y-85634960D01*
X140950000Y-85616174D01*
X140831386Y-85634960D01*
X140826263Y-85636625D01*
X140769801Y-85632177D01*
X140733022Y-85589106D01*
X140730313Y-85577821D01*
X140722043Y-85525607D01*
X140715040Y-85481391D01*
X140715038Y-85481388D01*
X140715038Y-85481385D01*
X140660523Y-85374394D01*
X140575605Y-85289476D01*
X140468614Y-85234961D01*
X140468609Y-85234960D01*
X140350000Y-85216174D01*
X140231390Y-85234960D01*
X140231384Y-85234961D01*
X140229651Y-85235845D01*
X140228352Y-85235947D01*
X140225850Y-85236760D01*
X140225654Y-85236159D01*
X140173188Y-85240283D01*
X140130125Y-85203495D01*
X140122974Y-85181483D01*
X140121907Y-85174752D01*
X140115040Y-85131391D01*
X140115038Y-85131388D01*
X140115038Y-85131385D01*
X140060523Y-85024394D01*
X139986127Y-84949998D01*
X147816174Y-84949998D01*
X147834960Y-85068607D01*
X147834961Y-85068612D01*
X147889476Y-85175603D01*
X147974394Y-85260521D01*
X148081385Y-85315036D01*
X148081388Y-85315036D01*
X148081391Y-85315038D01*
X148200000Y-85333824D01*
X148318609Y-85315038D01*
X148318612Y-85315036D01*
X148318614Y-85315036D01*
X148348124Y-85300000D01*
X151766174Y-85300000D01*
X151784960Y-85418609D01*
X151784961Y-85418614D01*
X151839476Y-85525605D01*
X151924394Y-85610523D01*
X152031385Y-85665038D01*
X152031388Y-85665038D01*
X152031391Y-85665040D01*
X152150000Y-85683826D01*
X152268609Y-85665040D01*
X152268612Y-85665038D01*
X152268614Y-85665038D01*
X152375605Y-85610523D01*
X152375604Y-85610523D01*
X152375607Y-85610522D01*
X152386129Y-85600000D01*
X160816174Y-85600000D01*
X160834960Y-85718609D01*
X160834961Y-85718614D01*
X160889476Y-85825605D01*
X160974394Y-85910523D01*
X161081385Y-85965038D01*
X161081388Y-85965038D01*
X161081391Y-85965040D01*
X161200000Y-85983826D01*
X161318609Y-85965040D01*
X161318612Y-85965038D01*
X161318614Y-85965038D01*
X161425605Y-85910523D01*
X161425604Y-85910523D01*
X161425607Y-85910522D01*
X161510522Y-85825607D01*
X161536617Y-85774393D01*
X161565038Y-85718614D01*
X161565039Y-85718610D01*
X161565040Y-85718609D01*
X161583826Y-85600000D01*
X161565040Y-85481391D01*
X161565038Y-85481388D01*
X161565038Y-85481385D01*
X161510523Y-85374394D01*
X161425605Y-85289476D01*
X161318614Y-85234961D01*
X161318609Y-85234960D01*
X161200000Y-85216174D01*
X161081390Y-85234960D01*
X161081385Y-85234961D01*
X160974394Y-85289476D01*
X160889476Y-85374394D01*
X160834961Y-85481385D01*
X160834960Y-85481390D01*
X160816174Y-85600000D01*
X152386129Y-85600000D01*
X152460522Y-85525607D01*
X152485999Y-85475605D01*
X152515038Y-85418614D01*
X152515038Y-85418612D01*
X152515040Y-85418609D01*
X152533826Y-85300000D01*
X152515040Y-85181391D01*
X152515038Y-85181388D01*
X152515038Y-85181385D01*
X152460523Y-85074394D01*
X152375605Y-84989476D01*
X152268614Y-84934961D01*
X152268609Y-84934960D01*
X152150000Y-84916174D01*
X152031390Y-84934960D01*
X152031385Y-84934961D01*
X151924394Y-84989476D01*
X151839476Y-85074394D01*
X151784961Y-85181385D01*
X151784960Y-85181390D01*
X151766174Y-85300000D01*
X148348124Y-85300000D01*
X148425605Y-85260521D01*
X148425604Y-85260521D01*
X148425607Y-85260520D01*
X148510522Y-85175605D01*
X148533053Y-85131385D01*
X148565038Y-85068612D01*
X148565038Y-85068610D01*
X148565040Y-85068607D01*
X148583826Y-84949998D01*
X148565040Y-84831389D01*
X148565038Y-84831386D01*
X148565038Y-84831383D01*
X148510523Y-84724392D01*
X148425605Y-84639474D01*
X148318614Y-84584959D01*
X148318609Y-84584958D01*
X148200000Y-84566172D01*
X148081390Y-84584958D01*
X148081385Y-84584959D01*
X147974394Y-84639474D01*
X147889476Y-84724392D01*
X147834961Y-84831383D01*
X147834960Y-84831388D01*
X147816174Y-84949998D01*
X139986127Y-84949998D01*
X139975605Y-84939476D01*
X139868614Y-84884961D01*
X139868609Y-84884960D01*
X139750000Y-84866174D01*
X139631390Y-84884960D01*
X139631385Y-84884961D01*
X139524394Y-84939476D01*
X139439476Y-85024394D01*
X139384961Y-85131385D01*
X139384960Y-85131390D01*
X139366174Y-85250000D01*
X132000500Y-85250000D01*
X132000500Y-83600000D01*
X137616174Y-83600000D01*
X137634960Y-83718609D01*
X137634961Y-83718614D01*
X137689476Y-83825605D01*
X137774394Y-83910523D01*
X137881385Y-83965038D01*
X137881388Y-83965038D01*
X137881391Y-83965040D01*
X138000000Y-83983826D01*
X138118609Y-83965040D01*
X138118612Y-83965038D01*
X138118614Y-83965038D01*
X138225605Y-83910523D01*
X138225604Y-83910523D01*
X138225607Y-83910522D01*
X138236129Y-83900000D01*
X138966174Y-83900000D01*
X138984960Y-84018609D01*
X138984961Y-84018614D01*
X139039476Y-84125605D01*
X139124394Y-84210523D01*
X139231385Y-84265038D01*
X139231388Y-84265038D01*
X139231391Y-84265040D01*
X139350000Y-84283826D01*
X139468609Y-84265040D01*
X139468612Y-84265038D01*
X139468614Y-84265038D01*
X139575605Y-84210523D01*
X139575604Y-84210523D01*
X139575607Y-84210522D01*
X139660522Y-84125607D01*
X139662355Y-84122008D01*
X139715038Y-84018614D01*
X139715038Y-84018612D01*
X139715040Y-84018609D01*
X139733826Y-83900000D01*
X139715040Y-83781391D01*
X139715038Y-83781388D01*
X139715038Y-83781385D01*
X139660523Y-83674394D01*
X139575605Y-83589476D01*
X139468614Y-83534961D01*
X139468609Y-83534960D01*
X139350000Y-83516174D01*
X139231390Y-83534960D01*
X139231385Y-83534961D01*
X139124394Y-83589476D01*
X139039476Y-83674394D01*
X138984961Y-83781385D01*
X138984960Y-83781390D01*
X138966174Y-83900000D01*
X138236129Y-83900000D01*
X138310522Y-83825607D01*
X138333054Y-83781385D01*
X138365038Y-83718614D01*
X138365038Y-83718612D01*
X138365040Y-83718609D01*
X138383826Y-83600000D01*
X138365040Y-83481391D01*
X138365038Y-83481388D01*
X138365038Y-83481385D01*
X138310523Y-83374394D01*
X138225605Y-83289476D01*
X138118614Y-83234961D01*
X138118609Y-83234960D01*
X138000000Y-83216174D01*
X137881390Y-83234960D01*
X137881385Y-83234961D01*
X137774394Y-83289476D01*
X137689476Y-83374394D01*
X137634961Y-83481385D01*
X137634960Y-83481390D01*
X137616174Y-83600000D01*
X132000500Y-83600000D01*
X132000500Y-82400000D01*
X137666174Y-82400000D01*
X137684960Y-82518609D01*
X137684961Y-82518614D01*
X137739476Y-82625605D01*
X137824394Y-82710523D01*
X137931385Y-82765038D01*
X137931388Y-82765038D01*
X137931391Y-82765040D01*
X138050000Y-82783826D01*
X138168609Y-82765040D01*
X138168612Y-82765038D01*
X138168614Y-82765038D01*
X138275605Y-82710523D01*
X138275604Y-82710523D01*
X138275607Y-82710522D01*
X138360522Y-82625607D01*
X138362355Y-82622008D01*
X138415038Y-82518614D01*
X138415038Y-82518612D01*
X138415040Y-82518609D01*
X138433826Y-82400000D01*
X138415040Y-82281391D01*
X138415038Y-82281388D01*
X138415038Y-82281385D01*
X138360523Y-82174394D01*
X138275605Y-82089476D01*
X138168614Y-82034961D01*
X138168609Y-82034960D01*
X138050000Y-82016174D01*
X137931390Y-82034960D01*
X137931385Y-82034961D01*
X137824394Y-82089476D01*
X137739476Y-82174394D01*
X137684961Y-82281385D01*
X137684960Y-82281390D01*
X137666174Y-82400000D01*
X132000500Y-82400000D01*
X132000500Y-81937500D01*
X146878674Y-81937500D01*
X146897460Y-82056109D01*
X146897461Y-82056114D01*
X146951976Y-82163105D01*
X147036894Y-82248023D01*
X147143885Y-82302538D01*
X147143888Y-82302538D01*
X147143891Y-82302540D01*
X147262500Y-82321326D01*
X147381109Y-82302540D01*
X147381112Y-82302538D01*
X147381114Y-82302538D01*
X147488105Y-82248023D01*
X147488104Y-82248023D01*
X147488107Y-82248022D01*
X147573022Y-82163107D01*
X147610539Y-82089476D01*
X147627538Y-82056114D01*
X147627538Y-82056112D01*
X147627540Y-82056109D01*
X147646326Y-81937500D01*
X147627540Y-81818891D01*
X147627538Y-81818888D01*
X147627538Y-81818885D01*
X147573023Y-81711894D01*
X147488105Y-81626976D01*
X147381114Y-81572461D01*
X147381109Y-81572460D01*
X147262500Y-81553674D01*
X147143890Y-81572460D01*
X147143885Y-81572461D01*
X147036894Y-81626976D01*
X146951976Y-81711894D01*
X146897461Y-81818885D01*
X146897460Y-81818890D01*
X146878674Y-81937500D01*
X132000500Y-81937500D01*
X132000500Y-77145519D01*
X157920655Y-77145519D01*
X157939441Y-77264128D01*
X157939442Y-77264133D01*
X157993957Y-77371124D01*
X158078875Y-77456042D01*
X158185866Y-77510557D01*
X158185869Y-77510557D01*
X158185872Y-77510559D01*
X158304481Y-77529345D01*
X158423090Y-77510559D01*
X158423093Y-77510557D01*
X158423095Y-77510557D01*
X158530086Y-77456042D01*
X158530085Y-77456042D01*
X158530088Y-77456041D01*
X158615003Y-77371126D01*
X158643581Y-77315038D01*
X158669519Y-77264133D01*
X158669519Y-77264131D01*
X158669521Y-77264128D01*
X158688307Y-77145519D01*
X158669521Y-77026910D01*
X158669519Y-77026907D01*
X158669519Y-77026904D01*
X158630334Y-76950000D01*
X159466174Y-76950000D01*
X159484960Y-77068609D01*
X159484961Y-77068614D01*
X159539476Y-77175605D01*
X159624394Y-77260523D01*
X159731385Y-77315038D01*
X159731388Y-77315038D01*
X159731391Y-77315040D01*
X159850000Y-77333826D01*
X159968609Y-77315040D01*
X159968612Y-77315038D01*
X159968614Y-77315038D01*
X160075605Y-77260523D01*
X160075604Y-77260523D01*
X160075607Y-77260522D01*
X160160522Y-77175607D01*
X160175853Y-77145519D01*
X160215038Y-77068614D01*
X160215038Y-77068612D01*
X160215040Y-77068609D01*
X160233826Y-76950000D01*
X160215040Y-76831391D01*
X160215038Y-76831388D01*
X160215038Y-76831385D01*
X160160523Y-76724394D01*
X160075605Y-76639476D01*
X159968614Y-76584961D01*
X159968609Y-76584960D01*
X159850000Y-76566174D01*
X159731390Y-76584960D01*
X159731385Y-76584961D01*
X159624394Y-76639476D01*
X159539476Y-76724394D01*
X159484961Y-76831385D01*
X159484960Y-76831390D01*
X159466174Y-76950000D01*
X158630334Y-76950000D01*
X158615004Y-76919913D01*
X158530086Y-76834995D01*
X158423095Y-76780480D01*
X158423090Y-76780479D01*
X158304481Y-76761693D01*
X158185871Y-76780479D01*
X158185866Y-76780480D01*
X158078875Y-76834995D01*
X157993957Y-76919913D01*
X157939442Y-77026904D01*
X157939441Y-77026909D01*
X157920655Y-77145519D01*
X132000500Y-77145519D01*
X132000500Y-76200000D01*
X160016174Y-76200000D01*
X160034960Y-76318609D01*
X160034961Y-76318614D01*
X160089476Y-76425605D01*
X160174394Y-76510523D01*
X160281385Y-76565038D01*
X160281388Y-76565038D01*
X160281391Y-76565040D01*
X160400000Y-76583826D01*
X160518609Y-76565040D01*
X160518612Y-76565038D01*
X160518614Y-76565038D01*
X160625605Y-76510523D01*
X160625604Y-76510523D01*
X160625607Y-76510522D01*
X160710522Y-76425607D01*
X160712355Y-76422008D01*
X160765038Y-76318614D01*
X160765038Y-76318612D01*
X160765040Y-76318609D01*
X160783826Y-76200000D01*
X160765040Y-76081391D01*
X160765038Y-76081388D01*
X160765038Y-76081385D01*
X160710523Y-75974394D01*
X160625605Y-75889476D01*
X160518614Y-75834961D01*
X160518609Y-75834960D01*
X160400000Y-75816174D01*
X160281390Y-75834960D01*
X160281385Y-75834961D01*
X160174394Y-75889476D01*
X160089476Y-75974394D01*
X160034961Y-76081385D01*
X160034960Y-76081390D01*
X160016174Y-76200000D01*
X132000500Y-76200000D01*
X132000500Y-71950000D01*
X153966174Y-71950000D01*
X153984960Y-72068609D01*
X153984961Y-72068614D01*
X154039476Y-72175605D01*
X154124394Y-72260523D01*
X154231385Y-72315038D01*
X154231388Y-72315038D01*
X154231391Y-72315040D01*
X154350000Y-72333826D01*
X154468609Y-72315040D01*
X154468612Y-72315038D01*
X154468614Y-72315038D01*
X154575605Y-72260523D01*
X154575604Y-72260523D01*
X154575607Y-72260522D01*
X154660522Y-72175607D01*
X154662355Y-72172008D01*
X154715038Y-72068614D01*
X154715038Y-72068612D01*
X154715040Y-72068609D01*
X154733826Y-71950000D01*
X154715040Y-71831391D01*
X154715038Y-71831388D01*
X154715038Y-71831385D01*
X154660523Y-71724394D01*
X154575605Y-71639476D01*
X154468614Y-71584961D01*
X154468609Y-71584960D01*
X154350000Y-71566174D01*
X154231390Y-71584960D01*
X154231385Y-71584961D01*
X154124394Y-71639476D01*
X154039476Y-71724394D01*
X153984961Y-71831385D01*
X153984960Y-71831390D01*
X153966174Y-71950000D01*
X132000500Y-71950000D01*
X132000500Y-63883716D01*
X133522500Y-63883716D01*
X133522500Y-64116283D01*
X133558880Y-64345979D01*
X133558883Y-64345992D01*
X133630745Y-64567160D01*
X133630747Y-64567164D01*
X133736327Y-64774378D01*
X133736328Y-64774379D01*
X133873026Y-64962527D01*
X134037473Y-65126974D01*
X134037476Y-65126976D01*
X134037477Y-65126977D01*
X134225621Y-65263672D01*
X134432835Y-65369252D01*
X134432839Y-65369254D01*
X134654007Y-65441116D01*
X134654013Y-65441117D01*
X134654018Y-65441119D01*
X134768868Y-65459309D01*
X134883716Y-65477500D01*
X134883718Y-65477500D01*
X135116284Y-65477500D01*
X135208162Y-65462947D01*
X135345982Y-65441119D01*
X135345989Y-65441116D01*
X135345992Y-65441116D01*
X135567160Y-65369254D01*
X135567160Y-65369253D01*
X135567163Y-65369253D01*
X135774379Y-65263672D01*
X135962527Y-65126974D01*
X136126974Y-64962527D01*
X136263672Y-64774379D01*
X136369253Y-64567163D01*
X136441119Y-64345982D01*
X136477500Y-64116282D01*
X136477500Y-63883718D01*
X136477500Y-63883716D01*
X159522500Y-63883716D01*
X159522500Y-64116283D01*
X159558880Y-64345979D01*
X159558883Y-64345992D01*
X159630745Y-64567160D01*
X159630747Y-64567164D01*
X159736327Y-64774378D01*
X159736328Y-64774379D01*
X159873026Y-64962527D01*
X160037473Y-65126974D01*
X160037476Y-65126976D01*
X160037477Y-65126977D01*
X160225621Y-65263672D01*
X160432835Y-65369252D01*
X160432839Y-65369254D01*
X160654007Y-65441116D01*
X160654013Y-65441117D01*
X160654018Y-65441119D01*
X160768868Y-65459309D01*
X160883716Y-65477500D01*
X160883718Y-65477500D01*
X161116284Y-65477500D01*
X161208162Y-65462947D01*
X161345982Y-65441119D01*
X161345989Y-65441116D01*
X161345992Y-65441116D01*
X161567160Y-65369254D01*
X161567160Y-65369253D01*
X161567163Y-65369253D01*
X161774379Y-65263672D01*
X161962527Y-65126974D01*
X162126974Y-64962527D01*
X162263672Y-64774379D01*
X162369253Y-64567163D01*
X162441119Y-64345982D01*
X162477500Y-64116282D01*
X162477500Y-63883718D01*
X162441119Y-63654018D01*
X162441117Y-63654013D01*
X162441116Y-63654007D01*
X162369254Y-63432839D01*
X162369252Y-63432835D01*
X162263672Y-63225621D01*
X162126977Y-63037477D01*
X162126976Y-63037476D01*
X162126974Y-63037473D01*
X161962527Y-62873026D01*
X161962524Y-62873023D01*
X161962522Y-62873022D01*
X161774378Y-62736327D01*
X161567164Y-62630747D01*
X161567160Y-62630745D01*
X161345992Y-62558883D01*
X161345979Y-62558880D01*
X161116284Y-62522500D01*
X161116282Y-62522500D01*
X160883718Y-62522500D01*
X160883716Y-62522500D01*
X160654020Y-62558880D01*
X160654007Y-62558883D01*
X160432839Y-62630745D01*
X160432835Y-62630747D01*
X160225621Y-62736327D01*
X160037477Y-62873022D01*
X159873022Y-63037477D01*
X159736327Y-63225621D01*
X159630747Y-63432835D01*
X159630745Y-63432839D01*
X159558883Y-63654007D01*
X159558880Y-63654020D01*
X159522500Y-63883716D01*
X136477500Y-63883716D01*
X136441119Y-63654018D01*
X136441117Y-63654013D01*
X136441116Y-63654007D01*
X136369254Y-63432839D01*
X136369252Y-63432835D01*
X136263672Y-63225621D01*
X136126977Y-63037477D01*
X136126976Y-63037476D01*
X136126974Y-63037473D01*
X135962527Y-62873026D01*
X135962524Y-62873023D01*
X135962522Y-62873022D01*
X135774378Y-62736327D01*
X135567164Y-62630747D01*
X135567160Y-62630745D01*
X135345992Y-62558883D01*
X135345979Y-62558880D01*
X135116284Y-62522500D01*
X135116282Y-62522500D01*
X134883718Y-62522500D01*
X134883716Y-62522500D01*
X134654020Y-62558880D01*
X134654007Y-62558883D01*
X134432839Y-62630745D01*
X134432835Y-62630747D01*
X134225621Y-62736327D01*
X134037477Y-62873022D01*
X133873022Y-63037477D01*
X133736327Y-63225621D01*
X133630747Y-63432835D01*
X133630745Y-63432839D01*
X133558883Y-63654007D01*
X133558880Y-63654020D01*
X133522500Y-63883716D01*
X132000500Y-63883716D01*
X132000500Y-60974500D01*
X132022174Y-60922174D01*
X132074500Y-60900500D01*
X163925500Y-60900500D01*
X163977826Y-60922174D01*
G37*
%TD.AperFunction*%
%TD*%
M02*
